M48
;Layer_Color=9474304
;FILE_FORMAT=2:5
INCH,LZ
;TYPE=PLATED
T1F00S00C0.01600
T2F00S00C0.02000
T3F00S00C0.02362
T4F00S00C0.02500
T5F00S00C0.02800
T7F00S00C0.03500
T8F00S00C0.03543
T9F00S00C0.04000
T11F00S00C0.04200
T12F00S00C0.04724
T13F00S00C0.05000
T14F00S00C0.05118
T15F00S00C0.06300
T16F00S00C0.07000
T17F00S00C0.09200
T18F00S00C0.12500
%
T01
X0128Y00102
X05268Y01978
X05693Y01839
X0512Y01848
X05141Y0179
X04797Y01945
X04758Y01944
X04762Y01992
X04778Y02029
X04814Y01999
X04811Y02113
X04704Y01944
X04454Y02004
X04135Y02092
X04023Y01976
X04304Y01461
X04331Y0131247
X04678Y0130847
X04942Y01286
X05076Y00971
X05096Y00944
X03805Y00971
X03696Y01027
X03797Y01171
X03271Y01258
X0311715Y01222
X03Y01268
X02939Y01225
X02898Y01141
X02831
X0274231Y0114
X02767Y01083
X02778Y00943
Y00877
X02974
X02981Y0106
X02949Y01093
X02778Y01253
X02748Y0128044
X02743Y01358
X02658Y013
X02648Y01243
X02436Y01273
X02504Y01367
X0241Y0142
X0235494Y0139406
X02317Y0174247
X02266Y01694
X02214Y01786
X02165Y01753
X0247Y0171
X02599Y01704
X0266Y01693
X0276Y01675
X0278168Y0161
X026699Y014771
X02649Y01498
X02962Y0147342
X03005Y014771
X03002Y01387
X03161Y01456
X03134Y01703
X03086Y01824
X03032Y01913
X0284Y01879
X02786Y01891
X0281398Y01966
X0284801Y02058
X0321Y02008
X0325168Y01851
X0328347Y0179753
X03408Y0154844
Y0149
X02973Y01722
X02538Y00943
X02103Y01488
X01067Y0188
X00933Y02381
X01047Y0267553
X01438Y02669
X01465Y02496
X02053Y02465
X01965Y02335
X02038Y02856
X0211596Y02863
X01985Y0294
X0209372Y0329972
X02008Y03473
X01129Y03377
Y03159
X01107Y03083
X02215Y03192
X02217Y02966
X0225444Y0284744
X02388Y02894
X02445Y02916
Y0283
X02392Y02745
Y02688
X02445Y02662
X0253732Y02569
X02632Y0265962
X02699Y02687
X02776Y0265244
Y02615
X0289084Y02657
X0288244Y0270756
X0301898Y02657
X03087Y02578
X03185Y02607
X032263Y02705
X03244Y02843
X03304Y02867
X0332744Y0276669
X03447Y02731
Y02691
X03431Y02651
X03424Y02846
X03451Y02979
Y03018
X03406Y03113
X03368Y03216
X0345Y03221
X03451Y03274
X034528Y0333035
X03403Y03321
X0334
X03435Y034
X0345Y03437
X03607Y0346299
X0359983Y0353083
X036655Y035805
X03641Y03665
X0358605Y03636
X03376Y03628
X0331
X03147Y0362856
X02819Y0363
X0278Y03592
X02771Y0351935
X02864Y0355
X0259895Y0358195
X02574Y03627
X02294Y03638
X0246644Y0337655
X025065Y033975
X0251588Y03344
X02576Y03308
X02588Y03249
X0249156Y03172
X02449Y03199
X02435Y0311
X02392Y03136
X0238977Y0306156
X02392Y0302244
X02552Y02898
X02588Y0293
X02625Y02825
X02552Y02778
X0225041Y02666
X02143Y02773
X02396Y0239921
X02494Y02286
X02757Y02349
X02773Y0241
X03009Y02433
X03083Y0242
X03413Y02132
X03652Y02653
X03685Y02705
X0365Y02881
X0359Y02924
X03653Y03
X0360869Y0311969
X03591Y03199
X0361961Y0322677
X0359261Y03256
X0359449Y0332151
X03349Y0295
X0269Y033335
X02422Y0331576
X03712Y03401
X03718Y03438
X0378895Y03415
X0375625Y0327
X03703Y0321744
X03886Y03254
X04021Y0322
X04044Y03293
X04088Y0343
X04015Y03474
X03899Y03538
X03692Y0351195
X03709Y03591
X0372989Y0295811
X03727Y02921
X03767
X03739Y02866
X03743Y02764
X03874Y02732
X03885Y02677
X03992Y02685
X0395663Y02609
X03939Y02768
X03885Y02795
X04117Y02788
X04097Y02827
X04298Y02824
X04342Y02821
X044Y02831
X04454Y02876
X0445Y02928
X04585Y02934
X04612Y02849
X04767Y02839
X04758Y02898
X04802Y02881
X0481Y02923
X04799Y02985
X04934Y03002
X05016Y02965
X04955Y02731
Y02649
X05026Y02656
X05016Y025325
X04838Y02537
X04816Y02559
X048523Y02578
X04814Y02504
Y02354
X048135Y021525
X04454Y02149
X04427Y02179
X04454Y02286
X04359Y02324
X04386Y02354
X04398Y02616
X04371Y02722
X04427Y02733
X047Y02757
X04785Y02782
X04814Y02813
X04811Y02682
X04766Y02674
X04731Y03108
X04612
X04639Y0305329
X04411Y03043
X04428Y03088
X0431681Y0306619
X04321Y02972
X04282Y02946
X04247Y03112
X04243Y0317
X04254Y03246
X0427Y03308
X04297Y034145
X04477Y03435
X04418Y03539
X04665Y03483
X04655Y03406
X04891Y03276
X04978Y03582
X04952Y03634
X05217Y03166
X04115Y03095
X04123Y03046
X0397668Y0312
X03889Y03036
X03955Y02405
X05321Y02275
X05436Y03655
X0572Y03425
X05427Y03751
X05318Y04122
X05332Y04226
X05621Y04632
X05471Y04795
X05535Y0491
X05172Y04856
X05099Y04896
X05046Y04725
X05074Y04664
X05245Y04737
X05234Y04415
X05224Y03968
X04974Y03849
X04874Y0407553
X0474776Y0399476
X04691Y0411
X04662Y04145
X04451Y04336
X04253Y04325
X04135Y044
X04104Y04403
X04032
X04075Y04359
X04129Y04229
X04068Y04143
X03979Y04169
X03988Y03991
Y03921
X0408892Y0390356
X04066Y04007
X04284Y03975
X04257Y03925
X0395Y0383
X03899Y03834
X03885Y03756
X03751Y03732
X0370616Y0370916
X03768Y03841
X03728Y03925
X03768Y04048
X03772Y041
X03703Y04189
X0372329Y04477
X0380108Y0451048
X03795Y0464
X03766Y04613
X03808Y04685
X03767Y04746
X03764Y04806
X03802Y0478936
X03981Y04811
X04008Y04837
Y04764
X04003Y04628
X03944Y04591
X03912Y04614
X03918Y04403
X04173Y04449
X04135Y04587
X04194Y04846
X03945Y04881
Y04952
X03999Y05062
X03832
X0372Y05242
X04246Y05207
X04254Y05167
X04174Y0513294
X0427636Y0505807
X04304Y05085
X04487Y04974
X04647Y05037
X04845Y05046
X04962Y05081
X04775Y04873
X03648Y04787
Y04637
X03554Y0459646
X03511Y04615
X03498Y0465
X03467Y04672
X0343Y04568
X03198Y04619
X03237Y04225
X0324325Y0407875
X03093Y04103
X02965Y04121
Y04151
Y0422
Y0433315
X0269
X0271193Y0447226
X02685Y04499
X02623Y04536
X02436Y04437
X02201Y04472
X022905Y04299
X02208Y04179
X02145Y04159
X02282Y04011
X02511Y04017
X02504Y03853
X0256112Y0377688
X0263Y0381
X02614Y03917
X02865Y03924
X0291Y03951
X02839Y0397
X03015Y03987
X03031Y03944
X0308082Y0389418
X03112Y03869
X03054Y03862
X03001Y03807
X02948Y03819
X03162Y03774
X03185Y03894
X03172Y03974
X0342315Y0390115
X03677Y03949
X03594Y05234
X03473Y05115
X02953Y04965
X02655Y05062
X02275Y05087
X02147Y05164
X02237Y0488
X02257Y04835
X0233Y04861
X02169Y04812
X02189Y03707
X02352Y03734
X0236048Y03794
X01879Y0403
Y04221
X01822Y04215
X01642Y04251
X0163Y04409
X01683Y04412
X01523Y04374
X01454Y04616
X01396Y04582
X01419Y04676
X01266Y04659
X0128245Y0472645
X01221Y04561
X01166Y04593
X01154Y04462
X01214
X00932Y04378
X00859Y04349
X00749Y04509
X00703Y04537
X0066
Y04425
X00776Y04989
X01405Y04906
X01622Y04929
X01665Y04961
X0164969Y04995
X0162554Y0504846
X0165495Y0511995
X01487Y05092
X01749Y04926
X01807Y04742
X01784Y04592
X02006Y04645
X02049
X0205502Y0458602
X02052Y04518
X0210712Y0452412
X02068Y044
X02013Y04299
X0163344Y0403044
X01611Y04008
X0158Y0403
X02077Y0495
X0208Y05247
X01836Y05243
X00444Y04584
X0041Y04543
X002576
X00383Y04378
X0047002Y0431002
X0049561Y04211
X00847Y05349
X0138047Y0576488
X01448Y0575
X01781Y05518
X01845Y0557
X01924Y05597
X01962Y05544
X0207436Y05504
X0204877Y0575238
X01953Y05309
X0215113Y0551856
X02209Y05654
X0249Y05639
X0271Y05733
X02691Y05346
X02648Y05285
X0284Y0536678
X02881Y05366
X02915Y05447
X02956Y0541
X03017Y05331
X03115Y05288
X0316Y05486
X03937Y05518
X040665Y05552
X04053Y0568615
X04098Y05688
X041295Y05729
X0416099Y05655
X04196Y05605
X0419249Y05523
X04295Y05571
X04351Y05515
X04318Y05396
X04257Y0534
X0422398Y05372
X0416099Y0527
X04044Y05288
X03874Y05331
X0390296Y0577204
X03909Y05848
X03867Y05842
X03808Y0576814
X03708Y05804
X03735Y05859
X0395976Y05883
X0405671Y0587571
X04026Y0583204
X04015Y05741
X04255Y05697
X04328Y0574242
X04279Y06027
X04449Y06009
X04562Y05974
X04862Y05993
X04828Y05813
Y05727
X04761Y05776
X0468Y055
X04704Y05352
X04508Y05308
X05162Y05491
X03974Y06027
X03885Y06001
X0384603Y06002
X0528Y06
T02
X01885Y02932
Y02975
T03
X0056272Y0416
X0062178
X0068083
X0073989
X0079894
X00858
X0091706
X0097611
X0103517
X0109422
X0115328
X0121233
X0127139
X0133044
X013895
X0050367
X0044461
T04
X03327Y01421
Y01613
X01695Y02568
Y0276
T05
X04528Y03582
X04628
X04728
X04828
X04928
X05028
Y03682
X05128
X04928
X04828
X04728
X04628
X04528
X04428
Y03782
X04528
Y03882
X04428
Y03982
X04528
Y04082
X04428
Y04182
X04528
Y04282
X04628
Y04182
X04728
Y04282
X04828
Y04182
X04928
Y04282
X05028
Y04182
X05128
Y04082
X05028
Y03982
X05128
Y03882
X05028
Y03782
X05128
X05062Y05446
X04962
Y05546
X04862
X04762
X04662
X04562
Y05646
Y05746
X04662
Y05646
Y05846
X04562
X04762
X04862
X04962
Y05946
X04862
X04762
X04662
X05062
Y05846
X05162
Y05746
Y05646
Y05546
X05062
Y05646
Y05746
X04862Y05446
X04762
X04662
T07
X04932Y00404
Y00504
X05232
Y00404
X0564Y0045
Y0025
X0594
Y0045
X05232Y00604
Y00704
X04932
Y00604
X0283Y00695
X0273
X0263
X0253
X0258Y00795
X0268
X0278
X0288
X02114Y01824
Y01924
Y02024
Y02124
X01814
Y02024
Y01924
Y01824
X0092Y05732
Y05932
X0062
Y05732
T08
X03718Y00686
X03818
X03918
X0411Y0113
X0421
X0431
X0441
X0451
X0461
X0471
X0481
X0491
X0501
Y0123
X0491
X0481
X0471
X0461
X0451
X0441
X0431
X0421
X0411
X0451Y04556
X0461
X0471
X04904Y04552
X05004
X05104
X05204
T09
X0249Y00985
X0259
X0282
X0292
X00892Y00958
Y01058
Y01158
X0089Y0155
Y0165
Y0175
X00884Y021
Y022
Y023
X00886Y02634
Y02734
Y02834
X00352Y05516
Y05616
Y05716
Y05816
Y05916
Y06016
Y06116
Y06216
T11
X05578Y01782
Y01882
Y01982
Y02082
Y02182
Y02282
Y02382
Y02482
Y02582
Y02682
Y02782
Y02882
Y02982
Y03082
Y03182
Y03282
Y03382
Y03482
Y03582
Y03682
Y03782
Y03882
Y03982
Y04082
Y04182
Y04282
Y04382
Y04482
Y04582
Y04682
T12
X0136315Y0588715
X0146157
X0156
X0165842
X0175685
X0191515Y05886
X0201358
X02112
Y0608285
X0191515
Y0618127
X0175685Y0618242
Y06084
X0156
X0136315
Y0618242
X0230885Y0618127
Y0608285
Y05886
X0221043
T13
X0564Y0015
X0594Y0075
X0062Y05632
X0092Y06232
T14
X0159816Y0408323
X0023595
T15
X02398Y00565
X03012
T16
X05578Y01407
T17
X05578Y05057
T18
X0248Y00445
X0293
X00192Y01058
X0019Y0165
X00184Y022
X00186Y02734
M30
