M48
;Layer_Color=9474304
;FILE_FORMAT=2:5
INCH,LZ
;TYPE=PLATED
T1F00S00C0.01600
T2F00S00C0.02000
T3F00S00C0.02362
T4F00S00C0.02500
T5F00S00C0.02800
T7F00S00C0.03500
T8F00S00C0.03543
T9F00S00C0.04000
T11F00S00C0.04200
T12F00S00C0.04724
T13F00S00C0.05000
T14F00S00C0.05118
T15F00S00C0.06300
T16F00S00C0.07000
T17F00S00C0.09200
T18F00S00C0.12500
T19F00S00C0.20100
%
T01
X05273Y00567
X0534Y01829
X0525Y01906
X05184Y01732
X04995Y01911
X04963Y01979
X04934Y01952
X04793Y01954
X04808Y02045
X04692Y02104
X04574Y02079
X04576Y02016
X04606Y01989
X04584Y01959
X04437Y02048
X04438Y02085
X0405829Y0182
X04019Y01446
X04154Y01356
X04259Y01401
X04452Y0137153
X04679Y01332
X04946Y01346
X05098Y01142
X03429Y01026
X0336Y00852
X03253Y00876
X03151Y00922
X02841Y0104
X0273731Y01072
X02695Y01098
X02699Y01141
X02712Y01243
X0273Y0128
X0278456Y01292
X0268326Y01327
X026695Y014945
X02675Y016
Y01642
X02761Y01672
X0288653Y0173447
X02981Y01699
X03085Y017
X0319978Y0171278
X03267Y0174
X0324Y01772
X03294Y01782
X03339Y01706
X03262Y016
X03429Y0149056
X03507Y01659
X03571Y01797
X03517Y01856
X03537Y02006
X03644Y01732
X0319Y01914
X03085Y01976
X03002Y0147342
X02865Y01509
X02905Y01232
X02971
X02868Y01172
X02484Y01371
X02456Y01478
X02392Y01485
X02515Y01552
X02571Y01587
X02568Y01673
X02602Y01704
X02642Y0179553
X02508Y01642
X02226Y0174847
X0222453Y0180153
X02344Y01302
X0236Y01261
X02457Y00737
X03429Y007
X02009Y01587
X01954Y01552
X02036Y01658
X020823Y017043
X01988Y0178
X0105Y01655
X0107753Y00812
X00954Y02511
X01047Y02675
X00902Y02973
X01Y0315
X00784Y03235
X01643Y03072
X01942Y0303756
X0207516Y0303944
X020835Y029475
X01985Y02939
X02024Y02872
X021Y02856
X01856Y02903
X01994Y03144
X0203Y03459
X01861Y03605
X01502Y02786
X01558Y02676
X01892Y02442
X02118Y02477
X0245Y02405
X0256555Y024
X02508Y02577
X02442Y02648
X02392Y02647
X02395Y0275433
X0247827Y0278418
X02548Y02872
X02388Y0289213
X02397Y02967
X0222582Y02958
X02165Y02924
X02128
X02198Y02813
X02238Y02808
X0225403Y0277402
X02251Y03075
X02252Y03158
X022Y03203
X02221Y0330488
X02173Y0336457
X02252Y03396
X02388Y03484
X02397Y03521
X02357Y03629
X02234Y03605
X0216708Y0311
X02477Y03282
X02585Y0324
X02813Y0324336
X02839Y0293
X0285228Y02761
X02964Y02717
X0287Y0260397
X0284Y0257228
X0279323Y026
X02644Y0267338
X02671Y0271256
X0277354Y0235
X02967Y02433
X03199Y02398
X0318Y02569
X032263Y02705
X03428Y02715
X03396Y02791
X03423Y02861
X0345Y02931
X03438Y03075
X0339Y03125
X03407Y03205
X0345Y03206
Y03245
Y03336
X03371Y03324
Y03363
X033716Y034676
X03451Y03455
Y03496
X03416Y03627
X03365Y03625
X03363Y0358
X03307Y03626
X03234Y03629
X0317498Y03628
X03052Y03541
X0295434Y03554
X02854Y0360035
X0327Y034
X03618Y033633
X035963Y03331
X03641Y03272
X0359189Y0322677
X036Y031874
X03601Y0314472
X036395Y03055
X03645Y02989
X03637Y02943
Y0288
X03608Y02825
X03591Y02715
X03672Y0274048
X03496Y02563
X03644Y02322
X03601Y03454
X0359Y03535
X03496Y03662
X03692Y03683
X03888Y03664
X03874Y03395
X03929Y0332
X03906Y03279
X03921Y03243
X03926Y03188
X03995Y03089
X04125Y03082
X04247Y03096
X0434Y03091
X04348Y03006
X04296Y03033
X04259Y02936
X04247Y02875
X04264Y02815
X04425Y02801
X04398Y02874
X04454Y02909
X04449Y03133
X04571Y03108
X04591Y0306
X0481Y03122
X048Y03172
X04931Y03213
X04904Y0324
X04987Y02971
X05027Y02886
X05011Y02827
X04965Y02811
X04996Y02743
X0493Y02683
X04924Y02556
X0487Y02553
X04806Y02609
X04814Y0266
Y02833
X0445Y02656
Y02618
X0438275Y02354
X04184
X04247Y0243
X04249Y0222
X0407421Y02311
X03905Y02296
Y02724
X03887Y02861
X03914Y02895
X04027Y0286
X04088Y0287
X04118Y02845
X04099Y02788
X04171Y02719
X04118Y02945
X04111Y0322
X0411Y03275
X04128Y03392
X04091Y03506
X03689Y03445
X03738Y03306
X03723Y03213
X03714Y0317
X037667Y032
X03763Y03095
X0375Y02993
Y02956
Y02894
X03729Y0272694
X04591Y0224
X04585Y02135
X04766Y02147
X04974Y02143
X04941Y02328
X04635Y03519
X04596Y03513
X05513Y03432
X05689Y03232
X05716Y02797
X05417Y02854
X05277Y02947
X05282Y03844
X0525Y0391
X05356Y03918
X05508Y03776
X05535Y04635
X05508Y049
X0538403Y0483697
X05346Y04953
X05259Y04992
X05194Y05055
X0500703Y04882
X04862Y05126
X04376Y05157
X04326Y05216
X04244Y0518467
X04214Y05132
X04297Y05105
X04133Y05081
X04075Y05193
X03838Y05137
X03945Y04998
X03918Y04903
X03904Y04848
X03931Y04798
X03991Y04775
X04008Y04737
X040035Y045915
X03984Y044183
X04052Y04391
X04109Y04443
X04113Y04482
X04143Y044183
X04253Y04328
X04307Y04365
X04568Y04323
X04578Y04164
X04697Y0409153
X04865Y0402447
X04892Y03842
X05094Y03929
X04992Y04132
X05145Y04624
X04145Y04677
X04144Y04821
X0422Y0493
X03785Y04662
X03769Y04625
X03812Y046025
X03902Y04443
X03928Y04346
X03893Y04298
X03897Y0420507
X03929Y04155
X03899Y04075
X03941Y04001
X03953Y03876
X0397656Y03843
X03898Y03903
X03759Y03968
X03699Y03963
X03747Y04034
X03746Y04078
X03751Y04172
X0377309Y04232
X03768Y04275
X0371204Y0427092
X04046Y04244
X04106Y04216
X04112Y04119
X04134Y04055
X04136Y03925
X04076Y03957
X04046Y03726
X03947Y03691
X04203Y03792
X04264Y0378
X04294Y0388344
X04444Y04029
X03587Y03981
X03502Y0407158
X03309Y0404552
X03336Y04222
X03355Y04305
X03231Y04358
X03193Y04448
X03194Y04258
X0316Y04128
X03106Y03987
X03016Y03923
X028875Y03908
X02863Y03937
X02878Y03835
X0288Y03787
X0279691Y03793
X02815Y03852
X027255Y038675
X02752Y03908
X02611Y03962
X02528Y03916
X0252238Y03794
X02498Y03769
X02336Y03817
X02227Y03914
X02292Y03997
X02153Y03992
X02357Y04079
X02437Y0412
X02441Y0437
X02442Y04459
X02517Y04463
X02486Y0455
X02382Y04546
Y04492
X02343Y04354
X02567Y04347
X02637Y04321
X02638Y04463
X02665Y04519
X02765Y04343
X0289
X0304
X03035Y04287
X0299Y04225
X0254Y04271
X02434Y0462
X02322Y04681
X02215Y04924
X02218Y04968
X02216Y05038
X02249Y05017
X02486Y05004
X0285Y04916
X02899Y0491
X0297727Y0508
X02945Y05131
X0300647Y05174
X03077Y04989
X0320428Y0502828
X03241Y04704
X03238Y04664
X03197Y04661
X03309Y04633
X03497Y04507
X03586Y04469
X0362Y04564
X03627Y04755
X03568Y04761
X03643Y04812
X03639Y04855
X03384Y05223
X02158Y05233
X0213Y0486
X0218Y0371
X03077Y03771
X0311Y03835
X0324598Y0383983
X03419Y03791
X03523Y03813
X03496Y03842
X02017Y03845
X01852Y03771
X01836Y04214
X0187227Y0422273
X01879Y04278
Y04366
X01788Y04418
X0178Y04618
X018Y04768
X01839Y04897
X01733Y04925
X0178Y04998
X01872Y05007
X01591Y04998
X01558Y04968
X01634Y05085
X01591Y05128
X0141Y04592
X01422Y04442
X01273Y04642
X01151Y04744
X01195Y04792
X00819Y04783
X0085639Y04606
X00676Y0458357
Y04457
X00594Y04503
X0090757Y04346
X01044Y04363
X01361Y04054
X01965Y0418
X01997Y04418
X02059Y04421
X02088Y0456043
X02083Y04614
X02051Y04666
X0199698Y04618
X02031Y04761
X0052Y04731
X00434
X00439Y04596
X01114Y05359
X00993Y05619
X00956Y0569058
X0090757Y0567147
X0138047
X0170353Y05632
X01851Y05693
X01924Y05785
X0207356Y0577
X02074Y05503
X0208556Y05344
X01917
X0197Y05572
X02148Y05506
X02198Y05529
X02206Y05692
X02562Y05657
X02618Y05767
X02712Y05555
X02673Y055
X02996Y05415
X03208Y0557
X0316Y05811
X0353148Y05783
X03561Y05893
X0373369Y0586603
X03718Y05822
X03827Y058466
X03819Y05886
X03882Y05883
X03903Y05849
X03976Y05839
X04037Y05794
X04028Y05687
X04082Y05714
X04161Y05673
X04242Y0566
X04229Y05701
X04188Y05757
X04125Y05846
X0407Y05877
X03985Y06005
X04139Y06026
X04478Y05926
X04483Y05656
X04612Y05646
X04483Y05461
X0434997Y05545
X04224Y05575
X0419249Y0558401
X0416099Y05516
X0407047Y0551953
X0403501Y05576
X0397Y05391
X041295Y053365
X04115Y05278
X0425548Y05346
X0422398Y05383
X0379936Y05609
X03772Y05636
X03703Y06052
X04582Y06142
X04921Y05748
X05139Y05939
X05354Y05875
X05611Y05919
T02
X01885Y02932
Y02975
T03
X0056272Y0416
X0062178
X0068083
X0073989
X0079894
X00858
X0091706
X0097611
X0103517
X0109422
X0115328
X0121233
X0127139
X0133044
X013895
X0050367
X0044461
T04
X03327Y01421
Y01613
X01695Y02568
Y0276
T05
X04528Y03582
X04628
X04728
X04828
X04928
X05028
Y03682
X05128
X04928
X04828
X04728
X04628
X04528
X04428
Y03782
X04528
Y03882
X04428
Y03982
X04528
Y04082
X04428
Y04182
X04528
Y04282
X04628
Y04182
X04728
Y04282
X04828
Y04182
X04928
Y04282
X05028
Y04182
X05128
Y04082
X05028
Y03982
X05128
Y03882
X05028
Y03782
X05128
X05062Y05446
X04962
Y05546
X04862
X04762
X04662
X04562
Y05646
Y05746
X04662
Y05646
Y05846
X04562
X04762
X04862
X04962
Y05946
X04862
X04762
X04662
X05062
Y05846
X05162
Y05746
Y05646
Y05546
X05062
Y05646
Y05746
X04862Y05446
X04762
X04662
T07
X04932Y00404
Y00504
X05232
Y00404
X0564Y0045
Y0025
X0594
Y0045
X05232Y00604
Y00704
X04932
Y00604
X0283Y00695
X0273
X0263
X0253
X0258Y00795
X0268
X0278
X0288
X02114Y01824
Y01924
Y02024
Y02124
X01814
Y02024
Y01924
Y01824
X01035Y05377
Y05577
X00735
Y05377
T08
X03718Y00686
X03818
X03918
X0411Y0113
X0421
X0431
X0441
X0451
X0461
X0471
X0481
X0491
X0501
Y0123
X0491
X0481
X0471
X0461
X0451
X0441
X0431
X0421
X0411
X0451Y04556
X0461
X0471
X04904Y04552
X05004
X05104
X05204
T09
X0249Y00985
X0259
X0282
X0292
X00892Y00958
Y01058
Y01158
X0089Y0155
Y0165
Y0175
X00884Y021
Y022
Y023
X00886Y02634
Y02734
Y02834
X00467Y05161
Y05261
Y05361
Y05461
Y05561
Y05661
Y05761
Y05861
T11
X05578Y01782
Y01882
Y01982
Y02082
Y02182
Y02282
Y02382
Y02482
Y02582
Y02682
Y02782
Y02882
Y02982
Y03082
Y03182
Y03282
Y03382
Y03482
Y03582
Y03682
Y03782
Y03882
Y03982
Y04082
Y04182
Y04282
Y04382
Y04482
Y04582
Y04682
T12
X0136315Y0588715
X0146157
X0156
X0165842
X0175685
X0191515Y05886
X0201358
X02112
Y0608285
X0191515
Y0618127
X0175685Y0618242
Y06084
X0156
X0136315
Y0618242
X0230885Y0618127
Y0608285
Y05886
X0221043
T13
X0564Y0015
X0594Y0075
X00735Y05277
X01035Y05877
T14
X0159816Y0408323
X0023595
T15
X02398Y00565
X03012
T16
X05578Y01407
T17
X05578Y05057
T18
X0248Y00445
X0293
X00192Y01058
X0019Y0165
X00184Y022
X00186Y02734
T19
X003Y003
X064
X003Y062
X064
M30
