M48
;Layer_Color=9474304
;FILE_FORMAT=2:5
INCH,LZ
;TYPE=PLATED
T1F00S00C0.01600
T2F00S00C0.02000
T3F00S00C0.02362
T4F00S00C0.02500
T5F00S00C0.02800
T7F00S00C0.03500
T8F00S00C0.03543
T9F00S00C0.04000
T11F00S00C0.04200
T12F00S00C0.04724
T13F00S00C0.05000
T14F00S00C0.05118
T15F00S00C0.06300
T16F00S00C0.07000
T17F00S00C0.09200
T18F00S00C0.12500
%
T01
X02142Y01053
X03048Y01298
X03102Y01351
X02934Y01501
X02895Y01474
X03146Y014109
X03129Y01323
X03285Y0149
X03355Y01149
X03455Y01146
X03496Y01232
X0403Y01252
X04092Y01168
X04318Y01295
X04505Y0153
X04816Y01375
X04805Y01306
X04874
X06124Y01046
X07761Y01177
X07759Y01278
X07647Y02372
X07674Y024
X0728Y02661
X06896Y02558
X06834Y02575
X06773Y02534
X06781Y02434
X0671Y0245164
X06688Y02297
X0679Y02291
X06885Y024
Y02415
X06992Y02336
X06997
X07033Y02324
X06823Y02114
X0666Y0212447
X06596Y02161
X06611Y02256
X06543Y02269
X06528Y02372
X0644754Y02472
X06393Y02468
Y02602
X06349Y02658
X06385Y0273
X06386
X06412Y02794
X06462Y02766
X06439Y02917
X06399Y02904
X06349Y02847
X06263Y0297018
X06436Y02995
X0652969Y0296231
X06583Y03056
X06619Y02828
X06647Y02722
X06587Y02579
X06574Y02516
X06429Y0224
X06486Y01969
X06513Y01917
X06597Y02031
X0692175Y0194453
X06239Y01965
X06049Y02062
X05734Y01988
X0562Y0200783
X0554157Y0199243
X0540059Y0202
X05316
X05271Y0176
X05446Y01808
X05449Y01652
X05404Y01648
X05576Y01728
X05Y01734
X05015Y01659
X0509Y01857
X05052Y01952
X04974Y01983
X04825Y01918
X04704Y02308
X047Y02596
X04692Y02658
Y0281178
X04925Y02661
X04917Y0259
X04928Y02455
X05285Y02567
X0538856Y0262256
X0547744
X05548Y02593
X05505Y02549
X0545Y03024
X057Y03021
X0572486Y0311914
X05801Y0282
X0592265Y0289335
X06081Y03072
X06133Y03046
X06176Y03048
X05761Y02259
X04526Y02232
X045478Y0216
X04518Y02077
X04529Y01998
X04624Y02077
X04595Y01833
X04505Y01729
X04336Y01929
X04292Y01975
X04244Y0194547
X04232Y01847
X04039Y01879
X04054Y02128
X0416Y02054
X04321Y02107
X04252Y02373
X04288Y0243
X0447102Y02457
X0459898Y0246
X04649Y02476
X04573Y02389
X0444874Y0258374
X04421Y02915
X04032Y02818
X04053Y02737
X03968Y02876
X03776Y02891
X03765Y02951
X03829Y02945
X03818Y03056
X03579Y02953
X03562Y02824
X03607Y02703
X03765Y0270131
X03955Y02582
X03818Y02296
X03811Y02188
X03562Y02051
X03536Y0199
X034122Y01989
X03374Y01967
X03389Y02265
X0335388Y0232012
X0329898Y0229
X035024Y0232012
X03417Y02474
X03633Y0243
X04105Y02285
X03716Y01652
X03669Y01677
X03308Y0166
X03264Y02709
X0321Y0285823
X03385Y0288
X03422Y0293979
X03117Y03048
X03015
X02981Y02912
X02867Y02749
X02673Y02796
X026434Y02669
X02682Y02638
X0269147Y0256547
X02799Y02544
X02881Y02453
X03042Y02612
X03062Y02675
X02544Y02633
X02451Y0262
X02332Y02669
X02323Y02689
X0237675Y0251278
X02281Y02439
X02278Y02429
X02294Y02203
X02245Y02095
X0249Y02152
X02568Y02027
X02579Y0187
X0285Y02052
X02915Y02111
X02951Y02002
X03035
X01875Y02042
X01892Y02308
X01984Y02354
X02025Y02381
X01962Y02442
X0192598Y0249256
X02034Y02503
Y02506
X0208Y026
X01677Y02704
X0203497Y0162597
X02062Y01577
X01322Y0225709
X01339Y02545
X01384Y02681
X01118Y0266
X01971Y03279
X02053Y03208
X02026Y03469
X01928Y03408
X01882Y03524
X02017Y03625
X0211Y0364465
X0214204Y03591
X0221Y03574
X0220782Y0369318
X02212Y0377
X02121Y03773
X0214935Y0372339
X02158Y03887
X02112Y03894
X02101Y03856
X02135Y0396
X02067Y03971
X02111Y04024
X02155Y04116
X02167Y04183
X02169Y04225
X02061Y04233
X02085Y04262
X02128Y04329
X02133Y04387
X02141Y04447
X02077Y044265
X02017Y04361
X01987Y04277
X01859Y04211
X0183Y04144
X01854Y04071
X01784Y04029
X01767Y03954
X01852Y03869
X01908Y03884
X01935Y03979
X02204Y03939
X02398Y03943
X02384Y0402
X02357Y04048
X02395Y04087
X02527Y04174
X02608Y04281
Y04338
X02793Y04376
X0282Y04442
X0279Y04526
X02709Y04515
X02479Y04488
X02502Y04457
X02376Y04426
X02353Y04485
X02209Y0450452
X02256Y04563
X02109Y04616
X02082Y04644
Y04648
X01889Y04662
X01743Y04635
X01748Y0454
X01672Y04597
X0185172Y04496
X0191Y04489
X01716Y04347
X01748Y04191
X01689Y04181
X0220612Y0431394
X0221154Y0435117
X0221268Y04401
X02368Y04311
X02392Y04685
X02952Y04678
Y04443
X02884Y04342
X03047Y0395744
X02581Y03962
X02432Y03871
X0243Y03686
X0243563Y0350863
X0245Y03523
X0246521Y0348
X0255Y0351
X02549Y03558
X0262Y0362256
X027485Y036625
X02835Y03683
X02861Y03615
X02836Y0355
X02667Y03479
X0275Y0328372
X02588Y03224
X02571Y03178
X02485Y0334
X02358
X0232588Y03395
X02297Y03367
X02295Y03423
X02253Y0343
X02333Y03237
X02902Y03212
X03028Y03298
X03134Y0333707
X03161Y03272
X0328473Y0328173
X03332Y03287
X03372Y0315434
X03378Y03487
X03372Y03563
X03335Y03571
X033814Y0362496
X03404Y03656
X0356967Y0365453
X03615Y0375
X03675Y03815
X03772
X03737Y03864
X0374Y0387012
X03831Y03917
X0393412Y0387012
X03954Y0387
X040215Y03815
X04156
X04132Y0405
X04012Y04
X03897Y04042
X0385261Y04139
X0385Y04242
X03895Y04225
X03952Y0419
X04008Y04175
X04005Y04275
X0395641Y04296
X04001Y04352
X04007
X04008Y04395
X04011Y04452
X03943Y04469
X03897Y04425
X0374373Y04395
X0375333Y04352
X0365631Y0435331
X03632Y04322
X0366423Y04469
X0356Y04439
X03542Y0460375
X0358Y04606
X0361Y04651
X0374Y04678
X03928Y04637
X04043Y04648
X04149Y04482
X04244Y04321
X04245Y04232
X04524Y04175
X04488Y0412
X0466Y04136
Y04168
X04641Y04025
X04611Y03992
X04571Y03815
X0447412Y0389906
X04421Y03772
X03876Y03723
X03768Y04021
X03615Y03951
X03572Y0387012
X03271Y03864
Y03846
X03223Y03683
X03431Y03455
X03971Y0335
X04054Y03386
X03967Y0323
X03359Y0404456
X03406Y04385
X0327
X03276Y0446256
X0339Y04518
X0348Y0457
X04424Y04659
X0446Y0465
X04608Y04646
X04633Y0444
X04557Y0446
X04492Y04478
X0449846Y0434454
X04536Y04291
X04594Y04375
X04806Y04212
X04987Y04317
X05079Y04375
X0509Y0444
X05171Y04406
X0518154Y0434454
X05361Y04518
X05739Y04532
X05818Y04577
X06073Y04568
X06164Y04315
X06185Y0416
X06177Y04021
X0609Y04018
X06191Y03926
X06135Y03739
X06144Y0369894
X06245Y03575
Y03338
X06134Y03268
X06057Y03322
X05921Y03255
X05844Y03214
X05827Y03299
X05891Y03452
X05906Y0351
X05933Y03575
Y03664
X05873Y03637
X06035Y03836
X05925Y04126
X05972Y04195
X05968Y04286
X05941Y04315
X05807Y04159
X05774Y04009
X0572Y03965
X05543Y04226
X05664Y04425
X0489Y04577
X04941Y04666
X04925Y03695
X04782Y03563
Y03437
X04772Y03846
X05481Y0359547
X06251Y03555
X06297Y03483
X06294Y0328
X06461Y03254
X06531Y0319176
X06575Y03223
X06668Y03141
X06413Y03128
X06461Y03433
X06457Y03534
X06413Y0363
X06356Y03802
X06296Y03742
X06329Y03936
X06332
X06328Y0398011
X06332Y04098
X06453
X06484Y04024
X06479Y03987
X06452Y0396
X06491Y03936
Y03843
X06452Y03848
X06602Y0383762
X06634Y03931
X06832Y03943
X07048Y03858
X07107Y03971
X0714Y03415
X06675Y03591
X0653Y04058
Y04141
X06507Y0417
X06317Y04286
X06328Y0441
X0626Y04512
X06367Y04585
X06493Y04673
X06831Y04454
X06836Y04326
X06764Y04373
X07875Y05879
X07557Y05662
X07082Y05615
X07017Y05415
X06728Y05416
X06669Y05517
X06617Y05528
X06631Y05589
X0647Y05421
X06463Y0538
X06337Y05351
X06531Y05278
X06298Y05605
X06257Y05726
X0631439Y0576185
X06377Y05759
X06419Y0583
X0647Y0598
X06838Y04915
X06198Y0487
X0612053Y04702
X06109Y05302
X06133Y05444
Y0551
X06137Y0568
X06133Y05789
X06076Y0576
X06027Y05819
X06093Y05939
X05721Y05835
X05656Y05735
X05641Y05137
X05516Y05195
X05848Y05182
X05987Y05393
X05622Y04893
X05516Y04728
X05013Y04809
X04863Y04787
X04914Y04893
X0490297Y05038
X04806Y05
X0473Y04847
X04702Y04782
X04708Y05263
X0471Y05301
X0473949Y05409
X0477098Y0544129
Y0547
X0470799Y05512
X0477098Y05646
X04767Y05687
X04798Y05719
X04897Y0546
X048575Y05382
X0491045Y0529
X0492846Y05229
X05144Y05233
X05107Y05334
X04645Y05301
X0458201Y05305
X0455102Y05236
X0455051Y05179
X046135Y0518
X04505Y05261
X04393Y05233
X0442453Y05353
X0455051Y05521
X046135Y05511
X04435Y05751
X04498Y05924
X04555Y05929
X04525Y05965
Y06055
X0434Y05938
X04282Y05934
X04203Y0607
X04171Y06048
X04068
X04061Y06241
X04229Y06201
X04143Y05716
X0398304Y05578
X03923Y05583
X03875Y05654
X03886Y05788
X03799Y0576081
X0378Y0549
X03807Y05451
X03781Y05368
X03803Y05329
X03769Y05257
X0378Y0519
X03725Y0517
X03702Y05154
X0363Y0513718
X03613Y05202
X03577Y05225
X03566Y05262
X03563Y05299
X03606Y05295
X03615Y05292
X03583Y05366
X03615Y0542
X03567Y05437
X03572Y05504
X03593Y05572
X03647Y0553
X03638Y05476
X03729Y0540149
X03986Y0538
Y05423
X04002Y05478
X03952Y05305
X03964Y052395
X03986Y05163
X0394Y05064
X03785Y05083
X03729Y04978
X03623Y04942
X03564Y05105
X03301
X03166Y0508102
Y0504
X03183Y04983
X03263Y0496
X03331Y04814
X03271Y04707
X03192Y04786
X03486Y0479
X03365Y05275
X03338Y05248
X03308Y05318
X03243Y05429
X03133Y05449
X03154Y05608
X03193Y0561
X03261Y05602
X03224Y05693
X03231Y05934
X03148Y05922
X03193Y06176
X03236Y06167
X03328Y06163
X03421Y05774
X03459Y05806
X0354Y05693
X03443Y05445
X04132Y05039
X04227Y05103
X04328Y05037
X0434877Y0496377
X04393Y04965
X0442453Y04906
X04465Y04928
X0435027Y0491692
Y0487427
X04282Y0488003
X04602Y04938
X046765Y05029
X0468Y04696
X04016Y0471
X02926Y04778
X02899Y04857
X02779Y04886
X0278Y04933
X02701Y0492
X02599Y04996
X02635Y05091
X02489Y05093
X0239453Y0512047
X0231Y05082
X02267Y04981
X0252Y04921
X02479Y0482
X02551Y0478
X02648Y0475319
X0274549Y0476951
X0281997Y04734
X02821Y04694
X02421Y04762
X02302Y0469
X0178Y04738
X01688Y0486
X01928Y05707
X02184Y05697
X02169Y05785
X02262Y05739
X02533Y0567
X0255Y05631
X02617Y05629
X02644Y05602
X02769
X02739Y05478
X02723Y05403
X02742Y05317
X02795Y05354
X02832Y05358
X02879Y05269
X0283197Y0520827
X02873Y05112
X02927Y05084
X02955Y0523159
X03068Y05193
X03122Y05181
X02608Y0521622
X02612Y05259
X026105Y052655
X02564Y05304
X02555Y05316
X02552Y05324
X0265
X02489Y05229
X02858Y05472
X02864Y05664
X02915Y0571
X0305Y05736
X029865Y056005
X02823Y05811
X02771Y05831
X02877Y05958
X03Y05983
X03056Y06098
X0265Y06016
X02587Y06183
X01557Y05136
X01515Y04933
X00998Y06817
X02036Y06548
Y06311
X02315Y06369
X02331Y0647339
X02268Y06469
X02358Y0652457
Y0678602
X02503Y06801
X025Y06894
X02592Y06834
X0271Y0683
X02695Y07188
X02717Y07259
X02723Y07265
X0252865Y07179
X0247056Y07224
X02351Y07245
X02317Y0726953
X02239Y0721047
X0222Y07101
X02478Y0637
X02587Y06315
X0311Y06979
X03526Y06833
X03689Y06915
X03895Y06498
X03825Y06426
X03493Y06403
X03261Y06392
X04257Y07091
X04895Y06978
X0507Y07091
X0476Y06673
X05494Y0645
X05501Y06359
X05775Y06477
X06513Y07221
X06497Y07269
X07255Y06413
T02
X01962Y0403244
X02005
T03
X02095Y0570067
Y0575972
Y0581878
Y0587783
Y0593689
Y0599594
Y06055
Y0611406
Y0617311
Y0623217
Y0629122
Y0635028
Y0640933
Y0646839
Y0652744
Y065865
Y0664555
T04
X0664Y02895
X06832
X01795Y03378
Y0357
T05
X03955Y01105
X04055
X04155
X04255
X04355
X04455
Y01205
Y01305
Y01405
Y01505
X04555
Y01405
Y01305
Y01205
X04355
X04255
X04155
X04055
X03955
X03855
Y01305
X03955
Y01405
X03855
Y01505
X03955
Y01605
X03855
Y01705
X03955
Y01805
X04055
Y01705
X04155
Y01805
X04255
X04355
Y01705
X04455
Y01805
X04555Y01705
Y01605
X04455
X04255Y01705
X06075Y04665
X06175
X06275
X06375
Y04765
X06275
X06375Y04865
Y04965
Y05065
X06475
Y04965
Y04865
Y04765
Y05165
X06375
Y05265
X06275
Y05165
X06175
X06075
Y05065
Y04965
Y04865
Y04765
X06175
X05975
Y04865
Y04965
Y05065
Y05165
X06075Y05265
X06175
T07
X01485Y0131
Y0151
X01785
Y0131
X02095Y01295
Y01495
X02395
Y01295
X06355Y01705
X06455
X06555
X06655
X06705Y01805
X06605
X06505
X06405
X0469Y06005
Y06105
Y06205
X0439
Y06105
Y06005
X0402Y06015
Y06115
Y06215
X0372
Y06115
Y06015
Y06315
X0402
X0439Y06305
X0469
T08
X0116Y01235
X0126
Y01335
X0116
Y01435
X0126
Y01535
X0116
X03595Y01505
Y01405
Y01305
Y01205
X04705Y012
Y013
Y011
X0126Y01635
X0116
Y01735
X0126
Y01835
X0116
Y01935
X0126
Y02035
X0116
Y02135
X0126
X0118Y0251
Y0261
Y0271
T09
X02715Y01185
Y01285
Y01385
Y01485
X06315Y01995
X06415
X06645
X06745
X02715Y01885
Y01785
Y01685
Y01585
X0311Y06455
X0321
X0331
X0456Y0647
X0466
X0476
X0595
X0605
X0615
X0708
X0718
X0728
T11
X0761Y03215
Y03315
Y03415
Y03515
Y03615
Y03715
Y03815
Y03915
Y04015
Y04115
Y04215
Y04315
Y04415
Y04515
Y04615
Y04715
Y04815
Y04915
Y05015
Y05115
Y05215
Y05315
Y05415
Y05515
Y05615
Y05715
Y05815
Y05915
Y06015
Y06115
T12
X0510315Y0113658
Y01235
X053
Y0143185
X0520158
X0510315
X0539843
X0549685
Y01235
Y0113658
X056863Y0112658
Y01225
X0588315
Y0142185
X0598157
X0608
Y01225
Y0112658
X0578472Y0142185
X056863
T13
X01485Y0121
X02095Y01195
X02395Y01795
X01785Y0181
T14
X0201823Y0549201
Y0685421
T15
X06837Y01575
X06223
T16
X0761Y0284
T17
X0761Y0649
T18
X06305Y01455
X06755
X0466Y0717
X0321Y07155
X0605Y0717
X0718
M30
