M48
;Layer_Color=9474304
;FILE_FORMAT=2:5
INCH,LZ
;TYPE=PLATED
T1F00S00C0.01600
T2F00S00C0.02000
T3F00S00C0.02362
T4F00S00C0.02500
T5F00S00C0.02800
T7F00S00C0.03500
T8F00S00C0.03543
T9F00S00C0.04000
T11F00S00C0.04200
T12F00S00C0.04331
T13F00S00C0.04724
T14F00S00C0.05118
T15F00S00C0.06300
T16F00S00C0.07000
T17F00S00C0.09200
T18F00S00C0.12500
T19F00S00C0.20100
%
T01
X02858Y00532
X04485Y00402
X04704Y00406
X05516Y01249
X05931Y01838
X04982Y019
X04951Y01941
X04933Y01746
X04943Y01658
X05064Y01668
X04785Y01705
Y01596
X04609Y01962
X04493Y01946
X0448247Y01909
X04526Y02104
X04571Y02105
X04291Y02111
X04217Y02035
X04065Y02056
Y01958
Y01687
X0398Y01602
X03895Y01542
X03793Y01406
X03774Y00879
X0383616Y0090116
X04264Y0101
X04364Y01005
X052Y0080153
X03653Y00896
Y01037
X03469Y00946
X03391Y00932
X03357Y00912
X03536Y00842
X03482Y00788
X03032Y0072
X02862Y00872
X0287367Y0119167
X02821Y01263
X02784Y01244
X02743Y01251
X0269969Y0126331
X0266357Y0124643
X02653Y01315
Y01423
X02707Y01436
X02677Y01482
X02776Y01405
X02849Y01466
X02963
X0299636Y0139836
X02989Y01316
X0296425Y0128025
X0306Y01279
X03062Y01316
X03099Y01375
X03146Y01383
Y01472
X03115Y01497
X0308005Y0158505
X03161Y01604
X03113Y01657
X03093Y01728
X03048Y0176
X03267Y01856
X03333Y01926
X03531Y01832
X03677
X02759Y01805
X02681Y0184
X02446Y01922
X02391Y01946
X02354
X02299Y0209
X02416Y02115
X0254Y02116
X02757Y02084
X0247605Y0141805
X02435Y01439
X02395Y01453
X023659Y014771
X0228553Y0132653
X0222647Y0132853
X0224853Y01151
X02222Y00945
X02304
X02578Y0092
X0311715Y0096085
Y0114285
X01417Y01953
Y02001
Y02046
X00542Y02782
X00505Y02816
X01539Y02815
X0157184Y0251684
X01598Y02543
X0154567Y0249067
X0151951Y0246451
X0149335Y0243835
X0146719Y0241219
X01452Y02348
X01405Y02368
X0136
X01505Y02316
X01543
X01686Y02255
X01943Y0229433
X01975Y02274
X02012
X02049
X01884Y02867
X02068Y03205
X02116Y03242
X0208991Y0349591
X0206375Y0346975
X01809Y03332
X01764Y03671
X02238Y03644
X0221016Y0361616
X02184Y0359
X0215784Y0356384
X0213167Y0353767
X02153Y03254
X02251Y03252
X02392Y03313
X02431Y03358
X02476Y03295
X02453Y03237
X02438Y03153
X02392Y03144
X0242008Y0302992
X02479Y03027
X0244793Y0283307
X02503Y0279
X0253Y02674
X02597Y02658
X02719Y02684
X02876Y02682
X0285228Y0260172
X02859Y02414
X02805Y02412
X02757Y0241
X02674Y02384
X02683Y02307
X02723Y02244
X02752Y02161
X02836Y02245
X02923Y02316
X02971Y02272
X03086Y02332
X03214Y02414
X03192Y02606
X032263Y026713
X0335702Y0277402
X0338456Y02862
X03365Y0296
X03446Y02975
X03428Y03037
X0343766Y0310866
X03348Y03127
X03289Y03009
X03067
X0303574Y02745
X0299874
X0296174
X0292474
X02594Y02861
X02614Y02894
X02645Y02946
X0263713Y0334913
X026633Y033753
X0268946Y0340146
X0271562Y0342762
X02753Y03552
X0281291Y0355309
X02958Y03561
X02942Y03521
X0319Y03515
X03198Y03593
X03231Y03565
X03306Y03557
X03308Y0352
X0340895Y0352205
X0344094Y0340394
X03346Y03352
X0312787Y0361613
X0259863Y0358862
X02631Y03511
X02505
X02433Y03508
X0243813Y0354813
X024643Y035743
X0249046Y0360046
X0251662Y0362662
X0247827Y0259373
X0252Y02399
X02557Y02394
X02508Y02289
X02482Y0226267
X02477Y02311
X0245Y02338
X02411Y02332
X02383Y02366
X02305Y02397
X02232Y0247
X02299Y0222
X0236084Y0224016
X02387Y02214
X0238Y02159
X02461Y02152
X02562Y02161
X02166Y02149
X02149Y02888
X0342496Y0271496
X036503Y027937
X0329Y02254
X04017Y024
X0405Y02433
X03995Y02683
X04183
X0423991Y028391
X04274Y02861
X0428585Y0289815
X0433Y02925
X043078Y0295721
X04335Y02984
X0434067Y03022
X04365Y0305
X0433767Y0309
X0436Y0312
X04544Y03097
X0456695Y0315406
X04544Y03212
X04689Y03214
X0470688Y0327188
Y0314488
X047126Y0305563
Y0301626
Y0297689
Y0289815
Y0285878
X048274Y028391
Y0291784
Y0295721
Y0303595
X04839Y03091
X04923Y03268
X0472Y03444
Y03561
X0453717Y0355784
X04468Y03387
X0454Y02893
X04478Y02599
X04424Y02545
X04596Y02546
X04571Y0217
X0436244Y02167
X04289Y02184
X04189Y02231
X04069Y02134
X0431Y02328
X04366Y02285
X05113Y02314
X05154Y02417
X05084Y02487
X03736Y03089
X03799Y0328
X0381309Y0332891
X03815Y03369
X03848Y0344219
X0385182Y03485
X03895Y0355
X03913Y03609
X0395Y03685
X0531969Y0455132
X05527Y04532
X0552837Y04491
X05472Y04442
X05528Y05008
X05505Y0506
X05407Y0512
X05323Y05
X0641Y03851
X04722Y03892
X04711Y0376
X0462Y03793
X0454956Y0375244
X0454989Y0385011
X04548Y03981
X04465
X04469Y03921
X04255Y03923
X04198Y03855
X04089Y03877
X0414Y03949
X03991Y03921
X0392Y03948
X03855Y03912
X03798Y03961
X03765Y03795
X0395Y03765
X03925Y03714
X03882Y04246
X0392Y04378
X03801
X03736Y04297
X04138Y04383
X04257Y04378
X04075Y05
X0404Y04975
X04015Y04945
X0399Y04915
X0396Y0489
X0393Y04865
X039Y04835
X03875Y04805
X04003Y05188
X03978Y05231
X03738Y05188
X03693Y05233
X0413Y05061
X05005Y05235
X05223Y04983
X03623Y04691
X035878Y046322
X03649Y04489
X0366478Y0438522
X0354843Y0438458
X0333189Y0438511
X03366Y04456
X0321378Y0438522
X03113Y04278
X03159Y04201
X03147Y04075
X0333189Y0407689
X03397Y04097
X0349
X03582Y04096
X03559Y04129
X03589Y03943
X03626Y03937
X03658Y03801
X03147Y03779
X03096Y0377763
Y0381463
Y03854
Y03891
X0292906Y0392706
X02708Y03953
X02571Y0389219
Y0385519
Y0381582
Y0377882
X02613Y04137
X0265347Y0417054
X02679Y04211
X02587Y04235
X02713Y04394
X02926
X0334756Y0420856
X0187463Y0430037
X015495Y038855
X01336Y04546
X01324Y04594
X01241Y04698
X01199Y04688
X01162Y04689
X01122Y04684
X01138Y04769
X0099Y04653
X00891Y04733
X00854Y04739
X008052Y047368
X00758Y04744
X0062Y04761
X00571Y04736
X00685Y0462474
X00659Y04549
X00722Y04552
X00778Y04553
X00885Y04571
X00685Y0450326
X00725Y04037
X01175Y05241
X0154644Y0515344
X01884Y05239
X02069Y0517932
X02117Y05195
X00499Y04781
X00384Y0475
X00276Y04642
X0021332Y04621
X00077Y0445
X0052Y04595
X00547Y04569
X00867Y05549
X01489Y05979
X01888Y05771
X02011Y05768
X0199Y05736
X01983Y05544
X0202318Y0550418
X01989Y05375
X02095Y05272
X02132Y05269
X02179Y05377
X02278
X02406Y05505
X0215113Y0551287
X02153Y05628
X0237185Y05765
X02601Y05761
X02618Y05665
X02526
X02609Y05885
X03053Y05855
X03547Y06024
X03597Y0605
X0364Y06065
X03571Y06095
X03519Y06107
X03879Y06018
X0394052Y0604552
X04058Y06009
X0409Y05882
X04217Y0585
X04274Y05701
X04448Y05697
X04475Y05766
Y05998
X04074Y06197
X04122Y05651
X04107Y05553
X0408Y05527
X04085Y0537
X0404
X04003Y0538
X03974Y0535367
X0392Y05375
X0388Y05365
X03865Y05325
X03825Y0532
X03785Y0533
X03701Y05325
X0375Y05276
X0416Y05345
X042Y05335
X0424Y0533
X04277Y0532
X04396Y05304
X04385Y05267
X0453Y05302
X04877Y05263
X04903Y0563609
X05385Y06285
X05455Y06265
X0549Y06245
X05525Y0622
T02
X0199Y0294
Y02983
T03
X0056272Y0416
X0062178
X0068083
X0073989
X0079894
X00858
X0091706
X0097611
X0103517
X0109422
X0115328
X0121233
X0127139
X0133044
X013895
X0050367
X0044461
T04
X03327Y01421
Y01613
X02114Y01824
Y01924
Y02024
Y02124
X01814
Y02024
Y01924
Y01824
X0177776Y0265824
X01642Y02794
T05
X04138Y01887
Y01987
Y02087
X04238
Y01987
Y01887
Y01787
X04338
Y01887
X04438
X04538
Y01787
X04638
Y01887
X04738
Y01787
X04838Y01887
Y01987
X04738
Y02087
X04838
X04438Y01787
Y02387
X04538
X04638
X04738
Y02287
Y02187
X04838
Y02287
Y02387
X04738Y02487
X04638
X04538
X04438
X04338
Y02387
X04238
Y02487
X04138Y02387
Y02287
X04238
Y02187
X04138
X04662Y05446
X04762
X04862
X04962
X05062
Y05546
Y05646
Y05746
X05162
Y05646
Y05546
X04962
X04862
X04762
X04662
Y05646
Y05746
Y05846
Y05946
X04762
X04862
X04962
X05062
Y05846
X05162
X04962
X04862
X04762
X04562
Y05746
Y05646
Y05546
T07
X04932Y00404
Y00504
X05232
Y00404
Y00604
Y00704
X04932
Y00604
X0283Y00695
X0273
X0263
X0253
X0258Y00795
X0268
X0278
X0288
X0168Y0431
Y0441
Y0451
Y0461
Y0471
Y0481
Y0491
Y0501
Y0511
Y0521
X0138
Y0511
Y0501
Y0491
Y0481
Y0471
Y0461
Y0451
Y0441
Y0431
T08
X05319Y01309
Y01409
Y01509
Y01609
Y01709
Y01809
Y01909
Y02009
X05219
Y01909
Y01809
Y01709
Y01609
Y01509
Y01409
Y01309
X0501Y0123
X0491
X0481
X0471
X0461
X0451
X0441
X0431
X0421
X0411
Y0113
X0421
X0431
X0441
X0451
X0461
X0471
X0481
X0491
X0501
X03918Y00686
X03818
X03718
X03785Y0179
Y0189
Y0199
X03955Y0198
Y0208
Y0188
Y0178
X04Y04595
X041
X042
X043
X044
Y04695
X043
X042
X041
X04
X039
Y04595
X038
Y04695
X037
Y04595
X0343Y0471
X0333
X0323
X0313
Y0481
X0323
X0333
X0343
X0317Y05045
Y05145
X0307
Y05045
X0297
Y05145
X0287
Y05045
X0277
Y05145
X0267
Y05045
X0257
Y05145
X0247
Y05045
T09
X0249Y00985
X0259
X0282
X0292
X00841Y00964
Y01064
Y01164
X00842Y0159
Y0169
Y0179
X00843Y02187
Y02287
Y02387
X00839Y02783
Y02883
Y02983
X00467Y05161
Y05261
Y05361
Y05461
Y05561
Y05661
Y05761
Y05861
T11
X06113Y01777
Y01877
Y01977
Y02077
Y02177
Y02277
Y02377
Y02477
Y02577
Y02677
Y02777
Y02877
Y02977
Y03077
Y03177
Y03277
Y03377
Y03477
Y03577
Y03677
Y03777
Y03877
Y03977
Y04077
Y04177
Y04277
Y04377
Y04477
Y04577
Y04677
T12
X0552315Y0022315
Y0042
X0572
Y0022315
X00955Y0561
Y0580685
X0075815
Y0561
T13
X0136315Y0588715
X0146157
X0156
X0165842
X0175685
X0191515Y05886
X0201358
X02112
Y0608285
X0191515
Y0618127
X0175685Y0618242
Y06084
X0156
X0136315
Y0618242
X0230885Y0618127
Y0608285
Y05886
X0221043
T14
X0159816Y0408323
X0023595
T15
X02398Y00565
X03012
T16
X06113Y01402
T17
X06113Y05052
T18
X0248Y00445
X0293
X00141Y01064
X00142Y0169
X00143Y02287
X00139Y02883
T19
X003Y003
X064
X003Y062
X064
M30
