M48
;Layer_Color=9474304
;FILE_FORMAT=2:5
INCH,LZ
;TYPE=PLATED
T1F00S00C0.01600
T2F00S00C0.02000
T3F00S00C0.02362
T4F00S00C0.02500
T5F00S00C0.02800
T7F00S00C0.03500
T8F00S00C0.03543
T9F00S00C0.04000
T11F00S00C0.04200
T12F00S00C0.04724
T13F00S00C0.05000
T14F00S00C0.05118
T15F00S00C0.06300
T16F00S00C0.07000
T17F00S00C0.09200
T18F00S00C0.12500
T19F00S00C0.20100
%
T01
X0271244Y0131
X0276756Y0131
X03015Y01415
X030079Y014771
X0263256Y0163244
X0258Y01635
X043Y0286
X0430685Y0289815
X04335Y0293
X043078Y0295721
X04335Y02985
X0433Y03025
X04365Y0305
X04335Y0309
X0436Y0312
X047126Y0305563
Y0301626
Y0297689
Y0289815
Y0285878
X048274Y028391
Y0291784
Y0295721
Y0303595
X048294Y0310017
X0381Y0335
X0382Y0339
X0384Y03435
X0385182Y03485
X03895Y0355
X0392Y0361541
X0395Y03685
Y0372318
Y03765
X03875Y04805
X039Y04835
X0393Y04865
X0396Y0489
X0399Y04915
X04015Y04945
X0404Y04975
X05005Y05235
X0364Y06065
X03595Y0605
X0356Y06095
X0394052Y0604552
X04Y0538
X0404Y0537
X04085
X0416Y05345
X042Y05335
X0424Y0533
X04277Y0532
X03865Y05325
X03825Y0532
X03785Y0533
X0388Y05365
X05385Y06285
X05455Y06265
X0549Y06245
X05525Y0622
T02
X01885Y02935
Y02978
T03
X0056272Y0416
X0062178
X0068083
X0073989
X0079894
X00858
X0091706
X0097611
X0103517
X0109422
X0115328
X0121233
X0127139
X0133044
X013895
X0050367
X0044461
T04
X03327Y01421
Y01613
X02114Y01824
Y01924
Y02024
Y02124
X01814
Y02024
Y01924
Y01824
X01695Y02568
Y0276
T05
X04138Y01887
Y01987
Y02087
X04238
Y01987
Y01887
Y01787
X04338
Y01887
X04438
X04538
Y01787
X04638
Y01887
X04738
Y01787
X04838Y01887
Y01987
X04738
Y02087
X04838
X04438Y01787
Y02387
X04538
X04638
X04738
Y02287
Y02187
X04838
Y02287
Y02387
X04738Y02487
X04638
X04538
X04438
X04338
Y02387
X04238
Y02487
X04138Y02387
Y02287
X04238
Y02187
X04138
X04662Y05446
X04762
X04862
X04962
X05062
Y05546
Y05646
Y05746
X05162
Y05646
Y05546
X04962
X04862
X04762
X04662
Y05646
Y05746
Y05846
Y05946
X04762
X04862
X04962
X05062
Y05846
X05162
X04962
X04862
X04762
X04562
Y05746
Y05646
Y05546
T07
X04932Y00404
Y00504
X05232
Y00404
X0564Y0045
Y0025
X0594
Y0045
X05232Y00604
Y00704
X04932
Y00604
X0283Y00695
X0273
X0263
X0253
X0258Y00795
X0268
X0278
X0288
X0168Y0431
Y0441
Y0451
Y0461
Y0471
Y0481
Y0491
Y0501
Y0511
Y0521
X0138
Y0511
Y0501
Y0491
Y0481
Y0471
Y0461
Y0451
Y0441
Y0431
X01035Y05377
Y05577
X00735
Y05377
T08
X0532Y0129
Y0139
Y0149
Y0159
Y0169
Y0179
Y0189
Y0199
X05495
Y0189
Y0179
Y0169
Y0159
Y0149
Y0139
Y0129
X05595
Y0139
Y0149
Y0159
Y0169
Y0179
Y0189
Y0199
X0522
Y0189
Y0179
Y0169
Y0159
Y0149
Y0139
Y0129
X0501Y0123
X0491
X0481
X0471
X0461
X0451
X0441
X0431
X0421
X0411
Y0113
X0421
X0431
X0441
X0451
X0461
X0471
X0481
X0491
X0501
X03918Y00686
X03818
X03718
X03785Y0179
Y0189
Y0199
X03955Y0198
Y0208
Y0188
Y0178
X04Y04595
X041
X042
X043
X044
Y04695
X043
X042
X041
X04
X039
Y04595
X038
Y04695
X037
Y04595
X0343Y0471
X0333
X0323
X0313
Y0481
X0323
X0333
X0343
X0317Y05045
Y05145
X0307
Y05045
X0297
Y05145
X0287
Y05045
X0277
Y05145
X0267
Y05045
X0257
Y05145
X0247
Y05045
T09
X0249Y00985
X0259
X0282
X0292
X00892Y00958
Y01058
Y01158
X0089Y0155
Y0165
Y0175
X00884Y021
Y022
Y023
X00886Y02634
Y02734
Y02834
X00467Y05161
Y05261
Y05361
Y05461
Y05561
Y05661
Y05761
Y05861
T11
X06113Y01777
Y01877
Y01977
Y02077
Y02177
Y02277
Y02377
Y02477
Y02577
Y02677
Y02777
Y02877
Y02977
Y03077
Y03177
Y03277
Y03377
Y03477
Y03577
Y03677
Y03777
Y03877
Y03977
Y04077
Y04177
Y04277
Y04377
Y04477
Y04577
Y04677
T12
X0136315Y0588715
X0146157
X0156
X0165842
X0175685
X0191515Y05886
X0201358
X02112
Y0608285
X0191515
Y0618127
X0175685Y0618242
Y06084
X0156
X0136315
Y0618242
X0230885Y0618127
Y0608285
Y05886
X0221043
T13
X0564Y0015
X0594Y0075
X00735Y05277
X01035Y05877
T14
X0159816Y0408323
X0023595
T15
X02398Y00565
X03012
T16
X06113Y01402
T17
X06113Y05052
T18
X0248Y00445
X0293
X00192Y01058
X0019Y0165
X00184Y022
X00186Y02734
T19
X003Y003
X064
X003Y062
X064
M30
