G04 Layer_Color=128*
%FSLAX25Y25*%
%MOIN*%
G70*
G01*
G75*
%ADD14R,0.02756X0.03543*%
%ADD15R,0.03543X0.02756*%
%ADD16R,0.03150X0.03543*%
%ADD20R,0.03543X0.03150*%
%ADD24R,0.03150X0.03543*%
%ADD60R,0.04331X0.12992*%
D14*
X295253Y120100D02*
D03*
X289347D02*
D03*
X542047Y59300D02*
D03*
X547953D02*
D03*
X587500Y194500D02*
D03*
X593406D02*
D03*
X588147Y437300D02*
D03*
X594053D02*
D03*
X277147Y291500D02*
D03*
X283053D02*
D03*
X195953Y322900D02*
D03*
X190047D02*
D03*
D15*
X454000Y69047D02*
D03*
Y74953D02*
D03*
X457000Y45953D02*
D03*
Y40047D02*
D03*
X465000Y45953D02*
D03*
Y40047D02*
D03*
X278500Y47547D02*
D03*
Y53453D02*
D03*
X265500Y47547D02*
D03*
Y53453D02*
D03*
X441000Y137153D02*
D03*
Y131247D02*
D03*
X451200Y136953D02*
D03*
Y131047D02*
D03*
X461400Y137153D02*
D03*
Y131247D02*
D03*
X471400Y136753D02*
D03*
Y130847D02*
D03*
X480800Y137153D02*
D03*
Y131247D02*
D03*
X491000Y137353D02*
D03*
Y131447D02*
D03*
X421200Y138553D02*
D03*
Y132647D02*
D03*
X411000Y138553D02*
D03*
Y132647D02*
D03*
X86700Y567147D02*
D03*
Y573053D02*
D03*
X463800Y222947D02*
D03*
Y228853D02*
D03*
X450900Y221947D02*
D03*
Y227853D02*
D03*
X512800Y72953D02*
D03*
Y67047D02*
D03*
X512600Y61353D02*
D03*
Y55447D02*
D03*
D16*
X332844Y291700D02*
D03*
X338356D02*
D03*
X546156Y506000D02*
D03*
X540644D02*
D03*
X265344Y417100D02*
D03*
X270856D02*
D03*
X263256Y88000D02*
D03*
X257744D02*
D03*
X257744Y176200D02*
D03*
X263256D02*
D03*
X276756Y131000D02*
D03*
X271244D02*
D03*
X276756Y136500D02*
D03*
X271244D02*
D03*
X257744Y163500D02*
D03*
X263256D02*
D03*
X257744Y170000D02*
D03*
X263256D02*
D03*
X72256Y407500D02*
D03*
X66744D02*
D03*
X79744Y410000D02*
D03*
X85256D02*
D03*
X91244Y409500D02*
D03*
X96756D02*
D03*
X101744Y407500D02*
D03*
X107256D02*
D03*
X338356Y286100D02*
D03*
X332844D02*
D03*
X334744Y316500D02*
D03*
X340256D02*
D03*
X253256Y311000D02*
D03*
X247744D02*
D03*
X254756Y283000D02*
D03*
X249244D02*
D03*
X334244Y340000D02*
D03*
X339756D02*
D03*
X340756Y352300D02*
D03*
X335244D02*
D03*
X334744Y307500D02*
D03*
X340256D02*
D03*
X245244Y323500D02*
D03*
X250756D02*
D03*
X199156Y182000D02*
D03*
X193644D02*
D03*
X207356Y557200D02*
D03*
X201844D02*
D03*
X251756Y347500D02*
D03*
X246244D02*
D03*
X332744Y271500D02*
D03*
X338256D02*
D03*
X334756Y416500D02*
D03*
X329244D02*
D03*
X388144Y413800D02*
D03*
X393656D02*
D03*
X546656Y449100D02*
D03*
X541144D02*
D03*
X282956Y284800D02*
D03*
X277444D02*
D03*
X190811Y329700D02*
D03*
X196323D02*
D03*
D20*
X440100Y225556D02*
D03*
Y220044D02*
D03*
X467200Y379156D02*
D03*
Y373644D02*
D03*
X156600Y515344D02*
D03*
Y520856D02*
D03*
X640500Y460244D02*
D03*
Y465756D02*
D03*
X642500Y188256D02*
D03*
Y182744D02*
D03*
X272000Y53256D02*
D03*
Y47744D02*
D03*
X631500Y182744D02*
D03*
Y188256D02*
D03*
X301500Y147000D02*
D03*
Y141488D02*
D03*
X307500Y147000D02*
D03*
Y141488D02*
D03*
X67500Y474656D02*
D03*
Y469144D02*
D03*
X113500Y409256D02*
D03*
Y403744D02*
D03*
X120000Y409256D02*
D03*
Y403744D02*
D03*
X327500Y349744D02*
D03*
Y355256D02*
D03*
X318500Y270500D02*
D03*
Y264988D02*
D03*
X467500Y320000D02*
D03*
Y314488D02*
D03*
X141500Y408756D02*
D03*
Y403244D02*
D03*
X133000Y408756D02*
D03*
Y403244D02*
D03*
X126000Y408756D02*
D03*
Y403244D02*
D03*
X157100Y455144D02*
D03*
Y460656D02*
D03*
X150800Y455144D02*
D03*
Y460656D02*
D03*
X282400Y131956D02*
D03*
Y126444D02*
D03*
Y137844D02*
D03*
Y143356D02*
D03*
X258500Y348744D02*
D03*
Y354256D02*
D03*
X290000Y349744D02*
D03*
Y355256D02*
D03*
X281000D02*
D03*
Y349744D02*
D03*
X259500Y265744D02*
D03*
Y271256D02*
D03*
X249000Y271256D02*
D03*
Y265744D02*
D03*
X630500Y460244D02*
D03*
Y465756D02*
D03*
X490700Y572600D02*
D03*
Y567088D02*
D03*
X432900Y220044D02*
D03*
Y225556D02*
D03*
X346200Y155644D02*
D03*
Y161156D02*
D03*
X345900Y149356D02*
D03*
Y143844D02*
D03*
X271900Y290756D02*
D03*
Y285244D02*
D03*
X288200Y285444D02*
D03*
Y290956D02*
D03*
X201700Y329812D02*
D03*
Y324300D02*
D03*
X184900Y329456D02*
D03*
Y323944D02*
D03*
X532700Y58756D02*
D03*
Y53244D02*
D03*
D24*
X453500Y60437D02*
D03*
X449760Y52563D02*
D03*
X457240D02*
D03*
D60*
X72980Y194000D02*
D03*
X95420D02*
D03*
X70980Y253400D02*
D03*
X93420D02*
D03*
X70180Y314000D02*
D03*
X92620D02*
D03*
X98320Y131900D02*
D03*
X75880D02*
D03*
M02*
