G04 Layer_Color=128*
%FSLAX25Y25*%
%MOIN*%
G70*
G01*
G75*
%ADD11R,0.03543X0.02756*%
%ADD12R,0.03543X0.03150*%
%ADD14R,0.03150X0.03543*%
%ADD16R,0.02756X0.03543*%
D11*
X512600Y55447D02*
D03*
Y61353D02*
D03*
X512800Y67047D02*
D03*
Y72953D02*
D03*
X476200Y409153D02*
D03*
Y403247D02*
D03*
X492800Y408353D02*
D03*
Y402447D02*
D03*
X75200Y608553D02*
D03*
Y602647D02*
D03*
X411000Y132647D02*
D03*
Y138553D02*
D03*
X421200Y132647D02*
D03*
Y138553D02*
D03*
X491000Y131447D02*
D03*
Y137353D02*
D03*
X480800Y131247D02*
D03*
Y137153D02*
D03*
X471400Y130847D02*
D03*
Y136753D02*
D03*
X461400Y131247D02*
D03*
Y137153D02*
D03*
X451200Y131047D02*
D03*
Y136953D02*
D03*
X441000Y131247D02*
D03*
Y137153D02*
D03*
D12*
X282400Y143356D02*
D03*
Y137844D02*
D03*
Y126444D02*
D03*
Y131956D02*
D03*
X145000Y457756D02*
D03*
Y452244D02*
D03*
X152000Y457756D02*
D03*
Y452244D02*
D03*
X113000Y404044D02*
D03*
Y409556D02*
D03*
X119200Y404444D02*
D03*
Y409956D02*
D03*
X125000Y403644D02*
D03*
Y409156D02*
D03*
X131600Y403444D02*
D03*
Y408956D02*
D03*
X141400Y403044D02*
D03*
Y408556D02*
D03*
X401800Y383244D02*
D03*
Y388756D02*
D03*
X318500Y264988D02*
D03*
Y270500D02*
D03*
X281000Y349744D02*
D03*
Y355256D02*
D03*
X259500Y271256D02*
D03*
Y265744D02*
D03*
X221500Y284744D02*
D03*
Y290256D02*
D03*
X290000Y355256D02*
D03*
Y349744D02*
D03*
X258500Y354256D02*
D03*
Y348744D02*
D03*
X249000Y265744D02*
D03*
Y271256D02*
D03*
X298000Y290500D02*
D03*
Y296012D02*
D03*
X321000Y290500D02*
D03*
Y296012D02*
D03*
X338500Y291244D02*
D03*
Y296756D02*
D03*
X284000Y265244D02*
D03*
Y270756D02*
D03*
X327500Y355256D02*
D03*
Y349744D02*
D03*
X221500Y302244D02*
D03*
Y307756D02*
D03*
X159400Y489156D02*
D03*
Y483644D02*
D03*
D14*
X66244Y354000D02*
D03*
X71756D02*
D03*
X201844Y557200D02*
D03*
X207356D02*
D03*
X193644Y182000D02*
D03*
X199156D02*
D03*
X66644Y404000D02*
D03*
X72156D02*
D03*
X83356D02*
D03*
X77844D02*
D03*
X95356Y406800D02*
D03*
X89844D02*
D03*
X107156Y406600D02*
D03*
X101644D02*
D03*
X250756Y323500D02*
D03*
X245244D02*
D03*
X340256Y307500D02*
D03*
X334744D02*
D03*
X253256Y306000D02*
D03*
X247744D02*
D03*
X302500Y330000D02*
D03*
X296988D02*
D03*
X339756Y340000D02*
D03*
X334244D02*
D03*
X253256Y297000D02*
D03*
X247744D02*
D03*
X246244Y347500D02*
D03*
X251756D02*
D03*
X249244Y283000D02*
D03*
X254756D02*
D03*
X247744Y311000D02*
D03*
X253256D02*
D03*
X340256Y316500D02*
D03*
X334744D02*
D03*
X338256Y271500D02*
D03*
X332744D02*
D03*
X66244Y385800D02*
D03*
X71756D02*
D03*
X71556Y368600D02*
D03*
X66044D02*
D03*
D16*
X540553Y437800D02*
D03*
X534647D02*
D03*
X539906Y195000D02*
D03*
X534000D02*
D03*
M02*
