G04 Layer_Color=8388736*
%FSLAX25Y25*%
%MOIN*%
G70*
G01*
G75*
%ADD34C,0.05000*%
%ADD36C,0.06500*%
%ADD48C,0.08500*%
%ADD60O,0.08374X0.01878*%
%ADD61R,0.04043X0.03256*%
%ADD62R,0.04043X0.03650*%
%ADD63O,0.08500X0.02900*%
%ADD64R,0.03650X0.04043*%
%ADD65O,0.02075X0.07587*%
%ADD66R,0.03256X0.04043*%
%ADD67R,0.03650X0.04043*%
%ADD68R,0.02665X0.03453*%
%ADD69O,0.08500X0.02100*%
%ADD70O,0.01484X0.06406*%
%ADD71O,0.06406X0.01484*%
%ADD72O,0.01681X0.10146*%
%ADD73O,0.10146X0.01681*%
%ADD74O,0.02665X0.08374*%
%ADD75O,0.02100X0.08500*%
%ADD76O,0.01878X0.08374*%
%ADD77R,0.04831X0.07193*%
%ADD78C,0.25500*%
%ADD79R,0.06406X0.06406*%
%ADD80C,0.06406*%
%ADD81C,0.06799*%
%ADD82R,0.05500X0.05500*%
%ADD83C,0.05500*%
%ADD84C,0.07000*%
%ADD85C,0.03900*%
%ADD86O,0.15000X0.05000*%
%ADD87O,0.05000X0.15000*%
%ADD88O,0.17000X0.06000*%
%ADD89C,0.13000*%
%ADD90R,0.06700X0.06700*%
%ADD91C,0.15500*%
%ADD92R,0.06500X0.06500*%
%ADD93C,0.11100*%
%ADD94C,0.09000*%
%ADD95C,0.06700*%
%ADD96C,0.07100*%
%ADD97C,0.04437*%
%ADD98R,0.06500X0.06500*%
%ADD99C,0.03500*%
D34*
X169500Y256800D02*
D03*
Y276000D02*
D03*
X332700Y142100D02*
D03*
Y161300D02*
D03*
D36*
X564000Y45000D02*
D03*
Y25000D02*
D03*
X594000D02*
D03*
Y45000D02*
D03*
X249000Y98500D02*
D03*
X259000D02*
D03*
X282000D02*
D03*
X292000D02*
D03*
X253000Y69500D02*
D03*
X258000Y79500D02*
D03*
X263000Y69500D02*
D03*
X268000Y79500D02*
D03*
X273000Y69500D02*
D03*
X278000Y79500D02*
D03*
X283000Y69500D02*
D03*
X73500Y557700D02*
D03*
Y537700D02*
D03*
X103500D02*
D03*
Y557700D02*
D03*
X46700Y576100D02*
D03*
Y566100D02*
D03*
Y556100D02*
D03*
Y546100D02*
D03*
Y536100D02*
D03*
Y526100D02*
D03*
Y516100D02*
D03*
D48*
X239800Y56500D02*
D03*
X301200D02*
D03*
D60*
X216835Y422087D02*
D03*
Y424646D02*
D03*
Y427205D02*
D03*
Y429764D02*
D03*
Y432323D02*
D03*
Y434882D02*
D03*
Y437441D02*
D03*
Y440000D02*
D03*
X194000Y422087D02*
D03*
Y424646D02*
D03*
Y427205D02*
D03*
Y429764D02*
D03*
Y432323D02*
D03*
Y434882D02*
D03*
Y437441D02*
D03*
Y440000D02*
D03*
X215817Y490643D02*
D03*
Y493202D02*
D03*
Y495761D02*
D03*
Y498320D02*
D03*
Y500880D02*
D03*
Y503439D02*
D03*
Y505998D02*
D03*
Y508557D02*
D03*
X192983Y490643D02*
D03*
Y493202D02*
D03*
Y495761D02*
D03*
Y498320D02*
D03*
Y500880D02*
D03*
Y503439D02*
D03*
Y505998D02*
D03*
Y508557D02*
D03*
X215817Y456043D02*
D03*
Y458602D02*
D03*
Y461161D02*
D03*
Y463720D02*
D03*
Y466280D02*
D03*
Y468839D02*
D03*
Y471398D02*
D03*
Y473957D02*
D03*
X192983Y456043D02*
D03*
Y458602D02*
D03*
Y461161D02*
D03*
Y463720D02*
D03*
Y466280D02*
D03*
Y468839D02*
D03*
Y471398D02*
D03*
Y473957D02*
D03*
D61*
X206600Y383647D02*
D03*
Y389553D02*
D03*
X206000Y350247D02*
D03*
Y356153D02*
D03*
X371400Y79294D02*
D03*
Y85200D02*
D03*
X392600Y78094D02*
D03*
Y84000D02*
D03*
X226600Y180753D02*
D03*
Y174847D02*
D03*
X236800Y180153D02*
D03*
Y174247D02*
D03*
X308600Y179153D02*
D03*
Y173247D02*
D03*
X326000Y77706D02*
D03*
Y71800D02*
D03*
X310400Y77506D02*
D03*
Y71600D02*
D03*
X318800Y77706D02*
D03*
Y71800D02*
D03*
X334000Y77506D02*
D03*
Y71600D02*
D03*
X276000Y173647D02*
D03*
Y179553D02*
D03*
X267800D02*
D03*
Y173647D02*
D03*
X260200Y179953D02*
D03*
Y174047D02*
D03*
X252800Y179953D02*
D03*
Y174047D02*
D03*
X245600Y174247D02*
D03*
Y180153D02*
D03*
X301600Y173494D02*
D03*
Y179400D02*
D03*
X284200Y173447D02*
D03*
Y179353D02*
D03*
X293200Y173447D02*
D03*
Y179353D02*
D03*
X316200Y173847D02*
D03*
Y179753D02*
D03*
D62*
X196400Y348156D02*
D03*
Y342644D02*
D03*
X206400Y341956D02*
D03*
Y336444D02*
D03*
X197600Y384356D02*
D03*
Y378844D02*
D03*
X206600Y378400D02*
D03*
Y372888D02*
D03*
X141600Y49844D02*
D03*
Y55356D02*
D03*
X153200Y48688D02*
D03*
Y54200D02*
D03*
X165600Y49044D02*
D03*
Y54556D02*
D03*
X177000Y49244D02*
D03*
Y54756D02*
D03*
X189000Y48044D02*
D03*
Y53556D02*
D03*
X535000Y52088D02*
D03*
Y57600D02*
D03*
X350700Y143544D02*
D03*
Y149056D02*
D03*
Y160356D02*
D03*
Y154844D02*
D03*
X198500Y298244D02*
D03*
Y303756D02*
D03*
X183500Y257000D02*
D03*
Y262512D02*
D03*
Y280256D02*
D03*
Y274744D02*
D03*
X198500Y289756D02*
D03*
Y284244D02*
D03*
D63*
X171800Y474200D02*
D03*
Y479200D02*
D03*
Y484200D02*
D03*
Y489200D02*
D03*
X133800Y444200D02*
D03*
Y449200D02*
D03*
X171800Y464200D02*
D03*
Y469200D02*
D03*
X133800Y454200D02*
D03*
X171800Y459200D02*
D03*
Y454200D02*
D03*
Y449200D02*
D03*
Y444200D02*
D03*
X133800Y459200D02*
D03*
Y464200D02*
D03*
Y469200D02*
D03*
Y474200D02*
D03*
Y479200D02*
D03*
Y484200D02*
D03*
Y489200D02*
D03*
D64*
X213000Y481200D02*
D03*
X207488D02*
D03*
X191844Y516400D02*
D03*
X197356D02*
D03*
X205200Y447400D02*
D03*
X210712D02*
D03*
X192044Y481000D02*
D03*
X197556D02*
D03*
X208556Y516400D02*
D03*
X203044D02*
D03*
X143756Y563000D02*
D03*
X138244D02*
D03*
X156644D02*
D03*
X162156D02*
D03*
X212744Y296000D02*
D03*
X218256D02*
D03*
X194200Y447400D02*
D03*
X199712D02*
D03*
X197444Y534400D02*
D03*
X202956D02*
D03*
X301800Y122600D02*
D03*
X307312D02*
D03*
D65*
X215113Y568000D02*
D03*
X212554D02*
D03*
X192082D02*
D03*
X215113Y544575D02*
D03*
X212554D02*
D03*
X209995D02*
D03*
X207436D02*
D03*
X194641Y568000D02*
D03*
X204877Y544575D02*
D03*
X202318D02*
D03*
X199759D02*
D03*
X197200D02*
D03*
X194641D02*
D03*
X192082D02*
D03*
X197200Y568000D02*
D03*
X199759D02*
D03*
X202318D02*
D03*
X204877D02*
D03*
X207436D02*
D03*
X209995D02*
D03*
D66*
X156247Y545200D02*
D03*
X162153D02*
D03*
X162306Y553800D02*
D03*
X156400D02*
D03*
X137647Y548800D02*
D03*
X143553D02*
D03*
X138047Y556600D02*
D03*
X143953D02*
D03*
Y571000D02*
D03*
X138047D02*
D03*
X162553Y571400D02*
D03*
X156647D02*
D03*
X170753Y202600D02*
D03*
X164847D02*
D03*
X170953Y212600D02*
D03*
X165047D02*
D03*
X99047Y263200D02*
D03*
X104953D02*
D03*
X106153Y291400D02*
D03*
X100247D02*
D03*
X108353Y207000D02*
D03*
X102447D02*
D03*
X108753Y151600D02*
D03*
X102847D02*
D03*
X108200Y239600D02*
D03*
X102294D02*
D03*
X109506Y182800D02*
D03*
X103600D02*
D03*
X101847Y93800D02*
D03*
X107753D02*
D03*
X107353Y127000D02*
D03*
X101447D02*
D03*
X223247Y109600D02*
D03*
X229153D02*
D03*
X222847Y101400D02*
D03*
X228753D02*
D03*
X222847Y119600D02*
D03*
X228753D02*
D03*
X223047Y127800D02*
D03*
X228953D02*
D03*
X222647Y137600D02*
D03*
X228553D02*
D03*
D67*
X26140Y438874D02*
D03*
X18660D02*
D03*
X22400Y431000D02*
D03*
D68*
X535032Y21454D02*
D03*
X537000Y15746D02*
D03*
X538969Y21454D02*
D03*
D69*
X487200Y195400D02*
D03*
Y197900D02*
D03*
Y200400D02*
D03*
Y202900D02*
D03*
Y205400D02*
D03*
Y207900D02*
D03*
Y210400D02*
D03*
Y212900D02*
D03*
Y215400D02*
D03*
Y217900D02*
D03*
Y220400D02*
D03*
Y222900D02*
D03*
Y225400D02*
D03*
Y227900D02*
D03*
Y230400D02*
D03*
Y232900D02*
D03*
Y235400D02*
D03*
Y237900D02*
D03*
Y240400D02*
D03*
Y242900D02*
D03*
Y245400D02*
D03*
Y247900D02*
D03*
Y250400D02*
D03*
X451200D02*
D03*
Y247900D02*
D03*
Y245400D02*
D03*
Y242900D02*
D03*
Y240400D02*
D03*
Y237900D02*
D03*
Y235400D02*
D03*
Y232900D02*
D03*
Y230400D02*
D03*
Y227900D02*
D03*
Y225400D02*
D03*
Y222900D02*
D03*
Y220400D02*
D03*
Y217900D02*
D03*
Y215400D02*
D03*
Y212900D02*
D03*
Y210400D02*
D03*
Y207900D02*
D03*
Y205400D02*
D03*
Y202900D02*
D03*
Y200400D02*
D03*
Y197900D02*
D03*
Y195400D02*
D03*
Y192900D02*
D03*
X487200D02*
D03*
X418500Y279500D02*
D03*
X382500D02*
D03*
Y282000D02*
D03*
Y284500D02*
D03*
Y287000D02*
D03*
Y289500D02*
D03*
Y292000D02*
D03*
Y294500D02*
D03*
Y297000D02*
D03*
Y299500D02*
D03*
Y302000D02*
D03*
Y304500D02*
D03*
Y307000D02*
D03*
Y309500D02*
D03*
Y312000D02*
D03*
Y314500D02*
D03*
Y317000D02*
D03*
Y319500D02*
D03*
Y322000D02*
D03*
Y324500D02*
D03*
Y327000D02*
D03*
Y329500D02*
D03*
Y332000D02*
D03*
Y334500D02*
D03*
Y337000D02*
D03*
X418500D02*
D03*
Y334500D02*
D03*
Y332000D02*
D03*
Y329500D02*
D03*
Y327000D02*
D03*
Y324500D02*
D03*
Y322000D02*
D03*
Y319500D02*
D03*
Y317000D02*
D03*
Y314500D02*
D03*
Y312000D02*
D03*
Y309500D02*
D03*
Y307000D02*
D03*
Y304500D02*
D03*
Y302000D02*
D03*
Y299500D02*
D03*
Y297000D02*
D03*
Y294500D02*
D03*
Y292000D02*
D03*
Y289500D02*
D03*
Y287000D02*
D03*
Y284500D02*
D03*
Y282000D02*
D03*
X419500Y382500D02*
D03*
X383500D02*
D03*
Y385000D02*
D03*
Y387500D02*
D03*
Y390000D02*
D03*
Y392500D02*
D03*
Y395000D02*
D03*
Y397500D02*
D03*
Y400000D02*
D03*
Y402500D02*
D03*
Y405000D02*
D03*
Y407500D02*
D03*
Y410000D02*
D03*
Y412500D02*
D03*
Y415000D02*
D03*
Y417500D02*
D03*
Y420000D02*
D03*
Y422500D02*
D03*
Y425000D02*
D03*
Y427500D02*
D03*
Y430000D02*
D03*
Y432500D02*
D03*
Y435000D02*
D03*
Y437500D02*
D03*
Y440000D02*
D03*
X419500D02*
D03*
Y437500D02*
D03*
Y435000D02*
D03*
Y432500D02*
D03*
Y430000D02*
D03*
Y427500D02*
D03*
Y425000D02*
D03*
Y422500D02*
D03*
Y420000D02*
D03*
Y417500D02*
D03*
Y415000D02*
D03*
Y412500D02*
D03*
Y410000D02*
D03*
Y407500D02*
D03*
Y405000D02*
D03*
Y402500D02*
D03*
Y400000D02*
D03*
Y397500D02*
D03*
Y395000D02*
D03*
Y392500D02*
D03*
Y390000D02*
D03*
Y387500D02*
D03*
Y385000D02*
D03*
X487200Y263300D02*
D03*
Y265800D02*
D03*
Y268300D02*
D03*
Y270800D02*
D03*
Y273300D02*
D03*
Y275800D02*
D03*
Y278300D02*
D03*
Y280800D02*
D03*
Y283300D02*
D03*
Y285800D02*
D03*
Y288300D02*
D03*
Y290800D02*
D03*
Y293300D02*
D03*
Y295800D02*
D03*
Y298300D02*
D03*
Y300800D02*
D03*
Y303300D02*
D03*
Y305800D02*
D03*
Y308300D02*
D03*
Y310800D02*
D03*
Y313300D02*
D03*
Y315800D02*
D03*
Y318300D02*
D03*
X451200D02*
D03*
Y315800D02*
D03*
Y313300D02*
D03*
Y310800D02*
D03*
Y308300D02*
D03*
Y305800D02*
D03*
Y303300D02*
D03*
Y300800D02*
D03*
Y298300D02*
D03*
Y295800D02*
D03*
Y293300D02*
D03*
Y290800D02*
D03*
Y288300D02*
D03*
Y285800D02*
D03*
Y283300D02*
D03*
Y280800D02*
D03*
Y278300D02*
D03*
Y275800D02*
D03*
Y273300D02*
D03*
Y270800D02*
D03*
Y268300D02*
D03*
Y265800D02*
D03*
Y263300D02*
D03*
Y260800D02*
D03*
X487200D02*
D03*
X406600Y458700D02*
D03*
Y461200D02*
D03*
Y463700D02*
D03*
Y466200D02*
D03*
Y468700D02*
D03*
Y471200D02*
D03*
Y473700D02*
D03*
Y476200D02*
D03*
Y478700D02*
D03*
Y481200D02*
D03*
Y483700D02*
D03*
Y486200D02*
D03*
Y488700D02*
D03*
Y491200D02*
D03*
Y493700D02*
D03*
Y496200D02*
D03*
Y498700D02*
D03*
Y501200D02*
D03*
Y503700D02*
D03*
Y506200D02*
D03*
Y508700D02*
D03*
Y511200D02*
D03*
Y513700D02*
D03*
X370600D02*
D03*
Y511200D02*
D03*
Y508700D02*
D03*
Y506200D02*
D03*
Y503700D02*
D03*
Y501200D02*
D03*
Y498700D02*
D03*
Y496200D02*
D03*
Y493700D02*
D03*
Y491200D02*
D03*
Y488700D02*
D03*
Y486200D02*
D03*
Y483700D02*
D03*
Y481200D02*
D03*
Y478700D02*
D03*
Y476200D02*
D03*
Y473700D02*
D03*
Y471200D02*
D03*
Y468700D02*
D03*
Y466200D02*
D03*
Y463700D02*
D03*
Y461200D02*
D03*
Y458700D02*
D03*
Y456200D02*
D03*
X406600D02*
D03*
D70*
X270294Y154600D02*
D03*
X268326D02*
D03*
X266357D02*
D03*
X264389D02*
D03*
X262420D02*
D03*
Y119167D02*
D03*
X272263Y154600D02*
D03*
X274231D02*
D03*
X276200D02*
D03*
X278168D02*
D03*
X280137D02*
D03*
X282105D02*
D03*
X284074D02*
D03*
Y119167D02*
D03*
X282105D02*
D03*
X280137D02*
D03*
X278168D02*
D03*
X276200D02*
D03*
X274231D02*
D03*
X272263D02*
D03*
X270294D02*
D03*
X268326D02*
D03*
X266357D02*
D03*
X264389D02*
D03*
D71*
X255531Y147710D02*
D03*
Y126057D02*
D03*
X290964Y145742D02*
D03*
Y147710D02*
D03*
Y143773D02*
D03*
Y141805D02*
D03*
Y139836D02*
D03*
Y137868D02*
D03*
Y135899D02*
D03*
Y133931D02*
D03*
Y131962D02*
D03*
Y129994D02*
D03*
Y128025D02*
D03*
Y126057D02*
D03*
X255531Y145742D02*
D03*
Y128025D02*
D03*
Y129994D02*
D03*
Y131962D02*
D03*
Y133931D02*
D03*
Y135899D02*
D03*
Y137868D02*
D03*
Y139836D02*
D03*
Y141805D02*
D03*
Y143773D02*
D03*
D72*
X241921Y249941D02*
D03*
X241921Y369823D02*
D03*
X300976Y249941D02*
D03*
X243890Y369823D02*
D03*
X245858D02*
D03*
X247827D02*
D03*
X249795D02*
D03*
X251764D02*
D03*
X253732D02*
D03*
X255701D02*
D03*
X257669D02*
D03*
X259638D02*
D03*
X261606D02*
D03*
X263575D02*
D03*
X265543D02*
D03*
X267512D02*
D03*
X269480D02*
D03*
X271449D02*
D03*
X273417D02*
D03*
X275386D02*
D03*
X277354D02*
D03*
X279323D02*
D03*
X281291D02*
D03*
X283260D02*
D03*
X285228D02*
D03*
X287197D02*
D03*
X289165D02*
D03*
X291134D02*
D03*
X293102D02*
D03*
X295071D02*
D03*
X297039D02*
D03*
X299008D02*
D03*
X300976D02*
D03*
X302945D02*
D03*
X304913D02*
D03*
X306882D02*
D03*
X308850D02*
D03*
X310819D02*
D03*
X312787D02*
D03*
X314756D02*
D03*
X316724D02*
D03*
X318693D02*
D03*
X320661D02*
D03*
X322630D02*
D03*
X324598D02*
D03*
X326567D02*
D03*
X328535D02*
D03*
X330504D02*
D03*
X332473D02*
D03*
X334441D02*
D03*
X336410D02*
D03*
X338378D02*
D03*
X340347D02*
D03*
X342315D02*
D03*
Y249941D02*
D03*
X340347D02*
D03*
X338378D02*
D03*
X336410D02*
D03*
X334441D02*
D03*
X332473D02*
D03*
X330504D02*
D03*
X328535D02*
D03*
X326567D02*
D03*
X324598D02*
D03*
X322630D02*
D03*
X320661D02*
D03*
X318693D02*
D03*
X316724D02*
D03*
X314756D02*
D03*
X312787D02*
D03*
X310819D02*
D03*
X308850D02*
D03*
X306882D02*
D03*
X304913D02*
D03*
X302945D02*
D03*
X299008D02*
D03*
X297039D02*
D03*
X295071D02*
D03*
X293102D02*
D03*
X291134D02*
D03*
X289165D02*
D03*
X287197D02*
D03*
X285228D02*
D03*
X283260D02*
D03*
X281291D02*
D03*
X279323D02*
D03*
X277354D02*
D03*
X275386D02*
D03*
X273417D02*
D03*
X271449D02*
D03*
X269480D02*
D03*
X267512D02*
D03*
X265543D02*
D03*
X263575D02*
D03*
X261606D02*
D03*
X259638D02*
D03*
X257669D02*
D03*
X255701D02*
D03*
X253732D02*
D03*
X251764D02*
D03*
X249795D02*
D03*
X247827D02*
D03*
X245858D02*
D03*
X243890D02*
D03*
D73*
X232177Y304961D02*
D03*
Y259685D02*
D03*
X352059D02*
D03*
Y289213D02*
D03*
Y283307D02*
D03*
X232177Y273465D02*
D03*
Y360079D02*
D03*
X352059D02*
D03*
Y358110D02*
D03*
Y356142D02*
D03*
Y354173D02*
D03*
Y352205D02*
D03*
Y350236D02*
D03*
Y348268D02*
D03*
Y346299D02*
D03*
Y344331D02*
D03*
Y342362D02*
D03*
Y340394D02*
D03*
Y338425D02*
D03*
Y336457D02*
D03*
Y334488D02*
D03*
Y332520D02*
D03*
Y330551D02*
D03*
Y328583D02*
D03*
Y326614D02*
D03*
Y324646D02*
D03*
Y322677D02*
D03*
Y320709D02*
D03*
Y318740D02*
D03*
Y316772D02*
D03*
Y314803D02*
D03*
Y312835D02*
D03*
Y310866D02*
D03*
Y308898D02*
D03*
Y306929D02*
D03*
Y304961D02*
D03*
Y302992D02*
D03*
Y301024D02*
D03*
Y299055D02*
D03*
Y297087D02*
D03*
Y295118D02*
D03*
Y293150D02*
D03*
Y291181D02*
D03*
Y287244D02*
D03*
Y285276D02*
D03*
Y281339D02*
D03*
Y279370D02*
D03*
Y277402D02*
D03*
Y275433D02*
D03*
Y273465D02*
D03*
Y271496D02*
D03*
Y269528D02*
D03*
Y267559D02*
D03*
Y265591D02*
D03*
Y263622D02*
D03*
Y261654D02*
D03*
X232177Y358110D02*
D03*
Y356142D02*
D03*
Y354173D02*
D03*
Y352205D02*
D03*
Y350236D02*
D03*
Y348268D02*
D03*
Y346299D02*
D03*
Y344331D02*
D03*
Y342362D02*
D03*
Y340394D02*
D03*
Y338425D02*
D03*
Y336457D02*
D03*
Y334488D02*
D03*
Y332520D02*
D03*
Y330551D02*
D03*
Y328583D02*
D03*
Y326614D02*
D03*
Y324646D02*
D03*
Y322677D02*
D03*
Y320709D02*
D03*
Y318740D02*
D03*
Y316772D02*
D03*
Y314803D02*
D03*
Y312835D02*
D03*
Y310866D02*
D03*
Y308898D02*
D03*
Y306929D02*
D03*
Y302992D02*
D03*
Y301024D02*
D03*
Y299055D02*
D03*
Y297087D02*
D03*
Y295118D02*
D03*
Y293150D02*
D03*
Y291181D02*
D03*
Y289213D02*
D03*
Y287244D02*
D03*
Y285276D02*
D03*
Y283307D02*
D03*
Y281339D02*
D03*
Y279370D02*
D03*
Y277402D02*
D03*
Y275433D02*
D03*
Y271496D02*
D03*
Y269528D02*
D03*
Y267559D02*
D03*
Y265591D02*
D03*
Y263622D02*
D03*
Y261654D02*
D03*
D74*
X400351Y594408D02*
D03*
X397202D02*
D03*
X394052D02*
D03*
X390902D02*
D03*
X387753D02*
D03*
X384603D02*
D03*
X381454D02*
D03*
X378304D02*
D03*
X444446D02*
D03*
Y545400D02*
D03*
X441296D02*
D03*
X438146D02*
D03*
X434997D02*
D03*
X403501Y594408D02*
D03*
X406650D02*
D03*
X409800D02*
D03*
X412950D02*
D03*
X416099D02*
D03*
X419249D02*
D03*
X422398D02*
D03*
X425548D02*
D03*
X428698D02*
D03*
X431847D02*
D03*
X434997D02*
D03*
X438146D02*
D03*
X441296D02*
D03*
X431847Y545400D02*
D03*
X428698D02*
D03*
X425548D02*
D03*
X422398D02*
D03*
X419249D02*
D03*
X416099D02*
D03*
X412950D02*
D03*
X409800D02*
D03*
X406650D02*
D03*
X403501D02*
D03*
X400351D02*
D03*
X397202D02*
D03*
X394052D02*
D03*
X390902D02*
D03*
X387753D02*
D03*
X384603D02*
D03*
X381454D02*
D03*
X378304D02*
D03*
D75*
X311500Y440500D02*
D03*
Y404500D02*
D03*
X309000D02*
D03*
X306500D02*
D03*
X304000D02*
D03*
X301500D02*
D03*
X299000D02*
D03*
X296500D02*
D03*
X294000D02*
D03*
X291500D02*
D03*
X289000D02*
D03*
X286500D02*
D03*
X284000D02*
D03*
X281500D02*
D03*
X279000D02*
D03*
X276500D02*
D03*
X274000D02*
D03*
X271500D02*
D03*
X269000D02*
D03*
X266500D02*
D03*
X264000D02*
D03*
X261500D02*
D03*
X259000D02*
D03*
X256500D02*
D03*
X254000D02*
D03*
Y440500D02*
D03*
X256500D02*
D03*
X259000D02*
D03*
X261500D02*
D03*
X264000D02*
D03*
X266500D02*
D03*
X269000D02*
D03*
X271500D02*
D03*
X274000D02*
D03*
X276500D02*
D03*
X279000D02*
D03*
X281500D02*
D03*
X284000D02*
D03*
X286500D02*
D03*
X289000D02*
D03*
X291500D02*
D03*
X294000D02*
D03*
X296500D02*
D03*
X299000D02*
D03*
X301500D02*
D03*
X304000D02*
D03*
X306500D02*
D03*
X309000D02*
D03*
D76*
X90757Y466817D02*
D03*
X88198D02*
D03*
X85639D02*
D03*
X83080D02*
D03*
X80520D02*
D03*
X77961D02*
D03*
X75402D02*
D03*
X72843D02*
D03*
X90757Y443983D02*
D03*
X88198D02*
D03*
X85639D02*
D03*
X83080D02*
D03*
X80520D02*
D03*
X77961D02*
D03*
X75402D02*
D03*
X72843D02*
D03*
X44443Y444183D02*
D03*
X47002D02*
D03*
X49561D02*
D03*
X52120D02*
D03*
X54680D02*
D03*
X57239D02*
D03*
X59798D02*
D03*
X62357D02*
D03*
X44443Y467017D02*
D03*
X47002D02*
D03*
X49561D02*
D03*
X52120D02*
D03*
X54680D02*
D03*
X57239D02*
D03*
X59798D02*
D03*
X62357D02*
D03*
D77*
X108315Y282800D02*
D03*
X97685D02*
D03*
X108315Y272600D02*
D03*
X97685D02*
D03*
X112115Y105400D02*
D03*
X101485D02*
D03*
X112115Y116000D02*
D03*
X101485D02*
D03*
X111315Y174400D02*
D03*
X100685D02*
D03*
X111115Y162400D02*
D03*
X100485D02*
D03*
X110715Y218400D02*
D03*
X100085D02*
D03*
X110715Y229600D02*
D03*
X100085D02*
D03*
X301085Y114800D02*
D03*
X311715D02*
D03*
D78*
X30000Y30000D02*
D03*
X640000D02*
D03*
Y620000D02*
D03*
X30000D02*
D03*
D79*
X371800Y68600D02*
D03*
X520400Y455200D02*
D03*
X451000Y455600D02*
D03*
X501000Y123000D02*
D03*
D80*
X381800Y68600D02*
D03*
X391800D02*
D03*
X490400Y455200D02*
D03*
X500400D02*
D03*
X510400D02*
D03*
X461000Y455600D02*
D03*
X471000D02*
D03*
X501000Y113000D02*
D03*
X491000Y123000D02*
D03*
Y113000D02*
D03*
X481000Y123000D02*
D03*
Y113000D02*
D03*
X471000Y123000D02*
D03*
Y113000D02*
D03*
X461000Y123000D02*
D03*
Y113000D02*
D03*
X451000Y123000D02*
D03*
Y113000D02*
D03*
X441000Y123000D02*
D03*
Y113000D02*
D03*
X431000Y123000D02*
D03*
Y113000D02*
D03*
X421000Y123000D02*
D03*
Y113000D02*
D03*
X411000Y123000D02*
D03*
Y113000D02*
D03*
D81*
X136315Y588715D02*
D03*
X156000D02*
D03*
Y608400D02*
D03*
X175685Y618242D02*
D03*
X136315D02*
D03*
X175685Y608400D02*
D03*
X136315D02*
D03*
X175685Y588715D02*
D03*
X165842D02*
D03*
X146157D02*
D03*
X191515Y588600D02*
D03*
X211200D02*
D03*
Y608285D02*
D03*
X230885Y618127D02*
D03*
X191515D02*
D03*
X230885Y608285D02*
D03*
X191515D02*
D03*
X230885Y588600D02*
D03*
X221043D02*
D03*
X201358D02*
D03*
D82*
X523200Y40400D02*
D03*
X211400Y182400D02*
D03*
D83*
X523200Y50400D02*
D03*
Y60400D02*
D03*
Y70400D02*
D03*
X493200D02*
D03*
Y60400D02*
D03*
Y50400D02*
D03*
Y40400D02*
D03*
X211400Y192400D02*
D03*
Y202400D02*
D03*
Y212400D02*
D03*
X181400D02*
D03*
Y202400D02*
D03*
Y192400D02*
D03*
Y182400D02*
D03*
X472800Y358200D02*
D03*
X462800Y368200D02*
D03*
Y358200D02*
D03*
X452800Y368200D02*
D03*
Y358200D02*
D03*
X442800Y368200D02*
D03*
X452800Y378200D02*
D03*
X442800D02*
D03*
X452800Y388200D02*
D03*
X442800D02*
D03*
X452800Y398200D02*
D03*
X442800D02*
D03*
X452800Y408200D02*
D03*
X442800D02*
D03*
X452800Y418200D02*
D03*
X442800D02*
D03*
X452800Y428200D02*
D03*
X462800Y418200D02*
D03*
Y428200D02*
D03*
X472800Y418200D02*
D03*
Y428200D02*
D03*
X482800Y418200D02*
D03*
Y428200D02*
D03*
X492800Y418200D02*
D03*
Y428200D02*
D03*
X502800Y418200D02*
D03*
Y428200D02*
D03*
X512800Y418200D02*
D03*
X502800Y408200D02*
D03*
X512800D02*
D03*
X502800Y398200D02*
D03*
X512800D02*
D03*
X502800Y388200D02*
D03*
X512800D02*
D03*
X502800Y378200D02*
D03*
X512800D02*
D03*
X502800Y368200D02*
D03*
X512800D02*
D03*
X502800Y358200D02*
D03*
X492800Y368200D02*
D03*
Y358200D02*
D03*
X482800Y368200D02*
D03*
Y358200D02*
D03*
X472800Y368200D02*
D03*
X456200Y554600D02*
D03*
Y564600D02*
D03*
Y574600D02*
D03*
X466200Y564600D02*
D03*
Y574600D02*
D03*
X456200Y584600D02*
D03*
X466200D02*
D03*
X476200D02*
D03*
X486200D02*
D03*
X496200D02*
D03*
X466200Y594600D02*
D03*
X476200D02*
D03*
X486200D02*
D03*
X496200D02*
D03*
X466200Y554600D02*
D03*
X476200D02*
D03*
X486200D02*
D03*
X496200D02*
D03*
X466200Y544600D02*
D03*
X476200D02*
D03*
X486200D02*
D03*
X496200D02*
D03*
X506200D02*
D03*
Y594600D02*
D03*
X516200Y584600D02*
D03*
X506200D02*
D03*
Y554600D02*
D03*
X516200D02*
D03*
Y564600D02*
D03*
X506200Y574600D02*
D03*
X516200D02*
D03*
X506200Y564600D02*
D03*
D84*
X594000Y75000D02*
D03*
X564000Y15000D02*
D03*
X103500Y587700D02*
D03*
X73500Y527700D02*
D03*
D85*
X188500Y293200D02*
D03*
Y297500D02*
D03*
D86*
X64800Y30600D02*
D03*
D87*
X82800Y43600D02*
D03*
D88*
X64800Y54100D02*
D03*
D89*
X18600Y273400D02*
D03*
X19200Y105800D02*
D03*
X19000Y165000D02*
D03*
X18400Y220000D02*
D03*
D90*
X88600Y283400D02*
D03*
Y273400D02*
D03*
Y263400D02*
D03*
X89200Y115800D02*
D03*
Y105800D02*
D03*
Y95800D02*
D03*
X89000Y175000D02*
D03*
Y165000D02*
D03*
Y155000D02*
D03*
X88400Y230000D02*
D03*
Y220000D02*
D03*
Y210000D02*
D03*
X557800Y178200D02*
D03*
D91*
X293000Y44500D02*
D03*
X248000D02*
D03*
D92*
X288000Y79500D02*
D03*
D93*
X557800Y505700D02*
D03*
D94*
Y140700D02*
D03*
D95*
Y188200D02*
D03*
Y198200D02*
D03*
Y208200D02*
D03*
Y218200D02*
D03*
Y228200D02*
D03*
Y238200D02*
D03*
Y248200D02*
D03*
Y258200D02*
D03*
Y268200D02*
D03*
Y278200D02*
D03*
Y288200D02*
D03*
Y298200D02*
D03*
Y308200D02*
D03*
Y318200D02*
D03*
Y328200D02*
D03*
Y338200D02*
D03*
Y348200D02*
D03*
Y358200D02*
D03*
Y368200D02*
D03*
Y378200D02*
D03*
Y388200D02*
D03*
Y398200D02*
D03*
Y408200D02*
D03*
Y418200D02*
D03*
Y428200D02*
D03*
Y438200D02*
D03*
Y448200D02*
D03*
Y458200D02*
D03*
Y468200D02*
D03*
D96*
X23595Y408323D02*
D03*
X159816D02*
D03*
D97*
X44461Y416000D02*
D03*
X50367D02*
D03*
X56272D02*
D03*
X62178D02*
D03*
X68083D02*
D03*
X73989D02*
D03*
X79894D02*
D03*
X85800D02*
D03*
X91706D02*
D03*
X97611D02*
D03*
X103517D02*
D03*
X109422D02*
D03*
X115328D02*
D03*
X121233D02*
D03*
X127139D02*
D03*
X133044D02*
D03*
X138950D02*
D03*
D98*
X46700Y586100D02*
D03*
D99*
X494100Y232800D02*
D03*
X263700Y432100D02*
D03*
X249800Y376900D02*
D03*
X375000Y295600D02*
D03*
X499200Y413200D02*
D03*
X525000Y391000D02*
D03*
Y190600D02*
D03*
X405829Y182000D02*
D03*
X360800Y282500D02*
D03*
X345000Y293100D02*
D03*
X514500Y462400D02*
D03*
X489200Y384200D02*
D03*
X414500Y467700D02*
D03*
X399100Y477500D02*
D03*
X553500Y463500D02*
D03*
X538403Y483697D02*
D03*
X400800Y473700D02*
D03*
X393100Y479800D02*
D03*
X534600Y495300D02*
D03*
X390400Y484800D02*
D03*
X525900Y499200D02*
D03*
X400350Y459150D02*
D03*
X411300Y448200D02*
D03*
X422000Y493000D02*
D03*
X500703Y488200D02*
D03*
X493100Y321300D02*
D03*
X490400Y324000D02*
D03*
X498700Y297100D02*
D03*
X476600Y214700D02*
D03*
X499500Y191100D02*
D03*
X501100Y282700D02*
D03*
X480800Y204500D02*
D03*
X480600Y260900D02*
D03*
X479300Y195400D02*
D03*
X220000Y320300D02*
D03*
X359000Y353500D02*
D03*
X342300Y286100D02*
D03*
X337160Y346760D02*
D03*
X298100Y169900D02*
D03*
X509800Y114200D02*
D03*
X480000Y317200D02*
D03*
X444900Y313300D02*
D03*
X337100Y332400D02*
D03*
X342800Y271500D02*
D03*
X285228Y276100D02*
D03*
X319900Y239800D02*
D03*
X247827Y278418D02*
D03*
X244200Y264800D02*
D03*
X216708Y311000D02*
D03*
X223800Y280800D02*
D03*
X252238Y379400D02*
D03*
X238800Y348400D02*
D03*
X205900Y442100D02*
D03*
X208800Y456043D02*
D03*
X215800Y523300D02*
D03*
X199698Y461800D02*
D03*
X191700Y534400D02*
D03*
X208556D02*
D03*
X138047Y567147D02*
D03*
X460600Y198900D02*
D03*
X105000Y165500D02*
D03*
X222453Y180153D02*
D03*
X457400Y207900D02*
D03*
X438275Y235400D02*
D03*
X420300Y379200D02*
D03*
X429400Y388344D02*
D03*
X397656Y384300D02*
D03*
X390200Y444300D02*
D03*
X410900D02*
D03*
X486500Y402447D02*
D03*
X187227Y422273D02*
D03*
X78400Y323500D02*
D03*
X107753Y81200D02*
D03*
X458200Y614200D02*
D03*
X370300Y605200D02*
D03*
X390300Y584900D02*
D03*
X424700Y287500D02*
D03*
X541700Y285400D02*
D03*
X397600Y583900D02*
D03*
X434800Y300600D02*
D03*
X371800Y582200D02*
D03*
X429600Y303300D02*
D03*
X568900Y323200D02*
D03*
X561100Y591900D02*
D03*
X382700Y584660D02*
D03*
X353148Y578300D02*
D03*
X381900Y588600D02*
D03*
X535600Y391800D02*
D03*
X528200Y384400D02*
D03*
X527700Y294700D02*
D03*
X424700Y309600D02*
D03*
X407500Y519300D02*
D03*
X412500Y308200D02*
D03*
X550800Y377600D02*
D03*
Y490000D02*
D03*
X407600Y395700D02*
D03*
X444400Y402900D02*
D03*
X486200Y512600D02*
D03*
X369200Y368300D02*
D03*
X409100Y350600D02*
D03*
X411000Y327500D02*
D03*
X368900Y344500D02*
D03*
X352300Y381300D02*
D03*
X341900Y379100D02*
D03*
X307700Y498900D02*
D03*
X448300Y546100D02*
D03*
X434997Y554500D02*
D03*
X456800Y432300D02*
D03*
X410600Y421600D02*
D03*
X432600Y521600D02*
D03*
X360100Y314472D02*
D03*
X457600Y201600D02*
D03*
X390500Y229600D02*
D03*
Y272400D02*
D03*
X388700Y286100D02*
D03*
X360000Y318740D02*
D03*
X391400Y289500D02*
D03*
X443700Y204800D02*
D03*
X345000Y320600D02*
D03*
X375000Y289400D02*
D03*
X443800Y208500D02*
D03*
X359189Y322677D02*
D03*
X459100Y224000D02*
D03*
X339600Y279100D02*
D03*
X372900Y272694D02*
D03*
X424900Y222000D02*
D03*
X363950Y305500D02*
D03*
X345000Y333600D02*
D03*
X445000Y261800D02*
D03*
X361800Y336330D02*
D03*
X409900Y278800D02*
D03*
X402700Y286000D02*
D03*
X392100Y324300D02*
D03*
X360100Y345400D02*
D03*
X345100Y349600D02*
D03*
X387400Y339500D02*
D03*
X388800Y366400D02*
D03*
X395300Y387600D02*
D03*
X392900Y415500D02*
D03*
X358700Y398100D02*
D03*
X445400Y290900D02*
D03*
X349600Y366200D02*
D03*
X389900Y407500D02*
D03*
X341600Y362700D02*
D03*
X374600Y407800D02*
D03*
X459100Y306000D02*
D03*
X338400Y522300D02*
D03*
X397000Y539100D02*
D03*
X403700Y579400D02*
D03*
X320800Y557000D02*
D03*
X402800Y568700D02*
D03*
X412500Y584600D02*
D03*
X448300Y565600D02*
D03*
X407047Y551953D02*
D03*
X297727Y508000D02*
D03*
X461200Y564600D02*
D03*
X299600Y541500D02*
D03*
X419249Y558401D02*
D03*
X422400Y557500D02*
D03*
X289900Y491000D02*
D03*
X422398Y538300D02*
D03*
X285000Y491600D02*
D03*
X425548Y534600D02*
D03*
X424200Y566000D02*
D03*
X271200Y555500D02*
D03*
X261800Y576700D02*
D03*
X356100Y589300D02*
D03*
X256200Y565700D02*
D03*
X418800Y575700D02*
D03*
X349700Y450700D02*
D03*
X266500Y451900D02*
D03*
X263800Y446300D02*
D03*
X248600Y455000D02*
D03*
Y500400D02*
D03*
X379936Y560900D02*
D03*
X256700Y434700D02*
D03*
X377200Y563600D02*
D03*
X376900Y462500D02*
D03*
X319400Y425800D02*
D03*
X378500Y466200D02*
D03*
X319300Y444800D02*
D03*
X381200Y460250D02*
D03*
X299000Y422500D02*
D03*
X356800Y476100D02*
D03*
X319700Y466100D02*
D03*
X307700Y377100D02*
D03*
X288000Y378700D02*
D03*
X286300Y393700D02*
D03*
X316000Y412800D02*
D03*
X324100Y470400D02*
D03*
X364300Y481200D02*
D03*
X219800Y281300D02*
D03*
X247700Y328200D02*
D03*
X337100Y336300D02*
D03*
X481400Y283300D02*
D03*
X493000Y268300D02*
D03*
X481000Y312200D02*
D03*
X425300Y432800D02*
D03*
X391800Y490300D02*
D03*
X412950Y533650D02*
D03*
X408200Y571400D02*
D03*
X304000Y434300D02*
D03*
X310600Y398700D02*
D03*
X335500Y430500D02*
D03*
X215300Y399200D02*
D03*
X243700Y412000D02*
D03*
X196500Y418000D02*
D03*
X199700Y441800D02*
D03*
X178800D02*
D03*
X219800Y552900D02*
D03*
X220600Y569200D02*
D03*
X170353Y563200D02*
D03*
X192400Y578500D02*
D03*
X185100Y569300D02*
D03*
X325300Y87600D02*
D03*
X342900Y70000D02*
D03*
X319000Y191400D02*
D03*
X350700Y165900D02*
D03*
X527300Y56700D02*
D03*
X90757Y434600D02*
D03*
X43900Y459600D02*
D03*
X374700Y403400D02*
D03*
X413600Y392500D02*
D03*
X324598Y383983D02*
D03*
X371204Y427092D02*
D03*
X375100Y417200D02*
D03*
X323400Y362900D02*
D03*
X389700Y420507D02*
D03*
X317498Y362800D02*
D03*
X377309Y423200D02*
D03*
X350200Y407158D02*
D03*
X376800Y427500D02*
D03*
X225200Y339600D02*
D03*
X358600Y446900D02*
D03*
X251700Y446300D02*
D03*
X229200Y399700D02*
D03*
X217300Y336457D02*
D03*
X394700Y369100D02*
D03*
X405200Y439100D02*
D03*
X333600Y422200D02*
D03*
X320428Y502828D02*
D03*
X383800Y513700D02*
D03*
X336500Y362500D02*
D03*
X369900Y396300D02*
D03*
X375900Y396800D02*
D03*
X336300Y358000D02*
D03*
X388200Y588300D02*
D03*
X447800Y592600D02*
D03*
X437600Y515700D02*
D03*
X430700Y436500D02*
D03*
X401900Y144600D02*
D03*
X467900Y133200D02*
D03*
X67600Y445700D02*
D03*
Y458357D02*
D03*
X95400Y251100D02*
D03*
X222700Y391400D02*
D03*
X211800Y247700D02*
D03*
X43400Y473100D02*
D03*
X155800Y267600D02*
D03*
X239500Y275433D02*
D03*
X159100Y499800D02*
D03*
X178000D02*
D03*
X218000Y371000D02*
D03*
X185200Y377100D02*
D03*
X155800Y496800D02*
D03*
X221800D02*
D03*
X224900Y501700D02*
D03*
X163400Y508500D02*
D03*
X187900Y427800D02*
D03*
X201700Y384500D02*
D03*
X85639Y460600D02*
D03*
X104400Y436300D02*
D03*
X52000Y473100D02*
D03*
X59400Y450300D02*
D03*
X95600Y569058D02*
D03*
X99300Y561900D02*
D03*
X119500Y479200D02*
D03*
X115100Y474400D02*
D03*
X279323Y260000D02*
D03*
X189200Y244200D02*
D03*
X180000Y476800D02*
D03*
X221500Y492400D02*
D03*
X333900Y170600D02*
D03*
X276100Y167200D02*
D03*
X288653Y173447D02*
D03*
X245000Y240500D02*
D03*
X256555Y240000D02*
D03*
X353700Y200600D02*
D03*
X308500Y197600D02*
D03*
Y170000D02*
D03*
X357100Y179700D02*
D03*
X245600Y147800D02*
D03*
X266950Y149450D02*
D03*
X329400Y178200D02*
D03*
X208230Y170430D02*
D03*
X203600Y165800D02*
D03*
X198800Y178000D02*
D03*
X318000Y256900D02*
D03*
X324000Y177200D02*
D03*
X248400Y137100D02*
D03*
X195400Y155200D02*
D03*
X251500D02*
D03*
X257100Y158700D02*
D03*
X200900D02*
D03*
X278456Y129200D02*
D03*
X271200Y124300D02*
D03*
X286500Y150900D02*
D03*
X290500Y123200D02*
D03*
X269900Y114100D02*
D03*
X236000Y126100D02*
D03*
X286800Y117200D02*
D03*
X315100Y92200D02*
D03*
X297100Y123200D02*
D03*
X234400Y130200D02*
D03*
X273000Y128000D02*
D03*
X222600Y174847D02*
D03*
X244100Y437000D02*
D03*
X207400Y550300D02*
D03*
X238200Y454600D02*
D03*
Y449200D02*
D03*
X233600Y381700D02*
D03*
X281300Y324336D02*
D03*
X232200Y468100D02*
D03*
X205100Y466600D02*
D03*
X183600Y421400D02*
D03*
X283900Y293000D02*
D03*
X296700Y243300D02*
D03*
X214800Y550600D02*
D03*
X225200Y315800D02*
D03*
X127300Y464200D02*
D03*
X305200Y354100D02*
D03*
X481400Y266000D02*
D03*
X496300Y197900D02*
D03*
X492400Y255600D02*
D03*
X493400Y195200D02*
D03*
X111400Y535900D02*
D03*
X141000Y459200D02*
D03*
X268326Y132700D02*
D03*
X245700Y73700D02*
D03*
X164300Y307200D02*
D03*
X203000Y345900D02*
D03*
X250800Y257700D02*
D03*
X277354Y235000D02*
D03*
X100000Y315000D02*
D03*
X239200Y264700D02*
D03*
X225403Y277402D02*
D03*
X150200Y278600D02*
D03*
X223400Y360500D02*
D03*
X186100D02*
D03*
X159100Y512800D02*
D03*
X187200Y500700D02*
D03*
X81900Y478300D02*
D03*
X90200Y297300D02*
D03*
X336000Y85200D02*
D03*
X413300Y508100D02*
D03*
X519400Y505500D02*
D03*
X342900Y102600D02*
D03*
Y149056D02*
D03*
X351700Y185600D02*
D03*
X142200Y444200D02*
D03*
X284000Y257228D02*
D03*
X287000Y260397D02*
D03*
X322630Y270500D02*
D03*
X267100Y271256D02*
D03*
X425900Y293600D02*
D03*
X551300Y343200D02*
D03*
X535400Y587500D02*
D03*
X373369Y586603D02*
D03*
X496500Y281100D02*
D03*
X426400Y281500D02*
D03*
X571600Y279700D02*
D03*
X394100Y400100D02*
D03*
X459600Y351300D02*
D03*
X463500Y351900D02*
D03*
X421400Y513200D02*
D03*
X424400Y518467D02*
D03*
X429700Y510500D02*
D03*
X136100Y405400D02*
D03*
X497400Y214300D02*
D03*
X494600Y134600D02*
D03*
X499600Y274300D02*
D03*
X469200Y210400D02*
D03*
X415400Y135600D02*
D03*
X425900Y140100D02*
D03*
X445200Y137153D02*
D03*
X534000Y182900D02*
D03*
X411200Y411900D02*
D03*
X267300Y550000D02*
D03*
X422900Y570100D02*
D03*
X207516Y303944D02*
D03*
X254800Y287200D02*
D03*
X234300Y435400D02*
D03*
X208300Y461400D02*
D03*
X279691Y379300D02*
D03*
X349600Y384200D02*
D03*
X239700Y296700D02*
D03*
X392800Y434600D02*
D03*
X222100Y330488D02*
D03*
X389300Y429800D02*
D03*
X235700Y407900D02*
D03*
Y362900D02*
D03*
X239700Y352100D02*
D03*
X244200Y445900D02*
D03*
X243400Y462000D02*
D03*
X316000Y581100D02*
D03*
X398500Y600500D02*
D03*
X362000Y456400D02*
D03*
X323100Y435800D02*
D03*
X261100Y396200D02*
D03*
X413400Y405500D02*
D03*
X426400Y378000D02*
D03*
X513900Y593900D02*
D03*
X413900Y602600D02*
D03*
X492100Y574800D02*
D03*
X416100Y567300D02*
D03*
X416099Y551600D02*
D03*
X294500Y513100D02*
D03*
X197000Y557200D02*
D03*
X296400Y271700D02*
D03*
X327000Y340000D02*
D03*
X359100Y271500D02*
D03*
X404600Y424400D02*
D03*
X509400Y392900D02*
D03*
X518400Y173200D02*
D03*
X364400D02*
D03*
Y232200D02*
D03*
X349600Y256300D02*
D03*
X339000Y312500D02*
D03*
X373800Y330600D02*
D03*
X442500Y280100D02*
D03*
X417100Y271900D02*
D03*
X372300Y321300D02*
D03*
X424700Y243000D02*
D03*
X364500Y298900D02*
D03*
X407421Y231100D02*
D03*
X367200Y274048D02*
D03*
X363700Y294300D02*
D03*
Y288000D02*
D03*
X458500Y213500D02*
D03*
X399500Y308900D02*
D03*
X340700Y320500D02*
D03*
X404600Y372600D02*
D03*
X502700Y288600D02*
D03*
X194200Y303756D02*
D03*
X185600Y290300D02*
D03*
X212800Y292400D02*
D03*
X213000Y486000D02*
D03*
X203100Y476100D02*
D03*
X303500Y428700D02*
D03*
X254000Y427100D02*
D03*
X276500Y434300D02*
D03*
X281500Y385200D02*
D03*
X330900Y404552D02*
D03*
Y463300D02*
D03*
X363900Y485500D02*
D03*
X414400Y482100D02*
D03*
X300647Y517400D02*
D03*
X403501Y557600D02*
D03*
X407000Y587700D02*
D03*
X394500Y499800D02*
D03*
X411500Y527800D02*
D03*
X362700Y475500D02*
D03*
X323800Y466400D02*
D03*
X311000Y383500D02*
D03*
X287800D02*
D03*
X284100Y104000D02*
D03*
X326700Y174000D02*
D03*
X208350Y294750D02*
D03*
X198500Y293900D02*
D03*
X202400Y287200D02*
D03*
X210000Y285600D02*
D03*
X104700Y267500D02*
D03*
X199400Y314400D02*
D03*
X216500Y292400D02*
D03*
X272550Y386750D02*
D03*
X252800Y391600D02*
D03*
X371400Y317000D02*
D03*
X359630Y333100D02*
D03*
X376300Y309500D02*
D03*
X364100Y327200D02*
D03*
X390600Y327900D02*
D03*
X345100Y345500D02*
D03*
X392600Y318800D02*
D03*
X267500Y164200D02*
D03*
X250800D02*
D03*
X319978Y171278D02*
D03*
X256800Y167300D02*
D03*
X260200Y170400D02*
D03*
X264200Y179553D02*
D03*
X439800Y287400D02*
D03*
X392900Y332000D02*
D03*
X239200Y148500D02*
D03*
X273731Y107200D02*
D03*
X458400Y195900D02*
D03*
X411800Y284500D02*
D03*
Y294500D02*
D03*
X412800Y339200D02*
D03*
X408800Y287000D02*
D03*
X418400Y235400D02*
D03*
X445000Y265600D02*
D03*
X376670Y320000D02*
D03*
X301600Y392300D02*
D03*
X343800Y307500D02*
D03*
X238800Y289213D02*
D03*
X269500Y109800D02*
D03*
X300200Y147342D02*
D03*
X326200Y160000D02*
D03*
X267500D02*
D03*
X389800Y390300D02*
D03*
X330700Y362600D02*
D03*
X414300Y441830D02*
D03*
X398400D02*
D03*
X457100Y310800D02*
D03*
X434000Y309100D02*
D03*
X375000Y299300D02*
D03*
X345000Y324500D02*
D03*
X187900Y436600D02*
D03*
X178000Y461800D02*
D03*
X173300Y492500D02*
D03*
X221600Y503800D02*
D03*
X183900Y489700D02*
D03*
X222582Y295800D02*
D03*
X258500Y324000D02*
D03*
X288750Y390800D02*
D03*
X275200D02*
D03*
X289000Y434300D02*
D03*
X411100Y322000D02*
D03*
X225100Y307500D02*
D03*
X469700Y409153D02*
D03*
X457800Y416400D02*
D03*
X487000Y255300D02*
D03*
X207356Y577000D02*
D03*
X285400Y360035D02*
D03*
X295434Y355400D02*
D03*
X264400Y267338D02*
D03*
X90757Y567147D02*
D03*
M02*
