G04 Layer_Color=16711935*
%FSLAX25Y25*%
%MOIN*%
G70*
G01*
G75*
%ADD37C,0.05000*%
%ADD119C,0.00394*%
D37*
X-3000Y-3000D02*
Y15000D01*
Y-3000D02*
X14000D01*
X-3000Y636000D02*
Y653000D01*
X15000D01*
X753000Y-3000D02*
Y14000D01*
X735000Y-3000D02*
X753000D01*
D119*
X61865Y460915D02*
G03*
X61865Y460915I-1969J0D01*
G01*
X77272Y450085D02*
G03*
X77272Y450085I-1969J0D01*
G01*
X281130Y264555D02*
X284870D01*
X281130Y271445D02*
X284870D01*
Y264555D02*
Y271445D01*
X281130Y264555D02*
Y271445D01*
X458730Y355099D02*
X462470D01*
X458730Y361989D02*
X462470D01*
Y355099D02*
Y361989D01*
X458730Y355099D02*
Y361989D01*
X456630Y374155D02*
X460370D01*
X456630Y381045D02*
X460370D01*
Y374155D02*
Y381045D01*
X456630Y374155D02*
Y381045D01*
X488355Y375430D02*
Y379170D01*
X495245Y375430D02*
Y379170D01*
X488355D02*
X495245D01*
X488355Y375430D02*
X495245D01*
X530955Y499330D02*
Y503070D01*
X537845Y499330D02*
Y503070D01*
X530955D02*
X537845D01*
X530955Y499330D02*
X537845D01*
X552855Y499030D02*
Y502770D01*
X559745Y499030D02*
Y502770D01*
X552855D02*
X559745D01*
X552855Y499030D02*
X559745D01*
X547555Y455870D02*
X554445D01*
X547555Y452130D02*
X554445D01*
X547555D02*
Y455870D01*
X554445Y452130D02*
Y455870D01*
X532545Y451330D02*
Y455070D01*
X525655Y451330D02*
Y455070D01*
Y451330D02*
X532545D01*
X525655Y455070D02*
X532545D01*
X413555Y439630D02*
Y443370D01*
X420445Y439630D02*
Y443370D01*
X413555Y439630D02*
X420445D01*
X413555Y443370D02*
X420445D01*
X392545Y440030D02*
Y443770D01*
X385655Y440030D02*
Y443770D01*
X392545D01*
X385655Y440030D02*
X392545D01*
X355201Y440430D02*
Y444170D01*
X348311Y440430D02*
Y444170D01*
X355201D01*
X348311Y440430D02*
X355201D01*
X332945Y445030D02*
Y448770D01*
X326055Y445030D02*
Y448770D01*
X332945D01*
X326055Y445030D02*
X332945D01*
X355645Y388730D02*
Y392470D01*
X348755Y388730D02*
Y392470D01*
X355645D01*
X348755Y388730D02*
X355645D01*
X270555Y389730D02*
Y393470D01*
X277445Y389730D02*
Y393470D01*
X270555Y389730D02*
X277445D01*
X270555Y393470D02*
X277445D01*
X293645Y390030D02*
Y393770D01*
X286755Y390030D02*
Y393770D01*
X293645D01*
X286755Y390030D02*
X293645D01*
X293245Y444430D02*
Y448170D01*
X286355Y444430D02*
Y448170D01*
X293245D01*
X286355Y444430D02*
X293245D01*
X530830Y52555D02*
X534570D01*
X530830Y59445D02*
X534570D01*
Y52555D02*
Y59445D01*
X530830Y52555D02*
Y59445D01*
X177357Y339307D02*
X184443D01*
X177357Y352693D02*
X184443D01*
X177357Y339307D02*
Y352693D01*
X184443Y339307D02*
Y352693D01*
X197012Y327830D02*
Y331570D01*
X190123Y327830D02*
Y331570D01*
X197012D01*
X190123Y327830D02*
X197012D01*
X183030Y323255D02*
X186770D01*
X183030Y330145D02*
X186770D01*
Y323255D02*
Y330145D01*
X183030Y323255D02*
Y330145D01*
X199830Y323611D02*
X203570D01*
X199830Y330501D02*
X203570D01*
Y323611D02*
Y330501D01*
X199830Y323611D02*
Y330501D01*
X270030Y284555D02*
X273770D01*
X270030Y291445D02*
X273770D01*
Y284555D02*
Y291445D01*
X270030Y284555D02*
Y291445D01*
X213630Y292555D02*
X217370D01*
X213630Y299445D02*
X217370D01*
X213630Y292555D02*
Y299445D01*
X217370Y292555D02*
Y299445D01*
X431030Y226245D02*
X434770D01*
X431030Y219355D02*
X434770D01*
X431030D02*
Y226245D01*
X434770Y219355D02*
Y226245D01*
X390330Y391389D02*
X394070D01*
X390330Y384499D02*
X394070D01*
X390330D02*
Y391389D01*
X394070Y384499D02*
Y391389D01*
X247130Y265055D02*
X250870D01*
X247130Y271945D02*
X250870D01*
Y265055D02*
Y271945D01*
X247130Y265055D02*
Y271945D01*
X338945Y269630D02*
Y273370D01*
X332055Y269630D02*
Y273370D01*
X338945D01*
X332055Y269630D02*
X338945D01*
X288130Y355945D02*
X291870D01*
X288130Y349055D02*
X291870D01*
X288130D02*
Y355945D01*
X291870Y349055D02*
Y355945D01*
X245555Y345630D02*
Y349370D01*
X252445Y345630D02*
Y349370D01*
X245555Y345630D02*
X252445D01*
X245555Y349370D02*
X252445D01*
X256630Y354945D02*
X260370D01*
X256630Y348055D02*
X260370D01*
X256630D02*
Y354945D01*
X260370Y348055D02*
Y354945D01*
X369530Y78901D02*
X373270D01*
X369530Y85594D02*
X373270D01*
X369530Y78901D02*
Y85594D01*
X373270Y78901D02*
Y85594D01*
X390730Y77701D02*
X394470D01*
X390730Y84394D02*
X394470D01*
X390730Y77701D02*
Y84394D01*
X394470Y77701D02*
Y84394D01*
X311730Y179854D02*
X315470D01*
X311730Y186547D02*
X315470D01*
X311730Y179854D02*
Y186547D01*
X315470Y179854D02*
Y186547D01*
X286830Y180054D02*
X290570D01*
X286830Y186747D02*
X290570D01*
X286830Y180054D02*
Y186747D01*
X290570Y180054D02*
Y186747D01*
X301111Y120730D02*
Y124470D01*
X308001Y120730D02*
Y124470D01*
X301111D02*
X308001D01*
X301111Y120730D02*
X308001D01*
X299707Y111257D02*
Y118343D01*
X313093Y111257D02*
Y118343D01*
X299707D02*
X313093D01*
X299707Y111257D02*
X313093D01*
X594446Y435430D02*
Y439170D01*
X587753Y435430D02*
Y439170D01*
X594446D01*
X587753Y435430D02*
X594446D01*
X228394Y143130D02*
Y146870D01*
X221701Y143130D02*
Y146870D01*
Y143130D02*
X228394D01*
X221701Y146870D02*
X228394D01*
X271645Y445730D02*
Y449470D01*
X264755Y445730D02*
Y449470D01*
X271645D01*
X264755Y445730D02*
X271645D01*
X339045Y289830D02*
Y293570D01*
X332155Y289830D02*
Y293570D01*
X339045D01*
X332155Y289830D02*
X339045D01*
X46670Y223454D02*
Y230146D01*
X42930Y223454D02*
Y230146D01*
X46670D01*
X42930Y223454D02*
X46670D01*
X47230Y290054D02*
Y296746D01*
X50970Y290054D02*
Y296746D01*
X47230Y290054D02*
X50970D01*
X47230Y296746D02*
X50970D01*
X120230Y24754D02*
Y31446D01*
X123970Y24754D02*
Y31446D01*
X120230Y24754D02*
X123970D01*
X120230Y31446D02*
X123970D01*
X201155Y559070D02*
X208045D01*
X201155Y555330D02*
X208045D01*
Y559070D01*
X201155Y555330D02*
Y559070D01*
X192955Y183870D02*
X199845D01*
X192955Y180130D02*
X199845D01*
Y183870D01*
X192955Y180130D02*
Y183870D01*
X321255Y388030D02*
X328145D01*
X321255Y391770D02*
X328145D01*
X321255Y388030D02*
Y391770D01*
X328145Y388030D02*
Y391770D01*
X279130Y349055D02*
Y355945D01*
X282870Y349055D02*
Y355945D01*
X279130D02*
X282870D01*
X279130Y349055D02*
X282870D01*
X38070Y452855D02*
Y459745D01*
X34330Y452855D02*
Y459745D01*
X38070D01*
X34330Y452855D02*
X38070D01*
X332155Y287970D02*
X339045D01*
X332155Y284230D02*
X339045D01*
Y287970D01*
X332155Y284230D02*
Y287970D01*
X488830Y566399D02*
Y573289D01*
X492570Y566399D02*
Y573289D01*
X488830D02*
X492570D01*
X488830Y566399D02*
X492570D01*
X261370Y265055D02*
Y271945D01*
X257630Y265055D02*
Y271945D01*
Y265055D02*
X261370D01*
X257630Y271945D02*
X261370D01*
X97130Y454955D02*
Y461845D01*
X100870Y454955D02*
Y461845D01*
X97130Y454955D02*
X100870D01*
X97130Y461845D02*
X100870D01*
X463930Y355155D02*
Y362045D01*
X467670Y355155D02*
Y362045D01*
X463930D02*
X467670D01*
X463930Y355155D02*
X467670D01*
X158470Y514655D02*
Y521545D01*
X154730Y514655D02*
Y521545D01*
Y514655D02*
X158470D01*
X154730Y521545D02*
X158470D01*
X193155Y282970D02*
X200045D01*
X193155Y279230D02*
X200045D01*
X193155D02*
Y282970D01*
X200045Y279230D02*
Y282970D01*
X398555Y531630D02*
X405445D01*
X398555Y535370D02*
X405445D01*
Y531630D02*
Y535370D01*
X398555Y531630D02*
Y535370D01*
X183230Y292555D02*
Y299445D01*
X186970Y292555D02*
Y299445D01*
X183230Y292555D02*
X186970D01*
X183230Y299445D02*
X186970D01*
X210470Y286955D02*
Y293845D01*
X206730Y286955D02*
Y293845D01*
X210470D01*
X206730Y286955D02*
X210470D01*
X276755Y286670D02*
X283645D01*
X276755Y282930D02*
X283645D01*
Y286670D01*
X276755Y282930D02*
Y286670D01*
X206730Y297255D02*
Y304145D01*
X210470Y297255D02*
Y304145D01*
X206730Y297255D02*
X210470D01*
X206730Y304145D02*
X210470D01*
X290070Y284755D02*
Y291645D01*
X286330Y284755D02*
Y291645D01*
Y284755D02*
X290070D01*
X286330Y291645D02*
X290070D01*
X79055Y408130D02*
X85945D01*
X79055Y411870D02*
X85945D01*
X79055Y408130D02*
Y411870D01*
X85945Y408130D02*
Y411870D01*
X90555Y407630D02*
X97445D01*
X90555Y411370D02*
X97445D01*
X90555Y407630D02*
Y411370D01*
X97445Y407630D02*
Y411370D01*
X152670Y454455D02*
Y461345D01*
X148930Y454455D02*
Y461345D01*
Y454455D02*
X152670D01*
X148930Y461345D02*
X152670D01*
X101055Y405630D02*
X107945D01*
X101055Y409370D02*
X107945D01*
X101055Y405630D02*
Y409370D01*
X107945Y405630D02*
Y409370D01*
X158970Y454455D02*
Y461345D01*
X155230Y454455D02*
Y461345D01*
Y454455D02*
X158970D01*
X155230Y461345D02*
X158970D01*
X139630Y402555D02*
Y409445D01*
X143370Y402555D02*
Y409445D01*
X139630D02*
X143370D01*
X139630Y402555D02*
X143370D01*
X131130D02*
Y409445D01*
X134870Y402555D02*
Y409445D01*
X131130D02*
X134870D01*
X131130Y402555D02*
X134870D01*
X124130D02*
Y409445D01*
X127870Y402555D02*
Y409445D01*
X124130D02*
X127870D01*
X124130Y402555D02*
X127870D01*
X118130Y403055D02*
Y409945D01*
X121870Y403055D02*
Y409945D01*
X118130D02*
X121870D01*
X118130Y403055D02*
X121870D01*
X111630D02*
Y409945D01*
X115370Y403055D02*
Y409945D01*
X111630D02*
X115370D01*
X111630Y403055D02*
X115370D01*
X66055Y409370D02*
X72945D01*
X66055Y405630D02*
X72945D01*
Y409370D01*
X66055Y405630D02*
Y409370D01*
X65630Y468455D02*
Y475345D01*
X69370Y468455D02*
Y475345D01*
X65630D02*
X69370D01*
X65630Y468455D02*
X69370D01*
X438230Y219355D02*
Y226245D01*
X441970Y219355D02*
Y226245D01*
X438230D02*
X441970D01*
X438230Y219355D02*
X441970D01*
X348070Y154955D02*
Y161845D01*
X344330Y154955D02*
Y161845D01*
Y154955D02*
X348070D01*
X344330Y161845D02*
X348070D01*
X344030Y143155D02*
Y150045D01*
X347770Y143155D02*
Y150045D01*
X344030D02*
X347770D01*
X344030Y143155D02*
X347770D01*
X137555Y564870D02*
X144445D01*
X137555Y561130D02*
X144445D01*
X137555D02*
Y564870D01*
X144445Y561130D02*
Y564870D01*
X155955Y561130D02*
X162845D01*
X155955Y564870D02*
X162845D01*
Y561130D02*
Y564870D01*
X155955Y561130D02*
Y564870D01*
X284270Y137155D02*
Y144045D01*
X280530Y137155D02*
Y144045D01*
Y137155D02*
X284270D01*
X280530Y144045D02*
X284270D01*
X280530Y125755D02*
Y132645D01*
X284270Y125755D02*
Y132645D01*
X280530D02*
X284270D01*
X280530Y125755D02*
X284270D01*
X105793Y104357D02*
Y111443D01*
X92407Y104357D02*
Y111443D01*
Y104357D02*
X105793D01*
X92407Y111443D02*
X105793D01*
X105193Y289957D02*
Y297043D01*
X91807Y289957D02*
Y297043D01*
Y289957D02*
X105193D01*
X91807Y297043D02*
X105193D01*
X642370Y459555D02*
Y466445D01*
X638630Y459555D02*
Y466445D01*
Y459555D02*
X642370D01*
X638630Y466445D02*
X642370D01*
X106593Y231857D02*
Y238943D01*
X93207Y231857D02*
Y238943D01*
Y231857D02*
X106593D01*
X93207Y238943D02*
X106593D01*
X640630Y182055D02*
Y188945D01*
X644370Y182055D02*
Y188945D01*
X640630D02*
X644370D01*
X640630Y182055D02*
X644370D01*
X106793Y170757D02*
Y177843D01*
X93407Y170757D02*
Y177843D01*
Y170757D02*
X106793D01*
X93407Y177843D02*
X106793D01*
X80855Y427470D02*
X87745D01*
X80855Y423730D02*
X87745D01*
X80855D02*
Y427470D01*
X87745Y423730D02*
Y427470D01*
X318608Y76870D02*
X325498D01*
X318608Y73130D02*
X325498D01*
X318608D02*
Y76870D01*
X325498Y73130D02*
Y76870D01*
X270130Y47055D02*
Y53945D01*
X273870Y47055D02*
Y53945D01*
X270130D02*
X273870D01*
X270130Y47055D02*
X273870D01*
X632370Y459555D02*
Y466445D01*
X628630Y459555D02*
Y466445D01*
Y459555D02*
X632370D01*
X628630Y466445D02*
X632370D01*
X629630Y182055D02*
Y188945D01*
X633370Y182055D02*
Y188945D01*
X629630D02*
X633370D01*
X629630Y182055D02*
X633370D01*
X257055Y86130D02*
X263945D01*
X257055Y89870D02*
X263945D01*
X257055Y86130D02*
Y89870D01*
X263945Y86130D02*
Y89870D01*
X318608Y69870D02*
X325498D01*
X318608Y66130D02*
X325498D01*
X318608D02*
Y69870D01*
X325498Y66130D02*
Y69870D01*
X257055Y165370D02*
X263945D01*
X257055Y161630D02*
X263945D01*
Y165370D01*
X257055Y161630D02*
Y165370D01*
Y171870D02*
X263945D01*
X257055Y168130D02*
X263945D01*
Y171870D01*
X257055Y168130D02*
Y171870D01*
X270555Y134630D02*
X277445D01*
X270555Y138370D02*
X277445D01*
X270555Y134630D02*
Y138370D01*
X277445Y134630D02*
Y138370D01*
X270555Y129130D02*
X277445D01*
X270555Y132870D02*
X277445D01*
X270555Y129130D02*
Y132870D01*
X277445Y129130D02*
Y132870D01*
X257055Y178070D02*
X263945D01*
X257055Y174330D02*
X263945D01*
Y178070D01*
X257055Y174330D02*
Y178070D01*
X305630Y140799D02*
Y147689D01*
X309370Y140799D02*
Y147689D01*
X305630D02*
X309370D01*
X305630Y140799D02*
X309370D01*
X299630D02*
Y147689D01*
X303370Y140799D02*
Y147689D01*
X299630D02*
X303370D01*
X299630Y140799D02*
X303370D01*
X127807Y285043D02*
X141193D01*
X127807Y277957D02*
X141193D01*
X127807D02*
Y285043D01*
X141193Y277957D02*
Y285043D01*
X447752Y53941D02*
Y59059D01*
X459248Y53941D02*
Y59059D01*
X447752D02*
X459248D01*
X447752Y53941D02*
X459248D01*
X189654Y324770D02*
X196346D01*
X189654Y321030D02*
X196346D01*
Y324770D01*
X189654Y321030D02*
Y324770D01*
X276754Y289630D02*
X283446D01*
X276754Y293370D02*
X283446D01*
X276754Y289630D02*
Y293370D01*
X283446Y289630D02*
Y293370D01*
X510930Y66654D02*
Y73346D01*
X514670Y66654D02*
Y73346D01*
X510930D02*
X514670D01*
X510930Y66654D02*
X514670D01*
X510730Y55054D02*
Y61746D01*
X514470Y55054D02*
Y61746D01*
X510730D02*
X514470D01*
X510730Y55054D02*
X514470D01*
X439130Y130854D02*
Y137546D01*
X442870Y130854D02*
Y137546D01*
X439130D02*
X442870D01*
X439130Y130854D02*
X442870D01*
X449330Y130654D02*
Y137346D01*
X453070Y130654D02*
Y137346D01*
X449330D02*
X453070D01*
X449330Y130654D02*
X453070D01*
X459530Y130854D02*
Y137546D01*
X463270Y130854D02*
Y137546D01*
X459530D02*
X463270D01*
X459530Y130854D02*
X463270D01*
X469530Y130454D02*
Y137146D01*
X473270Y130454D02*
Y137146D01*
X469530D02*
X473270D01*
X469530Y130454D02*
X473270D01*
X478930Y130854D02*
Y137546D01*
X482670Y130854D02*
Y137546D01*
X478930D02*
X482670D01*
X478930Y130854D02*
X482670D01*
X489130Y131054D02*
Y137746D01*
X492870Y131054D02*
Y137746D01*
X489130D02*
X492870D01*
X489130Y131054D02*
X492870D01*
X419330Y132254D02*
Y138946D01*
X423070Y132254D02*
Y138946D01*
X419330D02*
X423070D01*
X419330Y132254D02*
X423070D01*
X409130D02*
Y138946D01*
X412870Y132254D02*
Y138946D01*
X409130D02*
X412870D01*
X409130Y132254D02*
X412870D01*
X88570Y566754D02*
Y573446D01*
X84830Y566754D02*
Y573446D01*
Y566754D02*
X88570D01*
X84830Y573446D02*
X88570D01*
X164654Y214470D02*
X171346D01*
X164654Y210730D02*
X171346D01*
X164654D02*
Y214470D01*
X171346Y210730D02*
Y214470D01*
X164454Y204470D02*
X171146D01*
X164454Y200730D02*
X171146D01*
X164454D02*
Y204470D01*
X171146Y200730D02*
Y204470D01*
X222254Y108030D02*
X228946D01*
X222254Y111770D02*
X228946D01*
Y108030D02*
Y111770D01*
X222254Y108030D02*
Y111770D01*
X222654Y125930D02*
X229346D01*
X222654Y129670D02*
X229346D01*
Y125930D02*
Y129670D01*
X222654Y125930D02*
Y129670D01*
X222254Y135730D02*
X228946D01*
X222254Y139470D02*
X228946D01*
Y135730D02*
Y139470D01*
X222254Y135730D02*
Y139470D01*
X222754Y117430D02*
X229446D01*
X222754Y121170D02*
X229446D01*
Y117430D02*
Y121170D01*
X222754Y117430D02*
Y121170D01*
X222454Y99530D02*
X229146D01*
X222454Y103270D02*
X229146D01*
Y99530D02*
Y103270D01*
X222454Y99530D02*
Y103270D01*
X302530Y179654D02*
Y186346D01*
X306270Y179654D02*
Y186346D01*
X302530Y179654D02*
X306270D01*
X302530Y186346D02*
X306270D01*
X137654Y572870D02*
X144346D01*
X137654Y569130D02*
X144346D01*
X137654D02*
Y572870D01*
X144346Y569130D02*
Y572870D01*
X155854Y543330D02*
X162546D01*
X155854Y547070D02*
X162546D01*
Y543330D02*
Y547070D01*
X155854Y543330D02*
Y547070D01*
X137654Y554730D02*
X144346D01*
X137654Y558470D02*
X144346D01*
Y554730D02*
Y558470D01*
X137654Y554730D02*
Y558470D01*
X282370Y180254D02*
Y186946D01*
X278630Y180254D02*
Y186946D01*
X282370D01*
X278630Y180254D02*
X282370D01*
X336154Y116070D02*
X342846D01*
X336154Y112330D02*
X342846D01*
X336154D02*
Y116070D01*
X342846Y112330D02*
Y116070D01*
X336054Y109570D02*
X342746D01*
X336054Y105830D02*
X342746D01*
X336054D02*
Y109570D01*
X342746Y105830D02*
Y109570D01*
X299570Y180054D02*
Y186746D01*
X295830Y180054D02*
Y186746D01*
X299570D01*
X295830Y180054D02*
X299570D01*
X137254Y546930D02*
X143946D01*
X137254Y550670D02*
X143946D01*
Y546930D02*
Y550670D01*
X137254Y546930D02*
Y550670D01*
X156006Y555670D02*
X162699D01*
X156006Y551930D02*
X162699D01*
X156006D02*
Y555670D01*
X162699Y551930D02*
Y555670D01*
X156254Y573270D02*
X162946D01*
X156254Y569530D02*
X162946D01*
X156254D02*
Y573270D01*
X162946Y569530D02*
Y573270D01*
X270430Y180254D02*
Y186946D01*
X274170Y180254D02*
Y186946D01*
X270430Y180254D02*
X274170D01*
X270430Y186946D02*
X274170D01*
X262830Y180654D02*
Y187346D01*
X266570Y180654D02*
Y187346D01*
X262830Y180654D02*
X266570D01*
X262830Y187346D02*
X266570D01*
X255430Y180654D02*
Y187346D01*
X259170Y180654D02*
Y187346D01*
X255430Y180654D02*
X259170D01*
X255430Y187346D02*
X259170D01*
X251970Y180854D02*
Y187546D01*
X248230Y180854D02*
Y187546D01*
X251970D01*
X248230Y180854D02*
X251970D01*
X288954Y121970D02*
X295646D01*
X288954Y118230D02*
X295646D01*
Y121970D01*
X288954Y118230D02*
Y121970D01*
X318706Y78630D02*
X325399D01*
X318706Y82370D02*
X325399D01*
Y78630D02*
Y82370D01*
X318706Y78630D02*
Y82370D01*
Y84130D02*
X325399D01*
X318706Y87870D02*
X325399D01*
Y84130D02*
Y87870D01*
X318706Y84130D02*
Y87870D01*
X280370Y47154D02*
Y53846D01*
X276630Y47154D02*
Y53846D01*
Y47154D02*
X280370D01*
X276630Y53846D02*
X280370D01*
X267370Y47154D02*
Y53846D01*
X263630Y47154D02*
Y53846D01*
Y47154D02*
X267370D01*
X263630Y53846D02*
X267370D01*
X465670Y222554D02*
Y229246D01*
X461930Y222554D02*
Y229246D01*
Y222554D02*
X465670D01*
X461930Y229246D02*
X465670D01*
X452770Y221554D02*
Y228246D01*
X449030Y221554D02*
Y228246D01*
Y221554D02*
X452770D01*
X449030Y228246D02*
X452770D01*
X94206Y97530D02*
X100899D01*
X94206Y101270D02*
X100899D01*
Y97530D02*
Y101270D01*
X94206Y97530D02*
Y101270D01*
X94254Y93770D02*
X100946D01*
X94254Y90030D02*
X100946D01*
X94254D02*
Y93770D01*
X100946Y90030D02*
Y93770D01*
X94254Y281530D02*
X100946D01*
X94254Y285270D02*
X100946D01*
Y281530D02*
Y285270D01*
X94254Y281530D02*
Y285270D01*
Y278670D02*
X100946D01*
X94254Y274930D02*
X100946D01*
X94254D02*
Y278670D01*
X100946Y274930D02*
Y278670D01*
X95554Y223530D02*
X102246D01*
X95554Y227270D02*
X102246D01*
Y223530D02*
Y227270D01*
X95554Y223530D02*
Y227270D01*
X95454Y220070D02*
X102146D01*
X95454Y216330D02*
X102146D01*
X95454D02*
Y220070D01*
X102146Y216330D02*
Y220070D01*
X95054Y162130D02*
X101746D01*
X95054Y165870D02*
X101746D01*
Y162130D02*
Y165870D01*
X95054Y162130D02*
Y165870D01*
Y159070D02*
X101746D01*
X95054Y155330D02*
X101746D01*
X95054D02*
Y159070D01*
X101746Y155330D02*
Y159070D01*
X587106Y192630D02*
X593799D01*
X587106Y196370D02*
X593799D01*
X587106Y192630D02*
Y196370D01*
X593799Y192630D02*
Y196370D01*
X455870Y68654D02*
Y75346D01*
X452130Y68654D02*
Y75346D01*
Y68654D02*
X455870D01*
X452130Y75346D02*
X455870D01*
X296630Y565654D02*
Y572346D01*
X300370Y565654D02*
Y572346D01*
X296630Y565654D02*
X300370D01*
X296630Y572346D02*
X300370D01*
X297130Y579154D02*
Y585846D01*
X300870Y579154D02*
Y585846D01*
X297130Y579154D02*
X300870D01*
X297130Y585846D02*
X300870D01*
X541654Y57430D02*
X548346D01*
X541654Y61170D02*
X548346D01*
X541654Y57430D02*
Y61170D01*
X548346Y57430D02*
Y61170D01*
X463130Y39654D02*
Y46346D01*
X466870Y39654D02*
Y46346D01*
X463130D02*
X466870D01*
X463130Y39654D02*
X466870D01*
X455130D02*
Y46346D01*
X458870Y39654D02*
Y46346D01*
X455130D02*
X458870D01*
X455130Y39654D02*
X458870D01*
X43361Y446742D02*
Y464458D01*
X63439Y446742D02*
Y464458D01*
X43361Y446742D02*
X63439D01*
X43361Y464458D02*
X63439D01*
X91839Y446542D02*
Y464258D01*
X71761Y446542D02*
Y464258D01*
X91839D01*
X71761Y446542D02*
X91839D01*
X242157Y566607D02*
X249243D01*
X242157D02*
Y579993D01*
X249243D01*
Y566607D02*
Y579993D01*
X272807Y579957D02*
X286193D01*
X272807D02*
Y587043D01*
X286193D01*
Y579957D02*
Y587043D01*
X272807Y562957D02*
X286193D01*
X272807D02*
Y570043D01*
X286193D01*
Y562957D02*
Y570043D01*
X111307Y66757D02*
Y73843D01*
Y66757D02*
X124693D01*
X111307Y73843D02*
X124693D01*
Y66757D02*
Y73843D01*
X465630Y313799D02*
X469370D01*
X465630D02*
Y320689D01*
X469370D01*
Y313799D02*
Y320689D01*
X74403Y125306D02*
Y138494D01*
Y125306D02*
X99797D01*
X74403Y138494D02*
X99797D01*
Y125306D02*
Y138494D01*
X71503Y187406D02*
X96897D01*
X71503D02*
Y200594D01*
X96897D01*
Y187406D02*
Y200594D01*
X69503Y246806D02*
X94897D01*
X69503D02*
Y259994D01*
X94897D01*
Y246806D02*
Y259994D01*
X68703Y307406D02*
X94097D01*
X68703D02*
Y320594D01*
X94097D01*
Y307406D02*
Y320594D01*
X316630Y264299D02*
X320370D01*
X316630D02*
Y271189D01*
X320370D01*
Y264299D02*
Y271189D01*
X459330Y314255D02*
X463070D01*
X459330Y321145D02*
X463070D01*
Y314255D02*
Y321145D01*
X459330Y314255D02*
Y321145D01*
X457130Y294545D02*
X460870D01*
X457130Y287655D02*
X460870D01*
X457130D02*
Y294545D01*
X460870Y287655D02*
Y294545D01*
X413130Y391445D02*
X416870D01*
X413130Y384555D02*
X416870D01*
X413130D02*
Y391445D01*
X416870Y384555D02*
Y391445D01*
X462630Y297345D02*
X466370D01*
X462630Y290455D02*
X466370D01*
X462630D02*
Y297345D01*
X466370Y290455D02*
Y297345D01*
X248555Y281130D02*
Y284870D01*
X255445Y281130D02*
Y284870D01*
X248555Y281130D02*
X255445D01*
X248555Y284870D02*
X255445D01*
X333555Y338130D02*
X340445D01*
X333555Y341870D02*
X340445D01*
X333555Y338130D02*
Y341870D01*
X340445Y338130D02*
Y341870D01*
X340945Y314630D02*
Y318370D01*
X334055Y314630D02*
Y318370D01*
X340945D01*
X334055Y314630D02*
X340945D01*
X334055Y305630D02*
X340945D01*
X334055Y309370D02*
X340945D01*
X334055Y305630D02*
Y309370D01*
X340945Y305630D02*
Y309370D01*
X247055Y309130D02*
Y312870D01*
X253945Y309130D02*
Y312870D01*
X247055Y309130D02*
X253945D01*
X247055Y312870D02*
X253945D01*
X244555Y321630D02*
X251445D01*
X244555Y325370D02*
X251445D01*
X244555Y321630D02*
Y325370D01*
X251445Y321630D02*
Y325370D01*
X325630Y355945D02*
X329370D01*
X325630Y349055D02*
X329370D01*
X325630D02*
Y355945D01*
X329370Y349055D02*
Y355945D01*
X334555Y354170D02*
X341445D01*
X334555Y350430D02*
X341445D01*
Y354170D01*
X334555Y350430D02*
Y354170D01*
X404445Y607530D02*
Y611270D01*
X397555Y607530D02*
Y611270D01*
Y607530D02*
X404445D01*
X397555Y611270D02*
X404445D01*
M02*
