G04 Layer_Color=65535*
%FSLAX25Y25*%
%MOIN*%
G70*
G01*
G75*
%ADD30C,0.01200*%
%ADD31C,0.01000*%
%ADD32C,0.00800*%
%ADD35C,0.01500*%
%ADD37C,0.05000*%
%ADD66C,0.00984*%
%ADD67C,0.02362*%
%ADD68C,0.00787*%
D30*
X626300Y132200D02*
Y512700D01*
X596300D02*
X626300D01*
X596300Y132200D02*
X626300D01*
X596300D02*
Y512700D01*
X238969Y256634D02*
X345169D01*
X243693Y363130D02*
X345169D01*
Y256634D02*
Y363130D01*
X238969Y256634D02*
Y358307D01*
X243791Y363130D01*
X186693Y636874D02*
X233937D01*
X186693Y591598D02*
X233937D01*
Y636874D01*
X186693Y591598D02*
Y636874D01*
X131378Y636716D02*
X178622D01*
X131378Y591441D02*
X178622D01*
Y636716D01*
X131378Y591441D02*
Y636716D01*
X611368Y632403D02*
X616700D01*
Y640400D01*
X611368D01*
X616700Y636401D02*
X614034D01*
X603371Y632403D02*
X608703D01*
Y640400D01*
X603371D01*
X608703Y636401D02*
X606037D01*
X587376Y632403D02*
X592708D01*
Y636401D01*
X590042Y635068D01*
X588709D01*
X587376Y636401D01*
Y639067D01*
X588709Y640400D01*
X591375D01*
X592708Y639067D01*
X579379Y640400D02*
X584710D01*
X579379Y635068D01*
Y633736D01*
X580712Y632403D01*
X583378D01*
X584710Y633736D01*
X568715Y632403D02*
Y640400D01*
X566050Y637734D01*
X563384Y640400D01*
Y632403D01*
X560718Y640400D02*
X558052D01*
X559385D01*
Y635068D01*
X560718D01*
X554054Y640400D02*
X551388D01*
X552721D01*
Y632403D01*
X554054D01*
X547389Y640400D02*
X544723D01*
X546056D01*
Y632403D01*
X547389D01*
X532727D02*
Y640400D01*
X530061Y637734D01*
X527396Y640400D01*
Y632403D01*
X520731Y640400D02*
X523397D01*
X524730Y639067D01*
Y636401D01*
X523397Y635068D01*
X520731D01*
X519398Y636401D01*
Y637734D01*
X524730D01*
X516732Y635068D02*
Y640400D01*
Y637734D01*
X515400Y636401D01*
X514067Y635068D01*
X512734D01*
X508735Y640400D02*
X504736D01*
X503403Y639067D01*
X504736Y637734D01*
X507402D01*
X508735Y636401D01*
X507402Y635068D01*
X503403D01*
X499405Y633736D02*
Y635068D01*
X500738D01*
X498072D01*
X499405D01*
Y639067D01*
X498072Y640400D01*
X486076D02*
Y632403D01*
X482077D01*
X480744Y633736D01*
Y636401D01*
X482077Y637734D01*
X486076D01*
X483410D02*
X480744Y640400D01*
X474080D02*
X476745D01*
X478078Y639067D01*
Y636401D01*
X476745Y635068D01*
X474080D01*
X472747Y636401D01*
Y637734D01*
X478078D01*
X470081Y635068D02*
X467415Y640400D01*
X464749Y635068D01*
X462083Y640400D02*
Y639067D01*
X460750D01*
Y640400D01*
X462083D01*
X447422D02*
X444756D01*
X446089D01*
Y632403D01*
X447422Y633736D01*
X440757Y640400D02*
Y639067D01*
X439424D01*
Y640400D01*
X440757D01*
X434093Y633736D02*
X432760Y632403D01*
X430094D01*
X428761Y633736D01*
Y639067D01*
X430094Y640400D01*
X432760D01*
X434093Y639067D01*
Y633736D01*
D31*
X204900Y296200D02*
G03*
X204900Y296200I-5900J0D01*
G01*
X173392Y257197D02*
G03*
X186403Y270208I6505J6505D01*
G01*
X168655Y287956D02*
G03*
X155644Y274945I-6505J-6505D01*
G01*
X266488Y145939D02*
G03*
X266488Y145939I-2296J0D01*
G01*
X510700Y35400D02*
G03*
X505700Y35400I-2500J0D01*
G01*
X552315Y53811D02*
G03*
X572000Y53811I9843J-21654D01*
G01*
X252009Y354933D02*
G03*
X252009Y354933I-4068J0D01*
G01*
X150500Y526000D02*
G03*
X155500Y526000I2500J0D01*
G01*
X304371Y421945D02*
G03*
X304371Y421945I-1623J0D01*
G01*
X469568Y283910D02*
G03*
X469568Y283910I-1623J0D01*
G01*
X341900Y164300D02*
G03*
X323500Y164300I-9200J0D01*
G01*
Y139200D02*
G03*
X341900Y139200I9200J0D01*
G01*
X214768Y558945D02*
G03*
X214768Y558945I-1623J0D01*
G01*
X565088Y482579D02*
G03*
X565088Y482579I-1623J0D01*
G01*
X366308Y422079D02*
G03*
X366308Y422079I-1623J0D01*
G01*
X425151Y421945D02*
G03*
X425151Y421945I-1623J0D01*
G01*
X470202Y345941D02*
G03*
X470202Y345941I-1623J0D01*
G01*
X75815Y592496D02*
G03*
X95500Y592496I9843J-21654D01*
G01*
X198900Y177400D02*
G03*
X193900Y177400I-2500J0D01*
G01*
X170839Y322693D02*
Y418362D01*
X12572D02*
X170839D01*
X12572Y322693D02*
X170839D01*
X12572D02*
Y418362D01*
X168655Y287956D02*
X186403Y270208D01*
X155644Y274945D02*
X173392Y257197D01*
X97835Y56000D02*
X103347D01*
X111284Y48063D01*
X79788Y63811D02*
X90024D01*
X97835Y56000D01*
X111284Y39402D02*
Y48063D01*
X102800Y30917D02*
X111284Y39402D01*
X102800Y2000D02*
Y30917D01*
X72477Y56500D02*
X79788Y63811D01*
X67800Y56500D02*
X72477D01*
X67800Y2000D02*
X102800D01*
X67800D02*
Y56500D01*
X287027Y123104D02*
Y150663D01*
X259468D02*
X287027D01*
X259468Y123104D02*
Y150663D01*
Y123104D02*
X287027D01*
X301500Y2000D02*
Y105000D01*
X239000D02*
X301500D01*
X239000Y2000D02*
X301500D01*
X239000D02*
Y105000D01*
X528200Y35400D02*
Y75400D01*
X510700Y35400D02*
X528200D01*
X488200Y75400D02*
X528200D01*
X488200Y35400D02*
X505700D01*
X488200D02*
Y75400D01*
X89100Y91400D02*
Y121400D01*
X79100Y91400D02*
X89100D01*
X79100D02*
Y121400D01*
X77100Y119400D02*
X79100Y121400D01*
X89100D01*
X77100Y93400D02*
Y119400D01*
Y93400D02*
X79100Y91400D01*
X89200Y154000D02*
Y184000D01*
X79200Y154000D02*
X89200D01*
X79200D02*
Y184000D01*
X77200Y182000D02*
X79200Y184000D01*
X89200D01*
X77200Y156000D02*
Y182000D01*
Y156000D02*
X79200Y154000D01*
X89300Y213700D02*
Y243700D01*
X79300Y213700D02*
X89300D01*
X79300D02*
Y243700D01*
X77300Y241700D02*
X79300Y243700D01*
X89300D01*
X77300Y215700D02*
Y241700D01*
Y215700D02*
X79300Y213700D01*
X88900Y273300D02*
Y303300D01*
X78900Y273300D02*
X88900D01*
X78900D02*
Y303300D01*
X76900Y301300D02*
X78900Y303300D01*
X88900D01*
X76900Y275300D02*
Y301300D01*
Y275300D02*
X78900Y273300D01*
X133000Y526000D02*
X150500D01*
X155500D02*
X173000D01*
X133000Y426000D02*
X173000D01*
Y526000D01*
X133000Y426000D02*
Y526000D01*
X257866Y406984D02*
X306291D01*
X257866Y425488D02*
X306291D01*
X257866Y406984D02*
Y425488D01*
X306291Y406984D02*
Y425488D01*
X452984Y280366D02*
Y328791D01*
X471488Y280366D02*
Y328791D01*
X452984D02*
X471488D01*
X452984Y280366D02*
X471488D01*
X41700Y581100D02*
X51700D01*
X41700Y591100D02*
X51700D01*
X41700Y511100D02*
X51700D01*
Y591100D01*
X41700Y511100D02*
Y591100D01*
X341900Y139200D02*
Y164300D01*
X323500Y139200D02*
Y164300D01*
X216688Y549890D02*
Y562488D01*
X190310Y549890D02*
Y562488D01*
Y549890D02*
X216688D01*
X190310Y562488D02*
X216688D01*
X518583Y467618D02*
X567008D01*
X518583Y486122D02*
X567008D01*
X518583Y467618D02*
Y486122D01*
X567008Y467618D02*
Y486122D01*
X319803Y407118D02*
X368228D01*
X319803Y425622D02*
X368228D01*
X319803Y407118D02*
Y425622D01*
X368228Y407118D02*
Y425622D01*
X378646Y406984D02*
X427071D01*
X378646Y425488D02*
X427071D01*
X378646Y406984D02*
Y425488D01*
X427071Y406984D02*
Y425488D01*
X453618Y342398D02*
Y390823D01*
X472122Y342398D02*
Y390823D01*
X453618D02*
X472122D01*
X453618Y342398D02*
X472122D01*
X198900Y177400D02*
X216400D01*
X176400Y217400D02*
X216400D01*
X176400Y177400D02*
X193900D01*
X216400D02*
Y217400D01*
X176400Y177400D02*
Y217400D01*
X36800Y143300D02*
Y137302D01*
X33801D01*
X32801Y138302D01*
Y140301D01*
X33801Y141301D01*
X36800D01*
X30802Y142300D02*
X29802Y143300D01*
X27803D01*
X26803Y142300D01*
Y138302D01*
X27803Y137302D01*
X29802D01*
X30802Y138302D01*
Y139301D01*
X29802Y140301D01*
X26803D01*
X39200Y230500D02*
Y224502D01*
X36201D01*
X35201Y225502D01*
Y227501D01*
X36201Y228501D01*
X39200D01*
X37201D02*
X35201Y230500D01*
X33202Y224502D02*
X29203D01*
Y225502D01*
X33202Y229500D01*
Y230500D01*
X27204Y225502D02*
X26204Y224502D01*
X24205D01*
X23205Y225502D01*
Y229500D01*
X24205Y230500D01*
X26204D01*
X27204Y229500D01*
Y225502D01*
X44700Y296900D02*
Y290902D01*
X41701D01*
X40701Y291902D01*
Y293901D01*
X41701Y294901D01*
X44700D01*
X42701D02*
X40701Y296900D01*
X34703Y290902D02*
X36703Y291902D01*
X38702Y293901D01*
Y295900D01*
X37702Y296900D01*
X35703D01*
X34703Y295900D01*
Y294901D01*
X35703Y293901D01*
X38702D01*
X32704Y295900D02*
X31704Y296900D01*
X29705D01*
X28705Y295900D01*
Y291902D01*
X29705Y290902D01*
X31704D01*
X32704Y291902D01*
Y292901D01*
X31704Y293901D01*
X28705D01*
X143500Y31100D02*
Y25102D01*
X140501D01*
X139501Y26102D01*
Y28101D01*
X140501Y29101D01*
X143500D01*
X141501D02*
X139501Y31100D01*
X133503Y25102D02*
X135503Y26102D01*
X137502Y28101D01*
Y30100D01*
X136502Y31100D01*
X134503D01*
X133503Y30100D01*
Y29101D01*
X134503Y28101D01*
X137502D01*
X131504Y26102D02*
X130504Y25102D01*
X128505D01*
X127505Y26102D01*
Y27101D01*
X128505Y28101D01*
X127505Y29101D01*
Y30100D01*
X128505Y31100D01*
X130504D01*
X131504Y30100D01*
Y29101D01*
X130504Y28101D01*
X131504Y27101D01*
Y26102D01*
X130504Y28101D02*
X128505D01*
X591000Y176000D02*
Y170002D01*
X588001D01*
X587001Y171002D01*
Y173001D01*
X588001Y174001D01*
X591000D01*
X581003Y170002D02*
X585002D01*
Y173001D01*
X583003Y172001D01*
X582003D01*
X581003Y173001D01*
Y175000D01*
X582003Y176000D01*
X584002D01*
X585002Y175000D01*
X64800Y230402D02*
Y236400D01*
X60801D01*
X58802Y230402D02*
X54803D01*
Y231402D01*
X58802Y235400D01*
Y236400D01*
X66700Y299302D02*
Y305300D01*
X62701D01*
X56703Y299302D02*
X58703Y300302D01*
X60702Y302301D01*
Y304300D01*
X59702Y305300D01*
X57703D01*
X56703Y304300D01*
Y303301D01*
X57703Y302301D01*
X60702D01*
X137100Y47702D02*
Y53700D01*
X133101D01*
X127103Y47702D02*
X131102D01*
Y50701D01*
X129103Y49701D01*
X128103D01*
X127103Y50701D01*
Y52700D01*
X128103Y53700D01*
X130102D01*
X131102Y52700D01*
X526000Y215000D02*
Y209002D01*
X523001D01*
X522001Y210002D01*
Y212001D01*
X523001Y213001D01*
X526000D01*
X516003Y209002D02*
X518003Y210002D01*
X520002Y212001D01*
Y214000D01*
X519002Y215000D01*
X517003D01*
X516003Y214000D01*
Y213001D01*
X517003Y212001D01*
X520002D01*
X305000Y485000D02*
Y479002D01*
X302001D01*
X301001Y480002D01*
Y482001D01*
X302001Y483001D01*
X305000D01*
X299002Y480002D02*
X298002Y479002D01*
X296003D01*
X295003Y480002D01*
Y481001D01*
X296003Y482001D01*
X295003Y483001D01*
Y484000D01*
X296003Y485000D01*
X298002D01*
X299002Y484000D01*
Y483001D01*
X298002Y482001D01*
X299002Y481001D01*
Y480002D01*
X298002Y482001D02*
X296003D01*
X363000Y461000D02*
Y455002D01*
X360001D01*
X359001Y456002D01*
Y458001D01*
X360001Y459001D01*
X363000D01*
X357002Y455002D02*
X353003D01*
Y456002D01*
X357002Y460000D01*
Y461000D01*
X238700Y518400D02*
Y512402D01*
X235701D01*
X234701Y513402D01*
Y515401D01*
X235701Y516401D01*
X238700D01*
X229703Y518400D02*
Y512402D01*
X232702Y515401D01*
X228703D01*
X36900Y420902D02*
Y426900D01*
X33901D01*
X32901Y425900D01*
Y421902D01*
X33901Y420902D01*
X36900D01*
X30902D02*
X28903D01*
X29902D01*
Y426900D01*
X30902D01*
X28903D01*
X21905Y421902D02*
X22905Y420902D01*
X24904D01*
X25904Y421902D01*
Y422901D01*
X24904Y423901D01*
X22905D01*
X21905Y424901D01*
Y425900D01*
X22905Y426900D01*
X24904D01*
X25904Y425900D01*
X19906Y426900D02*
Y420902D01*
X16906D01*
X15907Y421902D01*
Y423901D01*
X16906Y424901D01*
X19906D01*
X13907Y426900D02*
X11908D01*
X12908D01*
Y420902D01*
X13907Y421902D01*
X79602Y476800D02*
X84600D01*
X85600Y477800D01*
Y479799D01*
X84600Y480799D01*
X79602D01*
X85600Y482798D02*
Y484797D01*
Y483798D01*
X79602D01*
X80602Y482798D01*
X85600Y487796D02*
Y489796D01*
Y488796D01*
X79602D01*
X80602Y487796D01*
X51002Y478400D02*
X56000D01*
X57000Y479400D01*
Y481399D01*
X56000Y482399D01*
X51002D01*
X56000Y484398D02*
X57000Y485398D01*
Y487397D01*
X56000Y488397D01*
X52002D01*
X51002Y487397D01*
Y485398D01*
X52002Y484398D01*
X53001D01*
X54001Y485398D01*
Y488397D01*
X477600Y396202D02*
Y401200D01*
X476600Y402200D01*
X474601D01*
X473601Y401200D01*
Y396202D01*
X467603Y402200D02*
X471602D01*
X467603Y398201D01*
Y397202D01*
X468603Y396202D01*
X470602D01*
X471602Y397202D01*
X465604Y402200D02*
X463604D01*
X464604D01*
Y396202D01*
X465604Y397202D01*
X614900Y518502D02*
Y523500D01*
X613900Y524500D01*
X611901D01*
X610901Y523500D01*
Y518502D01*
X604903Y524500D02*
X608902D01*
X604903Y520501D01*
Y519502D01*
X605903Y518502D01*
X607902D01*
X608902Y519502D01*
X602904D02*
X601904Y518502D01*
X599905D01*
X598905Y519502D01*
Y523500D01*
X599905Y524500D01*
X601904D01*
X602904Y523500D01*
Y519502D01*
X475800Y332002D02*
Y337000D01*
X474800Y338000D01*
X472801D01*
X471801Y337000D01*
Y332002D01*
X469802Y338000D02*
X467803D01*
X468802D01*
Y332002D01*
X469802Y333002D01*
X464804Y337000D02*
X463804Y338000D01*
X461804D01*
X460805Y337000D01*
Y333002D01*
X461804Y332002D01*
X463804D01*
X464804Y333002D01*
Y334001D01*
X463804Y335001D01*
X460805D01*
X515100Y482302D02*
Y487300D01*
X514100Y488300D01*
X512101D01*
X511101Y487300D01*
Y482302D01*
X509102Y488300D02*
X507103D01*
X508102D01*
Y482302D01*
X509102Y483302D01*
X504104D02*
X503104Y482302D01*
X501104D01*
X500105Y483302D01*
Y484301D01*
X501104Y485301D01*
X500105Y486301D01*
Y487300D01*
X501104Y488300D01*
X503104D01*
X504104Y487300D01*
Y486301D01*
X503104Y485301D01*
X504104Y484301D01*
Y483302D01*
X503104Y485301D02*
X501104D01*
X567901Y451302D02*
X568901Y450302D01*
X570900D01*
X571900Y451302D01*
Y455300D01*
X570900Y456300D01*
X568901D01*
X567901Y455300D01*
X565902Y456300D02*
X563903D01*
X564902D01*
Y450302D01*
X565902Y451302D01*
X557904Y456300D02*
Y450302D01*
X560904Y453301D01*
X556905D01*
X523901Y501802D02*
X524901Y500802D01*
X526900D01*
X527900Y501802D01*
Y505800D01*
X526900Y506800D01*
X524901D01*
X523901Y505800D01*
X517903Y500802D02*
X521902D01*
Y503801D01*
X519903Y502801D01*
X518903D01*
X517903Y503801D01*
Y505800D01*
X518903Y506800D01*
X520902D01*
X521902Y505800D01*
X515904Y501802D02*
X514904Y500802D01*
X512905D01*
X511905Y501802D01*
Y505800D01*
X512905Y506800D01*
X514904D01*
X515904Y505800D01*
Y501802D01*
X249201Y107502D02*
X251201D01*
X250201D01*
Y112500D01*
X251201Y113500D01*
X252200D01*
X253200Y112500D01*
X247202Y113500D02*
X245203D01*
X246202D01*
Y107502D01*
X247202Y108502D01*
X123001Y627002D02*
X125001D01*
X124001D01*
Y632000D01*
X125001Y633000D01*
X126000D01*
X127000Y632000D01*
X117003Y633000D02*
X121002D01*
X117003Y629001D01*
Y628002D01*
X118003Y627002D01*
X120002D01*
X121002Y628002D01*
X245631Y627002D02*
X247631D01*
X246631D01*
Y632000D01*
X247631Y633000D01*
X248630D01*
X249630Y632000D01*
X243632Y628002D02*
X242632Y627002D01*
X240633D01*
X239633Y628002D01*
Y629001D01*
X240633Y630001D01*
X241633D01*
X240633D01*
X239633Y631001D01*
Y632000D01*
X240633Y633000D01*
X242632D01*
X243632Y632000D01*
X161000Y216000D02*
Y210002D01*
X158001D01*
X157001Y211002D01*
Y213001D01*
X158001Y214001D01*
X161000D01*
X159001D02*
X157001Y216000D01*
X155002D02*
X153003D01*
X154002D01*
Y210002D01*
X155002Y211002D01*
X146005Y210002D02*
X148004Y211002D01*
X150004Y213001D01*
Y215000D01*
X149004Y216000D01*
X147004D01*
X146005Y215000D01*
Y214001D01*
X147004Y213001D01*
X150004D01*
X283500Y190800D02*
X277502D01*
Y193799D01*
X278502Y194799D01*
X280501D01*
X281501Y193799D01*
Y190800D01*
Y192799D02*
X283500Y194799D01*
Y200797D02*
Y196798D01*
X279501Y200797D01*
X278502D01*
X277502Y199797D01*
Y197798D01*
X278502Y196798D01*
X277502Y202796D02*
Y206795D01*
X278502D01*
X282500Y202796D01*
X283500D01*
X238000Y365002D02*
Y370000D01*
X237000Y371000D01*
X235001D01*
X234001Y370000D01*
Y365002D01*
X232002Y371000D02*
X230003D01*
X231002D01*
Y365002D01*
X232002Y366002D01*
X439000Y428002D02*
Y433000D01*
X438000Y434000D01*
X436001D01*
X435001Y433000D01*
Y428002D01*
X429003Y434000D02*
X433002D01*
X429003Y430001D01*
Y429002D01*
X430003Y428002D01*
X432002D01*
X433002Y429002D01*
X256000Y429002D02*
Y434000D01*
X255000Y435000D01*
X253001D01*
X252001Y434000D01*
Y429002D01*
X247003Y435000D02*
Y429002D01*
X250002Y432001D01*
X246003D01*
X386200Y602302D02*
Y607300D01*
X385200Y608300D01*
X383201D01*
X382201Y607300D01*
Y602302D01*
X376203D02*
X378203Y603302D01*
X380202Y605301D01*
Y607300D01*
X379202Y608300D01*
X377203D01*
X376203Y607300D01*
Y606301D01*
X377203Y605301D01*
X380202D01*
X461100Y604002D02*
Y609000D01*
X460100Y610000D01*
X458101D01*
X457101Y609000D01*
Y604002D01*
X455102D02*
X451103D01*
Y605002D01*
X455102Y609000D01*
Y610000D01*
X318000Y431002D02*
Y436000D01*
X317000Y437000D01*
X315001D01*
X314001Y436000D01*
Y431002D01*
X312002Y432002D02*
X311002Y431002D01*
X309003D01*
X308003Y432002D01*
Y433001D01*
X309003Y434001D01*
X308003Y435001D01*
Y436000D01*
X309003Y437000D01*
X311002D01*
X312002Y436000D01*
Y435001D01*
X311002Y434001D01*
X312002Y433001D01*
Y432002D01*
X311002Y434001D02*
X309003D01*
X260100Y155702D02*
Y160700D01*
X259100Y161700D01*
X257101D01*
X256101Y160700D01*
Y155702D01*
X254102Y161700D02*
X252103D01*
X253102D01*
Y155702D01*
X254102Y156702D01*
X245105Y155702D02*
X247104Y156702D01*
X249104Y158701D01*
Y160700D01*
X248104Y161700D01*
X246105D01*
X245105Y160700D01*
Y159701D01*
X246105Y158701D01*
X249104D01*
X234300Y553402D02*
Y558400D01*
X233300Y559400D01*
X231301D01*
X230301Y558400D01*
Y553402D01*
X228302Y559400D02*
X226303D01*
X227302D01*
Y553402D01*
X228302Y554402D01*
X223304Y553402D02*
X219305D01*
Y554402D01*
X223304Y558400D01*
Y559400D01*
X162600Y294802D02*
X158601Y300800D01*
Y294802D02*
X162600Y300800D01*
X156602D02*
X154603D01*
X155602D01*
Y294802D01*
X156602Y295802D01*
X203900Y304802D02*
X199901Y310800D01*
Y304802D02*
X203900Y310800D01*
X193903D02*
X197902D01*
X193903Y306801D01*
Y305802D01*
X194903Y304802D01*
X196902D01*
X197902Y305802D01*
X343002Y170500D02*
X349000Y174499D01*
X343002D02*
X349000Y170500D01*
X344002Y176498D02*
X343002Y177498D01*
Y179497D01*
X344002Y180497D01*
X345001D01*
X346001Y179497D01*
Y178497D01*
Y179497D01*
X347001Y180497D01*
X348000D01*
X349000Y179497D01*
Y177498D01*
X348000Y176498D01*
X69601Y63102D02*
X71601D01*
X70601D01*
Y68100D01*
X71601Y69100D01*
X72600D01*
X73600Y68100D01*
X64603Y69100D02*
Y63102D01*
X67602Y66101D01*
X63603D01*
X419600Y257602D02*
Y262600D01*
X418600Y263600D01*
X416601D01*
X415601Y262600D01*
Y257602D01*
X409603D02*
X413602D01*
Y260601D01*
X411603Y259601D01*
X410603D01*
X409603Y260601D01*
Y262600D01*
X410603Y263600D01*
X412602D01*
X413602Y262600D01*
X400601Y609702D02*
X401601Y608702D01*
X403600D01*
X404600Y609702D01*
Y613700D01*
X403600Y614700D01*
X401601D01*
X400601Y613700D01*
X398602Y609702D02*
X397602Y608702D01*
X395603D01*
X394603Y609702D01*
Y610701D01*
X395603Y611701D01*
X396603D01*
X395603D01*
X394603Y612701D01*
Y613700D01*
X395603Y614700D01*
X397602D01*
X398602Y613700D01*
X34402Y467899D02*
X33402Y466899D01*
Y464900D01*
X34402Y463900D01*
X38400D01*
X39400Y464900D01*
Y466899D01*
X38400Y467899D01*
X39400Y469898D02*
Y471897D01*
Y470898D01*
X33402D01*
X34402Y469898D01*
Y474896D02*
X33402Y475896D01*
Y477895D01*
X34402Y478895D01*
X38400D01*
X39400Y477895D01*
Y475896D01*
X38400Y474896D01*
X34402D01*
X96602Y441799D02*
X95602Y440799D01*
Y438800D01*
X96602Y437800D01*
X100600D01*
X101600Y438800D01*
Y440799D01*
X100600Y441799D01*
X101600Y443798D02*
Y445797D01*
Y444798D01*
X95602D01*
X96602Y443798D01*
X95602Y452795D02*
X96602Y450796D01*
X98601Y448796D01*
X100600D01*
X101600Y449796D01*
Y451795D01*
X100600Y452795D01*
X99601D01*
X98601Y451795D01*
Y448796D01*
X400001Y525502D02*
X401001Y524502D01*
X403000D01*
X404000Y525502D01*
Y529500D01*
X403000Y530500D01*
X401001D01*
X400001Y529500D01*
X394003Y530500D02*
X398002D01*
X394003Y526501D01*
Y525502D01*
X395003Y524502D01*
X397002D01*
X398002Y525502D01*
X389005Y530500D02*
Y524502D01*
X392004Y527501D01*
X388005D01*
X325801Y111402D02*
X326801Y110402D01*
X328800D01*
X329800Y111402D01*
Y115400D01*
X328800Y116400D01*
X326801D01*
X325801Y115400D01*
X319803Y110402D02*
X321803Y111402D01*
X323802Y113401D01*
Y115400D01*
X322802Y116400D01*
X320803D01*
X319803Y115400D01*
Y114401D01*
X320803Y113401D01*
X323802D01*
X317804Y116400D02*
X315805D01*
X316804D01*
Y110402D01*
X317804Y111402D01*
X323501Y122102D02*
X324501Y121102D01*
X326500D01*
X327500Y122102D01*
Y126100D01*
X326500Y127100D01*
X324501D01*
X323501Y126100D01*
X317503Y121102D02*
X319503Y122102D01*
X321502Y124101D01*
Y126100D01*
X320502Y127100D01*
X318503D01*
X317503Y126100D01*
Y125101D01*
X318503Y124101D01*
X321502D01*
X315504Y122102D02*
X314504Y121102D01*
X312505D01*
X311505Y122102D01*
Y123101D01*
X312505Y124101D01*
X313505D01*
X312505D01*
X311505Y125101D01*
Y126100D01*
X312505Y127100D01*
X314504D01*
X315504Y126100D01*
X401001Y54002D02*
X403001D01*
X402001D01*
Y59000D01*
X403001Y60000D01*
X404000D01*
X405000Y59000D01*
X399002Y54002D02*
X395003D01*
X397003D01*
Y60000D01*
X393004D02*
Y56001D01*
X391004Y54002D01*
X389005Y56001D01*
Y60000D01*
Y57001D01*
X393004D01*
X383007Y55002D02*
X384007Y54002D01*
X386006D01*
X387006Y55002D01*
Y59000D01*
X386006Y60000D01*
X384007D01*
X383007Y59000D01*
Y57001D01*
X385006D01*
X381008Y61000D02*
X377009D01*
X371011Y55002D02*
X372011Y54002D01*
X374010D01*
X375010Y55002D01*
Y56001D01*
X374010Y57001D01*
X372011D01*
X371011Y58001D01*
Y59000D01*
X372011Y60000D01*
X374010D01*
X375010Y59000D01*
X365013Y54002D02*
X369012D01*
Y60000D01*
X365013D01*
X369012Y57001D02*
X367012D01*
X363014Y54002D02*
Y60000D01*
X359015D01*
X49100Y500302D02*
Y506300D01*
Y504301D01*
X45101Y500302D01*
X48100Y503301D01*
X45101Y506300D01*
X43102D02*
X41103D01*
X42102D01*
Y500302D01*
X43102Y501302D01*
X415900Y137600D02*
Y131602D01*
X412901D01*
X411901Y132602D01*
Y134601D01*
X412901Y135601D01*
X415900D01*
X409902Y137600D02*
X407903D01*
X408902D01*
Y131602D01*
X409902Y132602D01*
X400600Y223500D02*
Y217502D01*
X397601D01*
X396601Y218502D01*
Y220501D01*
X397601Y221501D01*
X400600D01*
X390603Y223500D02*
X394602D01*
X390603Y219501D01*
Y218502D01*
X391603Y217502D01*
X393602D01*
X394602Y218502D01*
X383200Y213300D02*
Y207302D01*
X380201D01*
X379201Y208302D01*
Y210301D01*
X380201Y211301D01*
X383200D01*
X377202Y208302D02*
X376202Y207302D01*
X374203D01*
X373203Y208302D01*
Y209301D01*
X374203Y210301D01*
X375203D01*
X374203D01*
X373203Y211301D01*
Y212300D01*
X374203Y213300D01*
X376202D01*
X377202Y212300D01*
X395800Y88000D02*
X389802D01*
Y90999D01*
X390802Y91999D01*
X392801D01*
X393801Y90999D01*
Y88000D01*
Y89999D02*
X395800Y91999D01*
X389802Y97997D02*
Y93998D01*
X392801D01*
X391801Y95997D01*
Y96997D01*
X392801Y97997D01*
X394800D01*
X395800Y96997D01*
Y94998D01*
X394800Y93998D01*
X374800Y89700D02*
X368802D01*
Y92699D01*
X369802Y93699D01*
X371801D01*
X372801Y92699D01*
Y89700D01*
Y91699D02*
X374800Y93699D01*
X368802Y99697D02*
X369802Y97697D01*
X371801Y95698D01*
X373800D01*
X374800Y96698D01*
Y98697D01*
X373800Y99697D01*
X372801D01*
X371801Y98697D01*
Y95698D01*
X161000Y206000D02*
Y200002D01*
X158001D01*
X157001Y201002D01*
Y203001D01*
X158001Y204001D01*
X161000D01*
X159001D02*
X157001Y206000D01*
X155002D02*
X153003D01*
X154002D01*
Y200002D01*
X155002Y201002D01*
X150004Y200002D02*
X146005D01*
Y201002D01*
X150004Y205000D01*
Y206000D01*
X218800Y112500D02*
Y106502D01*
X215801D01*
X214801Y107502D01*
Y109501D01*
X215801Y110501D01*
X218800D01*
X216801D02*
X214801Y112500D01*
X212802D02*
X210803D01*
X211802D01*
Y106502D01*
X212802Y107502D01*
X207804D02*
X206804Y106502D01*
X204804D01*
X203805Y107502D01*
Y108501D01*
X204804Y109501D01*
X203805Y110501D01*
Y111500D01*
X204804Y112500D01*
X206804D01*
X207804Y111500D01*
Y110501D01*
X206804Y109501D01*
X207804Y108501D01*
Y107502D01*
X206804Y109501D02*
X204804D01*
X219600Y131000D02*
Y125002D01*
X216601D01*
X215601Y126002D01*
Y128001D01*
X216601Y129001D01*
X219600D01*
X217601D02*
X215601Y131000D01*
X213602D02*
X211603D01*
X212602D01*
Y125002D01*
X213602Y126002D01*
X208604Y130000D02*
X207604Y131000D01*
X205605D01*
X204605Y130000D01*
Y126002D01*
X205605Y125002D01*
X207604D01*
X208604Y126002D01*
Y127001D01*
X207604Y128001D01*
X204605D01*
X219000Y140800D02*
Y134802D01*
X216001D01*
X215001Y135802D01*
Y137801D01*
X216001Y138801D01*
X219000D01*
X217001D02*
X215001Y140800D01*
X209003D02*
X213002D01*
X209003Y136801D01*
Y135802D01*
X210003Y134802D01*
X212002D01*
X213002Y135802D01*
X207004D02*
X206004Y134802D01*
X204005D01*
X203005Y135802D01*
Y139800D01*
X204005Y140800D01*
X206004D01*
X207004Y139800D01*
Y135802D01*
X219100Y122900D02*
Y116902D01*
X216101D01*
X215101Y117902D01*
Y119901D01*
X216101Y120901D01*
X219100D01*
X217101D02*
X215101Y122900D01*
X209103D02*
X213102D01*
X209103Y118901D01*
Y117902D01*
X210103Y116902D01*
X212102D01*
X213102Y117902D01*
X207104Y122900D02*
X205104D01*
X206104D01*
Y116902D01*
X207104Y117902D01*
X219200Y104000D02*
Y98002D01*
X216201D01*
X215201Y99002D01*
Y101001D01*
X216201Y102001D01*
X219200D01*
X217201D02*
X215201Y104000D01*
X209203D02*
X213202D01*
X209203Y100001D01*
Y99002D01*
X210203Y98002D01*
X212202D01*
X213202Y99002D01*
X203205Y104000D02*
X207204D01*
X203205Y100001D01*
Y99002D01*
X204205Y98002D01*
X206204D01*
X207204Y99002D01*
X309000Y190600D02*
X303002D01*
Y193599D01*
X304002Y194599D01*
X306001D01*
X307001Y193599D01*
Y190600D01*
Y192599D02*
X309000Y194599D01*
Y200597D02*
Y196598D01*
X305001Y200597D01*
X304002D01*
X303002Y199597D01*
Y197598D01*
X304002Y196598D01*
Y202596D02*
X303002Y203596D01*
Y205595D01*
X304002Y206595D01*
X305001D01*
X306001Y205595D01*
Y204595D01*
Y205595D01*
X307001Y206595D01*
X308000D01*
X309000Y205595D01*
Y203596D01*
X308000Y202596D01*
X361600Y119100D02*
Y113102D01*
X358601D01*
X357601Y114102D01*
Y116101D01*
X358601Y117101D01*
X361600D01*
X359601D02*
X357601Y119100D01*
X351603D02*
X355602D01*
X351603Y115101D01*
Y114102D01*
X352603Y113102D01*
X354602D01*
X355602Y114102D01*
X349604D02*
X348604Y113102D01*
X346605D01*
X345605Y114102D01*
Y115101D01*
X346605Y116101D01*
X345605Y117101D01*
Y118100D01*
X346605Y119100D01*
X348604D01*
X349604Y118100D01*
Y117101D01*
X348604Y116101D01*
X349604Y115101D01*
Y114102D01*
X348604Y116101D02*
X346605D01*
X361400Y109200D02*
Y103202D01*
X358401D01*
X357401Y104202D01*
Y106201D01*
X358401Y107201D01*
X361400D01*
X359401D02*
X357401Y109200D01*
X351403D02*
X355402D01*
X351403Y105201D01*
Y104202D01*
X352403Y103202D01*
X354402D01*
X355402Y104202D01*
X349404Y108200D02*
X348404Y109200D01*
X346405D01*
X345405Y108200D01*
Y104202D01*
X346405Y103202D01*
X348404D01*
X349404Y104202D01*
Y105201D01*
X348404Y106201D01*
X345405D01*
X300900Y190200D02*
X294902D01*
Y193199D01*
X295902Y194199D01*
X297901D01*
X298901Y193199D01*
Y190200D01*
Y192199D02*
X300900Y194199D01*
X295902Y196198D02*
X294902Y197198D01*
Y199197D01*
X295902Y200197D01*
X296901D01*
X297901Y199197D01*
Y198197D01*
Y199197D01*
X298901Y200197D01*
X299900D01*
X300900Y199197D01*
Y197198D01*
X299900Y196198D01*
X295902Y202196D02*
X294902Y203196D01*
Y205195D01*
X295902Y206195D01*
X299900D01*
X300900Y205195D01*
Y203196D01*
X299900Y202196D01*
X295902D01*
X292100Y190600D02*
X286102D01*
Y193599D01*
X287102Y194599D01*
X289101D01*
X290101Y193599D01*
Y190600D01*
Y192599D02*
X292100Y194599D01*
X287102Y196598D02*
X286102Y197598D01*
Y199597D01*
X287102Y200597D01*
X288101D01*
X289101Y199597D01*
Y198597D01*
Y199597D01*
X290101Y200597D01*
X291100D01*
X292100Y199597D01*
Y197598D01*
X291100Y196598D01*
X292100Y205595D02*
X286102D01*
X289101Y202596D01*
Y206595D01*
X317200Y190647D02*
X311202D01*
Y193646D01*
X312202Y194646D01*
X314201D01*
X315201Y193646D01*
Y190647D01*
Y192647D02*
X317200Y194646D01*
X312202Y196645D02*
X311202Y197645D01*
Y199644D01*
X312202Y200644D01*
X313201D01*
X314201Y199644D01*
Y198645D01*
Y199644D01*
X315201Y200644D01*
X316200D01*
X317200Y199644D01*
Y197645D01*
X316200Y196645D01*
X311202Y206642D02*
Y202643D01*
X314201D01*
X313201Y204643D01*
Y205642D01*
X314201Y206642D01*
X316200D01*
X317200Y205642D01*
Y203643D01*
X316200Y202643D01*
X275700Y191000D02*
X269702D01*
Y193999D01*
X270702Y194999D01*
X272701D01*
X273701Y193999D01*
Y191000D01*
Y192999D02*
X275700Y194999D01*
X270702Y196998D02*
X269702Y197998D01*
Y199997D01*
X270702Y200997D01*
X271701D01*
X272701Y199997D01*
Y198997D01*
Y199997D01*
X273701Y200997D01*
X274700D01*
X275700Y199997D01*
Y197998D01*
X274700Y196998D01*
X269702Y206995D02*
X270702Y204995D01*
X272701Y202996D01*
X274700D01*
X275700Y203996D01*
Y205995D01*
X274700Y206995D01*
X273701D01*
X272701Y205995D01*
Y202996D01*
X267500Y191600D02*
X261502D01*
Y194599D01*
X262502Y195599D01*
X264501D01*
X265501Y194599D01*
Y191600D01*
Y193599D02*
X267500Y195599D01*
X262502Y197598D02*
X261502Y198598D01*
Y200597D01*
X262502Y201597D01*
X263501D01*
X264501Y200597D01*
Y199597D01*
Y200597D01*
X265501Y201597D01*
X266500D01*
X267500Y200597D01*
Y198598D01*
X266500Y197598D01*
X261502Y203596D02*
Y207595D01*
X262502D01*
X266500Y203596D01*
X267500D01*
X259900Y192600D02*
X253902D01*
Y195599D01*
X254902Y196599D01*
X256901D01*
X257901Y195599D01*
Y192600D01*
Y194599D02*
X259900Y196599D01*
X254902Y198598D02*
X253902Y199598D01*
Y201597D01*
X254902Y202597D01*
X255901D01*
X256901Y201597D01*
Y200597D01*
Y201597D01*
X257901Y202597D01*
X258900D01*
X259900Y201597D01*
Y199598D01*
X258900Y198598D01*
X254902Y204596D02*
X253902Y205596D01*
Y207595D01*
X254902Y208595D01*
X255901D01*
X256901Y207595D01*
X257901Y208595D01*
X258900D01*
X259900Y207595D01*
Y205596D01*
X258900Y204596D01*
X257901D01*
X256901Y205596D01*
X255901Y204596D01*
X254902D01*
X256901Y205596D02*
Y207595D01*
X251700Y192400D02*
X245702D01*
Y195399D01*
X246702Y196399D01*
X248701D01*
X249701Y195399D01*
Y192400D01*
Y194399D02*
X251700Y196399D01*
X246702Y198398D02*
X245702Y199398D01*
Y201397D01*
X246702Y202397D01*
X247701D01*
X248701Y201397D01*
Y200397D01*
Y201397D01*
X249701Y202397D01*
X250700D01*
X251700Y201397D01*
Y199398D01*
X250700Y198398D01*
Y204396D02*
X251700Y205396D01*
Y207395D01*
X250700Y208395D01*
X246702D01*
X245702Y207395D01*
Y205396D01*
X246702Y204396D01*
X247701D01*
X248701Y205396D01*
Y208395D01*
X581601Y58002D02*
X582601Y57002D01*
X584600D01*
X585600Y58002D01*
Y59001D01*
X584600Y60001D01*
X582601D01*
X581601Y61001D01*
Y62000D01*
X582601Y63000D01*
X584600D01*
X585600Y62000D01*
X579602Y57002D02*
Y63000D01*
X577603Y61001D01*
X575603Y63000D01*
Y57002D01*
X573604Y64000D02*
X569605D01*
X567606Y63000D02*
Y57002D01*
X564607D01*
X563607Y58002D01*
Y60001D01*
X564607Y61001D01*
X567606D01*
X565606D02*
X563607Y63000D01*
X557609Y57002D02*
X561608D01*
Y63000D01*
X557609D01*
X561608Y60001D02*
X559608D01*
X551611Y58002D02*
X552611Y57002D01*
X554610D01*
X555610Y58002D01*
Y59001D01*
X554610Y60001D01*
X552611D01*
X551611Y61001D01*
Y62000D01*
X552611Y63000D01*
X554610D01*
X555610Y62000D01*
X545613Y57002D02*
X549612D01*
Y63000D01*
X545613D01*
X549612Y60001D02*
X547612D01*
X543614Y57002D02*
X539615D01*
X541614D01*
Y63000D01*
X108701Y595402D02*
X109701Y594402D01*
X111700D01*
X112700Y595402D01*
Y596401D01*
X111700Y597401D01*
X109701D01*
X108701Y598401D01*
Y599400D01*
X109701Y600400D01*
X111700D01*
X112700Y599400D01*
X106702Y594402D02*
Y600400D01*
X104703Y598401D01*
X102703Y600400D01*
Y594402D01*
X100704Y601400D02*
X96705D01*
X94706Y594402D02*
Y600400D01*
Y597401D01*
X90707D01*
Y594402D01*
Y600400D01*
X87708Y596401D02*
X85709D01*
X84709Y597401D01*
Y600400D01*
X87708D01*
X88708Y599400D01*
X87708Y598401D01*
X84709D01*
X82710Y600400D02*
Y596401D01*
X79711D01*
X78711Y597401D01*
Y600400D01*
X74712Y602399D02*
X73713D01*
X72713Y601400D01*
Y596401D01*
X75712D01*
X76712Y597401D01*
Y599400D01*
X75712Y600400D01*
X72713D01*
X70714Y594402D02*
Y599400D01*
X69714Y600400D01*
X67715D01*
X66715Y599400D01*
Y594402D01*
X64715Y602399D02*
Y596401D01*
X61717D01*
X60717Y597401D01*
Y599400D01*
X61717Y600400D01*
X64715D01*
X501700Y80802D02*
Y85800D01*
X500700Y86800D01*
X498701D01*
X497701Y85800D01*
Y80802D01*
X495702Y81802D02*
X494702Y80802D01*
X492703D01*
X491703Y81802D01*
Y82801D01*
X492703Y83801D01*
X493703D01*
X492703D01*
X491703Y84801D01*
Y85800D01*
X492703Y86800D01*
X494702D01*
X495702Y85800D01*
X192000Y221002D02*
Y226000D01*
X191000Y227000D01*
X189001D01*
X188001Y226000D01*
Y221002D01*
X186002Y227000D02*
X184003D01*
X185002D01*
Y221002D01*
X186002Y222002D01*
X177005Y221002D02*
X181004D01*
Y224001D01*
X179004Y223001D01*
X178005D01*
X177005Y224001D01*
Y226000D01*
X178005Y227000D01*
X180004D01*
X181004Y226000D01*
X21501Y448500D02*
Y444502D01*
X22501Y443502D01*
X24500D01*
X25500Y444502D01*
Y448500D01*
X24500Y449500D01*
X22501D01*
X23501Y447501D02*
X21501Y449500D01*
X22501D02*
X21501Y448500D01*
X15503Y449500D02*
X19502D01*
X15503Y445501D01*
Y444502D01*
X16503Y443502D01*
X18502D01*
X19502Y444502D01*
X179002Y359000D02*
X185000D01*
Y362999D01*
X180002Y364998D02*
X179002Y365998D01*
Y367997D01*
X180002Y368997D01*
X181001D01*
X182001Y367997D01*
Y366997D01*
Y367997D01*
X183001Y368997D01*
X184000D01*
X185000Y367997D01*
Y365998D01*
X184000Y364998D01*
X127800Y294398D02*
Y288400D01*
X131799D01*
X136797D02*
Y294398D01*
X133798Y291399D01*
X137797D01*
X218900Y149600D02*
Y143602D01*
X215901D01*
X214901Y144602D01*
Y146601D01*
X215901Y147601D01*
X218900D01*
X216901D02*
X214901Y149600D01*
X208903Y143602D02*
X212902D01*
Y146601D01*
X210903Y145601D01*
X209903D01*
X208903Y146601D01*
Y148600D01*
X209903Y149600D01*
X211902D01*
X212902Y148600D01*
X206904D02*
X205904Y149600D01*
X203905D01*
X202905Y148600D01*
Y144602D01*
X203905Y143602D01*
X205904D01*
X206904Y144602D01*
Y145601D01*
X205904Y146601D01*
X202905D01*
X302000Y547000D02*
X296002D01*
Y549999D01*
X297002Y550999D01*
X299001D01*
X300001Y549999D01*
Y547000D01*
Y548999D02*
X302000Y550999D01*
X296002Y556997D02*
X297002Y554997D01*
X299001Y552998D01*
X301000D01*
X302000Y553998D01*
Y555997D01*
X301000Y556997D01*
X300001D01*
X299001Y555997D01*
Y552998D01*
X297002Y558996D02*
X296002Y559996D01*
Y561995D01*
X297002Y562995D01*
X298001D01*
X299001Y561995D01*
Y560995D01*
Y561995D01*
X300001Y562995D01*
X301000D01*
X302000Y561995D01*
Y559996D01*
X301000Y558996D01*
X302100Y590200D02*
X296102D01*
Y593199D01*
X297102Y594199D01*
X299101D01*
X300101Y593199D01*
Y590200D01*
Y592199D02*
X302100Y594199D01*
X296102Y600197D02*
X297102Y598197D01*
X299101Y596198D01*
X301100D01*
X302100Y597198D01*
Y599197D01*
X301100Y600197D01*
X300101D01*
X299101Y599197D01*
Y596198D01*
X302100Y605195D02*
X296102D01*
X299101Y602196D01*
Y606195D01*
X136200Y535498D02*
Y530500D01*
X137200Y529500D01*
X139199D01*
X140199Y530500D01*
Y535498D01*
X142198Y529500D02*
X144197D01*
X143198D01*
Y535498D01*
X142198Y534498D01*
X147196D02*
X148196Y535498D01*
X150196D01*
X151195Y534498D01*
Y533499D01*
X150196Y532499D01*
X149196D01*
X150196D01*
X151195Y531499D01*
Y530500D01*
X150196Y529500D01*
X148196D01*
X147196Y530500D01*
X137701Y68002D02*
X138701Y67002D01*
X140700D01*
X141700Y68002D01*
Y72000D01*
X140700Y73000D01*
X138701D01*
X137701Y72000D01*
X135702Y67002D02*
X131703D01*
Y68002D01*
X135702Y72000D01*
Y73000D01*
X129704D02*
X127705D01*
X128704D01*
Y67002D01*
X129704Y68002D01*
X120901Y107502D02*
X121901Y106502D01*
X123900D01*
X124900Y107502D01*
Y111500D01*
X123900Y112500D01*
X121901D01*
X120901Y111500D01*
X118902Y106502D02*
X114903D01*
Y107502D01*
X118902Y111500D01*
Y112500D01*
X108905D02*
X112904D01*
X108905Y108501D01*
Y107502D01*
X109905Y106502D01*
X111904D01*
X112904Y107502D01*
X120401Y294502D02*
X121401Y293502D01*
X123400D01*
X124400Y294502D01*
Y298500D01*
X123400Y299500D01*
X121401D01*
X120401Y298500D01*
X118402Y293502D02*
X114403D01*
Y294502D01*
X118402Y298500D01*
Y299500D01*
X109405D02*
Y293502D01*
X112404Y296501D01*
X108405D01*
X121001Y233002D02*
X122001Y232002D01*
X124000D01*
X125000Y233002D01*
Y237000D01*
X124000Y238000D01*
X122001D01*
X121001Y237000D01*
X119002Y232002D02*
X115003D01*
Y233002D01*
X119002Y237000D01*
Y238000D01*
X109005Y232002D02*
X111004Y233002D01*
X113004Y235001D01*
Y237000D01*
X112004Y238000D01*
X110005D01*
X109005Y237000D01*
Y236001D01*
X110005Y235001D01*
X113004D01*
X122601Y172802D02*
X123601Y171802D01*
X125600D01*
X126600Y172802D01*
Y176800D01*
X125600Y177800D01*
X123601D01*
X122601Y176800D01*
X120602Y171802D02*
X116603D01*
Y172802D01*
X120602Y176800D01*
Y177800D01*
X114604Y172802D02*
X113604Y171802D01*
X111605D01*
X110605Y172802D01*
Y173801D01*
X111605Y174801D01*
X110605Y175801D01*
Y176800D01*
X111605Y177800D01*
X113604D01*
X114604Y176800D01*
Y175801D01*
X113604Y174801D01*
X114604Y173801D01*
Y172802D01*
X113604Y174801D02*
X111605D01*
X123400Y102200D02*
Y96202D01*
X120401D01*
X119401Y97202D01*
Y99201D01*
X120401Y100201D01*
X123400D01*
X121401D02*
X119401Y102200D01*
X114403D02*
Y96202D01*
X117402Y99201D01*
X113403D01*
X111404Y96202D02*
X107405D01*
Y97202D01*
X111404Y101200D01*
Y102200D01*
X121900Y92500D02*
Y86502D01*
X118901D01*
X117901Y87502D01*
Y89501D01*
X118901Y90501D01*
X121900D01*
X119901D02*
X117901Y92500D01*
X112903D02*
Y86502D01*
X115902Y89501D01*
X111903D01*
X109904Y87502D02*
X108904Y86502D01*
X106905D01*
X105905Y87502D01*
Y88501D01*
X106905Y89501D01*
X105905Y90501D01*
Y91500D01*
X106905Y92500D01*
X108904D01*
X109904Y91500D01*
Y90501D01*
X108904Y89501D01*
X109904Y88501D01*
Y87502D01*
X108904Y89501D02*
X106905D01*
X121100Y287500D02*
Y281502D01*
X118101D01*
X117101Y282502D01*
Y284501D01*
X118101Y285501D01*
X121100D01*
X119101D02*
X117101Y287500D01*
X112103D02*
Y281502D01*
X115102Y284501D01*
X111103D01*
X109104Y286500D02*
X108104Y287500D01*
X106105D01*
X105105Y286500D01*
Y282502D01*
X106105Y281502D01*
X108104D01*
X109104Y282502D01*
Y283501D01*
X108104Y284501D01*
X105105D01*
X120500Y278100D02*
Y272102D01*
X117501D01*
X116501Y273102D01*
Y275101D01*
X117501Y276101D01*
X120500D01*
X118501D02*
X116501Y278100D01*
X110503Y272102D02*
X114502D01*
Y275101D01*
X112503Y274101D01*
X111503D01*
X110503Y275101D01*
Y277100D01*
X111503Y278100D01*
X113502D01*
X114502Y277100D01*
X108504Y273102D02*
X107504Y272102D01*
X105505D01*
X104505Y273102D01*
Y277100D01*
X105505Y278100D01*
X107504D01*
X108504Y277100D01*
Y273102D01*
X121900Y228700D02*
Y222702D01*
X118901D01*
X117901Y223702D01*
Y225701D01*
X118901Y226701D01*
X121900D01*
X119901D02*
X117901Y228700D01*
X111903Y222702D02*
X115902D01*
Y225701D01*
X113903Y224701D01*
X112903D01*
X111903Y225701D01*
Y227700D01*
X112903Y228700D01*
X114902D01*
X115902Y227700D01*
X109904Y228700D02*
X107905D01*
X108904D01*
Y222702D01*
X109904Y223702D01*
X121600Y219900D02*
Y213902D01*
X118601D01*
X117601Y214902D01*
Y216901D01*
X118601Y217901D01*
X121600D01*
X119601D02*
X117601Y219900D01*
X111603Y213902D02*
X115602D01*
Y216901D01*
X113603Y215901D01*
X112603D01*
X111603Y216901D01*
Y218900D01*
X112603Y219900D01*
X114602D01*
X115602Y218900D01*
X105605Y219900D02*
X109604D01*
X105605Y215901D01*
Y214902D01*
X106605Y213902D01*
X108604D01*
X109604Y214902D01*
X122200Y167800D02*
Y161802D01*
X119201D01*
X118201Y162802D01*
Y164801D01*
X119201Y165801D01*
X122200D01*
X120201D02*
X118201Y167800D01*
X112203Y161802D02*
X116202D01*
Y164801D01*
X114203Y163801D01*
X113203D01*
X112203Y164801D01*
Y166800D01*
X113203Y167800D01*
X115202D01*
X116202Y166800D01*
X110204Y162802D02*
X109204Y161802D01*
X107205D01*
X106205Y162802D01*
Y163801D01*
X107205Y164801D01*
X108204D01*
X107205D01*
X106205Y165801D01*
Y166800D01*
X107205Y167800D01*
X109204D01*
X110204Y166800D01*
X121000Y157800D02*
Y151802D01*
X118001D01*
X117001Y152802D01*
Y154801D01*
X118001Y155801D01*
X121000D01*
X119001D02*
X117001Y157800D01*
X111003Y151802D02*
X115002D01*
Y154801D01*
X113003Y153801D01*
X112003D01*
X111003Y154801D01*
Y156800D01*
X112003Y157800D01*
X114002D01*
X115002Y156800D01*
X106005Y157800D02*
Y151802D01*
X109004Y154801D01*
X105005D01*
X103600Y132400D02*
Y126402D01*
X100601D01*
X99601Y127402D01*
Y129401D01*
X100601Y130401D01*
X103600D01*
X101601D02*
X99601Y132400D01*
X93603Y126402D02*
X97602D01*
Y132400D01*
X93603D01*
X97602Y129401D02*
X95603D01*
X87605Y127402D02*
X88605Y126402D01*
X90604D01*
X91604Y127402D01*
Y131400D01*
X90604Y132400D01*
X88605D01*
X87605Y131400D01*
Y129401D01*
X89605D01*
X85606Y133400D02*
X81607D01*
X79608Y132400D02*
X77608D01*
X78608D01*
Y126402D01*
X79608Y127402D01*
X74609Y126402D02*
Y130401D01*
X72610Y132400D01*
X70611Y130401D01*
Y126402D01*
X68611Y127402D02*
X67612Y126402D01*
X65612D01*
X64613Y127402D01*
Y128401D01*
X65612Y129401D01*
X64613Y130401D01*
Y131400D01*
X65612Y132400D01*
X67612D01*
X68611Y131400D01*
Y130401D01*
X67612Y129401D01*
X68611Y128401D01*
Y127402D01*
X67612Y129401D02*
X65612D01*
X105300Y254500D02*
Y248502D01*
X102301D01*
X101301Y249502D01*
Y251501D01*
X102301Y252501D01*
X105300D01*
X103301D02*
X101301Y254500D01*
X95303Y248502D02*
X99302D01*
Y254500D01*
X95303D01*
X99302Y251501D02*
X97303D01*
X89305Y249502D02*
X90305Y248502D01*
X92304D01*
X93304Y249502D01*
Y253500D01*
X92304Y254500D01*
X90305D01*
X89305Y253500D01*
Y251501D01*
X91304D01*
X87306Y255500D02*
X83307D01*
X81308Y249502D02*
X80308Y248502D01*
X78309D01*
X77309Y249502D01*
Y250501D01*
X78309Y251501D01*
X79308D01*
X78309D01*
X77309Y252501D01*
Y253500D01*
X78309Y254500D01*
X80308D01*
X81308Y253500D01*
X75310Y248502D02*
Y252501D01*
X73310Y254500D01*
X71311Y252501D01*
Y248502D01*
X69312Y249502D02*
X68312Y248502D01*
X66313D01*
X65313Y249502D01*
Y250501D01*
X66313Y251501D01*
X67312D01*
X66313D01*
X65313Y252501D01*
Y253500D01*
X66313Y254500D01*
X68312D01*
X69312Y253500D01*
X101400Y195600D02*
Y189602D01*
X98401D01*
X97401Y190602D01*
Y192601D01*
X98401Y193601D01*
X101400D01*
X99401D02*
X97401Y195600D01*
X91403Y189602D02*
X95402D01*
Y195600D01*
X91403D01*
X95402Y192601D02*
X93403D01*
X85405Y190602D02*
X86405Y189602D01*
X88404D01*
X89404Y190602D01*
Y194600D01*
X88404Y195600D01*
X86405D01*
X85405Y194600D01*
Y192601D01*
X87405D01*
X83406Y196600D02*
X79407D01*
X77408Y190602D02*
X76408Y189602D01*
X74409D01*
X73409Y190602D01*
Y191601D01*
X74409Y192601D01*
X75408D01*
X74409D01*
X73409Y193601D01*
Y194600D01*
X74409Y195600D01*
X76408D01*
X77408Y194600D01*
X71410Y189602D02*
Y193601D01*
X69410Y195600D01*
X67411Y193601D01*
Y189602D01*
X106500Y314700D02*
Y308702D01*
X103501D01*
X102501Y309702D01*
Y311701D01*
X103501Y312701D01*
X106500D01*
X104501D02*
X102501Y314700D01*
X96503Y308702D02*
X100502D01*
Y314700D01*
X96503D01*
X100502Y311701D02*
X98503D01*
X90505Y309702D02*
X91505Y308702D01*
X93504D01*
X94504Y309702D01*
Y313700D01*
X93504Y314700D01*
X91505D01*
X90505Y313700D01*
Y311701D01*
X92505D01*
X88506Y315700D02*
X84507D01*
X78509Y308702D02*
X82508D01*
Y311701D01*
X80508Y310701D01*
X79509D01*
X78509Y311701D01*
Y313700D01*
X79509Y314700D01*
X81508D01*
X82508Y313700D01*
X76510Y308702D02*
Y312701D01*
X74510Y314700D01*
X72511Y312701D01*
Y308702D01*
X104301Y424602D02*
X105301Y423602D01*
X107300D01*
X108300Y424602D01*
Y428600D01*
X107300Y429600D01*
X105301D01*
X104301Y428600D01*
X102302Y423602D02*
X98303D01*
Y424602D01*
X102302Y428600D01*
Y429600D01*
X96304Y428600D02*
X95304Y429600D01*
X93305D01*
X92305Y428600D01*
Y424602D01*
X93305Y423602D01*
X95304D01*
X96304Y424602D01*
Y425601D01*
X95304Y426601D01*
X92305D01*
X574101Y499502D02*
X575101Y498502D01*
X577100D01*
X578100Y499502D01*
Y503500D01*
X577100Y504500D01*
X575101D01*
X574101Y503500D01*
X572102D02*
X571102Y504500D01*
X569103D01*
X568103Y503500D01*
Y499502D01*
X569103Y498502D01*
X571102D01*
X572102Y499502D01*
Y500501D01*
X571102Y501501D01*
X568103D01*
X566104Y503500D02*
X565104Y504500D01*
X563105D01*
X562105Y503500D01*
Y499502D01*
X563105Y498502D01*
X565104D01*
X566104Y499502D01*
Y500501D01*
X565104Y501501D01*
X562105D01*
X518101Y450202D02*
X519101Y449202D01*
X521100D01*
X522100Y450202D01*
Y454200D01*
X521100Y455200D01*
X519101D01*
X518101Y454200D01*
X516102Y455200D02*
X514103D01*
X515102D01*
Y449202D01*
X516102Y450202D01*
X511104D02*
X510104Y449202D01*
X508105D01*
X507105Y450202D01*
Y454200D01*
X508105Y455200D01*
X510104D01*
X511104Y454200D01*
Y450202D01*
X505105D02*
X504106Y449202D01*
X502107D01*
X501107Y450202D01*
Y454200D01*
X502107Y455200D01*
X504106D01*
X505105Y454200D01*
Y450202D01*
X515701Y375302D02*
X516701Y374302D01*
X518700D01*
X519700Y375302D01*
Y379300D01*
X518700Y380300D01*
X516701D01*
X515701Y379300D01*
X513702Y380300D02*
X511703D01*
X512702D01*
Y374302D01*
X513702Y375302D01*
X508704D02*
X507704Y374302D01*
X505704D01*
X504705Y375302D01*
Y379300D01*
X505704Y380300D01*
X507704D01*
X508704Y379300D01*
Y375302D01*
X499707Y380300D02*
Y374302D01*
X502705Y377301D01*
X498707D01*
X438002Y478000D02*
X437002Y479000D01*
Y480999D01*
X438002Y481999D01*
X442000D01*
X443000Y480999D01*
Y479000D01*
X442000Y478000D01*
X438002D01*
X443000Y449000D02*
Y450999D01*
Y450000D01*
X437002D01*
X438002Y449000D01*
X433000Y481999D02*
Y478000D01*
X429001Y481999D01*
X428002D01*
X427002Y480999D01*
Y479000D01*
X428002Y478000D01*
Y448000D02*
X427002Y449000D01*
Y450999D01*
X428002Y451999D01*
X429001D01*
X430001Y450999D01*
Y449999D01*
Y450999D01*
X431001Y451999D01*
X432000D01*
X433000Y450999D01*
Y449000D01*
X432000Y448000D01*
X423000Y480999D02*
X417002D01*
X420001Y478000D01*
Y481999D01*
X417002Y451999D02*
Y448000D01*
X420001D01*
X419001Y449999D01*
Y450999D01*
X420001Y451999D01*
X422000D01*
X423000Y450999D01*
Y449000D01*
X422000Y448000D01*
X407002Y481999D02*
X408002Y479999D01*
X410001Y478000D01*
X412000D01*
X413000Y479000D01*
Y480999D01*
X412000Y481999D01*
X411001D01*
X410001Y480999D01*
Y478000D01*
X407002Y448000D02*
Y451999D01*
X408002D01*
X412000Y448000D01*
X413000D01*
X398002Y478000D02*
X397002Y479000D01*
Y480999D01*
X398002Y481999D01*
X399001D01*
X400001Y480999D01*
X401001Y481999D01*
X402000D01*
X403000Y480999D01*
Y479000D01*
X402000Y478000D01*
X401001D01*
X400001Y479000D01*
X399001Y478000D01*
X398002D01*
X400001Y479000D02*
Y480999D01*
X402000Y448000D02*
X403000Y449000D01*
Y450999D01*
X402000Y451999D01*
X398002D01*
X397002Y450999D01*
Y449000D01*
X398002Y448000D01*
X399001D01*
X400001Y449000D01*
Y451999D01*
X393000Y477000D02*
Y478999D01*
Y478000D01*
X387002D01*
X388002Y477000D01*
Y481998D02*
X387002Y482998D01*
Y484997D01*
X388002Y485997D01*
X392000D01*
X393000Y484997D01*
Y482998D01*
X392000Y481998D01*
X388002D01*
X393000Y445000D02*
Y446999D01*
Y446000D01*
X387002D01*
X388002Y445000D01*
X393000Y449998D02*
Y451998D01*
Y450998D01*
X387002D01*
X388002Y449998D01*
X383000Y477000D02*
Y478999D01*
Y478000D01*
X377002D01*
X378002Y477000D01*
X383000Y485997D02*
Y481998D01*
X379001Y485997D01*
X378002D01*
X377002Y484997D01*
Y482998D01*
X378002Y481998D01*
X383000Y443000D02*
Y444999D01*
Y444000D01*
X377002D01*
X378002Y443000D01*
Y447998D02*
X377002Y448998D01*
Y450997D01*
X378002Y451997D01*
X379001D01*
X380001Y450997D01*
Y449998D01*
Y450997D01*
X381001Y451997D01*
X382000D01*
X383000Y450997D01*
Y448998D01*
X382000Y447998D01*
X373000Y477000D02*
Y478999D01*
Y478000D01*
X367002D01*
X368002Y477000D01*
X373000Y484997D02*
X367002D01*
X370001Y481998D01*
Y485997D01*
X373000Y443000D02*
Y444999D01*
Y444000D01*
X367002D01*
X368002Y443000D01*
X367002Y451997D02*
Y447998D01*
X370001D01*
X369001Y449998D01*
Y450997D01*
X370001Y451997D01*
X372000D01*
X373000Y450997D01*
Y448998D01*
X372000Y447998D01*
X341002Y459000D02*
X340002Y460000D01*
Y461999D01*
X341002Y462999D01*
X345000D01*
X346000Y461999D01*
Y460000D01*
X345000Y459000D01*
X341002D01*
X346000Y489000D02*
Y490999D01*
Y490000D01*
X340002D01*
X341002Y489000D01*
X336000Y462999D02*
Y459000D01*
X332001Y462999D01*
X331002D01*
X330002Y461999D01*
Y460000D01*
X331002Y459000D01*
Y488000D02*
X330002Y489000D01*
Y490999D01*
X331002Y491999D01*
X332001D01*
X333001Y490999D01*
Y489999D01*
Y490999D01*
X334001Y491999D01*
X335000D01*
X336000Y490999D01*
Y489000D01*
X335000Y488000D01*
X326000Y461999D02*
X320002D01*
X323001Y459000D01*
Y462999D01*
X320002Y491499D02*
Y487500D01*
X323001D01*
X322001Y489499D01*
Y490499D01*
X323001Y491499D01*
X325000D01*
X326000Y490499D01*
Y488500D01*
X325000Y487500D01*
X310002Y462999D02*
X311002Y460999D01*
X313001Y459000D01*
X315000D01*
X316000Y460000D01*
Y461999D01*
X315000Y462999D01*
X314001D01*
X313001Y461999D01*
Y459000D01*
X310002Y487500D02*
Y491499D01*
X311002D01*
X315000Y487500D01*
X316000D01*
X351002Y475599D02*
X350002Y474599D01*
Y472600D01*
X351002Y471600D01*
X355000D01*
X356000Y472600D01*
Y474599D01*
X355000Y475599D01*
X351002Y481597D02*
X350002Y480597D01*
Y478598D01*
X351002Y477598D01*
X352001D01*
X353001Y478598D01*
Y480597D01*
X354001Y481597D01*
X355000D01*
X356000Y480597D01*
Y478598D01*
X355000Y477598D01*
X456000Y446000D02*
X452001D01*
X450002Y447999D01*
X452001Y449999D01*
X456000D01*
X453001D01*
Y446000D01*
X450002Y455997D02*
X456000D01*
Y452998D01*
X455000Y451998D01*
X453001D01*
X452001Y452998D01*
Y455997D01*
X450002Y461995D02*
X456000D01*
Y458996D01*
X455000Y457996D01*
X453001D01*
X452001Y458996D01*
Y461995D01*
Y463994D02*
X456000D01*
X454001D01*
X453001Y464994D01*
X452001Y465993D01*
Y466993D01*
X456000Y472991D02*
Y470992D01*
X455000Y469992D01*
X453001D01*
X452001Y470992D01*
Y472991D01*
X453001Y473991D01*
X454001D01*
Y469992D01*
X456000Y475990D02*
Y478989D01*
X455000Y479989D01*
X454001Y478989D01*
Y476990D01*
X453001Y475990D01*
X452001Y476990D01*
Y479989D01*
X456000Y481988D02*
Y484987D01*
X455000Y485987D01*
X454001Y484987D01*
Y482988D01*
X453001Y481988D01*
X452001Y482988D01*
Y485987D01*
X324302Y499200D02*
X330300D01*
Y502199D01*
X329300Y503199D01*
X325302D01*
X324302Y502199D01*
Y499200D01*
X326301Y506198D02*
Y508197D01*
X327301Y509197D01*
X330300D01*
Y506198D01*
X329300Y505198D01*
X328301Y506198D01*
Y509197D01*
X325302Y512196D02*
X326301D01*
Y511196D01*
Y513196D01*
Y512196D01*
X329300D01*
X330300Y513196D01*
X326301Y517194D02*
Y519194D01*
X327301Y520193D01*
X330300D01*
Y517194D01*
X329300Y516194D01*
X328301Y517194D01*
Y520193D01*
X250000Y522000D02*
Y523999D01*
Y523000D01*
X244002D01*
X245002Y522000D01*
X244002Y530997D02*
Y526998D01*
X247001D01*
X246001Y528998D01*
Y529997D01*
X247001Y530997D01*
X249000D01*
X250000Y529997D01*
Y527998D01*
X249000Y526998D01*
X250000Y488000D02*
Y489999D01*
Y489000D01*
X244002D01*
X245002Y488000D01*
X250000Y495997D02*
X244002D01*
X247001Y492998D01*
Y496997D01*
X260000Y522000D02*
Y523999D01*
Y523000D01*
X254002D01*
X255002Y522000D01*
Y526998D02*
X254002Y527998D01*
Y529997D01*
X255002Y530997D01*
X256001D01*
X257001Y529997D01*
Y528998D01*
Y529997D01*
X258001Y530997D01*
X259000D01*
X260000Y529997D01*
Y527998D01*
X259000Y526998D01*
X260000Y488000D02*
Y489999D01*
Y489000D01*
X254002D01*
X255002Y488000D01*
X260000Y496997D02*
Y492998D01*
X256001Y496997D01*
X255002D01*
X254002Y495997D01*
Y493998D01*
X255002Y492998D01*
X270000Y522000D02*
Y523999D01*
Y523000D01*
X264002D01*
X265002Y522000D01*
X270000Y526998D02*
Y528998D01*
Y527998D01*
X264002D01*
X265002Y526998D01*
X270000Y488000D02*
Y489999D01*
Y489000D01*
X264002D01*
X265002Y488000D01*
Y492998D02*
X264002Y493998D01*
Y495997D01*
X265002Y496997D01*
X269000D01*
X270000Y495997D01*
Y493998D01*
X269000Y492998D01*
X265002D01*
X279000Y522000D02*
X280000Y523000D01*
Y524999D01*
X279000Y525999D01*
X275002D01*
X274002Y524999D01*
Y523000D01*
X275002Y522000D01*
X276001D01*
X277001Y523000D01*
Y525999D01*
X275002Y493000D02*
X274002Y494000D01*
Y495999D01*
X275002Y496999D01*
X276001D01*
X277001Y495999D01*
X278001Y496999D01*
X279000D01*
X280000Y495999D01*
Y494000D01*
X279000Y493000D01*
X278001D01*
X277001Y494000D01*
X276001Y493000D01*
X275002D01*
X277001Y494000D02*
Y495999D01*
X284002Y522000D02*
Y525999D01*
X285002D01*
X289000Y522000D01*
X290000D01*
X284002Y496999D02*
X285002Y494999D01*
X287001Y493000D01*
X289000D01*
X290000Y494000D01*
Y495999D01*
X289000Y496999D01*
X288001D01*
X287001Y495999D01*
Y493000D01*
X294002Y525999D02*
Y522000D01*
X297001D01*
X296001Y523999D01*
Y524999D01*
X297001Y525999D01*
X299000D01*
X300000Y524999D01*
Y523000D01*
X299000Y522000D01*
X300000Y495999D02*
X294002D01*
X297001Y493000D01*
Y496999D01*
X305002Y522000D02*
X304002Y523000D01*
Y524999D01*
X305002Y525999D01*
X306001D01*
X307001Y524999D01*
Y523999D01*
Y524999D01*
X308001Y525999D01*
X309000D01*
X310000Y524999D01*
Y523000D01*
X309000Y522000D01*
X310000Y497999D02*
Y494000D01*
X306001Y497999D01*
X305002D01*
X304002Y496999D01*
Y495000D01*
X305002Y494000D01*
X320000Y523000D02*
Y524999D01*
Y524000D01*
X314002D01*
X315002Y523000D01*
Y494000D02*
X314002Y495000D01*
Y496999D01*
X315002Y497999D01*
X319000D01*
X320000Y496999D01*
Y495000D01*
X319000Y494000D01*
X315002D01*
X565601Y71002D02*
X569600D01*
Y74001D01*
X567601Y73001D01*
X566601D01*
X565601Y74001D01*
Y76000D01*
X566601Y77000D01*
X568600D01*
X569600Y76000D01*
X563602Y71002D02*
Y75001D01*
X561603Y77000D01*
X559603Y75001D01*
Y71002D01*
X494901Y410502D02*
X498900D01*
Y413501D01*
X496901Y412501D01*
X495901D01*
X494901Y413501D01*
Y415500D01*
X495901Y416500D01*
X497900D01*
X498900Y415500D01*
X492902Y410502D02*
Y414501D01*
X490903Y416500D01*
X488903Y414501D01*
Y410502D01*
X190601Y162902D02*
X191601Y161902D01*
X193600D01*
X194600Y162902D01*
Y166900D01*
X193600Y167900D01*
X191601D01*
X190601Y166900D01*
Y164901D01*
X192601D01*
X188602Y167900D02*
Y161902D01*
X184603Y167900D01*
Y161902D01*
X182604D02*
Y167900D01*
X179605D01*
X178605Y166900D01*
Y162902D01*
X179605Y161902D01*
X182604D01*
X23700Y130500D02*
X21701D01*
X22700D01*
Y124502D01*
X23700Y125502D01*
X14703Y130500D02*
X18702D01*
X14703Y126501D01*
Y125502D01*
X15703Y124502D01*
X17702D01*
X18702Y125502D01*
X12704Y124502D02*
Y128501D01*
X10704Y130500D01*
X8705Y128501D01*
Y124502D01*
X19501Y114702D02*
X23500D01*
Y117701D01*
X21501Y116701D01*
X20501D01*
X19501Y117701D01*
Y119700D01*
X20501Y120700D01*
X22500D01*
X23500Y119700D01*
X17502Y114702D02*
Y118701D01*
X15503Y120700D01*
X13503Y118701D01*
Y114702D01*
X24200Y105702D02*
X23200Y104702D01*
X21201D01*
X20201Y105702D01*
Y106701D01*
X21201Y107701D01*
X22201D01*
X21201D01*
X20201Y108701D01*
Y109700D01*
X21201Y110700D01*
X23200D01*
X24200Y109700D01*
X18202Y104702D02*
Y108701D01*
X16203Y110700D01*
X14203Y108701D01*
Y104702D01*
X12204Y105702D02*
X11204Y104702D01*
X9205D01*
X8205Y105702D01*
Y106701D01*
X9205Y107701D01*
X10204D01*
X9205D01*
X8205Y108701D01*
Y109700D01*
X9205Y110700D01*
X11204D01*
X12204Y109700D01*
X24000Y95402D02*
X23000Y94402D01*
X21001D01*
X20001Y95402D01*
Y96401D01*
X21001Y97401D01*
X22001D01*
X21001D01*
X20001Y98401D01*
Y99400D01*
X21001Y100400D01*
X23000D01*
X24000Y99400D01*
X18002Y94402D02*
Y98401D01*
X16003Y100400D01*
X14003Y98401D01*
Y94402D01*
X23900Y90500D02*
X21901D01*
X22900D01*
Y84502D01*
X23900Y85502D01*
X18902Y84502D02*
Y88501D01*
X16902Y90500D01*
X14903Y88501D01*
Y84502D01*
X12904Y85502D02*
X11904Y84502D01*
X9905D01*
X8905Y85502D01*
Y86501D01*
X9905Y87501D01*
X8905Y88501D01*
Y89500D01*
X9905Y90500D01*
X11904D01*
X12904Y89500D01*
Y88501D01*
X11904Y87501D01*
X12904Y86501D01*
Y85502D01*
X11904Y87501D02*
X9905D01*
X20101Y75502D02*
X21101Y74502D01*
X23100D01*
X24100Y75502D01*
Y79500D01*
X23100Y80500D01*
X21101D01*
X20101Y79500D01*
Y77501D01*
X22101D01*
X18102Y80500D02*
Y74502D01*
X14103Y80500D01*
Y74502D01*
X12104D02*
Y80500D01*
X9105D01*
X8105Y79500D01*
Y75502D01*
X9105Y74502D01*
X12104D01*
X559701Y273702D02*
X560701Y272702D01*
X562700D01*
X563700Y273702D01*
Y277700D01*
X562700Y278700D01*
X560701D01*
X559701Y277700D01*
Y275701D01*
X561701D01*
X557702Y278700D02*
Y272702D01*
X553703Y278700D01*
Y272702D01*
X551704D02*
Y278700D01*
X548705D01*
X547705Y277700D01*
Y273702D01*
X548705Y272702D01*
X551704D01*
X481801Y429702D02*
X482801Y428702D01*
X484800D01*
X485800Y429702D01*
Y433700D01*
X484800Y434700D01*
X482801D01*
X481801Y433700D01*
Y431701D01*
X483801D01*
X479802Y434700D02*
Y428702D01*
X475803Y434700D01*
Y428702D01*
X473804D02*
Y434700D01*
X470805D01*
X469805Y433700D01*
Y429702D01*
X470805Y428702D01*
X473804D01*
X234501Y470102D02*
X235501Y469102D01*
X237500D01*
X238500Y470102D01*
Y474100D01*
X237500Y475100D01*
X235501D01*
X234501Y474100D01*
Y472101D01*
X236501D01*
X232502Y475100D02*
Y469102D01*
X228503Y475100D01*
Y469102D01*
X226504D02*
Y475100D01*
X223505D01*
X222505Y474100D01*
Y470102D01*
X223505Y469102D01*
X226504D01*
X121300Y13800D02*
Y7802D01*
X118301D01*
X117301Y8802D01*
Y10801D01*
X118301Y11801D01*
X121300D01*
X115302Y7802D02*
Y13800D01*
X113303Y11801D01*
X111303Y13800D01*
Y7802D01*
X109304Y13800D02*
Y7802D01*
X106305D01*
X105305Y8802D01*
Y10801D01*
X106305Y11801D01*
X109304D01*
X107305D02*
X105305Y13800D01*
X80966Y9999D02*
X78300D01*
Y7999D01*
X79633D01*
X78300D01*
Y6000D01*
X82965Y8666D02*
X84298D01*
X84965Y7999D01*
Y6000D01*
X82965D01*
X82299Y6667D01*
X82965Y7333D01*
X84965D01*
X88963Y8666D02*
X86964D01*
X86297Y7999D01*
Y6667D01*
X86964Y6000D01*
X88963D01*
X92295D02*
X90963D01*
X90296Y6667D01*
Y7999D01*
X90963Y8666D01*
X92295D01*
X92962Y7999D01*
Y7333D01*
X90296D01*
X594801Y613702D02*
X595801Y612702D01*
X597800D01*
X598800Y613702D01*
Y617700D01*
X597800Y618700D01*
X595801D01*
X594801Y617700D01*
Y615701D01*
X596801D01*
X592802Y618700D02*
Y612702D01*
X588803Y618700D01*
Y612702D01*
X586804D02*
Y618700D01*
X583805D01*
X582805Y617700D01*
Y613702D01*
X583805Y612702D01*
X586804D01*
X598800Y603702D02*
X597800Y602702D01*
X595801D01*
X594801Y603702D01*
Y604701D01*
X595801Y605701D01*
X596801D01*
X595801D01*
X594801Y606701D01*
Y607700D01*
X595801Y608700D01*
X597800D01*
X598800Y607700D01*
X592802Y602702D02*
Y606701D01*
X590803Y608700D01*
X588803Y606701D01*
Y602702D01*
X586804Y603702D02*
X585804Y602702D01*
X583805D01*
X582805Y603702D01*
Y604701D01*
X583805Y605701D01*
X584804D01*
X583805D01*
X582805Y606701D01*
Y607700D01*
X583805Y608700D01*
X585804D01*
X586804Y607700D01*
X594801Y593702D02*
X598800D01*
Y596701D01*
X596801Y595701D01*
X595801D01*
X594801Y596701D01*
Y598700D01*
X595801Y599700D01*
X597800D01*
X598800Y598700D01*
X592802Y593702D02*
Y597701D01*
X590803Y599700D01*
X588803Y597701D01*
Y593702D01*
X419501Y99902D02*
X421501D01*
X420501D01*
Y104900D01*
X421501Y105900D01*
X422500D01*
X423500Y104900D01*
X417502Y99902D02*
X413503D01*
X415503D01*
Y105900D01*
X411504D02*
Y101901D01*
X409505Y99902D01*
X407505Y101901D01*
Y105900D01*
Y102901D01*
X411504D01*
X401507Y100902D02*
X402507Y99902D01*
X404506D01*
X405506Y100902D01*
Y104900D01*
X404506Y105900D01*
X402507D01*
X401507Y104900D01*
Y102901D01*
X403507D01*
X499202Y129800D02*
X498202Y130800D01*
Y132799D01*
X499202Y133799D01*
X500201D01*
X501201Y132799D01*
Y131799D01*
Y132799D01*
X502201Y133799D01*
X503200D01*
X504200Y132799D01*
Y130800D01*
X503200Y129800D01*
X498202Y135798D02*
X502201D01*
X504200Y137797D01*
X502201Y139797D01*
X498202D01*
X499202Y141796D02*
X498202Y142796D01*
Y144795D01*
X499202Y145795D01*
X500201D01*
X501201Y144795D01*
Y143796D01*
Y144795D01*
X502201Y145795D01*
X503200D01*
X504200Y144795D01*
Y142796D01*
X503200Y141796D01*
X479102Y94199D02*
X478102Y93199D01*
Y91200D01*
X479102Y90200D01*
X483100D01*
X484100Y91200D01*
Y93199D01*
X483100Y94199D01*
X481101D01*
Y92199D01*
X484100Y96198D02*
X478102D01*
X484100Y100197D01*
X478102D01*
Y102196D02*
X484100D01*
Y105195D01*
X483100Y106195D01*
X479102D01*
X478102Y105195D01*
Y102196D01*
X468902Y94399D02*
X467902Y93399D01*
Y91400D01*
X468902Y90400D01*
X472900D01*
X473900Y91400D01*
Y93399D01*
X472900Y94399D01*
X470901D01*
Y92399D01*
X473900Y96398D02*
X467902D01*
X473900Y100397D01*
X467902D01*
Y102396D02*
X473900D01*
Y105395D01*
X472900Y106395D01*
X468902D01*
X467902Y105395D01*
Y102396D01*
X458602Y94299D02*
X457602Y93299D01*
Y91300D01*
X458602Y90300D01*
X462600D01*
X463600Y91300D01*
Y93299D01*
X462600Y94299D01*
X460601D01*
Y92299D01*
X463600Y96298D02*
X457602D01*
X463600Y100297D01*
X457602D01*
Y102296D02*
X463600D01*
Y105295D01*
X462600Y106295D01*
X458602D01*
X457602Y105295D01*
Y102296D01*
X448702Y94199D02*
X447702Y93199D01*
Y91200D01*
X448702Y90200D01*
X452700D01*
X453700Y91200D01*
Y93199D01*
X452700Y94199D01*
X450701D01*
Y92199D01*
X453700Y96198D02*
X447702D01*
X453700Y100197D01*
X447702D01*
Y102196D02*
X453700D01*
Y105195D01*
X452700Y106195D01*
X448702D01*
X447702Y105195D01*
Y102196D01*
X478002Y130000D02*
Y133999D01*
Y131999D01*
X484000D01*
X478002Y135998D02*
X484000D01*
Y138997D01*
X483000Y139997D01*
X479002D01*
X478002Y138997D01*
Y135998D01*
Y141996D02*
Y143995D01*
Y142996D01*
X484000D01*
Y141996D01*
Y143995D01*
X468002Y130000D02*
Y133999D01*
Y131999D01*
X474000D01*
Y135998D02*
X468002D01*
X470001Y137997D01*
X468002Y139997D01*
X474000D01*
X469002Y145995D02*
X468002Y144995D01*
Y142996D01*
X469002Y141996D01*
X470001D01*
X471001Y142996D01*
Y144995D01*
X472001Y145995D01*
X473000D01*
X474000Y144995D01*
Y142996D01*
X473000Y141996D01*
X458002Y130000D02*
Y133999D01*
Y131999D01*
X464000D01*
X459002Y139997D02*
X458002Y138997D01*
Y136998D01*
X459002Y135998D01*
X463000D01*
X464000Y136998D01*
Y138997D01*
X463000Y139997D01*
X458002Y141996D02*
X464000D01*
X462001D01*
X458002Y145995D01*
X461001Y142996D01*
X464000Y145995D01*
X438002Y130000D02*
Y133999D01*
Y131999D01*
X444000D01*
X438002Y135998D02*
X444000D01*
Y138997D01*
X443000Y139997D01*
X439002D01*
X438002Y138997D01*
Y135998D01*
Y144995D02*
Y142996D01*
X439002Y141996D01*
X443000D01*
X444000Y142996D01*
Y144995D01*
X443000Y145995D01*
X439002D01*
X438002Y144995D01*
D32*
X376304Y567388D02*
G03*
X376304Y572900I0J2756D01*
G01*
X488800Y178700D02*
Y253700D01*
X483800Y173700D02*
X488800Y178700D01*
X408800Y253700D02*
X488800D01*
X408800Y173700D02*
X483800D01*
X408800D02*
Y253700D01*
X516200Y599600D02*
X521200Y594600D01*
Y539600D02*
Y594600D01*
X451200Y599600D02*
X516200D01*
X451200Y539600D02*
X521200D01*
X451200D02*
Y599600D01*
X446304Y550900D02*
Y588900D01*
X376335Y588896D02*
X446304Y588900D01*
X376304Y572900D02*
Y588900D01*
Y550900D02*
X446304D01*
X376304D02*
Y567388D01*
X336187Y66368D02*
X336854Y65701D01*
X338186D01*
X338853Y66368D01*
Y69034D01*
X338186Y69700D01*
X336854D01*
X336187Y69034D01*
X334854Y66368D02*
X334188Y65701D01*
X332855D01*
X332188Y66368D01*
Y67034D01*
X332855Y67701D01*
X332188Y68367D01*
Y69034D01*
X332855Y69700D01*
X334188D01*
X334854Y69034D01*
Y68367D01*
X334188Y67701D01*
X334854Y67034D01*
Y66368D01*
X334188Y67701D02*
X332855D01*
X328190Y65701D02*
X329522Y66368D01*
X330855Y67701D01*
Y69034D01*
X330189Y69700D01*
X328856D01*
X328190Y69034D01*
Y68367D01*
X328856Y67701D01*
X330855D01*
X214268Y304466D02*
X213601Y303799D01*
Y302466D01*
X214268Y301800D01*
X216934D01*
X217600Y302466D01*
Y303799D01*
X216934Y304466D01*
X217600Y305799D02*
Y307132D01*
Y306465D01*
X213601D01*
X214268Y305799D01*
X216934Y309131D02*
X217600Y309797D01*
Y311130D01*
X216934Y311797D01*
X214268D01*
X213601Y311130D01*
Y309797D01*
X214268Y309131D01*
X214934D01*
X215601Y309797D01*
Y311797D01*
X199134Y274368D02*
X199801Y273701D01*
X201133D01*
X201800Y274368D01*
Y277034D01*
X201133Y277700D01*
X199801D01*
X199134Y277034D01*
X195135Y277700D02*
X197801D01*
X195135Y275034D01*
Y274368D01*
X195802Y273701D01*
X197135D01*
X197801Y274368D01*
X193803D02*
X193136Y273701D01*
X191803D01*
X191137Y274368D01*
Y275034D01*
X191803Y275701D01*
X192470D01*
X191803D01*
X191137Y276367D01*
Y277034D01*
X191803Y277700D01*
X193136D01*
X193803Y277034D01*
X183568Y305666D02*
X182901Y304999D01*
Y303666D01*
X183568Y303000D01*
X186233D01*
X186900Y303666D01*
Y304999D01*
X186233Y305666D01*
X186900Y309665D02*
Y306999D01*
X184234Y309665D01*
X183568D01*
X182901Y308998D01*
Y307665D01*
X183568Y306999D01*
X182901Y310997D02*
Y313663D01*
X183568D01*
X186233Y310997D01*
X186900D01*
X207168Y276222D02*
X206501Y275555D01*
Y274222D01*
X207168Y273556D01*
X209834D01*
X210500Y274222D01*
Y275555D01*
X209834Y276222D01*
X210500Y280221D02*
Y277555D01*
X207834Y280221D01*
X207168D01*
X206501Y279554D01*
Y278221D01*
X207168Y277555D01*
Y281553D02*
X206501Y282220D01*
Y283553D01*
X207168Y284219D01*
X207834D01*
X208501Y283553D01*
X209167Y284219D01*
X209834D01*
X210500Y283553D01*
Y282220D01*
X209834Y281553D01*
X209167D01*
X208501Y282220D01*
X207834Y281553D01*
X207168D01*
X208501Y282220D02*
Y283553D01*
X207168Y309066D02*
X206501Y308399D01*
Y307066D01*
X207168Y306400D01*
X209834D01*
X210500Y307066D01*
Y308399D01*
X209834Y309066D01*
X207168Y310399D02*
X206501Y311065D01*
Y312398D01*
X207168Y313065D01*
X207834D01*
X208501Y312398D01*
Y311732D01*
Y312398D01*
X209167Y313065D01*
X209834D01*
X210500Y312398D01*
Y311065D01*
X209834Y310399D01*
X207168Y314397D02*
X206501Y315064D01*
Y316397D01*
X207168Y317063D01*
X209834D01*
X210500Y316397D01*
Y315064D01*
X209834Y314397D01*
X207168D01*
X132234Y561868D02*
X132901Y561201D01*
X134233D01*
X134900Y561868D01*
Y564534D01*
X134233Y565200D01*
X132901D01*
X132234Y564534D01*
X128235Y561201D02*
X129568Y561868D01*
X130901Y563201D01*
Y564534D01*
X130235Y565200D01*
X128902D01*
X128235Y564534D01*
Y563867D01*
X128902Y563201D01*
X130901D01*
X124237Y565200D02*
X126903D01*
X124237Y562534D01*
Y561868D01*
X124903Y561201D01*
X126236D01*
X126903Y561868D01*
X175234Y561468D02*
X175901Y560801D01*
X177234D01*
X177900Y561468D01*
Y564134D01*
X177234Y564800D01*
X175901D01*
X175234Y564134D01*
X171236Y560801D02*
X172568Y561468D01*
X173901Y562801D01*
Y564134D01*
X173235Y564800D01*
X171902D01*
X171236Y564134D01*
Y563467D01*
X171902Y562801D01*
X173901D01*
X167903Y564800D02*
Y560801D01*
X169903Y562801D01*
X167237D01*
X134900Y573600D02*
Y569601D01*
X132901D01*
X132234Y570268D01*
Y571601D01*
X132901Y572267D01*
X134900D01*
X133567D02*
X132234Y573600D01*
X128235D02*
X130901D01*
X128235Y570934D01*
Y570268D01*
X128902Y569601D01*
X130235D01*
X130901Y570268D01*
X124903Y573600D02*
Y569601D01*
X126903Y571601D01*
X124237D01*
X177600Y547100D02*
Y543101D01*
X175601D01*
X174934Y543768D01*
Y545101D01*
X175601Y545767D01*
X177600D01*
X176267D02*
X174934Y547100D01*
X170935D02*
X173601D01*
X170935Y544434D01*
Y543768D01*
X171602Y543101D01*
X172935D01*
X173601Y543768D01*
X166937Y543101D02*
X169603D01*
Y545101D01*
X168270Y544434D01*
X167603D01*
X166937Y545101D01*
Y546434D01*
X167603Y547100D01*
X168936D01*
X169603Y546434D01*
X134900Y558500D02*
Y554501D01*
X132901D01*
X132234Y555168D01*
Y556501D01*
X132901Y557167D01*
X134900D01*
X133567D02*
X132234Y558500D01*
X128235D02*
X130901D01*
X128235Y555834D01*
Y555168D01*
X128902Y554501D01*
X130235D01*
X130901Y555168D01*
X124237Y554501D02*
X125570Y555168D01*
X126903Y556501D01*
Y557834D01*
X126236Y558500D01*
X124903D01*
X124237Y557834D01*
Y557167D01*
X124903Y556501D01*
X126903D01*
X134200Y550900D02*
Y546901D01*
X132201D01*
X131534Y547568D01*
Y548901D01*
X132201Y549567D01*
X134200D01*
X132867D02*
X131534Y550900D01*
X130201Y547568D02*
X129535Y546901D01*
X128202D01*
X127535Y547568D01*
Y548234D01*
X128202Y548901D01*
X128868D01*
X128202D01*
X127535Y549567D01*
Y550234D01*
X128202Y550900D01*
X129535D01*
X130201Y550234D01*
X126203Y550900D02*
X124870D01*
X125536D01*
Y546901D01*
X126203Y547568D01*
X177900Y555700D02*
Y551701D01*
X175901D01*
X175234Y552368D01*
Y553701D01*
X175901Y554367D01*
X177900D01*
X176567D02*
X175234Y555700D01*
X173901Y552368D02*
X173235Y551701D01*
X171902D01*
X171236Y552368D01*
Y553034D01*
X171902Y553701D01*
X172568D01*
X171902D01*
X171236Y554367D01*
Y555034D01*
X171902Y555700D01*
X173235D01*
X173901Y555034D01*
X167237Y555700D02*
X169903D01*
X167237Y553034D01*
Y552368D01*
X167903Y551701D01*
X169236D01*
X169903Y552368D01*
X178600Y573700D02*
Y569701D01*
X176601D01*
X175934Y570368D01*
Y571701D01*
X176601Y572367D01*
X178600D01*
X177267D02*
X175934Y573700D01*
X174601Y570368D02*
X173935Y569701D01*
X172602D01*
X171935Y570368D01*
Y571034D01*
X172602Y571701D01*
X173268D01*
X172602D01*
X171935Y572367D01*
Y573034D01*
X172602Y573700D01*
X173935D01*
X174601Y573034D01*
X170603Y570368D02*
X169936Y569701D01*
X168603D01*
X167937Y570368D01*
Y571034D01*
X168603Y571701D01*
X169270D01*
X168603D01*
X167937Y572367D01*
Y573034D01*
X168603Y573700D01*
X169936D01*
X170603Y573034D01*
X337253Y82400D02*
Y78401D01*
X335254D01*
X334587Y79068D01*
Y80401D01*
X335254Y81067D01*
X337253D01*
X335920D02*
X334587Y82400D01*
X331255D02*
Y78401D01*
X333254Y80401D01*
X330588D01*
X329255Y82400D02*
X327923D01*
X328589D01*
Y78401D01*
X329255Y79068D01*
X338253Y88600D02*
Y84601D01*
X336253D01*
X335587Y85268D01*
Y86601D01*
X336253Y87267D01*
X338253D01*
X336920D02*
X335587Y88600D01*
X332255D02*
Y84601D01*
X334254Y86601D01*
X331588D01*
X327590Y88600D02*
X330255D01*
X327590Y85934D01*
Y85268D01*
X328256Y84601D01*
X329589D01*
X330255Y85268D01*
X334787Y72968D02*
X335454Y72301D01*
X336786D01*
X337453Y72968D01*
Y75634D01*
X336786Y76300D01*
X335454D01*
X334787Y75634D01*
X333454Y72968D02*
X332788Y72301D01*
X331455D01*
X330788Y72968D01*
Y73634D01*
X331455Y74301D01*
X330788Y74967D01*
Y75634D01*
X331455Y76300D01*
X332788D01*
X333454Y75634D01*
Y74967D01*
X332788Y74301D01*
X333454Y73634D01*
Y72968D01*
X332788Y74301D02*
X331455D01*
X329455Y76300D02*
X328122D01*
X328789D01*
Y72301D01*
X329455Y72968D01*
X268000Y559001D02*
Y563000D01*
X265334D01*
X264001D02*
X262668D01*
X263335D01*
Y559001D01*
X264001Y559668D01*
X266200Y581701D02*
Y585700D01*
X263534D01*
X259536D02*
X262201D01*
X259536Y583034D01*
Y582368D01*
X260202Y581701D01*
X261535D01*
X262201Y582368D01*
X248434Y559668D02*
X249101Y559001D01*
X250434D01*
X251100Y559668D01*
Y562334D01*
X250434Y563000D01*
X249101D01*
X248434Y562334D01*
X247101Y559001D02*
X244436D01*
Y559668D01*
X247101Y562334D01*
Y563000D01*
X243103Y559668D02*
X242436Y559001D01*
X241103D01*
X240437Y559668D01*
Y560334D01*
X241103Y561001D01*
X241770D01*
X241103D01*
X240437Y561667D01*
Y562334D01*
X241103Y563000D01*
X242436D01*
X243103Y562334D01*
X511000Y125000D02*
X509334D01*
X510167D01*
Y120002D01*
X511000Y120835D01*
X507668Y115000D02*
X511000D01*
X507668Y111668D01*
Y110835D01*
X508501Y110002D01*
X510167D01*
X511000Y110835D01*
X405000Y125000D02*
X403334D01*
X404167D01*
Y120002D01*
X405000Y120835D01*
X400835Y124167D02*
X400002Y125000D01*
X398336D01*
X397502Y124167D01*
Y120835D01*
X398336Y120002D01*
X400002D01*
X400835Y120835D01*
Y121668D01*
X400002Y122501D01*
X397502D01*
X401668Y115000D02*
X405000D01*
X401668Y111668D01*
Y110835D01*
X402501Y110002D01*
X404167D01*
X405000Y110835D01*
X400002D02*
X399169Y110002D01*
X397502D01*
X396669Y110835D01*
Y114167D01*
X397502Y115000D01*
X399169D01*
X400002Y114167D01*
Y110835D01*
X511334Y199668D02*
X512001Y199001D01*
X513334D01*
X514000Y199668D01*
Y202333D01*
X513334Y203000D01*
X512001D01*
X511334Y202333D01*
X507336Y199668D02*
X508002Y199001D01*
X509335D01*
X510001Y199668D01*
Y200334D01*
X509335Y201001D01*
X508002D01*
X507336Y201667D01*
Y202333D01*
X508002Y203000D01*
X509335D01*
X510001Y202333D01*
X503337Y203000D02*
X506003D01*
X503337Y200334D01*
Y199668D01*
X504003Y199001D01*
X505336D01*
X506003Y199668D01*
X514000Y193000D02*
Y189001D01*
X511334Y193000D01*
Y189001D01*
X510001D02*
Y193000D01*
X508668Y191667D01*
X507336Y193000D01*
Y189001D01*
X503337D02*
X506003D01*
Y193000D01*
X503337D01*
X506003Y191001D02*
X504670D01*
X514000Y183000D02*
Y179001D01*
X511334Y183000D01*
Y179001D01*
X510001D02*
Y183000D01*
X508668Y181667D01*
X507336Y183000D01*
Y179001D01*
X506003Y183000D02*
Y180334D01*
X504670Y179001D01*
X503337Y180334D01*
Y183000D01*
Y181001D01*
X506003D01*
X502004Y179001D02*
X500671D01*
X501337D01*
Y183000D01*
X502004D01*
X500671D01*
X498672Y179001D02*
X496006D01*
X497339D01*
Y183000D01*
X514000Y173000D02*
Y169001D01*
X512001D01*
X511334Y169668D01*
Y171001D01*
X512001Y171667D01*
X514000D01*
X507336Y169668D02*
X508002Y169001D01*
X509335D01*
X510001Y169668D01*
Y172334D01*
X509335Y173000D01*
X508002D01*
X507336Y172334D01*
X506003Y169001D02*
Y173000D01*
Y171667D01*
X503337Y169001D01*
X505336Y171001D01*
X503337Y173000D01*
X502004Y169668D02*
X501337Y169001D01*
X500004D01*
X499338Y169668D01*
Y172334D01*
X500004Y173000D01*
X501337D01*
X502004Y172334D01*
Y169668D01*
X514000Y163000D02*
Y159001D01*
X512001D01*
X511334Y159668D01*
Y161001D01*
X512001Y161667D01*
X514000D01*
X507336Y159668D02*
X508002Y159001D01*
X509335D01*
X510001Y159668D01*
Y162334D01*
X509335Y163000D01*
X508002D01*
X507336Y162334D01*
X506003Y159001D02*
Y163000D01*
Y161667D01*
X503337Y159001D01*
X505336Y161001D01*
X503337Y163000D01*
X502004D02*
X500671D01*
X501337D01*
Y159001D01*
X502004Y159668D01*
X574334Y199001D02*
X575667D01*
X575001D01*
Y202333D01*
X575667Y203000D01*
X576334D01*
X577000Y202333D01*
X573001Y199001D02*
X570335D01*
X571668D01*
Y203000D01*
X569003D02*
Y200334D01*
X567670Y199001D01*
X566337Y200334D01*
Y203000D01*
Y201001D01*
X569003D01*
X562338Y199668D02*
X563004Y199001D01*
X564337D01*
X565004Y199668D01*
Y202333D01*
X564337Y203000D01*
X563004D01*
X562338Y202333D01*
Y201001D01*
X563671D01*
X561005Y203666D02*
X558339D01*
X557007Y203000D02*
Y199001D01*
X554341Y203000D01*
Y199001D01*
X553008D02*
X550342D01*
X551675D01*
Y203000D01*
X549009D02*
Y199001D01*
X547010D01*
X546343Y199668D01*
Y201001D01*
X547010Y201667D01*
X549009D01*
X547676D02*
X546343Y203000D01*
X542345Y199668D02*
X543011Y199001D01*
X544344D01*
X545010Y199668D01*
Y200334D01*
X544344Y201001D01*
X543011D01*
X542345Y201667D01*
Y202333D01*
X543011Y203000D01*
X544344D01*
X545010Y202333D01*
X541012Y199001D02*
X538346D01*
X539679D01*
Y203000D01*
X549000Y193000D02*
Y189001D01*
X547001D01*
X546334Y189668D01*
Y191001D01*
X547001Y191667D01*
X549000D01*
X547667D02*
X546334Y193000D01*
X542336Y189668D02*
X543002Y189001D01*
X544335D01*
X545001Y189668D01*
Y190334D01*
X544335Y191001D01*
X543002D01*
X542336Y191667D01*
Y192333D01*
X543002Y193000D01*
X544335D01*
X545001Y192333D01*
X541003Y189001D02*
X538337D01*
X539670D01*
Y193000D01*
X557000Y182000D02*
Y178001D01*
X554334Y182000D01*
Y178001D01*
X553001D02*
X550336D01*
X551668D01*
Y182000D01*
X549003D02*
Y178001D01*
X547003D01*
X546337Y178668D01*
Y180001D01*
X547003Y180667D01*
X549003D01*
X547670D02*
X546337Y182000D01*
X542338Y178668D02*
X543005Y178001D01*
X544337D01*
X545004Y178668D01*
Y179334D01*
X544337Y180001D01*
X543005D01*
X542338Y180667D01*
Y181333D01*
X543005Y182000D01*
X544337D01*
X545004Y181333D01*
X541005Y178001D02*
X538339D01*
X539672D01*
Y182000D01*
X549000Y173000D02*
Y169001D01*
X547001D01*
X546334Y169668D01*
Y171001D01*
X547001Y171667D01*
X549000D01*
X547667D02*
X546334Y173000D01*
X545001D02*
Y170334D01*
X543668Y169001D01*
X542336Y170334D01*
Y173000D01*
Y171001D01*
X545001D01*
X538337Y169668D02*
X539003Y169001D01*
X540336D01*
X541003Y169668D01*
Y170334D01*
X540336Y171001D01*
X539003D01*
X538337Y171667D01*
Y172334D01*
X539003Y173000D01*
X540336D01*
X541003Y172334D01*
X546334Y159668D02*
X547001Y159001D01*
X548334D01*
X549000Y159668D01*
Y162334D01*
X548334Y163000D01*
X547001D01*
X546334Y162334D01*
X545001Y163000D02*
Y160334D01*
X543668Y159001D01*
X542336Y160334D01*
Y163000D01*
Y161001D01*
X545001D01*
X538337Y159668D02*
X539003Y159001D01*
X540336D01*
X541003Y159668D01*
Y160334D01*
X540336Y161001D01*
X539003D01*
X538337Y161667D01*
Y162334D01*
X539003Y163000D01*
X540336D01*
X541003Y162334D01*
X557000Y149001D02*
Y153000D01*
X555001D01*
X554334Y152333D01*
Y149668D01*
X555001Y149001D01*
X557000D01*
X553001Y153000D02*
Y149001D01*
X551002D01*
X550336Y149668D01*
Y151001D01*
X551002Y151667D01*
X553001D01*
X551668D02*
X550336Y153000D01*
X549003D02*
Y149001D01*
X547670Y150334D01*
X546337Y149001D01*
Y153000D01*
X545004Y149001D02*
Y153000D01*
X543671Y151667D01*
X542338Y153000D01*
Y149001D01*
X538339D02*
X541005D01*
Y153000D01*
X538339D01*
X541005Y151001D02*
X539672D01*
X549000Y143000D02*
Y139001D01*
X547001D01*
X546334Y139668D01*
Y141001D01*
X547001Y141667D01*
X549000D01*
X547667D02*
X546334Y143000D01*
X545001D02*
Y140334D01*
X543668Y139001D01*
X542336Y140334D01*
Y143000D01*
Y141001D01*
X545001D01*
X538337Y139001D02*
X541003D01*
Y143000D01*
X538337D01*
X541003Y141001D02*
X539670D01*
X546334Y129668D02*
X547001Y129001D01*
X548334D01*
X549000Y129668D01*
Y132334D01*
X548334Y133000D01*
X547001D01*
X546334Y132334D01*
X545001Y133000D02*
Y130334D01*
X543668Y129001D01*
X542336Y130334D01*
Y133000D01*
Y131001D01*
X545001D01*
X538337Y129001D02*
X541003D01*
Y133000D01*
X538337D01*
X541003Y131001D02*
X539670D01*
X561800Y183500D02*
Y181834D01*
Y182667D01*
X566798D01*
X565965Y183500D01*
X571800Y180168D02*
Y183500D01*
X575132Y180168D01*
X575965D01*
X576798Y181001D01*
Y182667D01*
X575965Y183500D01*
X571800Y97500D02*
Y95834D01*
Y96667D01*
X576798D01*
X575965Y97500D01*
X576798Y90002D02*
X575965Y91669D01*
X574299Y93335D01*
X572633D01*
X571800Y92502D01*
Y90835D01*
X572633Y90002D01*
X573466D01*
X574299Y90835D01*
Y93335D01*
X561800Y97500D02*
Y95834D01*
Y96667D01*
X566798D01*
X565965Y97500D01*
X566798Y90002D02*
Y93335D01*
X564299D01*
X565132Y91669D01*
Y90835D01*
X564299Y90002D01*
X562633D01*
X561800Y90835D01*
Y92502D01*
X562633Y93335D01*
D35*
X78100Y92900D02*
Y119900D01*
X78200Y155500D02*
Y182500D01*
X78300Y215200D02*
Y242200D01*
X77900Y274800D02*
Y301800D01*
D37*
X735000Y-3000D02*
X753000D01*
Y14000D01*
X-3000Y653000D02*
X15000D01*
X-3000Y636000D02*
Y653000D01*
Y-3000D02*
X14000D01*
X-3000D02*
Y15000D01*
D66*
X70481Y443983D02*
G03*
X70481Y443983I-492J0D01*
G01*
X65703Y467017D02*
G03*
X65703Y467017I-492J0D01*
G01*
X552315Y53811D02*
X572000D01*
X75815Y592496D02*
X95500D01*
D67*
X76879Y453432D02*
G03*
X76879Y453432I-1181J0D01*
G01*
X60684Y457569D02*
G03*
X60684Y457569I-1181J0D01*
G01*
D68*
X25800Y132400D02*
X35800D01*
X25800Y72400D02*
X35800D01*
X25800D02*
Y132400D01*
X35800Y72400D02*
Y132400D01*
X348000Y466000D02*
Y486000D01*
X308000D02*
X348000D01*
X308000Y466000D02*
X348000D01*
X308000D02*
Y486000D01*
X116425Y73253D02*
X119575D01*
X116425Y67347D02*
X119575D01*
X498500Y128000D02*
X506000D01*
Y108000D02*
Y128000D01*
X498500Y108000D02*
X506000D01*
X406000Y128000D02*
X498500D01*
X406000Y108000D02*
X498500D01*
X406000D02*
Y128000D01*
X578800Y98500D02*
Y178500D01*
X558800D02*
X578800D01*
X558800Y98500D02*
X578800D01*
X558800D02*
Y178500D01*
X536900Y125900D02*
Y205900D01*
X516900D02*
X536900D01*
X516900Y125900D02*
X536900D01*
X516900D02*
Y205900D01*
X383500Y174000D02*
Y204000D01*
X373500D02*
X383500D01*
X373500Y174000D02*
Y204000D01*
Y174000D02*
X383500D01*
X400500Y173000D02*
Y213000D01*
X390500D02*
X400500D01*
X390500Y173000D02*
X400500D01*
X390500D02*
Y213000D01*
X445000Y454500D02*
Y474500D01*
X365000D02*
X445000D01*
X365000Y454500D02*
X445000D01*
X365000D02*
Y474500D01*
X322000Y499500D02*
Y519500D01*
X242000D02*
X322000D01*
X242000Y499500D02*
X322000D01*
X242000D02*
Y519500D01*
X278122Y569650D02*
X280878D01*
X278122Y563350D02*
X280878D01*
X278122Y586650D02*
X280878D01*
X278122Y580350D02*
X280878D01*
X248653Y571725D02*
Y574875D01*
X242747Y571725D02*
Y574875D01*
X71761Y449494D02*
X91839D01*
X71761Y461306D02*
X91839D01*
X71761Y449494D02*
Y461306D01*
X91839Y449494D02*
Y461306D01*
X43361Y461506D02*
X63439D01*
X43361Y449694D02*
X63439D01*
Y461506D01*
X43361Y449694D02*
Y461506D01*
X300378Y581713D02*
Y583287D01*
X297622Y581713D02*
Y583287D01*
X299878Y568213D02*
Y569787D01*
X297122Y568213D02*
Y569787D01*
X97613Y155822D02*
X99187D01*
X97613Y158578D02*
X99187D01*
X97613Y165378D02*
X99187D01*
X97613Y162622D02*
X99187D01*
X98013Y216822D02*
X99587D01*
X98013Y219578D02*
X99587D01*
X98113Y226778D02*
X99687D01*
X98113Y224022D02*
X99687D01*
X96813Y275422D02*
X98387D01*
X96813Y278178D02*
X98387D01*
X96813Y284778D02*
X98387D01*
X96813Y282022D02*
X98387D01*
X96813Y90522D02*
X98387D01*
X96813Y93278D02*
X98387D01*
X96765Y100778D02*
X98340D01*
X96765Y98022D02*
X98340D01*
X321265Y87378D02*
X322840D01*
X321265Y84622D02*
X322840D01*
X321265Y81878D02*
X322840D01*
X321265Y79122D02*
X322840D01*
X248722Y183413D02*
Y184987D01*
X251478Y183413D02*
Y184987D01*
X258678Y183213D02*
Y184787D01*
X255922Y183213D02*
Y184787D01*
X266078Y183213D02*
Y184787D01*
X263322Y183213D02*
Y184787D01*
X273678Y182813D02*
Y184387D01*
X270922Y182813D02*
Y184387D01*
X158813Y570022D02*
X160387D01*
X158813Y572778D02*
X160387D01*
X158565Y552422D02*
X160140D01*
X158565Y555178D02*
X160140D01*
X139813Y550178D02*
X141387D01*
X139813Y547422D02*
X141387D01*
X296322Y182613D02*
Y184187D01*
X299078Y182613D02*
Y184187D01*
X338613Y106322D02*
X340187D01*
X338613Y109078D02*
X340187D01*
X338713Y112822D02*
X340287D01*
X338713Y115578D02*
X340287D01*
X279122Y182813D02*
Y184387D01*
X281878Y182813D02*
Y184387D01*
X140213Y557978D02*
X141787D01*
X140213Y555222D02*
X141787D01*
X158413Y546578D02*
X159987D01*
X158413Y543822D02*
X159987D01*
X140213Y569622D02*
X141787D01*
X140213Y572378D02*
X141787D01*
X305778Y182213D02*
Y183787D01*
X303022Y182213D02*
Y183787D01*
X225013Y102778D02*
X226587D01*
X225013Y100022D02*
X226587D01*
X225313Y120678D02*
X226887D01*
X225313Y117922D02*
X226887D01*
X224813Y138978D02*
X226387D01*
X224813Y136222D02*
X226387D01*
X225213Y129178D02*
X226787D01*
X225213Y126422D02*
X226787D01*
X224813Y111278D02*
X226387D01*
X224813Y108522D02*
X226387D01*
X167013Y201222D02*
X168587D01*
X167013Y203978D02*
X168587D01*
X167213Y211222D02*
X168787D01*
X167213Y213978D02*
X168787D01*
X133122Y278350D02*
X135878D01*
X133122Y284650D02*
X135878D01*
X98525Y177253D02*
X101675D01*
X98525Y171347D02*
X101675D01*
X98325Y238353D02*
X101475D01*
X98325Y232447D02*
X101475D01*
X96925Y296453D02*
X100075D01*
X96925Y290547D02*
X100075D01*
X97525Y110853D02*
X100675D01*
X97525Y104947D02*
X100675D01*
X123478Y27313D02*
Y28887D01*
X120722Y27313D02*
Y28887D01*
X50478Y292613D02*
Y294187D01*
X47722Y292613D02*
Y294187D01*
X43422Y226013D02*
Y227587D01*
X46178Y226013D02*
Y227587D01*
X224260Y146378D02*
X225835D01*
X224260Y143622D02*
X225835D01*
X304825Y111847D02*
X307975D01*
X304825Y117753D02*
X307975D01*
X290078Y182613D02*
Y184187D01*
X287322Y182613D02*
Y184187D01*
X314978Y182413D02*
Y183987D01*
X312222Y182413D02*
Y183987D01*
X393978Y80260D02*
Y81835D01*
X391222Y80260D02*
Y81835D01*
X372778Y81460D02*
Y83035D01*
X370022Y81460D02*
Y83035D01*
X366800Y63600D02*
Y73600D01*
X396800D01*
Y63600D02*
Y73600D01*
X366800Y63600D02*
X396800D01*
X184050Y344622D02*
Y347378D01*
X177750Y344622D02*
Y347378D01*
M02*
