G04 Layer_Color=16711935*
%FSLAX25Y25*%
%MOIN*%
G70*
G01*
G75*
%ADD101C,0.00394*%
D101*
X448972Y235185D02*
G03*
X448972Y235185I-1969J0D01*
G01*
X318972Y283185D02*
G03*
X318972Y283185I-1969J0D01*
G01*
X260283Y637004D02*
G03*
X260283Y637004I-1969J0D01*
G01*
X337972Y196685D02*
G03*
X337972Y196685I-1969J0D01*
G01*
X260784Y678504D02*
G03*
X260784Y678504I-1969J0D01*
G01*
X781201Y573630D02*
Y577370D01*
X787894Y573630D02*
Y577370D01*
X781201D02*
X787894D01*
X781201Y573630D02*
X787894D01*
X781154Y328130D02*
Y331870D01*
X787846Y328130D02*
Y331870D01*
X781154D02*
X787846D01*
X781154Y328130D02*
X787846D01*
X174055Y651130D02*
Y654870D01*
X180945Y651130D02*
Y654870D01*
X174055Y651130D02*
X180945D01*
X174055Y654870D02*
X180945D01*
X390445Y628630D02*
Y632370D01*
X383555Y628630D02*
Y632370D01*
X390445D01*
X383555Y628630D02*
X390445D01*
X453630Y619701D02*
X457370D01*
X453630Y612811D02*
X457370D01*
X453630D02*
Y619701D01*
X457370Y612811D02*
Y619701D01*
X657346Y221130D02*
Y224870D01*
X650654Y221130D02*
Y224870D01*
X657346D01*
X650654Y221130D02*
X657346D01*
X677630Y266346D02*
X681370D01*
X677630Y259654D02*
X681370D01*
X677630D02*
Y266346D01*
X681370Y259654D02*
Y266346D01*
X346130Y359154D02*
X349870D01*
X346130Y365846D02*
X349870D01*
Y359154D02*
Y365846D01*
X346130Y359154D02*
Y365846D01*
X213130Y401799D02*
X216870D01*
X213130Y408689D02*
X216870D01*
X213130Y401799D02*
Y408689D01*
X216870Y401799D02*
Y408689D01*
X681130Y303055D02*
X684870D01*
X681130Y309945D02*
X684870D01*
X681130Y303055D02*
Y309945D01*
X684870Y303055D02*
Y309945D01*
X158630Y336055D02*
X162370D01*
X158630Y342945D02*
X162370D01*
X158630Y336055D02*
Y342945D01*
X162370Y336055D02*
Y342945D01*
X158630Y361445D02*
X162370D01*
X158630Y354555D02*
X162370D01*
Y361445D01*
X158630Y354555D02*
Y361445D01*
X675130Y720555D02*
X678870D01*
X675130Y727445D02*
X678870D01*
X675130Y720555D02*
Y727445D01*
X678870Y720555D02*
Y727445D01*
X654130Y720555D02*
X657870D01*
X654130Y727445D02*
X657870D01*
X654130Y720555D02*
Y727445D01*
X657870Y720555D02*
Y727445D01*
X631130Y720654D02*
X634870D01*
X631130Y727346D02*
X634870D01*
X631130Y720654D02*
Y727346D01*
X634870Y720654D02*
Y727346D01*
X561630Y720654D02*
X565370D01*
X561630Y727346D02*
X565370D01*
X561630Y720654D02*
Y727346D01*
X565370Y720654D02*
Y727346D01*
X538630Y720555D02*
X542370D01*
X538630Y727445D02*
X542370D01*
X538630Y720555D02*
Y727445D01*
X542370Y720555D02*
Y727445D01*
X515630Y720555D02*
X519370D01*
X515630Y727445D02*
X519370D01*
X515630Y720555D02*
Y727445D01*
X519370Y720555D02*
Y727445D01*
X492630Y720654D02*
X496370D01*
X492630Y727346D02*
X496370D01*
X492630Y720654D02*
Y727346D01*
X496370Y720654D02*
Y727346D01*
X422630Y720654D02*
X426370D01*
X422630Y727346D02*
X426370D01*
X422630Y720654D02*
Y727346D01*
X426370Y720654D02*
Y727346D01*
X399630Y720555D02*
X403370D01*
X399630Y727445D02*
X403370D01*
X399630Y720555D02*
Y727445D01*
X403370Y720555D02*
Y727445D01*
X376630Y720555D02*
X380370D01*
X376630Y727445D02*
X380370D01*
X376630Y720555D02*
Y727445D01*
X380370Y720555D02*
Y727445D01*
X355630Y720654D02*
X359370D01*
X355630Y727346D02*
X359370D01*
X355630Y720654D02*
Y727346D01*
X359370Y720654D02*
Y727346D01*
X275630Y726894D02*
X279370D01*
X275630Y720201D02*
X279370D01*
Y726894D01*
X275630Y720201D02*
Y726894D01*
X264130Y727201D02*
X267870D01*
X264130Y720311D02*
X267870D01*
Y727201D01*
X264130Y720311D02*
Y727201D01*
X240630Y720555D02*
X244370D01*
X240630Y727445D02*
X244370D01*
X240630Y720555D02*
Y727445D01*
X244370Y720555D02*
Y727445D01*
X217630Y720654D02*
X221370D01*
X217630Y727346D02*
X221370D01*
X217630Y720654D02*
Y727346D01*
X221370Y720654D02*
Y727346D01*
X194630Y720654D02*
X198370D01*
X194630Y727346D02*
X198370D01*
X194630Y720654D02*
Y727346D01*
X198370Y720654D02*
Y727346D01*
X462630Y194154D02*
X466370D01*
X462630Y200846D02*
X466370D01*
X462630Y194154D02*
Y200846D01*
X466370Y194154D02*
Y200846D01*
X439630Y194154D02*
X443370D01*
X439630Y200846D02*
X443370D01*
X439630Y194154D02*
Y200846D01*
X443370Y194154D02*
Y200846D01*
X416630Y194154D02*
X420370D01*
X416630Y200846D02*
X420370D01*
X416630Y194154D02*
Y200846D01*
X420370Y194154D02*
Y200846D01*
X401130Y192701D02*
X404870D01*
X401130Y199394D02*
X404870D01*
X401130Y192701D02*
Y199394D01*
X404870Y192701D02*
Y199394D01*
X443461Y231642D02*
X463539D01*
X443461Y249358D02*
X463539D01*
X443461Y231642D02*
Y249358D01*
X463539Y231642D02*
Y249358D01*
X313461Y279642D02*
X333539D01*
X313461Y297358D02*
X333539D01*
X313461Y279642D02*
Y297358D01*
X333539Y279642D02*
Y297358D01*
X261858Y633461D02*
Y653539D01*
X244142Y633461D02*
Y653539D01*
Y633461D02*
X261858D01*
X244142Y653539D02*
X261858D01*
X332461Y193142D02*
X352539D01*
X332461Y210858D02*
X352539D01*
X332461Y193142D02*
Y210858D01*
X352539Y193142D02*
Y210858D01*
X262358Y674961D02*
Y695039D01*
X244642Y674961D02*
Y695039D01*
Y674961D02*
X262358D01*
X244642Y695039D02*
X262358D01*
X422130Y603846D02*
X425870D01*
X422130Y597154D02*
X425870D01*
X422130D02*
Y603846D01*
X425870Y597154D02*
Y603846D01*
X312630Y355299D02*
X316370D01*
X312630Y362189D02*
X316370D01*
Y355299D02*
Y362189D01*
X312630Y355299D02*
Y362189D01*
X275654Y317630D02*
Y321370D01*
X282346Y317630D02*
Y321370D01*
X275654Y317630D02*
X282346D01*
X275654Y321370D02*
X282346D01*
X260130Y395055D02*
X263870D01*
X260130Y401945D02*
X263870D01*
Y395055D02*
Y401945D01*
X260130Y395055D02*
Y401945D01*
X326630Y153811D02*
X330370D01*
X326630Y160701D02*
X330370D01*
Y153811D02*
Y160701D01*
X326630Y153811D02*
Y160701D01*
X353630Y395055D02*
X357370D01*
X353630Y401945D02*
X357370D01*
Y395055D02*
Y401945D01*
X353630Y395055D02*
Y401945D01*
X162130Y262201D02*
X165870D01*
X162130Y268894D02*
X165870D01*
Y262201D02*
Y268894D01*
X162130Y262201D02*
Y268894D01*
X182130Y256154D02*
X185870D01*
X182130Y262846D02*
X185870D01*
Y256154D02*
Y262846D01*
X182130Y256154D02*
Y262846D01*
X201945Y261630D02*
Y265370D01*
X195055Y261630D02*
Y265370D01*
X201945D01*
X195055Y261630D02*
X201945D01*
X222130Y256154D02*
X225870D01*
X222130Y262846D02*
X225870D01*
Y256154D02*
Y262846D01*
X222130Y256154D02*
Y262846D01*
X241945Y260130D02*
Y263870D01*
X235055Y260130D02*
Y263870D01*
X241945D01*
X235055Y260130D02*
X241945D01*
X262130Y256154D02*
X265870D01*
X262130Y262846D02*
X265870D01*
Y256154D02*
Y262846D01*
X262130Y256154D02*
Y262846D01*
X258945Y419130D02*
Y422870D01*
X252055Y419130D02*
Y422870D01*
X258945D01*
X252055Y419130D02*
X258945D01*
X271189D02*
Y422870D01*
X264299Y419130D02*
Y422870D01*
X271189D01*
X264299Y419130D02*
X271189D01*
X286945D02*
Y422870D01*
X280055Y419130D02*
Y422870D01*
X286945D01*
X280055Y419130D02*
X286945D01*
X299189D02*
Y422870D01*
X292299Y419130D02*
Y422870D01*
X299189D01*
X292299Y419130D02*
X299189D01*
X311445Y418630D02*
Y422370D01*
X304555Y418630D02*
Y422370D01*
X311445D01*
X304555Y418630D02*
X311445D01*
X323945D02*
Y422370D01*
X317055Y418630D02*
Y422370D01*
X323945D01*
X317055Y418630D02*
X323945D01*
X387130Y256154D02*
X390870D01*
X387130Y262846D02*
X390870D01*
Y256154D02*
Y262846D01*
X387130Y256154D02*
Y262846D01*
X410130Y256154D02*
X413870D01*
X410130Y262846D02*
X413870D01*
Y256154D02*
Y262846D01*
X410130Y256154D02*
Y262846D01*
X433130Y256154D02*
X436870D01*
X433130Y262846D02*
X436870D01*
Y256154D02*
Y262846D01*
X433130Y256154D02*
Y262846D01*
X456130Y256154D02*
X459870D01*
X456130Y262846D02*
X459870D01*
Y256154D02*
Y262846D01*
X456130Y256154D02*
Y262846D01*
X476130Y256055D02*
X479870D01*
X476130Y262945D02*
X479870D01*
Y256055D02*
Y262945D01*
X476130Y256055D02*
Y262945D01*
X498130Y256055D02*
X501870D01*
X498130Y262945D02*
X501870D01*
Y256055D02*
Y262945D01*
X498130Y256055D02*
Y262945D01*
X520130Y256055D02*
X523870D01*
X520130Y262945D02*
X523870D01*
Y256055D02*
Y262945D01*
X520130Y256055D02*
Y262945D01*
X542130Y256055D02*
X545870D01*
X542130Y262945D02*
X545870D01*
Y256055D02*
Y262945D01*
X542130Y256055D02*
Y262945D01*
X600130Y236055D02*
X603870D01*
X600130Y242945D02*
X603870D01*
Y236055D02*
Y242945D01*
X600130Y236055D02*
Y242945D01*
X624130Y266799D02*
X627870D01*
X624130Y273689D02*
X627870D01*
Y266799D02*
Y273689D01*
X624130Y266799D02*
Y273689D01*
X287846Y286130D02*
Y289870D01*
X281154Y286130D02*
Y289870D01*
X287846D01*
X281154Y286130D02*
X287846D01*
X407846D02*
Y289870D01*
X401154Y286130D02*
Y289870D01*
X407846D01*
X401154Y286130D02*
X407846D01*
X422130Y615846D02*
X425870D01*
X422130Y609154D02*
X425870D01*
X422130D02*
Y615846D01*
X425870Y609154D02*
Y615846D01*
X425130Y282154D02*
X428870D01*
X425130Y288846D02*
X428870D01*
Y282154D02*
Y288846D01*
X425130Y282154D02*
Y288846D01*
X447130Y282154D02*
X450870D01*
X447130Y288846D02*
X450870D01*
Y282154D02*
Y288846D01*
X447130Y282154D02*
Y288846D01*
X466846Y286130D02*
Y289870D01*
X460154Y286130D02*
Y289870D01*
X466846D01*
X460154Y286130D02*
X466846D01*
X483846D02*
Y289870D01*
X477154Y286130D02*
Y289870D01*
X483846D01*
X477154Y286130D02*
X483846D01*
X500846D02*
Y289870D01*
X494154Y286130D02*
Y289870D01*
X500846D01*
X494154Y286130D02*
X500846D01*
X150630Y219409D02*
X154370D01*
X150630Y226102D02*
X154370D01*
Y219409D02*
Y226102D01*
X150630Y219409D02*
Y226102D01*
X172630Y219409D02*
X176370D01*
X172630Y226102D02*
X176370D01*
Y219409D02*
Y226102D01*
X172630Y219409D02*
Y226102D01*
X194630Y219409D02*
X198370D01*
X194630Y226102D02*
X198370D01*
Y219409D02*
Y226102D01*
X194630Y219409D02*
Y226102D01*
X317630Y225811D02*
X321370D01*
X317630Y232701D02*
X321370D01*
Y225811D02*
Y232701D01*
X317630Y225811D02*
Y232701D01*
X340630Y225811D02*
X344370D01*
X340630Y232701D02*
X344370D01*
Y225811D02*
Y232701D01*
X340630Y225811D02*
Y232701D01*
X363630Y226055D02*
X367370D01*
X363630Y232945D02*
X367370D01*
Y226055D02*
Y232945D01*
X363630Y226055D02*
Y232945D01*
X167445Y634630D02*
Y638370D01*
X160555Y634630D02*
Y638370D01*
X167445D01*
X160555Y634630D02*
X167445D01*
X267130Y626311D02*
X270870D01*
X267130Y633201D02*
X270870D01*
Y626311D02*
Y633201D01*
X267130Y626311D02*
Y633201D01*
X160811Y622630D02*
Y626370D01*
X167701Y622630D02*
Y626370D01*
X160811Y622630D02*
X167701D01*
X160811Y626370D02*
X167701D01*
X284130Y446945D02*
X287870D01*
X284130Y440055D02*
X287870D01*
X284130D02*
Y446945D01*
X287870Y440055D02*
Y446945D01*
X252630Y445945D02*
X256370D01*
X252630Y439055D02*
X256370D01*
X252630D02*
Y445945D01*
X256370Y439055D02*
Y445945D01*
X241555Y436630D02*
Y440370D01*
X248445Y436630D02*
Y440370D01*
X241555Y436630D02*
X248445D01*
X241555Y440370D02*
X248445D01*
X244555Y372130D02*
Y375870D01*
X251445Y372130D02*
Y375870D01*
X244555Y372130D02*
X251445D01*
X244555Y375870D02*
X251445D01*
X243055Y400130D02*
Y403870D01*
X249945Y400130D02*
Y403870D01*
X243055Y400130D02*
X249945D01*
X243055Y403870D02*
X249945D01*
X243130Y356055D02*
X246870D01*
X243130Y362945D02*
X246870D01*
Y356055D02*
Y362945D01*
X243130Y356055D02*
Y362945D01*
X292130Y380811D02*
X295870D01*
X292130Y387701D02*
X295870D01*
Y380811D02*
Y387701D01*
X292130Y380811D02*
Y387701D01*
X315130Y380811D02*
X318870D01*
X315130Y387701D02*
X318870D01*
Y380811D02*
Y387701D01*
X315130Y380811D02*
Y387701D01*
X338130Y380811D02*
X341870D01*
X338130Y387701D02*
X341870D01*
Y380811D02*
Y387701D01*
X338130Y380811D02*
Y387701D01*
X361130Y380811D02*
X364870D01*
X361130Y387701D02*
X364870D01*
Y380811D02*
Y387701D01*
X361130Y380811D02*
Y387701D01*
X278130Y355555D02*
X281870D01*
X278130Y362445D02*
X281870D01*
Y355555D02*
Y362445D01*
X278130Y355555D02*
Y362445D01*
X334945Y360630D02*
Y364370D01*
X328055Y360630D02*
Y364370D01*
X334945D01*
X328055Y360630D02*
X334945D01*
X430130Y380811D02*
X433870D01*
X430130Y387701D02*
X433870D01*
Y380811D02*
Y387701D01*
X430130Y380811D02*
Y387701D01*
X321630Y446945D02*
X325370D01*
X321630Y440055D02*
X325370D01*
X321630D02*
Y446945D01*
X325370Y440055D02*
Y446945D01*
X300630Y190701D02*
X304370D01*
X300630Y197394D02*
X304370D01*
X300630Y190701D02*
Y197394D01*
X304370Y190701D02*
Y197394D01*
X226630Y297555D02*
X230370D01*
X226630Y304445D02*
X230370D01*
X226630Y297555D02*
Y304445D01*
X230370Y297555D02*
Y304445D01*
X563130Y249555D02*
X566870D01*
X563130Y256445D02*
X566870D01*
X563130Y249555D02*
Y256445D01*
X566870Y249555D02*
Y256445D01*
X540130Y249555D02*
X543870D01*
X540130Y256445D02*
X543870D01*
X540130Y249555D02*
Y256445D01*
X543870Y249555D02*
Y256445D01*
X517130Y249555D02*
X520870D01*
X517130Y256445D02*
X520870D01*
X517130Y249555D02*
Y256445D01*
X520870Y249555D02*
Y256445D01*
X494130Y249555D02*
X497870D01*
X494130Y256445D02*
X497870D01*
X494130Y249555D02*
Y256445D01*
X497870Y249555D02*
Y256445D01*
X471130Y249555D02*
X474870D01*
X471130Y256445D02*
X474870D01*
X471130Y249555D02*
Y256445D01*
X474870Y249555D02*
Y256445D01*
X316130Y249654D02*
X319870D01*
X316130Y256346D02*
X319870D01*
X316130Y249654D02*
Y256346D01*
X319870Y249654D02*
Y256346D01*
X295130Y249654D02*
X298870D01*
X295130Y256346D02*
X298870D01*
X295130Y249654D02*
Y256346D01*
X298870Y249654D02*
Y256346D01*
X272130Y249654D02*
X275870D01*
X272130Y256346D02*
X275870D01*
X272130Y249654D02*
Y256346D01*
X275870Y249654D02*
Y256346D01*
X250130Y249654D02*
X253870D01*
X250130Y256346D02*
X253870D01*
X250130Y249654D02*
Y256346D01*
X253870Y249654D02*
Y256346D01*
X228130Y249654D02*
X231870D01*
X228130Y256346D02*
X231870D01*
X228130Y249654D02*
Y256346D01*
X231870Y249654D02*
Y256346D01*
X205130Y249654D02*
X208870D01*
X205130Y256346D02*
X208870D01*
X205130Y249654D02*
Y256346D01*
X208870Y249654D02*
Y256346D01*
X182130Y249654D02*
X185870D01*
X182130Y256346D02*
X185870D01*
X182130Y249654D02*
Y256346D01*
X185870Y249654D02*
Y256346D01*
X484130Y144154D02*
X487870D01*
X484130Y150846D02*
X487870D01*
X484130Y144154D02*
Y150846D01*
X487870Y144154D02*
Y150846D01*
X185130Y426055D02*
X188870D01*
X185130Y432945D02*
X188870D01*
X185130Y426055D02*
Y432945D01*
X188870Y426055D02*
Y432945D01*
X162130Y426154D02*
X165870D01*
X162130Y432846D02*
X165870D01*
X162130Y426154D02*
Y432846D01*
X165870Y426154D02*
Y432846D01*
X139130Y426055D02*
X142870D01*
X139130Y432945D02*
X142870D01*
X139130Y426055D02*
Y432945D01*
X142870Y426055D02*
Y432945D01*
X565130Y168299D02*
X568870D01*
X565130Y175189D02*
X568870D01*
X565130Y168299D02*
Y175189D01*
X568870Y168299D02*
Y175189D01*
X747130Y230701D02*
X750870D01*
X747130Y237394D02*
X750870D01*
X747130Y230701D02*
Y237394D01*
X750870Y230701D02*
Y237394D01*
X700630Y188154D02*
X704370D01*
X700630Y194846D02*
X704370D01*
X700630Y188154D02*
Y194846D01*
X704370Y188154D02*
Y194846D01*
X723130Y245799D02*
X726870D01*
X723130Y252689D02*
X726870D01*
X723130Y245799D02*
Y252689D01*
X726870Y245799D02*
Y252689D01*
X479130Y120555D02*
X482870D01*
X479130Y127445D02*
X482870D01*
X479130Y120555D02*
Y127445D01*
X482870Y120555D02*
Y127445D01*
X691311Y239630D02*
Y243370D01*
X698201Y239630D02*
Y243370D01*
X691311D02*
X698201D01*
X691311Y239630D02*
X698201D01*
X721130Y214154D02*
X724870D01*
X721130Y220846D02*
X724870D01*
X721130Y214154D02*
Y220846D01*
X724870Y214154D02*
Y220846D01*
X492630Y174654D02*
X496370D01*
X492630Y181346D02*
X496370D01*
X492630Y174654D02*
Y181346D01*
X496370Y174654D02*
Y181346D01*
X677130Y214055D02*
X680870D01*
X677130Y220945D02*
X680870D01*
X677130Y214055D02*
Y220945D01*
X680870Y214055D02*
Y220945D01*
X212630Y462799D02*
X216370D01*
X212630Y469689D02*
X216370D01*
X212630Y462799D02*
Y469689D01*
X216370Y462799D02*
Y469689D01*
X190630Y462799D02*
X194370D01*
X190630Y469689D02*
X194370D01*
X190630Y462799D02*
Y469689D01*
X194370Y462799D02*
Y469689D01*
X168630Y462799D02*
X172370D01*
X168630Y469689D02*
X172370D01*
X168630Y462799D02*
Y469689D01*
X172370Y462799D02*
Y469689D01*
X146630Y462799D02*
X150370D01*
X146630Y469689D02*
X150370D01*
X146630Y462799D02*
Y469689D01*
X150370Y462799D02*
Y469689D01*
X123630Y462799D02*
X127370D01*
X123630Y469689D02*
X127370D01*
X123630Y462799D02*
Y469689D01*
X127370Y462799D02*
Y469689D01*
X102630Y462799D02*
X106370D01*
X102630Y469689D02*
X106370D01*
X102630Y462799D02*
Y469689D01*
X106370Y462799D02*
Y469689D01*
X175630Y506346D02*
X179370D01*
X175630Y499654D02*
X179370D01*
Y506346D01*
X175630Y499654D02*
Y506346D01*
X175130Y426299D02*
X178870D01*
X175130Y433189D02*
X178870D01*
X175130Y426299D02*
Y433189D01*
X178870Y426299D02*
Y433189D01*
X174630Y485055D02*
X178370D01*
X174630Y491945D02*
X178370D01*
X174630Y485055D02*
Y491945D01*
X178370Y485055D02*
Y491945D01*
X162606Y507630D02*
Y511370D01*
X169299Y507630D02*
Y511370D01*
X162606D02*
X169299D01*
X162606Y507630D02*
X169299D01*
X180630Y374043D02*
X184370D01*
X180630Y380933D02*
X184370D01*
X180630Y374043D02*
Y380933D01*
X184370Y374043D02*
Y380933D01*
X157130Y487055D02*
X160870D01*
X157130Y493945D02*
X160870D01*
X157130Y487055D02*
Y493945D01*
X160870Y487055D02*
Y493945D01*
X136130Y487055D02*
X139870D01*
X136130Y493945D02*
X139870D01*
X136130Y487055D02*
Y493945D01*
X139870Y487055D02*
Y493945D01*
X235870Y511654D02*
Y518346D01*
X232130Y511654D02*
Y518346D01*
X235870D01*
X232130Y511654D02*
X235870D01*
X249370Y489701D02*
Y496394D01*
X245630Y489701D02*
Y496394D01*
X249370D01*
X245630Y489701D02*
X249370D01*
X662130Y303055D02*
X665870D01*
X662130Y309945D02*
X665870D01*
X662130Y303055D02*
Y309945D01*
X665870Y303055D02*
Y309945D01*
M02*
