G04 Layer_Color=32896*
%FSLAX25Y25*%
%MOIN*%
G70*
G01*
G75*
%ADD32C,0.01000*%
%ADD33C,0.00800*%
%ADD36C,0.05000*%
%ADD64C,0.00984*%
%ADD66C,0.00787*%
D32*
X338998Y359999D02*
X339998Y358999D01*
Y357000D01*
X338998Y356000D01*
X335000D01*
X334000Y357000D01*
Y358999D01*
X335000Y359999D01*
X339998Y361998D02*
Y365997D01*
X338998D01*
X335000Y361998D01*
X334000D01*
X327577Y363499D02*
X328577Y362499D01*
Y360500D01*
X327577Y359500D01*
X323578D01*
X322579Y360500D01*
Y362499D01*
X323578Y363499D01*
X322579Y368497D02*
X328577D01*
X325578Y365498D01*
Y369497D01*
X323578Y371496D02*
X322579Y372496D01*
Y374495D01*
X323578Y375495D01*
X327577D01*
X328577Y374495D01*
Y372496D01*
X327577Y371496D01*
X326577D01*
X325578Y372496D01*
Y375495D01*
X235999Y322002D02*
X234999Y321002D01*
X233000D01*
X232000Y322002D01*
Y326000D01*
X233000Y327000D01*
X234999D01*
X235999Y326000D01*
X241997Y321002D02*
X237998D01*
Y324001D01*
X239997Y323001D01*
X240997D01*
X241997Y324001D01*
Y326000D01*
X240997Y327000D01*
X238998D01*
X237998Y326000D01*
X260999Y310002D02*
X259999Y309002D01*
X258000D01*
X257000Y310002D01*
Y314000D01*
X258000Y315000D01*
X259999D01*
X260999Y314000D01*
X266997Y309002D02*
X262998D01*
Y312001D01*
X264997Y311001D01*
X265997D01*
X266997Y312001D01*
Y314000D01*
X265997Y315000D01*
X263998D01*
X262998Y314000D01*
X272995Y315000D02*
X268996D01*
X272995Y311001D01*
Y310002D01*
X271995Y309002D01*
X269996D01*
X268996Y310002D01*
X324999Y305002D02*
X323999Y304002D01*
X322000D01*
X321000Y305002D01*
Y309000D01*
X322000Y310000D01*
X323999D01*
X324999Y309000D01*
X329997Y310000D02*
Y304002D01*
X326998Y307001D01*
X330997D01*
X318999Y315002D02*
X317999Y314002D01*
X316000D01*
X315000Y315002D01*
Y319000D01*
X316000Y320000D01*
X317999D01*
X318999Y319000D01*
X320998Y315002D02*
X321998Y314002D01*
X323997D01*
X324997Y315002D01*
Y316001D01*
X323997Y317001D01*
X322997D01*
X323997D01*
X324997Y318001D01*
Y319000D01*
X323997Y320000D01*
X321998D01*
X320998Y319000D01*
X330995Y314002D02*
X328995Y315002D01*
X326996Y317001D01*
Y319000D01*
X327996Y320000D01*
X329995D01*
X330995Y319000D01*
Y318001D01*
X329995Y317001D01*
X326996D01*
X324999Y338002D02*
X323999Y337002D01*
X322000D01*
X321000Y338002D01*
Y342000D01*
X322000Y343000D01*
X323999D01*
X324999Y342000D01*
X326998Y338002D02*
X327998Y337002D01*
X329997D01*
X330997Y338002D01*
Y339001D01*
X329997Y340001D01*
X330997Y341001D01*
Y342000D01*
X329997Y343000D01*
X327998D01*
X326998Y342000D01*
Y341001D01*
X327998Y340001D01*
X326998Y339001D01*
Y338002D01*
X327998Y340001D02*
X329997D01*
X242999Y288002D02*
X241999Y287002D01*
X240000D01*
X239000Y288002D01*
Y292000D01*
X240000Y293000D01*
X241999D01*
X242999Y292000D01*
X248997Y287002D02*
X246997Y288002D01*
X244998Y290001D01*
Y292000D01*
X245998Y293000D01*
X247997D01*
X248997Y292000D01*
Y291001D01*
X247997Y290001D01*
X244998D01*
X250996Y287002D02*
X254995D01*
Y288002D01*
X250996Y292000D01*
Y293000D01*
X476999Y291002D02*
X475999Y290002D01*
X474000D01*
X473000Y291002D01*
Y295000D01*
X474000Y296000D01*
X475999D01*
X476999Y295000D01*
X478998Y296000D02*
X480997D01*
X479998D01*
Y290002D01*
X478998Y291002D01*
X483996D02*
X484996Y290002D01*
X486996D01*
X487995Y291002D01*
Y295000D01*
X486996Y296000D01*
X484996D01*
X483996Y295000D01*
Y291002D01*
X489994Y290002D02*
X493993D01*
Y291002D01*
X489994Y295000D01*
Y296000D01*
X420999Y396002D02*
X419999Y395002D01*
X418000D01*
X417000Y396002D01*
Y400000D01*
X418000Y401000D01*
X419999D01*
X420999Y400000D01*
X422998D02*
X423998Y401000D01*
X425997D01*
X426997Y400000D01*
Y396002D01*
X425997Y395002D01*
X423998D01*
X422998Y396002D01*
Y397001D01*
X423998Y398001D01*
X426997D01*
X428996Y396002D02*
X429996Y395002D01*
X431995D01*
X432995Y396002D01*
Y397001D01*
X431995Y398001D01*
X432995Y399001D01*
Y400000D01*
X431995Y401000D01*
X429996D01*
X428996Y400000D01*
Y399001D01*
X429996Y398001D01*
X428996Y397001D01*
Y396002D01*
X429996Y398001D02*
X431995D01*
X438999Y293002D02*
X437999Y292002D01*
X436000D01*
X435000Y293002D01*
Y297000D01*
X436000Y298000D01*
X437999D01*
X438999Y297000D01*
X440998Y298000D02*
X442997D01*
X441998D01*
Y292002D01*
X440998Y293002D01*
X445996D02*
X446996Y292002D01*
X448995D01*
X449995Y293002D01*
Y297000D01*
X448995Y298000D01*
X446996D01*
X445996Y297000D01*
Y293002D01*
X455993Y292002D02*
X453994Y293002D01*
X451995Y295001D01*
Y297000D01*
X452994Y298000D01*
X454993D01*
X455993Y297000D01*
Y296001D01*
X454993Y295001D01*
X451995D01*
X435999Y315002D02*
X434999Y314002D01*
X433000D01*
X432000Y315002D01*
Y319000D01*
X433000Y320000D01*
X434999D01*
X435999Y319000D01*
X437998Y320000D02*
X439997D01*
X438998D01*
Y314002D01*
X437998Y315002D01*
X442996D02*
X443996Y314002D01*
X445996D01*
X446995Y315002D01*
Y319000D01*
X445996Y320000D01*
X443996D01*
X442996Y319000D01*
Y315002D01*
X452993Y314002D02*
X448994D01*
Y317001D01*
X450994Y316001D01*
X451994D01*
X452993Y317001D01*
Y319000D01*
X451994Y320000D01*
X449994D01*
X448994Y319000D01*
X241999Y176702D02*
X240999Y175702D01*
X239000D01*
X238000Y176702D01*
Y180700D01*
X239000Y181700D01*
X240999D01*
X241999Y180700D01*
X243998D02*
X244998Y181700D01*
X246997D01*
X247997Y180700D01*
Y176702D01*
X246997Y175702D01*
X244998D01*
X243998Y176702D01*
Y177701D01*
X244998Y178701D01*
X247997D01*
X249996Y181700D02*
X251995D01*
X250996D01*
Y175702D01*
X249996Y176702D01*
X250899Y126102D02*
X249899Y125102D01*
X247900D01*
X246900Y126102D01*
Y130100D01*
X247900Y131100D01*
X249899D01*
X250899Y130100D01*
X252898D02*
X253898Y131100D01*
X255897D01*
X256897Y130100D01*
Y126102D01*
X255897Y125102D01*
X253898D01*
X252898Y126102D01*
Y127101D01*
X253898Y128101D01*
X256897D01*
X258896Y126102D02*
X259896Y125102D01*
X261895D01*
X262895Y126102D01*
Y130100D01*
X261895Y131100D01*
X259896D01*
X258896Y130100D01*
Y126102D01*
X255899Y134902D02*
X254899Y133902D01*
X252900D01*
X251900Y134902D01*
Y138900D01*
X252900Y139900D01*
X254899D01*
X255899Y138900D01*
X257898Y134902D02*
X258898Y133902D01*
X260897D01*
X261897Y134902D01*
Y135901D01*
X260897Y136901D01*
X261897Y137901D01*
Y138900D01*
X260897Y139900D01*
X258898D01*
X257898Y138900D01*
Y137901D01*
X258898Y136901D01*
X257898Y135901D01*
Y134902D01*
X258898Y136901D02*
X260897D01*
X263896Y138900D02*
X264896Y139900D01*
X266895D01*
X267895Y138900D01*
Y134902D01*
X266895Y133902D01*
X264896D01*
X263896Y134902D01*
Y135901D01*
X264896Y136901D01*
X267895D01*
X242499Y169002D02*
X241499Y168002D01*
X239500D01*
X238500Y169002D01*
Y173000D01*
X239500Y174000D01*
X241499D01*
X242499Y173000D01*
X244498Y169002D02*
X245498Y168002D01*
X247497D01*
X248497Y169002D01*
Y170001D01*
X247497Y171001D01*
X248497Y172001D01*
Y173000D01*
X247497Y174000D01*
X245498D01*
X244498Y173000D01*
Y172001D01*
X245498Y171001D01*
X244498Y170001D01*
Y169002D01*
X245498Y171001D02*
X247497D01*
X250496Y169002D02*
X251496Y168002D01*
X253495D01*
X254495Y169002D01*
Y170001D01*
X253495Y171001D01*
X254495Y172001D01*
Y173000D01*
X253495Y174000D01*
X251496D01*
X250496Y173000D01*
Y172001D01*
X251496Y171001D01*
X250496Y170001D01*
Y169002D01*
X251496Y171001D02*
X253495D01*
X241999Y161002D02*
X240999Y160002D01*
X239000D01*
X238000Y161002D01*
Y165000D01*
X239000Y166000D01*
X240999D01*
X241999Y165000D01*
X243998Y161002D02*
X244998Y160002D01*
X246997D01*
X247997Y161002D01*
Y162001D01*
X246997Y163001D01*
X247997Y164001D01*
Y165000D01*
X246997Y166000D01*
X244998D01*
X243998Y165000D01*
Y164001D01*
X244998Y163001D01*
X243998Y162001D01*
Y161002D01*
X244998Y163001D02*
X246997D01*
X249996Y160002D02*
X253995D01*
Y161002D01*
X249996Y165000D01*
Y166000D01*
X634498Y195755D02*
X635498Y194755D01*
Y192756D01*
X634498Y191756D01*
X630500D01*
X629500Y192756D01*
Y194755D01*
X630500Y195755D01*
X634498Y197754D02*
X635498Y198754D01*
Y200753D01*
X634498Y201753D01*
X633499D01*
X632499Y200753D01*
X631499Y201753D01*
X630500D01*
X629500Y200753D01*
Y198754D01*
X630500Y197754D01*
X631499D01*
X632499Y198754D01*
X633499Y197754D01*
X634498D01*
X632499Y198754D02*
Y200753D01*
X629500Y206751D02*
X635498D01*
X632499Y203752D01*
Y207751D01*
X313101Y391798D02*
X314101Y392798D01*
X316100D01*
X317100Y391798D01*
Y387800D01*
X316100Y386800D01*
X314101D01*
X313101Y387800D01*
X307103Y392798D02*
X309103Y391798D01*
X311102Y389799D01*
Y387800D01*
X310102Y386800D01*
X308103D01*
X307103Y387800D01*
Y388799D01*
X308103Y389799D01*
X311102D01*
X282998Y363599D02*
X283998Y362599D01*
Y360600D01*
X282998Y359600D01*
X279000D01*
X278000Y360600D01*
Y362599D01*
X279000Y363599D01*
Y365598D02*
X278000Y366598D01*
Y368597D01*
X279000Y369597D01*
X282998D01*
X283998Y368597D01*
Y366598D01*
X282998Y365598D01*
X281999D01*
X280999Y366598D01*
Y369597D01*
X345630Y284573D02*
X344630Y283574D01*
X342631D01*
X341631Y284573D01*
Y288572D01*
X342631Y289572D01*
X344630D01*
X345630Y288572D01*
X347629Y289572D02*
X349628D01*
X348628D01*
Y283574D01*
X347629Y284573D01*
X352627Y289572D02*
X354627D01*
X353627D01*
Y283574D01*
X352627Y284573D01*
X258102Y257501D02*
X257102Y258501D01*
Y260500D01*
X258102Y261500D01*
X262100D01*
X263100Y260500D01*
Y258501D01*
X262100Y257501D01*
X263100Y255502D02*
Y253503D01*
Y254502D01*
X257102D01*
X258102Y255502D01*
Y250504D02*
X257102Y249504D01*
Y247504D01*
X258102Y246505D01*
X259101D01*
X260101Y247504D01*
Y248504D01*
Y247504D01*
X261101Y246505D01*
X262100D01*
X263100Y247504D01*
Y249504D01*
X262100Y250504D01*
X319998Y276999D02*
X320998Y275999D01*
Y274000D01*
X319998Y273000D01*
X316000D01*
X315000Y274000D01*
Y275999D01*
X316000Y276999D01*
X315000Y282997D02*
Y278998D01*
X318999Y282997D01*
X319998D01*
X320998Y281997D01*
Y279998D01*
X319998Y278998D01*
X320998Y288995D02*
Y284996D01*
X317999D01*
X318999Y286996D01*
Y287995D01*
X317999Y288995D01*
X316000D01*
X315000Y287995D01*
Y285996D01*
X316000Y284996D01*
X348999Y269002D02*
X347999Y268002D01*
X346000D01*
X345000Y269002D01*
Y273000D01*
X346000Y274000D01*
X347999D01*
X348999Y273000D01*
X350998Y269002D02*
X351998Y268002D01*
X353997D01*
X354997Y269002D01*
Y270001D01*
X353997Y271001D01*
X352997D01*
X353997D01*
X354997Y272001D01*
Y273000D01*
X353997Y274000D01*
X351998D01*
X350998Y273000D01*
X359995Y274000D02*
Y268002D01*
X356996Y271001D01*
X360995D01*
X316999Y292002D02*
X315999Y291002D01*
X314000D01*
X313000Y292002D01*
Y296000D01*
X314000Y297000D01*
X315999D01*
X316999Y296000D01*
X318998Y292002D02*
X319998Y291002D01*
X321997D01*
X322997Y292002D01*
Y293001D01*
X321997Y294001D01*
X320997D01*
X321997D01*
X322997Y295001D01*
Y296000D01*
X321997Y297000D01*
X319998D01*
X318998Y296000D01*
X324996Y291002D02*
X328995D01*
Y292002D01*
X324996Y296000D01*
Y297000D01*
X386398Y374299D02*
X387398Y373299D01*
Y371300D01*
X386398Y370300D01*
X382400D01*
X381400Y371300D01*
Y373299D01*
X382400Y374299D01*
X386398Y376298D02*
X387398Y377298D01*
Y379297D01*
X386398Y380297D01*
X385399D01*
X384399Y379297D01*
Y378297D01*
Y379297D01*
X383399Y380297D01*
X382400D01*
X381400Y379297D01*
Y377298D01*
X382400Y376298D01*
X386398Y382296D02*
X387398Y383296D01*
Y385295D01*
X386398Y386295D01*
X385399D01*
X384399Y385295D01*
X383399Y386295D01*
X382400D01*
X381400Y385295D01*
Y383296D01*
X382400Y382296D01*
X383399D01*
X384399Y383296D01*
X385399Y382296D01*
X386398D01*
X384399Y383296D02*
Y385295D01*
X150298Y442099D02*
X151298Y441099D01*
Y439100D01*
X150298Y438100D01*
X146300D01*
X145300Y439100D01*
Y441099D01*
X146300Y442099D01*
X145300Y447097D02*
X151298D01*
X148299Y444098D01*
Y448097D01*
X145300Y450096D02*
Y452096D01*
Y451096D01*
X151298D01*
X150298Y450096D01*
X251298Y252299D02*
X252298Y251299D01*
Y249300D01*
X251298Y248300D01*
X247300D01*
X246300Y249300D01*
Y251299D01*
X247300Y252299D01*
X252298Y258297D02*
Y254298D01*
X249299D01*
X250299Y256297D01*
Y257297D01*
X249299Y258297D01*
X247300D01*
X246300Y257297D01*
Y255298D01*
X247300Y254298D01*
X246300Y260296D02*
Y262296D01*
Y261296D01*
X252298D01*
X251298Y260296D01*
X354399Y157702D02*
X353399Y156702D01*
X351400D01*
X350400Y157702D01*
Y161700D01*
X351400Y162700D01*
X353399D01*
X354399Y161700D01*
X360397Y156702D02*
X356398D01*
Y159701D01*
X358397Y158701D01*
X359397D01*
X360397Y159701D01*
Y161700D01*
X359397Y162700D01*
X357398D01*
X356398Y161700D01*
X362396D02*
X363396Y162700D01*
X365395D01*
X366395Y161700D01*
Y157702D01*
X365395Y156702D01*
X363396D01*
X362396Y157702D01*
Y158701D01*
X363396Y159701D01*
X366395D01*
X354899Y144302D02*
X353899Y143302D01*
X351900D01*
X350900Y144302D01*
Y148300D01*
X351900Y149300D01*
X353899D01*
X354899Y148300D01*
X360897Y143302D02*
X358897Y144302D01*
X356898Y146301D01*
Y148300D01*
X357898Y149300D01*
X359897D01*
X360897Y148300D01*
Y147301D01*
X359897Y146301D01*
X356898D01*
X362896Y144302D02*
X363896Y143302D01*
X365895D01*
X366895Y144302D01*
Y148300D01*
X365895Y149300D01*
X363896D01*
X362896Y148300D01*
Y144302D01*
X284298Y110099D02*
X285298Y109099D01*
Y107100D01*
X284298Y106100D01*
X280300D01*
X279300Y107100D01*
Y109099D01*
X280300Y110099D01*
X285298Y116097D02*
X284298Y114097D01*
X282299Y112098D01*
X280300D01*
X279300Y113098D01*
Y115097D01*
X280300Y116097D01*
X281299D01*
X282299Y115097D01*
Y112098D01*
X285298Y122095D02*
X284298Y120096D01*
X282299Y118096D01*
X280300D01*
X279300Y119096D01*
Y121095D01*
X280300Y122095D01*
X281299D01*
X282299Y121095D01*
Y118096D01*
X228999Y345002D02*
X227999Y344002D01*
X226000D01*
X225000Y345002D01*
Y349000D01*
X226000Y350000D01*
X227999D01*
X228999Y349000D01*
X234997Y344002D02*
X232997Y345002D01*
X230998Y347001D01*
Y349000D01*
X231998Y350000D01*
X233997D01*
X234997Y349000D01*
Y348001D01*
X233997Y347001D01*
X230998D01*
X236996Y345002D02*
X237996Y344002D01*
X239995D01*
X240995Y345002D01*
Y346001D01*
X239995Y347001D01*
X240995Y348001D01*
Y349000D01*
X239995Y350000D01*
X237996D01*
X236996Y349000D01*
Y348001D01*
X237996Y347001D01*
X236996Y346001D01*
Y345002D01*
X237996Y347001D02*
X239995D01*
X259998Y333999D02*
X260998Y332999D01*
Y331000D01*
X259998Y330000D01*
X256000D01*
X255000Y331000D01*
Y332999D01*
X256000Y333999D01*
X260998Y339997D02*
X259998Y337997D01*
X257999Y335998D01*
X256000D01*
X255000Y336998D01*
Y338997D01*
X256000Y339997D01*
X256999D01*
X257999Y338997D01*
Y335998D01*
X256000Y341996D02*
X255000Y342996D01*
Y344995D01*
X256000Y345995D01*
X259998D01*
X260998Y344995D01*
Y342996D01*
X259998Y341996D01*
X258999D01*
X257999Y342996D01*
Y345995D01*
X292998Y362999D02*
X293998Y361999D01*
Y360000D01*
X292998Y359000D01*
X289000D01*
X288000Y360000D01*
Y361999D01*
X289000Y362999D01*
X293998Y364998D02*
Y368997D01*
X292998D01*
X289000Y364998D01*
X288000D01*
X292998Y370996D02*
X293998Y371996D01*
Y373995D01*
X292998Y374995D01*
X289000D01*
X288000Y373995D01*
Y371996D01*
X289000Y370996D01*
X292998D01*
X298600Y123500D02*
Y117502D01*
X301599D01*
X302599Y118502D01*
Y120501D01*
X301599Y121501D01*
X298600D01*
X300599D02*
X302599Y123500D01*
X307597D02*
Y117502D01*
X304598Y120501D01*
X308597D01*
X310596Y118502D02*
X311596Y117502D01*
X313595D01*
X314595Y118502D01*
Y122500D01*
X313595Y123500D01*
X311596D01*
X310596Y122500D01*
Y118502D01*
X642998Y474499D02*
X643998Y473499D01*
Y471500D01*
X642998Y470500D01*
X639000D01*
X638000Y471500D01*
Y473499D01*
X639000Y474499D01*
X643998Y476498D02*
Y480497D01*
X642998D01*
X639000Y476498D01*
X638000D01*
X643998Y486495D02*
Y482496D01*
X640999D01*
X641999Y484495D01*
Y485495D01*
X640999Y486495D01*
X639000D01*
X638000Y485495D01*
Y483496D01*
X639000Y482496D01*
X568400Y440000D02*
Y434002D01*
X571399D01*
X572399Y435002D01*
Y437001D01*
X571399Y438001D01*
X568400D01*
X570399D02*
X572399Y440000D01*
X578397Y434002D02*
X574398D01*
Y437001D01*
X576397Y436001D01*
X577397D01*
X578397Y437001D01*
Y439000D01*
X577397Y440000D01*
X575398D01*
X574398Y439000D01*
X584395Y434002D02*
X580396D01*
Y437001D01*
X582396Y436001D01*
X583395D01*
X584395Y437001D01*
Y439000D01*
X583395Y440000D01*
X581396D01*
X580396Y439000D01*
X567300Y197700D02*
Y191702D01*
X570299D01*
X571299Y192702D01*
Y194701D01*
X570299Y195701D01*
X567300D01*
X569299D02*
X571299Y197700D01*
X577297Y191702D02*
X573298D01*
Y194701D01*
X575297Y193701D01*
X576297D01*
X577297Y194701D01*
Y196700D01*
X576297Y197700D01*
X574298D01*
X573298Y196700D01*
X583295Y191702D02*
X581295Y192702D01*
X579296Y194701D01*
Y196700D01*
X580296Y197700D01*
X582295D01*
X583295Y196700D01*
Y195701D01*
X582295Y194701D01*
X579296D01*
X214499Y554702D02*
X213499Y553702D01*
X211500D01*
X210500Y554702D01*
Y558700D01*
X211500Y559700D01*
X213499D01*
X214499Y558700D01*
X216498Y559700D02*
X218497D01*
X217498D01*
Y553702D01*
X216498Y554702D01*
X194999Y186402D02*
X193999Y185402D01*
X192000D01*
X191000Y186402D01*
Y190400D01*
X192000Y191400D01*
X193999D01*
X194999Y190400D01*
X200997Y191400D02*
X196998D01*
X200997Y187401D01*
Y186402D01*
X199997Y185402D01*
X197998D01*
X196998Y186402D01*
X486298Y566199D02*
X487298Y565199D01*
Y563200D01*
X486298Y562200D01*
X482300D01*
X481300Y563200D01*
Y565199D01*
X482300Y566199D01*
X481300Y568198D02*
Y570197D01*
Y569198D01*
X487298D01*
X486298Y568198D01*
X481300Y577195D02*
Y573196D01*
X485299Y577195D01*
X486298D01*
X487298Y576195D01*
Y574196D01*
X486298Y573196D01*
X467598Y369599D02*
X468598Y368599D01*
Y366600D01*
X467598Y365600D01*
X463600D01*
X462600Y366600D01*
Y368599D01*
X463600Y369599D01*
X462600Y371598D02*
Y373597D01*
Y372598D01*
X468598D01*
X467598Y371598D01*
Y376596D02*
X468598Y377596D01*
Y379595D01*
X467598Y380595D01*
X466599D01*
X465599Y379595D01*
X464599Y380595D01*
X463600D01*
X462600Y379595D01*
Y377596D01*
X463600Y376596D01*
X464599D01*
X465599Y377596D01*
X466599Y376596D01*
X467598D01*
X465599Y377596D02*
Y379595D01*
X265399Y452702D02*
X264399Y451702D01*
X262400D01*
X261400Y452702D01*
Y456700D01*
X262400Y457700D01*
X264399D01*
X265399Y456700D01*
X271397Y457700D02*
X267398D01*
X271397Y453701D01*
Y452702D01*
X270397Y451702D01*
X268398D01*
X267398Y452702D01*
X273396D02*
X274396Y451702D01*
X276395D01*
X277395Y452702D01*
Y456700D01*
X276395Y457700D01*
X274396D01*
X273396Y456700D01*
Y452702D01*
X158698Y502499D02*
X159698Y501499D01*
Y499500D01*
X158698Y498500D01*
X154700D01*
X153700Y499500D01*
Y501499D01*
X154700Y502499D01*
X153700Y508497D02*
Y504498D01*
X157699Y508497D01*
X158698D01*
X159698Y507497D01*
Y505498D01*
X158698Y504498D01*
X153700Y510496D02*
Y512496D01*
Y511496D01*
X159698D01*
X158698Y510496D01*
X534898Y67099D02*
X535898Y66099D01*
Y64100D01*
X534898Y63100D01*
X530900D01*
X529900Y64100D01*
Y66099D01*
X530900Y67099D01*
X534898Y69098D02*
X535898Y70098D01*
Y72097D01*
X534898Y73097D01*
X533899D01*
X532899Y72097D01*
Y71097D01*
Y72097D01*
X531899Y73097D01*
X530900D01*
X529900Y72097D01*
Y70098D01*
X530900Y69098D01*
X529900Y79095D02*
Y75096D01*
X533899Y79095D01*
X534898D01*
X535898Y78095D01*
Y76096D01*
X534898Y75096D01*
X468998Y327999D02*
X469998Y326999D01*
Y325000D01*
X468998Y324000D01*
X465000D01*
X464000Y325000D01*
Y326999D01*
X465000Y327999D01*
X468998Y329998D02*
X469998Y330998D01*
Y332997D01*
X468998Y333997D01*
X467999D01*
X466999Y332997D01*
Y331997D01*
Y332997D01*
X465999Y333997D01*
X465000D01*
X464000Y332997D01*
Y330998D01*
X465000Y329998D01*
X468998Y335996D02*
X469998Y336996D01*
Y338995D01*
X468998Y339995D01*
X467999D01*
X466999Y338995D01*
Y337996D01*
Y338995D01*
X465999Y339995D01*
X465000D01*
X464000Y338995D01*
Y336996D01*
X465000Y335996D01*
X82798Y394399D02*
X83798Y393399D01*
Y391400D01*
X82798Y390400D01*
X78800D01*
X77800Y391400D01*
Y393399D01*
X78800Y394399D01*
X82798Y396398D02*
X83798Y397398D01*
Y399397D01*
X82798Y400397D01*
X81799D01*
X80799Y399397D01*
Y398397D01*
Y399397D01*
X79799Y400397D01*
X78800D01*
X77800Y399397D01*
Y397398D01*
X78800Y396398D01*
Y402396D02*
X77800Y403396D01*
Y405395D01*
X78800Y406395D01*
X82798D01*
X83798Y405395D01*
Y403396D01*
X82798Y402396D01*
X81799D01*
X80799Y403396D01*
Y406395D01*
X93198Y392499D02*
X94198Y391499D01*
Y389500D01*
X93198Y388500D01*
X89200D01*
X88200Y389500D01*
Y391499D01*
X89200Y392499D01*
X88200Y397497D02*
X94198D01*
X91199Y394498D01*
Y398497D01*
X93198Y400496D02*
X94198Y401496D01*
Y403495D01*
X93198Y404495D01*
X89200D01*
X88200Y403495D01*
Y401496D01*
X89200Y400496D01*
X93198D01*
X104198Y390299D02*
X105198Y389299D01*
Y387300D01*
X104198Y386300D01*
X100200D01*
X99200Y387300D01*
Y389299D01*
X100200Y390299D01*
X99200Y395297D02*
X105198D01*
X102199Y392298D01*
Y396297D01*
X99200Y402295D02*
Y398296D01*
X103199Y402295D01*
X104198D01*
X105198Y401295D01*
Y399296D01*
X104198Y398296D01*
X160498Y439399D02*
X161498Y438399D01*
Y436400D01*
X160498Y435400D01*
X156500D01*
X155500Y436400D01*
Y438399D01*
X156500Y439399D01*
X155500Y444397D02*
X161498D01*
X158499Y441398D01*
Y445397D01*
X160498Y447396D02*
X161498Y448396D01*
Y450395D01*
X160498Y451395D01*
X159499D01*
X158499Y450395D01*
Y449396D01*
Y450395D01*
X157499Y451395D01*
X156500D01*
X155500Y450395D01*
Y448396D01*
X156500Y447396D01*
X146798Y387699D02*
X147798Y386699D01*
Y384700D01*
X146798Y383700D01*
X142800D01*
X141800Y384700D01*
Y386699D01*
X142800Y387699D01*
X141800Y392697D02*
X147798D01*
X144799Y389698D01*
Y393697D01*
X141800Y398695D02*
X147798D01*
X144799Y395696D01*
Y399695D01*
X137298Y387599D02*
X138298Y386599D01*
Y384600D01*
X137298Y383600D01*
X133300D01*
X132300Y384600D01*
Y386599D01*
X133300Y387599D01*
X132300Y392597D02*
X138298D01*
X135299Y389598D01*
Y393597D01*
X138298Y399595D02*
Y395596D01*
X135299D01*
X136299Y397596D01*
Y398595D01*
X135299Y399595D01*
X133300D01*
X132300Y398595D01*
Y396596D01*
X133300Y395596D01*
X128898Y387799D02*
X129898Y386799D01*
Y384800D01*
X128898Y383800D01*
X124900D01*
X123900Y384800D01*
Y386799D01*
X124900Y387799D01*
X123900Y392797D02*
X129898D01*
X126899Y389798D01*
Y393797D01*
X129898Y399795D02*
X128898Y397796D01*
X126899Y395796D01*
X124900D01*
X123900Y396796D01*
Y398795D01*
X124900Y399795D01*
X125899D01*
X126899Y398795D01*
Y395796D01*
X120598Y387899D02*
X121598Y386899D01*
Y384900D01*
X120598Y383900D01*
X116600D01*
X115600Y384900D01*
Y386899D01*
X116600Y387899D01*
X115600Y392897D02*
X121598D01*
X118599Y389898D01*
Y393897D01*
X121598Y395896D02*
Y399895D01*
X120598D01*
X116600Y395896D01*
X115600D01*
X112698Y388199D02*
X113698Y387199D01*
Y385200D01*
X112698Y384200D01*
X108700D01*
X107700Y385200D01*
Y387199D01*
X108700Y388199D01*
X107700Y393197D02*
X113698D01*
X110699Y390198D01*
Y394197D01*
X112698Y396196D02*
X113698Y397196D01*
Y399195D01*
X112698Y400195D01*
X111699D01*
X110699Y399195D01*
X109699Y400195D01*
X108700D01*
X107700Y399195D01*
Y397196D01*
X108700Y396196D01*
X109699D01*
X110699Y397196D01*
X111699Y396196D01*
X112698D01*
X110699Y397196D02*
Y399195D01*
X69598Y391799D02*
X70598Y390799D01*
Y388800D01*
X69598Y387800D01*
X65600D01*
X64600Y388800D01*
Y390799D01*
X65600Y391799D01*
X70598Y397797D02*
Y393798D01*
X67599D01*
X68599Y395797D01*
Y396797D01*
X67599Y397797D01*
X65600D01*
X64600Y396797D01*
Y394798D01*
X65600Y393798D01*
X69598Y399796D02*
X70598Y400796D01*
Y402795D01*
X69598Y403795D01*
X68599D01*
X67599Y402795D01*
Y401795D01*
Y402795D01*
X66599Y403795D01*
X65600D01*
X64600Y402795D01*
Y400796D01*
X65600Y399796D01*
X69698Y482799D02*
X70698Y481799D01*
Y479800D01*
X69698Y478800D01*
X65700D01*
X64700Y479800D01*
Y481799D01*
X65700Y482799D01*
X70698Y488797D02*
Y484798D01*
X67699D01*
X68699Y486797D01*
Y487797D01*
X67699Y488797D01*
X65700D01*
X64700Y487797D01*
Y485798D01*
X65700Y484798D01*
X64700Y493795D02*
X70698D01*
X67699Y490796D01*
Y494795D01*
X442498Y204599D02*
X443498Y203599D01*
Y201600D01*
X442498Y200600D01*
X438500D01*
X437500Y201600D01*
Y203599D01*
X438500Y204599D01*
X443498Y210597D02*
Y206598D01*
X440499D01*
X441499Y208597D01*
Y209597D01*
X440499Y210597D01*
X438500D01*
X437500Y209597D01*
Y207598D01*
X438500Y206598D01*
X443498Y216595D02*
X442498Y214596D01*
X440499Y212596D01*
X438500D01*
X437500Y213596D01*
Y215595D01*
X438500Y216595D01*
X439499D01*
X440499Y215595D01*
Y212596D01*
X432498Y205099D02*
X433498Y204099D01*
Y202100D01*
X432498Y201100D01*
X428500D01*
X427500Y202100D01*
Y204099D01*
X428500Y205099D01*
X433498Y211097D02*
Y207098D01*
X430499D01*
X431499Y209097D01*
Y210097D01*
X430499Y211097D01*
X428500D01*
X427500Y210097D01*
Y208098D01*
X428500Y207098D01*
X433498Y213096D02*
Y217095D01*
X432498D01*
X428500Y213096D01*
X427500D01*
X284098Y150799D02*
X285098Y149799D01*
Y147800D01*
X284098Y146800D01*
X280100D01*
X279100Y147800D01*
Y149799D01*
X280100Y150799D01*
X285098Y156797D02*
X284098Y154797D01*
X282099Y152798D01*
X280100D01*
X279100Y153798D01*
Y155797D01*
X280100Y156797D01*
X281099D01*
X282099Y155797D01*
Y152798D01*
X285098Y162795D02*
Y158796D01*
X282099D01*
X283099Y160795D01*
Y161795D01*
X282099Y162795D01*
X280100D01*
X279100Y161795D01*
Y159796D01*
X280100Y158796D01*
X509700Y79800D02*
X515698D01*
Y82799D01*
X514698Y83799D01*
X512699D01*
X511699Y82799D01*
Y79800D01*
Y81799D02*
X509700Y83799D01*
X514698Y85798D02*
X515698Y86798D01*
Y88797D01*
X514698Y89797D01*
X513699D01*
X512699Y88797D01*
Y87797D01*
Y88797D01*
X511699Y89797D01*
X510700D01*
X509700Y88797D01*
Y86798D01*
X510700Y85798D01*
X509500Y42300D02*
X515498D01*
Y45299D01*
X514498Y46299D01*
X512499D01*
X511499Y45299D01*
Y42300D01*
Y44299D02*
X509500Y46299D01*
Y51297D02*
X515498D01*
X512499Y48298D01*
Y52297D01*
X437800Y140800D02*
X443798D01*
Y143799D01*
X442798Y144799D01*
X440799D01*
X439799Y143799D01*
Y140800D01*
Y142799D02*
X437800Y144799D01*
X443798Y146798D02*
Y150797D01*
X442798D01*
X438800Y146798D01*
X437800D01*
X449200Y140200D02*
X455198D01*
Y143199D01*
X454198Y144199D01*
X452199D01*
X451199Y143199D01*
Y140200D01*
Y142199D02*
X449200Y144199D01*
X454198Y146198D02*
X455198Y147198D01*
Y149197D01*
X454198Y150197D01*
X453199D01*
X452199Y149197D01*
X451199Y150197D01*
X450200D01*
X449200Y149197D01*
Y147198D01*
X450200Y146198D01*
X451199D01*
X452199Y147198D01*
X453199Y146198D01*
X454198D01*
X452199Y147198D02*
Y149197D01*
X458200Y141353D02*
X464198D01*
Y144352D01*
X463198Y145352D01*
X461199D01*
X460199Y144352D01*
Y141353D01*
Y143352D02*
X458200Y145352D01*
X459200Y147351D02*
X458200Y148351D01*
Y150350D01*
X459200Y151349D01*
X463198D01*
X464198Y150350D01*
Y148351D01*
X463198Y147351D01*
X462199D01*
X461199Y148351D01*
Y151349D01*
X468200Y141000D02*
X474198D01*
Y143999D01*
X473198Y144999D01*
X471199D01*
X470199Y143999D01*
Y141000D01*
Y142999D02*
X468200Y144999D01*
Y146998D02*
Y148997D01*
Y147998D01*
X474198D01*
X473198Y146998D01*
Y151996D02*
X474198Y152996D01*
Y154996D01*
X473198Y155995D01*
X469200D01*
X468200Y154996D01*
Y152996D01*
X469200Y151996D01*
X473198D01*
X477800Y140953D02*
X483798D01*
Y143952D01*
X482798Y144951D01*
X480799D01*
X479799Y143952D01*
Y140953D01*
Y142952D02*
X477800Y144951D01*
Y146951D02*
Y148950D01*
Y147950D01*
X483798D01*
X482798Y146951D01*
X477800Y151949D02*
Y153949D01*
Y152949D01*
X483798D01*
X482798Y151949D01*
X488000Y141200D02*
X493998D01*
Y144199D01*
X492998Y145199D01*
X490999D01*
X489999Y144199D01*
Y141200D01*
Y143199D02*
X488000Y145199D01*
Y147198D02*
Y149197D01*
Y148198D01*
X493998D01*
X492998Y147198D01*
X488000Y156195D02*
Y152196D01*
X491999Y156195D01*
X492998D01*
X493998Y155195D01*
Y153196D01*
X492998Y152196D01*
X418000Y142953D02*
X423998D01*
Y145952D01*
X422998Y146951D01*
X420999D01*
X419999Y145952D01*
Y142953D01*
Y144952D02*
X418000Y146951D01*
Y148951D02*
Y150950D01*
Y149951D01*
X423998D01*
X422998Y148951D01*
Y153949D02*
X423998Y154949D01*
Y156948D01*
X422998Y157948D01*
X421999D01*
X420999Y156948D01*
Y155949D01*
Y156948D01*
X419999Y157948D01*
X419000D01*
X418000Y156948D01*
Y154949D01*
X419000Y153949D01*
X407800Y142600D02*
X413798D01*
Y145599D01*
X412798Y146599D01*
X410799D01*
X409799Y145599D01*
Y142600D01*
Y144599D02*
X407800Y146599D01*
Y148598D02*
Y150597D01*
Y149598D01*
X413798D01*
X412798Y148598D01*
X407800Y156596D02*
X413798D01*
X410799Y153596D01*
Y157595D01*
X91400Y573100D02*
Y567102D01*
X94399D01*
X95399Y568102D01*
Y570101D01*
X94399Y571101D01*
X91400D01*
X93399D02*
X95399Y573100D01*
X97398D02*
X99397D01*
X98398D01*
Y567102D01*
X97398Y568102D01*
X106395Y567102D02*
X102396D01*
Y570101D01*
X104396Y569101D01*
X105395D01*
X106395Y570101D01*
Y572100D01*
X105395Y573100D01*
X103396D01*
X102396Y572100D01*
X459600Y204400D02*
X465598D01*
Y207399D01*
X464598Y208399D01*
X462599D01*
X461599Y207399D01*
Y204400D01*
Y206399D02*
X459600Y208399D01*
Y213397D02*
X465598D01*
X462599Y210398D01*
Y214397D01*
X465598Y220395D02*
Y216396D01*
X462599D01*
X463599Y218395D01*
Y219395D01*
X462599Y220395D01*
X460600D01*
X459600Y219395D01*
Y217396D01*
X460600Y216396D01*
X446000Y204100D02*
X451998D01*
Y207099D01*
X450998Y208099D01*
X448999D01*
X447999Y207099D01*
Y204100D01*
Y206099D02*
X446000Y208099D01*
Y213097D02*
X451998D01*
X448999Y210098D01*
Y214097D01*
X451998Y220095D02*
X450998Y218095D01*
X448999Y216096D01*
X447000D01*
X446000Y217096D01*
Y219095D01*
X447000Y220095D01*
X447999D01*
X448999Y219095D01*
Y216096D01*
X632998Y473755D02*
X633998Y472755D01*
Y470756D01*
X632998Y469756D01*
X629000D01*
X628000Y470756D01*
Y472755D01*
X629000Y473755D01*
X632998Y475754D02*
X633998Y476754D01*
Y478753D01*
X632998Y479753D01*
X631999D01*
X630999Y478753D01*
X629999Y479753D01*
X629000D01*
X628000Y478753D01*
Y476754D01*
X629000Y475754D01*
X629999D01*
X630999Y476754D01*
X631999Y475754D01*
X632998D01*
X630999Y476754D02*
Y478753D01*
X632998Y481752D02*
X633998Y482752D01*
Y484751D01*
X632998Y485751D01*
X631999D01*
X630999Y484751D01*
Y483751D01*
Y484751D01*
X629999Y485751D01*
X629000D01*
X628000Y484751D01*
Y482752D01*
X629000Y481752D01*
X321898Y140299D02*
X322898Y139299D01*
Y137300D01*
X321898Y136300D01*
X317900D01*
X316900Y137300D01*
Y139299D01*
X317900Y140299D01*
Y142298D02*
X316900Y143298D01*
Y145297D01*
X317900Y146297D01*
X321898D01*
X322898Y145297D01*
Y143298D01*
X321898Y142298D01*
X320899D01*
X319899Y143298D01*
Y146297D01*
X316900Y152295D02*
Y148296D01*
X320899Y152295D01*
X321898D01*
X322898Y151295D01*
Y149296D01*
X321898Y148296D01*
X301998Y154499D02*
X302998Y153499D01*
Y151500D01*
X301998Y150500D01*
X298000D01*
X297000Y151500D01*
Y153499D01*
X298000Y154499D01*
Y156498D02*
X297000Y157498D01*
Y159497D01*
X298000Y160497D01*
X301998D01*
X302998Y159497D01*
Y157498D01*
X301998Y156498D01*
X300999D01*
X299999Y157498D01*
Y160497D01*
X301998Y162496D02*
X302998Y163496D01*
Y165495D01*
X301998Y166495D01*
X300999D01*
X299999Y165495D01*
Y164496D01*
Y165495D01*
X298999Y166495D01*
X298000D01*
X297000Y165495D01*
Y163496D01*
X298000Y162496D01*
X464000Y56499D02*
X467998D01*
X468998Y55499D01*
Y53500D01*
X467998Y52500D01*
X464000D01*
X463000Y53500D01*
Y55499D01*
X464999Y54499D02*
X463000Y56499D01*
Y55499D02*
X464000Y56499D01*
X463000Y58498D02*
Y60497D01*
Y59498D01*
X468998D01*
X467998Y58498D01*
X451000Y79500D02*
X456998D01*
Y82499D01*
X455998Y83499D01*
X453999D01*
X452999Y82499D01*
Y79500D01*
Y81499D02*
X451000Y83499D01*
X456998Y89497D02*
Y85498D01*
X453999D01*
X454999Y87497D01*
Y88497D01*
X453999Y89497D01*
X452000D01*
X451000Y88497D01*
Y86498D01*
X452000Y85498D01*
X456998Y91496D02*
Y95495D01*
X455998D01*
X452000Y91496D01*
X451000D01*
X102300Y135200D02*
Y129202D01*
X105299D01*
X106299Y130202D01*
Y132201D01*
X105299Y133201D01*
X102300D01*
X104299D02*
X106299Y135200D01*
X112297Y129202D02*
X108298D01*
Y132201D01*
X110297Y131201D01*
X111297D01*
X112297Y132201D01*
Y134200D01*
X111297Y135200D01*
X109298D01*
X108298Y134200D01*
X114296Y130202D02*
X115296Y129202D01*
X117295D01*
X118295Y130202D01*
Y131201D01*
X117295Y132201D01*
X118295Y133201D01*
Y134200D01*
X117295Y135200D01*
X115296D01*
X114296Y134200D01*
Y133201D01*
X115296Y132201D01*
X114296Y131201D01*
Y130202D01*
X115296Y132201D02*
X117295D01*
X97500Y317400D02*
Y311402D01*
X100499D01*
X101499Y312402D01*
Y314401D01*
X100499Y315401D01*
X97500D01*
X99499D02*
X101499Y317400D01*
X107497Y311402D02*
X105497Y312402D01*
X103498Y314401D01*
Y316400D01*
X104498Y317400D01*
X106497D01*
X107497Y316400D01*
Y315401D01*
X106497Y314401D01*
X103498D01*
X109496Y312402D02*
X110496Y311402D01*
X112495D01*
X113495Y312402D01*
Y316400D01*
X112495Y317400D01*
X110496D01*
X109496Y316400D01*
Y312402D01*
X98400Y255500D02*
Y249502D01*
X101399D01*
X102399Y250502D01*
Y252501D01*
X101399Y253501D01*
X98400D01*
X100399D02*
X102399Y255500D01*
X108397Y249502D02*
X106397Y250502D01*
X104398Y252501D01*
Y254500D01*
X105398Y255500D01*
X107397D01*
X108397Y254500D01*
Y253501D01*
X107397Y252501D01*
X104398D01*
X110396Y255500D02*
X112396D01*
X111396D01*
Y249502D01*
X110396Y250502D01*
X100500Y195600D02*
Y189602D01*
X103499D01*
X104499Y190602D01*
Y192601D01*
X103499Y193601D01*
X100500D01*
X102499D02*
X104499Y195600D01*
X110497Y189602D02*
X108497Y190602D01*
X106498Y192601D01*
Y194600D01*
X107498Y195600D01*
X109497D01*
X110497Y194600D01*
Y193601D01*
X109497Y192601D01*
X106498D01*
X116495Y195600D02*
X112496D01*
X116495Y191601D01*
Y190602D01*
X115495Y189602D01*
X113496D01*
X112496Y190602D01*
X551500Y61300D02*
Y55302D01*
X554499D01*
X555499Y56302D01*
Y58301D01*
X554499Y59301D01*
X551500D01*
X553499D02*
X555499Y61300D01*
X561497Y55302D02*
X559497Y56302D01*
X557498Y58301D01*
Y60300D01*
X558498Y61300D01*
X560497D01*
X561497Y60300D01*
Y59301D01*
X560497Y58301D01*
X557498D01*
X567495Y55302D02*
X563496D01*
Y58301D01*
X565495Y57301D01*
X566495D01*
X567495Y58301D01*
Y60300D01*
X566495Y61300D01*
X564496D01*
X563496Y60300D01*
X463200Y19700D02*
X469198D01*
Y22699D01*
X468198Y23699D01*
X466199D01*
X465199Y22699D01*
Y19700D01*
Y21699D02*
X463200Y23699D01*
X469198Y29697D02*
X468198Y27697D01*
X466199Y25698D01*
X464200D01*
X463200Y26698D01*
Y28697D01*
X464200Y29697D01*
X465199D01*
X466199Y28697D01*
Y25698D01*
X469198Y35695D02*
X468198Y33696D01*
X466199Y31696D01*
X464200D01*
X463200Y32696D01*
Y34695D01*
X464200Y35695D01*
X465199D01*
X466199Y34695D01*
Y31696D01*
X453000Y19400D02*
X458998D01*
Y22399D01*
X457998Y23399D01*
X455999D01*
X454999Y22399D01*
Y19400D01*
Y21399D02*
X453000Y23399D01*
X458998Y29397D02*
X457998Y27397D01*
X455999Y25398D01*
X454000D01*
X453000Y26398D01*
Y28397D01*
X454000Y29397D01*
X454999D01*
X455999Y28397D01*
Y25398D01*
X458998Y31396D02*
Y35395D01*
X457998D01*
X454000Y31396D01*
X453000D01*
X644998Y196999D02*
X645998Y195999D01*
Y194000D01*
X644998Y193000D01*
X641000D01*
X640000Y194000D01*
Y195999D01*
X641000Y196999D01*
X645998Y198998D02*
Y202997D01*
X644998D01*
X641000Y198998D01*
X640000D01*
X645998Y204996D02*
Y208995D01*
X644998D01*
X641000Y204996D01*
X640000D01*
X286599Y382902D02*
X285599Y381902D01*
X283600D01*
X282600Y382902D01*
Y386900D01*
X283600Y387900D01*
X285599D01*
X286599Y386900D01*
X288598Y382902D02*
X289598Y381902D01*
X291597D01*
X292597Y382902D01*
Y383901D01*
X291597Y384901D01*
X290597D01*
X291597D01*
X292597Y385901D01*
Y386900D01*
X291597Y387900D01*
X289598D01*
X288598Y386900D01*
X298595Y381902D02*
X294596D01*
Y384901D01*
X296596Y383901D01*
X297595D01*
X298595Y384901D01*
Y386900D01*
X297595Y387900D01*
X295596D01*
X294596Y386900D01*
X268399Y383202D02*
X267399Y382202D01*
X265400D01*
X264400Y383202D01*
Y387200D01*
X265400Y388200D01*
X267399D01*
X268399Y387200D01*
X274397Y382202D02*
X270398D01*
Y385201D01*
X272397Y384201D01*
X273397D01*
X274397Y385201D01*
Y387200D01*
X273397Y388200D01*
X271398D01*
X270398Y387200D01*
X280395Y382202D02*
X276396D01*
Y385201D01*
X278396Y384201D01*
X279395D01*
X280395Y385201D01*
Y387200D01*
X279395Y388200D01*
X277396D01*
X276396Y387200D01*
X286099Y452302D02*
X285099Y451302D01*
X283100D01*
X282100Y452302D01*
Y456300D01*
X283100Y457300D01*
X285099D01*
X286099Y456300D01*
X292097Y451302D02*
X288098D01*
Y454301D01*
X290097Y453301D01*
X291097D01*
X292097Y454301D01*
Y456300D01*
X291097Y457300D01*
X289098D01*
X288098Y456300D01*
X294096Y452302D02*
X295096Y451302D01*
X297095D01*
X298095Y452302D01*
Y453301D01*
X297095Y454301D01*
X298095Y455301D01*
Y456300D01*
X297095Y457300D01*
X295096D01*
X294096Y456300D01*
Y455301D01*
X295096Y454301D01*
X294096Y453301D01*
Y452302D01*
X295096Y454301D02*
X297095D01*
X345999Y447002D02*
X344999Y446002D01*
X343000D01*
X342000Y447002D01*
Y451000D01*
X343000Y452000D01*
X344999D01*
X345999Y451000D01*
X347998Y447002D02*
X348998Y446002D01*
X350997D01*
X351997Y447002D01*
Y448001D01*
X350997Y449001D01*
X351997Y450001D01*
Y451000D01*
X350997Y452000D01*
X348998D01*
X347998Y451000D01*
Y450001D01*
X348998Y449001D01*
X347998Y448001D01*
Y447002D01*
X348998Y449001D02*
X350997D01*
X353996Y447002D02*
X354996Y446002D01*
X356995D01*
X357995Y447002D01*
Y451000D01*
X356995Y452000D01*
X354996D01*
X353996Y451000D01*
Y447002D01*
X324599Y452102D02*
X323599Y451102D01*
X321600D01*
X320600Y452102D01*
Y456100D01*
X321600Y457100D01*
X323599D01*
X324599Y456100D01*
X326598D02*
X327598Y457100D01*
X329597D01*
X330597Y456100D01*
Y452102D01*
X329597Y451102D01*
X327598D01*
X326598Y452102D01*
Y453101D01*
X327598Y454101D01*
X330597D01*
X335595Y457100D02*
Y451102D01*
X332596Y454101D01*
X336595D01*
X348399Y382302D02*
X347399Y381302D01*
X345400D01*
X344400Y382302D01*
Y386300D01*
X345400Y387300D01*
X347399D01*
X348399Y386300D01*
X350398D02*
X351398Y387300D01*
X353397D01*
X354397Y386300D01*
Y382302D01*
X353397Y381302D01*
X351398D01*
X350398Y382302D01*
Y383301D01*
X351398Y384301D01*
X354397D01*
X360395Y381302D02*
X356396D01*
Y384301D01*
X358396Y383301D01*
X359395D01*
X360395Y384301D01*
Y386300D01*
X359395Y387300D01*
X357396D01*
X356396Y386300D01*
X428699Y440702D02*
X427699Y439702D01*
X425700D01*
X424700Y440702D01*
Y444700D01*
X425700Y445700D01*
X427699D01*
X428699Y444700D01*
X430698D02*
X431698Y445700D01*
X433697D01*
X434697Y444700D01*
Y440702D01*
X433697Y439702D01*
X431698D01*
X430698Y440702D01*
Y441701D01*
X431698Y442701D01*
X434697D01*
X440695Y439702D02*
X438695Y440702D01*
X436696Y442701D01*
Y444700D01*
X437696Y445700D01*
X439695D01*
X440695Y444700D01*
Y443701D01*
X439695Y442701D01*
X436696D01*
X391299Y446502D02*
X390299Y445502D01*
X388300D01*
X387300Y446502D01*
Y450500D01*
X388300Y451500D01*
X390299D01*
X391299Y450500D01*
X393298D02*
X394298Y451500D01*
X396297D01*
X397297Y450500D01*
Y446502D01*
X396297Y445502D01*
X394298D01*
X393298Y446502D01*
Y447501D01*
X394298Y448501D01*
X397297D01*
X399296Y445502D02*
X403295D01*
Y446502D01*
X399296Y450500D01*
Y451500D01*
X457998Y335999D02*
X458998Y334999D01*
Y333000D01*
X457998Y332000D01*
X454000D01*
X453000Y333000D01*
Y334999D01*
X454000Y335999D01*
X453000Y337998D02*
Y339997D01*
Y338998D01*
X458998D01*
X457998Y337998D01*
Y342996D02*
X458998Y343996D01*
Y345995D01*
X457998Y346995D01*
X454000D01*
X453000Y345995D01*
Y343996D01*
X454000Y342996D01*
X457998D01*
X453000Y352993D02*
Y348994D01*
X456999Y352993D01*
X457998D01*
X458998Y351993D01*
Y349994D01*
X457998Y348994D01*
X461998Y388999D02*
X462998Y387999D01*
Y386000D01*
X461998Y385000D01*
X458000D01*
X457000Y386000D01*
Y387999D01*
X458000Y388999D01*
X457000Y390998D02*
Y392997D01*
Y391998D01*
X462998D01*
X461998Y390998D01*
Y395996D02*
X462998Y396996D01*
Y398995D01*
X461998Y399995D01*
X458000D01*
X457000Y398995D01*
Y396996D01*
X458000Y395996D01*
X461998D01*
Y401995D02*
X462998Y402994D01*
Y404993D01*
X461998Y405993D01*
X460999D01*
X459999Y404993D01*
Y403994D01*
Y404993D01*
X458999Y405993D01*
X458000D01*
X457000Y404993D01*
Y402994D01*
X458000Y401995D01*
D33*
X245966Y86868D02*
X245299Y86201D01*
X243966D01*
X243300Y86868D01*
Y89534D01*
X243966Y90200D01*
X245299D01*
X245966Y89534D01*
X247299Y86868D02*
X247965Y86201D01*
X249298D01*
X249964Y86868D01*
Y87534D01*
X249298Y88201D01*
X249964Y88867D01*
Y89534D01*
X249298Y90200D01*
X247965D01*
X247299Y89534D01*
Y88867D01*
X247965Y88201D01*
X247299Y87534D01*
Y86868D01*
X247965Y88201D02*
X249298D01*
X253963Y86201D02*
X251297D01*
Y88201D01*
X252630Y87534D01*
X253297D01*
X253963Y88201D01*
Y89534D01*
X253297Y90200D01*
X251964D01*
X251297Y89534D01*
X267132Y285866D02*
X267799Y285199D01*
Y283866D01*
X267132Y283200D01*
X264466D01*
X263800Y283866D01*
Y285199D01*
X264466Y285866D01*
X263800Y287199D02*
Y288532D01*
Y287865D01*
X267799D01*
X267132Y287199D01*
X267799Y290531D02*
Y293197D01*
X267132D01*
X264466Y290531D01*
X263800D01*
X190666Y334668D02*
X189999Y334001D01*
X188666D01*
X188000Y334668D01*
Y337334D01*
X188666Y338000D01*
X189999D01*
X190666Y337334D01*
X194665Y338000D02*
X191999D01*
X194665Y335334D01*
Y334668D01*
X193998Y334001D01*
X192665D01*
X191999Y334668D01*
X198663Y338000D02*
X195997D01*
X198663Y335334D01*
Y334668D01*
X197997Y334001D01*
X196664D01*
X195997Y334668D01*
X181132Y324166D02*
X181799Y323499D01*
Y322166D01*
X181132Y321500D01*
X178466D01*
X177800Y322166D01*
Y323499D01*
X178466Y324166D01*
X177800Y328165D02*
Y325499D01*
X180466Y328165D01*
X181132D01*
X181799Y327498D01*
Y326165D01*
X181132Y325499D01*
X181799Y332163D02*
X181132Y330830D01*
X179799Y329497D01*
X178466D01*
X177800Y330164D01*
Y331497D01*
X178466Y332163D01*
X179133D01*
X179799Y331497D01*
Y329497D01*
X277666Y277668D02*
X276999Y277001D01*
X275666D01*
X275000Y277668D01*
Y280334D01*
X275666Y281000D01*
X276999D01*
X277666Y280334D01*
X281664Y281000D02*
X278999D01*
X281664Y278334D01*
Y277668D01*
X280998Y277001D01*
X279665D01*
X278999Y277668D01*
X282997Y280334D02*
X283664Y281000D01*
X284997D01*
X285663Y280334D01*
Y277668D01*
X284997Y277001D01*
X283664D01*
X282997Y277668D01*
Y278334D01*
X283664Y279001D01*
X285663D01*
X295232Y286166D02*
X295899Y285499D01*
Y284166D01*
X295232Y283500D01*
X292566D01*
X291900Y284166D01*
Y285499D01*
X292566Y286166D01*
X295232Y287499D02*
X295899Y288165D01*
Y289498D01*
X295232Y290164D01*
X294566D01*
X293899Y289498D01*
Y288832D01*
Y289498D01*
X293233Y290164D01*
X292566D01*
X291900Y289498D01*
Y288165D01*
X292566Y287499D01*
X291900Y291497D02*
Y292830D01*
Y292164D01*
X295899D01*
X295232Y291497D01*
X190600Y318900D02*
Y314901D01*
X192599D01*
X193266Y315568D01*
Y316901D01*
X192599Y317567D01*
X190600D01*
X191933D02*
X193266Y318900D01*
X194599D02*
X195932D01*
X195265D01*
Y314901D01*
X194599Y315568D01*
X276000Y300000D02*
Y296001D01*
X277999D01*
X278666Y296668D01*
Y298001D01*
X277999Y298667D01*
X276000D01*
X277333D02*
X278666Y300000D01*
X282664D02*
X279999D01*
X282664Y297334D01*
Y296668D01*
X281998Y296001D01*
X280665D01*
X279999Y296668D01*
X276800Y32000D02*
X280799D01*
Y33999D01*
X280132Y34666D01*
X278799D01*
X278133Y33999D01*
Y32000D01*
Y33333D02*
X276800Y34666D01*
Y37998D02*
X280799D01*
X278799Y35999D01*
Y38664D01*
X280132Y39997D02*
X280799Y40664D01*
Y41997D01*
X280132Y42663D01*
X279466D01*
X278799Y41997D01*
Y41330D01*
Y41997D01*
X278133Y42663D01*
X277466D01*
X276800Y41997D01*
Y40664D01*
X277466Y39997D01*
X262400Y32400D02*
X266399D01*
Y34399D01*
X265732Y35066D01*
X264399D01*
X263733Y34399D01*
Y32400D01*
Y33733D02*
X262400Y35066D01*
Y38398D02*
X266399D01*
X264399Y36399D01*
Y39064D01*
X262400Y42397D02*
X266399D01*
X264399Y40397D01*
Y43063D01*
X272232Y35766D02*
X272899Y35099D01*
Y33766D01*
X272232Y33100D01*
X269566D01*
X268900Y33766D01*
Y35099D01*
X269566Y35766D01*
X272232Y37099D02*
X272899Y37765D01*
Y39098D01*
X272232Y39764D01*
X271566D01*
X270899Y39098D01*
X270233Y39764D01*
X269566D01*
X268900Y39098D01*
Y37765D01*
X269566Y37099D01*
X270233D01*
X270899Y37765D01*
X271566Y37099D01*
X272232D01*
X270899Y37765D02*
Y39098D01*
X268900Y43763D02*
Y41097D01*
X271566Y43763D01*
X272232D01*
X272899Y43097D01*
Y41764D01*
X272232Y41097D01*
X208432Y325166D02*
X209099Y324499D01*
Y323166D01*
X208432Y322500D01*
X205766D01*
X205100Y323166D01*
Y324499D01*
X205766Y325166D01*
X205100Y326499D02*
Y327832D01*
Y327165D01*
X209099D01*
X208432Y326499D01*
X209099Y332497D02*
Y329831D01*
X207099D01*
X207766Y331164D01*
Y331830D01*
X207099Y332497D01*
X205766D01*
X205100Y331830D01*
Y330497D01*
X205766Y329831D01*
D36*
X735000Y-3000D02*
X753000D01*
Y14000D01*
X-3000Y653000D02*
X15000D01*
X-3000Y636000D02*
Y653000D01*
Y-3000D02*
X14000D01*
X-3000D02*
Y15000D01*
D64*
X461473Y52563D02*
G03*
X461473Y52563I-492J0D01*
G01*
D66*
X73920Y320102D02*
X88880D01*
X73920Y307898D02*
X88880D01*
X74720Y259502D02*
X89680D01*
X74720Y247298D02*
X89680D01*
X76720Y200102D02*
X91680D01*
X76720Y187898D02*
X91680D01*
X79620Y138002D02*
X94580D01*
X79620Y125798D02*
X94580D01*
X458378Y42213D02*
Y43787D01*
X455622Y42213D02*
Y43787D01*
X466378Y42213D02*
Y43787D01*
X463622Y42213D02*
Y43787D01*
X544213Y60678D02*
X545787D01*
X544213Y57922D02*
X545787D01*
X452622Y71213D02*
Y72787D01*
X455378Y71213D02*
Y72787D01*
X589665Y195878D02*
X591240D01*
X589665Y193122D02*
X591240D01*
X449522Y224113D02*
Y225687D01*
X452278Y224113D02*
Y225687D01*
X462422Y225113D02*
Y226687D01*
X465178Y225113D02*
Y226687D01*
X264122Y49713D02*
Y51287D01*
X266878Y49713D02*
Y51287D01*
X277122Y49713D02*
Y51287D01*
X279878Y49713D02*
Y51287D01*
X291513Y118722D02*
X293087D01*
X291513Y121478D02*
X293087D01*
X85322Y569313D02*
Y570887D01*
X88078Y569313D02*
Y570887D01*
X412378Y134813D02*
Y136387D01*
X409622Y134813D02*
Y136387D01*
X422578Y134813D02*
Y136387D01*
X419822Y134813D02*
Y136387D01*
X492378Y133613D02*
Y135187D01*
X489622Y133613D02*
Y135187D01*
X482178Y133413D02*
Y134987D01*
X479422Y133413D02*
Y134987D01*
X472778Y133013D02*
Y134587D01*
X470022Y133013D02*
Y134587D01*
X462778Y133413D02*
Y134987D01*
X460022Y133413D02*
Y134987D01*
X452578Y133213D02*
Y134787D01*
X449822Y133213D02*
Y134787D01*
X442378Y133413D02*
Y134987D01*
X439622Y133413D02*
Y134987D01*
X513978Y57613D02*
Y59187D01*
X511222Y57613D02*
Y59187D01*
X514178Y69213D02*
Y70787D01*
X511422Y69213D02*
Y70787D01*
X279313Y292878D02*
X280887D01*
X279313Y290122D02*
X280887D01*
X192213Y321522D02*
X193787D01*
X192213Y324278D02*
X193787D01*
X459248Y55850D02*
Y59059D01*
X456650D02*
X459248D01*
X447752Y55850D02*
Y59059D01*
X450350D01*
X590313Y435922D02*
X591887D01*
X590313Y438678D02*
X591887D01*
M02*
