G04 Layer_Color=255*
%FSLAX25Y25*%
%MOIN*%
G70*
G01*
G75*
%ADD10R,0.03150X0.03543*%
%ADD12R,0.03543X0.03150*%
%ADD16R,0.03543X0.02756*%
%ADD18R,0.02756X0.03543*%
%ADD29R,0.03150X0.03543*%
%ADD37C,0.05000*%
%ADD38C,0.06000*%
%ADD39R,0.04000X0.04000*%
%ADD40C,0.04000*%
%ADD41C,0.05905*%
%ADD42C,0.14000*%
%ADD43R,0.05905X0.05905*%
%ADD44C,0.06299*%
%ADD45C,0.04500*%
%ADD46R,0.06000X0.06000*%
%ADD47C,0.07000*%
%ADD48R,0.07000X0.07000*%
%ADD49C,0.05000*%
%ADD50C,0.06200*%
%ADD51R,0.06200X0.06200*%
%ADD52C,0.09000*%
%ADD53C,0.11000*%
%ADD54R,0.05905X0.05905*%
%ADD55C,0.08000*%
%ADD56C,0.15000*%
%ADD57R,0.06000X0.06000*%
%ADD58C,0.13780*%
%ADD59C,0.15748*%
%ADD60C,0.03400*%
%ADD61C,0.06600*%
%ADD62C,0.03937*%
%ADD64R,0.04331X0.12992*%
D10*
X414244Y441500D02*
D03*
X419756D02*
D03*
X391856Y441900D02*
D03*
X386344D02*
D03*
X354512Y442300D02*
D03*
X349000D02*
D03*
X332256Y446900D02*
D03*
X326744D02*
D03*
X354956Y390600D02*
D03*
X349444D02*
D03*
X271244Y391600D02*
D03*
X276756D02*
D03*
X292956Y391900D02*
D03*
X287444D02*
D03*
X292556Y446300D02*
D03*
X287044D02*
D03*
X196323Y329700D02*
D03*
X190811D02*
D03*
X338256Y271500D02*
D03*
X332744D02*
D03*
X246244Y347500D02*
D03*
X251756D02*
D03*
X270956Y447600D02*
D03*
X265444D02*
D03*
X338356Y291700D02*
D03*
X332844D02*
D03*
X207356Y557200D02*
D03*
X201844D02*
D03*
X199156Y182000D02*
D03*
X193644D02*
D03*
X321944Y389900D02*
D03*
X327456D02*
D03*
X338356Y286100D02*
D03*
X332844D02*
D03*
X282956Y284800D02*
D03*
X277444D02*
D03*
X79744Y410000D02*
D03*
X85256D02*
D03*
X91244Y409500D02*
D03*
X96756D02*
D03*
X101744Y407500D02*
D03*
X107256D02*
D03*
X72256D02*
D03*
X66744D02*
D03*
X257744Y88000D02*
D03*
X263256D02*
D03*
Y163500D02*
D03*
X257744D02*
D03*
X263256Y170000D02*
D03*
X257744D02*
D03*
X271244Y136500D02*
D03*
X276756D02*
D03*
X271244Y131000D02*
D03*
X276756D02*
D03*
X263256Y176200D02*
D03*
X257744D02*
D03*
X249244Y283000D02*
D03*
X254756D02*
D03*
X334244Y340000D02*
D03*
X339756D02*
D03*
X340256Y316500D02*
D03*
X334744D02*
D03*
Y307500D02*
D03*
X340256D02*
D03*
X247744Y311000D02*
D03*
X253256D02*
D03*
X245244Y323500D02*
D03*
X250756D02*
D03*
X340756Y352300D02*
D03*
X335244D02*
D03*
D12*
X283000Y265244D02*
D03*
Y270756D02*
D03*
X460600Y355788D02*
D03*
Y361300D02*
D03*
X458500Y374844D02*
D03*
Y380356D02*
D03*
X532700Y53244D02*
D03*
Y58756D02*
D03*
X184900Y323944D02*
D03*
Y329456D02*
D03*
X201700Y324300D02*
D03*
Y329812D02*
D03*
X271900Y285244D02*
D03*
Y290756D02*
D03*
X432900Y225556D02*
D03*
Y220044D02*
D03*
X392200Y390700D02*
D03*
Y385188D02*
D03*
X249000Y265744D02*
D03*
Y271256D02*
D03*
X290000Y355256D02*
D03*
Y349744D02*
D03*
X258500Y354256D02*
D03*
Y348744D02*
D03*
X281000Y355256D02*
D03*
Y349744D02*
D03*
X490700Y572600D02*
D03*
Y567088D02*
D03*
X259500Y265744D02*
D03*
Y271256D02*
D03*
X465800Y361356D02*
D03*
Y355844D02*
D03*
X156600Y515344D02*
D03*
Y520856D02*
D03*
X288200Y285444D02*
D03*
Y290956D02*
D03*
X150800Y455144D02*
D03*
Y460656D02*
D03*
X157100Y455144D02*
D03*
Y460656D02*
D03*
X141500Y408756D02*
D03*
Y403244D02*
D03*
X133000Y408756D02*
D03*
Y403244D02*
D03*
X126000Y408756D02*
D03*
Y403244D02*
D03*
X120000Y409256D02*
D03*
Y403744D02*
D03*
X113500Y409256D02*
D03*
Y403744D02*
D03*
X67500Y474656D02*
D03*
Y469144D02*
D03*
X440100Y225556D02*
D03*
Y220044D02*
D03*
X346200Y155644D02*
D03*
Y161156D02*
D03*
X345900Y149356D02*
D03*
Y143844D02*
D03*
X282400Y137844D02*
D03*
Y143356D02*
D03*
Y131956D02*
D03*
Y126444D02*
D03*
X640500Y460244D02*
D03*
Y465756D02*
D03*
X642500Y188256D02*
D03*
Y182744D02*
D03*
X272000Y53256D02*
D03*
Y47744D02*
D03*
X630500Y460244D02*
D03*
Y465756D02*
D03*
X631500Y188256D02*
D03*
Y182744D02*
D03*
X307500Y147000D02*
D03*
Y141488D02*
D03*
X301500Y147000D02*
D03*
Y141488D02*
D03*
X467500Y314488D02*
D03*
Y320000D02*
D03*
X318500Y264988D02*
D03*
Y270500D02*
D03*
X461200Y314944D02*
D03*
Y320456D02*
D03*
X459000Y293856D02*
D03*
Y288344D02*
D03*
X415000Y390756D02*
D03*
Y385244D02*
D03*
X464500Y296656D02*
D03*
Y291144D02*
D03*
X327500Y355256D02*
D03*
Y349744D02*
D03*
D16*
X512800Y72953D02*
D03*
Y67047D02*
D03*
X512600Y61353D02*
D03*
Y55447D02*
D03*
X441000Y137153D02*
D03*
Y131247D02*
D03*
X451200Y136953D02*
D03*
Y131047D02*
D03*
X461400Y137153D02*
D03*
Y131247D02*
D03*
X471400Y136753D02*
D03*
Y130847D02*
D03*
X480800Y137153D02*
D03*
Y131247D02*
D03*
X491000Y137353D02*
D03*
Y131447D02*
D03*
X421200Y138553D02*
D03*
Y132647D02*
D03*
X411000Y138553D02*
D03*
Y132647D02*
D03*
X86700Y567147D02*
D03*
Y573053D02*
D03*
X278500Y47547D02*
D03*
Y53453D02*
D03*
X265500Y47547D02*
D03*
Y53453D02*
D03*
X463800Y222947D02*
D03*
Y228853D02*
D03*
X450900Y221947D02*
D03*
Y227853D02*
D03*
X454000Y69047D02*
D03*
Y74953D02*
D03*
X465000Y45953D02*
D03*
Y40047D02*
D03*
X457000Y45953D02*
D03*
Y40047D02*
D03*
D18*
X594053Y437300D02*
D03*
X588147D02*
D03*
X195953Y322900D02*
D03*
X190047D02*
D03*
X277147Y291500D02*
D03*
X283053D02*
D03*
X295253Y120100D02*
D03*
X289347D02*
D03*
X587500Y194500D02*
D03*
X593406D02*
D03*
X542047Y59300D02*
D03*
X547953D02*
D03*
D29*
X453500Y60437D02*
D03*
X449760Y52563D02*
D03*
X457240D02*
D03*
D37*
X-3000Y-3000D02*
Y15000D01*
Y-3000D02*
X14000D01*
X-3000Y636000D02*
Y653000D01*
X15000D01*
X753000Y-3000D02*
Y14000D01*
X735000Y-3000D02*
X753000D01*
D38*
X603800Y596300D02*
D03*
Y605300D02*
D03*
Y615300D02*
D03*
X46700Y576100D02*
D03*
Y566100D02*
D03*
Y556100D02*
D03*
Y546100D02*
D03*
Y536100D02*
D03*
Y526100D02*
D03*
Y516100D02*
D03*
X263000Y69500D02*
D03*
X253000D02*
D03*
X249000Y98500D02*
D03*
X258000Y79500D02*
D03*
X259000Y98500D02*
D03*
X283000Y69500D02*
D03*
X273000D02*
D03*
X278000Y79500D02*
D03*
X268000D02*
D03*
X282000Y98500D02*
D03*
X292000D02*
D03*
X242600Y472000D02*
D03*
X490800Y431300D02*
D03*
X567900Y274700D02*
D03*
X198900Y164400D02*
D03*
X730000Y510000D02*
D03*
Y500000D02*
D03*
Y490000D02*
D03*
Y480000D02*
D03*
Y470000D02*
D03*
Y460000D02*
D03*
Y450000D02*
D03*
Y440000D02*
D03*
Y430000D02*
D03*
X700000Y510000D02*
D03*
Y500000D02*
D03*
Y490000D02*
D03*
Y480000D02*
D03*
Y470000D02*
D03*
Y460000D02*
D03*
Y450000D02*
D03*
Y440000D02*
D03*
Y430000D02*
D03*
Y420000D02*
D03*
Y410000D02*
D03*
Y400000D02*
D03*
Y390000D02*
D03*
Y370000D02*
D03*
Y380000D02*
D03*
Y360000D02*
D03*
Y350000D02*
D03*
Y340000D02*
D03*
Y330000D02*
D03*
Y320000D02*
D03*
Y310000D02*
D03*
Y300000D02*
D03*
Y290000D02*
D03*
X730000Y420000D02*
D03*
Y410000D02*
D03*
Y400000D02*
D03*
Y390000D02*
D03*
Y380000D02*
D03*
Y370000D02*
D03*
Y360000D02*
D03*
Y350000D02*
D03*
Y340000D02*
D03*
Y330000D02*
D03*
Y320000D02*
D03*
Y310000D02*
D03*
Y300000D02*
D03*
Y290000D02*
D03*
X700000Y280000D02*
D03*
Y270000D02*
D03*
Y260000D02*
D03*
Y240000D02*
D03*
Y250000D02*
D03*
X730000Y280000D02*
D03*
Y270000D02*
D03*
Y260000D02*
D03*
Y250000D02*
D03*
Y240000D02*
D03*
X700000Y100000D02*
D03*
Y90000D02*
D03*
Y110000D02*
D03*
Y120000D02*
D03*
Y130000D02*
D03*
Y140000D02*
D03*
Y150000D02*
D03*
Y160000D02*
D03*
Y170000D02*
D03*
Y180000D02*
D03*
Y190000D02*
D03*
Y200000D02*
D03*
Y210000D02*
D03*
Y220000D02*
D03*
Y230000D02*
D03*
X730000Y100000D02*
D03*
Y90000D02*
D03*
Y110000D02*
D03*
Y120000D02*
D03*
Y130000D02*
D03*
Y140000D02*
D03*
Y150000D02*
D03*
Y160000D02*
D03*
Y170000D02*
D03*
Y180000D02*
D03*
Y190000D02*
D03*
Y200000D02*
D03*
Y210000D02*
D03*
Y220000D02*
D03*
Y230000D02*
D03*
X700000Y520000D02*
D03*
Y530000D02*
D03*
Y540000D02*
D03*
Y550000D02*
D03*
Y560000D02*
D03*
Y570000D02*
D03*
Y580000D02*
D03*
Y590000D02*
D03*
X730000Y520000D02*
D03*
Y530000D02*
D03*
Y540000D02*
D03*
Y550000D02*
D03*
Y560000D02*
D03*
Y570000D02*
D03*
Y580000D02*
D03*
Y590000D02*
D03*
X504300Y413300D02*
D03*
X575000Y73800D02*
D03*
D39*
X211400Y182400D02*
D03*
X138000Y521000D02*
D03*
X523200Y40400D02*
D03*
D40*
X211400Y192400D02*
D03*
Y202400D02*
D03*
Y212400D02*
D03*
X181400D02*
D03*
Y202400D02*
D03*
Y192400D02*
D03*
Y182400D02*
D03*
X138000Y511000D02*
D03*
Y501000D02*
D03*
Y491000D02*
D03*
Y481000D02*
D03*
Y471000D02*
D03*
Y461000D02*
D03*
Y451000D02*
D03*
Y441000D02*
D03*
Y431000D02*
D03*
X168000D02*
D03*
Y441000D02*
D03*
Y451000D02*
D03*
Y461000D02*
D03*
Y471000D02*
D03*
Y481000D02*
D03*
Y491000D02*
D03*
Y501000D02*
D03*
Y511000D02*
D03*
Y521000D02*
D03*
X493200Y40400D02*
D03*
Y50400D02*
D03*
Y60400D02*
D03*
Y70400D02*
D03*
X523200Y60400D02*
D03*
Y70400D02*
D03*
Y50400D02*
D03*
D41*
X75815Y561000D02*
D03*
X95500D02*
D03*
X75815Y580685D02*
D03*
X95500D02*
D03*
X381800Y68600D02*
D03*
X391800D02*
D03*
X552315Y42000D02*
D03*
Y22315D02*
D03*
X572000D02*
D03*
Y42000D02*
D03*
X247000Y504500D02*
D03*
X257000D02*
D03*
X267000D02*
D03*
X247000Y514500D02*
D03*
X257000D02*
D03*
X267000D02*
D03*
X277000D02*
D03*
X297000Y504500D02*
D03*
X277000D02*
D03*
X287000D02*
D03*
X307000D02*
D03*
Y514500D02*
D03*
X287000D02*
D03*
X297000D02*
D03*
X317000Y504500D02*
D03*
X370000Y459500D02*
D03*
X380000D02*
D03*
X390000D02*
D03*
X370000Y469500D02*
D03*
X380000D02*
D03*
X390000D02*
D03*
X400000D02*
D03*
X420000Y459500D02*
D03*
X400000D02*
D03*
X410000D02*
D03*
X430000D02*
D03*
Y469500D02*
D03*
X410000D02*
D03*
X420000D02*
D03*
X440000Y459500D02*
D03*
X395500Y188000D02*
D03*
Y178000D02*
D03*
Y198000D02*
D03*
X378500Y179000D02*
D03*
Y189000D02*
D03*
X521900Y130900D02*
D03*
Y140900D02*
D03*
Y160900D02*
D03*
Y150900D02*
D03*
Y170900D02*
D03*
Y190900D02*
D03*
Y180900D02*
D03*
X531900Y150900D02*
D03*
Y130900D02*
D03*
Y140900D02*
D03*
Y160900D02*
D03*
Y180900D02*
D03*
Y170900D02*
D03*
Y190900D02*
D03*
Y200900D02*
D03*
X563800Y103500D02*
D03*
Y113500D02*
D03*
Y133500D02*
D03*
Y123500D02*
D03*
Y143500D02*
D03*
Y163500D02*
D03*
Y153500D02*
D03*
X573800Y123500D02*
D03*
Y103500D02*
D03*
Y113500D02*
D03*
Y133500D02*
D03*
Y153500D02*
D03*
Y143500D02*
D03*
Y163500D02*
D03*
Y173500D02*
D03*
X411000Y113000D02*
D03*
X451000D02*
D03*
X421000D02*
D03*
X441000D02*
D03*
X431000D02*
D03*
X411000Y123000D02*
D03*
X421000D02*
D03*
X431000D02*
D03*
X441000D02*
D03*
X451000D02*
D03*
X481000Y113000D02*
D03*
X461000D02*
D03*
X471000D02*
D03*
X491000D02*
D03*
X481000Y123000D02*
D03*
X491000D02*
D03*
X461000D02*
D03*
X471000D02*
D03*
X501000Y113000D02*
D03*
X313000Y471000D02*
D03*
Y481000D02*
D03*
X323000D02*
D03*
X333000Y471000D02*
D03*
X323000D02*
D03*
X343000D02*
D03*
X333000Y481000D02*
D03*
X30800Y127400D02*
D03*
Y117400D02*
D03*
Y107400D02*
D03*
Y97400D02*
D03*
Y87400D02*
D03*
D42*
X30000Y30000D02*
D03*
X720000D02*
D03*
Y620000D02*
D03*
X30000D02*
D03*
X378000Y120000D02*
D03*
X536000Y105000D02*
D03*
X340000Y535000D02*
D03*
D43*
X371800Y68600D02*
D03*
X317000Y514500D02*
D03*
X440000Y469500D02*
D03*
X501000Y123000D02*
D03*
X343000Y481000D02*
D03*
D44*
X135315Y599315D02*
D03*
X155000D02*
D03*
Y619000D02*
D03*
X174685Y628842D02*
D03*
X135315D02*
D03*
X174685Y619000D02*
D03*
X135315D02*
D03*
X174685Y599315D02*
D03*
X164842D02*
D03*
X145157D02*
D03*
X190630Y599473D02*
D03*
X210315D02*
D03*
Y619158D02*
D03*
X230000Y629000D02*
D03*
X190630D02*
D03*
X230000Y619158D02*
D03*
X190630D02*
D03*
X230000Y599473D02*
D03*
X220158D02*
D03*
X200473D02*
D03*
D45*
X332700Y142100D02*
D03*
Y161300D02*
D03*
X164200Y279400D02*
D03*
X177776Y265824D02*
D03*
D46*
X46700Y586100D02*
D03*
D47*
X83900Y298300D02*
D03*
Y288300D02*
D03*
X84300Y238700D02*
D03*
Y228700D02*
D03*
X84200Y179000D02*
D03*
Y169000D02*
D03*
X84100Y116400D02*
D03*
Y106400D02*
D03*
D48*
X83900Y278300D02*
D03*
X84300Y218700D02*
D03*
X84200Y159000D02*
D03*
X84100Y96400D02*
D03*
D49*
X456200Y554600D02*
D03*
X466200Y544600D02*
D03*
X456200Y564600D02*
D03*
X476200Y544600D02*
D03*
X466200Y554600D02*
D03*
X486200D02*
D03*
X476200D02*
D03*
X456200Y574600D02*
D03*
X466200Y564600D02*
D03*
X456200Y584600D02*
D03*
X466200Y574600D02*
D03*
Y584600D02*
D03*
X476200D02*
D03*
Y594600D02*
D03*
X466200D02*
D03*
X486200Y544600D02*
D03*
X496200D02*
D03*
Y554600D02*
D03*
X506200Y544600D02*
D03*
Y554600D02*
D03*
X516200D02*
D03*
X506200Y564600D02*
D03*
X516200D02*
D03*
X486200Y584600D02*
D03*
X496200D02*
D03*
X486200Y594600D02*
D03*
X506200D02*
D03*
X496200D02*
D03*
X506200Y574600D02*
D03*
X516200D02*
D03*
X506200Y584600D02*
D03*
X516200D02*
D03*
X413800Y188700D02*
D03*
X423800D02*
D03*
X413800Y198700D02*
D03*
X423800Y208700D02*
D03*
X413800D02*
D03*
X433800Y178700D02*
D03*
X423800D02*
D03*
Y198700D02*
D03*
X443800Y188700D02*
D03*
X433800D02*
D03*
X413800Y218700D02*
D03*
X423800D02*
D03*
X413800Y228700D02*
D03*
Y238700D02*
D03*
X423800Y228700D02*
D03*
Y248700D02*
D03*
Y238700D02*
D03*
X443800D02*
D03*
X433800D02*
D03*
X443800Y248700D02*
D03*
X433800D02*
D03*
X443800Y178700D02*
D03*
X463800D02*
D03*
X453800D02*
D03*
Y188700D02*
D03*
X473800Y178700D02*
D03*
X463800Y188700D02*
D03*
X473800D02*
D03*
X483800D02*
D03*
X473800Y198700D02*
D03*
X483800D02*
D03*
X463800Y238700D02*
D03*
X473800Y208700D02*
D03*
Y228700D02*
D03*
X453800Y238700D02*
D03*
X463800Y248700D02*
D03*
X453800D02*
D03*
X473800Y218700D02*
D03*
X483800Y208700D02*
D03*
Y218700D02*
D03*
X473800Y238700D02*
D03*
Y248700D02*
D03*
X483800Y228700D02*
D03*
Y238700D02*
D03*
D50*
X611300Y187700D02*
D03*
Y197700D02*
D03*
Y227700D02*
D03*
Y207700D02*
D03*
Y217700D02*
D03*
Y247700D02*
D03*
Y237700D02*
D03*
Y267700D02*
D03*
Y257700D02*
D03*
Y287700D02*
D03*
Y277700D02*
D03*
Y297700D02*
D03*
Y357700D02*
D03*
Y347700D02*
D03*
Y377700D02*
D03*
Y367700D02*
D03*
Y317700D02*
D03*
Y307700D02*
D03*
Y327700D02*
D03*
Y337700D02*
D03*
Y447700D02*
D03*
Y437700D02*
D03*
Y467700D02*
D03*
Y457700D02*
D03*
Y397700D02*
D03*
Y387700D02*
D03*
Y427700D02*
D03*
Y407700D02*
D03*
Y417700D02*
D03*
D51*
Y177700D02*
D03*
D52*
Y140200D02*
D03*
D53*
Y505200D02*
D03*
D54*
X395500Y208000D02*
D03*
X378500Y199000D02*
D03*
X521900Y200900D02*
D03*
X563800Y173500D02*
D03*
X30800Y77400D02*
D03*
D55*
X239800Y56500D02*
D03*
X301200D02*
D03*
D56*
X248000Y44500D02*
D03*
X293000D02*
D03*
D57*
X288000Y79500D02*
D03*
D58*
X85300Y31000D02*
D03*
X103300Y44000D02*
D03*
D59*
X85300Y54500D02*
D03*
D60*
X199000Y294000D02*
D03*
Y298300D02*
D03*
D61*
X23595Y408323D02*
D03*
X159816D02*
D03*
D62*
X44461Y416000D02*
D03*
X50367D02*
D03*
X68083D02*
D03*
X56272D02*
D03*
X62178D02*
D03*
X73989D02*
D03*
X79894D02*
D03*
X133044D02*
D03*
X121233D02*
D03*
X127139D02*
D03*
X138950D02*
D03*
X97611D02*
D03*
X85800D02*
D03*
X91706D02*
D03*
X115328D02*
D03*
X103517D02*
D03*
X109422D02*
D03*
D64*
X75880Y131900D02*
D03*
X98320D02*
D03*
X72980Y194000D02*
D03*
X95420D02*
D03*
X70980Y253400D02*
D03*
X93420D02*
D03*
X70180Y314000D02*
D03*
X92620D02*
D03*
M02*
