G04 Layer_Color=32768*
%FSLAX25Y25*%
%MOIN*%
G70*
G01*
G75*
%ADD101C,0.00394*%
%ADD102C,0.00197*%
D101*
X205417Y429075D02*
Y433012D01*
X203449Y431043D02*
X207386D01*
X204435Y381876D02*
X208765D01*
X204435Y391324D02*
X208765D01*
X204435Y381876D02*
Y391324D01*
X208765Y381876D02*
Y391324D01*
X206600Y384730D02*
Y388470D01*
X204730Y386600D02*
X208470D01*
X194235Y350124D02*
X198565D01*
X194235Y340676D02*
X198565D01*
Y350124D01*
X194235Y340676D02*
Y350124D01*
X196400Y343530D02*
Y347270D01*
X194530Y345400D02*
X198270D01*
X203835Y348476D02*
X208165D01*
X203835Y357924D02*
X208165D01*
X203835Y348476D02*
Y357924D01*
X208165Y348476D02*
Y357924D01*
X206000Y351330D02*
Y355070D01*
X204130Y353200D02*
X207870D01*
X204235Y343924D02*
X208565D01*
X204235Y334476D02*
X208565D01*
Y343924D01*
X204235Y334476D02*
Y343924D01*
X206400Y337330D02*
Y341070D01*
X204530Y339200D02*
X208270D01*
X195435Y386324D02*
X199765D01*
X195435Y376876D02*
X199765D01*
Y386324D01*
X195435Y376876D02*
Y386324D01*
X197600Y379730D02*
Y383470D01*
X195730Y381600D02*
X199470D01*
X204435Y380369D02*
X208765D01*
X204435Y370920D02*
X208765D01*
Y380369D01*
X204435Y370920D02*
Y380369D01*
X206600Y373774D02*
Y377514D01*
X204730Y375644D02*
X208470D01*
X214969Y479035D02*
Y483365D01*
X205520Y479035D02*
Y483365D01*
Y479035D02*
X214969D01*
X205520Y483365D02*
X214969D01*
X208374Y481200D02*
X212114D01*
X210244Y479330D02*
Y483070D01*
X204400Y497631D02*
Y501569D01*
X202432Y499600D02*
X206369D01*
X204400Y463031D02*
Y466969D01*
X202432Y465000D02*
X206369D01*
X189876Y514235D02*
Y518565D01*
X199324Y514235D02*
Y518565D01*
X189876D02*
X199324D01*
X189876Y514235D02*
X199324D01*
X192730Y516400D02*
X196470D01*
X194600Y514530D02*
Y518270D01*
X64276Y351835D02*
Y356165D01*
X73724Y351835D02*
Y356165D01*
X64276Y351835D02*
X73724D01*
X64276Y356165D02*
X73724D01*
X67130Y354000D02*
X70870D01*
X69000Y352130D02*
Y355870D01*
X510435Y53676D02*
X514765D01*
X510435Y63124D02*
X514765D01*
Y53676D02*
Y63124D01*
X510435Y53676D02*
Y63124D01*
X512600Y56530D02*
Y60270D01*
X510730Y58400D02*
X514470D01*
X510635Y65276D02*
X514965D01*
X510635Y74724D02*
X514965D01*
Y65276D02*
Y74724D01*
X510635Y65276D02*
Y74724D01*
X512800Y68130D02*
Y71870D01*
X510930Y70000D02*
X514670D01*
X474035Y410924D02*
X478365D01*
X474035Y401476D02*
X478365D01*
X474035D02*
Y410924D01*
X478365Y401476D02*
Y410924D01*
X476200Y404330D02*
Y408070D01*
X474330Y406200D02*
X478070D01*
X490635Y410124D02*
X494965D01*
X490635Y400676D02*
X494965D01*
X490635D02*
Y410124D01*
X494965Y400676D02*
Y410124D01*
X492800Y403530D02*
Y407270D01*
X490930Y405400D02*
X494670D01*
X203232Y445235D02*
Y449565D01*
X212680Y445235D02*
Y449565D01*
X203232D02*
X212680D01*
X203232Y445235D02*
X212680D01*
X206086Y447400D02*
X209826D01*
X207956Y445530D02*
Y449270D01*
X190076Y478835D02*
Y483165D01*
X199524Y478835D02*
Y483165D01*
X190076D02*
X199524D01*
X190076Y478835D02*
X199524D01*
X192930Y481000D02*
X196670D01*
X194800Y479130D02*
Y482870D01*
X139435Y47876D02*
X143765D01*
X139435Y57324D02*
X143765D01*
X139435Y47876D02*
Y57324D01*
X143765Y47876D02*
Y57324D01*
X141600Y50730D02*
Y54470D01*
X139730Y52600D02*
X143470D01*
X151035Y46720D02*
X155365D01*
X151035Y56169D02*
X155365D01*
X151035Y46720D02*
Y56169D01*
X155365Y46720D02*
Y56169D01*
X153200Y49574D02*
Y53314D01*
X151330Y51444D02*
X155070D01*
X163435Y47076D02*
X167765D01*
X163435Y56524D02*
X167765D01*
X163435Y47076D02*
Y56524D01*
X167765Y47076D02*
Y56524D01*
X165600Y49930D02*
Y53670D01*
X163730Y51800D02*
X167470D01*
X174835Y47276D02*
X179165D01*
X174835Y56724D02*
X179165D01*
X174835Y47276D02*
Y56724D01*
X179165Y47276D02*
Y56724D01*
X177000Y50130D02*
Y53870D01*
X175130Y52000D02*
X178870D01*
X210524Y514235D02*
Y518565D01*
X201076Y514235D02*
Y518565D01*
Y514235D02*
X210524D01*
X201076Y518565D02*
X210524D01*
X203930Y516400D02*
X207670D01*
X205800Y514530D02*
Y518270D01*
X186835Y46076D02*
X191165D01*
X186835Y55524D02*
X191165D01*
X186835Y46076D02*
Y55524D01*
X191165Y46076D02*
Y55524D01*
X189000Y48930D02*
Y52670D01*
X187130Y50800D02*
X190870D01*
X199876Y555035D02*
Y559365D01*
X209324Y555035D02*
Y559365D01*
X199876Y555035D02*
X209324D01*
X199876Y559365D02*
X209324D01*
X202730Y557200D02*
X206470D01*
X204600Y555330D02*
Y559070D01*
X73035Y610324D02*
X77365D01*
X73035Y600876D02*
X77365D01*
X73035D02*
Y610324D01*
X77365Y600876D02*
Y610324D01*
X75200Y603730D02*
Y607470D01*
X73330Y605600D02*
X77070D01*
X154476Y543035D02*
Y547365D01*
X163924Y543035D02*
Y547365D01*
X154476D02*
X163924D01*
X154476Y543035D02*
X163924D01*
X157330Y545200D02*
X161070D01*
X159200Y543330D02*
Y547070D01*
X164077Y551635D02*
Y555965D01*
X154628Y551635D02*
Y555965D01*
Y551635D02*
X164077D01*
X154628Y555965D02*
X164077D01*
X157483Y553800D02*
X161223D01*
X159353Y551930D02*
Y555670D01*
X135876Y546635D02*
Y550965D01*
X145324Y546635D02*
Y550965D01*
X135876D02*
X145324D01*
X135876Y546635D02*
X145324D01*
X138730Y548800D02*
X142470D01*
X140600Y546930D02*
Y550670D01*
X136276Y554435D02*
Y558765D01*
X145724Y554435D02*
Y558765D01*
X136276D02*
X145724D01*
X136276Y554435D02*
X145724D01*
X139130Y556600D02*
X142870D01*
X141000Y554730D02*
Y558470D01*
X145724Y560835D02*
Y565165D01*
X136276Y560835D02*
Y565165D01*
Y560835D02*
X145724D01*
X136276Y565165D02*
X145724D01*
X139130Y563000D02*
X142870D01*
X141000Y561130D02*
Y564870D01*
X154676Y560835D02*
Y565165D01*
X164124Y560835D02*
Y565165D01*
X154676D02*
X164124D01*
X154676Y560835D02*
X164124D01*
X157530Y563000D02*
X161270D01*
X159400Y561130D02*
Y564870D01*
X145724Y568835D02*
Y573165D01*
X136276Y568835D02*
Y573165D01*
Y568835D02*
X145724D01*
X136276Y573165D02*
X145724D01*
X139130Y571000D02*
X142870D01*
X141000Y569130D02*
Y572870D01*
X164324Y569235D02*
Y573565D01*
X154876Y569235D02*
Y573565D01*
Y569235D02*
X164324D01*
X154876Y573565D02*
X164324D01*
X157730Y571400D02*
X161470D01*
X159600Y569530D02*
Y573270D01*
X369235Y77523D02*
X373565D01*
X369235Y86972D02*
X373565D01*
X369235Y77523D02*
Y86972D01*
X373565Y77523D02*
Y86972D01*
X371400Y80377D02*
Y84117D01*
X369530Y82247D02*
X373270D01*
X390435Y76323D02*
X394765D01*
X390435Y85772D02*
X394765D01*
X390435Y76323D02*
Y85772D01*
X394765Y76323D02*
Y85772D01*
X392600Y79177D02*
Y82917D01*
X390730Y81047D02*
X394470D01*
X191676Y179835D02*
Y184165D01*
X201124Y179835D02*
Y184165D01*
X191676Y179835D02*
X201124D01*
X191676Y184165D02*
X201124D01*
X194530Y182000D02*
X198270D01*
X196400Y180130D02*
Y183870D01*
X172524Y200435D02*
Y204765D01*
X163076Y200435D02*
Y204765D01*
Y200435D02*
X172524D01*
X163076Y204765D02*
X172524D01*
X165930Y202600D02*
X169670D01*
X167800Y200730D02*
Y204470D01*
X172724Y210435D02*
Y214765D01*
X163276Y210435D02*
Y214765D01*
Y210435D02*
X172724D01*
X163276Y214765D02*
X172724D01*
X166130Y212600D02*
X169870D01*
X168000Y210730D02*
Y214470D01*
X532835Y50120D02*
X537165D01*
X532835Y59569D02*
X537165D01*
X532835Y50120D02*
Y59569D01*
X537165Y50120D02*
Y59569D01*
X535000Y52974D02*
Y56714D01*
X533130Y54844D02*
X536870D01*
X408835Y130876D02*
X413165D01*
X408835Y140324D02*
X413165D01*
Y130876D02*
Y140324D01*
X408835Y130876D02*
Y140324D01*
X411000Y133730D02*
Y137470D01*
X409130Y135600D02*
X412870D01*
X419035Y130876D02*
X423365D01*
X419035Y140324D02*
X423365D01*
Y130876D02*
Y140324D01*
X419035Y130876D02*
Y140324D01*
X421200Y133730D02*
Y137470D01*
X419330Y135600D02*
X423070D01*
X488835Y129676D02*
X493165D01*
X488835Y139124D02*
X493165D01*
Y129676D02*
Y139124D01*
X488835Y129676D02*
Y139124D01*
X491000Y132530D02*
Y136270D01*
X489130Y134400D02*
X492870D01*
X478635Y129476D02*
X482965D01*
X478635Y138924D02*
X482965D01*
Y129476D02*
Y138924D01*
X478635Y129476D02*
Y138924D01*
X480800Y132330D02*
Y136070D01*
X478930Y134200D02*
X482670D01*
X469235Y129076D02*
X473565D01*
X469235Y138524D02*
X473565D01*
Y129076D02*
Y138524D01*
X469235Y129076D02*
Y138524D01*
X471400Y131930D02*
Y135670D01*
X469530Y133800D02*
X473270D01*
X459235Y129476D02*
X463565D01*
X459235Y138924D02*
X463565D01*
Y129476D02*
Y138924D01*
X459235Y129476D02*
Y138924D01*
X461400Y132330D02*
Y136070D01*
X459530Y134200D02*
X463270D01*
X449035Y129276D02*
X453365D01*
X449035Y138724D02*
X453365D01*
Y129276D02*
Y138724D01*
X449035Y129276D02*
Y138724D01*
X451200Y132130D02*
Y135870D01*
X449330Y134000D02*
X453070D01*
X438835Y129476D02*
X443165D01*
X438835Y138924D02*
X443165D01*
Y129476D02*
Y138924D01*
X438835Y129476D02*
Y138924D01*
X441000Y132330D02*
Y136070D01*
X439130Y134200D02*
X442870D01*
X224435Y182524D02*
X228765D01*
X224435Y173076D02*
X228765D01*
Y182524D01*
X224435Y173076D02*
Y182524D01*
X226600Y175930D02*
Y179670D01*
X224730Y177800D02*
X228470D01*
X234635Y181924D02*
X238965D01*
X234635Y172476D02*
X238965D01*
Y181924D01*
X234635Y172476D02*
Y181924D01*
X236800Y175330D02*
Y179070D01*
X234930Y177200D02*
X238670D01*
X306435Y180924D02*
X310765D01*
X306435Y171476D02*
X310765D01*
Y180924D01*
X306435Y171476D02*
Y180924D01*
X308600Y174330D02*
Y178070D01*
X306730Y176200D02*
X310470D01*
X280235Y145324D02*
X284565D01*
X280235Y135876D02*
X284565D01*
X280235D02*
Y145324D01*
X284565Y135876D02*
Y145324D01*
X282400Y138730D02*
Y142470D01*
X280530Y140600D02*
X284270D01*
X280235Y124476D02*
X284565D01*
X280235Y133924D02*
X284565D01*
Y124476D02*
Y133924D01*
X280235Y124476D02*
Y133924D01*
X282400Y127330D02*
Y131070D01*
X280530Y129200D02*
X284270D01*
X64676Y401835D02*
Y406165D01*
X74124Y401835D02*
Y406165D01*
X64676Y401835D02*
X74124D01*
X64676Y406165D02*
X74124D01*
X67530Y404000D02*
X71270D01*
X69400Y402130D02*
Y405870D01*
X142835Y459724D02*
X147165D01*
X142835Y450276D02*
X147165D01*
X142835D02*
Y459724D01*
X147165Y450276D02*
Y459724D01*
X145000Y453130D02*
Y456870D01*
X143130Y455000D02*
X146870D01*
X149835Y459724D02*
X154165D01*
X149835Y450276D02*
X154165D01*
X149835D02*
Y459724D01*
X154165Y450276D02*
Y459724D01*
X152000Y453130D02*
Y456870D01*
X150130Y455000D02*
X153870D01*
X85324Y401835D02*
Y406165D01*
X75876Y401835D02*
Y406165D01*
X85324D01*
X75876Y401835D02*
X85324D01*
X78730Y404000D02*
X82470D01*
X80600Y402130D02*
Y405870D01*
X97324Y404635D02*
Y408965D01*
X87876Y404635D02*
Y408965D01*
X97324D01*
X87876Y404635D02*
X97324D01*
X90730Y406800D02*
X94470D01*
X92600Y404930D02*
Y408670D01*
X109124Y404435D02*
Y408765D01*
X99676Y404435D02*
Y408765D01*
X109124D01*
X99676Y404435D02*
X109124D01*
X102530Y406600D02*
X106270D01*
X104400Y404730D02*
Y408470D01*
X110835Y402076D02*
X115165D01*
X110835Y411524D02*
X115165D01*
Y402076D02*
Y411524D01*
X110835Y402076D02*
Y411524D01*
X113000Y404930D02*
Y408670D01*
X111130Y406800D02*
X114870D01*
X117035Y402476D02*
X121365D01*
X117035Y411924D02*
X121365D01*
Y402476D02*
Y411924D01*
X117035Y402476D02*
Y411924D01*
X119200Y405330D02*
Y409070D01*
X117330Y407200D02*
X121070D01*
X122835Y401676D02*
X127165D01*
X122835Y411124D02*
X127165D01*
Y401676D02*
Y411124D01*
X122835Y401676D02*
Y411124D01*
X125000Y404530D02*
Y408270D01*
X123130Y406400D02*
X126870D01*
X129435Y401476D02*
X133765D01*
X129435Y410924D02*
X133765D01*
Y401476D02*
Y410924D01*
X129435Y401476D02*
Y410924D01*
X131600Y404330D02*
Y408070D01*
X129730Y406200D02*
X133470D01*
X139235Y401076D02*
X143565D01*
X139235Y410524D02*
X143565D01*
Y401076D02*
Y410524D01*
X139235Y401076D02*
Y410524D01*
X141400Y403930D02*
Y407670D01*
X139530Y405800D02*
X143270D01*
X399635Y381276D02*
X403965D01*
X399635Y390724D02*
X403965D01*
Y381276D02*
Y390724D01*
X399635Y381276D02*
Y390724D01*
X401800Y384130D02*
Y387870D01*
X399930Y386000D02*
X403670D01*
X348535Y141576D02*
X352865D01*
X348535Y151024D02*
X352865D01*
X348535Y141576D02*
Y151024D01*
X352865Y141576D02*
Y151024D01*
X350700Y144430D02*
Y148170D01*
X348830Y146300D02*
X352570D01*
X348535Y162324D02*
X352865D01*
X348535Y152876D02*
X352865D01*
Y162324D01*
X348535Y152876D02*
Y162324D01*
X350700Y155730D02*
Y159470D01*
X348830Y157600D02*
X352570D01*
X196335Y296276D02*
X200665D01*
X196335Y305724D02*
X200665D01*
X196335Y296276D02*
Y305724D01*
X200665Y296276D02*
Y305724D01*
X198500Y299130D02*
Y302870D01*
X196630Y301000D02*
X200370D01*
X181335Y255031D02*
X185665D01*
X181335Y264480D02*
X185665D01*
X181335Y255031D02*
Y264480D01*
X185665Y255031D02*
Y264480D01*
X183500Y257886D02*
Y261626D01*
X181630Y259756D02*
X185370D01*
X181335Y282224D02*
X185665D01*
X181335Y272776D02*
X185665D01*
Y282224D01*
X181335Y272776D02*
Y282224D01*
X183500Y275630D02*
Y279370D01*
X181630Y277500D02*
X185370D01*
X316335Y263020D02*
X320665D01*
X316335Y272468D02*
X320665D01*
Y263020D02*
Y272468D01*
X316335Y263020D02*
Y272468D01*
X318500Y265874D02*
Y269614D01*
X316630Y267744D02*
X320370D01*
X252724Y321335D02*
Y325665D01*
X243276Y321335D02*
Y325665D01*
X252724D01*
X243276Y321335D02*
X252724D01*
X246130Y323500D02*
X249870D01*
X248000Y321630D02*
Y325370D01*
X342224Y305335D02*
Y309665D01*
X332776Y305335D02*
Y309665D01*
X342224D01*
X332776Y305335D02*
X342224D01*
X335630Y307500D02*
X339370D01*
X337500Y305630D02*
Y309370D01*
X255224Y303835D02*
Y308165D01*
X245776Y303835D02*
Y308165D01*
X255224D01*
X245776Y303835D02*
X255224D01*
X248630Y306000D02*
X252370D01*
X250500Y304130D02*
Y307870D01*
X304468Y327835D02*
Y332165D01*
X295020Y327835D02*
Y332165D01*
X304468D01*
X295020Y327835D02*
X304468D01*
X297874Y330000D02*
X301614D01*
X299744Y328130D02*
Y331870D01*
X278835Y347776D02*
X283165D01*
X278835Y357224D02*
X283165D01*
Y347776D02*
Y357224D01*
X278835Y347776D02*
Y357224D01*
X281000Y350630D02*
Y354370D01*
X279130Y352500D02*
X282870D01*
X341724Y337835D02*
Y342165D01*
X332276Y337835D02*
Y342165D01*
X341724D01*
X332276Y337835D02*
X341724D01*
X335130Y340000D02*
X338870D01*
X337000Y338130D02*
Y341870D01*
X255224Y294835D02*
Y299165D01*
X245776Y294835D02*
Y299165D01*
X255224D01*
X245776Y294835D02*
X255224D01*
X248630Y297000D02*
X252370D01*
X250500Y295130D02*
Y298870D01*
X257335Y273224D02*
X261665D01*
X257335Y263776D02*
X261665D01*
X257335D02*
Y273224D01*
X261665Y263776D02*
Y273224D01*
X259500Y266630D02*
Y270370D01*
X257630Y268500D02*
X261370D01*
X219335Y282776D02*
X223665D01*
X219335Y292224D02*
X223665D01*
Y282776D02*
Y292224D01*
X219335Y282776D02*
Y292224D01*
X221500Y285630D02*
Y289370D01*
X219630Y287500D02*
X223370D01*
X287835Y357224D02*
X292165D01*
X287835Y347776D02*
X292165D01*
X287835D02*
Y357224D01*
X292165Y347776D02*
Y357224D01*
X290000Y350630D02*
Y354370D01*
X288130Y352500D02*
X291870D01*
X256335Y356224D02*
X260665D01*
X256335Y346776D02*
X260665D01*
X256335D02*
Y356224D01*
X260665Y346776D02*
Y356224D01*
X258500Y349630D02*
Y353370D01*
X256630Y351500D02*
X260370D01*
X244276Y345335D02*
Y349665D01*
X253725Y345335D02*
Y349665D01*
X244276Y345335D02*
X253725D01*
X244276Y349665D02*
X253725D01*
X247130Y347500D02*
X250870D01*
X249000Y345630D02*
Y349370D01*
X247276Y280835D02*
Y285165D01*
X256725Y280835D02*
Y285165D01*
X247276Y280835D02*
X256725D01*
X247276Y285165D02*
X256725D01*
X250130Y283000D02*
X253870D01*
X252000Y281130D02*
Y284870D01*
X245776Y308835D02*
Y313165D01*
X255225Y308835D02*
Y313165D01*
X245776Y308835D02*
X255225D01*
X245776Y313165D02*
X255225D01*
X248630Y311000D02*
X252370D01*
X250500Y309130D02*
Y312870D01*
X246835Y263776D02*
X251165D01*
X246835Y273225D02*
X251165D01*
Y263776D02*
Y273225D01*
X246835Y263776D02*
Y273225D01*
X249000Y266630D02*
Y270370D01*
X247130Y268500D02*
X250870D01*
X295835Y288532D02*
X300165D01*
X295835Y297980D02*
X300165D01*
Y288532D02*
Y297980D01*
X295835Y288532D02*
Y297980D01*
X298000Y291386D02*
Y295126D01*
X296130Y293256D02*
X299870D01*
X318835Y288532D02*
X323165D01*
X318835Y297980D02*
X323165D01*
Y288532D02*
Y297980D01*
X318835Y288532D02*
Y297980D01*
X321000Y291386D02*
Y295126D01*
X319130Y293256D02*
X322870D01*
X336335Y289276D02*
X340665D01*
X336335Y298725D02*
X340665D01*
Y289276D02*
Y298725D01*
X336335Y289276D02*
Y298725D01*
X338500Y292130D02*
Y295870D01*
X336630Y294000D02*
X340370D01*
X342224Y314335D02*
Y318665D01*
X332775Y314335D02*
Y318665D01*
X342224D01*
X332775Y314335D02*
X342224D01*
X335630Y316500D02*
X339370D01*
X337500Y314630D02*
Y318370D01*
X281835Y263276D02*
X286165D01*
X281835Y272725D02*
X286165D01*
Y263276D02*
Y272725D01*
X281835Y263276D02*
Y272725D01*
X284000Y266130D02*
Y269870D01*
X282130Y268000D02*
X285870D01*
X340224Y269335D02*
Y273665D01*
X330776Y269335D02*
Y273665D01*
X340224D01*
X330776Y269335D02*
X340224D01*
X333630Y271500D02*
X337370D01*
X335500Y269630D02*
Y273370D01*
X325335Y357224D02*
X329665D01*
X325335Y347776D02*
X329665D01*
X325335D02*
Y357224D01*
X329665Y347776D02*
Y357224D01*
X327500Y350630D02*
Y354370D01*
X325630Y352500D02*
X329370D01*
X210776Y293835D02*
Y298165D01*
X220225Y293835D02*
Y298165D01*
X210776D02*
X220225D01*
X210776Y293835D02*
X220225D01*
X213630Y296000D02*
X217370D01*
X215500Y294130D02*
Y297870D01*
X542324Y435635D02*
Y439965D01*
X532876Y435635D02*
Y439965D01*
X542324D01*
X532876Y435635D02*
X542324D01*
X535730Y437800D02*
X539470D01*
X537600Y435930D02*
Y439670D01*
X541677Y192835D02*
Y197165D01*
X532228Y192835D02*
Y197165D01*
X541677D01*
X532228Y192835D02*
X541677D01*
X535083Y195000D02*
X538823D01*
X536953Y193130D02*
Y196870D01*
X219335Y300276D02*
X223665D01*
X219335Y309725D02*
X223665D01*
Y300276D02*
Y309725D01*
X219335Y300276D02*
Y309725D01*
X221500Y303130D02*
Y306870D01*
X219630Y305000D02*
X223370D01*
X196335Y291724D02*
X200665D01*
X196335Y282276D02*
X200665D01*
Y291724D01*
X196335Y282276D02*
Y291724D01*
X198500Y285130D02*
Y288870D01*
X196630Y287000D02*
X200370D01*
X157235Y491124D02*
X161565D01*
X157235Y481676D02*
X161565D01*
X157235D02*
Y491124D01*
X161565Y481676D02*
Y491124D01*
X159400Y484530D02*
Y488270D01*
X157530Y486400D02*
X161270D01*
X192232Y445235D02*
Y449565D01*
X201680Y445235D02*
Y449565D01*
X192232D02*
X201680D01*
X192232Y445235D02*
X201680D01*
X195086Y447400D02*
X198826D01*
X196956Y445530D02*
Y449270D01*
X79832Y455400D02*
X83769D01*
X81800Y453432D02*
Y457369D01*
X51431Y455600D02*
X55369D01*
X53400Y453631D02*
Y457569D01*
X64276Y383635D02*
Y387965D01*
X73724Y383635D02*
Y387965D01*
X64276Y383635D02*
X73724D01*
X64276Y387965D02*
X73724D01*
X67130Y385800D02*
X70870D01*
X69000Y383930D02*
Y387670D01*
X73524Y366435D02*
Y370765D01*
X64076Y366435D02*
Y370765D01*
X73524D01*
X64076Y366435D02*
X73524D01*
X66930Y368600D02*
X70670D01*
X68800Y366730D02*
Y370470D01*
X110874Y279060D02*
Y286540D01*
X95126Y279060D02*
Y286540D01*
Y279060D02*
X110874D01*
X95126Y286540D02*
X110874D01*
X101032Y282800D02*
X104969D01*
X103000Y280831D02*
Y284769D01*
X110874Y268860D02*
Y276340D01*
X95126Y268860D02*
Y276340D01*
Y268860D02*
X110874D01*
X95126Y276340D02*
X110874D01*
X101032Y272600D02*
X104969D01*
X103000Y270631D02*
Y274569D01*
X97276Y261035D02*
Y265365D01*
X106724Y261035D02*
Y265365D01*
X97276D02*
X106724D01*
X97276Y261035D02*
X106724D01*
X100130Y263200D02*
X103870D01*
X102000Y261330D02*
Y265070D01*
X107924Y289235D02*
Y293565D01*
X98476Y289235D02*
Y293565D01*
Y289235D02*
X107924D01*
X98476Y293565D02*
X107924D01*
X101330Y291400D02*
X105070D01*
X103200Y289530D02*
Y293270D01*
X110124Y204835D02*
Y209165D01*
X100676Y204835D02*
Y209165D01*
Y204835D02*
X110124D01*
X100676Y209165D02*
X110124D01*
X103530Y207000D02*
X107270D01*
X105400Y205130D02*
Y208870D01*
X110524Y149435D02*
Y153765D01*
X101076Y149435D02*
Y153765D01*
Y149435D02*
X110524D01*
X101076Y153765D02*
X110524D01*
X103930Y151600D02*
X107670D01*
X105800Y149730D02*
Y153470D01*
X114674Y101660D02*
Y109140D01*
X98926Y101660D02*
Y109140D01*
Y101660D02*
X114674D01*
X98926Y109140D02*
X114674D01*
X104832Y105400D02*
X108769D01*
X106800Y103431D02*
Y107369D01*
X114674Y112260D02*
Y119740D01*
X98926Y112260D02*
Y119740D01*
Y112260D02*
X114674D01*
X98926Y119740D02*
X114674D01*
X104832Y116000D02*
X108769D01*
X106800Y114031D02*
Y117969D01*
X109972Y237435D02*
Y241765D01*
X100523Y237435D02*
Y241765D01*
Y237435D02*
X109972D01*
X100523Y241765D02*
X109972D01*
X103377Y239600D02*
X107117D01*
X105247Y237730D02*
Y241470D01*
X113874Y170660D02*
Y178140D01*
X98126Y170660D02*
Y178140D01*
Y170660D02*
X113874D01*
X98126Y178140D02*
X113874D01*
X104032Y174400D02*
X107969D01*
X106000Y172431D02*
Y176369D01*
X113674Y158660D02*
Y166140D01*
X97926Y158660D02*
Y166140D01*
Y158660D02*
X113674D01*
X97926Y166140D02*
X113674D01*
X103832Y162400D02*
X107769D01*
X105800Y160431D02*
Y164369D01*
X111277Y180635D02*
Y184965D01*
X101828Y180635D02*
Y184965D01*
Y180635D02*
X111277D01*
X101828Y184965D02*
X111277D01*
X104683Y182800D02*
X108423D01*
X106553Y180930D02*
Y184670D01*
X100076Y91635D02*
Y95965D01*
X109524Y91635D02*
Y95965D01*
X100076D02*
X109524D01*
X100076Y91635D02*
X109524D01*
X102930Y93800D02*
X106670D01*
X104800Y91930D02*
Y95670D01*
X109124Y124835D02*
Y129165D01*
X99676Y124835D02*
Y129165D01*
Y124835D02*
X109124D01*
X99676Y129165D02*
X109124D01*
X102530Y127000D02*
X106270D01*
X104400Y125130D02*
Y128870D01*
X113274Y214660D02*
Y222140D01*
X97526Y214660D02*
Y222140D01*
Y214660D02*
X113274D01*
X97526Y222140D02*
X113274D01*
X103432Y218400D02*
X107369D01*
X105400Y216431D02*
Y220369D01*
X113274Y225860D02*
Y233340D01*
X97526Y225860D02*
Y233340D01*
Y225860D02*
X113274D01*
X97526Y233340D02*
X113274D01*
X103432Y229600D02*
X107369D01*
X105400Y227631D02*
Y231569D01*
X323835Y79477D02*
X328165D01*
X323835Y70028D02*
X328165D01*
Y79477D01*
X323835Y70028D02*
Y79477D01*
X326000Y72883D02*
Y76623D01*
X324130Y74753D02*
X327870D01*
X308235Y79277D02*
X312565D01*
X308235Y69828D02*
X312565D01*
Y79277D01*
X308235Y69828D02*
Y79277D01*
X310400Y72683D02*
Y76423D01*
X308530Y74553D02*
X312270D01*
X316635Y79477D02*
X320965D01*
X316635Y70028D02*
X320965D01*
Y79477D01*
X316635Y70028D02*
Y79477D01*
X318800Y72883D02*
Y76623D01*
X316930Y74753D02*
X320670D01*
X331835Y79277D02*
X336165D01*
X331835Y69828D02*
X336165D01*
Y79277D01*
X331835Y69828D02*
Y79277D01*
X334000Y72683D02*
Y76423D01*
X332130Y74553D02*
X335870D01*
X195476Y532235D02*
Y536565D01*
X204924Y532235D02*
Y536565D01*
X195476D02*
X204924D01*
X195476Y532235D02*
X204924D01*
X198330Y534400D02*
X202070D01*
X200200Y532530D02*
Y536270D01*
X273835Y171876D02*
X278165D01*
X273835Y181324D02*
X278165D01*
X273835Y171876D02*
Y181324D01*
X278165Y171876D02*
Y181324D01*
X276000Y174730D02*
Y178470D01*
X274130Y176600D02*
X277870D01*
X221476Y107435D02*
Y111765D01*
X230924Y107435D02*
Y111765D01*
X221476D02*
X230924D01*
X221476Y107435D02*
X230924D01*
X224330Y109600D02*
X228070D01*
X226200Y107730D02*
Y111470D01*
X221076Y99235D02*
Y103565D01*
X230524Y99235D02*
Y103565D01*
X221076D02*
X230524D01*
X221076Y99235D02*
X230524D01*
X223930Y101400D02*
X227670D01*
X225800Y99530D02*
Y103270D01*
X221076Y117435D02*
Y121765D01*
X230524Y117435D02*
Y121765D01*
X221076D02*
X230524D01*
X221076Y117435D02*
X230524D01*
X223930Y119600D02*
X227670D01*
X225800Y117730D02*
Y121470D01*
X221276Y125635D02*
Y129965D01*
X230724Y125635D02*
Y129965D01*
X221276D02*
X230724D01*
X221276Y125635D02*
X230724D01*
X224130Y127800D02*
X227870D01*
X226000Y125930D02*
Y129670D01*
X220876Y135435D02*
Y139765D01*
X230324Y135435D02*
Y139765D01*
X220876D02*
X230324D01*
X220876Y135435D02*
X230324D01*
X223730Y137600D02*
X227470D01*
X225600Y135730D02*
Y139470D01*
X265635Y181324D02*
X269965D01*
X265635Y171876D02*
X269965D01*
Y181324D01*
X265635Y171876D02*
Y181324D01*
X267800Y174730D02*
Y178470D01*
X265930Y176600D02*
X269670D01*
X258035Y181724D02*
X262365D01*
X258035Y172276D02*
X262365D01*
Y181724D01*
X258035Y172276D02*
Y181724D01*
X260200Y175130D02*
Y178870D01*
X258330Y177000D02*
X262070D01*
X250635Y181724D02*
X254965D01*
X250635Y172276D02*
X254965D01*
Y181724D01*
X250635Y172276D02*
Y181724D01*
X252800Y175130D02*
Y178870D01*
X250930Y177000D02*
X254670D01*
X243435Y172476D02*
X247765D01*
X243435Y181924D02*
X247765D01*
X243435Y172476D02*
Y181924D01*
X247765Y172476D02*
Y181924D01*
X245600Y175330D02*
Y179070D01*
X243730Y177200D02*
X247470D01*
X299435Y171723D02*
X303765D01*
X299435Y181172D02*
X303765D01*
X299435Y171723D02*
Y181172D01*
X303765Y171723D02*
Y181172D01*
X301600Y174577D02*
Y178317D01*
X299730Y176447D02*
X303470D01*
X282035Y171676D02*
X286365D01*
X282035Y181124D02*
X286365D01*
X282035Y171676D02*
Y181124D01*
X286365Y171676D02*
Y181124D01*
X284200Y174530D02*
Y178270D01*
X282330Y176400D02*
X286070D01*
X291035Y171676D02*
X295365D01*
X291035Y181124D02*
X295365D01*
X291035Y171676D02*
Y181124D01*
X295365Y171676D02*
Y181124D01*
X293200Y174530D02*
Y178270D01*
X291330Y176400D02*
X295070D01*
X299832Y120435D02*
Y124765D01*
X309280Y120435D02*
Y124765D01*
X299832D02*
X309280D01*
X299832Y120435D02*
X309280D01*
X302686Y122600D02*
X306426D01*
X304556Y120730D02*
Y124470D01*
X314035Y172076D02*
X318365D01*
X314035Y181524D02*
X318365D01*
X314035Y172076D02*
Y181524D01*
X318365Y172076D02*
Y181524D01*
X316200Y174930D02*
Y178670D01*
X314330Y176800D02*
X318070D01*
X298526Y111060D02*
Y118540D01*
X314274Y111060D02*
Y118540D01*
X298526D02*
X314274D01*
X298526Y111060D02*
X314274D01*
X304432Y114800D02*
X308369D01*
X306400Y112832D02*
Y116769D01*
D102*
X188094Y419035D02*
X222740D01*
X188094Y443051D02*
X222740D01*
Y419035D02*
Y443051D01*
X188094Y419035D02*
Y443051D01*
X187077Y487592D02*
X221723D01*
X187077Y511608D02*
X221723D01*
Y487592D02*
Y511608D01*
X187077Y487592D02*
Y511608D01*
Y452992D02*
X221723D01*
X187077Y477008D02*
X221723D01*
Y452992D02*
Y477008D01*
X187077Y452992D02*
Y477008D01*
X93808Y438077D02*
Y472723D01*
X69792Y438077D02*
Y472723D01*
X93808D01*
X69792Y438077D02*
X93808D01*
X41392Y438277D02*
Y472923D01*
X65408Y438277D02*
Y472923D01*
X41392Y438277D02*
X65408D01*
X41392Y472923D02*
X65408D01*
M02*
