G04 Layer_Color=255*
%FSLAX25Y25*%
%MOIN*%
G70*
G01*
G75*
%ADD10R,0.02756X0.03543*%
%ADD11R,0.03543X0.03150*%
%ADD12R,0.03543X0.02756*%
%ADD13O,0.01378X0.07874*%
%ADD14O,0.07874X0.01378*%
%ADD15R,0.03150X0.03543*%
%ADD16O,0.00984X0.05906*%
%ADD17O,0.05906X0.00984*%
%ADD18O,0.08000X0.02400*%
%ADD19O,0.01575X0.07087*%
%ADD20R,0.03150X0.03543*%
%ADD21O,0.01181X0.09646*%
%ADD22O,0.09646X0.01181*%
%ADD23O,0.02165X0.07874*%
%ADD24O,0.08000X0.01600*%
%ADD25O,0.01600X0.08000*%
%ADD30C,0.03300*%
%ADD31O,0.13780X0.03937*%
%ADD32O,0.03937X0.13780*%
%ADD33O,0.15748X0.04921*%
%ADD34C,0.12500*%
%ADD35R,0.06200X0.06200*%
%ADD36C,0.05000*%
%ADD37C,0.03937*%
%ADD38C,0.06299*%
%ADD39C,0.06000*%
%ADD40C,0.15000*%
%ADD41R,0.06000X0.06000*%
%ADD42C,0.08000*%
%ADD43C,0.06299*%
%ADD44R,0.06000X0.06000*%
%ADD45C,0.04500*%
%ADD46R,0.05000X0.05000*%
%ADD47R,0.05906X0.05906*%
%ADD48C,0.05906*%
%ADD49C,0.09200*%
%ADD50C,0.07000*%
%ADD51R,0.06200X0.06200*%
%ADD52C,0.06200*%
D10*
X781594Y575500D02*
D03*
X787500D02*
D03*
X781547Y330000D02*
D03*
X787453D02*
D03*
X163000Y509500D02*
D03*
X168906D02*
D03*
D11*
X215000Y402488D02*
D03*
Y408000D02*
D03*
X683000Y303744D02*
D03*
Y309256D02*
D03*
X160500Y336744D02*
D03*
Y342256D02*
D03*
Y360756D02*
D03*
Y355244D02*
D03*
X677000Y721244D02*
D03*
Y726756D02*
D03*
X656000Y721244D02*
D03*
Y726756D02*
D03*
X540500Y721244D02*
D03*
Y726756D02*
D03*
X517500Y721244D02*
D03*
Y726756D02*
D03*
X401500Y721244D02*
D03*
Y726756D02*
D03*
X378500Y721244D02*
D03*
Y726756D02*
D03*
X266000Y726512D02*
D03*
Y721000D02*
D03*
X242500Y721244D02*
D03*
Y726756D02*
D03*
X228500Y298244D02*
D03*
Y303756D02*
D03*
X565000Y250244D02*
D03*
Y255756D02*
D03*
X542000Y250244D02*
D03*
Y255756D02*
D03*
X519000Y250244D02*
D03*
Y255756D02*
D03*
X496000Y250244D02*
D03*
Y255756D02*
D03*
X473000Y250244D02*
D03*
Y255756D02*
D03*
X187000Y426744D02*
D03*
Y432256D02*
D03*
X141000Y426744D02*
D03*
Y432256D02*
D03*
X567000Y168988D02*
D03*
Y174500D02*
D03*
X725000Y246488D02*
D03*
Y252000D02*
D03*
X481000Y121244D02*
D03*
Y126756D02*
D03*
X679000Y214744D02*
D03*
Y220256D02*
D03*
X214500Y463488D02*
D03*
Y469000D02*
D03*
X192500Y463488D02*
D03*
Y469000D02*
D03*
X170500Y463488D02*
D03*
Y469000D02*
D03*
X148500Y463488D02*
D03*
Y469000D02*
D03*
X125500Y463488D02*
D03*
Y469000D02*
D03*
X104500Y463488D02*
D03*
Y469000D02*
D03*
X177000Y426988D02*
D03*
Y432500D02*
D03*
X176500Y485744D02*
D03*
Y491256D02*
D03*
X182500Y374732D02*
D03*
Y380244D02*
D03*
X159000Y487744D02*
D03*
Y493256D02*
D03*
X138000Y487744D02*
D03*
Y493256D02*
D03*
X664000Y303744D02*
D03*
Y309256D02*
D03*
D12*
X633000Y721047D02*
D03*
Y726953D02*
D03*
X563500Y721047D02*
D03*
Y726953D02*
D03*
X494500Y721047D02*
D03*
Y726953D02*
D03*
X424500Y721047D02*
D03*
Y726953D02*
D03*
X357500Y721047D02*
D03*
Y726953D02*
D03*
X277500Y726500D02*
D03*
Y720594D02*
D03*
X219500Y721047D02*
D03*
Y726953D02*
D03*
X196500Y721047D02*
D03*
Y726953D02*
D03*
X464500Y194547D02*
D03*
Y200453D02*
D03*
X441500Y194547D02*
D03*
Y200453D02*
D03*
X418500Y194547D02*
D03*
Y200453D02*
D03*
X403000Y193094D02*
D03*
Y199000D02*
D03*
X302500Y191094D02*
D03*
Y197000D02*
D03*
X318000Y250047D02*
D03*
Y255953D02*
D03*
X297000Y250047D02*
D03*
Y255953D02*
D03*
X274000Y250047D02*
D03*
Y255953D02*
D03*
X252000Y250047D02*
D03*
Y255953D02*
D03*
X230000Y250047D02*
D03*
Y255953D02*
D03*
X207000Y250047D02*
D03*
Y255953D02*
D03*
X184000Y250047D02*
D03*
Y255953D02*
D03*
X486000Y144547D02*
D03*
Y150453D02*
D03*
X164000Y426547D02*
D03*
Y432453D02*
D03*
X749000Y231094D02*
D03*
Y237000D02*
D03*
X702500Y188547D02*
D03*
Y194453D02*
D03*
X723000Y214547D02*
D03*
Y220453D02*
D03*
X494500Y175047D02*
D03*
Y180953D02*
D03*
X177500Y505953D02*
D03*
Y500047D02*
D03*
X234000Y517953D02*
D03*
Y512047D02*
D03*
X247500Y496000D02*
D03*
Y490094D02*
D03*
D13*
X444543Y229083D02*
D03*
X447102D02*
D03*
X449661D02*
D03*
X452220D02*
D03*
X454780D02*
D03*
X457339D02*
D03*
X459898D02*
D03*
X462457D02*
D03*
X444543Y251917D02*
D03*
X447102D02*
D03*
X449661D02*
D03*
X452220D02*
D03*
X454780D02*
D03*
X457339D02*
D03*
X459898D02*
D03*
X462457D02*
D03*
X314543Y277083D02*
D03*
X317102D02*
D03*
X319661D02*
D03*
X322220D02*
D03*
X324780D02*
D03*
X327339D02*
D03*
X329898D02*
D03*
X332457D02*
D03*
X314543Y299917D02*
D03*
X317102D02*
D03*
X319661D02*
D03*
X322220D02*
D03*
X324780D02*
D03*
X327339D02*
D03*
X329898D02*
D03*
X332457D02*
D03*
X333543Y190583D02*
D03*
X336102D02*
D03*
X338661D02*
D03*
X341220D02*
D03*
X343780D02*
D03*
X346339D02*
D03*
X348898D02*
D03*
X351457D02*
D03*
X333543Y213417D02*
D03*
X336102D02*
D03*
X338661D02*
D03*
X341220D02*
D03*
X343780D02*
D03*
X346339D02*
D03*
X348898D02*
D03*
X351457D02*
D03*
D14*
X264417Y634543D02*
D03*
Y637102D02*
D03*
Y639661D02*
D03*
Y642220D02*
D03*
Y644780D02*
D03*
Y647339D02*
D03*
Y649898D02*
D03*
Y652457D02*
D03*
X241583Y634543D02*
D03*
Y637102D02*
D03*
Y639661D02*
D03*
Y642220D02*
D03*
Y644780D02*
D03*
Y647339D02*
D03*
Y649898D02*
D03*
Y652457D02*
D03*
X264917Y676043D02*
D03*
Y678602D02*
D03*
Y681161D02*
D03*
Y683720D02*
D03*
Y686280D02*
D03*
Y688839D02*
D03*
Y691398D02*
D03*
Y693957D02*
D03*
X242083Y676043D02*
D03*
Y678602D02*
D03*
Y681161D02*
D03*
Y683720D02*
D03*
Y686280D02*
D03*
Y688839D02*
D03*
Y691398D02*
D03*
Y693957D02*
D03*
D15*
X342760Y297626D02*
D03*
X350240D02*
D03*
X346500Y305500D02*
D03*
D16*
X645095Y267433D02*
D03*
X643126D02*
D03*
X641158D02*
D03*
X639189D02*
D03*
X637221D02*
D03*
Y232000D02*
D03*
X647063Y267433D02*
D03*
X649032D02*
D03*
X651000D02*
D03*
X652969D02*
D03*
X654937D02*
D03*
X656906D02*
D03*
X658874D02*
D03*
Y232000D02*
D03*
X656906D02*
D03*
X654937D02*
D03*
X652969D02*
D03*
X651000D02*
D03*
X649032D02*
D03*
X647063D02*
D03*
X645095D02*
D03*
X643126D02*
D03*
X641158D02*
D03*
X639189D02*
D03*
D17*
X630331Y260543D02*
D03*
Y238890D02*
D03*
X665764Y258575D02*
D03*
Y260543D02*
D03*
Y256606D02*
D03*
Y254638D02*
D03*
Y252669D02*
D03*
Y250701D02*
D03*
Y248732D02*
D03*
Y246764D02*
D03*
Y244795D02*
D03*
Y242827D02*
D03*
Y240858D02*
D03*
Y238890D02*
D03*
X630331Y258575D02*
D03*
Y240858D02*
D03*
Y242827D02*
D03*
Y244795D02*
D03*
Y246764D02*
D03*
Y248732D02*
D03*
Y250701D02*
D03*
Y252669D02*
D03*
Y254638D02*
D03*
Y256606D02*
D03*
D18*
X299000Y139000D02*
D03*
Y134000D02*
D03*
Y129000D02*
D03*
Y124000D02*
D03*
X337000Y169000D02*
D03*
Y164000D02*
D03*
X299000Y149000D02*
D03*
Y144000D02*
D03*
X337000Y159000D02*
D03*
X299000Y154000D02*
D03*
Y159000D02*
D03*
Y164000D02*
D03*
Y169000D02*
D03*
X337000Y154000D02*
D03*
Y149000D02*
D03*
Y144000D02*
D03*
Y139000D02*
D03*
Y134000D02*
D03*
Y129000D02*
D03*
Y124000D02*
D03*
D19*
X547736Y194000D02*
D03*
X545177D02*
D03*
X524705D02*
D03*
X547736Y170575D02*
D03*
X545177D02*
D03*
X542618D02*
D03*
X540059D02*
D03*
X527264Y194000D02*
D03*
X537500Y170575D02*
D03*
X534941D02*
D03*
X532382D02*
D03*
X529823D02*
D03*
X527264D02*
D03*
X524705D02*
D03*
X529823Y194000D02*
D03*
X532382D02*
D03*
X534941D02*
D03*
X537500D02*
D03*
X540059D02*
D03*
X542618D02*
D03*
D20*
X692000Y241500D02*
D03*
X697512D02*
D03*
D21*
X237921Y340941D02*
D03*
X237921Y460823D02*
D03*
X296976Y340941D02*
D03*
X239890Y460823D02*
D03*
X241858D02*
D03*
X243827D02*
D03*
X245795D02*
D03*
X247764D02*
D03*
X249732D02*
D03*
X251701D02*
D03*
X253669D02*
D03*
X255638D02*
D03*
X257606D02*
D03*
X259575D02*
D03*
X261543D02*
D03*
X263512D02*
D03*
X265480D02*
D03*
X267449D02*
D03*
X269417D02*
D03*
X271386D02*
D03*
X273354D02*
D03*
X275323D02*
D03*
X277291D02*
D03*
X279260D02*
D03*
X281228D02*
D03*
X283197D02*
D03*
X285165D02*
D03*
X287134D02*
D03*
X289102D02*
D03*
X291071D02*
D03*
X293039D02*
D03*
X295008D02*
D03*
X296976D02*
D03*
X298945D02*
D03*
X300913D02*
D03*
X302882D02*
D03*
X304850D02*
D03*
X306819D02*
D03*
X308787D02*
D03*
X310756D02*
D03*
X312724D02*
D03*
X314693D02*
D03*
X316661D02*
D03*
X318630D02*
D03*
X320598D02*
D03*
X322567D02*
D03*
X324535D02*
D03*
X326504D02*
D03*
X328473D02*
D03*
X330441D02*
D03*
X332410D02*
D03*
X334378D02*
D03*
X336347D02*
D03*
X338315D02*
D03*
Y340941D02*
D03*
X336347D02*
D03*
X334378D02*
D03*
X332410D02*
D03*
X330441D02*
D03*
X328473D02*
D03*
X326504D02*
D03*
X324535D02*
D03*
X322567D02*
D03*
X320598D02*
D03*
X318630D02*
D03*
X316661D02*
D03*
X314693D02*
D03*
X312724D02*
D03*
X310756D02*
D03*
X308787D02*
D03*
X306819D02*
D03*
X304850D02*
D03*
X302882D02*
D03*
X300913D02*
D03*
X298945D02*
D03*
X295008D02*
D03*
X293039D02*
D03*
X291071D02*
D03*
X289102D02*
D03*
X287134D02*
D03*
X285165D02*
D03*
X283197D02*
D03*
X281228D02*
D03*
X279260D02*
D03*
X277291D02*
D03*
X275323D02*
D03*
X273354D02*
D03*
X271386D02*
D03*
X269417D02*
D03*
X267449D02*
D03*
X265480D02*
D03*
X263512D02*
D03*
X261543D02*
D03*
X259575D02*
D03*
X257606D02*
D03*
X255638D02*
D03*
X253669D02*
D03*
X251701D02*
D03*
X249732D02*
D03*
X247764D02*
D03*
X245795D02*
D03*
X243827D02*
D03*
X241858D02*
D03*
X239890D02*
D03*
D22*
X228177Y395961D02*
D03*
Y350685D02*
D03*
X348059D02*
D03*
Y380213D02*
D03*
Y374307D02*
D03*
X228177Y364465D02*
D03*
Y451079D02*
D03*
X348059D02*
D03*
Y449110D02*
D03*
Y447142D02*
D03*
Y445173D02*
D03*
Y443205D02*
D03*
Y441236D02*
D03*
Y439268D02*
D03*
Y437299D02*
D03*
Y435331D02*
D03*
Y433362D02*
D03*
Y431394D02*
D03*
Y429425D02*
D03*
Y427457D02*
D03*
Y425488D02*
D03*
Y423520D02*
D03*
Y421551D02*
D03*
Y419583D02*
D03*
Y417614D02*
D03*
Y415646D02*
D03*
Y413677D02*
D03*
Y411709D02*
D03*
Y409740D02*
D03*
Y407772D02*
D03*
Y405803D02*
D03*
Y403835D02*
D03*
Y401866D02*
D03*
Y399898D02*
D03*
Y397929D02*
D03*
Y395961D02*
D03*
Y393992D02*
D03*
Y392024D02*
D03*
Y390055D02*
D03*
Y388087D02*
D03*
Y386118D02*
D03*
Y384150D02*
D03*
Y382181D02*
D03*
Y378244D02*
D03*
Y376276D02*
D03*
Y372339D02*
D03*
Y370370D02*
D03*
Y368402D02*
D03*
Y366433D02*
D03*
Y364465D02*
D03*
Y362496D02*
D03*
Y360528D02*
D03*
Y358559D02*
D03*
Y356591D02*
D03*
Y354622D02*
D03*
Y352654D02*
D03*
X228177Y449110D02*
D03*
Y447142D02*
D03*
Y445173D02*
D03*
Y443205D02*
D03*
Y441236D02*
D03*
Y439268D02*
D03*
Y437299D02*
D03*
Y435331D02*
D03*
Y433362D02*
D03*
Y431394D02*
D03*
Y429425D02*
D03*
Y427457D02*
D03*
Y425488D02*
D03*
Y423520D02*
D03*
Y421551D02*
D03*
Y419583D02*
D03*
Y417614D02*
D03*
Y415646D02*
D03*
Y413677D02*
D03*
Y411709D02*
D03*
Y409740D02*
D03*
Y407772D02*
D03*
Y405803D02*
D03*
Y403835D02*
D03*
Y401866D02*
D03*
Y399898D02*
D03*
Y397929D02*
D03*
Y393992D02*
D03*
Y392024D02*
D03*
Y390055D02*
D03*
Y388087D02*
D03*
Y386118D02*
D03*
Y384150D02*
D03*
Y382181D02*
D03*
Y380213D02*
D03*
Y378244D02*
D03*
Y376276D02*
D03*
Y374307D02*
D03*
Y372339D02*
D03*
Y370370D02*
D03*
Y368402D02*
D03*
Y366433D02*
D03*
Y362496D02*
D03*
Y360528D02*
D03*
Y358559D02*
D03*
Y356591D02*
D03*
Y354622D02*
D03*
Y352654D02*
D03*
D23*
X455051Y558500D02*
D03*
X451902D02*
D03*
X448752D02*
D03*
X445602D02*
D03*
X442453D02*
D03*
X439303D02*
D03*
X436154D02*
D03*
X433004D02*
D03*
X499146D02*
D03*
Y509492D02*
D03*
X495996D02*
D03*
X492846D02*
D03*
X489697D02*
D03*
X458201Y558500D02*
D03*
X461350D02*
D03*
X464500D02*
D03*
X467650D02*
D03*
X470799D02*
D03*
X473949D02*
D03*
X477098D02*
D03*
X480248D02*
D03*
X483398D02*
D03*
X486547D02*
D03*
X489697D02*
D03*
X492846D02*
D03*
X495996D02*
D03*
X486547Y509492D02*
D03*
X483398D02*
D03*
X480248D02*
D03*
X477098D02*
D03*
X473949D02*
D03*
X470799D02*
D03*
X467650D02*
D03*
X464500D02*
D03*
X461350D02*
D03*
X458201D02*
D03*
X455051D02*
D03*
X451902D02*
D03*
X448752D02*
D03*
X445602D02*
D03*
X442453D02*
D03*
X439303D02*
D03*
X436154D02*
D03*
X433004D02*
D03*
D24*
X443000Y397500D02*
D03*
X407000D02*
D03*
Y400000D02*
D03*
Y402500D02*
D03*
Y405000D02*
D03*
Y407500D02*
D03*
Y410000D02*
D03*
Y412500D02*
D03*
Y415000D02*
D03*
Y417500D02*
D03*
Y420000D02*
D03*
Y422500D02*
D03*
Y425000D02*
D03*
Y427500D02*
D03*
Y430000D02*
D03*
Y432500D02*
D03*
Y435000D02*
D03*
Y437500D02*
D03*
Y440000D02*
D03*
Y442500D02*
D03*
Y445000D02*
D03*
Y447500D02*
D03*
Y450000D02*
D03*
Y452500D02*
D03*
Y455000D02*
D03*
X443000D02*
D03*
Y452500D02*
D03*
Y450000D02*
D03*
Y447500D02*
D03*
Y445000D02*
D03*
Y442500D02*
D03*
Y440000D02*
D03*
Y437500D02*
D03*
Y435000D02*
D03*
Y432500D02*
D03*
Y430000D02*
D03*
Y427500D02*
D03*
Y425000D02*
D03*
Y422500D02*
D03*
Y420000D02*
D03*
Y417500D02*
D03*
Y415000D02*
D03*
Y412500D02*
D03*
Y410000D02*
D03*
Y407500D02*
D03*
Y405000D02*
D03*
Y402500D02*
D03*
Y400000D02*
D03*
X386500Y505000D02*
D03*
X350500D02*
D03*
Y507500D02*
D03*
Y510000D02*
D03*
Y512500D02*
D03*
Y515000D02*
D03*
Y517500D02*
D03*
Y520000D02*
D03*
Y522500D02*
D03*
Y525000D02*
D03*
Y527500D02*
D03*
Y530000D02*
D03*
Y532500D02*
D03*
Y535000D02*
D03*
Y537500D02*
D03*
Y540000D02*
D03*
Y542500D02*
D03*
Y545000D02*
D03*
Y547500D02*
D03*
Y550000D02*
D03*
Y552500D02*
D03*
Y555000D02*
D03*
Y557500D02*
D03*
Y560000D02*
D03*
Y562500D02*
D03*
X386500D02*
D03*
Y560000D02*
D03*
Y557500D02*
D03*
Y555000D02*
D03*
Y552500D02*
D03*
Y550000D02*
D03*
Y547500D02*
D03*
Y545000D02*
D03*
Y542500D02*
D03*
Y540000D02*
D03*
Y537500D02*
D03*
Y535000D02*
D03*
Y532500D02*
D03*
Y530000D02*
D03*
Y527500D02*
D03*
Y525000D02*
D03*
Y522500D02*
D03*
Y520000D02*
D03*
Y517500D02*
D03*
Y515000D02*
D03*
Y512500D02*
D03*
Y510000D02*
D03*
Y507500D02*
D03*
X639000Y389500D02*
D03*
Y392000D02*
D03*
Y394500D02*
D03*
Y397000D02*
D03*
Y399500D02*
D03*
Y402000D02*
D03*
Y404500D02*
D03*
Y407000D02*
D03*
Y409500D02*
D03*
Y412000D02*
D03*
Y414500D02*
D03*
Y417000D02*
D03*
Y419500D02*
D03*
Y422000D02*
D03*
Y424500D02*
D03*
Y427000D02*
D03*
Y429500D02*
D03*
Y432000D02*
D03*
Y434500D02*
D03*
Y437000D02*
D03*
Y439500D02*
D03*
Y442000D02*
D03*
Y444500D02*
D03*
X603000D02*
D03*
Y442000D02*
D03*
Y439500D02*
D03*
Y437000D02*
D03*
Y434500D02*
D03*
Y432000D02*
D03*
Y429500D02*
D03*
Y427000D02*
D03*
Y424500D02*
D03*
Y422000D02*
D03*
Y419500D02*
D03*
Y417000D02*
D03*
Y414500D02*
D03*
Y412000D02*
D03*
Y409500D02*
D03*
Y407000D02*
D03*
Y404500D02*
D03*
Y402000D02*
D03*
Y399500D02*
D03*
Y397000D02*
D03*
Y394500D02*
D03*
Y392000D02*
D03*
Y389500D02*
D03*
Y387000D02*
D03*
X639000D02*
D03*
X635500Y315500D02*
D03*
Y318000D02*
D03*
Y320500D02*
D03*
Y323000D02*
D03*
Y325500D02*
D03*
Y328000D02*
D03*
Y330500D02*
D03*
Y333000D02*
D03*
Y335500D02*
D03*
Y338000D02*
D03*
Y340500D02*
D03*
Y343000D02*
D03*
Y345500D02*
D03*
Y348000D02*
D03*
Y350500D02*
D03*
Y353000D02*
D03*
Y355500D02*
D03*
Y358000D02*
D03*
Y360500D02*
D03*
Y363000D02*
D03*
Y365500D02*
D03*
Y368000D02*
D03*
Y370500D02*
D03*
X599500D02*
D03*
Y368000D02*
D03*
Y365500D02*
D03*
Y363000D02*
D03*
Y360500D02*
D03*
Y358000D02*
D03*
Y355500D02*
D03*
Y353000D02*
D03*
Y350500D02*
D03*
Y348000D02*
D03*
Y345500D02*
D03*
Y343000D02*
D03*
Y340500D02*
D03*
Y338000D02*
D03*
Y335500D02*
D03*
Y333000D02*
D03*
Y330500D02*
D03*
Y328000D02*
D03*
Y325500D02*
D03*
Y323000D02*
D03*
Y320500D02*
D03*
Y318000D02*
D03*
Y315500D02*
D03*
Y313000D02*
D03*
X635500D02*
D03*
X655500Y543000D02*
D03*
Y545500D02*
D03*
Y548000D02*
D03*
Y550500D02*
D03*
Y553000D02*
D03*
Y555500D02*
D03*
Y558000D02*
D03*
Y560500D02*
D03*
Y563000D02*
D03*
Y565500D02*
D03*
Y568000D02*
D03*
Y570500D02*
D03*
Y573000D02*
D03*
Y575500D02*
D03*
Y578000D02*
D03*
Y580500D02*
D03*
Y583000D02*
D03*
Y585500D02*
D03*
Y588000D02*
D03*
Y590500D02*
D03*
Y593000D02*
D03*
Y595500D02*
D03*
Y598000D02*
D03*
X619500D02*
D03*
Y595500D02*
D03*
Y593000D02*
D03*
Y590500D02*
D03*
Y588000D02*
D03*
Y585500D02*
D03*
Y583000D02*
D03*
Y580500D02*
D03*
Y578000D02*
D03*
Y575500D02*
D03*
Y573000D02*
D03*
Y570500D02*
D03*
Y568000D02*
D03*
Y565500D02*
D03*
Y563000D02*
D03*
Y560500D02*
D03*
Y558000D02*
D03*
Y555500D02*
D03*
Y553000D02*
D03*
Y550500D02*
D03*
Y548000D02*
D03*
Y545500D02*
D03*
Y543000D02*
D03*
Y540500D02*
D03*
X655500D02*
D03*
D25*
X307500Y590000D02*
D03*
Y554000D02*
D03*
X305000D02*
D03*
X302500D02*
D03*
X300000D02*
D03*
X297500D02*
D03*
X295000D02*
D03*
X292500D02*
D03*
X290000D02*
D03*
X287500D02*
D03*
X285000D02*
D03*
X282500D02*
D03*
X280000D02*
D03*
X277500D02*
D03*
X275000D02*
D03*
X272500D02*
D03*
X270000D02*
D03*
X267500D02*
D03*
X265000D02*
D03*
X262500D02*
D03*
X260000D02*
D03*
X257500D02*
D03*
X255000D02*
D03*
X252500D02*
D03*
X250000D02*
D03*
Y590000D02*
D03*
X252500D02*
D03*
X255000D02*
D03*
X257500D02*
D03*
X260000D02*
D03*
X262500D02*
D03*
X265000D02*
D03*
X267500D02*
D03*
X270000D02*
D03*
X272500D02*
D03*
X275000D02*
D03*
X277500D02*
D03*
X280000D02*
D03*
X282500D02*
D03*
X285000D02*
D03*
X287500D02*
D03*
X290000D02*
D03*
X292500D02*
D03*
X295000D02*
D03*
X297500D02*
D03*
X300000D02*
D03*
X302500D02*
D03*
X305000D02*
D03*
D30*
X196200Y403244D02*
D03*
X200500D02*
D03*
D31*
X735500Y131000D02*
D03*
D32*
X753500Y144000D02*
D03*
D33*
X735500Y154500D02*
D03*
D34*
X718000Y717000D02*
D03*
X605000D02*
D03*
X466000D02*
D03*
X321000Y715500D02*
D03*
D35*
X728000Y647000D02*
D03*
X718000D02*
D03*
X708000D02*
D03*
X615000D02*
D03*
X605000D02*
D03*
X595000D02*
D03*
X476000D02*
D03*
X466000D02*
D03*
X456000D02*
D03*
X331000Y645500D02*
D03*
X321000D02*
D03*
X311000D02*
D03*
D36*
X425500Y180500D02*
D03*
X435500Y170500D02*
D03*
Y180500D02*
D03*
X445500Y170500D02*
D03*
Y180500D02*
D03*
X455500Y170500D02*
D03*
X445500Y160500D02*
D03*
X455500D02*
D03*
X445500Y150500D02*
D03*
X455500D02*
D03*
X445500Y140500D02*
D03*
X455500D02*
D03*
X445500Y130500D02*
D03*
X455500D02*
D03*
X445500Y120500D02*
D03*
X455500D02*
D03*
X445500Y110500D02*
D03*
X435500Y120500D02*
D03*
Y110500D02*
D03*
X425500Y120500D02*
D03*
Y110500D02*
D03*
X415500Y120500D02*
D03*
Y110500D02*
D03*
X405500Y120500D02*
D03*
Y110500D02*
D03*
X395500Y120500D02*
D03*
Y110500D02*
D03*
X385500Y120500D02*
D03*
X395500Y130500D02*
D03*
X385500D02*
D03*
X395500Y140500D02*
D03*
X385500D02*
D03*
X395500Y150500D02*
D03*
X385500D02*
D03*
X395500Y160500D02*
D03*
X385500D02*
D03*
X395500Y170500D02*
D03*
X385500D02*
D03*
X395500Y180500D02*
D03*
X405500Y170500D02*
D03*
Y180500D02*
D03*
X415500Y170500D02*
D03*
Y180500D02*
D03*
X425500Y170500D02*
D03*
X439000Y620500D02*
D03*
Y610500D02*
D03*
Y600500D02*
D03*
X469000D02*
D03*
Y610500D02*
D03*
Y620500D02*
D03*
Y630500D02*
D03*
X637500Y466500D02*
D03*
X627500D02*
D03*
X617500D02*
D03*
X627500Y476500D02*
D03*
X617500D02*
D03*
X607500Y466500D02*
D03*
Y476500D02*
D03*
Y486500D02*
D03*
Y496500D02*
D03*
Y506500D02*
D03*
X597500Y476500D02*
D03*
Y486500D02*
D03*
Y496500D02*
D03*
Y506500D02*
D03*
X637500Y476500D02*
D03*
Y486500D02*
D03*
Y496500D02*
D03*
Y506500D02*
D03*
X647500Y476500D02*
D03*
Y486500D02*
D03*
Y496500D02*
D03*
Y506500D02*
D03*
Y516500D02*
D03*
X597500D02*
D03*
X607500Y526500D02*
D03*
Y516500D02*
D03*
X637500D02*
D03*
Y526500D02*
D03*
X627500D02*
D03*
X617500Y516500D02*
D03*
Y526500D02*
D03*
X627500Y516500D02*
D03*
X372000Y621500D02*
D03*
Y611500D02*
D03*
Y601500D02*
D03*
X402000D02*
D03*
Y611500D02*
D03*
Y621500D02*
D03*
Y631500D02*
D03*
D37*
X209500Y570067D02*
D03*
Y575972D02*
D03*
Y581878D02*
D03*
Y587783D02*
D03*
Y593689D02*
D03*
Y599594D02*
D03*
Y605500D02*
D03*
Y611406D02*
D03*
Y617311D02*
D03*
Y623217D02*
D03*
Y629122D02*
D03*
Y635028D02*
D03*
Y640933D02*
D03*
Y646839D02*
D03*
Y652744D02*
D03*
Y658650D02*
D03*
Y664555D02*
D03*
D38*
X201823Y549201D02*
D03*
Y685421D02*
D03*
D39*
X209500Y149500D02*
D03*
Y129500D02*
D03*
X239500D02*
D03*
Y149500D02*
D03*
Y179500D02*
D03*
X209500Y119500D02*
D03*
X631500Y199500D02*
D03*
X641500D02*
D03*
X664500D02*
D03*
X674500D02*
D03*
X635500Y170500D02*
D03*
X640500Y180500D02*
D03*
X645500Y170500D02*
D03*
X650500Y180500D02*
D03*
X655500Y170500D02*
D03*
X660500Y180500D02*
D03*
X665500Y170500D02*
D03*
X271500Y178500D02*
D03*
Y168500D02*
D03*
Y158500D02*
D03*
Y148500D02*
D03*
Y138500D02*
D03*
Y128500D02*
D03*
Y118500D02*
D03*
X148500Y151000D02*
D03*
Y131000D02*
D03*
X178500D02*
D03*
Y151000D02*
D03*
Y181000D02*
D03*
X148500Y121000D02*
D03*
D40*
X675500Y145500D02*
D03*
X630500D02*
D03*
D41*
X670500Y180500D02*
D03*
D42*
X622300Y157500D02*
D03*
X683700D02*
D03*
D43*
X549685Y143185D02*
D03*
X530000D02*
D03*
Y123500D02*
D03*
X510315Y113658D02*
D03*
X549685D02*
D03*
X510315Y123500D02*
D03*
X549685D02*
D03*
X510315Y143185D02*
D03*
X520158D02*
D03*
X539843D02*
D03*
X608000Y142185D02*
D03*
X588315D02*
D03*
Y122500D02*
D03*
X568630Y112658D02*
D03*
X608000D02*
D03*
X568630Y122500D02*
D03*
X608000D02*
D03*
X568630Y142185D02*
D03*
X578472D02*
D03*
X598157D02*
D03*
D44*
X271500Y188500D02*
D03*
D45*
X179500Y337800D02*
D03*
Y357000D02*
D03*
X683200Y289500D02*
D03*
X664000D02*
D03*
D46*
X439000Y630500D02*
D03*
X372000Y631500D02*
D03*
D47*
X118000Y251000D02*
D03*
X126000Y123500D02*
D03*
X470500Y110000D02*
D03*
X359500Y150500D02*
D03*
D48*
X118000Y261000D02*
D03*
Y271000D02*
D03*
X116000Y123500D02*
D03*
X126000Y133500D02*
D03*
X116000D02*
D03*
X126000Y143500D02*
D03*
X116000D02*
D03*
X126000Y153500D02*
D03*
X116000D02*
D03*
X126000Y163500D02*
D03*
X116000D02*
D03*
X126000Y173500D02*
D03*
X116000D02*
D03*
X126000Y183500D02*
D03*
X116000D02*
D03*
X126000Y193500D02*
D03*
X116000D02*
D03*
X126000Y203500D02*
D03*
X116000D02*
D03*
X126000Y213500D02*
D03*
X116000D02*
D03*
X470500Y130000D02*
D03*
Y120000D02*
D03*
X359500Y140500D02*
D03*
Y130500D02*
D03*
Y120500D02*
D03*
D49*
X761000Y649000D02*
D03*
D50*
Y284000D02*
D03*
D51*
Y321500D02*
D03*
D52*
Y331500D02*
D03*
Y341500D02*
D03*
Y351500D02*
D03*
Y361500D02*
D03*
Y371500D02*
D03*
Y381500D02*
D03*
Y391500D02*
D03*
Y401500D02*
D03*
Y411500D02*
D03*
Y421500D02*
D03*
Y431500D02*
D03*
Y441500D02*
D03*
Y451500D02*
D03*
Y461500D02*
D03*
Y471500D02*
D03*
Y481500D02*
D03*
Y491500D02*
D03*
Y501500D02*
D03*
Y511500D02*
D03*
Y521500D02*
D03*
Y531500D02*
D03*
Y541500D02*
D03*
Y551500D02*
D03*
Y561500D02*
D03*
Y571500D02*
D03*
Y581500D02*
D03*
Y591500D02*
D03*
Y601500D02*
D03*
Y611500D02*
D03*
M02*
