G04 Layer_Color=255*
%FSLAX25Y25*%
%MOIN*%
G70*
G01*
G75*
%ADD10O,0.07874X0.01378*%
%ADD11R,0.03543X0.02756*%
%ADD12R,0.03543X0.03150*%
%ADD13O,0.08000X0.02400*%
%ADD14R,0.03150X0.03543*%
%ADD15O,0.01575X0.07087*%
%ADD16R,0.02756X0.03543*%
%ADD17R,0.03150X0.03543*%
%ADD18R,0.02165X0.02953*%
%ADD19O,0.08000X0.01600*%
%ADD20O,0.00984X0.05905*%
%ADD21O,0.05905X0.00984*%
%ADD22O,0.01181X0.09646*%
%ADD23O,0.09646X0.01181*%
%ADD24O,0.02165X0.07874*%
%ADD25O,0.01600X0.08000*%
%ADD26O,0.01378X0.07874*%
%ADD27R,0.04331X0.06693*%
%ADD29C,0.25000*%
%ADD30R,0.05905X0.05905*%
%ADD31C,0.05905*%
%ADD32C,0.06299*%
%ADD33R,0.05000X0.05000*%
%ADD34C,0.05000*%
%ADD35C,0.06000*%
%ADD36C,0.06500*%
%ADD37C,0.03400*%
%ADD38O,0.14500X0.04500*%
%ADD39O,0.04500X0.14500*%
%ADD40O,0.16500X0.05500*%
%ADD41C,0.12500*%
%ADD42R,0.06200X0.06200*%
%ADD43C,0.15000*%
%ADD44R,0.06000X0.06000*%
%ADD45C,0.08000*%
%ADD46C,0.04500*%
%ADD47C,0.10600*%
%ADD48C,0.08500*%
%ADD49C,0.06200*%
%ADD50C,0.06600*%
%ADD51C,0.03937*%
%ADD52R,0.06000X0.06000*%
D10*
X216835Y422087D02*
D03*
Y424646D02*
D03*
Y427205D02*
D03*
Y429764D02*
D03*
Y432323D02*
D03*
Y434882D02*
D03*
Y437441D02*
D03*
Y440000D02*
D03*
X194000Y422087D02*
D03*
Y424646D02*
D03*
Y427205D02*
D03*
Y429764D02*
D03*
Y432323D02*
D03*
Y434882D02*
D03*
Y437441D02*
D03*
Y440000D02*
D03*
X215817Y490643D02*
D03*
Y493202D02*
D03*
Y495761D02*
D03*
Y498320D02*
D03*
Y500880D02*
D03*
Y503439D02*
D03*
Y505998D02*
D03*
Y508557D02*
D03*
X192983Y490643D02*
D03*
Y493202D02*
D03*
Y495761D02*
D03*
Y498320D02*
D03*
Y500880D02*
D03*
Y503439D02*
D03*
Y505998D02*
D03*
Y508557D02*
D03*
X215817Y456043D02*
D03*
Y458602D02*
D03*
Y461161D02*
D03*
Y463720D02*
D03*
Y466280D02*
D03*
Y468839D02*
D03*
Y471398D02*
D03*
Y473957D02*
D03*
X192983Y456043D02*
D03*
Y458602D02*
D03*
Y461161D02*
D03*
Y463720D02*
D03*
Y466280D02*
D03*
Y468839D02*
D03*
Y471398D02*
D03*
Y473957D02*
D03*
D11*
X206600Y383647D02*
D03*
Y389553D02*
D03*
X206000Y350247D02*
D03*
Y356153D02*
D03*
X371400Y79294D02*
D03*
Y85200D02*
D03*
X392600Y78094D02*
D03*
Y84000D02*
D03*
X226600Y180753D02*
D03*
Y174847D02*
D03*
X236800Y180153D02*
D03*
Y174247D02*
D03*
X308600Y179153D02*
D03*
Y173247D02*
D03*
X326000Y77706D02*
D03*
Y71800D02*
D03*
X310400Y77506D02*
D03*
Y71600D02*
D03*
X318800Y77706D02*
D03*
Y71800D02*
D03*
X334000Y77506D02*
D03*
Y71600D02*
D03*
X276000Y173647D02*
D03*
Y179553D02*
D03*
X267800D02*
D03*
Y173647D02*
D03*
X260200Y179953D02*
D03*
Y174047D02*
D03*
X252800Y179953D02*
D03*
Y174047D02*
D03*
X245600Y174247D02*
D03*
Y180153D02*
D03*
X301600Y173494D02*
D03*
Y179400D02*
D03*
X284200Y173447D02*
D03*
Y179353D02*
D03*
X293200Y173447D02*
D03*
Y179353D02*
D03*
X316200Y173847D02*
D03*
Y179753D02*
D03*
D12*
X196400Y348156D02*
D03*
Y342644D02*
D03*
X206400Y341956D02*
D03*
Y336444D02*
D03*
X197600Y384356D02*
D03*
Y378844D02*
D03*
X206600Y378400D02*
D03*
Y372888D02*
D03*
X141600Y49844D02*
D03*
Y55356D02*
D03*
X153200Y48688D02*
D03*
Y54200D02*
D03*
X165600Y49044D02*
D03*
Y54556D02*
D03*
X177000Y49244D02*
D03*
Y54756D02*
D03*
X189000Y48044D02*
D03*
Y53556D02*
D03*
X535000Y52088D02*
D03*
Y57600D02*
D03*
X350700Y143544D02*
D03*
Y149056D02*
D03*
Y160356D02*
D03*
Y154844D02*
D03*
X198500Y298244D02*
D03*
Y303756D02*
D03*
X183500Y257000D02*
D03*
Y262512D02*
D03*
Y280256D02*
D03*
Y274744D02*
D03*
X198500Y289756D02*
D03*
Y284244D02*
D03*
D13*
X171800Y474200D02*
D03*
Y479200D02*
D03*
Y484200D02*
D03*
Y489200D02*
D03*
X133800Y444200D02*
D03*
Y449200D02*
D03*
X171800Y464200D02*
D03*
Y469200D02*
D03*
X133800Y454200D02*
D03*
X171800Y459200D02*
D03*
Y454200D02*
D03*
Y449200D02*
D03*
Y444200D02*
D03*
X133800Y459200D02*
D03*
Y464200D02*
D03*
Y469200D02*
D03*
Y474200D02*
D03*
Y479200D02*
D03*
Y484200D02*
D03*
Y489200D02*
D03*
D14*
X213000Y481200D02*
D03*
X207488D02*
D03*
X191844Y516400D02*
D03*
X197356D02*
D03*
X205200Y447400D02*
D03*
X210712D02*
D03*
X192044Y481000D02*
D03*
X197556D02*
D03*
X208556Y516400D02*
D03*
X203044D02*
D03*
X143756Y563000D02*
D03*
X138244D02*
D03*
X156644D02*
D03*
X162156D02*
D03*
X212744Y296000D02*
D03*
X218256D02*
D03*
X194200Y447400D02*
D03*
X199712D02*
D03*
X197444Y534400D02*
D03*
X202956D02*
D03*
X301800Y122600D02*
D03*
X307312D02*
D03*
D15*
X215113Y568000D02*
D03*
X212554D02*
D03*
X192082D02*
D03*
X215113Y544575D02*
D03*
X212554D02*
D03*
X209995D02*
D03*
X207436D02*
D03*
X194641Y568000D02*
D03*
X204877Y544575D02*
D03*
X202318D02*
D03*
X199759D02*
D03*
X197200D02*
D03*
X194641D02*
D03*
X192082D02*
D03*
X197200Y568000D02*
D03*
X199759D02*
D03*
X202318D02*
D03*
X204877D02*
D03*
X207436D02*
D03*
X209995D02*
D03*
D16*
X156247Y545200D02*
D03*
X162153D02*
D03*
X162306Y553800D02*
D03*
X156400D02*
D03*
X137647Y548800D02*
D03*
X143553D02*
D03*
X138047Y556600D02*
D03*
X143953D02*
D03*
Y571000D02*
D03*
X138047D02*
D03*
X162553Y571400D02*
D03*
X156647D02*
D03*
X170753Y202600D02*
D03*
X164847D02*
D03*
X170953Y212600D02*
D03*
X165047D02*
D03*
X99047Y263200D02*
D03*
X104953D02*
D03*
X106153Y291400D02*
D03*
X100247D02*
D03*
X108353Y207000D02*
D03*
X102447D02*
D03*
X108753Y151600D02*
D03*
X102847D02*
D03*
X108200Y239600D02*
D03*
X102294D02*
D03*
X109506Y182800D02*
D03*
X103600D02*
D03*
X101847Y93800D02*
D03*
X107753D02*
D03*
X107353Y127000D02*
D03*
X101447D02*
D03*
X223247Y109600D02*
D03*
X229153D02*
D03*
X222847Y101400D02*
D03*
X228753D02*
D03*
X222847Y119600D02*
D03*
X228753D02*
D03*
X223047Y127800D02*
D03*
X228953D02*
D03*
X222647Y137600D02*
D03*
X228553D02*
D03*
D17*
X26140Y438874D02*
D03*
X18660D02*
D03*
X22400Y431000D02*
D03*
D18*
X535032Y21454D02*
D03*
X537000Y15746D02*
D03*
X538969Y21454D02*
D03*
D19*
X487200Y195400D02*
D03*
Y197900D02*
D03*
Y200400D02*
D03*
Y202900D02*
D03*
Y205400D02*
D03*
Y207900D02*
D03*
Y210400D02*
D03*
Y212900D02*
D03*
Y215400D02*
D03*
Y217900D02*
D03*
Y220400D02*
D03*
Y222900D02*
D03*
Y225400D02*
D03*
Y227900D02*
D03*
Y230400D02*
D03*
Y232900D02*
D03*
Y235400D02*
D03*
Y237900D02*
D03*
Y240400D02*
D03*
Y242900D02*
D03*
Y245400D02*
D03*
Y247900D02*
D03*
Y250400D02*
D03*
X451200D02*
D03*
Y247900D02*
D03*
Y245400D02*
D03*
Y242900D02*
D03*
Y240400D02*
D03*
Y237900D02*
D03*
Y235400D02*
D03*
Y232900D02*
D03*
Y230400D02*
D03*
Y227900D02*
D03*
Y225400D02*
D03*
Y222900D02*
D03*
Y220400D02*
D03*
Y217900D02*
D03*
Y215400D02*
D03*
Y212900D02*
D03*
Y210400D02*
D03*
Y207900D02*
D03*
Y205400D02*
D03*
Y202900D02*
D03*
Y200400D02*
D03*
Y197900D02*
D03*
Y195400D02*
D03*
Y192900D02*
D03*
X487200D02*
D03*
X418500Y279500D02*
D03*
X382500D02*
D03*
Y282000D02*
D03*
Y284500D02*
D03*
Y287000D02*
D03*
Y289500D02*
D03*
Y292000D02*
D03*
Y294500D02*
D03*
Y297000D02*
D03*
Y299500D02*
D03*
Y302000D02*
D03*
Y304500D02*
D03*
Y307000D02*
D03*
Y309500D02*
D03*
Y312000D02*
D03*
Y314500D02*
D03*
Y317000D02*
D03*
Y319500D02*
D03*
Y322000D02*
D03*
Y324500D02*
D03*
Y327000D02*
D03*
Y329500D02*
D03*
Y332000D02*
D03*
Y334500D02*
D03*
Y337000D02*
D03*
X418500D02*
D03*
Y334500D02*
D03*
Y332000D02*
D03*
Y329500D02*
D03*
Y327000D02*
D03*
Y324500D02*
D03*
Y322000D02*
D03*
Y319500D02*
D03*
Y317000D02*
D03*
Y314500D02*
D03*
Y312000D02*
D03*
Y309500D02*
D03*
Y307000D02*
D03*
Y304500D02*
D03*
Y302000D02*
D03*
Y299500D02*
D03*
Y297000D02*
D03*
Y294500D02*
D03*
Y292000D02*
D03*
Y289500D02*
D03*
Y287000D02*
D03*
Y284500D02*
D03*
Y282000D02*
D03*
X419500Y382500D02*
D03*
X383500D02*
D03*
Y385000D02*
D03*
Y387500D02*
D03*
Y390000D02*
D03*
Y392500D02*
D03*
Y395000D02*
D03*
Y397500D02*
D03*
Y400000D02*
D03*
Y402500D02*
D03*
Y405000D02*
D03*
Y407500D02*
D03*
Y410000D02*
D03*
Y412500D02*
D03*
Y415000D02*
D03*
Y417500D02*
D03*
Y420000D02*
D03*
Y422500D02*
D03*
Y425000D02*
D03*
Y427500D02*
D03*
Y430000D02*
D03*
Y432500D02*
D03*
Y435000D02*
D03*
Y437500D02*
D03*
Y440000D02*
D03*
X419500D02*
D03*
Y437500D02*
D03*
Y435000D02*
D03*
Y432500D02*
D03*
Y430000D02*
D03*
Y427500D02*
D03*
Y425000D02*
D03*
Y422500D02*
D03*
Y420000D02*
D03*
Y417500D02*
D03*
Y415000D02*
D03*
Y412500D02*
D03*
Y410000D02*
D03*
Y407500D02*
D03*
Y405000D02*
D03*
Y402500D02*
D03*
Y400000D02*
D03*
Y397500D02*
D03*
Y395000D02*
D03*
Y392500D02*
D03*
Y390000D02*
D03*
Y387500D02*
D03*
Y385000D02*
D03*
X487200Y263300D02*
D03*
Y265800D02*
D03*
Y268300D02*
D03*
Y270800D02*
D03*
Y273300D02*
D03*
Y275800D02*
D03*
Y278300D02*
D03*
Y280800D02*
D03*
Y283300D02*
D03*
Y285800D02*
D03*
Y288300D02*
D03*
Y290800D02*
D03*
Y293300D02*
D03*
Y295800D02*
D03*
Y298300D02*
D03*
Y300800D02*
D03*
Y303300D02*
D03*
Y305800D02*
D03*
Y308300D02*
D03*
Y310800D02*
D03*
Y313300D02*
D03*
Y315800D02*
D03*
Y318300D02*
D03*
X451200D02*
D03*
Y315800D02*
D03*
Y313300D02*
D03*
Y310800D02*
D03*
Y308300D02*
D03*
Y305800D02*
D03*
Y303300D02*
D03*
Y300800D02*
D03*
Y298300D02*
D03*
Y295800D02*
D03*
Y293300D02*
D03*
Y290800D02*
D03*
Y288300D02*
D03*
Y285800D02*
D03*
Y283300D02*
D03*
Y280800D02*
D03*
Y278300D02*
D03*
Y275800D02*
D03*
Y273300D02*
D03*
Y270800D02*
D03*
Y268300D02*
D03*
Y265800D02*
D03*
Y263300D02*
D03*
Y260800D02*
D03*
X487200D02*
D03*
X406600Y458700D02*
D03*
Y461200D02*
D03*
Y463700D02*
D03*
Y466200D02*
D03*
Y468700D02*
D03*
Y471200D02*
D03*
Y473700D02*
D03*
Y476200D02*
D03*
Y478700D02*
D03*
Y481200D02*
D03*
Y483700D02*
D03*
Y486200D02*
D03*
Y488700D02*
D03*
Y491200D02*
D03*
Y493700D02*
D03*
Y496200D02*
D03*
Y498700D02*
D03*
Y501200D02*
D03*
Y503700D02*
D03*
Y506200D02*
D03*
Y508700D02*
D03*
Y511200D02*
D03*
Y513700D02*
D03*
X370600D02*
D03*
Y511200D02*
D03*
Y508700D02*
D03*
Y506200D02*
D03*
Y503700D02*
D03*
Y501200D02*
D03*
Y498700D02*
D03*
Y496200D02*
D03*
Y493700D02*
D03*
Y491200D02*
D03*
Y488700D02*
D03*
Y486200D02*
D03*
Y483700D02*
D03*
Y481200D02*
D03*
Y478700D02*
D03*
Y476200D02*
D03*
Y473700D02*
D03*
Y471200D02*
D03*
Y468700D02*
D03*
Y466200D02*
D03*
Y463700D02*
D03*
Y461200D02*
D03*
Y458700D02*
D03*
Y456200D02*
D03*
X406600D02*
D03*
D20*
X270294Y154600D02*
D03*
X268326D02*
D03*
X266357D02*
D03*
X264389D02*
D03*
X262420D02*
D03*
Y119167D02*
D03*
X272263Y154600D02*
D03*
X274231D02*
D03*
X276200D02*
D03*
X278168D02*
D03*
X280137D02*
D03*
X282105D02*
D03*
X284074D02*
D03*
Y119167D02*
D03*
X282105D02*
D03*
X280137D02*
D03*
X278168D02*
D03*
X276200D02*
D03*
X274231D02*
D03*
X272263D02*
D03*
X270294D02*
D03*
X268326D02*
D03*
X266357D02*
D03*
X264389D02*
D03*
D21*
X255531Y147710D02*
D03*
Y126057D02*
D03*
X290964Y145742D02*
D03*
Y147710D02*
D03*
Y143773D02*
D03*
Y141805D02*
D03*
Y139836D02*
D03*
Y137868D02*
D03*
Y135899D02*
D03*
Y133931D02*
D03*
Y131962D02*
D03*
Y129994D02*
D03*
Y128025D02*
D03*
Y126057D02*
D03*
X255531Y145742D02*
D03*
Y128025D02*
D03*
Y129994D02*
D03*
Y131962D02*
D03*
Y133931D02*
D03*
Y135899D02*
D03*
Y137868D02*
D03*
Y139836D02*
D03*
Y141805D02*
D03*
Y143773D02*
D03*
D22*
X241921Y249941D02*
D03*
X241921Y369823D02*
D03*
X300976Y249941D02*
D03*
X243890Y369823D02*
D03*
X245858D02*
D03*
X247827D02*
D03*
X249795D02*
D03*
X251764D02*
D03*
X253732D02*
D03*
X255701D02*
D03*
X257669D02*
D03*
X259638D02*
D03*
X261606D02*
D03*
X263575D02*
D03*
X265543D02*
D03*
X267512D02*
D03*
X269480D02*
D03*
X271449D02*
D03*
X273417D02*
D03*
X275386D02*
D03*
X277354D02*
D03*
X279323D02*
D03*
X281291D02*
D03*
X283260D02*
D03*
X285228D02*
D03*
X287197D02*
D03*
X289165D02*
D03*
X291134D02*
D03*
X293102D02*
D03*
X295071D02*
D03*
X297039D02*
D03*
X299008D02*
D03*
X300976D02*
D03*
X302945D02*
D03*
X304913D02*
D03*
X306882D02*
D03*
X308850D02*
D03*
X310819D02*
D03*
X312787D02*
D03*
X314756D02*
D03*
X316724D02*
D03*
X318693D02*
D03*
X320661D02*
D03*
X322630D02*
D03*
X324598D02*
D03*
X326567D02*
D03*
X328535D02*
D03*
X330504D02*
D03*
X332473D02*
D03*
X334441D02*
D03*
X336410D02*
D03*
X338378D02*
D03*
X340347D02*
D03*
X342315D02*
D03*
Y249941D02*
D03*
X340347D02*
D03*
X338378D02*
D03*
X336410D02*
D03*
X334441D02*
D03*
X332473D02*
D03*
X330504D02*
D03*
X328535D02*
D03*
X326567D02*
D03*
X324598D02*
D03*
X322630D02*
D03*
X320661D02*
D03*
X318693D02*
D03*
X316724D02*
D03*
X314756D02*
D03*
X312787D02*
D03*
X310819D02*
D03*
X308850D02*
D03*
X306882D02*
D03*
X304913D02*
D03*
X302945D02*
D03*
X299008D02*
D03*
X297039D02*
D03*
X295071D02*
D03*
X293102D02*
D03*
X291134D02*
D03*
X289165D02*
D03*
X287197D02*
D03*
X285228D02*
D03*
X283260D02*
D03*
X281291D02*
D03*
X279323D02*
D03*
X277354D02*
D03*
X275386D02*
D03*
X273417D02*
D03*
X271449D02*
D03*
X269480D02*
D03*
X267512D02*
D03*
X265543D02*
D03*
X263575D02*
D03*
X261606D02*
D03*
X259638D02*
D03*
X257669D02*
D03*
X255701D02*
D03*
X253732D02*
D03*
X251764D02*
D03*
X249795D02*
D03*
X247827D02*
D03*
X245858D02*
D03*
X243890D02*
D03*
D23*
X232177Y304961D02*
D03*
Y259685D02*
D03*
X352059D02*
D03*
Y289213D02*
D03*
Y283307D02*
D03*
X232177Y273465D02*
D03*
Y360079D02*
D03*
X352059D02*
D03*
Y358110D02*
D03*
Y356142D02*
D03*
Y354173D02*
D03*
Y352205D02*
D03*
Y350236D02*
D03*
Y348268D02*
D03*
Y346299D02*
D03*
Y344331D02*
D03*
Y342362D02*
D03*
Y340394D02*
D03*
Y338425D02*
D03*
Y336457D02*
D03*
Y334488D02*
D03*
Y332520D02*
D03*
Y330551D02*
D03*
Y328583D02*
D03*
Y326614D02*
D03*
Y324646D02*
D03*
Y322677D02*
D03*
Y320709D02*
D03*
Y318740D02*
D03*
Y316772D02*
D03*
Y314803D02*
D03*
Y312835D02*
D03*
Y310866D02*
D03*
Y308898D02*
D03*
Y306929D02*
D03*
Y304961D02*
D03*
Y302992D02*
D03*
Y301024D02*
D03*
Y299055D02*
D03*
Y297087D02*
D03*
Y295118D02*
D03*
Y293150D02*
D03*
Y291181D02*
D03*
Y287244D02*
D03*
Y285276D02*
D03*
Y281339D02*
D03*
Y279370D02*
D03*
Y277402D02*
D03*
Y275433D02*
D03*
Y273465D02*
D03*
Y271496D02*
D03*
Y269528D02*
D03*
Y267559D02*
D03*
Y265591D02*
D03*
Y263622D02*
D03*
Y261654D02*
D03*
X232177Y358110D02*
D03*
Y356142D02*
D03*
Y354173D02*
D03*
Y352205D02*
D03*
Y350236D02*
D03*
Y348268D02*
D03*
Y346299D02*
D03*
Y344331D02*
D03*
Y342362D02*
D03*
Y340394D02*
D03*
Y338425D02*
D03*
Y336457D02*
D03*
Y334488D02*
D03*
Y332520D02*
D03*
Y330551D02*
D03*
Y328583D02*
D03*
Y326614D02*
D03*
Y324646D02*
D03*
Y322677D02*
D03*
Y320709D02*
D03*
Y318740D02*
D03*
Y316772D02*
D03*
Y314803D02*
D03*
Y312835D02*
D03*
Y310866D02*
D03*
Y308898D02*
D03*
Y306929D02*
D03*
Y302992D02*
D03*
Y301024D02*
D03*
Y299055D02*
D03*
Y297087D02*
D03*
Y295118D02*
D03*
Y293150D02*
D03*
Y291181D02*
D03*
Y289213D02*
D03*
Y287244D02*
D03*
Y285276D02*
D03*
Y283307D02*
D03*
Y281339D02*
D03*
Y279370D02*
D03*
Y277402D02*
D03*
Y275433D02*
D03*
Y271496D02*
D03*
Y269528D02*
D03*
Y267559D02*
D03*
Y265591D02*
D03*
Y263622D02*
D03*
Y261654D02*
D03*
D24*
X400351Y594408D02*
D03*
X397202D02*
D03*
X394052D02*
D03*
X390902D02*
D03*
X387753D02*
D03*
X384603D02*
D03*
X381454D02*
D03*
X378304D02*
D03*
X444446D02*
D03*
Y545400D02*
D03*
X441296D02*
D03*
X438146D02*
D03*
X434997D02*
D03*
X403501Y594408D02*
D03*
X406650D02*
D03*
X409800D02*
D03*
X412950D02*
D03*
X416099D02*
D03*
X419249D02*
D03*
X422398D02*
D03*
X425548D02*
D03*
X428698D02*
D03*
X431847D02*
D03*
X434997D02*
D03*
X438146D02*
D03*
X441296D02*
D03*
X431847Y545400D02*
D03*
X428698D02*
D03*
X425548D02*
D03*
X422398D02*
D03*
X419249D02*
D03*
X416099D02*
D03*
X412950D02*
D03*
X409800D02*
D03*
X406650D02*
D03*
X403501D02*
D03*
X400351D02*
D03*
X397202D02*
D03*
X394052D02*
D03*
X390902D02*
D03*
X387753D02*
D03*
X384603D02*
D03*
X381454D02*
D03*
X378304D02*
D03*
D25*
X311500Y440500D02*
D03*
Y404500D02*
D03*
X309000D02*
D03*
X306500D02*
D03*
X304000D02*
D03*
X301500D02*
D03*
X299000D02*
D03*
X296500D02*
D03*
X294000D02*
D03*
X291500D02*
D03*
X289000D02*
D03*
X286500D02*
D03*
X284000D02*
D03*
X281500D02*
D03*
X279000D02*
D03*
X276500D02*
D03*
X274000D02*
D03*
X271500D02*
D03*
X269000D02*
D03*
X266500D02*
D03*
X264000D02*
D03*
X261500D02*
D03*
X259000D02*
D03*
X256500D02*
D03*
X254000D02*
D03*
Y440500D02*
D03*
X256500D02*
D03*
X259000D02*
D03*
X261500D02*
D03*
X264000D02*
D03*
X266500D02*
D03*
X269000D02*
D03*
X271500D02*
D03*
X274000D02*
D03*
X276500D02*
D03*
X279000D02*
D03*
X281500D02*
D03*
X284000D02*
D03*
X286500D02*
D03*
X289000D02*
D03*
X291500D02*
D03*
X294000D02*
D03*
X296500D02*
D03*
X299000D02*
D03*
X301500D02*
D03*
X304000D02*
D03*
X306500D02*
D03*
X309000D02*
D03*
D26*
X90757Y466817D02*
D03*
X88198D02*
D03*
X85639D02*
D03*
X83080D02*
D03*
X80520D02*
D03*
X77961D02*
D03*
X75402D02*
D03*
X72843D02*
D03*
X90757Y443983D02*
D03*
X88198D02*
D03*
X85639D02*
D03*
X83080D02*
D03*
X80520D02*
D03*
X77961D02*
D03*
X75402D02*
D03*
X72843D02*
D03*
X44443Y444183D02*
D03*
X47002D02*
D03*
X49561D02*
D03*
X52120D02*
D03*
X54680D02*
D03*
X57239D02*
D03*
X59798D02*
D03*
X62357D02*
D03*
X44443Y467017D02*
D03*
X47002D02*
D03*
X49561D02*
D03*
X52120D02*
D03*
X54680D02*
D03*
X57239D02*
D03*
X59798D02*
D03*
X62357D02*
D03*
D27*
X108315Y282800D02*
D03*
X97685D02*
D03*
X108315Y272600D02*
D03*
X97685D02*
D03*
X112115Y105400D02*
D03*
X101485D02*
D03*
X112115Y116000D02*
D03*
X101485D02*
D03*
X111315Y174400D02*
D03*
X100685D02*
D03*
X111115Y162400D02*
D03*
X100485D02*
D03*
X110715Y218400D02*
D03*
X100085D02*
D03*
X110715Y229600D02*
D03*
X100085D02*
D03*
X301085Y114800D02*
D03*
X311715D02*
D03*
D29*
X30000Y30000D02*
D03*
X640000D02*
D03*
Y620000D02*
D03*
X30000D02*
D03*
D30*
X371800Y68600D02*
D03*
X520400Y455200D02*
D03*
X451000Y455600D02*
D03*
X501000Y123000D02*
D03*
D31*
X381800Y68600D02*
D03*
X391800D02*
D03*
X490400Y455200D02*
D03*
X500400D02*
D03*
X510400D02*
D03*
X461000Y455600D02*
D03*
X471000D02*
D03*
X501000Y113000D02*
D03*
X491000Y123000D02*
D03*
Y113000D02*
D03*
X481000Y123000D02*
D03*
Y113000D02*
D03*
X471000Y123000D02*
D03*
Y113000D02*
D03*
X461000Y123000D02*
D03*
Y113000D02*
D03*
X451000Y123000D02*
D03*
Y113000D02*
D03*
X441000Y123000D02*
D03*
Y113000D02*
D03*
X431000Y123000D02*
D03*
Y113000D02*
D03*
X421000Y123000D02*
D03*
Y113000D02*
D03*
X411000Y123000D02*
D03*
Y113000D02*
D03*
D32*
X136315Y588715D02*
D03*
X156000D02*
D03*
Y608400D02*
D03*
X175685Y618242D02*
D03*
X136315D02*
D03*
X175685Y608400D02*
D03*
X136315D02*
D03*
X175685Y588715D02*
D03*
X165842D02*
D03*
X146157D02*
D03*
X191515Y588600D02*
D03*
X211200D02*
D03*
Y608285D02*
D03*
X230885Y618127D02*
D03*
X191515D02*
D03*
X230885Y608285D02*
D03*
X191515D02*
D03*
X230885Y588600D02*
D03*
X221043D02*
D03*
X201358D02*
D03*
D33*
X523200Y40400D02*
D03*
X211400Y182400D02*
D03*
D34*
X523200Y50400D02*
D03*
Y60400D02*
D03*
Y70400D02*
D03*
X493200D02*
D03*
Y60400D02*
D03*
Y50400D02*
D03*
Y40400D02*
D03*
X211400Y192400D02*
D03*
Y202400D02*
D03*
Y212400D02*
D03*
X181400D02*
D03*
Y202400D02*
D03*
Y192400D02*
D03*
Y182400D02*
D03*
X472800Y358200D02*
D03*
X462800Y368200D02*
D03*
Y358200D02*
D03*
X452800Y368200D02*
D03*
Y358200D02*
D03*
X442800Y368200D02*
D03*
X452800Y378200D02*
D03*
X442800D02*
D03*
X452800Y388200D02*
D03*
X442800D02*
D03*
X452800Y398200D02*
D03*
X442800D02*
D03*
X452800Y408200D02*
D03*
X442800D02*
D03*
X452800Y418200D02*
D03*
X442800D02*
D03*
X452800Y428200D02*
D03*
X462800Y418200D02*
D03*
Y428200D02*
D03*
X472800Y418200D02*
D03*
Y428200D02*
D03*
X482800Y418200D02*
D03*
Y428200D02*
D03*
X492800Y418200D02*
D03*
Y428200D02*
D03*
X502800Y418200D02*
D03*
Y428200D02*
D03*
X512800Y418200D02*
D03*
X502800Y408200D02*
D03*
X512800D02*
D03*
X502800Y398200D02*
D03*
X512800D02*
D03*
X502800Y388200D02*
D03*
X512800D02*
D03*
X502800Y378200D02*
D03*
X512800D02*
D03*
X502800Y368200D02*
D03*
X512800D02*
D03*
X502800Y358200D02*
D03*
X492800Y368200D02*
D03*
Y358200D02*
D03*
X482800Y368200D02*
D03*
Y358200D02*
D03*
X472800Y368200D02*
D03*
X456200Y554600D02*
D03*
Y564600D02*
D03*
Y574600D02*
D03*
X466200Y564600D02*
D03*
Y574600D02*
D03*
X456200Y584600D02*
D03*
X466200D02*
D03*
X476200D02*
D03*
X486200D02*
D03*
X496200D02*
D03*
X466200Y594600D02*
D03*
X476200D02*
D03*
X486200D02*
D03*
X496200D02*
D03*
X466200Y554600D02*
D03*
X476200D02*
D03*
X486200D02*
D03*
X496200D02*
D03*
X466200Y544600D02*
D03*
X476200D02*
D03*
X486200D02*
D03*
X496200D02*
D03*
X506200D02*
D03*
Y594600D02*
D03*
X516200Y584600D02*
D03*
X506200D02*
D03*
Y554600D02*
D03*
X516200D02*
D03*
Y564600D02*
D03*
X506200Y574600D02*
D03*
X516200D02*
D03*
X506200Y564600D02*
D03*
D35*
X564000Y45000D02*
D03*
Y25000D02*
D03*
X594000D02*
D03*
Y45000D02*
D03*
X249000Y98500D02*
D03*
X259000D02*
D03*
X282000D02*
D03*
X292000D02*
D03*
X253000Y69500D02*
D03*
X258000Y79500D02*
D03*
X263000Y69500D02*
D03*
X268000Y79500D02*
D03*
X273000Y69500D02*
D03*
X278000Y79500D02*
D03*
X283000Y69500D02*
D03*
X73500Y557700D02*
D03*
Y537700D02*
D03*
X103500D02*
D03*
Y557700D02*
D03*
X46700Y576100D02*
D03*
Y566100D02*
D03*
Y556100D02*
D03*
Y546100D02*
D03*
Y536100D02*
D03*
Y526100D02*
D03*
Y516100D02*
D03*
D36*
X594000Y75000D02*
D03*
X564000Y15000D02*
D03*
X103500Y587700D02*
D03*
X73500Y527700D02*
D03*
D37*
X188500Y293200D02*
D03*
Y297500D02*
D03*
D38*
X64800Y30600D02*
D03*
D39*
X82800Y43600D02*
D03*
D40*
X64800Y54100D02*
D03*
D41*
X18600Y273400D02*
D03*
X19200Y105800D02*
D03*
X19000Y165000D02*
D03*
X18400Y220000D02*
D03*
D42*
X88600Y283400D02*
D03*
Y273400D02*
D03*
Y263400D02*
D03*
X89200Y115800D02*
D03*
Y105800D02*
D03*
Y95800D02*
D03*
X89000Y175000D02*
D03*
Y165000D02*
D03*
Y155000D02*
D03*
X88400Y230000D02*
D03*
Y220000D02*
D03*
Y210000D02*
D03*
X557800Y178200D02*
D03*
D43*
X293000Y44500D02*
D03*
X248000D02*
D03*
D44*
X288000Y79500D02*
D03*
D45*
X239800Y56500D02*
D03*
X301200D02*
D03*
D46*
X169500Y256800D02*
D03*
Y276000D02*
D03*
X332700Y142100D02*
D03*
Y161300D02*
D03*
D47*
X557800Y505700D02*
D03*
D48*
Y140700D02*
D03*
D49*
Y188200D02*
D03*
Y198200D02*
D03*
Y208200D02*
D03*
Y218200D02*
D03*
Y228200D02*
D03*
Y238200D02*
D03*
Y248200D02*
D03*
Y258200D02*
D03*
Y268200D02*
D03*
Y278200D02*
D03*
Y288200D02*
D03*
Y298200D02*
D03*
Y308200D02*
D03*
Y318200D02*
D03*
Y328200D02*
D03*
Y338200D02*
D03*
Y348200D02*
D03*
Y358200D02*
D03*
Y368200D02*
D03*
Y378200D02*
D03*
Y388200D02*
D03*
Y398200D02*
D03*
Y408200D02*
D03*
Y418200D02*
D03*
Y428200D02*
D03*
Y438200D02*
D03*
Y448200D02*
D03*
Y458200D02*
D03*
Y468200D02*
D03*
D50*
X23595Y408323D02*
D03*
X159816D02*
D03*
D51*
X44461Y416000D02*
D03*
X50367D02*
D03*
X56272D02*
D03*
X62178D02*
D03*
X68083D02*
D03*
X73989D02*
D03*
X79894D02*
D03*
X85800D02*
D03*
X91706D02*
D03*
X97611D02*
D03*
X103517D02*
D03*
X109422D02*
D03*
X115328D02*
D03*
X121233D02*
D03*
X127139D02*
D03*
X133044D02*
D03*
X138950D02*
D03*
D52*
X46700Y586100D02*
D03*
M02*
