G04 Layer_Color=32768*
%FSLAX25Y25*%
%MOIN*%
G70*
G01*
G75*
%ADD101C,0.00394*%
%ADD102C,0.00197*%
D101*
X779823Y573335D02*
Y577665D01*
X789272Y573335D02*
Y577665D01*
X779823D02*
X789272D01*
X779823Y573335D02*
X789272D01*
X782677Y575500D02*
X786417D01*
X784547Y573630D02*
Y577370D01*
X779776Y327835D02*
Y332165D01*
X789224Y327835D02*
Y332165D01*
X779776D02*
X789224D01*
X779776Y327835D02*
X789224D01*
X782630Y330000D02*
X786370D01*
X784500Y328130D02*
Y331870D01*
X172776Y650835D02*
Y655165D01*
X182224Y650835D02*
Y655165D01*
X172776Y650835D02*
X182224D01*
X172776Y655165D02*
X182224D01*
X175630Y653000D02*
X179370D01*
X177500Y651130D02*
Y654870D01*
X391724Y628335D02*
Y632665D01*
X382276Y628335D02*
Y632665D01*
X391724D01*
X382276Y628335D02*
X391724D01*
X385130Y630500D02*
X388870D01*
X387000Y628630D02*
Y632370D01*
X453335Y620980D02*
X457665D01*
X453335Y611532D02*
X457665D01*
X453335D02*
Y620980D01*
X457665Y611532D02*
Y620980D01*
X455500Y614386D02*
Y618126D01*
X453630Y616256D02*
X457370D01*
X658724Y220835D02*
Y225165D01*
X649276Y220835D02*
Y225165D01*
X658724D01*
X649276Y220835D02*
X658724D01*
X652130Y223000D02*
X655870D01*
X654000Y221130D02*
Y224870D01*
X677335Y267724D02*
X681665D01*
X677335Y258276D02*
X681665D01*
X677335D02*
Y267724D01*
X681665Y258276D02*
Y267724D01*
X679500Y261130D02*
Y264870D01*
X677630Y263000D02*
X681370D01*
X345835Y357776D02*
X350165D01*
X345835Y367224D02*
X350165D01*
Y357776D02*
Y367224D01*
X345835Y357776D02*
Y367224D01*
X348000Y360630D02*
Y364370D01*
X346130Y362500D02*
X349870D01*
X212835Y400520D02*
X217165D01*
X212835Y409968D02*
X217165D01*
X212835Y400520D02*
Y409968D01*
X217165Y400520D02*
Y409968D01*
X215000Y403374D02*
Y407114D01*
X213130Y405244D02*
X216870D01*
X680835Y301776D02*
X685165D01*
X680835Y311224D02*
X685165D01*
X680835Y301776D02*
Y311224D01*
X685165Y301776D02*
Y311224D01*
X683000Y304630D02*
Y308370D01*
X681130Y306500D02*
X684870D01*
X158335Y334776D02*
X162665D01*
X158335Y344224D02*
X162665D01*
X158335Y334776D02*
Y344224D01*
X162665Y334776D02*
Y344224D01*
X160500Y337630D02*
Y341370D01*
X158630Y339500D02*
X162370D01*
X158335Y362724D02*
X162665D01*
X158335Y353276D02*
X162665D01*
Y362724D01*
X158335Y353276D02*
Y362724D01*
X160500Y356130D02*
Y359870D01*
X158630Y358000D02*
X162370D01*
X674835Y719276D02*
X679165D01*
X674835Y728724D02*
X679165D01*
X674835Y719276D02*
Y728724D01*
X679165Y719276D02*
Y728724D01*
X677000Y722130D02*
Y725870D01*
X675130Y724000D02*
X678870D01*
X653835Y719276D02*
X658165D01*
X653835Y728724D02*
X658165D01*
X653835Y719276D02*
Y728724D01*
X658165Y719276D02*
Y728724D01*
X656000Y722130D02*
Y725870D01*
X654130Y724000D02*
X657870D01*
X630835Y719276D02*
X635165D01*
X630835Y728724D02*
X635165D01*
X630835Y719276D02*
Y728724D01*
X635165Y719276D02*
Y728724D01*
X633000Y722130D02*
Y725870D01*
X631130Y724000D02*
X634870D01*
X561335Y719276D02*
X565665D01*
X561335Y728724D02*
X565665D01*
X561335Y719276D02*
Y728724D01*
X565665Y719276D02*
Y728724D01*
X563500Y722130D02*
Y725870D01*
X561630Y724000D02*
X565370D01*
X538335Y719276D02*
X542665D01*
X538335Y728724D02*
X542665D01*
X538335Y719276D02*
Y728724D01*
X542665Y719276D02*
Y728724D01*
X540500Y722130D02*
Y725870D01*
X538630Y724000D02*
X542370D01*
X515335Y719276D02*
X519665D01*
X515335Y728724D02*
X519665D01*
X515335Y719276D02*
Y728724D01*
X519665Y719276D02*
Y728724D01*
X517500Y722130D02*
Y725870D01*
X515630Y724000D02*
X519370D01*
X492335Y719276D02*
X496665D01*
X492335Y728724D02*
X496665D01*
X492335Y719276D02*
Y728724D01*
X496665Y719276D02*
Y728724D01*
X494500Y722130D02*
Y725870D01*
X492630Y724000D02*
X496370D01*
X422335Y719276D02*
X426665D01*
X422335Y728724D02*
X426665D01*
X422335Y719276D02*
Y728724D01*
X426665Y719276D02*
Y728724D01*
X424500Y722130D02*
Y725870D01*
X422630Y724000D02*
X426370D01*
X399335Y719276D02*
X403665D01*
X399335Y728724D02*
X403665D01*
X399335Y719276D02*
Y728724D01*
X403665Y719276D02*
Y728724D01*
X401500Y722130D02*
Y725870D01*
X399630Y724000D02*
X403370D01*
X376335Y719276D02*
X380665D01*
X376335Y728724D02*
X380665D01*
X376335Y719276D02*
Y728724D01*
X380665Y719276D02*
Y728724D01*
X378500Y722130D02*
Y725870D01*
X376630Y724000D02*
X380370D01*
X355335Y719276D02*
X359665D01*
X355335Y728724D02*
X359665D01*
X355335Y719276D02*
Y728724D01*
X359665Y719276D02*
Y728724D01*
X357500Y722130D02*
Y725870D01*
X355630Y724000D02*
X359370D01*
X275335Y728272D02*
X279665D01*
X275335Y718823D02*
X279665D01*
Y728272D01*
X275335Y718823D02*
Y728272D01*
X277500Y721677D02*
Y725417D01*
X275630Y723547D02*
X279370D01*
X263835Y728480D02*
X268165D01*
X263835Y719032D02*
X268165D01*
Y728480D01*
X263835Y719032D02*
Y728480D01*
X266000Y721886D02*
Y725626D01*
X264130Y723756D02*
X267870D01*
X240335Y719276D02*
X244665D01*
X240335Y728724D02*
X244665D01*
X240335Y719276D02*
Y728724D01*
X244665Y719276D02*
Y728724D01*
X242500Y722130D02*
Y725870D01*
X240630Y724000D02*
X244370D01*
X217335Y719276D02*
X221665D01*
X217335Y728724D02*
X221665D01*
X217335Y719276D02*
Y728724D01*
X221665Y719276D02*
Y728724D01*
X219500Y722130D02*
Y725870D01*
X217630Y724000D02*
X221370D01*
X194335Y719276D02*
X198665D01*
X194335Y728724D02*
X198665D01*
X194335Y719276D02*
Y728724D01*
X198665Y719276D02*
Y728724D01*
X196500Y722130D02*
Y725870D01*
X194630Y724000D02*
X198370D01*
X462335Y192776D02*
X466665D01*
X462335Y202224D02*
X466665D01*
X462335Y192776D02*
Y202224D01*
X466665Y192776D02*
Y202224D01*
X464500Y195630D02*
Y199370D01*
X462630Y197500D02*
X466370D01*
X439335Y192776D02*
X443665D01*
X439335Y202224D02*
X443665D01*
X439335Y192776D02*
Y202224D01*
X443665Y192776D02*
Y202224D01*
X441500Y195630D02*
Y199370D01*
X439630Y197500D02*
X443370D01*
X416335Y192776D02*
X420665D01*
X416335Y202224D02*
X420665D01*
X416335Y192776D02*
Y202224D01*
X420665Y192776D02*
Y202224D01*
X418500Y195630D02*
Y199370D01*
X416630Y197500D02*
X420370D01*
X400835Y191323D02*
X405165D01*
X400835Y200772D02*
X405165D01*
X400835Y191323D02*
Y200772D01*
X405165Y191323D02*
Y200772D01*
X403000Y194177D02*
Y197917D01*
X401130Y196047D02*
X404870D01*
X453500Y238532D02*
Y242469D01*
X451532Y240500D02*
X455469D01*
X323500Y286532D02*
Y290469D01*
X321532Y288500D02*
X325469D01*
X251031Y643500D02*
X254968D01*
X253000Y641532D02*
Y645469D01*
X342500Y200032D02*
Y203969D01*
X340532Y202000D02*
X344469D01*
X251531Y685000D02*
X255468D01*
X253500Y683032D02*
Y686969D01*
X421835Y605224D02*
X426165D01*
X421835Y595776D02*
X426165D01*
X421835D02*
Y605224D01*
X426165Y595776D02*
Y605224D01*
X424000Y598630D02*
Y602370D01*
X422130Y600500D02*
X425870D01*
X312335Y354020D02*
X316665D01*
X312335Y363468D02*
X316665D01*
Y354020D02*
Y363468D01*
X312335Y354020D02*
Y363468D01*
X314500Y356874D02*
Y360614D01*
X312630Y358744D02*
X316370D01*
X274276Y317335D02*
Y321665D01*
X283724Y317335D02*
Y321665D01*
X274276Y317335D02*
X283724D01*
X274276Y321665D02*
X283724D01*
X277130Y319500D02*
X280870D01*
X279000Y317630D02*
Y321370D01*
X259835Y393776D02*
X264165D01*
X259835Y403224D02*
X264165D01*
Y393776D02*
Y403224D01*
X259835Y393776D02*
Y403224D01*
X262000Y396630D02*
Y400370D01*
X260130Y398500D02*
X263870D01*
X326335Y152531D02*
X330665D01*
X326335Y161980D02*
X330665D01*
Y152531D02*
Y161980D01*
X326335Y152531D02*
Y161980D01*
X328500Y155386D02*
Y159126D01*
X326630Y157256D02*
X330370D01*
X353335Y393776D02*
X357665D01*
X353335Y403224D02*
X357665D01*
Y393776D02*
Y403224D01*
X353335Y393776D02*
Y403224D01*
X355500Y396630D02*
Y400370D01*
X353630Y398500D02*
X357370D01*
X161835Y260823D02*
X166165D01*
X161835Y270272D02*
X166165D01*
Y260823D02*
Y270272D01*
X161835Y260823D02*
Y270272D01*
X164000Y263677D02*
Y267417D01*
X162130Y265547D02*
X165870D01*
X181835Y254776D02*
X186165D01*
X181835Y264224D02*
X186165D01*
Y254776D02*
Y264224D01*
X181835Y254776D02*
Y264224D01*
X184000Y257630D02*
Y261370D01*
X182130Y259500D02*
X185870D01*
X203224Y261335D02*
Y265665D01*
X193776Y261335D02*
Y265665D01*
X203224D01*
X193776Y261335D02*
X203224D01*
X196630Y263500D02*
X200370D01*
X198500Y261630D02*
Y265370D01*
X221835Y254776D02*
X226165D01*
X221835Y264224D02*
X226165D01*
Y254776D02*
Y264224D01*
X221835Y254776D02*
Y264224D01*
X224000Y257630D02*
Y261370D01*
X222130Y259500D02*
X225870D01*
X243224Y259835D02*
Y264165D01*
X233776Y259835D02*
Y264165D01*
X243224D01*
X233776Y259835D02*
X243224D01*
X236630Y262000D02*
X240370D01*
X238500Y260130D02*
Y263870D01*
X261835Y254776D02*
X266165D01*
X261835Y264224D02*
X266165D01*
Y254776D02*
Y264224D01*
X261835Y254776D02*
Y264224D01*
X264000Y257630D02*
Y261370D01*
X262130Y259500D02*
X265870D01*
X260224Y418835D02*
Y423165D01*
X250776Y418835D02*
Y423165D01*
X260224D01*
X250776Y418835D02*
X260224D01*
X253630Y421000D02*
X257370D01*
X255500Y419130D02*
Y422870D01*
X272468Y418835D02*
Y423165D01*
X263020Y418835D02*
Y423165D01*
X272468D01*
X263020Y418835D02*
X272468D01*
X265874Y421000D02*
X269614D01*
X267744Y419130D02*
Y422870D01*
X288224Y418835D02*
Y423165D01*
X278776Y418835D02*
Y423165D01*
X288224D01*
X278776Y418835D02*
X288224D01*
X281630Y421000D02*
X285370D01*
X283500Y419130D02*
Y422870D01*
X300468Y418835D02*
Y423165D01*
X291020Y418835D02*
Y423165D01*
X300468D01*
X291020Y418835D02*
X300468D01*
X293874Y421000D02*
X297614D01*
X295744Y419130D02*
Y422870D01*
X312724Y418335D02*
Y422665D01*
X303276Y418335D02*
Y422665D01*
X312724D01*
X303276Y418335D02*
X312724D01*
X306130Y420500D02*
X309870D01*
X308000Y418630D02*
Y422370D01*
X325224Y418335D02*
Y422665D01*
X315776Y418335D02*
Y422665D01*
X325224D01*
X315776Y418335D02*
X325224D01*
X318630Y420500D02*
X322370D01*
X320500Y418630D02*
Y422370D01*
X386835Y254776D02*
X391165D01*
X386835Y264224D02*
X391165D01*
Y254776D02*
Y264224D01*
X386835Y254776D02*
Y264224D01*
X389000Y257630D02*
Y261370D01*
X387130Y259500D02*
X390870D01*
X409835Y254776D02*
X414165D01*
X409835Y264224D02*
X414165D01*
Y254776D02*
Y264224D01*
X409835Y254776D02*
Y264224D01*
X412000Y257630D02*
Y261370D01*
X410130Y259500D02*
X413870D01*
X432835Y254776D02*
X437165D01*
X432835Y264224D02*
X437165D01*
Y254776D02*
Y264224D01*
X432835Y254776D02*
Y264224D01*
X435000Y257630D02*
Y261370D01*
X433130Y259500D02*
X436870D01*
X455835Y254776D02*
X460165D01*
X455835Y264224D02*
X460165D01*
Y254776D02*
Y264224D01*
X455835Y254776D02*
Y264224D01*
X458000Y257630D02*
Y261370D01*
X456130Y259500D02*
X459870D01*
X475835Y254776D02*
X480165D01*
X475835Y264224D02*
X480165D01*
Y254776D02*
Y264224D01*
X475835Y254776D02*
Y264224D01*
X478000Y257630D02*
Y261370D01*
X476130Y259500D02*
X479870D01*
X497835Y254776D02*
X502165D01*
X497835Y264224D02*
X502165D01*
Y254776D02*
Y264224D01*
X497835Y254776D02*
Y264224D01*
X500000Y257630D02*
Y261370D01*
X498130Y259500D02*
X501870D01*
X519835Y254776D02*
X524165D01*
X519835Y264224D02*
X524165D01*
Y254776D02*
Y264224D01*
X519835Y254776D02*
Y264224D01*
X522000Y257630D02*
Y261370D01*
X520130Y259500D02*
X523870D01*
X541835Y254776D02*
X546165D01*
X541835Y264224D02*
X546165D01*
Y254776D02*
Y264224D01*
X541835Y254776D02*
Y264224D01*
X544000Y257630D02*
Y261370D01*
X542130Y259500D02*
X545870D01*
X599835Y234776D02*
X604165D01*
X599835Y244224D02*
X604165D01*
Y234776D02*
Y244224D01*
X599835Y234776D02*
Y244224D01*
X602000Y237630D02*
Y241370D01*
X600130Y239500D02*
X603870D01*
X623835Y265520D02*
X628165D01*
X623835Y274968D02*
X628165D01*
Y265520D02*
Y274968D01*
X623835Y265520D02*
Y274968D01*
X626000Y268374D02*
Y272114D01*
X624130Y270244D02*
X627870D01*
X289224Y285835D02*
Y290165D01*
X279776Y285835D02*
Y290165D01*
X289224D01*
X279776Y285835D02*
X289224D01*
X282630Y288000D02*
X286370D01*
X284500Y286130D02*
Y289870D01*
X409224Y285835D02*
Y290165D01*
X399776Y285835D02*
Y290165D01*
X409224D01*
X399776Y285835D02*
X409224D01*
X402630Y288000D02*
X406370D01*
X404500Y286130D02*
Y289870D01*
X421835Y617224D02*
X426165D01*
X421835Y607776D02*
X426165D01*
X421835D02*
Y617224D01*
X426165Y607776D02*
Y617224D01*
X424000Y610630D02*
Y614370D01*
X422130Y612500D02*
X425870D01*
X424835Y280776D02*
X429165D01*
X424835Y290224D02*
X429165D01*
Y280776D02*
Y290224D01*
X424835Y280776D02*
Y290224D01*
X427000Y283630D02*
Y287370D01*
X425130Y285500D02*
X428870D01*
X446835Y280776D02*
X451165D01*
X446835Y290224D02*
X451165D01*
Y280776D02*
Y290224D01*
X446835Y280776D02*
Y290224D01*
X449000Y283630D02*
Y287370D01*
X447130Y285500D02*
X450870D01*
X468224Y285835D02*
Y290165D01*
X458776Y285835D02*
Y290165D01*
X468224D01*
X458776Y285835D02*
X468224D01*
X461630Y288000D02*
X465370D01*
X463500Y286130D02*
Y289870D01*
X485224Y285835D02*
Y290165D01*
X475776Y285835D02*
Y290165D01*
X485224D01*
X475776Y285835D02*
X485224D01*
X478630Y288000D02*
X482370D01*
X480500Y286130D02*
Y289870D01*
X502224Y285835D02*
Y290165D01*
X492776Y285835D02*
Y290165D01*
X502224D01*
X492776Y285835D02*
X502224D01*
X495630Y288000D02*
X499370D01*
X497500Y286130D02*
Y289870D01*
X150335Y218032D02*
X154665D01*
X150335Y227480D02*
X154665D01*
Y218032D02*
Y227480D01*
X150335Y218032D02*
Y227480D01*
X152500Y220886D02*
Y224626D01*
X150630Y222756D02*
X154370D01*
X172335Y218032D02*
X176665D01*
X172335Y227480D02*
X176665D01*
Y218032D02*
Y227480D01*
X172335Y218032D02*
Y227480D01*
X174500Y220886D02*
Y224626D01*
X172630Y222756D02*
X176370D01*
X194335Y218032D02*
X198665D01*
X194335Y227480D02*
X198665D01*
Y218032D02*
Y227480D01*
X194335Y218032D02*
Y227480D01*
X196500Y220886D02*
Y224626D01*
X194630Y222756D02*
X198370D01*
X317335Y224532D02*
X321665D01*
X317335Y233980D02*
X321665D01*
Y224532D02*
Y233980D01*
X317335Y224532D02*
Y233980D01*
X319500Y227386D02*
Y231126D01*
X317630Y229256D02*
X321370D01*
X340335Y224532D02*
X344665D01*
X340335Y233980D02*
X344665D01*
Y224532D02*
Y233980D01*
X340335Y224532D02*
Y233980D01*
X342500Y227386D02*
Y231126D01*
X340630Y229256D02*
X344370D01*
X363335Y224776D02*
X367665D01*
X363335Y234225D02*
X367665D01*
Y224776D02*
Y234225D01*
X363335Y224776D02*
Y234225D01*
X365500Y227630D02*
Y231370D01*
X363630Y229500D02*
X367370D01*
X168724Y634335D02*
Y638665D01*
X159275Y634335D02*
Y638665D01*
X168724D01*
X159275Y634335D02*
X168724D01*
X162130Y636500D02*
X165870D01*
X164000Y634630D02*
Y638370D01*
X266835Y625032D02*
X271165D01*
X266835Y634480D02*
X271165D01*
Y625032D02*
Y634480D01*
X266835Y625032D02*
Y634480D01*
X269000Y627886D02*
Y631626D01*
X267130Y629756D02*
X270870D01*
X159532Y622335D02*
Y626665D01*
X168980Y622335D02*
Y626665D01*
X159532Y622335D02*
X168980D01*
X159532Y626665D02*
X168980D01*
X162386Y624500D02*
X166126D01*
X164256Y622630D02*
Y626370D01*
X283835Y448224D02*
X288165D01*
X283835Y438776D02*
X288165D01*
X283835D02*
Y448224D01*
X288165Y438776D02*
Y448224D01*
X286000Y441630D02*
Y445370D01*
X284130Y443500D02*
X287870D01*
X252335Y447224D02*
X256665D01*
X252335Y437776D02*
X256665D01*
X252335D02*
Y447224D01*
X256665Y437776D02*
Y447224D01*
X254500Y440630D02*
Y444370D01*
X252630Y442500D02*
X256370D01*
X240276Y436335D02*
Y440665D01*
X249725Y436335D02*
Y440665D01*
X240276Y436335D02*
X249725D01*
X240276Y440665D02*
X249725D01*
X243130Y438500D02*
X246870D01*
X245000Y436630D02*
Y440370D01*
X243276Y371835D02*
Y376165D01*
X252725Y371835D02*
Y376165D01*
X243276Y371835D02*
X252725D01*
X243276Y376165D02*
X252725D01*
X246130Y374000D02*
X249870D01*
X248000Y372130D02*
Y375870D01*
X241776Y399835D02*
Y404165D01*
X251225Y399835D02*
Y404165D01*
X241776Y399835D02*
X251225D01*
X241776Y404165D02*
X251225D01*
X244630Y402000D02*
X248370D01*
X246500Y400130D02*
Y403870D01*
X242835Y354776D02*
X247165D01*
X242835Y364225D02*
X247165D01*
Y354776D02*
Y364225D01*
X242835Y354776D02*
Y364225D01*
X245000Y357630D02*
Y361370D01*
X243130Y359500D02*
X246870D01*
X291835Y379532D02*
X296165D01*
X291835Y388980D02*
X296165D01*
Y379532D02*
Y388980D01*
X291835Y379532D02*
Y388980D01*
X294000Y382386D02*
Y386126D01*
X292130Y384256D02*
X295870D01*
X314835Y379532D02*
X319165D01*
X314835Y388980D02*
X319165D01*
Y379532D02*
Y388980D01*
X314835Y379532D02*
Y388980D01*
X317000Y382386D02*
Y386126D01*
X315130Y384256D02*
X318870D01*
X337835Y379532D02*
X342165D01*
X337835Y388980D02*
X342165D01*
Y379532D02*
Y388980D01*
X337835Y379532D02*
Y388980D01*
X340000Y382386D02*
Y386126D01*
X338130Y384256D02*
X341870D01*
X360835Y379532D02*
X365165D01*
X360835Y388980D02*
X365165D01*
Y379532D02*
Y388980D01*
X360835Y379532D02*
Y388980D01*
X363000Y382386D02*
Y386126D01*
X361130Y384256D02*
X364870D01*
X277835Y354276D02*
X282165D01*
X277835Y363725D02*
X282165D01*
Y354276D02*
Y363725D01*
X277835Y354276D02*
Y363725D01*
X280000Y357130D02*
Y360870D01*
X278130Y359000D02*
X281870D01*
X336224Y360335D02*
Y364665D01*
X326776Y360335D02*
Y364665D01*
X336224D01*
X326776Y360335D02*
X336224D01*
X329630Y362500D02*
X333370D01*
X331500Y360630D02*
Y364370D01*
X429835Y379532D02*
X434165D01*
X429835Y388980D02*
X434165D01*
Y379532D02*
Y388980D01*
X429835Y379532D02*
Y388980D01*
X432000Y382386D02*
Y386126D01*
X430130Y384256D02*
X433870D01*
X321335Y448224D02*
X325665D01*
X321335Y438776D02*
X325665D01*
X321335D02*
Y448224D01*
X325665Y438776D02*
Y448224D01*
X323500Y441630D02*
Y445370D01*
X321630Y443500D02*
X325370D01*
X300335Y189323D02*
X304665D01*
X300335Y198772D02*
X304665D01*
X300335Y189323D02*
Y198772D01*
X304665Y189323D02*
Y198772D01*
X302500Y192177D02*
Y195917D01*
X300630Y194047D02*
X304370D01*
X226335Y296276D02*
X230665D01*
X226335Y305724D02*
X230665D01*
X226335Y296276D02*
Y305724D01*
X230665Y296276D02*
Y305724D01*
X228500Y299130D02*
Y302870D01*
X226630Y301000D02*
X230370D01*
X562835Y248276D02*
X567165D01*
X562835Y257724D02*
X567165D01*
X562835Y248276D02*
Y257724D01*
X567165Y248276D02*
Y257724D01*
X565000Y251130D02*
Y254870D01*
X563130Y253000D02*
X566870D01*
X539835Y248276D02*
X544165D01*
X539835Y257724D02*
X544165D01*
X539835Y248276D02*
Y257724D01*
X544165Y248276D02*
Y257724D01*
X542000Y251130D02*
Y254870D01*
X540130Y253000D02*
X543870D01*
X516835Y248276D02*
X521165D01*
X516835Y257724D02*
X521165D01*
X516835Y248276D02*
Y257724D01*
X521165Y248276D02*
Y257724D01*
X519000Y251130D02*
Y254870D01*
X517130Y253000D02*
X520870D01*
X493835Y248276D02*
X498165D01*
X493835Y257724D02*
X498165D01*
X493835Y248276D02*
Y257724D01*
X498165Y248276D02*
Y257724D01*
X496000Y251130D02*
Y254870D01*
X494130Y253000D02*
X497870D01*
X470835Y248276D02*
X475165D01*
X470835Y257724D02*
X475165D01*
X470835Y248276D02*
Y257724D01*
X475165Y248276D02*
Y257724D01*
X473000Y251130D02*
Y254870D01*
X471130Y253000D02*
X474870D01*
X315835Y248276D02*
X320165D01*
X315835Y257724D02*
X320165D01*
X315835Y248276D02*
Y257724D01*
X320165Y248276D02*
Y257724D01*
X318000Y251130D02*
Y254870D01*
X316130Y253000D02*
X319870D01*
X294835Y248276D02*
X299165D01*
X294835Y257724D02*
X299165D01*
X294835Y248276D02*
Y257724D01*
X299165Y248276D02*
Y257724D01*
X297000Y251130D02*
Y254870D01*
X295130Y253000D02*
X298870D01*
X271835Y248276D02*
X276165D01*
X271835Y257724D02*
X276165D01*
X271835Y248276D02*
Y257724D01*
X276165Y248276D02*
Y257724D01*
X274000Y251130D02*
Y254870D01*
X272130Y253000D02*
X275870D01*
X249835Y248276D02*
X254165D01*
X249835Y257724D02*
X254165D01*
X249835Y248276D02*
Y257724D01*
X254165Y248276D02*
Y257724D01*
X252000Y251130D02*
Y254870D01*
X250130Y253000D02*
X253870D01*
X227835Y248276D02*
X232165D01*
X227835Y257724D02*
X232165D01*
X227835Y248276D02*
Y257724D01*
X232165Y248276D02*
Y257724D01*
X230000Y251130D02*
Y254870D01*
X228130Y253000D02*
X231870D01*
X204835Y248276D02*
X209165D01*
X204835Y257724D02*
X209165D01*
X204835Y248276D02*
Y257724D01*
X209165Y248276D02*
Y257724D01*
X207000Y251130D02*
Y254870D01*
X205130Y253000D02*
X208870D01*
X181835Y248276D02*
X186165D01*
X181835Y257724D02*
X186165D01*
X181835Y248276D02*
Y257724D01*
X186165Y248276D02*
Y257724D01*
X184000Y251130D02*
Y254870D01*
X182130Y253000D02*
X185870D01*
X483835Y142776D02*
X488165D01*
X483835Y152224D02*
X488165D01*
X483835Y142776D02*
Y152224D01*
X488165Y142776D02*
Y152224D01*
X486000Y145630D02*
Y149370D01*
X484130Y147500D02*
X487870D01*
X184835Y424776D02*
X189165D01*
X184835Y434224D02*
X189165D01*
X184835Y424776D02*
Y434224D01*
X189165Y424776D02*
Y434224D01*
X187000Y427630D02*
Y431370D01*
X185130Y429500D02*
X188870D01*
X161835Y424776D02*
X166165D01*
X161835Y434224D02*
X166165D01*
X161835Y424776D02*
Y434224D01*
X166165Y424776D02*
Y434224D01*
X164000Y427630D02*
Y431370D01*
X162130Y429500D02*
X165870D01*
X138835Y424776D02*
X143165D01*
X138835Y434224D02*
X143165D01*
X138835Y424776D02*
Y434224D01*
X143165Y424776D02*
Y434224D01*
X141000Y427630D02*
Y431370D01*
X139130Y429500D02*
X142870D01*
X564835Y167020D02*
X569165D01*
X564835Y176468D02*
X569165D01*
X564835Y167020D02*
Y176468D01*
X569165Y167020D02*
Y176468D01*
X567000Y169874D02*
Y173614D01*
X565130Y171744D02*
X568870D01*
X746835Y229323D02*
X751165D01*
X746835Y238772D02*
X751165D01*
X746835Y229323D02*
Y238772D01*
X751165Y229323D02*
Y238772D01*
X749000Y232177D02*
Y235917D01*
X747130Y234047D02*
X750870D01*
X700335Y186776D02*
X704665D01*
X700335Y196224D02*
X704665D01*
X700335Y186776D02*
Y196224D01*
X704665Y186776D02*
Y196224D01*
X702500Y189630D02*
Y193370D01*
X700630Y191500D02*
X704370D01*
X722835Y244520D02*
X727165D01*
X722835Y253968D02*
X727165D01*
X722835Y244520D02*
Y253968D01*
X727165Y244520D02*
Y253968D01*
X725000Y247374D02*
Y251114D01*
X723130Y249244D02*
X726870D01*
X478835Y119276D02*
X483165D01*
X478835Y128724D02*
X483165D01*
X478835Y119276D02*
Y128724D01*
X483165Y119276D02*
Y128724D01*
X481000Y122130D02*
Y125870D01*
X479130Y124000D02*
X482870D01*
X690031Y239335D02*
Y243665D01*
X699480Y239335D02*
Y243665D01*
X690031D02*
X699480D01*
X690031Y239335D02*
X699480D01*
X692886Y241500D02*
X696626D01*
X694756Y239630D02*
Y243370D01*
X720835Y212776D02*
X725165D01*
X720835Y222224D02*
X725165D01*
X720835Y212776D02*
Y222224D01*
X725165Y212776D02*
Y222224D01*
X723000Y215630D02*
Y219370D01*
X721130Y217500D02*
X724870D01*
X492335Y173276D02*
X496665D01*
X492335Y182724D02*
X496665D01*
X492335Y173276D02*
Y182724D01*
X496665Y173276D02*
Y182724D01*
X494500Y176130D02*
Y179870D01*
X492630Y178000D02*
X496370D01*
X676835Y212776D02*
X681165D01*
X676835Y222224D02*
X681165D01*
X676835Y212776D02*
Y222224D01*
X681165Y212776D02*
Y222224D01*
X679000Y215630D02*
Y219370D01*
X677130Y217500D02*
X680870D01*
X212335Y461520D02*
X216665D01*
X212335Y470969D02*
X216665D01*
X212335Y461520D02*
Y470969D01*
X216665Y461520D02*
Y470969D01*
X214500Y464374D02*
Y468114D01*
X212630Y466244D02*
X216370D01*
X190335Y461520D02*
X194665D01*
X190335Y470969D02*
X194665D01*
X190335Y461520D02*
Y470969D01*
X194665Y461520D02*
Y470969D01*
X192500Y464374D02*
Y468114D01*
X190630Y466244D02*
X194370D01*
X168335Y461520D02*
X172665D01*
X168335Y470969D02*
X172665D01*
X168335Y461520D02*
Y470969D01*
X172665Y461520D02*
Y470969D01*
X170500Y464374D02*
Y468114D01*
X168630Y466244D02*
X172370D01*
X146335Y461520D02*
X150665D01*
X146335Y470969D02*
X150665D01*
X146335Y461520D02*
Y470969D01*
X150665Y461520D02*
Y470969D01*
X148500Y464374D02*
Y468114D01*
X146630Y466244D02*
X150370D01*
X123335Y461520D02*
X127665D01*
X123335Y470969D02*
X127665D01*
X123335Y461520D02*
Y470969D01*
X127665Y461520D02*
Y470969D01*
X125500Y464374D02*
Y468114D01*
X123630Y466244D02*
X127370D01*
X102335Y461520D02*
X106665D01*
X102335Y470969D02*
X106665D01*
X102335Y461520D02*
Y470969D01*
X106665Y461520D02*
Y470969D01*
X104500Y464374D02*
Y468114D01*
X102630Y466244D02*
X106370D01*
X175335Y507724D02*
X179665D01*
X175335Y498276D02*
X179665D01*
Y507724D01*
X175335Y498276D02*
Y507724D01*
X177500Y501130D02*
Y504870D01*
X175630Y503000D02*
X179370D01*
X174835Y425020D02*
X179165D01*
X174835Y434468D02*
X179165D01*
X174835Y425020D02*
Y434468D01*
X179165Y425020D02*
Y434468D01*
X177000Y427874D02*
Y431614D01*
X175130Y429744D02*
X178870D01*
X174335Y483776D02*
X178665D01*
X174335Y493224D02*
X178665D01*
X174335Y483776D02*
Y493224D01*
X178665Y483776D02*
Y493224D01*
X176500Y486630D02*
Y490370D01*
X174630Y488500D02*
X178370D01*
X161228Y507335D02*
Y511665D01*
X170677Y507335D02*
Y511665D01*
X161228D02*
X170677D01*
X161228Y507335D02*
X170677D01*
X164083Y509500D02*
X167823D01*
X165953Y507630D02*
Y511370D01*
X180335Y372764D02*
X184665D01*
X180335Y382212D02*
X184665D01*
X180335Y372764D02*
Y382212D01*
X184665Y372764D02*
Y382212D01*
X182500Y375618D02*
Y379358D01*
X180630Y377488D02*
X184370D01*
X156835Y485776D02*
X161165D01*
X156835Y495224D02*
X161165D01*
X156835Y485776D02*
Y495224D01*
X161165Y485776D02*
Y495224D01*
X159000Y488630D02*
Y492370D01*
X157130Y490500D02*
X160870D01*
X135835Y485776D02*
X140165D01*
X135835Y495224D02*
X140165D01*
X135835Y485776D02*
Y495224D01*
X140165Y485776D02*
Y495224D01*
X138000Y488630D02*
Y492370D01*
X136130Y490500D02*
X139870D01*
X232130Y515000D02*
X235870D01*
X234000Y513130D02*
Y516870D01*
X236165Y510276D02*
Y519724D01*
X231835Y510276D02*
Y519724D01*
X236165D01*
X231835Y510276D02*
X236165D01*
X245630Y493047D02*
X249370D01*
X247500Y491177D02*
Y494917D01*
X249665Y488323D02*
Y497772D01*
X245335Y488323D02*
Y497772D01*
X249665D01*
X245335Y488323D02*
X249665D01*
X661835Y301776D02*
X666165D01*
X661835Y311224D02*
X666165D01*
X661835Y301776D02*
Y311224D01*
X666165Y301776D02*
Y311224D01*
X664000Y304630D02*
Y308370D01*
X662130Y306500D02*
X665870D01*
D102*
X441492Y223177D02*
X465508D01*
X441492Y257823D02*
X465508D01*
X441492Y223177D02*
Y257823D01*
X465508Y223177D02*
Y257823D01*
X311492Y271177D02*
X335508D01*
X311492Y305823D02*
X335508D01*
X311492Y271177D02*
Y305823D01*
X335508Y271177D02*
Y305823D01*
X270323Y631492D02*
Y655508D01*
X235677Y631492D02*
Y655508D01*
Y631492D02*
X270323D01*
X235677Y655508D02*
X270323D01*
X330492Y184677D02*
X354508D01*
X330492Y219323D02*
X354508D01*
X330492Y184677D02*
Y219323D01*
X354508Y184677D02*
Y219323D01*
X270823Y672992D02*
Y697008D01*
X236177Y672992D02*
Y697008D01*
Y672992D02*
X270823D01*
X236177Y697008D02*
X270823D01*
M02*
