G04 Layer_Color=8388736*
%FSLAX25Y25*%
%MOIN*%
G70*
G01*
G75*
%ADD37C,0.05000*%
%ADD45C,0.04500*%
%ADD53C,0.05000*%
%ADD69R,0.03650X0.04043*%
%ADD70R,0.03650X0.04043*%
%ADD71R,0.04831X0.07193*%
%ADD72O,0.06406X0.01484*%
%ADD73O,0.01484X0.06406*%
%ADD74O,0.02665X0.08374*%
%ADD75R,0.05815X0.05224*%
%ADD76R,0.07193X0.04831*%
%ADD77R,0.03650X0.03650*%
%ADD78O,0.01878X0.08374*%
%ADD79O,0.01681X0.10146*%
%ADD80O,0.10146X0.01681*%
%ADD81R,0.04043X0.03256*%
%ADD82R,0.03256X0.04043*%
%ADD83R,0.04043X0.03650*%
%ADD84R,0.03650X0.03650*%
%ADD85O,0.01681X0.07980*%
%ADD86O,0.07980X0.01681*%
%ADD87O,0.02075X0.07587*%
%ADD88R,0.05224X0.05815*%
%ADD89C,0.06500*%
%ADD90R,0.06406X0.06406*%
%ADD91C,0.06406*%
%ADD92C,0.04437*%
%ADD93C,0.07100*%
%ADD94R,0.06406X0.06406*%
%ADD95C,0.03900*%
%ADD96C,0.14279*%
%ADD97C,0.16248*%
%ADD98R,0.06500X0.06500*%
%ADD99C,0.08500*%
%ADD100C,0.15500*%
%ADD101R,0.04500X0.04500*%
%ADD102C,0.05500*%
%ADD103C,0.06700*%
%ADD104C,0.11500*%
%ADD105C,0.09500*%
%ADD106R,0.06700X0.06700*%
%ADD107C,0.06220*%
%ADD108C,0.14500*%
%ADD109C,0.07500*%
%ADD110R,0.07500X0.07500*%
%ADD111R,0.06500X0.06500*%
%ADD112C,0.06799*%
%ADD113C,0.03500*%
D37*
X735000Y-3000D02*
X753000D01*
Y14000D01*
X-3000Y653000D02*
X15000D01*
X-3000Y636000D02*
Y653000D01*
Y-3000D02*
X14000D01*
X-3000D02*
Y15000D01*
D45*
X523200Y50400D02*
D03*
Y70400D02*
D03*
Y60400D02*
D03*
X493200Y70400D02*
D03*
Y60400D02*
D03*
Y50400D02*
D03*
Y40400D02*
D03*
X168000Y521000D02*
D03*
Y511000D02*
D03*
Y501000D02*
D03*
Y491000D02*
D03*
Y481000D02*
D03*
Y471000D02*
D03*
Y461000D02*
D03*
Y451000D02*
D03*
Y441000D02*
D03*
Y431000D02*
D03*
X138000D02*
D03*
Y441000D02*
D03*
Y451000D02*
D03*
Y461000D02*
D03*
Y471000D02*
D03*
Y481000D02*
D03*
Y491000D02*
D03*
Y501000D02*
D03*
Y511000D02*
D03*
X181400Y182400D02*
D03*
Y192400D02*
D03*
Y202400D02*
D03*
Y212400D02*
D03*
X211400D02*
D03*
Y202400D02*
D03*
Y192400D02*
D03*
D53*
X177776Y265824D02*
D03*
X164200Y279400D02*
D03*
X332700Y161300D02*
D03*
Y142100D02*
D03*
D69*
X398244Y609400D02*
D03*
X403756D02*
D03*
X324809Y68000D02*
D03*
X319297D02*
D03*
X324809Y75000D02*
D03*
X319297D02*
D03*
X87056Y425600D02*
D03*
X81544D02*
D03*
X156644Y563000D02*
D03*
X162156D02*
D03*
X143756D02*
D03*
X138244D02*
D03*
X399244Y533500D02*
D03*
X404756D02*
D03*
X199356Y281100D02*
D03*
X193844D02*
D03*
X307312Y122600D02*
D03*
X301800D02*
D03*
X526344Y453200D02*
D03*
X531856D02*
D03*
X553756Y454000D02*
D03*
X548244D02*
D03*
X559056Y500900D02*
D03*
X553544D02*
D03*
X537156Y501200D02*
D03*
X531644D02*
D03*
X494556Y377300D02*
D03*
X489044D02*
D03*
D70*
X26140Y438874D02*
D03*
X22400Y431000D02*
D03*
X18660Y438874D02*
D03*
D71*
X123315Y70300D02*
D03*
X112685D02*
D03*
X94785Y174300D02*
D03*
X105415D02*
D03*
X94585Y235400D02*
D03*
X105215D02*
D03*
X93185Y293500D02*
D03*
X103815D02*
D03*
X93785Y107900D02*
D03*
X104415D02*
D03*
X311715Y114800D02*
D03*
X301085D02*
D03*
D72*
X290964Y143773D02*
D03*
Y141805D02*
D03*
Y147710D02*
D03*
Y145742D02*
D03*
Y137868D02*
D03*
Y135899D02*
D03*
Y139836D02*
D03*
Y131962D02*
D03*
Y129994D02*
D03*
Y133931D02*
D03*
Y128025D02*
D03*
Y126057D02*
D03*
X255531Y145742D02*
D03*
Y143773D02*
D03*
Y147710D02*
D03*
Y139836D02*
D03*
Y137868D02*
D03*
Y141805D02*
D03*
Y133931D02*
D03*
Y131962D02*
D03*
Y135899D02*
D03*
Y128025D02*
D03*
Y126057D02*
D03*
Y129994D02*
D03*
D73*
X276200Y154600D02*
D03*
X278168D02*
D03*
X272263D02*
D03*
X274231D02*
D03*
X282105D02*
D03*
X284074D02*
D03*
X280137D02*
D03*
X284074Y119167D02*
D03*
X274231D02*
D03*
X276200D02*
D03*
X272263D02*
D03*
X280137D02*
D03*
X282105D02*
D03*
X278168D02*
D03*
X268326Y154600D02*
D03*
X270294D02*
D03*
X262420D02*
D03*
X266357D02*
D03*
X264389D02*
D03*
X268326Y119167D02*
D03*
X270294D02*
D03*
X264389D02*
D03*
X266357D02*
D03*
X262420D02*
D03*
D74*
X425497Y595008D02*
D03*
X428646D02*
D03*
X419198D02*
D03*
X422347D02*
D03*
X434946D02*
D03*
X431796D02*
D03*
X403450D02*
D03*
X406599D02*
D03*
X400300D02*
D03*
X412898D02*
D03*
X416048D02*
D03*
X409749D02*
D03*
X422347Y546000D02*
D03*
X425497D02*
D03*
X419198D02*
D03*
X431796D02*
D03*
X434946D02*
D03*
X428646D02*
D03*
X403450D02*
D03*
X406599D02*
D03*
X400300D02*
D03*
X412898D02*
D03*
X416048D02*
D03*
X409749D02*
D03*
X387702Y595008D02*
D03*
X390851D02*
D03*
X381402D02*
D03*
X384552D02*
D03*
X394001D02*
D03*
X397150D02*
D03*
X375103D02*
D03*
X378253D02*
D03*
X371954D02*
D03*
X368804D02*
D03*
X394001Y546000D02*
D03*
X397150D02*
D03*
X387702D02*
D03*
X390851D02*
D03*
X384552D02*
D03*
X368804D02*
D03*
X371954D02*
D03*
X378253D02*
D03*
X381402D02*
D03*
X375103D02*
D03*
D75*
X286094Y566500D02*
D03*
X272906D02*
D03*
X286094Y583500D02*
D03*
X272906D02*
D03*
X141094Y281500D02*
D03*
X127906D02*
D03*
D76*
X245700Y567985D02*
D03*
Y578615D02*
D03*
D77*
X122600Y53800D02*
D03*
Y47894D02*
D03*
D78*
X72843Y443983D02*
D03*
X75402D02*
D03*
X77961D02*
D03*
X80520D02*
D03*
X83080D02*
D03*
X85639D02*
D03*
X88198D02*
D03*
X90757D02*
D03*
X72843Y466817D02*
D03*
X75402D02*
D03*
X77961D02*
D03*
X80520D02*
D03*
X83080D02*
D03*
X85639D02*
D03*
X88198D02*
D03*
X90757D02*
D03*
X62357Y467017D02*
D03*
X59798D02*
D03*
X57239D02*
D03*
X54680D02*
D03*
X52120D02*
D03*
X49561D02*
D03*
X47002D02*
D03*
X44443D02*
D03*
X62357Y444183D02*
D03*
X59798D02*
D03*
X57239D02*
D03*
X54680D02*
D03*
X52120D02*
D03*
X49561D02*
D03*
X47002D02*
D03*
X44443D02*
D03*
D79*
X241921Y249941D02*
D03*
X241921Y369823D02*
D03*
X300976Y249941D02*
D03*
X243890Y369823D02*
D03*
X245858D02*
D03*
X247827D02*
D03*
X249795D02*
D03*
X251764D02*
D03*
X253732D02*
D03*
X255701D02*
D03*
X257669D02*
D03*
X259638D02*
D03*
X261606D02*
D03*
X263575D02*
D03*
X265543D02*
D03*
X267512D02*
D03*
X269480D02*
D03*
X271449D02*
D03*
X273417D02*
D03*
X275386D02*
D03*
X277354D02*
D03*
X279323D02*
D03*
X281291D02*
D03*
X283260D02*
D03*
X285228D02*
D03*
X287197D02*
D03*
X289165D02*
D03*
X291134D02*
D03*
X293102D02*
D03*
X295071D02*
D03*
X297039D02*
D03*
X299008D02*
D03*
X300976D02*
D03*
X302945D02*
D03*
X304913D02*
D03*
X306882D02*
D03*
X308850D02*
D03*
X310819D02*
D03*
X312787D02*
D03*
X314756D02*
D03*
X316724D02*
D03*
X318693D02*
D03*
X320661D02*
D03*
X322630D02*
D03*
X324598D02*
D03*
X326567D02*
D03*
X328535D02*
D03*
X330504D02*
D03*
X332473D02*
D03*
X334441D02*
D03*
X336410D02*
D03*
X338378D02*
D03*
X340347D02*
D03*
X342315D02*
D03*
Y249941D02*
D03*
X340347D02*
D03*
X338378D02*
D03*
X336410D02*
D03*
X334441D02*
D03*
X332473D02*
D03*
X330504D02*
D03*
X328535D02*
D03*
X326567D02*
D03*
X324598D02*
D03*
X322630D02*
D03*
X320661D02*
D03*
X318693D02*
D03*
X316724D02*
D03*
X314756D02*
D03*
X312787D02*
D03*
X310819D02*
D03*
X308850D02*
D03*
X306882D02*
D03*
X304913D02*
D03*
X302945D02*
D03*
X299008D02*
D03*
X297039D02*
D03*
X295071D02*
D03*
X293102D02*
D03*
X291134D02*
D03*
X289165D02*
D03*
X287197D02*
D03*
X285228D02*
D03*
X283260D02*
D03*
X281291D02*
D03*
X279323D02*
D03*
X277354D02*
D03*
X275386D02*
D03*
X273417D02*
D03*
X271449D02*
D03*
X269480D02*
D03*
X267512D02*
D03*
X265543D02*
D03*
X263575D02*
D03*
X261606D02*
D03*
X259638D02*
D03*
X257669D02*
D03*
X255701D02*
D03*
X253732D02*
D03*
X251764D02*
D03*
X249795D02*
D03*
X247827D02*
D03*
X245858D02*
D03*
X243890D02*
D03*
D80*
X232177Y304961D02*
D03*
Y259685D02*
D03*
X352059D02*
D03*
Y289213D02*
D03*
Y283307D02*
D03*
X232177Y273465D02*
D03*
Y360079D02*
D03*
X352059D02*
D03*
Y358110D02*
D03*
Y356142D02*
D03*
Y354173D02*
D03*
Y352205D02*
D03*
Y350236D02*
D03*
Y348268D02*
D03*
Y346299D02*
D03*
Y344331D02*
D03*
Y342362D02*
D03*
Y340394D02*
D03*
Y338425D02*
D03*
Y336457D02*
D03*
Y334488D02*
D03*
Y332520D02*
D03*
Y330551D02*
D03*
Y328583D02*
D03*
Y326614D02*
D03*
Y324646D02*
D03*
Y322677D02*
D03*
Y320709D02*
D03*
Y318740D02*
D03*
Y316772D02*
D03*
Y314803D02*
D03*
Y312835D02*
D03*
Y310866D02*
D03*
Y308898D02*
D03*
Y306929D02*
D03*
Y304961D02*
D03*
Y302992D02*
D03*
Y301024D02*
D03*
Y299055D02*
D03*
Y297087D02*
D03*
Y295118D02*
D03*
Y293150D02*
D03*
Y291181D02*
D03*
Y287244D02*
D03*
Y285276D02*
D03*
Y281339D02*
D03*
Y279370D02*
D03*
Y277402D02*
D03*
Y275433D02*
D03*
Y273465D02*
D03*
Y271496D02*
D03*
Y269528D02*
D03*
Y267559D02*
D03*
Y265591D02*
D03*
Y263622D02*
D03*
Y261654D02*
D03*
X232177Y358110D02*
D03*
Y356142D02*
D03*
Y354173D02*
D03*
Y352205D02*
D03*
Y350236D02*
D03*
Y348268D02*
D03*
Y346299D02*
D03*
Y344331D02*
D03*
Y342362D02*
D03*
Y340394D02*
D03*
Y338425D02*
D03*
Y336457D02*
D03*
Y334488D02*
D03*
Y332520D02*
D03*
Y330551D02*
D03*
Y328583D02*
D03*
Y326614D02*
D03*
Y324646D02*
D03*
Y322677D02*
D03*
Y320709D02*
D03*
Y318740D02*
D03*
Y316772D02*
D03*
Y314803D02*
D03*
Y312835D02*
D03*
Y310866D02*
D03*
Y308898D02*
D03*
Y306929D02*
D03*
Y302992D02*
D03*
Y301024D02*
D03*
Y299055D02*
D03*
Y297087D02*
D03*
Y295118D02*
D03*
Y293150D02*
D03*
Y291181D02*
D03*
Y289213D02*
D03*
Y287244D02*
D03*
Y285276D02*
D03*
Y283307D02*
D03*
Y281339D02*
D03*
Y279370D02*
D03*
Y277402D02*
D03*
Y275433D02*
D03*
Y271496D02*
D03*
Y269528D02*
D03*
Y267559D02*
D03*
Y265591D02*
D03*
Y263622D02*
D03*
Y261654D02*
D03*
D81*
X299000Y585453D02*
D03*
Y579547D02*
D03*
X298500Y571953D02*
D03*
Y566047D02*
D03*
X250100Y181247D02*
D03*
Y187153D02*
D03*
X257300Y186953D02*
D03*
Y181047D02*
D03*
X264700Y186953D02*
D03*
Y181047D02*
D03*
X272300Y186553D02*
D03*
Y180647D02*
D03*
X297700Y180447D02*
D03*
Y186353D02*
D03*
X280500Y180647D02*
D03*
Y186553D02*
D03*
X304400Y185953D02*
D03*
Y180047D02*
D03*
X122100Y31053D02*
D03*
Y25147D02*
D03*
X49100Y296353D02*
D03*
Y290447D02*
D03*
X44800Y223847D02*
D03*
Y229753D02*
D03*
X288700Y186353D02*
D03*
Y180447D02*
D03*
X313600Y186153D02*
D03*
Y180247D02*
D03*
X392600Y84000D02*
D03*
Y78094D02*
D03*
X371400Y85200D02*
D03*
Y79294D02*
D03*
D82*
X101353Y157200D02*
D03*
X95447D02*
D03*
Y164000D02*
D03*
X101353D02*
D03*
X101753Y218200D02*
D03*
X95847D02*
D03*
X95947Y225400D02*
D03*
X101853D02*
D03*
X100553Y276800D02*
D03*
X94647D02*
D03*
Y283400D02*
D03*
X100553D02*
D03*
Y91900D02*
D03*
X94647D02*
D03*
X94600Y99400D02*
D03*
X100506D02*
D03*
X319100Y86000D02*
D03*
X325006D02*
D03*
X319100Y80500D02*
D03*
X325006D02*
D03*
X162553Y571400D02*
D03*
X156647D02*
D03*
X162306Y553800D02*
D03*
X156400D02*
D03*
X137647Y548800D02*
D03*
X143553D02*
D03*
X342353Y107700D02*
D03*
X336447D02*
D03*
X342453Y114200D02*
D03*
X336547D02*
D03*
X138047Y556600D02*
D03*
X143953D02*
D03*
X156247Y545200D02*
D03*
X162153D02*
D03*
X143953Y571000D02*
D03*
X138047D02*
D03*
X222847Y101400D02*
D03*
X228753D02*
D03*
X223147Y119300D02*
D03*
X229053D02*
D03*
X222647Y137600D02*
D03*
X228553D02*
D03*
X223047Y127800D02*
D03*
X228953D02*
D03*
X222647Y109900D02*
D03*
X228553D02*
D03*
X170753Y202600D02*
D03*
X164847D02*
D03*
X170953Y212600D02*
D03*
X165047D02*
D03*
X222094Y145000D02*
D03*
X228000D02*
D03*
D83*
X208600Y303456D02*
D03*
Y297944D02*
D03*
Y287644D02*
D03*
Y293156D02*
D03*
X185100Y298756D02*
D03*
Y293244D02*
D03*
X99000Y461156D02*
D03*
Y455644D02*
D03*
X36200Y453544D02*
D03*
Y459056D02*
D03*
X215500Y298756D02*
D03*
Y293244D02*
D03*
D84*
X58300Y294800D02*
D03*
X64206D02*
D03*
X56894Y225600D02*
D03*
X62800D02*
D03*
D85*
X304717Y401866D02*
D03*
X302748D02*
D03*
X300780D02*
D03*
X298811D02*
D03*
X296843D02*
D03*
X294874D02*
D03*
X292906D02*
D03*
X290937D02*
D03*
X288969D02*
D03*
X287000D02*
D03*
X285032D02*
D03*
X283063D02*
D03*
X281095D02*
D03*
X279126D02*
D03*
X277158D02*
D03*
X275189D02*
D03*
X273221D02*
D03*
X271252D02*
D03*
X269284D02*
D03*
X267315D02*
D03*
X265347D02*
D03*
X263378D02*
D03*
X261410D02*
D03*
X259441D02*
D03*
Y431000D02*
D03*
X302748D02*
D03*
X304717D02*
D03*
X261410D02*
D03*
X263378D02*
D03*
X265347D02*
D03*
X267315D02*
D03*
X269284D02*
D03*
X271252D02*
D03*
X273221D02*
D03*
X275189D02*
D03*
X277158D02*
D03*
X279126D02*
D03*
X281095D02*
D03*
X283063D02*
D03*
X285032D02*
D03*
X287000D02*
D03*
X288969D02*
D03*
X290937D02*
D03*
X292906D02*
D03*
X294874D02*
D03*
X296843D02*
D03*
X298811D02*
D03*
X300780D02*
D03*
X565433Y462500D02*
D03*
X563465D02*
D03*
X561496D02*
D03*
X559528D02*
D03*
X557559D02*
D03*
X555591D02*
D03*
X553622D02*
D03*
X551654D02*
D03*
X549685D02*
D03*
X547717D02*
D03*
X545748D02*
D03*
X543780D02*
D03*
X541811D02*
D03*
X539843D02*
D03*
X537874D02*
D03*
X535906D02*
D03*
X533937D02*
D03*
X531969D02*
D03*
X530000D02*
D03*
X528032D02*
D03*
X526063D02*
D03*
X524095D02*
D03*
X522126D02*
D03*
X520158D02*
D03*
Y491634D02*
D03*
X563465D02*
D03*
X565433D02*
D03*
X522126D02*
D03*
X524095D02*
D03*
X526063D02*
D03*
X528032D02*
D03*
X530000D02*
D03*
X531969D02*
D03*
X533937D02*
D03*
X535906D02*
D03*
X537874D02*
D03*
X539843D02*
D03*
X541811D02*
D03*
X543780D02*
D03*
X545748D02*
D03*
X547717D02*
D03*
X549685D02*
D03*
X551654D02*
D03*
X553622D02*
D03*
X555591D02*
D03*
X557559D02*
D03*
X559528D02*
D03*
X561496D02*
D03*
X366654Y402000D02*
D03*
X364685D02*
D03*
X362717D02*
D03*
X360748D02*
D03*
X358780D02*
D03*
X356811D02*
D03*
X354843D02*
D03*
X352874D02*
D03*
X350906D02*
D03*
X348937D02*
D03*
X346969D02*
D03*
X345000D02*
D03*
X343032D02*
D03*
X341063D02*
D03*
X339095D02*
D03*
X337126D02*
D03*
X335158D02*
D03*
X333189D02*
D03*
X331221D02*
D03*
X329252D02*
D03*
X327284D02*
D03*
X325315D02*
D03*
X323347D02*
D03*
X321378D02*
D03*
Y431134D02*
D03*
X364685D02*
D03*
X366654D02*
D03*
X323347D02*
D03*
X325315D02*
D03*
X327284D02*
D03*
X329252D02*
D03*
X331221D02*
D03*
X333189D02*
D03*
X335158D02*
D03*
X337126D02*
D03*
X339095D02*
D03*
X341063D02*
D03*
X343032D02*
D03*
X345000D02*
D03*
X346969D02*
D03*
X348937D02*
D03*
X350906D02*
D03*
X352874D02*
D03*
X354843D02*
D03*
X356811D02*
D03*
X358780D02*
D03*
X360748D02*
D03*
X362717D02*
D03*
X425496Y401866D02*
D03*
X423528D02*
D03*
X421559D02*
D03*
X419591D02*
D03*
X417622D02*
D03*
X415654D02*
D03*
X413685D02*
D03*
X411717D02*
D03*
X409748D02*
D03*
X407780D02*
D03*
X405811D02*
D03*
X403843D02*
D03*
X401874D02*
D03*
X399906D02*
D03*
X397937D02*
D03*
X395969D02*
D03*
X394000D02*
D03*
X392032D02*
D03*
X390063D02*
D03*
X388095D02*
D03*
X386126D02*
D03*
X384158D02*
D03*
X382189D02*
D03*
X380221D02*
D03*
Y431000D02*
D03*
X423528D02*
D03*
X425496D02*
D03*
X382189D02*
D03*
X384158D02*
D03*
X386126D02*
D03*
X388095D02*
D03*
X390063D02*
D03*
X392032D02*
D03*
X394000D02*
D03*
X395969D02*
D03*
X397937D02*
D03*
X399906D02*
D03*
X401874D02*
D03*
X403843D02*
D03*
X405811D02*
D03*
X407780D02*
D03*
X409748D02*
D03*
X411717D02*
D03*
X413685D02*
D03*
X415654D02*
D03*
X417622D02*
D03*
X419591D02*
D03*
X421559D02*
D03*
D86*
X447866Y281941D02*
D03*
Y283910D02*
D03*
Y285878D02*
D03*
Y287847D02*
D03*
Y289815D02*
D03*
Y291784D02*
D03*
Y293752D02*
D03*
Y295721D02*
D03*
Y297689D02*
D03*
Y299658D02*
D03*
Y301626D02*
D03*
Y303595D02*
D03*
Y305563D02*
D03*
Y307532D02*
D03*
Y309500D02*
D03*
Y311469D02*
D03*
Y313437D02*
D03*
Y315406D02*
D03*
Y317374D02*
D03*
Y319343D02*
D03*
Y321311D02*
D03*
Y323280D02*
D03*
Y325248D02*
D03*
Y327217D02*
D03*
X477000D02*
D03*
Y283910D02*
D03*
Y281941D02*
D03*
Y325248D02*
D03*
Y323280D02*
D03*
Y321311D02*
D03*
Y319343D02*
D03*
Y317374D02*
D03*
Y315406D02*
D03*
Y313437D02*
D03*
Y311469D02*
D03*
Y309500D02*
D03*
Y307532D02*
D03*
Y305563D02*
D03*
Y303595D02*
D03*
Y301626D02*
D03*
Y299658D02*
D03*
Y297689D02*
D03*
Y295721D02*
D03*
Y293752D02*
D03*
Y291784D02*
D03*
Y289815D02*
D03*
Y287847D02*
D03*
Y285878D02*
D03*
X448500Y343973D02*
D03*
Y345941D02*
D03*
Y347910D02*
D03*
Y349878D02*
D03*
Y351847D02*
D03*
Y353815D02*
D03*
Y355784D02*
D03*
Y357752D02*
D03*
Y359721D02*
D03*
Y361689D02*
D03*
Y363658D02*
D03*
Y365626D02*
D03*
Y367595D02*
D03*
Y369563D02*
D03*
Y371532D02*
D03*
Y373500D02*
D03*
Y375469D02*
D03*
Y377437D02*
D03*
Y379406D02*
D03*
Y381374D02*
D03*
Y383343D02*
D03*
Y385311D02*
D03*
Y387280D02*
D03*
Y389248D02*
D03*
X477634D02*
D03*
Y345941D02*
D03*
Y343973D02*
D03*
Y387280D02*
D03*
Y385311D02*
D03*
Y383343D02*
D03*
Y381374D02*
D03*
Y379406D02*
D03*
Y377437D02*
D03*
Y375469D02*
D03*
Y373500D02*
D03*
Y371532D02*
D03*
Y369563D02*
D03*
Y367595D02*
D03*
Y365626D02*
D03*
Y363658D02*
D03*
Y361689D02*
D03*
Y359721D02*
D03*
Y357752D02*
D03*
Y355784D02*
D03*
Y353815D02*
D03*
Y351847D02*
D03*
Y349878D02*
D03*
Y347910D02*
D03*
D87*
X209995Y568000D02*
D03*
X207436D02*
D03*
X204877D02*
D03*
X202318D02*
D03*
X199759D02*
D03*
X197200D02*
D03*
X192082Y544575D02*
D03*
X194641D02*
D03*
X197200D02*
D03*
X199759D02*
D03*
X202318D02*
D03*
X204877D02*
D03*
X194641Y568000D02*
D03*
X207436Y544575D02*
D03*
X209995D02*
D03*
X212554D02*
D03*
X215113D02*
D03*
X192082Y568000D02*
D03*
X212554D02*
D03*
X215113D02*
D03*
D88*
X180900Y352594D02*
D03*
Y339406D02*
D03*
D89*
X575000Y73800D02*
D03*
X504300Y413300D02*
D03*
X730000Y590000D02*
D03*
Y580000D02*
D03*
Y570000D02*
D03*
Y560000D02*
D03*
Y550000D02*
D03*
Y540000D02*
D03*
Y530000D02*
D03*
Y520000D02*
D03*
X700000Y590000D02*
D03*
Y580000D02*
D03*
Y570000D02*
D03*
Y560000D02*
D03*
Y550000D02*
D03*
Y540000D02*
D03*
Y530000D02*
D03*
Y520000D02*
D03*
X730000Y230000D02*
D03*
Y220000D02*
D03*
Y210000D02*
D03*
Y200000D02*
D03*
Y190000D02*
D03*
Y180000D02*
D03*
Y170000D02*
D03*
Y160000D02*
D03*
Y150000D02*
D03*
Y140000D02*
D03*
Y130000D02*
D03*
Y120000D02*
D03*
Y110000D02*
D03*
Y90000D02*
D03*
Y100000D02*
D03*
X700000Y230000D02*
D03*
Y220000D02*
D03*
Y210000D02*
D03*
Y200000D02*
D03*
Y190000D02*
D03*
Y180000D02*
D03*
Y170000D02*
D03*
Y160000D02*
D03*
Y150000D02*
D03*
Y140000D02*
D03*
Y130000D02*
D03*
Y120000D02*
D03*
Y110000D02*
D03*
Y90000D02*
D03*
Y100000D02*
D03*
X730000Y240000D02*
D03*
Y250000D02*
D03*
Y260000D02*
D03*
Y270000D02*
D03*
Y280000D02*
D03*
X700000Y250000D02*
D03*
Y240000D02*
D03*
Y260000D02*
D03*
Y270000D02*
D03*
Y280000D02*
D03*
X730000Y290000D02*
D03*
Y300000D02*
D03*
Y310000D02*
D03*
Y320000D02*
D03*
Y330000D02*
D03*
Y340000D02*
D03*
Y350000D02*
D03*
Y360000D02*
D03*
Y370000D02*
D03*
Y380000D02*
D03*
Y390000D02*
D03*
Y400000D02*
D03*
Y410000D02*
D03*
Y420000D02*
D03*
X700000Y290000D02*
D03*
Y300000D02*
D03*
Y310000D02*
D03*
Y320000D02*
D03*
Y330000D02*
D03*
Y340000D02*
D03*
Y350000D02*
D03*
Y360000D02*
D03*
Y380000D02*
D03*
Y370000D02*
D03*
Y390000D02*
D03*
Y400000D02*
D03*
Y410000D02*
D03*
Y420000D02*
D03*
Y430000D02*
D03*
Y440000D02*
D03*
Y450000D02*
D03*
Y460000D02*
D03*
Y470000D02*
D03*
Y480000D02*
D03*
Y490000D02*
D03*
Y500000D02*
D03*
Y510000D02*
D03*
X730000Y430000D02*
D03*
Y440000D02*
D03*
Y450000D02*
D03*
Y460000D02*
D03*
Y470000D02*
D03*
Y480000D02*
D03*
Y490000D02*
D03*
Y500000D02*
D03*
Y510000D02*
D03*
X198900Y164400D02*
D03*
X567900Y274700D02*
D03*
X490800Y431300D02*
D03*
X242600Y472000D02*
D03*
X292000Y98500D02*
D03*
X282000D02*
D03*
X268000Y79500D02*
D03*
X278000D02*
D03*
X273000Y69500D02*
D03*
X283000D02*
D03*
X259000Y98500D02*
D03*
X258000Y79500D02*
D03*
X249000Y98500D02*
D03*
X253000Y69500D02*
D03*
X263000D02*
D03*
X46700Y516100D02*
D03*
Y526100D02*
D03*
Y536100D02*
D03*
Y546100D02*
D03*
Y556100D02*
D03*
Y566100D02*
D03*
Y576100D02*
D03*
X603800Y615300D02*
D03*
Y605300D02*
D03*
Y596300D02*
D03*
D90*
X30800Y77400D02*
D03*
X563800Y173500D02*
D03*
X521900Y200900D02*
D03*
X378500Y199000D02*
D03*
X395500Y208000D02*
D03*
D91*
X30800Y87400D02*
D03*
Y97400D02*
D03*
Y107400D02*
D03*
Y117400D02*
D03*
Y127400D02*
D03*
X333000Y481000D02*
D03*
X343000Y471000D02*
D03*
X323000D02*
D03*
X333000D02*
D03*
X323000Y481000D02*
D03*
X313000D02*
D03*
Y471000D02*
D03*
X501000Y113000D02*
D03*
X471000Y123000D02*
D03*
X461000D02*
D03*
X491000D02*
D03*
X481000D02*
D03*
X491000Y113000D02*
D03*
X471000D02*
D03*
X461000D02*
D03*
X481000D02*
D03*
X451000Y123000D02*
D03*
X441000D02*
D03*
X431000D02*
D03*
X421000D02*
D03*
X411000D02*
D03*
X431000Y113000D02*
D03*
X441000D02*
D03*
X421000D02*
D03*
X451000D02*
D03*
X411000D02*
D03*
X573800Y173500D02*
D03*
Y163500D02*
D03*
Y143500D02*
D03*
Y153500D02*
D03*
Y133500D02*
D03*
Y113500D02*
D03*
Y103500D02*
D03*
Y123500D02*
D03*
X563800Y153500D02*
D03*
Y163500D02*
D03*
Y143500D02*
D03*
Y123500D02*
D03*
Y133500D02*
D03*
Y113500D02*
D03*
Y103500D02*
D03*
X531900Y200900D02*
D03*
Y190900D02*
D03*
Y170900D02*
D03*
Y180900D02*
D03*
Y160900D02*
D03*
Y140900D02*
D03*
Y130900D02*
D03*
Y150900D02*
D03*
X521900Y180900D02*
D03*
Y190900D02*
D03*
Y170900D02*
D03*
Y150900D02*
D03*
Y160900D02*
D03*
Y140900D02*
D03*
Y130900D02*
D03*
X378500Y189000D02*
D03*
Y179000D02*
D03*
X395500Y198000D02*
D03*
Y178000D02*
D03*
Y188000D02*
D03*
X440000Y459500D02*
D03*
X420000Y469500D02*
D03*
X410000D02*
D03*
X430000D02*
D03*
Y459500D02*
D03*
X410000D02*
D03*
X400000D02*
D03*
X420000D02*
D03*
X400000Y469500D02*
D03*
X390000D02*
D03*
X380000D02*
D03*
X370000D02*
D03*
X390000Y459500D02*
D03*
X380000D02*
D03*
X370000D02*
D03*
X317000Y504500D02*
D03*
X297000Y514500D02*
D03*
X287000D02*
D03*
X307000D02*
D03*
Y504500D02*
D03*
X287000D02*
D03*
X277000D02*
D03*
X297000D02*
D03*
X277000Y514500D02*
D03*
X267000D02*
D03*
X257000D02*
D03*
X247000D02*
D03*
X267000Y504500D02*
D03*
X257000D02*
D03*
X247000D02*
D03*
X391800Y68600D02*
D03*
X381800D02*
D03*
D92*
X109422Y416000D02*
D03*
X103517D02*
D03*
X115328D02*
D03*
X91706D02*
D03*
X85800D02*
D03*
X97611D02*
D03*
X138950D02*
D03*
X127139D02*
D03*
X121233D02*
D03*
X133044D02*
D03*
X79894D02*
D03*
X73989D02*
D03*
X62178D02*
D03*
X56272D02*
D03*
X68083D02*
D03*
X50367D02*
D03*
X44461D02*
D03*
D93*
X159816Y408323D02*
D03*
X23595D02*
D03*
D94*
X343000Y481000D02*
D03*
X501000Y123000D02*
D03*
X440000Y469500D02*
D03*
X317000Y514500D02*
D03*
X371800Y68600D02*
D03*
D95*
X199000Y298300D02*
D03*
Y294000D02*
D03*
D96*
X103300Y44000D02*
D03*
X85300Y31000D02*
D03*
D97*
Y54500D02*
D03*
D98*
X288000Y79500D02*
D03*
D99*
X301200Y56500D02*
D03*
X239800D02*
D03*
D100*
X293000Y44500D02*
D03*
X248000D02*
D03*
D101*
X523200Y40400D02*
D03*
X138000Y521000D02*
D03*
X211400Y182400D02*
D03*
D102*
X483800Y238700D02*
D03*
Y228700D02*
D03*
X473800Y248700D02*
D03*
Y238700D02*
D03*
X483800Y218700D02*
D03*
Y208700D02*
D03*
X473800Y218700D02*
D03*
X453800Y248700D02*
D03*
X463800D02*
D03*
X453800Y238700D02*
D03*
X473800Y228700D02*
D03*
Y208700D02*
D03*
X463800Y238700D02*
D03*
X483800Y198700D02*
D03*
X473800D02*
D03*
X483800Y188700D02*
D03*
X473800D02*
D03*
X463800D02*
D03*
X473800Y178700D02*
D03*
X453800Y188700D02*
D03*
Y178700D02*
D03*
X463800D02*
D03*
X443800D02*
D03*
X433800Y248700D02*
D03*
X443800D02*
D03*
X433800Y238700D02*
D03*
X443800D02*
D03*
X423800D02*
D03*
Y248700D02*
D03*
Y228700D02*
D03*
X413800Y238700D02*
D03*
Y228700D02*
D03*
X423800Y218700D02*
D03*
X413800D02*
D03*
X433800Y188700D02*
D03*
X443800D02*
D03*
X423800Y198700D02*
D03*
Y178700D02*
D03*
X433800D02*
D03*
X413800Y208700D02*
D03*
X423800D02*
D03*
X413800Y198700D02*
D03*
X423800Y188700D02*
D03*
X413800D02*
D03*
X516200Y584600D02*
D03*
X506200D02*
D03*
X516200Y574600D02*
D03*
X506200D02*
D03*
X496200Y594600D02*
D03*
X506200D02*
D03*
X486200D02*
D03*
X496200Y584600D02*
D03*
X486200D02*
D03*
X516200Y564600D02*
D03*
X506200D02*
D03*
X516200Y554600D02*
D03*
X506200D02*
D03*
Y544600D02*
D03*
X496200Y554600D02*
D03*
Y544600D02*
D03*
X486200D02*
D03*
X466200Y594600D02*
D03*
X476200D02*
D03*
Y584600D02*
D03*
X466200D02*
D03*
Y574600D02*
D03*
X456200Y584600D02*
D03*
X466200Y564600D02*
D03*
X456200Y574600D02*
D03*
X476200Y554600D02*
D03*
X486200D02*
D03*
X466200D02*
D03*
X476200Y544600D02*
D03*
X456200Y564600D02*
D03*
X466200Y544600D02*
D03*
X456200Y554600D02*
D03*
D103*
X611300Y417700D02*
D03*
Y407700D02*
D03*
Y427700D02*
D03*
Y387700D02*
D03*
Y397700D02*
D03*
Y457700D02*
D03*
Y467700D02*
D03*
Y437700D02*
D03*
Y447700D02*
D03*
Y337700D02*
D03*
Y327700D02*
D03*
Y307700D02*
D03*
Y317700D02*
D03*
Y367700D02*
D03*
Y377700D02*
D03*
Y347700D02*
D03*
Y357700D02*
D03*
Y297700D02*
D03*
Y277700D02*
D03*
Y287700D02*
D03*
Y257700D02*
D03*
Y267700D02*
D03*
Y237700D02*
D03*
Y247700D02*
D03*
Y217700D02*
D03*
Y207700D02*
D03*
Y227700D02*
D03*
Y197700D02*
D03*
Y187700D02*
D03*
D104*
Y505200D02*
D03*
D105*
Y140200D02*
D03*
D106*
Y177700D02*
D03*
D107*
X572000Y42000D02*
D03*
Y22315D02*
D03*
X552315D02*
D03*
Y42000D02*
D03*
X95500Y580685D02*
D03*
X75815D02*
D03*
X95500Y561000D02*
D03*
X75815D02*
D03*
D108*
X340000Y535000D02*
D03*
X536000Y105000D02*
D03*
X378000Y120000D02*
D03*
X30000Y620000D02*
D03*
X720000D02*
D03*
Y30000D02*
D03*
X30000D02*
D03*
D109*
X84100Y106400D02*
D03*
Y116400D02*
D03*
X84200Y169000D02*
D03*
Y179000D02*
D03*
X84300Y228700D02*
D03*
Y238700D02*
D03*
X83900Y288300D02*
D03*
Y298300D02*
D03*
D110*
X84100Y96400D02*
D03*
X84200Y159000D02*
D03*
X84300Y218700D02*
D03*
X83900Y278300D02*
D03*
D111*
X46700Y586100D02*
D03*
D112*
X200473Y599473D02*
D03*
X220158D02*
D03*
X230000D02*
D03*
X190630Y619158D02*
D03*
X230000D02*
D03*
X190630Y629000D02*
D03*
X230000D02*
D03*
X210315Y619158D02*
D03*
Y599473D02*
D03*
X190630D02*
D03*
X145157Y599315D02*
D03*
X164842D02*
D03*
X174685D02*
D03*
X135315Y619000D02*
D03*
X174685D02*
D03*
X135315Y628842D02*
D03*
X174685D02*
D03*
X155000Y619000D02*
D03*
Y599315D02*
D03*
X135315D02*
D03*
D113*
X363500Y600400D02*
D03*
X416700Y574700D02*
D03*
X417900Y570700D02*
D03*
X403100Y578600D02*
D03*
X442200Y618400D02*
D03*
X401400Y618100D02*
D03*
X398700Y615500D02*
D03*
X394400Y609400D02*
D03*
X439600Y530400D02*
D03*
X438500Y526700D02*
D03*
X419000Y527200D02*
D03*
X413500Y527100D02*
D03*
X409749Y527151D02*
D03*
X406599Y538401D02*
D03*
X395000Y534500D02*
D03*
X394001Y538399D02*
D03*
X390851Y534249D02*
D03*
X387702Y537898D02*
D03*
X397900Y558400D02*
D03*
X401200Y555900D02*
D03*
X386000Y525500D02*
D03*
X382300D02*
D03*
X378600Y525300D02*
D03*
X376000Y522500D02*
D03*
X389800Y529100D02*
D03*
X390600Y525200D02*
D03*
X395800Y515900D02*
D03*
X399400Y519900D02*
D03*
X366800Y528500D02*
D03*
X370400Y513700D02*
D03*
X351500Y610700D02*
D03*
X356700Y610800D02*
D03*
X403900Y568700D02*
D03*
X401700Y582700D02*
D03*
X311715Y96085D02*
D03*
X470000Y344200D02*
D03*
X455864Y375436D02*
D03*
X456300Y385200D02*
D03*
X470100Y375700D02*
D03*
X469800Y389300D02*
D03*
X469700Y355800D02*
D03*
X456600D02*
D03*
X224300Y325500D02*
D03*
X456695Y315406D02*
D03*
X454400Y309700D02*
D03*
X459000Y296700D02*
D03*
X329000Y301000D02*
D03*
X304000Y274100D02*
D03*
X272400Y268400D02*
D03*
X253000Y267400D02*
D03*
X201266Y231399D02*
D03*
X198000Y229433D02*
D03*
X204500Y229400D02*
D03*
X555800Y95500D02*
D03*
X39000Y235000D02*
D03*
X45600Y200700D02*
D03*
X452000Y172200D02*
D03*
X498300Y158400D02*
D03*
X495100Y103400D02*
D03*
X457700Y182300D02*
D03*
X496300Y161600D02*
D03*
X460600Y175000D02*
D03*
X496800Y151100D02*
D03*
X510100Y104263D02*
D03*
X495600Y144500D02*
D03*
X442900Y168100D02*
D03*
X378700Y226600D02*
D03*
X435200Y134200D02*
D03*
X467400Y203800D02*
D03*
X496417Y212700D02*
D03*
X512417Y196700D02*
D03*
X551734Y188100D02*
D03*
X455100Y263300D02*
D03*
X444300Y274100D02*
D03*
X452600Y210400D02*
D03*
X457100Y210500D02*
D03*
X460900Y196200D02*
D03*
X493300Y174600D02*
D03*
X506400Y166800D02*
D03*
X551600Y124900D02*
D03*
X418900Y223100D02*
D03*
X421700Y203500D02*
D03*
X429100Y211100D02*
D03*
X428900Y218400D02*
D03*
X448247Y190900D02*
D03*
X494300Y165800D02*
D03*
X478500Y170500D02*
D03*
X449300Y194600D02*
D03*
X495100Y194100D02*
D03*
X442400Y254500D02*
D03*
X459600Y254600D02*
D03*
X593100Y183800D02*
D03*
X508400Y248700D02*
D03*
X515400Y241700D02*
D03*
X511300Y231400D02*
D03*
X287367Y119167D02*
D03*
X265300Y131500D02*
D03*
Y142300D02*
D03*
X270700Y143600D02*
D03*
X454000Y289300D02*
D03*
X259863Y358862D02*
D03*
X295800Y356100D02*
D03*
X330600Y355700D02*
D03*
X446800Y338700D02*
D03*
X199000Y573600D02*
D03*
X252600Y566500D02*
D03*
X261800D02*
D03*
X117500Y524100D02*
D03*
X86700Y554900D02*
D03*
X453000Y530200D02*
D03*
X376500Y379500D02*
D03*
X395000Y368500D02*
D03*
X391300Y360900D02*
D03*
X454800Y398100D02*
D03*
X522300Y498300D02*
D03*
X369300Y523300D02*
D03*
X413000Y506100D02*
D03*
X133600Y454600D02*
D03*
X132400Y459400D02*
D03*
X124100Y469800D02*
D03*
X112200Y468400D02*
D03*
X113800Y476900D02*
D03*
X119900Y468800D02*
D03*
X116200Y468900D02*
D03*
X62000Y476100D02*
D03*
X333300Y192600D02*
D03*
X326700Y185600D02*
D03*
X316100Y160400D02*
D03*
X308005Y158505D02*
D03*
X296300Y146600D02*
D03*
X299636Y139836D02*
D03*
X308600Y233200D02*
D03*
X321400Y241400D02*
D03*
X280500Y241200D02*
D03*
X250800Y228900D02*
D03*
X255700Y239400D02*
D03*
X252000Y239900D02*
D03*
X248200Y226267D02*
D03*
X245000Y233800D02*
D03*
X247700Y231100D02*
D03*
X241100Y233200D02*
D03*
X238300Y236600D02*
D03*
X236084Y224016D02*
D03*
X238700Y221400D02*
D03*
X239100Y194600D02*
D03*
X235400D02*
D03*
X283600Y224500D02*
D03*
X319200Y260600D02*
D03*
X243500Y143900D02*
D03*
X247605Y141805D02*
D03*
X322630Y267130D02*
D03*
X292300Y231600D02*
D03*
X297100Y227200D02*
D03*
X311300Y165700D02*
D03*
X304800Y176000D02*
D03*
X309300Y172800D02*
D03*
X311500Y149700D02*
D03*
X314600Y147200D02*
D03*
Y138300D02*
D03*
X306000Y127900D02*
D03*
X275700Y208400D02*
D03*
X275200Y216100D02*
D03*
X272300Y224400D02*
D03*
X298900Y131600D02*
D03*
X296425Y128025D02*
D03*
X353600Y84200D02*
D03*
X348200Y78800D02*
D03*
X222200Y94500D02*
D03*
X230400D02*
D03*
X311715Y114285D02*
D03*
X346900Y94600D02*
D03*
X448500Y40200D02*
D03*
X436400Y100500D02*
D03*
X471260Y301626D02*
D03*
Y305563D02*
D03*
X406900Y213400D02*
D03*
X257100Y389219D02*
D03*
X492300Y326800D02*
D03*
X641000Y385100D02*
D03*
X236590Y147710D02*
D03*
X239500Y145300D02*
D03*
X168600Y225500D02*
D03*
X285800Y53200D02*
D03*
X303200Y72000D02*
D03*
X286200Y87200D02*
D03*
X339100Y93200D02*
D03*
X228553Y132653D02*
D03*
X335700Y91200D02*
D03*
X224853Y115100D02*
D03*
X222647Y132853D02*
D03*
X257800Y92000D02*
D03*
X89100Y473300D02*
D03*
X88500Y457100D02*
D03*
X77800Y455300D02*
D03*
X72200Y455200D02*
D03*
X65900Y454900D02*
D03*
X68500Y462474D02*
D03*
X21332Y462100D02*
D03*
X27600Y464200D02*
D03*
X38400Y475000D02*
D03*
X57100Y473600D02*
D03*
X75800Y474400D02*
D03*
X49900Y478100D02*
D03*
X7700Y445000D02*
D03*
X68500Y450326D02*
D03*
X80520Y473680D02*
D03*
X85400Y473900D02*
D03*
X243300Y350800D02*
D03*
X243800Y315300D02*
D03*
X244793Y283307D02*
D03*
X250300Y279000D02*
D03*
X285228Y260172D02*
D03*
X287600Y268200D02*
D03*
X343766Y310866D02*
D03*
X334800Y312700D02*
D03*
X334600Y335200D02*
D03*
X330800Y352000D02*
D03*
X365300Y89600D02*
D03*
Y103700D02*
D03*
X436600Y228500D02*
D03*
X436244Y216700D02*
D03*
X482740Y295721D02*
D03*
Y303595D02*
D03*
X483900Y309100D02*
D03*
X470688Y314488D02*
D03*
X72500Y403700D02*
D03*
X141700Y195300D02*
D03*
Y200100D02*
D03*
Y204600D02*
D03*
X245300Y323700D02*
D03*
X259700Y265800D02*
D03*
X340895Y352205D02*
D03*
X265347Y417054D02*
D03*
X407500Y500000D02*
D03*
X500500Y523500D02*
D03*
X396000Y489000D02*
D03*
X399000Y491500D02*
D03*
X401500Y494500D02*
D03*
X404000Y497500D02*
D03*
X393000Y486500D02*
D03*
X538500Y628500D02*
D03*
X549000Y624500D02*
D03*
X552500Y622000D02*
D03*
X202318Y550418D02*
D03*
X215300Y562800D02*
D03*
X215113Y551287D02*
D03*
X339700Y409700D02*
D03*
X413800Y438300D02*
D03*
X389500Y355000D02*
D03*
X454400Y321200D02*
D03*
X385182Y348500D02*
D03*
X395000Y376500D02*
D03*
X392500Y371400D02*
D03*
X470688Y327188D02*
D03*
X482740Y283910D02*
D03*
Y291784D02*
D03*
X366478Y438522D02*
D03*
X462000Y379300D02*
D03*
X261300Y413700D02*
D03*
X490300Y563609D02*
D03*
X52000Y459500D02*
D03*
X54700Y456900D02*
D03*
X99000Y465300D02*
D03*
X154644Y515344D02*
D03*
X50500Y281600D02*
D03*
X54200Y278200D02*
D03*
X550500Y506000D02*
D03*
X540700Y512000D02*
D03*
X547200Y444200D02*
D03*
X198300Y554400D02*
D03*
X277600Y140500D02*
D03*
X247827Y259373D02*
D03*
X329000Y225400D02*
D03*
X275900Y180500D02*
D03*
X268100Y184000D02*
D03*
X268300Y230700D02*
D03*
X256200Y216100D02*
D03*
X254000Y211600D02*
D03*
X246100Y215200D02*
D03*
X267400Y238400D02*
D03*
X294200Y352100D02*
D03*
X281291Y355309D02*
D03*
X275300Y355200D02*
D03*
X250500Y351100D02*
D03*
X296174Y274500D02*
D03*
X292474D02*
D03*
X299874D02*
D03*
X266330Y337530D02*
D03*
X268946Y340146D02*
D03*
X271562Y342762D02*
D03*
X246430Y357430D02*
D03*
X243813Y354813D02*
D03*
X249046Y360046D02*
D03*
X251662Y362662D02*
D03*
X206900Y517932D02*
D03*
X211700Y519500D02*
D03*
X209500Y527200D02*
D03*
X213200Y526900D02*
D03*
X367700Y183200D02*
D03*
X383616Y90116D02*
D03*
X426400Y101000D02*
D03*
X309600Y389100D02*
D03*
X312787Y361613D02*
D03*
X358900Y394300D02*
D03*
X362600Y393700D02*
D03*
X319800Y359300D02*
D03*
X323100Y356500D02*
D03*
X319000Y351500D02*
D03*
X365800Y380100D02*
D03*
X344094Y340394D02*
D03*
X145200Y234800D02*
D03*
X154300Y231600D02*
D03*
X159800Y254300D02*
D03*
X188400Y286700D02*
D03*
X153900Y281500D02*
D03*
X214900Y288800D02*
D03*
X261400Y289400D02*
D03*
X206800Y320500D02*
D03*
X211600Y324200D02*
D03*
X154950Y388550D02*
D03*
X176400Y367100D02*
D03*
X180900Y333200D02*
D03*
X242008Y302992D02*
D03*
X247900Y302700D02*
D03*
X259400Y286100D02*
D03*
X264500Y294600D02*
D03*
X223800Y364400D02*
D03*
X221016Y361616D02*
D03*
X218400Y359000D02*
D03*
X215784Y356384D02*
D03*
X213167Y353767D02*
D03*
X208991Y349591D02*
D03*
X206375Y346975D02*
D03*
X187463Y430037D02*
D03*
X188400Y523900D02*
D03*
X305300Y585500D02*
D03*
X387500Y480500D02*
D03*
X390000Y483500D02*
D03*
X362300Y469100D02*
D03*
X358780Y463220D02*
D03*
X487700Y526300D02*
D03*
X359700Y605000D02*
D03*
X354700Y602400D02*
D03*
X364900Y448900D02*
D03*
X309600Y377763D02*
D03*
Y385400D02*
D03*
Y381463D02*
D03*
X314700Y377900D02*
D03*
Y407500D02*
D03*
X311300Y427800D02*
D03*
X315900Y420100D02*
D03*
X194300Y229433D02*
D03*
X377400Y87900D02*
D03*
X470400Y40600D02*
D03*
X520000Y80153D02*
D03*
X468900Y321400D02*
D03*
X336500Y296000D02*
D03*
X384800Y344219D02*
D03*
X379900Y328000D02*
D03*
X436000Y312000D02*
D03*
X433767Y309000D02*
D03*
X381309Y332891D02*
D03*
X381500Y336900D02*
D03*
X436500Y305000D02*
D03*
X434067Y302200D02*
D03*
X433500Y298400D02*
D03*
X433000Y292500D02*
D03*
X430780Y295721D02*
D03*
X336600Y445600D02*
D03*
X405000Y243300D02*
D03*
X342800Y303700D02*
D03*
X344600Y297500D02*
D03*
X306700Y300900D02*
D03*
X215300Y325400D02*
D03*
X239200Y314400D02*
D03*
X263713Y334913D02*
D03*
X263100Y351100D02*
D03*
X423991Y283910D02*
D03*
X428585Y289815D02*
D03*
X427400Y286100D02*
D03*
X373600Y308900D02*
D03*
X447800Y259900D02*
D03*
X418300Y268300D02*
D03*
X399500D02*
D03*
X431000Y232800D02*
D03*
X241600Y211500D02*
D03*
X238000Y215900D02*
D03*
X229900Y209000D02*
D03*
Y222000D02*
D03*
X285900Y241400D02*
D03*
X275700Y241000D02*
D03*
X216600Y214900D02*
D03*
X240600Y550500D02*
D03*
X227800Y537700D02*
D03*
X217900D02*
D03*
X198900Y537500D02*
D03*
X457100Y217000D02*
D03*
X478500Y159600D02*
D03*
X365030Y279370D02*
D03*
X401700Y240000D02*
D03*
X260900Y588500D02*
D03*
X260100Y576100D02*
D03*
X306200Y131600D02*
D03*
X309900Y137500D02*
D03*
X398000Y160200D02*
D03*
X406500Y168700D02*
D03*
Y195800D02*
D03*
Y205600D02*
D03*
X230500Y239700D02*
D03*
X223407Y246500D02*
D03*
X150500Y231600D02*
D03*
X136000Y236800D02*
D03*
X157184Y251684D02*
D03*
X154567Y249067D02*
D03*
X146719Y241219D02*
D03*
X140500Y236800D02*
D03*
X149400Y243900D02*
D03*
X153100Y245300D02*
D03*
X292600Y439400D02*
D03*
X285900Y440900D02*
D03*
X271400Y439400D02*
D03*
X264400Y438400D02*
D03*
X257100Y385519D02*
D03*
Y381582D02*
D03*
Y377881D02*
D03*
X292906Y395794D02*
D03*
X290937Y407837D02*
D03*
X289800Y387400D02*
D03*
X270500Y395200D02*
D03*
X277200Y395100D02*
D03*
X287100Y394300D02*
D03*
X268500Y420600D02*
D03*
X333400Y438500D02*
D03*
X321378Y438522D02*
D03*
X326900Y443100D02*
D03*
X354843Y438458D02*
D03*
X347400Y442300D02*
D03*
X354843Y395157D02*
D03*
X325700Y394300D02*
D03*
X446900Y392100D02*
D03*
X446500Y398100D02*
D03*
X419800Y385500D02*
D03*
X425500Y392300D02*
D03*
X414000Y394900D02*
D03*
X407644Y385244D02*
D03*
X392000Y437800D02*
D03*
X380100D02*
D03*
X383700Y446200D02*
D03*
X425700Y437800D02*
D03*
X422400Y445800D02*
D03*
X513700Y447500D02*
D03*
X522300Y453400D02*
D03*
X536100Y452400D02*
D03*
X551700Y449600D02*
D03*
X549900Y500900D02*
D03*
X531644Y504744D02*
D03*
X471043Y361558D02*
D03*
X457300Y364600D02*
D03*
X471260Y297689D02*
D03*
X465972Y299300D02*
D03*
X465500Y287300D02*
D03*
X471260Y289815D02*
D03*
Y285878D02*
D03*
X537000Y87000D02*
D03*
X518000Y104000D02*
D03*
X237185Y576500D02*
D03*
X201100Y576800D02*
D03*
X188800Y577100D02*
D03*
X150000Y610000D02*
D03*
X367400Y133400D02*
D03*
X336000Y183500D02*
D03*
X338456Y286200D02*
D03*
X342496Y271496D02*
D03*
X335702Y277402D02*
D03*
X361000Y275000D02*
D03*
X360000Y248500D02*
D03*
X365500D02*
D03*
X389500Y154200D02*
D03*
X370700Y248500D02*
D03*
X375900D02*
D03*
X244600Y192200D02*
D03*
X265800Y147900D02*
D03*
X496000Y189000D02*
D03*
X530000Y209000D02*
D03*
X579300Y613200D02*
D03*
X576000Y610000D02*
D03*
X545500Y626500D02*
D03*
X385500Y391200D02*
D03*
X332700Y410300D02*
D03*
X355900Y412900D02*
D03*
X349000Y409700D02*
D03*
X358200Y409600D02*
D03*
X258000Y420900D02*
D03*
X399100Y392100D02*
D03*
X392000Y394800D02*
D03*
X379800Y396100D02*
D03*
X373600Y429700D02*
D03*
X377200Y425000D02*
D03*
X239200Y331300D02*
D03*
X243100Y335800D02*
D03*
X247600Y329500D02*
D03*
X253700Y190000D02*
D03*
M02*
