G04 Layer_Color=8421504*
%FSLAX25Y25*%
%MOIN*%
G70*
G01*
G75*
%ADD10R,0.03150X0.03543*%
%ADD11R,0.04724X0.05315*%
%ADD12R,0.03543X0.03150*%
%ADD13O,0.07480X0.01181*%
%ADD14O,0.01181X0.07480*%
%ADD15O,0.01575X0.07087*%
%ADD16R,0.03543X0.02756*%
%ADD17R,0.04331X0.06693*%
%ADD18R,0.02756X0.03543*%
%ADD19R,0.03150X0.03150*%
%ADD20R,0.05315X0.04724*%
%ADD21O,0.09646X0.01181*%
%ADD22O,0.01181X0.09646*%
%ADD23O,0.01378X0.07874*%
%ADD24R,0.03150X0.03150*%
%ADD25R,0.06693X0.04331*%
%ADD26O,0.02165X0.07874*%
%ADD27O,0.05905X0.00984*%
%ADD28O,0.00984X0.05905*%
%ADD29R,0.03150X0.03543*%
%ADD37C,0.05000*%
D10*
X489044Y377300D02*
D03*
X494556D02*
D03*
X531644Y501200D02*
D03*
X537156D02*
D03*
X553544Y500900D02*
D03*
X559056D02*
D03*
X548244Y454000D02*
D03*
X553756D02*
D03*
X531856Y453200D02*
D03*
X526344D02*
D03*
X301800Y122600D02*
D03*
X307312D02*
D03*
X193844Y281100D02*
D03*
X199356D02*
D03*
X404756Y533500D02*
D03*
X399244D02*
D03*
X138244Y563000D02*
D03*
X143756D02*
D03*
X162156D02*
D03*
X156644D02*
D03*
X81544Y425600D02*
D03*
X87056D02*
D03*
X319297Y75000D02*
D03*
X324809D02*
D03*
X319297Y68000D02*
D03*
X324809D02*
D03*
X403756Y609400D02*
D03*
X398244D02*
D03*
D11*
X180900Y339406D02*
D03*
Y352594D02*
D03*
D12*
X215500Y293244D02*
D03*
Y298756D02*
D03*
X36200Y459056D02*
D03*
Y453544D02*
D03*
X99000Y455644D02*
D03*
Y461156D02*
D03*
X185100Y293244D02*
D03*
Y298756D02*
D03*
X208600Y293156D02*
D03*
Y287644D02*
D03*
Y297944D02*
D03*
Y303456D02*
D03*
D13*
X477634Y347910D02*
D03*
Y349878D02*
D03*
Y351847D02*
D03*
Y353815D02*
D03*
Y355784D02*
D03*
Y357752D02*
D03*
Y359721D02*
D03*
Y361689D02*
D03*
Y363658D02*
D03*
Y365626D02*
D03*
Y367595D02*
D03*
Y369563D02*
D03*
Y371532D02*
D03*
Y373500D02*
D03*
Y375469D02*
D03*
Y377437D02*
D03*
Y379406D02*
D03*
Y381374D02*
D03*
Y383343D02*
D03*
Y385311D02*
D03*
Y387280D02*
D03*
Y343973D02*
D03*
Y345941D02*
D03*
Y389248D02*
D03*
X448500D02*
D03*
Y387280D02*
D03*
Y385311D02*
D03*
Y383343D02*
D03*
Y381374D02*
D03*
Y379406D02*
D03*
Y377437D02*
D03*
Y375469D02*
D03*
Y373500D02*
D03*
Y371532D02*
D03*
Y369563D02*
D03*
Y367595D02*
D03*
Y365626D02*
D03*
Y363658D02*
D03*
Y361689D02*
D03*
Y359721D02*
D03*
Y357752D02*
D03*
Y355784D02*
D03*
Y353815D02*
D03*
Y351847D02*
D03*
Y349878D02*
D03*
Y347910D02*
D03*
Y345941D02*
D03*
Y343973D02*
D03*
X477000Y285878D02*
D03*
Y287847D02*
D03*
Y289815D02*
D03*
Y291784D02*
D03*
Y293752D02*
D03*
Y295721D02*
D03*
Y297689D02*
D03*
Y299658D02*
D03*
Y301626D02*
D03*
Y303595D02*
D03*
Y305563D02*
D03*
Y307532D02*
D03*
Y309500D02*
D03*
Y311469D02*
D03*
Y313437D02*
D03*
Y315406D02*
D03*
Y317374D02*
D03*
Y319343D02*
D03*
Y321311D02*
D03*
Y323280D02*
D03*
Y325248D02*
D03*
Y281941D02*
D03*
Y283910D02*
D03*
Y327217D02*
D03*
X447866D02*
D03*
Y325248D02*
D03*
Y323280D02*
D03*
Y321311D02*
D03*
Y319343D02*
D03*
Y317374D02*
D03*
Y315406D02*
D03*
Y313437D02*
D03*
Y311469D02*
D03*
Y309500D02*
D03*
Y307532D02*
D03*
Y305563D02*
D03*
Y303595D02*
D03*
Y301626D02*
D03*
Y299658D02*
D03*
Y297689D02*
D03*
Y295721D02*
D03*
Y293752D02*
D03*
Y291784D02*
D03*
Y289815D02*
D03*
Y287847D02*
D03*
Y285878D02*
D03*
Y283910D02*
D03*
Y281941D02*
D03*
D14*
X421559Y431000D02*
D03*
X419591D02*
D03*
X417622D02*
D03*
X415654D02*
D03*
X413685D02*
D03*
X411717D02*
D03*
X409748D02*
D03*
X407780D02*
D03*
X405811D02*
D03*
X403843D02*
D03*
X401874D02*
D03*
X399906D02*
D03*
X397937D02*
D03*
X395969D02*
D03*
X394000D02*
D03*
X392032D02*
D03*
X390063D02*
D03*
X388095D02*
D03*
X386126D02*
D03*
X384158D02*
D03*
X382189D02*
D03*
X425496D02*
D03*
X423528D02*
D03*
X380221D02*
D03*
Y401866D02*
D03*
X382189D02*
D03*
X384158D02*
D03*
X386126D02*
D03*
X388095D02*
D03*
X390063D02*
D03*
X392032D02*
D03*
X394000D02*
D03*
X395969D02*
D03*
X397937D02*
D03*
X399906D02*
D03*
X401874D02*
D03*
X403843D02*
D03*
X405811D02*
D03*
X407780D02*
D03*
X409748D02*
D03*
X411717D02*
D03*
X413685D02*
D03*
X415654D02*
D03*
X417622D02*
D03*
X419591D02*
D03*
X421559D02*
D03*
X423528D02*
D03*
X425496D02*
D03*
X362717Y431134D02*
D03*
X360748D02*
D03*
X358780D02*
D03*
X356811D02*
D03*
X354843D02*
D03*
X352874D02*
D03*
X350906D02*
D03*
X348937D02*
D03*
X346969D02*
D03*
X345000D02*
D03*
X343032D02*
D03*
X341063D02*
D03*
X339095D02*
D03*
X337126D02*
D03*
X335158D02*
D03*
X333189D02*
D03*
X331221D02*
D03*
X329252D02*
D03*
X327284D02*
D03*
X325315D02*
D03*
X323347D02*
D03*
X366654D02*
D03*
X364685D02*
D03*
X321378D02*
D03*
Y402000D02*
D03*
X323347D02*
D03*
X325315D02*
D03*
X327284D02*
D03*
X329252D02*
D03*
X331221D02*
D03*
X333189D02*
D03*
X335158D02*
D03*
X337126D02*
D03*
X339095D02*
D03*
X341063D02*
D03*
X343032D02*
D03*
X345000D02*
D03*
X346969D02*
D03*
X348937D02*
D03*
X350906D02*
D03*
X352874D02*
D03*
X354843D02*
D03*
X356811D02*
D03*
X358780D02*
D03*
X360748D02*
D03*
X362717D02*
D03*
X364685D02*
D03*
X366654D02*
D03*
X561496Y491634D02*
D03*
X559528D02*
D03*
X557559D02*
D03*
X555591D02*
D03*
X553622D02*
D03*
X551654D02*
D03*
X549685D02*
D03*
X547717D02*
D03*
X545748D02*
D03*
X543780D02*
D03*
X541811D02*
D03*
X539843D02*
D03*
X537874D02*
D03*
X535906D02*
D03*
X533937D02*
D03*
X531969D02*
D03*
X530000D02*
D03*
X528032D02*
D03*
X526063D02*
D03*
X524095D02*
D03*
X522126D02*
D03*
X565433D02*
D03*
X563465D02*
D03*
X520158D02*
D03*
Y462500D02*
D03*
X522126D02*
D03*
X524095D02*
D03*
X526063D02*
D03*
X528032D02*
D03*
X530000D02*
D03*
X531969D02*
D03*
X533937D02*
D03*
X535906D02*
D03*
X537874D02*
D03*
X539843D02*
D03*
X541811D02*
D03*
X543780D02*
D03*
X545748D02*
D03*
X547717D02*
D03*
X549685D02*
D03*
X551654D02*
D03*
X553622D02*
D03*
X555591D02*
D03*
X557559D02*
D03*
X559528D02*
D03*
X561496D02*
D03*
X563465D02*
D03*
X565433D02*
D03*
X300780Y431000D02*
D03*
X298811D02*
D03*
X296843D02*
D03*
X294874D02*
D03*
X292906D02*
D03*
X290937D02*
D03*
X288969D02*
D03*
X287000D02*
D03*
X285032D02*
D03*
X283063D02*
D03*
X281095D02*
D03*
X279126D02*
D03*
X277158D02*
D03*
X275189D02*
D03*
X273221D02*
D03*
X271252D02*
D03*
X269284D02*
D03*
X267315D02*
D03*
X265347D02*
D03*
X263378D02*
D03*
X261410D02*
D03*
X304717D02*
D03*
X302748D02*
D03*
X259441D02*
D03*
Y401866D02*
D03*
X261410D02*
D03*
X263378D02*
D03*
X265347D02*
D03*
X267315D02*
D03*
X269284D02*
D03*
X271252D02*
D03*
X273221D02*
D03*
X275189D02*
D03*
X277158D02*
D03*
X279126D02*
D03*
X281095D02*
D03*
X283063D02*
D03*
X285032D02*
D03*
X287000D02*
D03*
X288969D02*
D03*
X290937D02*
D03*
X292906D02*
D03*
X294874D02*
D03*
X296843D02*
D03*
X298811D02*
D03*
X300780D02*
D03*
X302748D02*
D03*
X304717D02*
D03*
D15*
X215113Y568000D02*
D03*
X212554D02*
D03*
X192082D02*
D03*
X215113Y544575D02*
D03*
X212554D02*
D03*
X209995D02*
D03*
X207436D02*
D03*
X194641Y568000D02*
D03*
X204877Y544575D02*
D03*
X202318D02*
D03*
X199759D02*
D03*
X197200D02*
D03*
X194641D02*
D03*
X192082D02*
D03*
X197200Y568000D02*
D03*
X199759D02*
D03*
X202318D02*
D03*
X204877D02*
D03*
X207436D02*
D03*
X209995D02*
D03*
D16*
X371400Y79294D02*
D03*
Y85200D02*
D03*
X392600Y78094D02*
D03*
Y84000D02*
D03*
X313600Y180247D02*
D03*
Y186153D02*
D03*
X288700Y180447D02*
D03*
Y186353D02*
D03*
X44800Y229753D02*
D03*
Y223847D02*
D03*
X49100Y290447D02*
D03*
Y296353D02*
D03*
X122100Y25147D02*
D03*
Y31053D02*
D03*
X304400Y180047D02*
D03*
Y185953D02*
D03*
X280500Y186553D02*
D03*
Y180647D02*
D03*
X297700Y186353D02*
D03*
Y180447D02*
D03*
X272300Y180647D02*
D03*
Y186553D02*
D03*
X264700Y181047D02*
D03*
Y186953D02*
D03*
X257300Y181047D02*
D03*
Y186953D02*
D03*
X250100Y187153D02*
D03*
Y181247D02*
D03*
X298500Y566047D02*
D03*
Y571953D02*
D03*
X299000Y579547D02*
D03*
Y585453D02*
D03*
D17*
X301085Y114800D02*
D03*
X311715D02*
D03*
X104415Y107900D02*
D03*
X93785D02*
D03*
X103815Y293500D02*
D03*
X93185D02*
D03*
X105215Y235400D02*
D03*
X94585D02*
D03*
X105415Y174300D02*
D03*
X94785D02*
D03*
X112685Y70300D02*
D03*
X123315D02*
D03*
D18*
X228000Y145000D02*
D03*
X222094D02*
D03*
X165047Y212600D02*
D03*
X170953D02*
D03*
X164847Y202600D02*
D03*
X170753D02*
D03*
X228553Y109900D02*
D03*
X222647D02*
D03*
X228953Y127800D02*
D03*
X223047D02*
D03*
X228553Y137600D02*
D03*
X222647D02*
D03*
X229053Y119300D02*
D03*
X223147D02*
D03*
X228753Y101400D02*
D03*
X222847D02*
D03*
X138047Y571000D02*
D03*
X143953D02*
D03*
X162153Y545200D02*
D03*
X156247D02*
D03*
X143953Y556600D02*
D03*
X138047D02*
D03*
X336547Y114200D02*
D03*
X342453D02*
D03*
X336447Y107700D02*
D03*
X342353D02*
D03*
X143553Y548800D02*
D03*
X137647D02*
D03*
X156400Y553800D02*
D03*
X162306D02*
D03*
X156647Y571400D02*
D03*
X162553D02*
D03*
X325006Y80500D02*
D03*
X319100D02*
D03*
X325006Y86000D02*
D03*
X319100D02*
D03*
X100506Y99400D02*
D03*
X94600D02*
D03*
X94647Y91900D02*
D03*
X100553D02*
D03*
Y283400D02*
D03*
X94647D02*
D03*
Y276800D02*
D03*
X100553D02*
D03*
X101853Y225400D02*
D03*
X95947D02*
D03*
X95847Y218200D02*
D03*
X101753D02*
D03*
X101353Y164000D02*
D03*
X95447D02*
D03*
Y157200D02*
D03*
X101353D02*
D03*
D19*
X62800Y225600D02*
D03*
X56894D02*
D03*
X64206Y294800D02*
D03*
X58300D02*
D03*
D20*
X127906Y281500D02*
D03*
X141094D02*
D03*
X272906Y583500D02*
D03*
X286094D02*
D03*
X272906Y566500D02*
D03*
X286094D02*
D03*
D21*
X232177Y261654D02*
D03*
Y263622D02*
D03*
Y265591D02*
D03*
Y267559D02*
D03*
Y269528D02*
D03*
Y271496D02*
D03*
Y275433D02*
D03*
Y277402D02*
D03*
Y279370D02*
D03*
Y281339D02*
D03*
Y283307D02*
D03*
Y285276D02*
D03*
Y287244D02*
D03*
Y289213D02*
D03*
Y291181D02*
D03*
Y293150D02*
D03*
Y295118D02*
D03*
Y297087D02*
D03*
Y299055D02*
D03*
Y301024D02*
D03*
Y302992D02*
D03*
Y306929D02*
D03*
Y308898D02*
D03*
Y310866D02*
D03*
Y312835D02*
D03*
Y314803D02*
D03*
Y316772D02*
D03*
Y318740D02*
D03*
Y320709D02*
D03*
Y322677D02*
D03*
Y324646D02*
D03*
Y326614D02*
D03*
Y328583D02*
D03*
Y330551D02*
D03*
Y332520D02*
D03*
Y334488D02*
D03*
Y336457D02*
D03*
Y338425D02*
D03*
Y340394D02*
D03*
Y342362D02*
D03*
Y344331D02*
D03*
Y346299D02*
D03*
Y348268D02*
D03*
Y350236D02*
D03*
Y352205D02*
D03*
Y354173D02*
D03*
Y356142D02*
D03*
Y358110D02*
D03*
X352059Y261654D02*
D03*
Y263622D02*
D03*
Y265591D02*
D03*
Y267559D02*
D03*
Y269528D02*
D03*
Y271496D02*
D03*
Y273465D02*
D03*
Y275433D02*
D03*
Y277402D02*
D03*
Y279370D02*
D03*
Y281339D02*
D03*
Y285276D02*
D03*
Y287244D02*
D03*
Y291181D02*
D03*
Y293150D02*
D03*
Y295118D02*
D03*
Y297087D02*
D03*
Y299055D02*
D03*
Y301024D02*
D03*
Y302992D02*
D03*
Y304961D02*
D03*
Y306929D02*
D03*
Y308898D02*
D03*
Y310866D02*
D03*
Y312835D02*
D03*
Y314803D02*
D03*
Y316772D02*
D03*
Y318740D02*
D03*
Y320709D02*
D03*
Y322677D02*
D03*
Y324646D02*
D03*
Y326614D02*
D03*
Y328583D02*
D03*
Y330551D02*
D03*
Y332520D02*
D03*
Y334488D02*
D03*
Y336457D02*
D03*
Y338425D02*
D03*
Y340394D02*
D03*
Y342362D02*
D03*
Y344331D02*
D03*
Y346299D02*
D03*
Y348268D02*
D03*
Y350236D02*
D03*
Y352205D02*
D03*
Y354173D02*
D03*
Y356142D02*
D03*
Y358110D02*
D03*
Y360079D02*
D03*
X232177D02*
D03*
Y273465D02*
D03*
X352059Y283307D02*
D03*
Y289213D02*
D03*
Y259685D02*
D03*
X232177D02*
D03*
Y304961D02*
D03*
D22*
X243890Y249941D02*
D03*
X245858D02*
D03*
X247827D02*
D03*
X249795D02*
D03*
X251764D02*
D03*
X253732D02*
D03*
X255701D02*
D03*
X257669D02*
D03*
X259638D02*
D03*
X261606D02*
D03*
X263575D02*
D03*
X265543D02*
D03*
X267512D02*
D03*
X269480D02*
D03*
X271449D02*
D03*
X273417D02*
D03*
X275386D02*
D03*
X277354D02*
D03*
X279323D02*
D03*
X281291D02*
D03*
X283260D02*
D03*
X285228D02*
D03*
X287197D02*
D03*
X289165D02*
D03*
X291134D02*
D03*
X293102D02*
D03*
X295071D02*
D03*
X297039D02*
D03*
X299008D02*
D03*
X302945D02*
D03*
X304913D02*
D03*
X306882D02*
D03*
X308850D02*
D03*
X310819D02*
D03*
X312787D02*
D03*
X314756D02*
D03*
X316724D02*
D03*
X318693D02*
D03*
X320661D02*
D03*
X322630D02*
D03*
X324598D02*
D03*
X326567D02*
D03*
X328535D02*
D03*
X330504D02*
D03*
X332473D02*
D03*
X334441D02*
D03*
X336410D02*
D03*
X338378D02*
D03*
X340347D02*
D03*
X342315D02*
D03*
Y369823D02*
D03*
X340347D02*
D03*
X338378D02*
D03*
X336410D02*
D03*
X334441D02*
D03*
X332473D02*
D03*
X330504D02*
D03*
X328535D02*
D03*
X326567D02*
D03*
X324598D02*
D03*
X322630D02*
D03*
X320661D02*
D03*
X318693D02*
D03*
X316724D02*
D03*
X314756D02*
D03*
X312787D02*
D03*
X310819D02*
D03*
X308850D02*
D03*
X306882D02*
D03*
X304913D02*
D03*
X302945D02*
D03*
X300976D02*
D03*
X299008D02*
D03*
X297039D02*
D03*
X295071D02*
D03*
X293102D02*
D03*
X291134D02*
D03*
X289165D02*
D03*
X287197D02*
D03*
X285228D02*
D03*
X283260D02*
D03*
X281291D02*
D03*
X279323D02*
D03*
X277354D02*
D03*
X275386D02*
D03*
X273417D02*
D03*
X271449D02*
D03*
X269480D02*
D03*
X267512D02*
D03*
X265543D02*
D03*
X263575D02*
D03*
X261606D02*
D03*
X259638D02*
D03*
X257669D02*
D03*
X255701D02*
D03*
X253732D02*
D03*
X251764D02*
D03*
X249795D02*
D03*
X247827D02*
D03*
X245858D02*
D03*
X243890D02*
D03*
X300976Y249941D02*
D03*
X241921Y369823D02*
D03*
X241921Y249941D02*
D03*
D23*
X44443Y444183D02*
D03*
X47002D02*
D03*
X49561D02*
D03*
X52120D02*
D03*
X54680D02*
D03*
X57239D02*
D03*
X59798D02*
D03*
X62357D02*
D03*
X44443Y467017D02*
D03*
X47002D02*
D03*
X49561D02*
D03*
X52120D02*
D03*
X54680D02*
D03*
X57239D02*
D03*
X59798D02*
D03*
X62357D02*
D03*
X90757Y466817D02*
D03*
X88198D02*
D03*
X85639D02*
D03*
X83080D02*
D03*
X80520D02*
D03*
X77961D02*
D03*
X75402D02*
D03*
X72843D02*
D03*
X90757Y443983D02*
D03*
X88198D02*
D03*
X85639D02*
D03*
X83080D02*
D03*
X80520D02*
D03*
X77961D02*
D03*
X75402D02*
D03*
X72843D02*
D03*
D24*
X122600Y47894D02*
D03*
Y53800D02*
D03*
D25*
X245700Y578615D02*
D03*
Y567985D02*
D03*
D26*
X375103Y546000D02*
D03*
X381402D02*
D03*
X378253D02*
D03*
X371954D02*
D03*
X368804D02*
D03*
X384552D02*
D03*
X390851D02*
D03*
X387702D02*
D03*
X397150D02*
D03*
X394001D02*
D03*
X368804Y595008D02*
D03*
X371954D02*
D03*
X378253D02*
D03*
X375103D02*
D03*
X397150D02*
D03*
X394001D02*
D03*
X384552D02*
D03*
X381402D02*
D03*
X390851D02*
D03*
X387702D02*
D03*
X409749Y546000D02*
D03*
X416048D02*
D03*
X412898D02*
D03*
X400300D02*
D03*
X406599D02*
D03*
X403450D02*
D03*
X428646D02*
D03*
X434946D02*
D03*
X431796D02*
D03*
X419198D02*
D03*
X425497D02*
D03*
X422347D02*
D03*
X409749Y595008D02*
D03*
X416048D02*
D03*
X412898D02*
D03*
X400300D02*
D03*
X406599D02*
D03*
X403450D02*
D03*
X431796D02*
D03*
X434946D02*
D03*
X422347D02*
D03*
X419198D02*
D03*
X428646D02*
D03*
X425497D02*
D03*
D27*
X255531Y129994D02*
D03*
Y126057D02*
D03*
Y128025D02*
D03*
Y135899D02*
D03*
Y131962D02*
D03*
Y133931D02*
D03*
Y141805D02*
D03*
Y137868D02*
D03*
Y139836D02*
D03*
Y147710D02*
D03*
Y143773D02*
D03*
Y145742D02*
D03*
X290964Y126057D02*
D03*
Y128025D02*
D03*
Y133931D02*
D03*
Y129994D02*
D03*
Y131962D02*
D03*
Y139836D02*
D03*
Y135899D02*
D03*
Y137868D02*
D03*
Y145742D02*
D03*
Y147710D02*
D03*
Y141805D02*
D03*
Y143773D02*
D03*
D28*
X262420Y119167D02*
D03*
X266357D02*
D03*
X264389D02*
D03*
X270294D02*
D03*
X268326D02*
D03*
X264389Y154600D02*
D03*
X266357D02*
D03*
X262420D02*
D03*
X270294D02*
D03*
X268326D02*
D03*
X278168Y119167D02*
D03*
X282105D02*
D03*
X280137D02*
D03*
X272263D02*
D03*
X276200D02*
D03*
X274231D02*
D03*
X284074D02*
D03*
X280137Y154600D02*
D03*
X284074D02*
D03*
X282105D02*
D03*
X274231D02*
D03*
X272263D02*
D03*
X278168D02*
D03*
X276200D02*
D03*
D29*
X18660Y438874D02*
D03*
X22400Y431000D02*
D03*
X26140Y438874D02*
D03*
D37*
X-3000Y-3000D02*
Y15000D01*
Y-3000D02*
X14000D01*
X-3000Y636000D02*
Y653000D01*
X15000D01*
X753000Y-3000D02*
Y14000D01*
X735000Y-3000D02*
X753000D01*
M02*
