G04 Layer_Color=16711935*
%FSLAX25Y25*%
%MOIN*%
G70*
G01*
G75*
%ADD38C,0.05000*%
%ADD62R,0.04043X0.03256*%
%ADD63R,0.04043X0.03650*%
%ADD65R,0.03650X0.04043*%
%ADD67R,0.03256X0.04043*%
%ADD79C,0.06799*%
%ADD80C,0.06406*%
%ADD81R,0.06406X0.06406*%
%ADD82R,0.05500X0.05500*%
%ADD83C,0.05500*%
%ADD84C,0.06500*%
%ADD85C,0.03800*%
%ADD86O,0.14279X0.04437*%
%ADD87O,0.04437X0.14279*%
%ADD88O,0.16248X0.05421*%
%ADD89C,0.13000*%
%ADD90R,0.06700X0.06700*%
%ADD91C,0.15500*%
%ADD92R,0.06500X0.06500*%
%ADD93C,0.08500*%
%ADD94C,0.09700*%
%ADD95C,0.07500*%
%ADD96C,0.06700*%
%ADD97C,0.06799*%
%ADD98C,0.04437*%
%ADD99R,0.06500X0.06500*%
%ADD100C,0.03500*%
D38*
X169500Y256800D02*
D03*
Y276000D02*
D03*
X332700Y142100D02*
D03*
Y161300D02*
D03*
D62*
X512600Y55447D02*
D03*
Y61353D02*
D03*
X512800Y67047D02*
D03*
Y72953D02*
D03*
X476200Y409153D02*
D03*
Y403247D02*
D03*
X492800Y408353D02*
D03*
Y402447D02*
D03*
X75200Y608553D02*
D03*
Y602647D02*
D03*
X411000Y132647D02*
D03*
Y138553D02*
D03*
X421200Y132647D02*
D03*
Y138553D02*
D03*
X491000Y131447D02*
D03*
Y137353D02*
D03*
X480800Y131247D02*
D03*
Y137153D02*
D03*
X471400Y130847D02*
D03*
Y136753D02*
D03*
X461400Y131247D02*
D03*
Y137153D02*
D03*
X451200Y131047D02*
D03*
Y136953D02*
D03*
X441000Y131247D02*
D03*
Y137153D02*
D03*
D63*
X282400Y143356D02*
D03*
Y137844D02*
D03*
Y126444D02*
D03*
Y131956D02*
D03*
X145000Y457756D02*
D03*
Y452244D02*
D03*
X152000Y457756D02*
D03*
Y452244D02*
D03*
X113000Y404044D02*
D03*
Y409556D02*
D03*
X119200Y404444D02*
D03*
Y409956D02*
D03*
X125000Y403644D02*
D03*
Y409156D02*
D03*
X131600Y403444D02*
D03*
Y408956D02*
D03*
X141400Y403044D02*
D03*
Y408556D02*
D03*
X401800Y383244D02*
D03*
Y388756D02*
D03*
X318500Y264988D02*
D03*
Y270500D02*
D03*
X281000Y349744D02*
D03*
Y355256D02*
D03*
X259500Y271256D02*
D03*
Y265744D02*
D03*
X221500Y284744D02*
D03*
Y290256D02*
D03*
X290000Y355256D02*
D03*
Y349744D02*
D03*
X258500Y354256D02*
D03*
Y348744D02*
D03*
X249000Y265744D02*
D03*
Y271256D02*
D03*
X298000Y290500D02*
D03*
Y296012D02*
D03*
X321000Y290500D02*
D03*
Y296012D02*
D03*
X338500Y291244D02*
D03*
Y296756D02*
D03*
X284000Y265244D02*
D03*
Y270756D02*
D03*
X327500Y355256D02*
D03*
Y349744D02*
D03*
X221500Y302244D02*
D03*
Y307756D02*
D03*
X159400Y489156D02*
D03*
Y483644D02*
D03*
D65*
X66244Y354000D02*
D03*
X71756D02*
D03*
X201844Y557200D02*
D03*
X207356D02*
D03*
X193644Y182000D02*
D03*
X199156D02*
D03*
X66644Y404000D02*
D03*
X72156D02*
D03*
X83356D02*
D03*
X77844D02*
D03*
X95356Y406800D02*
D03*
X89844D02*
D03*
X107156Y406600D02*
D03*
X101644D02*
D03*
X250756Y323500D02*
D03*
X245244D02*
D03*
X340256Y307500D02*
D03*
X334744D02*
D03*
X253256Y306000D02*
D03*
X247744D02*
D03*
X302500Y330000D02*
D03*
X296988D02*
D03*
X339756Y340000D02*
D03*
X334244D02*
D03*
X253256Y297000D02*
D03*
X247744D02*
D03*
X246244Y347500D02*
D03*
X251756D02*
D03*
X249244Y283000D02*
D03*
X254756D02*
D03*
X247744Y311000D02*
D03*
X253256D02*
D03*
X340256Y316500D02*
D03*
X334744D02*
D03*
X338256Y271500D02*
D03*
X332744D02*
D03*
X66244Y385800D02*
D03*
X71756D02*
D03*
X71556Y368600D02*
D03*
X66044D02*
D03*
D67*
X540553Y437800D02*
D03*
X534647D02*
D03*
X539906Y195000D02*
D03*
X534000D02*
D03*
D79*
X136315Y588715D02*
D03*
X156000D02*
D03*
Y608400D02*
D03*
X175685Y618242D02*
D03*
X136315D02*
D03*
X175685Y608400D02*
D03*
X136315D02*
D03*
X175685Y588715D02*
D03*
X165842D02*
D03*
X146157D02*
D03*
X191515Y588600D02*
D03*
X211200D02*
D03*
Y608285D02*
D03*
X230885Y618127D02*
D03*
X191515D02*
D03*
X230885Y608285D02*
D03*
X191515D02*
D03*
X230885Y588600D02*
D03*
X221043D02*
D03*
X201358D02*
D03*
D80*
X490400Y455200D02*
D03*
X500400D02*
D03*
X510400D02*
D03*
X461000Y455600D02*
D03*
X471000D02*
D03*
X381800Y68600D02*
D03*
X391800D02*
D03*
X501000Y113000D02*
D03*
X491000Y123000D02*
D03*
Y113000D02*
D03*
X481000Y123000D02*
D03*
Y113000D02*
D03*
X471000Y123000D02*
D03*
Y113000D02*
D03*
X461000Y123000D02*
D03*
Y113000D02*
D03*
X451000Y123000D02*
D03*
Y113000D02*
D03*
X441000Y123000D02*
D03*
Y113000D02*
D03*
X431000Y123000D02*
D03*
Y113000D02*
D03*
X421000Y123000D02*
D03*
Y113000D02*
D03*
X411000Y123000D02*
D03*
Y113000D02*
D03*
D81*
X520400Y455200D02*
D03*
X451000Y455600D02*
D03*
X371800Y68600D02*
D03*
X501000Y123000D02*
D03*
D82*
X523200Y40400D02*
D03*
X211400Y182400D02*
D03*
D83*
X523200Y50400D02*
D03*
Y60400D02*
D03*
Y70400D02*
D03*
X493200D02*
D03*
Y60400D02*
D03*
Y50400D02*
D03*
Y40400D02*
D03*
X211400Y192400D02*
D03*
Y202400D02*
D03*
Y212400D02*
D03*
X181400D02*
D03*
Y202400D02*
D03*
Y192400D02*
D03*
Y182400D02*
D03*
X472800Y358200D02*
D03*
X462800Y368200D02*
D03*
Y358200D02*
D03*
X452800Y368200D02*
D03*
Y358200D02*
D03*
X442800Y368200D02*
D03*
X452800Y378200D02*
D03*
X442800D02*
D03*
X452800Y388200D02*
D03*
X442800D02*
D03*
X452800Y398200D02*
D03*
X442800D02*
D03*
X452800Y408200D02*
D03*
X442800D02*
D03*
X452800Y418200D02*
D03*
X442800D02*
D03*
X452800Y428200D02*
D03*
X462800Y418200D02*
D03*
Y428200D02*
D03*
X472800Y418200D02*
D03*
Y428200D02*
D03*
X482800Y418200D02*
D03*
Y428200D02*
D03*
X492800Y418200D02*
D03*
Y428200D02*
D03*
X502800Y418200D02*
D03*
Y428200D02*
D03*
X512800Y418200D02*
D03*
X502800Y408200D02*
D03*
X512800D02*
D03*
X502800Y398200D02*
D03*
X512800D02*
D03*
X502800Y388200D02*
D03*
X512800D02*
D03*
X502800Y378200D02*
D03*
X512800D02*
D03*
X502800Y368200D02*
D03*
X512800D02*
D03*
X502800Y358200D02*
D03*
X492800Y368200D02*
D03*
Y358200D02*
D03*
X482800Y368200D02*
D03*
Y358200D02*
D03*
X472800Y368200D02*
D03*
X456200Y554600D02*
D03*
Y564600D02*
D03*
Y574600D02*
D03*
X466200Y564600D02*
D03*
Y574600D02*
D03*
X456200Y584600D02*
D03*
X466200D02*
D03*
X476200D02*
D03*
X486200D02*
D03*
X496200D02*
D03*
X466200Y594600D02*
D03*
X476200D02*
D03*
X486200D02*
D03*
X496200D02*
D03*
X466200Y554600D02*
D03*
X476200D02*
D03*
X486200D02*
D03*
X496200D02*
D03*
X466200Y544600D02*
D03*
X476200D02*
D03*
X486200D02*
D03*
X496200D02*
D03*
X506200D02*
D03*
Y594600D02*
D03*
X516200Y584600D02*
D03*
X506200D02*
D03*
Y554600D02*
D03*
X516200D02*
D03*
Y564600D02*
D03*
X506200Y574600D02*
D03*
X516200D02*
D03*
X506200Y564600D02*
D03*
D84*
X564000Y45000D02*
D03*
Y25000D02*
D03*
X594000D02*
D03*
Y45000D02*
D03*
Y75000D02*
D03*
X564000Y15000D02*
D03*
X249000Y98500D02*
D03*
X259000D02*
D03*
X282000D02*
D03*
X292000D02*
D03*
X253000Y69500D02*
D03*
X258000Y79500D02*
D03*
X263000Y69500D02*
D03*
X268000Y79500D02*
D03*
X273000Y69500D02*
D03*
X278000Y79500D02*
D03*
X283000Y69500D02*
D03*
X62000Y593200D02*
D03*
Y573200D02*
D03*
X92000D02*
D03*
Y593200D02*
D03*
Y623200D02*
D03*
X62000Y563200D02*
D03*
X35200Y611600D02*
D03*
Y601600D02*
D03*
Y591600D02*
D03*
Y581600D02*
D03*
Y571600D02*
D03*
Y561600D02*
D03*
Y551600D02*
D03*
D85*
X188500Y293200D02*
D03*
Y297500D02*
D03*
D86*
X64800Y30600D02*
D03*
D87*
X82800Y43600D02*
D03*
D88*
X64800Y54100D02*
D03*
D89*
X18600Y273400D02*
D03*
X19200Y105800D02*
D03*
X19000Y165000D02*
D03*
X18400Y220000D02*
D03*
D90*
X88600Y283400D02*
D03*
Y273400D02*
D03*
Y263400D02*
D03*
X89200Y115800D02*
D03*
Y105800D02*
D03*
Y95800D02*
D03*
X89000Y175000D02*
D03*
Y165000D02*
D03*
Y155000D02*
D03*
X88400Y230000D02*
D03*
Y220000D02*
D03*
Y210000D02*
D03*
X557800Y178200D02*
D03*
D91*
X293000Y44500D02*
D03*
X248000D02*
D03*
D92*
X288000Y79500D02*
D03*
D93*
X239800Y56500D02*
D03*
X301200D02*
D03*
D94*
X557800Y505700D02*
D03*
D95*
Y140700D02*
D03*
D96*
Y188200D02*
D03*
Y198200D02*
D03*
Y208200D02*
D03*
Y218200D02*
D03*
Y228200D02*
D03*
Y238200D02*
D03*
Y248200D02*
D03*
Y258200D02*
D03*
Y268200D02*
D03*
Y278200D02*
D03*
Y288200D02*
D03*
Y298200D02*
D03*
Y308200D02*
D03*
Y318200D02*
D03*
Y328200D02*
D03*
Y338200D02*
D03*
Y348200D02*
D03*
Y358200D02*
D03*
Y368200D02*
D03*
Y378200D02*
D03*
Y388200D02*
D03*
Y398200D02*
D03*
Y408200D02*
D03*
Y418200D02*
D03*
Y428200D02*
D03*
Y438200D02*
D03*
Y448200D02*
D03*
Y458200D02*
D03*
Y468200D02*
D03*
D97*
X23595Y408323D02*
D03*
X159816D02*
D03*
D98*
X44461Y416000D02*
D03*
X50367D02*
D03*
X56272D02*
D03*
X62178D02*
D03*
X68083D02*
D03*
X73989D02*
D03*
X79894D02*
D03*
X85800D02*
D03*
X91706D02*
D03*
X97611D02*
D03*
X103517D02*
D03*
X109422D02*
D03*
X115328D02*
D03*
X121233D02*
D03*
X127139D02*
D03*
X133044D02*
D03*
X138950D02*
D03*
D99*
X35200Y621600D02*
D03*
D100*
X66000Y442500D02*
D03*
X463900Y305329D02*
D03*
X370300Y418900D02*
D03*
X445100Y433600D02*
D03*
X400800Y483700D02*
D03*
X562100Y463200D02*
D03*
X398100Y481100D02*
D03*
X394500Y488100D02*
D03*
X547100Y479500D02*
D03*
X553500Y491000D02*
D03*
X391200Y461400D02*
D03*
X400300Y462800D02*
D03*
X507400Y466400D02*
D03*
X413500Y458700D02*
D03*
X504600Y472500D02*
D03*
X439800Y261600D02*
D03*
X437100Y272200D02*
D03*
X495500Y273100D02*
D03*
X501600Y253250D02*
D03*
X480200Y288100D02*
D03*
X481400Y281300D02*
D03*
X475800Y194400D02*
D03*
X366550Y358050D02*
D03*
X281900Y363000D02*
D03*
X308600Y182400D02*
D03*
X303200Y191300D02*
D03*
X430400Y146100D02*
D03*
X470000Y275700D02*
D03*
X479900Y298500D02*
D03*
X458500Y293400D02*
D03*
X429700Y341450D02*
D03*
X438600Y235400D02*
D03*
X408800Y343000D02*
D03*
X434200Y282100D02*
D03*
X428200Y294600D02*
D03*
X402100Y322000D02*
D03*
X370300Y321744D02*
D03*
X372989Y295811D02*
D03*
X413500Y209200D02*
D03*
X297400Y87700D02*
D03*
X393900Y276800D02*
D03*
X301898Y265700D02*
D03*
X289084D02*
D03*
X244500Y283000D02*
D03*
Y291600D02*
D03*
X243500Y311000D02*
D03*
X242200Y331576D02*
D03*
X296500Y415100D02*
D03*
X220800Y417900D02*
D03*
X269000Y433315D02*
D03*
X296500D02*
D03*
X205502Y458602D02*
D03*
X233000Y486100D02*
D03*
X144800Y575000D02*
D03*
X184500Y557000D02*
D03*
X138047Y576488D02*
D03*
X112900Y337700D02*
D03*
X93200Y437800D02*
D03*
X216500Y175300D02*
D03*
X106700Y188000D02*
D03*
X221400Y178600D02*
D03*
X398800Y399100D02*
D03*
X406600Y400700D02*
D03*
X403200Y440300D02*
D03*
X391800D02*
D03*
X410400D02*
D03*
X409800Y568800D02*
D03*
X517200Y485600D02*
D03*
X477500Y487300D02*
D03*
X474776Y399476D02*
D03*
X182200Y421500D02*
D03*
X112900Y315900D02*
D03*
X349800Y465000D02*
D03*
X380108Y451048D02*
D03*
X174900Y492600D02*
D03*
X427900Y602700D02*
D03*
X397400D02*
D03*
X411700Y278800D02*
D03*
X569300Y183900D02*
D03*
X482800Y581300D02*
D03*
X429800Y282400D02*
D03*
X572000Y342500D02*
D03*
X528000Y600000D02*
D03*
X390296Y577204D02*
D03*
X484500Y504600D02*
D03*
X373500Y585900D02*
D03*
X432100Y297200D02*
D03*
X521700Y316600D02*
D03*
X464700Y503700D02*
D03*
X486200Y599300D02*
D03*
X370800Y580400D02*
D03*
X431681Y306619D02*
D03*
X509900Y489600D02*
D03*
X386700Y584200D02*
D03*
X412300Y304600D02*
D03*
X543600Y365500D02*
D03*
X496200Y508100D02*
D03*
X384603Y600200D02*
D03*
X424700Y311200D02*
D03*
X489100Y327600D02*
D03*
X432800Y574242D02*
D03*
X482800Y572700D02*
D03*
X466500Y348300D02*
D03*
X424300Y317000D02*
D03*
X468000Y550000D02*
D03*
X448700Y497400D02*
D03*
X388500Y375600D02*
D03*
X435100Y551500D02*
D03*
X516200Y549100D02*
D03*
X430400Y508500D02*
D03*
X345100Y301800D02*
D03*
X359000Y292400D02*
D03*
X345000Y322100D02*
D03*
X365200Y265300D02*
D03*
X365000Y288100D02*
D03*
X365300Y300000D02*
D03*
X361961Y322677D02*
D03*
X395500Y240500D02*
D03*
X345100Y297900D02*
D03*
Y327400D02*
D03*
X388900Y303600D02*
D03*
X442700Y217900D02*
D03*
X359261Y325600D02*
D03*
X395663Y260900D02*
D03*
X399200Y268500D02*
D03*
X359449Y332151D02*
D03*
X345280Y333035D02*
D03*
X397668Y312000D02*
D03*
X388600Y325400D02*
D03*
X461200Y284900D02*
D03*
X375625Y327000D02*
D03*
X360700Y346299D02*
D03*
X389900Y353800D02*
D03*
X404400Y329300D02*
D03*
X369200Y351195D02*
D03*
X378895Y341500D02*
D03*
X440000Y283100D02*
D03*
X371200Y340100D02*
D03*
X445000Y292800D02*
D03*
X370900Y359100D02*
D03*
X367700Y394900D02*
D03*
X402600Y583204D02*
D03*
X456200Y597400D02*
D03*
X301700Y533100D02*
D03*
X387400D02*
D03*
X264800Y528500D02*
D03*
X425500Y569700D02*
D03*
X269100Y534600D02*
D03*
X419600Y560500D02*
D03*
X416099Y565500D02*
D03*
X249000Y563900D02*
D03*
X268500Y449900D02*
D03*
X319800Y461900D02*
D03*
X265500Y506200D02*
D03*
X359400Y523400D02*
D03*
X309300Y410300D02*
D03*
X311200Y386900D02*
D03*
X376600Y461300D02*
D03*
X324325Y407875D02*
D03*
X294800Y381900D02*
D03*
X301500Y398700D02*
D03*
X379500Y464000D02*
D03*
X308082Y389418D02*
D03*
X376400Y480600D02*
D03*
X286500Y392400D02*
D03*
X200800Y347300D02*
D03*
X296200Y147342D02*
D03*
X266990Y147710D02*
D03*
X300500D02*
D03*
X266000Y169300D02*
D03*
X264900Y149800D02*
D03*
X249400Y228600D02*
D03*
X288244Y270756D02*
D03*
X334900Y295000D02*
D03*
X336800Y321600D02*
D03*
X409700Y282700D02*
D03*
X388500Y279500D02*
D03*
X277100Y351935D02*
D03*
X215113Y551856D02*
D03*
X192400Y559700D02*
D03*
X178100Y551800D02*
D03*
X164200Y425100D02*
D03*
X163344Y403044D02*
D03*
X187900Y422100D02*
D03*
Y403000D02*
D03*
X158000D02*
D03*
X85900Y434900D02*
D03*
X264800Y124300D02*
D03*
X294900Y109300D02*
D03*
X340800Y154844D02*
D03*
X328347Y179753D02*
D03*
X325168Y185100D02*
D03*
X441100Y304300D02*
D03*
X473100Y310800D02*
D03*
X475800Y289800D02*
D03*
X435900Y232400D02*
D03*
X481100Y268200D02*
D03*
X398800Y392100D02*
D03*
X383200Y506200D02*
D03*
X399900D02*
D03*
X394500Y495200D02*
D03*
X405300Y568615D02*
D03*
X412950Y572900D02*
D03*
X41000Y454300D02*
D03*
X25760D02*
D03*
X494200Y128600D02*
D03*
X323700Y422500D02*
D03*
X425700Y392500D02*
D03*
X425400Y516700D02*
D03*
X372000Y524200D02*
D03*
X412900Y422900D02*
D03*
X424600Y520700D02*
D03*
X346700Y467200D02*
D03*
X164969Y499500D02*
D03*
X351100Y461500D02*
D03*
X243600Y443700D02*
D03*
X256112Y377688D02*
D03*
X251588Y334400D02*
D03*
X198500Y294000D02*
D03*
X211596Y286300D02*
D03*
X209372Y329972D02*
D03*
X203800Y285600D02*
D03*
X250400Y385300D02*
D03*
X269000Y333350D02*
D03*
X369600Y102700D02*
D03*
X404400Y528800D02*
D03*
X311500D02*
D03*
X444900Y600900D02*
D03*
X388500Y600100D02*
D03*
X406800Y414300D02*
D03*
X469100Y411000D02*
D03*
X522400Y396800D02*
D03*
X514100Y179000D02*
D03*
X344700Y269100D02*
D03*
X417400Y513294D02*
D03*
X379700Y117100D02*
D03*
X467800Y130847D02*
D03*
X66000Y453700D02*
D03*
X93300Y238100D02*
D03*
X229400Y363800D02*
D03*
X239200Y274500D02*
D03*
X47002Y431002D02*
D03*
X38300Y437800D02*
D03*
X225041Y266600D02*
D03*
X204900Y464500D02*
D03*
X228200Y401100D02*
D03*
X277300Y241000D02*
D03*
X200600Y464500D02*
D03*
X178400Y459200D02*
D03*
X227500Y508700D02*
D03*
X162200Y492900D02*
D03*
X166500Y496100D02*
D03*
X207700Y495000D02*
D03*
X204877Y575238D02*
D03*
X321000Y200800D02*
D03*
X276000Y167500D02*
D03*
X239600Y239921D02*
D03*
X284801Y205800D02*
D03*
X313400Y170300D02*
D03*
X259900Y170400D02*
D03*
X278600Y189100D02*
D03*
X284000Y187900D02*
D03*
X247000Y171000D02*
D03*
X308300Y242000D02*
D03*
X196500Y233500D02*
D03*
X281398Y196600D02*
D03*
X250400Y136700D02*
D03*
X205300Y246500D02*
D03*
X239200Y268800D02*
D03*
X300000Y126800D02*
D03*
X265800Y130000D02*
D03*
X274300Y135800D02*
D03*
X235494Y139406D02*
D03*
X226600Y169400D02*
D03*
X276700Y108300D02*
D03*
X300900Y243300D02*
D03*
X146500Y249600D02*
D03*
X165495Y511995D02*
D03*
X207436Y550400D02*
D03*
X308700Y257800D02*
D03*
X143800Y266900D02*
D03*
X183600Y524300D02*
D03*
X208000Y524700D02*
D03*
X236048Y379400D02*
D03*
X257600Y330800D02*
D03*
X261400Y391700D02*
D03*
X263000Y381000D02*
D03*
X239200Y313600D02*
D03*
X395000Y383000D02*
D03*
X370616Y370916D02*
D03*
X331000Y362800D02*
D03*
X324400Y284300D02*
D03*
X277600Y261500D02*
D03*
X442700Y273300D02*
D03*
X442800Y308800D02*
D03*
X401500Y347400D02*
D03*
X445400Y287600D02*
D03*
X358605Y363600D02*
D03*
X274800Y128044D02*
D03*
X375100Y373200D02*
D03*
X314700Y362856D02*
D03*
X425300Y432500D02*
D03*
X278000Y359200D02*
D03*
X374300Y276400D02*
D03*
X373900Y286600D02*
D03*
X380800Y468500D02*
D03*
X425700Y534000D02*
D03*
X284000Y536678D02*
D03*
X364100Y366500D02*
D03*
X497800Y358200D02*
D03*
X542700Y375100D02*
D03*
X441800Y353900D02*
D03*
X497400Y384900D02*
D03*
X523400Y441500D02*
D03*
X487400Y407553D02*
D03*
X371800Y343800D02*
D03*
X411500Y309500D02*
D03*
X495200Y363400D02*
D03*
X347300Y511500D02*
D03*
X470400Y535200D02*
D03*
X447700Y343500D02*
D03*
X427000Y330800D02*
D03*
X337600Y362800D02*
D03*
X477800Y202900D02*
D03*
X476600Y267400D02*
D03*
X74900Y450900D02*
D03*
X70300Y453700D02*
D03*
X214300Y277300D02*
D03*
X126600Y465900D02*
D03*
X168300Y441200D02*
D03*
X122100Y456100D02*
D03*
X44400Y458400D02*
D03*
X481400Y199900D02*
D03*
X255200Y277800D02*
D03*
X376700Y474600D02*
D03*
X291000Y395100D02*
D03*
X425400Y324600D02*
D03*
X465500Y340600D02*
D03*
X470400Y194400D02*
D03*
X300200Y138700D02*
D03*
X277800Y94300D02*
D03*
X481100Y211300D02*
D03*
X478500Y278200D02*
D03*
X49561Y421100D02*
D03*
X163000Y440900D02*
D03*
X116600Y459300D02*
D03*
X115400Y446200D02*
D03*
X121400D02*
D03*
X145400Y461600D02*
D03*
X141900Y467600D02*
D03*
X355400Y459646D02*
D03*
X162554Y504846D02*
D03*
X139600Y458200D02*
D03*
X128245Y472645D02*
D03*
X148700Y509200D02*
D03*
X140500Y490600D02*
D03*
X84700Y534900D02*
D03*
X104700Y267553D02*
D03*
X238800Y289400D02*
D03*
X481400Y250400D02*
D03*
Y235400D02*
D03*
X495500Y264900D02*
D03*
X502600Y265600D02*
D03*
X479700Y194500D02*
D03*
X485230Y257800D02*
D03*
X532100Y227500D02*
D03*
X481600Y255900D02*
D03*
X445400Y200400D02*
D03*
X512000Y184800D02*
D03*
X507600Y97100D02*
D03*
X380500D02*
D03*
X509600Y94400D02*
D03*
X283100Y114100D02*
D03*
X289800D02*
D03*
X327100Y125800D02*
D03*
X316100Y145600D02*
D03*
X340800Y149000D02*
D03*
X311715Y122200D02*
D03*
X274231Y114000D02*
D03*
X293900Y122500D02*
D03*
X243600Y127300D02*
D03*
X298100Y106000D02*
D03*
X128000Y10200D02*
D03*
X110700Y308300D02*
D03*
X152300Y437400D02*
D03*
X161100Y400800D02*
D03*
X332744Y276669D02*
D03*
X330400Y286700D02*
D03*
X263200Y265962D02*
D03*
X344700Y273100D02*
D03*
X476100Y577600D02*
D03*
X360869Y311969D02*
D03*
X387400Y273200D02*
D03*
X402300Y197600D02*
D03*
X526800Y197800D02*
D03*
X343100Y265100D02*
D03*
X433100Y131247D02*
D03*
X241000Y142000D02*
D03*
X210300Y148800D02*
D03*
X341300Y213200D02*
D03*
X253732Y256900D02*
D03*
X275700Y234900D02*
D03*
X372329Y447700D02*
D03*
X269900Y268700D02*
D03*
X288100Y536600D02*
D03*
X422398Y537200D02*
D03*
X316000Y548600D02*
D03*
X393700Y551800D02*
D03*
X372700Y292100D02*
D03*
X359100Y319900D02*
D03*
X427636Y505807D02*
D03*
X431800Y539600D02*
D03*
X277600Y265244D02*
D03*
X340600Y311300D02*
D03*
X524500Y473700D02*
D03*
X419400Y484600D02*
D03*
X271000Y573300D02*
D03*
X395976Y588300D02*
D03*
X277800Y125300D02*
D03*
X231700Y174247D02*
D03*
X221700Y296600D02*
D03*
X376700Y292100D02*
D03*
X388500Y267700D02*
D03*
X368500Y270500D02*
D03*
X322630D02*
D03*
X481000Y292300D02*
D03*
X501600Y296500D02*
D03*
X390900Y584800D02*
D03*
X380800Y576814D02*
D03*
X450800Y530800D02*
D03*
X318500Y260700D02*
D03*
X262300Y453600D02*
D03*
X210712Y452412D02*
D03*
X405671Y587571D02*
D03*
X401500Y574100D02*
D03*
X406650Y555200D02*
D03*
X429500Y557100D02*
D03*
X359983Y353083D02*
D03*
X342400Y284600D02*
D03*
X316200Y377400D02*
D03*
X220900Y565400D02*
D03*
X493400Y300200D02*
D03*
X244900Y319900D02*
D03*
X253800Y94300D02*
D03*
X201300Y429900D02*
D03*
X229050D02*
D03*
X235200Y373400D02*
D03*
X218900Y370700D02*
D03*
X417300Y444900D02*
D03*
X343000Y456800D02*
D03*
X214500Y415900D02*
D03*
X206800Y440000D02*
D03*
X205200Y451800D02*
D03*
X318500Y389400D02*
D03*
X372800Y392500D02*
D03*
X286400Y355000D02*
D03*
X389900Y383400D02*
D03*
X397900Y416900D02*
D03*
X376800Y404800D02*
D03*
Y384100D02*
D03*
X334000Y332100D02*
D03*
X340300D02*
D03*
X250650Y339750D02*
D03*
X251100Y401700D02*
D03*
X257400Y362700D02*
D03*
X258800Y324900D02*
D03*
Y293000D02*
D03*
X303100Y394400D02*
D03*
X305400Y386200D02*
D03*
X300100Y380700D02*
D03*
X317200Y397400D02*
D03*
X283900Y397000D02*
D03*
X380200Y478936D02*
D03*
X195300Y530900D02*
D03*
X214700Y516400D02*
D03*
X225700Y483500D02*
D03*
X180700Y474200D02*
D03*
X223700Y488000D02*
D03*
X216900Y481200D02*
D03*
X291500Y544700D02*
D03*
X419249Y552300D02*
D03*
X295600Y541000D02*
D03*
X259895Y358195D02*
D03*
X262500Y282500D02*
D03*
X255200Y289800D02*
D03*
X246644Y337655D02*
D03*
X220100Y447200D02*
D03*
X271193Y447226D02*
D03*
X196200Y554400D02*
D03*
X461200Y310800D02*
D03*
X394400Y459100D02*
D03*
X413500Y440000D02*
D03*
X277800Y87700D02*
D03*
X278168Y161000D02*
D03*
X297300Y172200D02*
D03*
X244500Y266200D02*
D03*
X342315Y390115D02*
D03*
X377200Y410000D02*
D03*
X407500Y435900D02*
D03*
X343500Y340000D02*
D03*
X345000Y343700D02*
D03*
X364800Y463700D02*
D03*
Y478700D02*
D03*
X295300Y496500D02*
D03*
X416099Y527000D02*
D03*
X476700Y283900D02*
D03*
X296500Y412100D02*
D03*
Y422000D02*
D03*
X445400Y214900D02*
D03*
X249156Y317200D02*
D03*
X221500Y319200D02*
D03*
X400800Y476400D02*
D03*
X533200Y422600D02*
D03*
X531800Y412200D02*
D03*
X481350Y215250D02*
D03*
X445400Y228600D02*
D03*
X428400Y397500D02*
D03*
X408892Y390356D02*
D03*
X466200Y414500D02*
D03*
X238977Y306156D02*
D03*
X239200Y302244D02*
D03*
X483800Y253700D02*
D03*
X476200Y199200D02*
D03*
X225444Y284744D02*
D03*
X77600Y498900D02*
D03*
M02*
