G04 Layer_Color=128*
%FSLAX25Y25*%
%MOIN*%
G70*
G01*
G75*
%ADD10R,0.03150X0.03543*%
%ADD21R,0.03543X0.02756*%
%ADD22R,0.02756X0.03543*%
%ADD23R,0.03150X0.03543*%
%ADD24R,0.03543X0.03150*%
%ADD37C,0.05000*%
%ADD64R,0.04331X0.12992*%
D10*
X457240Y52563D02*
D03*
X449760D02*
D03*
X453500Y60437D02*
D03*
D21*
X457000Y40047D02*
D03*
Y45953D02*
D03*
X465000Y40047D02*
D03*
Y45953D02*
D03*
X454000Y74953D02*
D03*
Y69047D02*
D03*
X450900Y227853D02*
D03*
Y221947D02*
D03*
X463800Y228853D02*
D03*
Y222947D02*
D03*
X265500Y53453D02*
D03*
Y47547D02*
D03*
X278500Y53453D02*
D03*
Y47547D02*
D03*
X86700Y573053D02*
D03*
Y567147D02*
D03*
X411000Y132647D02*
D03*
Y138553D02*
D03*
X421200Y132647D02*
D03*
Y138553D02*
D03*
X491000Y131447D02*
D03*
Y137353D02*
D03*
X480800Y131247D02*
D03*
Y137153D02*
D03*
X471400Y130847D02*
D03*
Y136753D02*
D03*
X461400Y131247D02*
D03*
Y137153D02*
D03*
X451200Y131047D02*
D03*
Y136953D02*
D03*
X441000Y131247D02*
D03*
Y137153D02*
D03*
X512600Y55447D02*
D03*
Y61353D02*
D03*
X512800Y67047D02*
D03*
Y72953D02*
D03*
D22*
X547953Y59300D02*
D03*
X542047D02*
D03*
X593406Y194500D02*
D03*
X587500D02*
D03*
X289347Y120100D02*
D03*
X295253D02*
D03*
X283053Y291500D02*
D03*
X277147D02*
D03*
X190047Y322900D02*
D03*
X195953D02*
D03*
X588147Y437300D02*
D03*
X594053D02*
D03*
D23*
X335244Y352300D02*
D03*
X340756D02*
D03*
X250756Y323500D02*
D03*
X245244D02*
D03*
X253256Y311000D02*
D03*
X247744D02*
D03*
X340256Y307500D02*
D03*
X334744D02*
D03*
Y316500D02*
D03*
X340256D02*
D03*
X339756Y340000D02*
D03*
X334244D02*
D03*
X254756Y283000D02*
D03*
X249244D02*
D03*
X257744Y176200D02*
D03*
X263256D02*
D03*
X276756Y131000D02*
D03*
X271244D02*
D03*
X276756Y136500D02*
D03*
X271244D02*
D03*
X257744Y170000D02*
D03*
X263256D02*
D03*
X257744Y163500D02*
D03*
X263256D02*
D03*
Y88000D02*
D03*
X257744D02*
D03*
X66744Y407500D02*
D03*
X72256D02*
D03*
X107256D02*
D03*
X101744D02*
D03*
X96756Y409500D02*
D03*
X91244D02*
D03*
X85256Y410000D02*
D03*
X79744D02*
D03*
X277444Y284800D02*
D03*
X282956D02*
D03*
X332844Y286100D02*
D03*
X338356D02*
D03*
X327456Y389900D02*
D03*
X321944D02*
D03*
X193644Y182000D02*
D03*
X199156D02*
D03*
X201844Y557200D02*
D03*
X207356D02*
D03*
X332844Y291700D02*
D03*
X338356D02*
D03*
X265444Y447600D02*
D03*
X270956D02*
D03*
X251756Y347500D02*
D03*
X246244D02*
D03*
X332744Y271500D02*
D03*
X338256D02*
D03*
X190811Y329700D02*
D03*
X196323D02*
D03*
X287044Y446300D02*
D03*
X292556D02*
D03*
X287444Y391900D02*
D03*
X292956D02*
D03*
X276756Y391600D02*
D03*
X271244D02*
D03*
X349444Y390600D02*
D03*
X354956D02*
D03*
X326744Y446900D02*
D03*
X332256D02*
D03*
X349000Y442300D02*
D03*
X354512D02*
D03*
X386344Y441900D02*
D03*
X391856D02*
D03*
X419756Y441500D02*
D03*
X414244D02*
D03*
D24*
X327500Y349744D02*
D03*
Y355256D02*
D03*
X465500Y290944D02*
D03*
Y296456D02*
D03*
X415000Y385244D02*
D03*
Y390756D02*
D03*
X459000Y288344D02*
D03*
Y293856D02*
D03*
X461200Y320456D02*
D03*
Y314944D02*
D03*
X318500Y270500D02*
D03*
Y264988D02*
D03*
X467500Y320000D02*
D03*
Y314488D02*
D03*
X301500Y141488D02*
D03*
Y147000D02*
D03*
X307500Y141488D02*
D03*
Y147000D02*
D03*
X631500Y182744D02*
D03*
Y188256D02*
D03*
X630500Y465756D02*
D03*
Y460244D02*
D03*
X272000Y47744D02*
D03*
Y53256D02*
D03*
X642500Y182744D02*
D03*
Y188256D02*
D03*
X640500Y465756D02*
D03*
Y460244D02*
D03*
X282400Y126444D02*
D03*
Y131956D02*
D03*
Y143356D02*
D03*
Y137844D02*
D03*
X345900Y143844D02*
D03*
Y149356D02*
D03*
X346200Y161156D02*
D03*
Y155644D02*
D03*
X440100Y220044D02*
D03*
Y225556D02*
D03*
X67500Y469144D02*
D03*
Y474656D02*
D03*
X113500Y403744D02*
D03*
Y409256D02*
D03*
X120000Y403744D02*
D03*
Y409256D02*
D03*
X126000Y403244D02*
D03*
Y408756D02*
D03*
X133000Y403244D02*
D03*
Y408756D02*
D03*
X141500Y403244D02*
D03*
Y408756D02*
D03*
X157100Y460656D02*
D03*
Y455144D02*
D03*
X150800Y460656D02*
D03*
Y455144D02*
D03*
X288200Y290956D02*
D03*
Y285444D02*
D03*
X156600Y520856D02*
D03*
Y515344D02*
D03*
X465800Y355844D02*
D03*
Y361356D02*
D03*
X259500Y271256D02*
D03*
Y265744D02*
D03*
X490700Y567088D02*
D03*
Y572600D02*
D03*
X281000Y349744D02*
D03*
Y355256D02*
D03*
X258500Y348744D02*
D03*
Y354256D02*
D03*
X290000Y349744D02*
D03*
Y355256D02*
D03*
X249000Y271256D02*
D03*
Y265744D02*
D03*
X392200Y385188D02*
D03*
Y390700D02*
D03*
X432900Y220044D02*
D03*
Y225556D02*
D03*
X271900Y290756D02*
D03*
Y285244D02*
D03*
X201700Y329812D02*
D03*
Y324300D02*
D03*
X184900Y329456D02*
D03*
Y323944D02*
D03*
X532700Y58756D02*
D03*
Y53244D02*
D03*
X458500Y380356D02*
D03*
Y374844D02*
D03*
X460600Y361300D02*
D03*
Y355788D02*
D03*
X283000Y270756D02*
D03*
Y265244D02*
D03*
D37*
X735000Y-3000D02*
X753000D01*
Y14000D01*
X-3000Y653000D02*
X15000D01*
X-3000Y636000D02*
Y653000D01*
Y-3000D02*
X14000D01*
X-3000D02*
Y15000D01*
D64*
X92620Y314000D02*
D03*
X70180D02*
D03*
X93420Y253400D02*
D03*
X70980D02*
D03*
X95420Y194000D02*
D03*
X72980D02*
D03*
X98320Y131900D02*
D03*
X75880D02*
D03*
M02*
