G04 Layer_Color=255*
%FSLAX25Y25*%
%MOIN*%
G70*
G01*
G75*
%ADD10R,0.03150X0.03543*%
%ADD11R,0.03150X0.03543*%
%ADD12R,0.04331X0.06693*%
%ADD13O,0.05905X0.00984*%
%ADD14O,0.00984X0.05905*%
%ADD15O,0.02165X0.07874*%
%ADD16R,0.05315X0.04724*%
%ADD17R,0.06693X0.04331*%
%ADD18R,0.03150X0.03150*%
%ADD19O,0.01378X0.07874*%
%ADD20O,0.01181X0.09646*%
%ADD21O,0.09646X0.01181*%
%ADD22R,0.03543X0.02756*%
%ADD23R,0.02756X0.03543*%
%ADD24R,0.03543X0.03150*%
%ADD25R,0.03150X0.03150*%
%ADD26O,0.01181X0.07480*%
%ADD27O,0.07480X0.01181*%
%ADD28O,0.01575X0.07087*%
%ADD29R,0.04724X0.05315*%
%ADD37C,0.05000*%
%ADD38C,0.06000*%
%ADD39R,0.05905X0.05905*%
%ADD40C,0.05905*%
%ADD41C,0.03937*%
%ADD42C,0.06600*%
%ADD43R,0.05905X0.05905*%
%ADD44C,0.03400*%
%ADD45C,0.04500*%
%ADD46C,0.13780*%
%ADD47C,0.15748*%
%ADD48R,0.06000X0.06000*%
%ADD49C,0.08000*%
%ADD50C,0.15000*%
%ADD51C,0.04000*%
%ADD52R,0.04000X0.04000*%
%ADD53C,0.05000*%
%ADD54C,0.06200*%
%ADD55C,0.11000*%
%ADD56C,0.09000*%
%ADD57R,0.06200X0.06200*%
%ADD58C,0.14000*%
%ADD59C,0.07000*%
%ADD60R,0.07000X0.07000*%
%ADD61R,0.06000X0.06000*%
%ADD62C,0.06299*%
D10*
X398244Y609400D02*
D03*
X403756D02*
D03*
X324809Y68000D02*
D03*
X319297D02*
D03*
X324809Y75000D02*
D03*
X319297D02*
D03*
X87056Y425600D02*
D03*
X81544D02*
D03*
X156644Y563000D02*
D03*
X162156D02*
D03*
X143756D02*
D03*
X138244D02*
D03*
X399244Y533500D02*
D03*
X404756D02*
D03*
X199356Y281100D02*
D03*
X193844D02*
D03*
X307312Y122600D02*
D03*
X301800D02*
D03*
X526344Y453200D02*
D03*
X531856D02*
D03*
X553756Y454000D02*
D03*
X548244D02*
D03*
X559056Y500900D02*
D03*
X553544D02*
D03*
X537156Y501200D02*
D03*
X531644D02*
D03*
X494556Y377300D02*
D03*
X489044D02*
D03*
D11*
X26140Y438874D02*
D03*
X22400Y431000D02*
D03*
X18660Y438874D02*
D03*
D12*
X123315Y70300D02*
D03*
X112685D02*
D03*
X94785Y174300D02*
D03*
X105415D02*
D03*
X94585Y235400D02*
D03*
X105215D02*
D03*
X93185Y293500D02*
D03*
X103815D02*
D03*
X93785Y107900D02*
D03*
X104415D02*
D03*
X311715Y114800D02*
D03*
X301085D02*
D03*
D13*
X290964Y143773D02*
D03*
Y141805D02*
D03*
Y147710D02*
D03*
Y145742D02*
D03*
Y137868D02*
D03*
Y135899D02*
D03*
Y139836D02*
D03*
Y131962D02*
D03*
Y129994D02*
D03*
Y133931D02*
D03*
Y128025D02*
D03*
Y126057D02*
D03*
X255531Y145742D02*
D03*
Y143773D02*
D03*
Y147710D02*
D03*
Y139836D02*
D03*
Y137868D02*
D03*
Y141805D02*
D03*
Y133931D02*
D03*
Y131962D02*
D03*
Y135899D02*
D03*
Y128025D02*
D03*
Y126057D02*
D03*
Y129994D02*
D03*
D14*
X276200Y154600D02*
D03*
X278168D02*
D03*
X272263D02*
D03*
X274231D02*
D03*
X282105D02*
D03*
X284074D02*
D03*
X280137D02*
D03*
X284074Y119167D02*
D03*
X274231D02*
D03*
X276200D02*
D03*
X272263D02*
D03*
X280137D02*
D03*
X282105D02*
D03*
X278168D02*
D03*
X268326Y154600D02*
D03*
X270294D02*
D03*
X262420D02*
D03*
X266357D02*
D03*
X264389D02*
D03*
X268326Y119167D02*
D03*
X270294D02*
D03*
X264389D02*
D03*
X266357D02*
D03*
X262420D02*
D03*
D15*
X425497Y595008D02*
D03*
X428646D02*
D03*
X419198D02*
D03*
X422347D02*
D03*
X434946D02*
D03*
X431796D02*
D03*
X403450D02*
D03*
X406599D02*
D03*
X400300D02*
D03*
X412898D02*
D03*
X416048D02*
D03*
X409749D02*
D03*
X422347Y546000D02*
D03*
X425497D02*
D03*
X419198D02*
D03*
X431796D02*
D03*
X434946D02*
D03*
X428646D02*
D03*
X403450D02*
D03*
X406599D02*
D03*
X400300D02*
D03*
X412898D02*
D03*
X416048D02*
D03*
X409749D02*
D03*
X387702Y595008D02*
D03*
X390851D02*
D03*
X381402D02*
D03*
X384552D02*
D03*
X394001D02*
D03*
X397150D02*
D03*
X375103D02*
D03*
X378253D02*
D03*
X371954D02*
D03*
X368804D02*
D03*
X394001Y546000D02*
D03*
X397150D02*
D03*
X387702D02*
D03*
X390851D02*
D03*
X384552D02*
D03*
X368804D02*
D03*
X371954D02*
D03*
X378253D02*
D03*
X381402D02*
D03*
X375103D02*
D03*
D16*
X286094Y566500D02*
D03*
X272906D02*
D03*
X286094Y583500D02*
D03*
X272906D02*
D03*
X141094Y281500D02*
D03*
X127906D02*
D03*
D17*
X245700Y567985D02*
D03*
Y578615D02*
D03*
D18*
X122600Y53800D02*
D03*
Y47894D02*
D03*
D19*
X72843Y443983D02*
D03*
X75402D02*
D03*
X77961D02*
D03*
X80520D02*
D03*
X83080D02*
D03*
X85639D02*
D03*
X88198D02*
D03*
X90757D02*
D03*
X72843Y466817D02*
D03*
X75402D02*
D03*
X77961D02*
D03*
X80520D02*
D03*
X83080D02*
D03*
X85639D02*
D03*
X88198D02*
D03*
X90757D02*
D03*
X62357Y467017D02*
D03*
X59798D02*
D03*
X57239D02*
D03*
X54680D02*
D03*
X52120D02*
D03*
X49561D02*
D03*
X47002D02*
D03*
X44443D02*
D03*
X62357Y444183D02*
D03*
X59798D02*
D03*
X57239D02*
D03*
X54680D02*
D03*
X52120D02*
D03*
X49561D02*
D03*
X47002D02*
D03*
X44443D02*
D03*
D20*
X241921Y249941D02*
D03*
X241921Y369823D02*
D03*
X300976Y249941D02*
D03*
X243890Y369823D02*
D03*
X245858D02*
D03*
X247827D02*
D03*
X249795D02*
D03*
X251764D02*
D03*
X253732D02*
D03*
X255701D02*
D03*
X257669D02*
D03*
X259638D02*
D03*
X261606D02*
D03*
X263575D02*
D03*
X265543D02*
D03*
X267512D02*
D03*
X269480D02*
D03*
X271449D02*
D03*
X273417D02*
D03*
X275386D02*
D03*
X277354D02*
D03*
X279323D02*
D03*
X281291D02*
D03*
X283260D02*
D03*
X285228D02*
D03*
X287197D02*
D03*
X289165D02*
D03*
X291134D02*
D03*
X293102D02*
D03*
X295071D02*
D03*
X297039D02*
D03*
X299008D02*
D03*
X300976D02*
D03*
X302945D02*
D03*
X304913D02*
D03*
X306882D02*
D03*
X308850D02*
D03*
X310819D02*
D03*
X312787D02*
D03*
X314756D02*
D03*
X316724D02*
D03*
X318693D02*
D03*
X320661D02*
D03*
X322630D02*
D03*
X324598D02*
D03*
X326567D02*
D03*
X328535D02*
D03*
X330504D02*
D03*
X332473D02*
D03*
X334441D02*
D03*
X336410D02*
D03*
X338378D02*
D03*
X340347D02*
D03*
X342315D02*
D03*
Y249941D02*
D03*
X340347D02*
D03*
X338378D02*
D03*
X336410D02*
D03*
X334441D02*
D03*
X332473D02*
D03*
X330504D02*
D03*
X328535D02*
D03*
X326567D02*
D03*
X324598D02*
D03*
X322630D02*
D03*
X320661D02*
D03*
X318693D02*
D03*
X316724D02*
D03*
X314756D02*
D03*
X312787D02*
D03*
X310819D02*
D03*
X308850D02*
D03*
X306882D02*
D03*
X304913D02*
D03*
X302945D02*
D03*
X299008D02*
D03*
X297039D02*
D03*
X295071D02*
D03*
X293102D02*
D03*
X291134D02*
D03*
X289165D02*
D03*
X287197D02*
D03*
X285228D02*
D03*
X283260D02*
D03*
X281291D02*
D03*
X279323D02*
D03*
X277354D02*
D03*
X275386D02*
D03*
X273417D02*
D03*
X271449D02*
D03*
X269480D02*
D03*
X267512D02*
D03*
X265543D02*
D03*
X263575D02*
D03*
X261606D02*
D03*
X259638D02*
D03*
X257669D02*
D03*
X255701D02*
D03*
X253732D02*
D03*
X251764D02*
D03*
X249795D02*
D03*
X247827D02*
D03*
X245858D02*
D03*
X243890D02*
D03*
D21*
X232177Y304961D02*
D03*
Y259685D02*
D03*
X352059D02*
D03*
Y289213D02*
D03*
Y283307D02*
D03*
X232177Y273465D02*
D03*
Y360079D02*
D03*
X352059D02*
D03*
Y358110D02*
D03*
Y356142D02*
D03*
Y354173D02*
D03*
Y352205D02*
D03*
Y350236D02*
D03*
Y348268D02*
D03*
Y346299D02*
D03*
Y344331D02*
D03*
Y342362D02*
D03*
Y340394D02*
D03*
Y338425D02*
D03*
Y336457D02*
D03*
Y334488D02*
D03*
Y332520D02*
D03*
Y330551D02*
D03*
Y328583D02*
D03*
Y326614D02*
D03*
Y324646D02*
D03*
Y322677D02*
D03*
Y320709D02*
D03*
Y318740D02*
D03*
Y316772D02*
D03*
Y314803D02*
D03*
Y312835D02*
D03*
Y310866D02*
D03*
Y308898D02*
D03*
Y306929D02*
D03*
Y304961D02*
D03*
Y302992D02*
D03*
Y301024D02*
D03*
Y299055D02*
D03*
Y297087D02*
D03*
Y295118D02*
D03*
Y293150D02*
D03*
Y291181D02*
D03*
Y287244D02*
D03*
Y285276D02*
D03*
Y281339D02*
D03*
Y279370D02*
D03*
Y277402D02*
D03*
Y275433D02*
D03*
Y273465D02*
D03*
Y271496D02*
D03*
Y269528D02*
D03*
Y267559D02*
D03*
Y265591D02*
D03*
Y263622D02*
D03*
Y261654D02*
D03*
X232177Y358110D02*
D03*
Y356142D02*
D03*
Y354173D02*
D03*
Y352205D02*
D03*
Y350236D02*
D03*
Y348268D02*
D03*
Y346299D02*
D03*
Y344331D02*
D03*
Y342362D02*
D03*
Y340394D02*
D03*
Y338425D02*
D03*
Y336457D02*
D03*
Y334488D02*
D03*
Y332520D02*
D03*
Y330551D02*
D03*
Y328583D02*
D03*
Y326614D02*
D03*
Y324646D02*
D03*
Y322677D02*
D03*
Y320709D02*
D03*
Y318740D02*
D03*
Y316772D02*
D03*
Y314803D02*
D03*
Y312835D02*
D03*
Y310866D02*
D03*
Y308898D02*
D03*
Y306929D02*
D03*
Y302992D02*
D03*
Y301024D02*
D03*
Y299055D02*
D03*
Y297087D02*
D03*
Y295118D02*
D03*
Y293150D02*
D03*
Y291181D02*
D03*
Y289213D02*
D03*
Y287244D02*
D03*
Y285276D02*
D03*
Y283307D02*
D03*
Y281339D02*
D03*
Y279370D02*
D03*
Y277402D02*
D03*
Y275433D02*
D03*
Y271496D02*
D03*
Y269528D02*
D03*
Y267559D02*
D03*
Y265591D02*
D03*
Y263622D02*
D03*
Y261654D02*
D03*
D22*
X299000Y585453D02*
D03*
Y579547D02*
D03*
X298500Y571953D02*
D03*
Y566047D02*
D03*
X250100Y181247D02*
D03*
Y187153D02*
D03*
X257300Y186953D02*
D03*
Y181047D02*
D03*
X264700Y186953D02*
D03*
Y181047D02*
D03*
X272300Y186553D02*
D03*
Y180647D02*
D03*
X297700Y180447D02*
D03*
Y186353D02*
D03*
X280500Y180647D02*
D03*
Y186553D02*
D03*
X304400Y185953D02*
D03*
Y180047D02*
D03*
X122100Y31053D02*
D03*
Y25147D02*
D03*
X49100Y296353D02*
D03*
Y290447D02*
D03*
X44800Y223847D02*
D03*
Y229753D02*
D03*
X288700Y186353D02*
D03*
Y180447D02*
D03*
X313600Y186153D02*
D03*
Y180247D02*
D03*
X392600Y84000D02*
D03*
Y78094D02*
D03*
X371400Y85200D02*
D03*
Y79294D02*
D03*
D23*
X101353Y157200D02*
D03*
X95447D02*
D03*
Y164000D02*
D03*
X101353D02*
D03*
X101753Y218200D02*
D03*
X95847D02*
D03*
X95947Y225400D02*
D03*
X101853D02*
D03*
X100553Y276800D02*
D03*
X94647D02*
D03*
Y283400D02*
D03*
X100553D02*
D03*
Y91900D02*
D03*
X94647D02*
D03*
X94600Y99400D02*
D03*
X100506D02*
D03*
X319100Y86000D02*
D03*
X325006D02*
D03*
X319100Y80500D02*
D03*
X325006D02*
D03*
X162553Y571400D02*
D03*
X156647D02*
D03*
X162306Y553800D02*
D03*
X156400D02*
D03*
X137647Y548800D02*
D03*
X143553D02*
D03*
X342353Y107700D02*
D03*
X336447D02*
D03*
X342453Y114200D02*
D03*
X336547D02*
D03*
X138047Y556600D02*
D03*
X143953D02*
D03*
X156247Y545200D02*
D03*
X162153D02*
D03*
X143953Y571000D02*
D03*
X138047D02*
D03*
X222847Y101400D02*
D03*
X228753D02*
D03*
X223147Y119300D02*
D03*
X229053D02*
D03*
X222647Y137600D02*
D03*
X228553D02*
D03*
X223047Y127800D02*
D03*
X228953D02*
D03*
X222647Y109900D02*
D03*
X228553D02*
D03*
X170753Y202600D02*
D03*
X164847D02*
D03*
X170953Y212600D02*
D03*
X165047D02*
D03*
X222094Y145000D02*
D03*
X228000D02*
D03*
D24*
X208600Y303456D02*
D03*
Y297944D02*
D03*
Y287644D02*
D03*
Y293156D02*
D03*
X185100Y298756D02*
D03*
Y293244D02*
D03*
X99000Y461156D02*
D03*
Y455644D02*
D03*
X36200Y453544D02*
D03*
Y459056D02*
D03*
X215500Y298756D02*
D03*
Y293244D02*
D03*
D25*
X58300Y294800D02*
D03*
X64206D02*
D03*
X56894Y225600D02*
D03*
X62800D02*
D03*
D26*
X304717Y401866D02*
D03*
X302748D02*
D03*
X300780D02*
D03*
X298811D02*
D03*
X296843D02*
D03*
X294874D02*
D03*
X292906D02*
D03*
X290937D02*
D03*
X288969D02*
D03*
X287000D02*
D03*
X285032D02*
D03*
X283063D02*
D03*
X281095D02*
D03*
X279126D02*
D03*
X277158D02*
D03*
X275189D02*
D03*
X273221D02*
D03*
X271252D02*
D03*
X269284D02*
D03*
X267315D02*
D03*
X265347D02*
D03*
X263378D02*
D03*
X261410D02*
D03*
X259441D02*
D03*
Y431000D02*
D03*
X302748D02*
D03*
X304717D02*
D03*
X261410D02*
D03*
X263378D02*
D03*
X265347D02*
D03*
X267315D02*
D03*
X269284D02*
D03*
X271252D02*
D03*
X273221D02*
D03*
X275189D02*
D03*
X277158D02*
D03*
X279126D02*
D03*
X281095D02*
D03*
X283063D02*
D03*
X285032D02*
D03*
X287000D02*
D03*
X288969D02*
D03*
X290937D02*
D03*
X292906D02*
D03*
X294874D02*
D03*
X296843D02*
D03*
X298811D02*
D03*
X300780D02*
D03*
X565433Y462500D02*
D03*
X563465D02*
D03*
X561496D02*
D03*
X559528D02*
D03*
X557559D02*
D03*
X555591D02*
D03*
X553622D02*
D03*
X551654D02*
D03*
X549685D02*
D03*
X547717D02*
D03*
X545748D02*
D03*
X543780D02*
D03*
X541811D02*
D03*
X539843D02*
D03*
X537874D02*
D03*
X535906D02*
D03*
X533937D02*
D03*
X531969D02*
D03*
X530000D02*
D03*
X528032D02*
D03*
X526063D02*
D03*
X524095D02*
D03*
X522126D02*
D03*
X520158D02*
D03*
Y491634D02*
D03*
X563465D02*
D03*
X565433D02*
D03*
X522126D02*
D03*
X524095D02*
D03*
X526063D02*
D03*
X528032D02*
D03*
X530000D02*
D03*
X531969D02*
D03*
X533937D02*
D03*
X535906D02*
D03*
X537874D02*
D03*
X539843D02*
D03*
X541811D02*
D03*
X543780D02*
D03*
X545748D02*
D03*
X547717D02*
D03*
X549685D02*
D03*
X551654D02*
D03*
X553622D02*
D03*
X555591D02*
D03*
X557559D02*
D03*
X559528D02*
D03*
X561496D02*
D03*
X366654Y402000D02*
D03*
X364685D02*
D03*
X362717D02*
D03*
X360748D02*
D03*
X358780D02*
D03*
X356811D02*
D03*
X354843D02*
D03*
X352874D02*
D03*
X350906D02*
D03*
X348937D02*
D03*
X346969D02*
D03*
X345000D02*
D03*
X343032D02*
D03*
X341063D02*
D03*
X339095D02*
D03*
X337126D02*
D03*
X335158D02*
D03*
X333189D02*
D03*
X331221D02*
D03*
X329252D02*
D03*
X327284D02*
D03*
X325315D02*
D03*
X323347D02*
D03*
X321378D02*
D03*
Y431134D02*
D03*
X364685D02*
D03*
X366654D02*
D03*
X323347D02*
D03*
X325315D02*
D03*
X327284D02*
D03*
X329252D02*
D03*
X331221D02*
D03*
X333189D02*
D03*
X335158D02*
D03*
X337126D02*
D03*
X339095D02*
D03*
X341063D02*
D03*
X343032D02*
D03*
X345000D02*
D03*
X346969D02*
D03*
X348937D02*
D03*
X350906D02*
D03*
X352874D02*
D03*
X354843D02*
D03*
X356811D02*
D03*
X358780D02*
D03*
X360748D02*
D03*
X362717D02*
D03*
X425496Y401866D02*
D03*
X423528D02*
D03*
X421559D02*
D03*
X419591D02*
D03*
X417622D02*
D03*
X415654D02*
D03*
X413685D02*
D03*
X411717D02*
D03*
X409748D02*
D03*
X407780D02*
D03*
X405811D02*
D03*
X403843D02*
D03*
X401874D02*
D03*
X399906D02*
D03*
X397937D02*
D03*
X395969D02*
D03*
X394000D02*
D03*
X392032D02*
D03*
X390063D02*
D03*
X388095D02*
D03*
X386126D02*
D03*
X384158D02*
D03*
X382189D02*
D03*
X380221D02*
D03*
Y431000D02*
D03*
X423528D02*
D03*
X425496D02*
D03*
X382189D02*
D03*
X384158D02*
D03*
X386126D02*
D03*
X388095D02*
D03*
X390063D02*
D03*
X392032D02*
D03*
X394000D02*
D03*
X395969D02*
D03*
X397937D02*
D03*
X399906D02*
D03*
X401874D02*
D03*
X403843D02*
D03*
X405811D02*
D03*
X407780D02*
D03*
X409748D02*
D03*
X411717D02*
D03*
X413685D02*
D03*
X415654D02*
D03*
X417622D02*
D03*
X419591D02*
D03*
X421559D02*
D03*
D27*
X447866Y281941D02*
D03*
Y283910D02*
D03*
Y285878D02*
D03*
Y287847D02*
D03*
Y289815D02*
D03*
Y291784D02*
D03*
Y293752D02*
D03*
Y295721D02*
D03*
Y297689D02*
D03*
Y299658D02*
D03*
Y301626D02*
D03*
Y303595D02*
D03*
Y305563D02*
D03*
Y307532D02*
D03*
Y309500D02*
D03*
Y311469D02*
D03*
Y313437D02*
D03*
Y315406D02*
D03*
Y317374D02*
D03*
Y319343D02*
D03*
Y321311D02*
D03*
Y323280D02*
D03*
Y325248D02*
D03*
Y327217D02*
D03*
X477000D02*
D03*
Y283910D02*
D03*
Y281941D02*
D03*
Y325248D02*
D03*
Y323280D02*
D03*
Y321311D02*
D03*
Y319343D02*
D03*
Y317374D02*
D03*
Y315406D02*
D03*
Y313437D02*
D03*
Y311469D02*
D03*
Y309500D02*
D03*
Y307532D02*
D03*
Y305563D02*
D03*
Y303595D02*
D03*
Y301626D02*
D03*
Y299658D02*
D03*
Y297689D02*
D03*
Y295721D02*
D03*
Y293752D02*
D03*
Y291784D02*
D03*
Y289815D02*
D03*
Y287847D02*
D03*
Y285878D02*
D03*
X448500Y343973D02*
D03*
Y345941D02*
D03*
Y347910D02*
D03*
Y349878D02*
D03*
Y351847D02*
D03*
Y353815D02*
D03*
Y355784D02*
D03*
Y357752D02*
D03*
Y359721D02*
D03*
Y361689D02*
D03*
Y363658D02*
D03*
Y365626D02*
D03*
Y367595D02*
D03*
Y369563D02*
D03*
Y371532D02*
D03*
Y373500D02*
D03*
Y375469D02*
D03*
Y377437D02*
D03*
Y379406D02*
D03*
Y381374D02*
D03*
Y383343D02*
D03*
Y385311D02*
D03*
Y387280D02*
D03*
Y389248D02*
D03*
X477634D02*
D03*
Y345941D02*
D03*
Y343973D02*
D03*
Y387280D02*
D03*
Y385311D02*
D03*
Y383343D02*
D03*
Y381374D02*
D03*
Y379406D02*
D03*
Y377437D02*
D03*
Y375469D02*
D03*
Y373500D02*
D03*
Y371532D02*
D03*
Y369563D02*
D03*
Y367595D02*
D03*
Y365626D02*
D03*
Y363658D02*
D03*
Y361689D02*
D03*
Y359721D02*
D03*
Y357752D02*
D03*
Y355784D02*
D03*
Y353815D02*
D03*
Y351847D02*
D03*
Y349878D02*
D03*
Y347910D02*
D03*
D28*
X209995Y568000D02*
D03*
X207436D02*
D03*
X204877D02*
D03*
X202318D02*
D03*
X199759D02*
D03*
X197200D02*
D03*
X192082Y544575D02*
D03*
X194641D02*
D03*
X197200D02*
D03*
X199759D02*
D03*
X202318D02*
D03*
X204877D02*
D03*
X194641Y568000D02*
D03*
X207436Y544575D02*
D03*
X209995D02*
D03*
X212554D02*
D03*
X215113D02*
D03*
X192082Y568000D02*
D03*
X212554D02*
D03*
X215113D02*
D03*
D29*
X180900Y352594D02*
D03*
Y339406D02*
D03*
D37*
X735000Y-3000D02*
X753000D01*
Y14000D01*
X-3000Y653000D02*
X15000D01*
X-3000Y636000D02*
Y653000D01*
Y-3000D02*
X14000D01*
X-3000D02*
Y15000D01*
D38*
X575000Y73800D02*
D03*
X504300Y413300D02*
D03*
X730000Y590000D02*
D03*
Y580000D02*
D03*
Y570000D02*
D03*
Y560000D02*
D03*
Y550000D02*
D03*
Y540000D02*
D03*
Y530000D02*
D03*
Y520000D02*
D03*
X700000Y590000D02*
D03*
Y580000D02*
D03*
Y570000D02*
D03*
Y560000D02*
D03*
Y550000D02*
D03*
Y540000D02*
D03*
Y530000D02*
D03*
Y520000D02*
D03*
X730000Y230000D02*
D03*
Y220000D02*
D03*
Y210000D02*
D03*
Y200000D02*
D03*
Y190000D02*
D03*
Y180000D02*
D03*
Y170000D02*
D03*
Y160000D02*
D03*
Y150000D02*
D03*
Y140000D02*
D03*
Y130000D02*
D03*
Y120000D02*
D03*
Y110000D02*
D03*
Y90000D02*
D03*
Y100000D02*
D03*
X700000Y230000D02*
D03*
Y220000D02*
D03*
Y210000D02*
D03*
Y200000D02*
D03*
Y190000D02*
D03*
Y180000D02*
D03*
Y170000D02*
D03*
Y160000D02*
D03*
Y150000D02*
D03*
Y140000D02*
D03*
Y130000D02*
D03*
Y120000D02*
D03*
Y110000D02*
D03*
Y90000D02*
D03*
Y100000D02*
D03*
X730000Y240000D02*
D03*
Y250000D02*
D03*
Y260000D02*
D03*
Y270000D02*
D03*
Y280000D02*
D03*
X700000Y250000D02*
D03*
Y240000D02*
D03*
Y260000D02*
D03*
Y270000D02*
D03*
Y280000D02*
D03*
X730000Y290000D02*
D03*
Y300000D02*
D03*
Y310000D02*
D03*
Y320000D02*
D03*
Y330000D02*
D03*
Y340000D02*
D03*
Y350000D02*
D03*
Y360000D02*
D03*
Y370000D02*
D03*
Y380000D02*
D03*
Y390000D02*
D03*
Y400000D02*
D03*
Y410000D02*
D03*
Y420000D02*
D03*
X700000Y290000D02*
D03*
Y300000D02*
D03*
Y310000D02*
D03*
Y320000D02*
D03*
Y330000D02*
D03*
Y340000D02*
D03*
Y350000D02*
D03*
Y360000D02*
D03*
Y380000D02*
D03*
Y370000D02*
D03*
Y390000D02*
D03*
Y400000D02*
D03*
Y410000D02*
D03*
Y420000D02*
D03*
Y430000D02*
D03*
Y440000D02*
D03*
Y450000D02*
D03*
Y460000D02*
D03*
Y470000D02*
D03*
Y480000D02*
D03*
Y490000D02*
D03*
Y500000D02*
D03*
Y510000D02*
D03*
X730000Y430000D02*
D03*
Y440000D02*
D03*
Y450000D02*
D03*
Y460000D02*
D03*
Y470000D02*
D03*
Y480000D02*
D03*
Y490000D02*
D03*
Y500000D02*
D03*
Y510000D02*
D03*
X198900Y164400D02*
D03*
X567900Y274700D02*
D03*
X490800Y431300D02*
D03*
X242600Y472000D02*
D03*
X292000Y98500D02*
D03*
X282000D02*
D03*
X268000Y79500D02*
D03*
X278000D02*
D03*
X273000Y69500D02*
D03*
X283000D02*
D03*
X259000Y98500D02*
D03*
X258000Y79500D02*
D03*
X249000Y98500D02*
D03*
X253000Y69500D02*
D03*
X263000D02*
D03*
X46700Y516100D02*
D03*
Y526100D02*
D03*
Y536100D02*
D03*
Y546100D02*
D03*
Y556100D02*
D03*
Y566100D02*
D03*
Y576100D02*
D03*
X603800Y615300D02*
D03*
Y605300D02*
D03*
Y596300D02*
D03*
D39*
X30800Y77400D02*
D03*
X563800Y173500D02*
D03*
X521900Y200900D02*
D03*
X378500Y199000D02*
D03*
X395500Y208000D02*
D03*
D40*
X30800Y87400D02*
D03*
Y97400D02*
D03*
Y107400D02*
D03*
Y117400D02*
D03*
Y127400D02*
D03*
X333000Y481000D02*
D03*
X343000Y471000D02*
D03*
X323000D02*
D03*
X333000D02*
D03*
X323000Y481000D02*
D03*
X313000D02*
D03*
Y471000D02*
D03*
X501000Y113000D02*
D03*
X471000Y123000D02*
D03*
X461000D02*
D03*
X491000D02*
D03*
X481000D02*
D03*
X491000Y113000D02*
D03*
X471000D02*
D03*
X461000D02*
D03*
X481000D02*
D03*
X451000Y123000D02*
D03*
X441000D02*
D03*
X431000D02*
D03*
X421000D02*
D03*
X411000D02*
D03*
X431000Y113000D02*
D03*
X441000D02*
D03*
X421000D02*
D03*
X451000D02*
D03*
X411000D02*
D03*
X573800Y173500D02*
D03*
Y163500D02*
D03*
Y143500D02*
D03*
Y153500D02*
D03*
Y133500D02*
D03*
Y113500D02*
D03*
Y103500D02*
D03*
Y123500D02*
D03*
X563800Y153500D02*
D03*
Y163500D02*
D03*
Y143500D02*
D03*
Y123500D02*
D03*
Y133500D02*
D03*
Y113500D02*
D03*
Y103500D02*
D03*
X531900Y200900D02*
D03*
Y190900D02*
D03*
Y170900D02*
D03*
Y180900D02*
D03*
Y160900D02*
D03*
Y140900D02*
D03*
Y130900D02*
D03*
Y150900D02*
D03*
X521900Y180900D02*
D03*
Y190900D02*
D03*
Y170900D02*
D03*
Y150900D02*
D03*
Y160900D02*
D03*
Y140900D02*
D03*
Y130900D02*
D03*
X378500Y189000D02*
D03*
Y179000D02*
D03*
X395500Y198000D02*
D03*
Y178000D02*
D03*
Y188000D02*
D03*
X440000Y459500D02*
D03*
X420000Y469500D02*
D03*
X410000D02*
D03*
X430000D02*
D03*
Y459500D02*
D03*
X410000D02*
D03*
X400000D02*
D03*
X420000D02*
D03*
X400000Y469500D02*
D03*
X390000D02*
D03*
X380000D02*
D03*
X370000D02*
D03*
X390000Y459500D02*
D03*
X380000D02*
D03*
X370000D02*
D03*
X317000Y504500D02*
D03*
X297000Y514500D02*
D03*
X287000D02*
D03*
X307000D02*
D03*
Y504500D02*
D03*
X287000D02*
D03*
X277000D02*
D03*
X297000D02*
D03*
X277000Y514500D02*
D03*
X267000D02*
D03*
X257000D02*
D03*
X247000D02*
D03*
X267000Y504500D02*
D03*
X257000D02*
D03*
X247000D02*
D03*
X572000Y42000D02*
D03*
Y22315D02*
D03*
X552315D02*
D03*
Y42000D02*
D03*
X391800Y68600D02*
D03*
X381800D02*
D03*
X95500Y580685D02*
D03*
X75815D02*
D03*
X95500Y561000D02*
D03*
X75815D02*
D03*
D41*
X109422Y416000D02*
D03*
X103517D02*
D03*
X115328D02*
D03*
X91706D02*
D03*
X85800D02*
D03*
X97611D02*
D03*
X138950D02*
D03*
X127139D02*
D03*
X121233D02*
D03*
X133044D02*
D03*
X79894D02*
D03*
X73989D02*
D03*
X62178D02*
D03*
X56272D02*
D03*
X68083D02*
D03*
X50367D02*
D03*
X44461D02*
D03*
D42*
X159816Y408323D02*
D03*
X23595D02*
D03*
D43*
X343000Y481000D02*
D03*
X501000Y123000D02*
D03*
X440000Y469500D02*
D03*
X317000Y514500D02*
D03*
X371800Y68600D02*
D03*
D44*
X199000Y298300D02*
D03*
Y294000D02*
D03*
D45*
X177776Y265824D02*
D03*
X164200Y279400D02*
D03*
X332700Y161300D02*
D03*
Y142100D02*
D03*
D46*
X103300Y44000D02*
D03*
X85300Y31000D02*
D03*
D47*
Y54500D02*
D03*
D48*
X288000Y79500D02*
D03*
D49*
X301200Y56500D02*
D03*
X239800D02*
D03*
D50*
X293000Y44500D02*
D03*
X248000D02*
D03*
D51*
X523200Y50400D02*
D03*
Y70400D02*
D03*
Y60400D02*
D03*
X493200Y70400D02*
D03*
Y60400D02*
D03*
Y50400D02*
D03*
Y40400D02*
D03*
X168000Y521000D02*
D03*
Y511000D02*
D03*
Y501000D02*
D03*
Y491000D02*
D03*
Y481000D02*
D03*
Y471000D02*
D03*
Y461000D02*
D03*
Y451000D02*
D03*
Y441000D02*
D03*
Y431000D02*
D03*
X138000D02*
D03*
Y441000D02*
D03*
Y451000D02*
D03*
Y461000D02*
D03*
Y471000D02*
D03*
Y481000D02*
D03*
Y491000D02*
D03*
Y501000D02*
D03*
Y511000D02*
D03*
X181400Y182400D02*
D03*
Y192400D02*
D03*
Y202400D02*
D03*
Y212400D02*
D03*
X211400D02*
D03*
Y202400D02*
D03*
Y192400D02*
D03*
D52*
X523200Y40400D02*
D03*
X138000Y521000D02*
D03*
X211400Y182400D02*
D03*
D53*
X483800Y238700D02*
D03*
Y228700D02*
D03*
X473800Y248700D02*
D03*
Y238700D02*
D03*
X483800Y218700D02*
D03*
Y208700D02*
D03*
X473800Y218700D02*
D03*
X453800Y248700D02*
D03*
X463800D02*
D03*
X453800Y238700D02*
D03*
X473800Y228700D02*
D03*
Y208700D02*
D03*
X463800Y238700D02*
D03*
X483800Y198700D02*
D03*
X473800D02*
D03*
X483800Y188700D02*
D03*
X473800D02*
D03*
X463800D02*
D03*
X473800Y178700D02*
D03*
X453800Y188700D02*
D03*
Y178700D02*
D03*
X463800D02*
D03*
X443800D02*
D03*
X433800Y248700D02*
D03*
X443800D02*
D03*
X433800Y238700D02*
D03*
X443800D02*
D03*
X423800D02*
D03*
Y248700D02*
D03*
Y228700D02*
D03*
X413800Y238700D02*
D03*
Y228700D02*
D03*
X423800Y218700D02*
D03*
X413800D02*
D03*
X433800Y188700D02*
D03*
X443800D02*
D03*
X423800Y198700D02*
D03*
Y178700D02*
D03*
X433800D02*
D03*
X413800Y208700D02*
D03*
X423800D02*
D03*
X413800Y198700D02*
D03*
X423800Y188700D02*
D03*
X413800D02*
D03*
X516200Y584600D02*
D03*
X506200D02*
D03*
X516200Y574600D02*
D03*
X506200D02*
D03*
X496200Y594600D02*
D03*
X506200D02*
D03*
X486200D02*
D03*
X496200Y584600D02*
D03*
X486200D02*
D03*
X516200Y564600D02*
D03*
X506200D02*
D03*
X516200Y554600D02*
D03*
X506200D02*
D03*
Y544600D02*
D03*
X496200Y554600D02*
D03*
Y544600D02*
D03*
X486200D02*
D03*
X466200Y594600D02*
D03*
X476200D02*
D03*
Y584600D02*
D03*
X466200D02*
D03*
Y574600D02*
D03*
X456200Y584600D02*
D03*
X466200Y564600D02*
D03*
X456200Y574600D02*
D03*
X476200Y554600D02*
D03*
X486200D02*
D03*
X466200D02*
D03*
X476200Y544600D02*
D03*
X456200Y564600D02*
D03*
X466200Y544600D02*
D03*
X456200Y554600D02*
D03*
D54*
X611300Y417700D02*
D03*
Y407700D02*
D03*
Y427700D02*
D03*
Y387700D02*
D03*
Y397700D02*
D03*
Y457700D02*
D03*
Y467700D02*
D03*
Y437700D02*
D03*
Y447700D02*
D03*
Y337700D02*
D03*
Y327700D02*
D03*
Y307700D02*
D03*
Y317700D02*
D03*
Y367700D02*
D03*
Y377700D02*
D03*
Y347700D02*
D03*
Y357700D02*
D03*
Y297700D02*
D03*
Y277700D02*
D03*
Y287700D02*
D03*
Y257700D02*
D03*
Y267700D02*
D03*
Y237700D02*
D03*
Y247700D02*
D03*
Y217700D02*
D03*
Y207700D02*
D03*
Y227700D02*
D03*
Y197700D02*
D03*
Y187700D02*
D03*
D55*
Y505200D02*
D03*
D56*
Y140200D02*
D03*
D57*
Y177700D02*
D03*
D58*
X340000Y535000D02*
D03*
X536000Y105000D02*
D03*
X378000Y120000D02*
D03*
X30000Y620000D02*
D03*
X720000D02*
D03*
Y30000D02*
D03*
X30000D02*
D03*
D59*
X84100Y106400D02*
D03*
Y116400D02*
D03*
X84200Y169000D02*
D03*
Y179000D02*
D03*
X84300Y228700D02*
D03*
Y238700D02*
D03*
X83900Y288300D02*
D03*
Y298300D02*
D03*
D60*
X84100Y96400D02*
D03*
X84200Y159000D02*
D03*
X84300Y218700D02*
D03*
X83900Y278300D02*
D03*
D61*
X46700Y586100D02*
D03*
D62*
X200473Y599473D02*
D03*
X220158D02*
D03*
X230000D02*
D03*
X190630Y619158D02*
D03*
X230000D02*
D03*
X190630Y629000D02*
D03*
X230000D02*
D03*
X210315Y619158D02*
D03*
Y599473D02*
D03*
X190630D02*
D03*
X145157Y599315D02*
D03*
X164842D02*
D03*
X174685D02*
D03*
X135315Y619000D02*
D03*
X174685D02*
D03*
X135315Y628842D02*
D03*
X174685D02*
D03*
X155000Y619000D02*
D03*
Y599315D02*
D03*
X135315D02*
D03*
M02*
