G04 Layer_Color=32896*
%FSLAX25Y25*%
%MOIN*%
G70*
G01*
G75*
%ADD31C,0.01000*%
%ADD32C,0.00787*%
D31*
X478400Y398200D02*
X472402D01*
Y395201D01*
X473402Y394201D01*
X475401D01*
X476401Y395201D01*
Y398200D01*
Y396201D02*
X478400Y394201D01*
Y389203D02*
X472402D01*
X475401Y392202D01*
Y388203D01*
X472402Y382205D02*
X473402Y384205D01*
X475401Y386204D01*
X477400D01*
X478400Y385204D01*
Y383205D01*
X477400Y382205D01*
X476401D01*
X475401Y383205D01*
Y386204D01*
X495000Y397800D02*
X489002D01*
Y394801D01*
X490002Y393801D01*
X492001D01*
X493001Y394801D01*
Y397800D01*
Y395801D02*
X495000Y393801D01*
Y388803D02*
X489002D01*
X492001Y391802D01*
Y387803D01*
X489002Y381805D02*
Y385804D01*
X492001D01*
X491001Y383804D01*
Y382805D01*
X492001Y381805D01*
X494000D01*
X495000Y382805D01*
Y384804D01*
X494000Y385804D01*
X96400Y602600D02*
Y608598D01*
X93401D01*
X92401Y607598D01*
Y605599D01*
X93401Y604599D01*
X96400D01*
X94401D02*
X92401Y602600D01*
X90402D02*
X88403D01*
X89402D01*
Y608598D01*
X90402Y607598D01*
X81405Y608598D02*
X85404D01*
Y605599D01*
X83404Y606599D01*
X82405D01*
X81405Y605599D01*
Y603600D01*
X82405Y602600D01*
X84404D01*
X85404Y603600D01*
X407800Y142600D02*
X413798D01*
Y145599D01*
X412798Y146599D01*
X410799D01*
X409799Y145599D01*
Y142600D01*
Y144599D02*
X407800Y146599D01*
Y148598D02*
Y150597D01*
Y149598D01*
X413798D01*
X412798Y148598D01*
X407800Y156596D02*
X413798D01*
X410799Y153596D01*
Y157595D01*
X418000Y142953D02*
X423998D01*
Y145952D01*
X422998Y146951D01*
X420999D01*
X419999Y145952D01*
Y142953D01*
Y144952D02*
X418000Y146951D01*
Y148951D02*
Y150950D01*
Y149951D01*
X423998D01*
X422998Y148951D01*
Y153949D02*
X423998Y154949D01*
Y156948D01*
X422998Y157948D01*
X421999D01*
X420999Y156948D01*
Y155949D01*
Y156948D01*
X419999Y157948D01*
X419000D01*
X418000Y156948D01*
Y154949D01*
X419000Y153949D01*
X488000Y141200D02*
X493998D01*
Y144199D01*
X492998Y145199D01*
X490999D01*
X489999Y144199D01*
Y141200D01*
Y143199D02*
X488000Y145199D01*
Y147198D02*
Y149197D01*
Y148198D01*
X493998D01*
X492998Y147198D01*
X488000Y156195D02*
Y152196D01*
X491999Y156195D01*
X492998D01*
X493998Y155195D01*
Y153196D01*
X492998Y152196D01*
X477800Y140953D02*
X483798D01*
Y143952D01*
X482798Y144951D01*
X480799D01*
X479799Y143952D01*
Y140953D01*
Y142952D02*
X477800Y144951D01*
Y146951D02*
Y148950D01*
Y147950D01*
X483798D01*
X482798Y146951D01*
X477800Y151949D02*
Y153949D01*
Y152949D01*
X483798D01*
X482798Y151949D01*
X468200Y141000D02*
X474198D01*
Y143999D01*
X473198Y144999D01*
X471199D01*
X470199Y143999D01*
Y141000D01*
Y142999D02*
X468200Y144999D01*
Y146998D02*
Y148997D01*
Y147998D01*
X474198D01*
X473198Y146998D01*
Y151996D02*
X474198Y152996D01*
Y154996D01*
X473198Y155995D01*
X469200D01*
X468200Y154996D01*
Y152996D01*
X469200Y151996D01*
X473198D01*
X458200Y141353D02*
X464198D01*
Y144352D01*
X463198Y145352D01*
X461199D01*
X460199Y144352D01*
Y141353D01*
Y143352D02*
X458200Y145352D01*
X459200Y147351D02*
X458200Y148351D01*
Y150350D01*
X459200Y151349D01*
X463198D01*
X464198Y150350D01*
Y148351D01*
X463198Y147351D01*
X462199D01*
X461199Y148351D01*
Y151349D01*
X449200Y140200D02*
X455198D01*
Y143199D01*
X454198Y144199D01*
X452199D01*
X451199Y143199D01*
Y140200D01*
Y142199D02*
X449200Y144199D01*
X454198Y146198D02*
X455198Y147198D01*
Y149197D01*
X454198Y150197D01*
X453199D01*
X452199Y149197D01*
X451199Y150197D01*
X450200D01*
X449200Y149197D01*
Y147198D01*
X450200Y146198D01*
X451199D01*
X452199Y147198D01*
X453199Y146198D01*
X454198D01*
X452199Y147198D02*
Y149197D01*
X437800Y140800D02*
X443798D01*
Y143799D01*
X442798Y144799D01*
X440799D01*
X439799Y143799D01*
Y140800D01*
Y142799D02*
X437800Y144799D01*
X443798Y146798D02*
Y150797D01*
X442798D01*
X438800Y146798D01*
X437800D01*
X515600Y50753D02*
X509602D01*
Y47754D01*
X510602Y46754D01*
X512601D01*
X513601Y47754D01*
Y50753D01*
Y48753D02*
X515600Y46754D01*
Y41756D02*
X509602D01*
X512601Y44755D01*
Y40756D01*
X516200Y87400D02*
X510202D01*
Y84401D01*
X511202Y83401D01*
X513201D01*
X514201Y84401D01*
Y87400D01*
Y85401D02*
X516200Y83401D01*
X511202Y81402D02*
X510202Y80402D01*
Y78403D01*
X511202Y77403D01*
X512201D01*
X513201Y78403D01*
Y79403D01*
Y78403D01*
X514201Y77403D01*
X515200D01*
X516200Y78403D01*
Y80402D01*
X515200Y81402D01*
X68901Y364398D02*
X69901Y365398D01*
X71900D01*
X72900Y364398D01*
Y360400D01*
X71900Y359400D01*
X69901D01*
X68901Y360400D01*
X66902Y365398D02*
X62903D01*
Y364398D01*
X66902Y360400D01*
Y359400D01*
X60904Y360400D02*
X59904Y359400D01*
X57905D01*
X56905Y360400D01*
Y364398D01*
X57905Y365398D01*
X59904D01*
X60904Y364398D01*
Y363399D01*
X59904Y362399D01*
X56905D01*
X290799Y138602D02*
X289799Y137602D01*
X287800D01*
X286800Y138602D01*
Y142600D01*
X287800Y143600D01*
X289799D01*
X290799Y142600D01*
X296797Y137602D02*
X294797Y138602D01*
X292798Y140601D01*
Y142600D01*
X293798Y143600D01*
X295797D01*
X296797Y142600D01*
Y141601D01*
X295797Y140601D01*
X292798D01*
X302795Y137602D02*
X298796D01*
Y140601D01*
X300796Y139601D01*
X301795D01*
X302795Y140601D01*
Y142600D01*
X301795Y143600D01*
X299796D01*
X298796Y142600D01*
X156801Y499298D02*
X157801Y500298D01*
X159800D01*
X160800Y499298D01*
Y495300D01*
X159800Y494300D01*
X157801D01*
X156801Y495300D01*
X150803Y500298D02*
X154802D01*
Y497299D01*
X152803Y498299D01*
X151803D01*
X150803Y497299D01*
Y495300D01*
X151803Y494300D01*
X153802D01*
X154802Y495300D01*
X144805Y500298D02*
X146804Y499298D01*
X148804Y497299D01*
Y495300D01*
X147804Y494300D01*
X145805D01*
X144805Y495300D01*
Y496299D01*
X145805Y497299D01*
X148804D01*
X68701Y378998D02*
X69701Y379998D01*
X71700D01*
X72700Y378998D01*
Y375000D01*
X71700Y374000D01*
X69701D01*
X68701Y375000D01*
X62703Y379998D02*
X66702D01*
Y376999D01*
X64703Y377999D01*
X63703D01*
X62703Y376999D01*
Y375000D01*
X63703Y374000D01*
X65702D01*
X66702Y375000D01*
X56705Y379998D02*
X60704D01*
Y376999D01*
X58705Y377999D01*
X57705D01*
X56705Y376999D01*
Y375000D01*
X57705Y374000D01*
X59704D01*
X60704Y375000D01*
X68901Y396198D02*
X69901Y397198D01*
X71900D01*
X72900Y396198D01*
Y392200D01*
X71900Y391200D01*
X69901D01*
X68901Y392200D01*
X62903Y397198D02*
X66902D01*
Y394199D01*
X64903Y395199D01*
X63903D01*
X62903Y394199D01*
Y392200D01*
X63903Y391200D01*
X65902D01*
X66902Y392200D01*
X57905Y391200D02*
Y397198D01*
X60904Y394199D01*
X56905D01*
X69301Y414398D02*
X70301Y415398D01*
X72300D01*
X73300Y414398D01*
Y410400D01*
X72300Y409400D01*
X70301D01*
X69301Y410400D01*
X63303Y415398D02*
X67302D01*
Y412399D01*
X65303Y413399D01*
X64303D01*
X63303Y412399D01*
Y410400D01*
X64303Y409400D01*
X66302D01*
X67302Y410400D01*
X61304Y414398D02*
X60304Y415398D01*
X58305D01*
X57305Y414398D01*
Y413399D01*
X58305Y412399D01*
X59304D01*
X58305D01*
X57305Y411399D01*
Y410400D01*
X58305Y409400D01*
X60304D01*
X61304Y410400D01*
X110401Y419698D02*
X111401Y420698D01*
X113400D01*
X114400Y419698D01*
Y415700D01*
X113400Y414700D01*
X111401D01*
X110401Y415700D01*
X105403Y414700D02*
Y420698D01*
X108402Y417699D01*
X104403D01*
X102404Y419698D02*
X101404Y420698D01*
X99405D01*
X98405Y419698D01*
Y418699D01*
X99405Y417699D01*
X98405Y416699D01*
Y415700D01*
X99405Y414700D01*
X101404D01*
X102404Y415700D01*
Y416699D01*
X101404Y417699D01*
X102404Y418699D01*
Y419698D01*
X101404Y417699D02*
X99405D01*
X116601Y420098D02*
X117601Y421098D01*
X119600D01*
X120600Y420098D01*
Y416100D01*
X119600Y415100D01*
X117601D01*
X116601Y416100D01*
X111603Y415100D02*
Y421098D01*
X114602Y418099D01*
X110603D01*
X108604Y421098D02*
X104605D01*
Y420098D01*
X108604Y416100D01*
Y415100D01*
X125398Y388199D02*
X126398Y387199D01*
Y385200D01*
X125398Y384200D01*
X121400D01*
X120400Y385200D01*
Y387199D01*
X121400Y388199D01*
X120400Y393197D02*
X126398D01*
X123399Y390198D01*
Y394197D01*
X126398Y400195D02*
X125398Y398196D01*
X123399Y396196D01*
X121400D01*
X120400Y397196D01*
Y399195D01*
X121400Y400195D01*
X122399D01*
X123399Y399195D01*
Y396196D01*
X134798Y388199D02*
X135798Y387199D01*
Y385200D01*
X134798Y384200D01*
X130800D01*
X129800Y385200D01*
Y387199D01*
X130800Y388199D01*
X129800Y393197D02*
X135798D01*
X132799Y390198D01*
Y394197D01*
X135798Y400195D02*
Y396196D01*
X132799D01*
X133799Y398196D01*
Y399195D01*
X132799Y400195D01*
X130800D01*
X129800Y399195D01*
Y397196D01*
X130800Y396196D01*
X139402Y395601D02*
X138402Y396601D01*
Y398600D01*
X139402Y399600D01*
X143400D01*
X144400Y398600D01*
Y396601D01*
X143400Y395601D01*
X144400Y390603D02*
X138402D01*
X141401Y393602D01*
Y389603D01*
X144400Y384605D02*
X138402D01*
X141401Y387604D01*
Y383605D01*
X149802Y444001D02*
X148802Y445001D01*
Y447000D01*
X149802Y448000D01*
X153800D01*
X154800Y447000D01*
Y445001D01*
X153800Y444001D01*
X154800Y439003D02*
X148802D01*
X151801Y442002D01*
Y438003D01*
X149802Y436004D02*
X148802Y435004D01*
Y433005D01*
X149802Y432005D01*
X150801D01*
X151801Y433005D01*
Y434004D01*
Y433005D01*
X152801Y432005D01*
X153800D01*
X154800Y433005D01*
Y435004D01*
X153800Y436004D01*
X104301Y416998D02*
X105301Y417998D01*
X107300D01*
X108300Y416998D01*
Y413000D01*
X107300Y412000D01*
X105301D01*
X104301Y413000D01*
X99303Y412000D02*
Y417998D01*
X102302Y414999D01*
X98303D01*
X92305Y412000D02*
X96304D01*
X92305Y415999D01*
Y416998D01*
X93305Y417998D01*
X95304D01*
X96304Y416998D01*
X92501Y417198D02*
X93501Y418198D01*
X95500D01*
X96500Y417198D01*
Y413200D01*
X95500Y412200D01*
X93501D01*
X92501Y413200D01*
X87503Y412200D02*
Y418198D01*
X90502Y415199D01*
X86503D01*
X84504Y417198D02*
X83504Y418198D01*
X81505D01*
X80505Y417198D01*
Y413200D01*
X81505Y412200D01*
X83504D01*
X84504Y413200D01*
Y417198D01*
X80501Y414398D02*
X81501Y415398D01*
X83500D01*
X84500Y414398D01*
Y410400D01*
X83500Y409400D01*
X81501D01*
X80501Y410400D01*
X78502Y414398D02*
X77502Y415398D01*
X75503D01*
X74503Y414398D01*
Y413399D01*
X75503Y412399D01*
X76503D01*
X75503D01*
X74503Y411399D01*
Y410400D01*
X75503Y409400D01*
X77502D01*
X78502Y410400D01*
X72504D02*
X71504Y409400D01*
X69505D01*
X68505Y410400D01*
Y414398D01*
X69505Y415398D01*
X71504D01*
X72504Y414398D01*
Y413399D01*
X71504Y412399D01*
X68505D01*
X399201Y398898D02*
X400201Y399898D01*
X402200D01*
X403200Y398898D01*
Y394900D01*
X402200Y393900D01*
X400201D01*
X399201Y394900D01*
X397202Y398898D02*
X396202Y399898D01*
X394203D01*
X393203Y398898D01*
Y397899D01*
X394203Y396899D01*
X395203D01*
X394203D01*
X393203Y395899D01*
Y394900D01*
X394203Y393900D01*
X396202D01*
X397202Y394900D01*
X391204Y398898D02*
X390204Y399898D01*
X388205D01*
X387205Y398898D01*
Y397899D01*
X388205Y396899D01*
X389205D01*
X388205D01*
X387205Y395899D01*
Y394900D01*
X388205Y393900D01*
X390204D01*
X391204Y394900D01*
X194999Y186402D02*
X193999Y185402D01*
X192000D01*
X191000Y186402D01*
Y190400D01*
X192000Y191400D01*
X193999D01*
X194999Y190400D01*
X200997Y191400D02*
X196998D01*
X200997Y187401D01*
Y186402D01*
X199997Y185402D01*
X197998D01*
X196998Y186402D01*
X214401Y559198D02*
X215401Y560198D01*
X217400D01*
X218400Y559198D01*
Y555200D01*
X217400Y554200D01*
X215401D01*
X214401Y555200D01*
X212402Y554200D02*
X210403D01*
X211402D01*
Y560198D01*
X212402Y559198D01*
X540900Y200400D02*
Y206398D01*
X537901D01*
X536901Y205398D01*
Y203399D01*
X537901Y202399D01*
X540900D01*
X538901D02*
X536901Y200400D01*
X530903Y206398D02*
X534902D01*
Y203399D01*
X532903Y204399D01*
X531903D01*
X530903Y203399D01*
Y201400D01*
X531903Y200400D01*
X533902D01*
X534902Y201400D01*
X524905Y206398D02*
X526905Y205398D01*
X528904Y203399D01*
Y201400D01*
X527904Y200400D01*
X525905D01*
X524905Y201400D01*
Y202399D01*
X525905Y203399D01*
X528904D01*
X541547Y443200D02*
Y449198D01*
X538548D01*
X537548Y448198D01*
Y446199D01*
X538548Y445199D01*
X541547D01*
X539548D02*
X537548Y443200D01*
X531550Y449198D02*
X535549D01*
Y446199D01*
X533550Y447199D01*
X532550D01*
X531550Y446199D01*
Y444200D01*
X532550Y443200D01*
X534550D01*
X535549Y444200D01*
X525552Y449198D02*
X529551D01*
Y446199D01*
X527552Y447199D01*
X526552D01*
X525552Y446199D01*
Y444200D01*
X526552Y443200D01*
X528551D01*
X529551Y444200D01*
X287401Y365398D02*
X288401Y366398D01*
X290400D01*
X291400Y365398D01*
Y361400D01*
X290400Y360400D01*
X288401D01*
X287401Y361400D01*
X285402Y366398D02*
X281403D01*
Y365398D01*
X285402Y361400D01*
Y360400D01*
X279404Y365398D02*
X278404Y366398D01*
X276405D01*
X275405Y365398D01*
Y361400D01*
X276405Y360400D01*
X278404D01*
X279404Y361400D01*
Y365398D01*
X255901Y364398D02*
X256901Y365398D01*
X258900D01*
X259900Y364398D01*
Y360400D01*
X258900Y359400D01*
X256901D01*
X255901Y360400D01*
X249903Y365398D02*
X251903Y364398D01*
X253902Y362399D01*
Y360400D01*
X252902Y359400D01*
X250903D01*
X249903Y360400D01*
Y361399D01*
X250903Y362399D01*
X253902D01*
X247904Y360400D02*
X246904Y359400D01*
X244905D01*
X243905Y360400D01*
Y364398D01*
X244905Y365398D01*
X246904D01*
X247904Y364398D01*
Y363399D01*
X246904Y362399D01*
X243905D01*
X248901Y357898D02*
X249901Y358898D01*
X251900D01*
X252900Y357898D01*
Y353900D01*
X251900Y352900D01*
X249901D01*
X248901Y353900D01*
X242903Y358898D02*
X244903Y357898D01*
X246902Y355899D01*
Y353900D01*
X245902Y352900D01*
X243903D01*
X242903Y353900D01*
Y354899D01*
X243903Y355899D01*
X246902D01*
X240904Y357898D02*
X239904Y358898D01*
X237905D01*
X236905Y357898D01*
Y356899D01*
X237905Y355899D01*
X236905Y354899D01*
Y353900D01*
X237905Y352900D01*
X239904D01*
X240904Y353900D01*
Y354899D01*
X239904Y355899D01*
X240904Y356899D01*
Y357898D01*
X239904Y355899D02*
X237905D01*
X251901Y293398D02*
X252901Y294398D01*
X254900D01*
X255900Y293398D01*
Y289400D01*
X254900Y288400D01*
X252901D01*
X251901Y289400D01*
X245903Y294398D02*
X247903Y293398D01*
X249902Y291399D01*
Y289400D01*
X248902Y288400D01*
X246903D01*
X245903Y289400D01*
Y290399D01*
X246903Y291399D01*
X249902D01*
X243904Y294398D02*
X239905D01*
Y293398D01*
X243904Y289400D01*
Y288400D01*
X290599Y127602D02*
X289599Y126602D01*
X287600D01*
X286600Y127602D01*
Y131600D01*
X287600Y132600D01*
X289599D01*
X290599Y131600D01*
X296597Y126602D02*
X294597Y127602D01*
X292598Y129601D01*
Y131600D01*
X293598Y132600D01*
X295597D01*
X296597Y131600D01*
Y130601D01*
X295597Y129601D01*
X292598D01*
X302595Y126602D02*
X300595Y127602D01*
X298596Y129601D01*
Y131600D01*
X299596Y132600D01*
X301595D01*
X302595Y131600D01*
Y130601D01*
X301595Y129601D01*
X298596D01*
X250401Y321398D02*
X251401Y322398D01*
X253400D01*
X254400Y321398D01*
Y317400D01*
X253400Y316400D01*
X251401D01*
X250401Y317400D01*
X244403Y322398D02*
X248402D01*
Y319399D01*
X246403Y320399D01*
X245403D01*
X244403Y319399D01*
Y317400D01*
X245403Y316400D01*
X247402D01*
X248402Y317400D01*
X238405Y316400D02*
X242404D01*
X238405Y320399D01*
Y321398D01*
X239405Y322398D01*
X241404D01*
X242404Y321398D01*
X246401Y281398D02*
X247401Y282398D01*
X249400D01*
X250400Y281398D01*
Y277400D01*
X249400Y276400D01*
X247401D01*
X246401Y277400D01*
X240403Y282398D02*
X244402D01*
Y279399D01*
X242403Y280399D01*
X241403D01*
X240403Y279399D01*
Y277400D01*
X241403Y276400D01*
X243402D01*
X244402Y277400D01*
X238404Y276400D02*
X236404D01*
X237404D01*
Y282398D01*
X238404Y281398D01*
X295401Y306198D02*
X296401Y307198D01*
X298400D01*
X299400Y306198D01*
Y302200D01*
X298400Y301200D01*
X296401D01*
X295401Y302200D01*
X289403Y307198D02*
X293402D01*
Y304199D01*
X291403Y305199D01*
X290403D01*
X289403Y304199D01*
Y302200D01*
X290403Y301200D01*
X292402D01*
X293402Y302200D01*
X287404Y306198D02*
X286404Y307198D01*
X284405D01*
X283405Y306198D01*
Y302200D01*
X284405Y301200D01*
X286404D01*
X287404Y302200D01*
Y306198D01*
X324901Y365398D02*
X325901Y366398D01*
X327900D01*
X328900Y365398D01*
Y361400D01*
X327900Y360400D01*
X325901D01*
X324901Y361400D01*
X319903Y360400D02*
Y366398D01*
X322902Y363399D01*
X318903D01*
X316904Y361400D02*
X315904Y360400D01*
X313905D01*
X312905Y361400D01*
Y365398D01*
X313905Y366398D01*
X315904D01*
X316904Y365398D01*
Y364399D01*
X315904Y363399D01*
X312905D01*
X141202Y443201D02*
X140202Y444201D01*
Y446200D01*
X141202Y447200D01*
X145200D01*
X146200Y446200D01*
Y444201D01*
X145200Y443201D01*
X146200Y438203D02*
X140202D01*
X143201Y441202D01*
Y437203D01*
X146200Y435204D02*
Y433205D01*
Y434204D01*
X140202D01*
X141202Y435204D01*
X318401Y306198D02*
X319401Y307198D01*
X321400D01*
X322400Y306198D01*
Y302200D01*
X321400Y301200D01*
X319401D01*
X318401Y302200D01*
X316402Y306198D02*
X315402Y307198D01*
X313403D01*
X312403Y306198D01*
Y305199D01*
X313403Y304199D01*
X314403D01*
X313403D01*
X312403Y303199D01*
Y302200D01*
X313403Y301200D01*
X315402D01*
X316402Y302200D01*
X310404Y306198D02*
X309404Y307198D01*
X307405D01*
X306405Y306198D01*
Y305199D01*
X307405Y304199D01*
X306405Y303199D01*
Y302200D01*
X307405Y301200D01*
X309404D01*
X310404Y302200D01*
Y303199D01*
X309404Y304199D01*
X310404Y305199D01*
Y306198D01*
X309404Y304199D02*
X307405D01*
X335901Y306943D02*
X336901Y307942D01*
X338900D01*
X339900Y306943D01*
Y302944D01*
X338900Y301944D01*
X336901D01*
X335901Y302944D01*
X333902Y306943D02*
X332902Y307942D01*
X330903D01*
X329903Y306943D01*
Y305943D01*
X330903Y304943D01*
X331903D01*
X330903D01*
X329903Y303943D01*
Y302944D01*
X330903Y301944D01*
X332902D01*
X333902Y302944D01*
X327904Y307942D02*
X323905D01*
Y306943D01*
X327904Y302944D01*
Y301944D01*
X337401Y326898D02*
X338401Y327898D01*
X340400D01*
X341400Y326898D01*
Y322900D01*
X340400Y321900D01*
X338401D01*
X337401Y322900D01*
X335402Y326898D02*
X334402Y327898D01*
X332403D01*
X331403Y326898D01*
Y325899D01*
X332403Y324899D01*
X333403D01*
X332403D01*
X331403Y323899D01*
Y322900D01*
X332403Y321900D01*
X334402D01*
X335402Y322900D01*
X325405Y327898D02*
X327404Y326898D01*
X329404Y324899D01*
Y322900D01*
X328404Y321900D01*
X326405D01*
X325405Y322900D01*
Y323899D01*
X326405Y324899D01*
X329404D01*
X281401Y280943D02*
X282401Y281942D01*
X284400D01*
X285400Y280943D01*
Y276944D01*
X284400Y275944D01*
X282401D01*
X281401Y276944D01*
X279402Y280943D02*
X278402Y281942D01*
X276403D01*
X275403Y280943D01*
Y279943D01*
X276403Y278943D01*
X277403D01*
X276403D01*
X275403Y277943D01*
Y276944D01*
X276403Y275944D01*
X278402D01*
X279402Y276944D01*
X269405Y281942D02*
X273404D01*
Y278943D01*
X271405Y279943D01*
X270405D01*
X269405Y278943D01*
Y276944D01*
X270405Y275944D01*
X272404D01*
X273404Y276944D01*
X335401Y281898D02*
X336401Y282898D01*
X338400D01*
X339400Y281898D01*
Y277900D01*
X338400Y276900D01*
X336401D01*
X335401Y277900D01*
X333402Y281898D02*
X332402Y282898D01*
X330403D01*
X329403Y281898D01*
Y280899D01*
X330403Y279899D01*
X331403D01*
X330403D01*
X329403Y278899D01*
Y277900D01*
X330403Y276900D01*
X332402D01*
X333402Y277900D01*
X324405Y276900D02*
Y282898D01*
X327404Y279899D01*
X323405D01*
X315901Y280642D02*
X316901Y281642D01*
X318900D01*
X319900Y280642D01*
Y276644D01*
X318900Y275644D01*
X316901D01*
X315901Y276644D01*
X309903Y275644D02*
X313902D01*
X309903Y279643D01*
Y280642D01*
X310903Y281642D01*
X312902D01*
X313902Y280642D01*
X303905Y281642D02*
X307904D01*
Y278643D01*
X305905Y279643D01*
X304905D01*
X303905Y278643D01*
Y276644D01*
X304905Y275644D01*
X306904D01*
X307904Y276644D01*
X218901Y317898D02*
X219901Y318898D01*
X221900D01*
X222900Y317898D01*
Y313900D01*
X221900Y312900D01*
X219901D01*
X218901Y313900D01*
X216902Y312900D02*
X214903D01*
X215902D01*
Y318898D01*
X216902Y317898D01*
X211904Y318898D02*
X207905D01*
Y317898D01*
X211904Y313900D01*
Y312900D01*
X218901Y300398D02*
X219901Y301398D01*
X221900D01*
X222900Y300398D01*
Y296400D01*
X221900Y295400D01*
X219901D01*
X218901Y296400D01*
X216902Y295400D02*
X214903D01*
X215902D01*
Y301398D01*
X216902Y300398D01*
X207905Y301398D02*
X211904D01*
Y298399D01*
X209904Y299399D01*
X208905D01*
X207905Y298399D01*
Y296400D01*
X208905Y295400D01*
X210904D01*
X211904Y296400D01*
X256901Y281398D02*
X257901Y282398D01*
X259900D01*
X260900Y281398D01*
Y277400D01*
X259900Y276400D01*
X257901D01*
X256901Y277400D01*
X254902Y276400D02*
X252903D01*
X253902D01*
Y282398D01*
X254902Y281398D01*
X249904D02*
X248904Y282398D01*
X246904D01*
X245905Y281398D01*
Y280399D01*
X246904Y279399D01*
X247904D01*
X246904D01*
X245905Y278399D01*
Y277400D01*
X246904Y276400D01*
X248904D01*
X249904Y277400D01*
X250401Y307398D02*
X251401Y308398D01*
X253400D01*
X254400Y307398D01*
Y303400D01*
X253400Y302400D01*
X251401D01*
X250401Y303400D01*
X248402Y302400D02*
X246403D01*
X247402D01*
Y308398D01*
X248402Y307398D01*
X243404Y302400D02*
X241404D01*
X242404D01*
Y308398D01*
X243404Y307398D01*
X278401Y365398D02*
X279401Y366398D01*
X281400D01*
X282400Y365398D01*
Y361400D01*
X281400Y360400D01*
X279401D01*
X278401Y361400D01*
X276402D02*
X275402Y360400D01*
X273403D01*
X272403Y361400D01*
Y365398D01*
X273403Y366398D01*
X275402D01*
X276402Y365398D01*
Y364399D01*
X275402Y363399D01*
X272403D01*
X336901Y350398D02*
X337901Y351398D01*
X339900D01*
X340900Y350398D01*
Y346400D01*
X339900Y345400D01*
X337901D01*
X336901Y346400D01*
X334902Y350398D02*
X333902Y351398D01*
X331903D01*
X330903Y350398D01*
Y349399D01*
X331903Y348399D01*
X330903Y347399D01*
Y346400D01*
X331903Y345400D01*
X333902D01*
X334902Y346400D01*
Y347399D01*
X333902Y348399D01*
X334902Y349399D01*
Y350398D01*
X333902Y348399D02*
X331903D01*
X250401Y316398D02*
X251401Y317398D01*
X253400D01*
X254400Y316398D01*
Y312400D01*
X253400Y311400D01*
X251401D01*
X250401Y312400D01*
X248402Y317398D02*
X244403D01*
Y316398D01*
X248402Y312400D01*
Y311400D01*
X299645Y340398D02*
X300645Y341398D01*
X302644D01*
X303644Y340398D01*
Y336400D01*
X302644Y335400D01*
X300645D01*
X299645Y336400D01*
X293647Y341398D02*
X295647Y340398D01*
X297646Y338399D01*
Y336400D01*
X296646Y335400D01*
X294647D01*
X293647Y336400D01*
Y337399D01*
X294647Y338399D01*
X297646D01*
X247901Y333898D02*
X248901Y334898D01*
X250900D01*
X251900Y333898D01*
Y329900D01*
X250900Y328900D01*
X248901D01*
X247901Y329900D01*
X241903Y334898D02*
X245902D01*
Y331899D01*
X243903Y332899D01*
X242903D01*
X241903Y331899D01*
Y329900D01*
X242903Y328900D01*
X244902D01*
X245902Y329900D01*
X337401Y317898D02*
X338401Y318898D01*
X340400D01*
X341400Y317898D01*
Y313900D01*
X340400Y312900D01*
X338401D01*
X337401Y313900D01*
X332403Y312900D02*
Y318898D01*
X335402Y315899D01*
X331403D01*
D32*
X513978Y57613D02*
Y59187D01*
X511222Y57613D02*
Y59187D01*
X514178Y69213D02*
Y70787D01*
X511422Y69213D02*
Y70787D01*
X474822Y405413D02*
Y406987D01*
X477578Y405413D02*
Y406987D01*
X491422Y404613D02*
Y406187D01*
X494178Y404613D02*
Y406187D01*
X73822Y604813D02*
Y606387D01*
X76578Y604813D02*
Y606387D01*
X412378Y134813D02*
Y136387D01*
X409622Y134813D02*
Y136387D01*
X422578Y134813D02*
Y136387D01*
X419822Y134813D02*
Y136387D01*
X492378Y133613D02*
Y135187D01*
X489622Y133613D02*
Y135187D01*
X482178Y133413D02*
Y134987D01*
X479422Y133413D02*
Y134987D01*
X472778Y133013D02*
Y134587D01*
X470022Y133013D02*
Y134587D01*
X462778Y133413D02*
Y134987D01*
X460022Y133413D02*
Y134987D01*
X452578Y133213D02*
Y134787D01*
X449822Y133213D02*
Y134787D01*
X442378Y133413D02*
Y134987D01*
X439622Y133413D02*
Y134987D01*
X536813Y439178D02*
X538387D01*
X536813Y436422D02*
X538387D01*
X536165Y196378D02*
X537740D01*
X536165Y193622D02*
X537740D01*
M02*
