G04 Layer_Color=255*
%FSLAX25Y25*%
%MOIN*%
G70*
G01*
G75*
%ADD11R,0.03543X0.02756*%
%ADD12R,0.03543X0.03150*%
%ADD14R,0.03150X0.03543*%
%ADD16R,0.02756X0.03543*%
%ADD34C,0.06299*%
%ADD35C,0.05905*%
%ADD36R,0.05905X0.05905*%
%ADD37R,0.05000X0.05000*%
%ADD38C,0.05000*%
%ADD39C,0.06000*%
%ADD40C,0.03300*%
%ADD41O,0.13780X0.03937*%
%ADD42O,0.03937X0.13780*%
%ADD43O,0.15748X0.04921*%
%ADD44C,0.12500*%
%ADD45R,0.06200X0.06200*%
%ADD46C,0.15000*%
%ADD47R,0.06000X0.06000*%
%ADD48C,0.08000*%
%ADD49C,0.04500*%
%ADD50C,0.09200*%
%ADD51C,0.07000*%
%ADD52C,0.06200*%
%ADD53C,0.06299*%
%ADD54C,0.03937*%
%ADD55R,0.06000X0.06000*%
D11*
X512600Y55447D02*
D03*
Y61353D02*
D03*
X512800Y67047D02*
D03*
Y72953D02*
D03*
X476200Y409153D02*
D03*
Y403247D02*
D03*
X492800Y408353D02*
D03*
Y402447D02*
D03*
X75200Y608553D02*
D03*
Y602647D02*
D03*
X411000Y132647D02*
D03*
Y138553D02*
D03*
X421200Y132647D02*
D03*
Y138553D02*
D03*
X491000Y131447D02*
D03*
Y137353D02*
D03*
X480800Y131247D02*
D03*
Y137153D02*
D03*
X471400Y130847D02*
D03*
Y136753D02*
D03*
X461400Y131247D02*
D03*
Y137153D02*
D03*
X451200Y131047D02*
D03*
Y136953D02*
D03*
X441000Y131247D02*
D03*
Y137153D02*
D03*
D12*
X282400Y143356D02*
D03*
Y137844D02*
D03*
Y126444D02*
D03*
Y131956D02*
D03*
X145000Y457756D02*
D03*
Y452244D02*
D03*
X152000Y457756D02*
D03*
Y452244D02*
D03*
X113000Y404044D02*
D03*
Y409556D02*
D03*
X119200Y404444D02*
D03*
Y409956D02*
D03*
X125000Y403644D02*
D03*
Y409156D02*
D03*
X131600Y403444D02*
D03*
Y408956D02*
D03*
X141400Y403044D02*
D03*
Y408556D02*
D03*
X401800Y383244D02*
D03*
Y388756D02*
D03*
X318500Y264988D02*
D03*
Y270500D02*
D03*
X281000Y349744D02*
D03*
Y355256D02*
D03*
X259500Y271256D02*
D03*
Y265744D02*
D03*
X221500Y284744D02*
D03*
Y290256D02*
D03*
X290000Y355256D02*
D03*
Y349744D02*
D03*
X258500Y354256D02*
D03*
Y348744D02*
D03*
X249000Y265744D02*
D03*
Y271256D02*
D03*
X298000Y290500D02*
D03*
Y296012D02*
D03*
X321000Y290500D02*
D03*
Y296012D02*
D03*
X338500Y291244D02*
D03*
Y296756D02*
D03*
X284000Y265244D02*
D03*
Y270756D02*
D03*
X327500Y355256D02*
D03*
Y349744D02*
D03*
X221500Y302244D02*
D03*
Y307756D02*
D03*
X159400Y489156D02*
D03*
Y483644D02*
D03*
D14*
X66244Y354000D02*
D03*
X71756D02*
D03*
X201844Y557200D02*
D03*
X207356D02*
D03*
X193644Y182000D02*
D03*
X199156D02*
D03*
X66644Y404000D02*
D03*
X72156D02*
D03*
X83356D02*
D03*
X77844D02*
D03*
X95356Y406800D02*
D03*
X89844D02*
D03*
X107156Y406600D02*
D03*
X101644D02*
D03*
X250756Y323500D02*
D03*
X245244D02*
D03*
X340256Y307500D02*
D03*
X334744D02*
D03*
X253256Y306000D02*
D03*
X247744D02*
D03*
X302500Y330000D02*
D03*
X296988D02*
D03*
X339756Y340000D02*
D03*
X334244D02*
D03*
X253256Y297000D02*
D03*
X247744D02*
D03*
X246244Y347500D02*
D03*
X251756D02*
D03*
X249244Y283000D02*
D03*
X254756D02*
D03*
X247744Y311000D02*
D03*
X253256D02*
D03*
X340256Y316500D02*
D03*
X334744D02*
D03*
X338256Y271500D02*
D03*
X332744D02*
D03*
X66244Y385800D02*
D03*
X71756D02*
D03*
X71556Y368600D02*
D03*
X66044D02*
D03*
D16*
X540553Y437800D02*
D03*
X534647D02*
D03*
X539906Y195000D02*
D03*
X534000D02*
D03*
D34*
X136315Y588715D02*
D03*
X156000D02*
D03*
Y608400D02*
D03*
X175685Y618242D02*
D03*
X136315D02*
D03*
X175685Y608400D02*
D03*
X136315D02*
D03*
X175685Y588715D02*
D03*
X165842D02*
D03*
X146157D02*
D03*
X191515Y588600D02*
D03*
X211200D02*
D03*
Y608285D02*
D03*
X230885Y618127D02*
D03*
X191515D02*
D03*
X230885Y608285D02*
D03*
X191515D02*
D03*
X230885Y588600D02*
D03*
X221043D02*
D03*
X201358D02*
D03*
D35*
X490400Y455200D02*
D03*
X500400D02*
D03*
X510400D02*
D03*
X461000Y455600D02*
D03*
X471000D02*
D03*
X381800Y68600D02*
D03*
X391800D02*
D03*
X501000Y113000D02*
D03*
X491000Y123000D02*
D03*
Y113000D02*
D03*
X481000Y123000D02*
D03*
Y113000D02*
D03*
X471000Y123000D02*
D03*
Y113000D02*
D03*
X461000Y123000D02*
D03*
Y113000D02*
D03*
X451000Y123000D02*
D03*
Y113000D02*
D03*
X441000Y123000D02*
D03*
Y113000D02*
D03*
X431000Y123000D02*
D03*
Y113000D02*
D03*
X421000Y123000D02*
D03*
Y113000D02*
D03*
X411000Y123000D02*
D03*
Y113000D02*
D03*
D36*
X520400Y455200D02*
D03*
X451000Y455600D02*
D03*
X371800Y68600D02*
D03*
X501000Y123000D02*
D03*
D37*
X523200Y40400D02*
D03*
X211400Y182400D02*
D03*
D38*
X523200Y50400D02*
D03*
Y60400D02*
D03*
Y70400D02*
D03*
X493200D02*
D03*
Y60400D02*
D03*
Y50400D02*
D03*
Y40400D02*
D03*
X211400Y192400D02*
D03*
Y202400D02*
D03*
Y212400D02*
D03*
X181400D02*
D03*
Y202400D02*
D03*
Y192400D02*
D03*
Y182400D02*
D03*
X472800Y358200D02*
D03*
X462800Y368200D02*
D03*
Y358200D02*
D03*
X452800Y368200D02*
D03*
Y358200D02*
D03*
X442800Y368200D02*
D03*
X452800Y378200D02*
D03*
X442800D02*
D03*
X452800Y388200D02*
D03*
X442800D02*
D03*
X452800Y398200D02*
D03*
X442800D02*
D03*
X452800Y408200D02*
D03*
X442800D02*
D03*
X452800Y418200D02*
D03*
X442800D02*
D03*
X452800Y428200D02*
D03*
X462800Y418200D02*
D03*
Y428200D02*
D03*
X472800Y418200D02*
D03*
Y428200D02*
D03*
X482800Y418200D02*
D03*
Y428200D02*
D03*
X492800Y418200D02*
D03*
Y428200D02*
D03*
X502800Y418200D02*
D03*
Y428200D02*
D03*
X512800Y418200D02*
D03*
X502800Y408200D02*
D03*
X512800D02*
D03*
X502800Y398200D02*
D03*
X512800D02*
D03*
X502800Y388200D02*
D03*
X512800D02*
D03*
X502800Y378200D02*
D03*
X512800D02*
D03*
X502800Y368200D02*
D03*
X512800D02*
D03*
X502800Y358200D02*
D03*
X492800Y368200D02*
D03*
Y358200D02*
D03*
X482800Y368200D02*
D03*
Y358200D02*
D03*
X472800Y368200D02*
D03*
X456200Y554600D02*
D03*
Y564600D02*
D03*
Y574600D02*
D03*
X466200Y564600D02*
D03*
Y574600D02*
D03*
X456200Y584600D02*
D03*
X466200D02*
D03*
X476200D02*
D03*
X486200D02*
D03*
X496200D02*
D03*
X466200Y594600D02*
D03*
X476200D02*
D03*
X486200D02*
D03*
X496200D02*
D03*
X466200Y554600D02*
D03*
X476200D02*
D03*
X486200D02*
D03*
X496200D02*
D03*
X466200Y544600D02*
D03*
X476200D02*
D03*
X486200D02*
D03*
X496200D02*
D03*
X506200D02*
D03*
Y594600D02*
D03*
X516200Y584600D02*
D03*
X506200D02*
D03*
Y554600D02*
D03*
X516200D02*
D03*
Y564600D02*
D03*
X506200Y574600D02*
D03*
X516200D02*
D03*
X506200Y564600D02*
D03*
D39*
X564000Y45000D02*
D03*
Y25000D02*
D03*
X594000D02*
D03*
Y45000D02*
D03*
Y75000D02*
D03*
X564000Y15000D02*
D03*
X249000Y98500D02*
D03*
X259000D02*
D03*
X282000D02*
D03*
X292000D02*
D03*
X253000Y69500D02*
D03*
X258000Y79500D02*
D03*
X263000Y69500D02*
D03*
X268000Y79500D02*
D03*
X273000Y69500D02*
D03*
X278000Y79500D02*
D03*
X283000Y69500D02*
D03*
X62000Y593200D02*
D03*
Y573200D02*
D03*
X92000D02*
D03*
Y593200D02*
D03*
Y623200D02*
D03*
X62000Y563200D02*
D03*
X35200Y611600D02*
D03*
Y601600D02*
D03*
Y591600D02*
D03*
Y581600D02*
D03*
Y571600D02*
D03*
Y561600D02*
D03*
Y551600D02*
D03*
D40*
X188500Y293200D02*
D03*
Y297500D02*
D03*
D41*
X64800Y30600D02*
D03*
D42*
X82800Y43600D02*
D03*
D43*
X64800Y54100D02*
D03*
D44*
X18600Y273400D02*
D03*
X19200Y105800D02*
D03*
X19000Y165000D02*
D03*
X18400Y220000D02*
D03*
D45*
X88600Y283400D02*
D03*
Y273400D02*
D03*
Y263400D02*
D03*
X89200Y115800D02*
D03*
Y105800D02*
D03*
Y95800D02*
D03*
X89000Y175000D02*
D03*
Y165000D02*
D03*
Y155000D02*
D03*
X88400Y230000D02*
D03*
Y220000D02*
D03*
Y210000D02*
D03*
X557800Y178200D02*
D03*
D46*
X293000Y44500D02*
D03*
X248000D02*
D03*
D47*
X288000Y79500D02*
D03*
D48*
X239800Y56500D02*
D03*
X301200D02*
D03*
D49*
X169500Y256800D02*
D03*
Y276000D02*
D03*
X332700Y142100D02*
D03*
Y161300D02*
D03*
D50*
X557800Y505700D02*
D03*
D51*
Y140700D02*
D03*
D52*
Y188200D02*
D03*
Y198200D02*
D03*
Y208200D02*
D03*
Y218200D02*
D03*
Y228200D02*
D03*
Y238200D02*
D03*
Y248200D02*
D03*
Y258200D02*
D03*
Y268200D02*
D03*
Y278200D02*
D03*
Y288200D02*
D03*
Y298200D02*
D03*
Y308200D02*
D03*
Y318200D02*
D03*
Y328200D02*
D03*
Y338200D02*
D03*
Y348200D02*
D03*
Y358200D02*
D03*
Y368200D02*
D03*
Y378200D02*
D03*
Y388200D02*
D03*
Y398200D02*
D03*
Y408200D02*
D03*
Y418200D02*
D03*
Y428200D02*
D03*
Y438200D02*
D03*
Y448200D02*
D03*
Y458200D02*
D03*
Y468200D02*
D03*
D53*
X23595Y408323D02*
D03*
X159816D02*
D03*
D54*
X44461Y416000D02*
D03*
X50367D02*
D03*
X56272D02*
D03*
X62178D02*
D03*
X68083D02*
D03*
X73989D02*
D03*
X79894D02*
D03*
X85800D02*
D03*
X91706D02*
D03*
X97611D02*
D03*
X103517D02*
D03*
X109422D02*
D03*
X115328D02*
D03*
X121233D02*
D03*
X127139D02*
D03*
X133044D02*
D03*
X138950D02*
D03*
D55*
X35200Y621600D02*
D03*
M02*
