G04 Layer_Physical_Order=1*
G04 Layer_Color=255*
%FSLAX25Y25*%
%MOIN*%
G70*
G01*
G75*
%ADD10O,0.07874X0.01378*%
%ADD11R,0.03543X0.02756*%
%ADD12R,0.03543X0.03150*%
%ADD13O,0.08000X0.02400*%
%ADD14R,0.03150X0.03543*%
%ADD15O,0.01575X0.07087*%
%ADD16R,0.02756X0.03543*%
%ADD17R,0.03150X0.03543*%
%ADD18R,0.02165X0.02953*%
%ADD19O,0.08000X0.01600*%
%ADD20O,0.00984X0.05905*%
%ADD21O,0.05905X0.00984*%
%ADD22O,0.01181X0.09646*%
%ADD23O,0.09646X0.01181*%
%ADD24O,0.02165X0.07874*%
%ADD25O,0.01600X0.08000*%
%ADD26O,0.01378X0.07874*%
%ADD27R,0.04331X0.06693*%
%ADD28C,0.00800*%
%ADD29C,0.00591*%
%ADD30C,0.00689*%
%ADD31C,0.01000*%
%ADD32C,0.00787*%
%ADD33C,0.00492*%
%ADD34C,0.06299*%
%ADD35C,0.05905*%
%ADD36R,0.05905X0.05905*%
%ADD37R,0.05000X0.05000*%
%ADD38C,0.05000*%
%ADD39C,0.06000*%
%ADD40C,0.03300*%
%ADD41O,0.13780X0.03937*%
%ADD42O,0.03937X0.13780*%
%ADD43O,0.15748X0.04921*%
%ADD44C,0.12500*%
%ADD45R,0.06200X0.06200*%
%ADD46C,0.15000*%
%ADD47R,0.06000X0.06000*%
%ADD48C,0.08000*%
%ADD49C,0.04500*%
%ADD50C,0.09200*%
%ADD51C,0.07000*%
%ADD52C,0.06200*%
%ADD53C,0.06299*%
%ADD54C,0.03937*%
%ADD55R,0.06000X0.06000*%
%ADD56C,0.03000*%
D10*
X216835Y422087D02*
D03*
Y424646D02*
D03*
Y427205D02*
D03*
Y429764D02*
D03*
Y432323D02*
D03*
Y434882D02*
D03*
Y437441D02*
D03*
Y440000D02*
D03*
X194000Y422087D02*
D03*
Y424646D02*
D03*
Y427205D02*
D03*
Y429764D02*
D03*
Y432323D02*
D03*
Y434882D02*
D03*
Y437441D02*
D03*
Y440000D02*
D03*
X215817Y490643D02*
D03*
Y493202D02*
D03*
Y495761D02*
D03*
Y498320D02*
D03*
Y500880D02*
D03*
Y503439D02*
D03*
Y505998D02*
D03*
Y508557D02*
D03*
X192983Y490643D02*
D03*
Y493202D02*
D03*
Y495761D02*
D03*
Y498320D02*
D03*
Y500880D02*
D03*
Y503439D02*
D03*
Y505998D02*
D03*
Y508557D02*
D03*
X215817Y456043D02*
D03*
Y458602D02*
D03*
Y461161D02*
D03*
Y463720D02*
D03*
Y466280D02*
D03*
Y468839D02*
D03*
Y471398D02*
D03*
Y473957D02*
D03*
X192983Y456043D02*
D03*
Y458602D02*
D03*
Y461161D02*
D03*
Y463720D02*
D03*
Y466280D02*
D03*
Y468839D02*
D03*
Y471398D02*
D03*
Y473957D02*
D03*
D11*
X206600Y383647D02*
D03*
Y389553D02*
D03*
X206000Y350247D02*
D03*
Y356153D02*
D03*
X371400Y79294D02*
D03*
Y85200D02*
D03*
X392600Y78094D02*
D03*
Y84000D02*
D03*
X226600Y180753D02*
D03*
Y174847D02*
D03*
X236800Y180153D02*
D03*
Y174247D02*
D03*
X308600Y179153D02*
D03*
Y173247D02*
D03*
X326000Y77706D02*
D03*
Y71800D02*
D03*
X310400Y77506D02*
D03*
Y71600D02*
D03*
X318800Y77706D02*
D03*
Y71800D02*
D03*
X334000Y77506D02*
D03*
Y71600D02*
D03*
X276000Y173647D02*
D03*
Y179553D02*
D03*
X267800D02*
D03*
Y173647D02*
D03*
X260200Y179953D02*
D03*
Y174047D02*
D03*
X252800Y179953D02*
D03*
Y174047D02*
D03*
X245600Y174247D02*
D03*
Y180153D02*
D03*
X301600Y173494D02*
D03*
Y179400D02*
D03*
X284200Y173447D02*
D03*
Y179353D02*
D03*
X293200Y173447D02*
D03*
Y179353D02*
D03*
X316200Y173847D02*
D03*
Y179753D02*
D03*
D12*
X196400Y348156D02*
D03*
Y342644D02*
D03*
X206400Y341956D02*
D03*
Y336444D02*
D03*
X197600Y384356D02*
D03*
Y378844D02*
D03*
X206600Y378400D02*
D03*
Y372888D02*
D03*
X141600Y49844D02*
D03*
Y55356D02*
D03*
X153200Y48688D02*
D03*
Y54200D02*
D03*
X165600Y49044D02*
D03*
Y54556D02*
D03*
X177000Y49244D02*
D03*
Y54756D02*
D03*
X189000Y48044D02*
D03*
Y53556D02*
D03*
X535000Y52088D02*
D03*
Y57600D02*
D03*
X350700Y143544D02*
D03*
Y149056D02*
D03*
Y160356D02*
D03*
Y154844D02*
D03*
X198500Y298244D02*
D03*
Y303756D02*
D03*
X183500Y257000D02*
D03*
Y262512D02*
D03*
Y280256D02*
D03*
Y274744D02*
D03*
X198500Y289756D02*
D03*
Y284244D02*
D03*
D13*
X171800Y474200D02*
D03*
Y479200D02*
D03*
Y484200D02*
D03*
Y489200D02*
D03*
X133800Y444200D02*
D03*
Y449200D02*
D03*
X171800Y464200D02*
D03*
Y469200D02*
D03*
X133800Y454200D02*
D03*
X171800Y459200D02*
D03*
Y454200D02*
D03*
Y449200D02*
D03*
Y444200D02*
D03*
X133800Y459200D02*
D03*
Y464200D02*
D03*
Y469200D02*
D03*
Y474200D02*
D03*
Y479200D02*
D03*
Y484200D02*
D03*
Y489200D02*
D03*
D14*
X213000Y481200D02*
D03*
X207488D02*
D03*
X191844Y516400D02*
D03*
X197356D02*
D03*
X205200Y447400D02*
D03*
X210712D02*
D03*
X192044Y481000D02*
D03*
X197556D02*
D03*
X208556Y516400D02*
D03*
X203044D02*
D03*
X143756Y563000D02*
D03*
X138244D02*
D03*
X156644D02*
D03*
X162156D02*
D03*
X212744Y296000D02*
D03*
X218256D02*
D03*
X194200Y447400D02*
D03*
X199712D02*
D03*
X197444Y534400D02*
D03*
X202956D02*
D03*
X301800Y122600D02*
D03*
X307312D02*
D03*
D15*
X215113Y568000D02*
D03*
X212554D02*
D03*
X192082D02*
D03*
X215113Y544575D02*
D03*
X212554D02*
D03*
X209995D02*
D03*
X207436D02*
D03*
X194641Y568000D02*
D03*
X204877Y544575D02*
D03*
X202318D02*
D03*
X199759D02*
D03*
X197200D02*
D03*
X194641D02*
D03*
X192082D02*
D03*
X197200Y568000D02*
D03*
X199759D02*
D03*
X202318D02*
D03*
X204877D02*
D03*
X207436D02*
D03*
X209995D02*
D03*
D16*
X156247Y545200D02*
D03*
X162153D02*
D03*
X162306Y553800D02*
D03*
X156400D02*
D03*
X137647Y548800D02*
D03*
X143553D02*
D03*
X138047Y556600D02*
D03*
X143953D02*
D03*
Y571000D02*
D03*
X138047D02*
D03*
X162553Y571400D02*
D03*
X156647D02*
D03*
X170753Y202600D02*
D03*
X164847D02*
D03*
X170953Y212600D02*
D03*
X165047D02*
D03*
X99047Y263200D02*
D03*
X104953D02*
D03*
X106153Y291400D02*
D03*
X100247D02*
D03*
X108353Y207000D02*
D03*
X102447D02*
D03*
X108753Y151600D02*
D03*
X102847D02*
D03*
X108200Y239600D02*
D03*
X102294D02*
D03*
X109506Y182800D02*
D03*
X103600D02*
D03*
X101847Y93800D02*
D03*
X107753D02*
D03*
X107353Y127000D02*
D03*
X101447D02*
D03*
X223247Y109600D02*
D03*
X229153D02*
D03*
X222847Y101400D02*
D03*
X228753D02*
D03*
X222847Y119600D02*
D03*
X228753D02*
D03*
X223047Y127800D02*
D03*
X228953D02*
D03*
X222647Y137600D02*
D03*
X228553D02*
D03*
D17*
X26140Y438874D02*
D03*
X18660D02*
D03*
X22400Y431000D02*
D03*
D18*
X535032Y21454D02*
D03*
X537000Y15746D02*
D03*
X538969Y21454D02*
D03*
D19*
X487200Y195400D02*
D03*
Y197900D02*
D03*
Y200400D02*
D03*
Y202900D02*
D03*
Y205400D02*
D03*
Y207900D02*
D03*
Y210400D02*
D03*
Y212900D02*
D03*
Y215400D02*
D03*
Y217900D02*
D03*
Y220400D02*
D03*
Y222900D02*
D03*
Y225400D02*
D03*
Y227900D02*
D03*
Y230400D02*
D03*
Y232900D02*
D03*
Y235400D02*
D03*
Y237900D02*
D03*
Y240400D02*
D03*
Y242900D02*
D03*
Y245400D02*
D03*
Y247900D02*
D03*
Y250400D02*
D03*
X451200D02*
D03*
Y247900D02*
D03*
Y245400D02*
D03*
Y242900D02*
D03*
Y240400D02*
D03*
Y237900D02*
D03*
Y235400D02*
D03*
Y232900D02*
D03*
Y230400D02*
D03*
Y227900D02*
D03*
Y225400D02*
D03*
Y222900D02*
D03*
Y220400D02*
D03*
Y217900D02*
D03*
Y215400D02*
D03*
Y212900D02*
D03*
Y210400D02*
D03*
Y207900D02*
D03*
Y205400D02*
D03*
Y202900D02*
D03*
Y200400D02*
D03*
Y197900D02*
D03*
Y195400D02*
D03*
Y192900D02*
D03*
X487200D02*
D03*
X418500Y279500D02*
D03*
X382500D02*
D03*
Y282000D02*
D03*
Y284500D02*
D03*
Y287000D02*
D03*
Y289500D02*
D03*
Y292000D02*
D03*
Y294500D02*
D03*
Y297000D02*
D03*
Y299500D02*
D03*
Y302000D02*
D03*
Y304500D02*
D03*
Y307000D02*
D03*
Y309500D02*
D03*
Y312000D02*
D03*
Y314500D02*
D03*
Y317000D02*
D03*
Y319500D02*
D03*
Y322000D02*
D03*
Y324500D02*
D03*
Y327000D02*
D03*
Y329500D02*
D03*
Y332000D02*
D03*
Y334500D02*
D03*
Y337000D02*
D03*
X418500D02*
D03*
Y334500D02*
D03*
Y332000D02*
D03*
Y329500D02*
D03*
Y327000D02*
D03*
Y324500D02*
D03*
Y322000D02*
D03*
Y319500D02*
D03*
Y317000D02*
D03*
Y314500D02*
D03*
Y312000D02*
D03*
Y309500D02*
D03*
Y307000D02*
D03*
Y304500D02*
D03*
Y302000D02*
D03*
Y299500D02*
D03*
Y297000D02*
D03*
Y294500D02*
D03*
Y292000D02*
D03*
Y289500D02*
D03*
Y287000D02*
D03*
Y284500D02*
D03*
Y282000D02*
D03*
X419500Y382500D02*
D03*
X383500D02*
D03*
Y385000D02*
D03*
Y387500D02*
D03*
Y390000D02*
D03*
Y392500D02*
D03*
Y395000D02*
D03*
Y397500D02*
D03*
Y400000D02*
D03*
Y402500D02*
D03*
Y405000D02*
D03*
Y407500D02*
D03*
Y410000D02*
D03*
Y412500D02*
D03*
Y415000D02*
D03*
Y417500D02*
D03*
Y420000D02*
D03*
Y422500D02*
D03*
Y425000D02*
D03*
Y427500D02*
D03*
Y430000D02*
D03*
Y432500D02*
D03*
Y435000D02*
D03*
Y437500D02*
D03*
Y440000D02*
D03*
X419500D02*
D03*
Y437500D02*
D03*
Y435000D02*
D03*
Y432500D02*
D03*
Y430000D02*
D03*
Y427500D02*
D03*
Y425000D02*
D03*
Y422500D02*
D03*
Y420000D02*
D03*
Y417500D02*
D03*
Y415000D02*
D03*
Y412500D02*
D03*
Y410000D02*
D03*
Y407500D02*
D03*
Y405000D02*
D03*
Y402500D02*
D03*
Y400000D02*
D03*
Y397500D02*
D03*
Y395000D02*
D03*
Y392500D02*
D03*
Y390000D02*
D03*
Y387500D02*
D03*
Y385000D02*
D03*
X487200Y263300D02*
D03*
Y265800D02*
D03*
Y268300D02*
D03*
Y270800D02*
D03*
Y273300D02*
D03*
Y275800D02*
D03*
Y278300D02*
D03*
Y280800D02*
D03*
Y283300D02*
D03*
Y285800D02*
D03*
Y288300D02*
D03*
Y290800D02*
D03*
Y293300D02*
D03*
Y295800D02*
D03*
Y298300D02*
D03*
Y300800D02*
D03*
Y303300D02*
D03*
Y305800D02*
D03*
Y308300D02*
D03*
Y310800D02*
D03*
Y313300D02*
D03*
Y315800D02*
D03*
Y318300D02*
D03*
X451200D02*
D03*
Y315800D02*
D03*
Y313300D02*
D03*
Y310800D02*
D03*
Y308300D02*
D03*
Y305800D02*
D03*
Y303300D02*
D03*
Y300800D02*
D03*
Y298300D02*
D03*
Y295800D02*
D03*
Y293300D02*
D03*
Y290800D02*
D03*
Y288300D02*
D03*
Y285800D02*
D03*
Y283300D02*
D03*
Y280800D02*
D03*
Y278300D02*
D03*
Y275800D02*
D03*
Y273300D02*
D03*
Y270800D02*
D03*
Y268300D02*
D03*
Y265800D02*
D03*
Y263300D02*
D03*
Y260800D02*
D03*
X487200D02*
D03*
X406600Y458700D02*
D03*
Y461200D02*
D03*
Y463700D02*
D03*
Y466200D02*
D03*
Y468700D02*
D03*
Y471200D02*
D03*
Y473700D02*
D03*
Y476200D02*
D03*
Y478700D02*
D03*
Y481200D02*
D03*
Y483700D02*
D03*
Y486200D02*
D03*
Y488700D02*
D03*
Y491200D02*
D03*
Y493700D02*
D03*
Y496200D02*
D03*
Y498700D02*
D03*
Y501200D02*
D03*
Y503700D02*
D03*
Y506200D02*
D03*
Y508700D02*
D03*
Y511200D02*
D03*
Y513700D02*
D03*
X370600D02*
D03*
Y511200D02*
D03*
Y508700D02*
D03*
Y506200D02*
D03*
Y503700D02*
D03*
Y501200D02*
D03*
Y498700D02*
D03*
Y496200D02*
D03*
Y493700D02*
D03*
Y491200D02*
D03*
Y488700D02*
D03*
Y486200D02*
D03*
Y483700D02*
D03*
Y481200D02*
D03*
Y478700D02*
D03*
Y476200D02*
D03*
Y473700D02*
D03*
Y471200D02*
D03*
Y468700D02*
D03*
Y466200D02*
D03*
Y463700D02*
D03*
Y461200D02*
D03*
Y458700D02*
D03*
Y456200D02*
D03*
X406600D02*
D03*
D20*
X270294Y154600D02*
D03*
X268326D02*
D03*
X266357D02*
D03*
X264389D02*
D03*
X262420D02*
D03*
Y119167D02*
D03*
X272263Y154600D02*
D03*
X274231D02*
D03*
X276200D02*
D03*
X278168D02*
D03*
X280137D02*
D03*
X282105D02*
D03*
X284074D02*
D03*
Y119167D02*
D03*
X282105D02*
D03*
X280137D02*
D03*
X278168D02*
D03*
X276200D02*
D03*
X274231D02*
D03*
X272263D02*
D03*
X270294D02*
D03*
X268326D02*
D03*
X266357D02*
D03*
X264389D02*
D03*
D21*
X255531Y147710D02*
D03*
Y126057D02*
D03*
X290964Y145742D02*
D03*
Y147710D02*
D03*
Y143773D02*
D03*
Y141805D02*
D03*
Y139836D02*
D03*
Y137868D02*
D03*
Y135899D02*
D03*
Y133931D02*
D03*
Y131962D02*
D03*
Y129994D02*
D03*
Y128025D02*
D03*
Y126057D02*
D03*
X255531Y145742D02*
D03*
Y128025D02*
D03*
Y129994D02*
D03*
Y131962D02*
D03*
Y133931D02*
D03*
Y135899D02*
D03*
Y137868D02*
D03*
Y139836D02*
D03*
Y141805D02*
D03*
Y143773D02*
D03*
D22*
X241921Y249941D02*
D03*
X241921Y369823D02*
D03*
X300976Y249941D02*
D03*
X243890Y369823D02*
D03*
X245858D02*
D03*
X247827D02*
D03*
X249795D02*
D03*
X251764D02*
D03*
X253732D02*
D03*
X255701D02*
D03*
X257669D02*
D03*
X259638D02*
D03*
X261606D02*
D03*
X263575D02*
D03*
X265543D02*
D03*
X267512D02*
D03*
X269480D02*
D03*
X271449D02*
D03*
X273417D02*
D03*
X275386D02*
D03*
X277354D02*
D03*
X279323D02*
D03*
X281291D02*
D03*
X283260D02*
D03*
X285228D02*
D03*
X287197D02*
D03*
X289165D02*
D03*
X291134D02*
D03*
X293102D02*
D03*
X295071D02*
D03*
X297039D02*
D03*
X299008D02*
D03*
X300976D02*
D03*
X302945D02*
D03*
X304913D02*
D03*
X306882D02*
D03*
X308850D02*
D03*
X310819D02*
D03*
X312787D02*
D03*
X314756D02*
D03*
X316724D02*
D03*
X318693D02*
D03*
X320661D02*
D03*
X322630D02*
D03*
X324598D02*
D03*
X326567D02*
D03*
X328535D02*
D03*
X330504D02*
D03*
X332473D02*
D03*
X334441D02*
D03*
X336410D02*
D03*
X338378D02*
D03*
X340347D02*
D03*
X342315D02*
D03*
Y249941D02*
D03*
X340347D02*
D03*
X338378D02*
D03*
X336410D02*
D03*
X334441D02*
D03*
X332473D02*
D03*
X330504D02*
D03*
X328535D02*
D03*
X326567D02*
D03*
X324598D02*
D03*
X322630D02*
D03*
X320661D02*
D03*
X318693D02*
D03*
X316724D02*
D03*
X314756D02*
D03*
X312787D02*
D03*
X310819D02*
D03*
X308850D02*
D03*
X306882D02*
D03*
X304913D02*
D03*
X302945D02*
D03*
X299008D02*
D03*
X297039D02*
D03*
X295071D02*
D03*
X293102D02*
D03*
X291134D02*
D03*
X289165D02*
D03*
X287197D02*
D03*
X285228D02*
D03*
X283260D02*
D03*
X281291D02*
D03*
X279323D02*
D03*
X277354D02*
D03*
X275386D02*
D03*
X273417D02*
D03*
X271449D02*
D03*
X269480D02*
D03*
X267512D02*
D03*
X265543D02*
D03*
X263575D02*
D03*
X261606D02*
D03*
X259638D02*
D03*
X257669D02*
D03*
X255701D02*
D03*
X253732D02*
D03*
X251764D02*
D03*
X249795D02*
D03*
X247827D02*
D03*
X245858D02*
D03*
X243890D02*
D03*
D23*
X232177Y304961D02*
D03*
Y259685D02*
D03*
X352059D02*
D03*
Y289213D02*
D03*
Y283307D02*
D03*
X232177Y273465D02*
D03*
Y360079D02*
D03*
X352059D02*
D03*
Y358110D02*
D03*
Y356142D02*
D03*
Y354173D02*
D03*
Y352205D02*
D03*
Y350236D02*
D03*
Y348268D02*
D03*
Y346299D02*
D03*
Y344331D02*
D03*
Y342362D02*
D03*
Y340394D02*
D03*
Y338425D02*
D03*
Y336457D02*
D03*
Y334488D02*
D03*
Y332520D02*
D03*
Y330551D02*
D03*
Y328583D02*
D03*
Y326614D02*
D03*
Y324646D02*
D03*
Y322677D02*
D03*
Y320709D02*
D03*
Y318740D02*
D03*
Y316772D02*
D03*
Y314803D02*
D03*
Y312835D02*
D03*
Y310866D02*
D03*
Y308898D02*
D03*
Y306929D02*
D03*
Y304961D02*
D03*
Y302992D02*
D03*
Y301024D02*
D03*
Y299055D02*
D03*
Y297087D02*
D03*
Y295118D02*
D03*
Y293150D02*
D03*
Y291181D02*
D03*
Y287244D02*
D03*
Y285276D02*
D03*
Y281339D02*
D03*
Y279370D02*
D03*
Y277402D02*
D03*
Y275433D02*
D03*
Y273465D02*
D03*
Y271496D02*
D03*
Y269528D02*
D03*
Y267559D02*
D03*
Y265591D02*
D03*
Y263622D02*
D03*
Y261654D02*
D03*
X232177Y358110D02*
D03*
Y356142D02*
D03*
Y354173D02*
D03*
Y352205D02*
D03*
Y350236D02*
D03*
Y348268D02*
D03*
Y346299D02*
D03*
Y344331D02*
D03*
Y342362D02*
D03*
Y340394D02*
D03*
Y338425D02*
D03*
Y336457D02*
D03*
Y334488D02*
D03*
Y332520D02*
D03*
Y330551D02*
D03*
Y328583D02*
D03*
Y326614D02*
D03*
Y324646D02*
D03*
Y322677D02*
D03*
Y320709D02*
D03*
Y318740D02*
D03*
Y316772D02*
D03*
Y314803D02*
D03*
Y312835D02*
D03*
Y310866D02*
D03*
Y308898D02*
D03*
Y306929D02*
D03*
Y302992D02*
D03*
Y301024D02*
D03*
Y299055D02*
D03*
Y297087D02*
D03*
Y295118D02*
D03*
Y293150D02*
D03*
Y291181D02*
D03*
Y289213D02*
D03*
Y287244D02*
D03*
Y285276D02*
D03*
Y283307D02*
D03*
Y281339D02*
D03*
Y279370D02*
D03*
Y277402D02*
D03*
Y275433D02*
D03*
Y271496D02*
D03*
Y269528D02*
D03*
Y267559D02*
D03*
Y265591D02*
D03*
Y263622D02*
D03*
Y261654D02*
D03*
D24*
X400351Y594408D02*
D03*
X397202D02*
D03*
X394052D02*
D03*
X390902D02*
D03*
X387753D02*
D03*
X384603D02*
D03*
X381454D02*
D03*
X378304D02*
D03*
X444446D02*
D03*
Y545400D02*
D03*
X441296D02*
D03*
X438146D02*
D03*
X434997D02*
D03*
X403501Y594408D02*
D03*
X406650D02*
D03*
X409800D02*
D03*
X412950D02*
D03*
X416099D02*
D03*
X419249D02*
D03*
X422398D02*
D03*
X425548D02*
D03*
X428698D02*
D03*
X431847D02*
D03*
X434997D02*
D03*
X438146D02*
D03*
X441296D02*
D03*
X431847Y545400D02*
D03*
X428698D02*
D03*
X425548D02*
D03*
X422398D02*
D03*
X419249D02*
D03*
X416099D02*
D03*
X412950D02*
D03*
X409800D02*
D03*
X406650D02*
D03*
X403501D02*
D03*
X400351D02*
D03*
X397202D02*
D03*
X394052D02*
D03*
X390902D02*
D03*
X387753D02*
D03*
X384603D02*
D03*
X381454D02*
D03*
X378304D02*
D03*
D25*
X311500Y440500D02*
D03*
Y404500D02*
D03*
X309000D02*
D03*
X306500D02*
D03*
X304000D02*
D03*
X301500D02*
D03*
X299000D02*
D03*
X296500D02*
D03*
X294000D02*
D03*
X291500D02*
D03*
X289000D02*
D03*
X286500D02*
D03*
X284000D02*
D03*
X281500D02*
D03*
X279000D02*
D03*
X276500D02*
D03*
X274000D02*
D03*
X271500D02*
D03*
X269000D02*
D03*
X266500D02*
D03*
X264000D02*
D03*
X261500D02*
D03*
X259000D02*
D03*
X256500D02*
D03*
X254000D02*
D03*
Y440500D02*
D03*
X256500D02*
D03*
X259000D02*
D03*
X261500D02*
D03*
X264000D02*
D03*
X266500D02*
D03*
X269000D02*
D03*
X271500D02*
D03*
X274000D02*
D03*
X276500D02*
D03*
X279000D02*
D03*
X281500D02*
D03*
X284000D02*
D03*
X286500D02*
D03*
X289000D02*
D03*
X291500D02*
D03*
X294000D02*
D03*
X296500D02*
D03*
X299000D02*
D03*
X301500D02*
D03*
X304000D02*
D03*
X306500D02*
D03*
X309000D02*
D03*
D26*
X90757Y466817D02*
D03*
X88198D02*
D03*
X85639D02*
D03*
X83080D02*
D03*
X80520D02*
D03*
X77961D02*
D03*
X75402D02*
D03*
X72843D02*
D03*
X90757Y443983D02*
D03*
X88198D02*
D03*
X85639D02*
D03*
X83080D02*
D03*
X80520D02*
D03*
X77961D02*
D03*
X75402D02*
D03*
X72843D02*
D03*
X44443Y444183D02*
D03*
X47002D02*
D03*
X49561D02*
D03*
X52120D02*
D03*
X54680D02*
D03*
X57239D02*
D03*
X59798D02*
D03*
X62357D02*
D03*
X44443Y467017D02*
D03*
X47002D02*
D03*
X49561D02*
D03*
X52120D02*
D03*
X54680D02*
D03*
X57239D02*
D03*
X59798D02*
D03*
X62357D02*
D03*
D27*
X108315Y282800D02*
D03*
X97685D02*
D03*
X108315Y272600D02*
D03*
X97685D02*
D03*
X112115Y105400D02*
D03*
X101485D02*
D03*
X112115Y116000D02*
D03*
X101485D02*
D03*
X111315Y174400D02*
D03*
X100685D02*
D03*
X111115Y162400D02*
D03*
X100485D02*
D03*
X110715Y218400D02*
D03*
X100085D02*
D03*
X110715Y229600D02*
D03*
X100085D02*
D03*
X301085Y114800D02*
D03*
X311715D02*
D03*
D28*
X478900Y286800D02*
X479900Y285800D01*
X478500Y287200D02*
X478900Y286800D01*
X481400Y280800D02*
X481900D01*
X469200D02*
X481400D01*
X428300Y382500D02*
Y397500D01*
X429800Y341350D02*
X429900Y341450D01*
X429700Y341250D02*
X429800Y341350D01*
X490400Y253600D02*
Y260800D01*
X484000Y191700D02*
Y192900D01*
X421900Y319500D02*
Y319600D01*
X447400Y197600D02*
Y197900D01*
Y202900D02*
Y203000D01*
X376700Y292000D02*
X376800D01*
X372800D02*
X376700D01*
X396300Y260900D02*
Y270406D01*
X378895Y340100D02*
X384800D01*
X371200D02*
X378895D01*
X450600Y290200D02*
Y290800D01*
X291500Y395100D02*
Y395600D01*
Y393100D02*
Y395100D01*
X284000Y397000D02*
Y397100D01*
Y394155D02*
Y397000D01*
X424600Y418400D02*
Y432500D01*
X365600Y479500D02*
X366400Y478700D01*
X365100Y480000D02*
X365600Y479500D01*
Y462900D02*
X366400Y463700D01*
X365500Y462800D02*
X365600Y462900D01*
X378400Y384100D02*
Y389200D01*
Y383300D02*
Y384100D01*
X484069Y283300D02*
Y283900D01*
X481250Y268050D02*
X481500Y268300D01*
X478300Y265100D02*
X481250Y268050D01*
X440100Y304300D02*
X440600Y303800D01*
X445400Y227900D02*
X446100D01*
X440400D02*
X445400D01*
X373900Y287000D02*
X374300D01*
X369249D02*
X373900D01*
X251100Y401700D02*
X254000D01*
X404400Y513700D02*
Y528800D01*
X456300Y250400D02*
X460000D01*
X451200D02*
X456300D01*
X479900Y285800D02*
X482500D01*
X473500Y212600D02*
X480700Y205400D01*
X472300Y213800D02*
X473500Y212600D01*
X410400Y429800D02*
X413500Y426700D01*
X492300Y318000D02*
X493400Y316900D01*
X492000Y318300D02*
X492300Y318000D01*
Y318300D01*
Y303300D02*
Y318000D01*
X428300Y397500D02*
X428400D01*
X419500D02*
X428300D01*
X425925Y337475D02*
X429700Y341250D01*
X425450Y337000D02*
X425925Y337475D01*
X393400Y471200D02*
X399200D01*
X386900Y498700D02*
Y527600D01*
Y471200D02*
Y498700D01*
X387000D01*
X377800D02*
X386900D01*
X370600D02*
X377800D01*
X382661Y471200D02*
X386900D01*
X370600D02*
X382661D01*
X490400Y260800D02*
X492100D01*
X487200D02*
X490400D01*
X296500Y422000D02*
Y433315D01*
Y412100D02*
Y415100D01*
Y404500D02*
Y412100D01*
X362500Y282000D02*
X365300D01*
X376800Y292000D02*
X382500D01*
X397668Y312000D02*
X400500D01*
X382500D02*
X397668D01*
X389200Y335200D02*
Y344800D01*
X384800Y340100D02*
X385900D01*
X368100Y400000D02*
X383500D01*
X366100D02*
X368100D01*
X364000Y402200D02*
X379100D01*
X363200D02*
X364000D01*
X312800Y413400D02*
X318800D01*
X307200D02*
X312800D01*
X294000Y394400D02*
Y404500D01*
Y389296D02*
Y394400D01*
X284000Y397100D02*
Y404500D01*
X411800Y464800D02*
X414700Y467700D01*
X410700Y463700D02*
X411800Y464800D01*
X424600Y432500D02*
X425300D01*
X388900Y439200D02*
Y441600D01*
Y433400D02*
Y439200D01*
X473100Y310800D02*
X477300D01*
X415100Y404900D02*
X415200Y405000D01*
X414400Y404200D02*
X415100Y404900D01*
X415200Y390000D02*
X419500D01*
X409248D02*
X415200D01*
X409405Y329500D02*
X414400D01*
X412000Y314500D02*
X414400D01*
X366300Y491200D02*
X370600D01*
X365900D02*
X366300D01*
X383500Y443000D02*
Y452700D01*
Y440000D02*
Y443000D01*
X366000Y505800D02*
X366400Y506200D01*
X365500Y505300D02*
X366000Y505800D01*
X364800Y478700D02*
X366400D01*
Y463700D02*
X370600D01*
X364800D02*
X366400D01*
X379200Y382500D02*
X383500D01*
X378400D02*
X379200D01*
X378400Y337000D02*
X382500D01*
X367300D02*
X378400D01*
X378100Y314500D02*
X382500D01*
X375400D02*
X378100D01*
X478300Y295800D02*
X478900D01*
X446100Y309900D02*
Y310800D01*
Y296800D02*
Y309900D01*
Y227900D02*
X451200D01*
X410400Y302000D02*
X414400D01*
X378400D02*
X382500D01*
X377100D02*
X378400D01*
X261500Y449000D02*
Y452800D01*
Y440500D02*
Y449000D01*
X304000Y425000D02*
Y440500D01*
Y414100D02*
Y425000D01*
X289000Y436000D02*
Y440500D01*
Y421600D02*
Y436000D01*
Y408800D02*
Y413500D01*
X404400Y513700D02*
X406600D01*
X392800D02*
X404400D01*
X399300Y456200D02*
X402400D01*
X311500Y528800D02*
Y542900D01*
X463900Y254300D02*
Y305329D01*
X400800Y483700D02*
X406600D01*
X398100Y481100D02*
X402400D01*
X402500Y481200D01*
X406600D01*
X399200Y473700D02*
X406600D01*
X394500Y478400D02*
X399200Y473700D01*
X394500Y478400D02*
Y488100D01*
X397600Y464400D02*
X401900Y468700D01*
X406600D01*
X402100Y466200D02*
X406600D01*
X400300Y464400D02*
X402100Y466200D01*
X400300Y462800D02*
Y464400D01*
X406600Y458700D02*
X413500D01*
X440600Y260800D02*
X451200D01*
X438400Y312800D02*
X443900Y318300D01*
X451200D01*
X487200Y288300D02*
X492000D01*
X495500Y284800D01*
X487200Y220400D02*
X498400D01*
X501600Y223600D02*
Y253250D01*
X495500Y273100D02*
X496200Y273800D01*
X495500Y273100D02*
Y284800D01*
X472900Y287200D02*
X478500D01*
X492000Y217900D02*
X495900Y214000D01*
X487200Y217900D02*
X492000D01*
X482500Y285800D02*
X487200D01*
X480200Y287200D02*
X482500Y285800D01*
X480200Y287200D02*
Y288100D01*
X487200Y212900D02*
X492000D01*
X493900Y211000D01*
Y191700D02*
Y211000D01*
X481900Y280800D02*
X487200D01*
X481400Y281300D02*
X481900Y280800D01*
X472300Y213800D02*
Y270117D01*
X474583Y272400D01*
X480100D02*
X481000Y273300D01*
X481300Y275800D02*
X487200D01*
X479600Y274100D02*
X481300Y275800D01*
X471600Y274100D02*
X479600D01*
X479900Y298500D02*
X481600Y300200D01*
Y303300D01*
X487200D01*
X492000Y318300D02*
X492300D01*
X487200Y303300D02*
X492300D01*
X451200Y275800D02*
X455300D01*
X458500Y279000D01*
Y280315D01*
X456800Y303300D02*
X458500Y301600D01*
X428200Y294600D02*
X428300Y294500D01*
X418500D02*
X428100D01*
X438600Y235400D02*
X451200D01*
X408800Y379300D02*
X412000Y382500D01*
X419500D01*
X428100Y294500D02*
X428200Y294600D01*
X418500Y279500D02*
X431600D01*
X418500Y322000D02*
X426900D01*
X429700Y324800D01*
Y333700D01*
X425925Y337475D02*
X429700Y333700D01*
X418500Y337000D02*
X425925Y337475D01*
X418500Y337000D02*
X425450D01*
X382500Y322000D02*
X402100D01*
X370556D02*
X382500D01*
X374100Y294700D02*
X379100D01*
X382500Y294500D01*
X414800Y207900D02*
X451200D01*
X382500Y294500D02*
X387500D01*
X393900Y288100D01*
X269000Y394500D02*
Y404500D01*
X268950Y394450D02*
X269000Y394500D01*
Y433315D02*
Y440500D01*
X296500Y433315D02*
Y440500D01*
X390800Y427800D02*
Y439300D01*
X383500Y425000D02*
X388000D01*
X390800Y427800D01*
X415200Y425000D02*
X419500D01*
X413500Y426700D02*
X415200Y425000D01*
X413500Y426700D02*
Y440000D01*
X419500D01*
X413500Y282000D02*
X418500D01*
X412300Y280800D02*
X413500Y282000D01*
X412300Y279400D02*
Y280800D01*
X411700Y278800D02*
X412300Y279400D01*
X418500Y284500D02*
X427700D01*
X418500Y289500D02*
X432600D01*
X418500Y292000D02*
X430500D01*
X432100Y293600D02*
Y297200D01*
X425100Y297000D02*
X430550Y302450D01*
X418500Y297000D02*
X425100D01*
X418500Y299500D02*
X424562D01*
X431681Y306619D01*
X413600Y307000D02*
X418500D01*
X412300Y305700D02*
X413600Y307000D01*
X412300Y304600D02*
Y305700D01*
X418500Y312000D02*
X423900D01*
X424700Y311200D01*
X418500Y317000D02*
X424300D01*
X410005Y332000D02*
X418500D01*
X424600Y402500D02*
X431400Y409300D01*
X419500Y402500D02*
X424600D01*
X365100Y288200D02*
X366400Y289500D01*
X382500D01*
X447400Y202900D02*
X451200D01*
X389600Y203000D02*
X447400D01*
X396600Y275169D02*
Y292500D01*
X393600Y272169D02*
X396600Y275169D01*
X393600Y263700D02*
Y272169D01*
X392100Y247596D02*
X395500Y244196D01*
X426400Y212300D02*
X446700D01*
X451200Y212900D01*
X382500Y299500D02*
X389600D01*
X396600Y292500D01*
X392100Y262200D02*
X393600Y263700D01*
X392100Y247596D02*
Y262200D01*
X382500Y304500D02*
X388000D01*
X388900Y303600D01*
X442700Y217900D02*
X451200D01*
X396300Y270406D02*
X398300Y272406D01*
Y299000D01*
X443500Y220400D02*
X451200D01*
X443400Y220500D02*
X443500Y220400D01*
X422400Y220500D02*
X443400D01*
X390300Y307000D02*
X398300Y299000D01*
X382500Y307000D02*
X390300D01*
X382500Y309500D02*
X390855D01*
X400000Y300355D01*
X425800Y222900D02*
X451200D01*
X400000Y271000D02*
Y300355D01*
X433800Y225400D02*
X451200D01*
Y263300D02*
X454600D01*
X456300Y261600D01*
Y259900D02*
Y261600D01*
X454700Y258300D02*
X456300Y259900D01*
X419824Y258300D02*
X454700D01*
X382500Y317000D02*
X398018D01*
X372800Y319500D02*
X382500D01*
X369200Y318400D02*
X371700D01*
X417500Y265800D02*
X451200D01*
X382500Y319500D02*
X400400D01*
X457600Y270800D02*
X461200Y274400D01*
X451200Y270800D02*
X457600D01*
X386700Y332000D02*
X389200Y334500D01*
X382500Y332000D02*
X386700D01*
X389200Y334500D02*
Y335200D01*
X389900D01*
Y353800D01*
X440000Y274400D02*
X443900Y278300D01*
X451200D01*
X378895Y341500D02*
X384800D01*
Y340100D02*
Y341500D01*
X385900Y340100D02*
X387600Y338400D01*
X382500Y334500D02*
X387000D01*
X442300Y280800D02*
X451200D01*
X387600Y335100D02*
Y338400D01*
X387000Y334500D02*
X387600Y335100D01*
X445500Y293300D02*
X451200D01*
X445000Y292800D02*
X445500Y293300D01*
X377200Y410000D02*
X383500D01*
X306500Y435050D02*
X323150Y418400D01*
X306500Y435050D02*
Y440500D01*
X301500D02*
Y532900D01*
X281500Y440500D02*
Y511800D01*
X279000Y440500D02*
Y508000D01*
X274000Y428500D02*
Y440500D01*
X250746Y429015D02*
X272119D01*
X272400Y431600D01*
X271500Y440500D02*
X272400Y431600D01*
X252400Y435400D02*
X265600D01*
X266500Y436300D01*
Y440500D01*
X264000D02*
Y445400D01*
X268500Y449900D01*
X259000Y440500D02*
Y499700D01*
X309000Y404500D02*
Y410000D01*
X309300Y410300D01*
X370600Y461200D02*
X376500D01*
X376600Y461300D01*
X306500Y412700D02*
X307200Y413400D01*
X306500Y404500D02*
Y412700D01*
X370600Y466200D02*
X377300D01*
X379500Y464000D01*
X301500Y398700D02*
Y404500D01*
X351200Y468700D02*
X370600D01*
X346100Y471000D02*
X348900D01*
X299000Y401300D02*
Y404500D01*
X346100Y473700D02*
X370600D01*
X286500Y392400D02*
Y404500D01*
Y391611D02*
Y392400D01*
X370600Y481200D02*
X375800D01*
X376400Y480600D01*
X274000Y392121D02*
Y404500D01*
X372700Y306400D02*
X377100Y302000D01*
X364982Y306400D02*
X372700D01*
X362400Y285351D02*
X367600D01*
X414400Y287000D02*
X418500D01*
X409700Y282700D02*
X414400Y287000D01*
X382500Y279500D02*
X388500D01*
X304000Y400400D02*
Y404500D01*
X306300Y398100D02*
X309600D01*
X311500Y400000D02*
Y404500D01*
X265191Y452691D02*
X275909D01*
X276500Y440500D01*
X446100Y242900D02*
X451200D01*
X441400Y247600D02*
X446100Y242900D01*
X453600Y252500D02*
X457900Y256800D01*
Y266400D01*
X444500Y283300D02*
X451200D01*
X440600Y287200D02*
X444500Y283300D01*
X440600Y287200D02*
Y303800D01*
X446100Y296800D02*
X447100Y295800D01*
X441400Y247600D02*
X446100Y251400D01*
X447200Y252500D01*
X453600D01*
X456000Y268300D02*
X457900Y266400D01*
X451200Y268300D02*
X456000D01*
X435900Y232400D02*
Y242100D01*
X451200Y242900D01*
X481100Y268200D02*
X481500Y268300D01*
X476700Y283900D02*
X484069D01*
X481500Y215400D02*
X487200D01*
X481350Y226066D02*
X481500Y215400D01*
X481350Y226066D02*
X483184Y227900D01*
X487200D01*
X415100Y417500D02*
X419500D01*
X412800Y415200D02*
X415100Y417500D01*
X412800Y407200D02*
Y415200D01*
Y407200D02*
X415100Y404900D01*
X419500Y405000D01*
X383500Y390000D02*
X396700D01*
X388000Y432500D02*
X388900Y433400D01*
X388000Y417500D02*
X394500Y424000D01*
X365600Y513700D02*
X370600D01*
X364000Y512100D02*
X365600Y513700D01*
X364000Y507800D02*
Y512100D01*
Y507800D02*
X366000Y505800D01*
X365500Y505300D02*
X370600Y506200D01*
Y513700D02*
X375700D01*
X383200Y506200D01*
X398500Y491200D02*
X406600D01*
X399900Y506200D02*
X406600D01*
X419500Y392500D02*
X425700D01*
X373300Y418600D02*
X379400Y412500D01*
X383500D01*
X419500Y415000D02*
X423900D01*
X428000Y419100D01*
X414500Y420000D02*
X419500D01*
X412900Y421600D02*
X414500Y420000D01*
X412900Y421600D02*
Y422900D01*
X424600Y438400D02*
Y490200D01*
X419500Y437500D02*
X424600Y438400D01*
X379314Y430000D02*
X383500D01*
X350579Y458735D02*
X379314Y430000D01*
X378700Y437500D02*
X383500D01*
X358100Y458100D02*
X378700Y437500D01*
X397900Y454800D02*
X399300Y456200D01*
X390000Y454800D02*
X397900D01*
X311500Y440500D02*
Y528800D01*
X405600Y385000D02*
X419500D01*
X382500Y329500D02*
X398095D01*
X400500Y331905D02*
X407000D01*
X375625Y327000D02*
X382500D01*
X442700Y273300D02*
X451200D01*
X450600Y290800D02*
X451200D01*
X443200Y290200D02*
X450600D01*
X442300Y291100D02*
X443200Y290200D01*
X383500Y407500D02*
X396400D01*
X446100Y288300D02*
X451200D01*
X445400Y287600D02*
X446100Y288300D01*
X379400Y402500D02*
X383500D01*
Y387500D02*
X396000D01*
X365100Y490400D02*
X365900Y491200D01*
X365100Y480000D02*
Y490400D01*
X366400Y478700D02*
X370600D01*
X419500Y417500D02*
X423700D01*
X424600Y418400D01*
X419500Y432500D02*
X424600D01*
X377400Y279500D02*
X382500D01*
X374300Y276400D02*
X377400Y279500D01*
X374300Y287000D02*
X382500D01*
X259000Y393100D02*
Y404500D01*
X258700Y381700D02*
Y392800D01*
X370600Y458700D02*
X381246D01*
X284000Y440500D02*
Y536678D01*
X364100Y366500D02*
Y396000D01*
X456500Y285800D02*
X461200Y290500D01*
X451200Y285800D02*
X456500D01*
X425500Y304500D02*
X427400Y306400D01*
X418500Y304500D02*
X425500D01*
X480800Y207900D02*
X487200D01*
X478400Y210300D02*
X480800Y207900D01*
X478400Y232400D02*
X481400Y235400D01*
X480700Y205400D02*
X487200D01*
X474583Y272400D02*
X480100D01*
X481000Y273300D02*
X487200D01*
X451200Y318300D02*
X471000D01*
X382500Y324500D02*
X387700D01*
X388600Y325400D01*
X408800Y311300D02*
X412000Y314500D01*
X411500Y309500D02*
X418500D01*
Y319500D02*
X421900D01*
Y319600D02*
X429200D01*
X423200Y327000D02*
X427000Y330800D01*
X418500Y327000D02*
X423200D01*
X477800Y202900D02*
X487200D01*
X480000Y270800D02*
X487200D01*
X476600Y267400D02*
X480000Y270800D01*
X481900Y200400D02*
X487200D01*
X370600Y476200D02*
X375100D01*
X376700Y474600D01*
X291500Y395600D02*
Y404500D01*
X366900Y315844D02*
X372500D01*
X373656Y317000D02*
X382500D01*
X418500Y324500D02*
X425300D01*
X425400Y324600D01*
X484000Y192900D02*
X487200D01*
X473100Y191700D02*
X484000D01*
X482000Y210400D02*
X487200D01*
X481100Y211300D02*
X482000Y210400D01*
X478600Y278300D02*
X487200D01*
X376659Y435000D02*
X383500D01*
X355400Y456259D02*
X376659Y435000D01*
X481400Y250400D02*
X487200D01*
X481400Y235400D02*
X487200D01*
Y225400D02*
X492000D01*
X495500Y228900D01*
Y264900D01*
X487200Y293300D02*
X498400D01*
X480600Y195400D02*
X487200D01*
X479700Y194500D02*
X480600Y195400D01*
X484300Y257800D02*
X485230D01*
X482100Y260000D02*
Y262400D01*
X483000Y263300D01*
X487200D01*
X482100Y260000D02*
X484300Y257800D01*
X480600Y264000D02*
X482400Y265800D01*
X445400Y200400D02*
X451200D01*
X387500Y284500D02*
X391200Y280800D01*
X447400Y197900D02*
X451200D01*
X402300Y197600D02*
X447400D01*
X382500Y284500D02*
X387500D01*
X377000Y405000D02*
X383500D01*
Y417500D02*
X388000D01*
X286500Y440500D02*
Y535000D01*
X309000Y435400D02*
Y440500D01*
Y435400D02*
X313400D01*
Y522500D01*
X404300Y195400D02*
X451200D01*
X394050Y194800D02*
X403700D01*
X365300Y282000D02*
X382500D01*
X427400Y414700D02*
X429700Y417000D01*
X427400Y410100D02*
Y414700D01*
X424800Y407500D02*
X427400Y410100D01*
X419500Y407500D02*
X424800D01*
X419500Y400000D02*
X425800D01*
X433100Y407300D01*
X411700Y461200D02*
X419400Y468900D01*
X406600Y461200D02*
X411700D01*
X254000Y440500D02*
Y536700D01*
X258400Y541100D02*
Y565300D01*
X256500Y440500D02*
Y534800D01*
X376700Y292100D02*
X376800Y292000D01*
X404000Y205400D02*
X451200D01*
X378400Y297000D02*
X382500D01*
X375400Y300000D02*
X378400Y297000D01*
X365300Y300000D02*
X375400D01*
X416400Y210400D02*
X451200D01*
X482500Y290800D02*
X487200D01*
X481000Y292300D02*
X482500Y290800D01*
X369798Y308898D02*
X375400Y314500D01*
X413400Y338900D02*
X434997Y360497D01*
X413400Y335500D02*
Y338900D01*
Y335500D02*
X414400Y334500D01*
X418500D01*
X388300Y385000D02*
X389900Y383400D01*
X410700Y478700D02*
X411800Y477600D01*
Y464800D02*
Y477600D01*
X406600Y463700D02*
X410700D01*
X309600Y398100D02*
X311500Y400000D01*
X304000Y400400D02*
X306300Y398100D01*
X451200Y303300D02*
X456800D01*
X458500Y293400D02*
Y301600D01*
X493400Y300200D02*
Y316900D01*
X487200Y318300D02*
X492000D01*
X377200Y303200D02*
X378400Y302000D01*
X377200Y303200D02*
Y313600D01*
X378100Y314500D01*
X379400Y427500D02*
X383500D01*
X350100Y456800D02*
X379400Y427500D01*
X360171Y428371D02*
X376408D01*
X378400Y426379D01*
Y423300D02*
Y426379D01*
Y423300D02*
X379200Y422500D01*
X383500D01*
X375412Y426771D02*
X376600Y425583D01*
Y421600D02*
Y425583D01*
Y421600D02*
X378200Y420000D01*
X383500D01*
X375000Y419300D02*
X379300Y415000D01*
X383500D01*
X372800Y392500D02*
X383500D01*
Y385000D02*
X388300D01*
X397900Y451700D02*
X402400Y456200D01*
X406600D01*
X376800Y404800D02*
X377000Y405000D01*
X376800Y384100D02*
X378400Y382500D01*
X254000Y401700D02*
Y404500D01*
X298800Y401100D02*
X299000Y401300D01*
X298800Y395200D02*
Y401100D01*
X283900Y397000D02*
X284000Y397100D01*
X378400Y483700D02*
X380200Y481900D01*
X370600Y483700D02*
X378400D01*
X254000Y404500D02*
Y408700D01*
X257300Y412000D01*
X258300D01*
X261500Y408800D01*
X281181Y393740D02*
Y397781D01*
X281500Y398100D01*
Y404500D01*
X291500Y440500D02*
Y544700D01*
X299000Y440500D02*
Y537600D01*
X271500Y392877D02*
Y404500D01*
X256500Y381006D02*
Y404500D01*
X279000Y394140D02*
Y404500D01*
X270626Y447226D02*
X271193D01*
X269000Y445600D02*
X270626Y447226D01*
X269000Y440500D02*
Y445600D01*
X264000Y387843D02*
Y404500D01*
X477300Y296800D02*
Y310800D01*
X487200D01*
X451200D02*
X461200D01*
X378800Y407500D02*
X383500D01*
X378700Y407400D02*
X378800Y407500D01*
X364000Y407400D02*
X378700D01*
X366400Y456200D02*
X370600D01*
X365500Y457100D02*
X366400Y456200D01*
X365500Y457100D02*
Y462800D01*
X379200Y390000D02*
X383500D01*
X378400Y389200D02*
X379200Y390000D01*
X378400Y383300D02*
X379200Y382500D01*
X393700Y498700D02*
X406600D01*
X399200Y471200D02*
X406600D01*
X394400Y466400D02*
X399200Y471200D01*
X394400Y459100D02*
Y466400D01*
X383500Y397500D02*
X397200D01*
X379100Y402200D02*
X379400Y402500D01*
X407900Y387500D02*
X419500D01*
X370600Y456200D02*
X380000D01*
X377800Y498700D02*
X382900Y493600D01*
X294000Y440500D02*
Y495200D01*
X484069Y283300D02*
X487200D01*
X478900Y295800D02*
X487200D01*
X383500Y432500D02*
X388000D01*
X388100Y440000D02*
X388900Y439200D01*
X383500Y440000D02*
X388100D01*
X406600Y491200D02*
X410900D01*
X411700Y490400D01*
Y479700D02*
Y490400D01*
X410700Y478700D02*
X411700Y479700D01*
X406600Y478700D02*
X410700D01*
X445900Y215400D02*
X451200D01*
X445400Y214900D02*
X445900Y215400D01*
X401000Y476200D02*
X406600D01*
X400800Y476400D02*
X401000Y476200D01*
X481400Y199900D02*
X481900Y200400D01*
X481350Y215250D02*
X481500Y215400D01*
X445400Y228600D02*
X446100Y227900D01*
X304000Y404500D02*
Y414100D01*
X419500Y382500D02*
X428300D01*
X447100Y295800D02*
X451200D01*
X446100Y310800D02*
X451200D01*
X406600Y498700D02*
X411300D01*
X412600Y500000D01*
Y514200D01*
X387000Y498700D02*
Y527200D01*
X276500Y404500D02*
Y408800D01*
X278200Y410500D01*
X287300D01*
X289000Y408800D01*
Y404500D02*
Y408800D01*
X276500Y436000D02*
Y440500D01*
Y436000D02*
X278100Y434400D01*
X287400D01*
X289000Y436000D01*
X413400Y288000D02*
X414400Y287000D01*
X413400Y288000D02*
Y301000D01*
X414400Y302000D01*
X418500D01*
X482400Y265800D02*
X487200D01*
X480600Y256900D02*
Y264000D01*
X478800Y197300D02*
X483400D01*
X484000Y197900D01*
X487200D01*
X481500Y268300D02*
X487200D01*
X478300Y247000D02*
X482400Y242900D01*
X487200D01*
X266500Y395868D02*
Y404500D01*
X266132Y388980D02*
Y395500D01*
X492100Y260800D02*
X492900Y261600D01*
Y274900D01*
X492000Y275800D02*
X492900Y274900D01*
X487200Y275800D02*
X492000D01*
X275700Y409600D02*
X276500Y408800D01*
X262300Y409600D02*
X275700D01*
X261500Y408800D02*
X262300Y409600D01*
X261500Y404500D02*
Y408800D01*
X487200Y242900D02*
X492300D01*
Y228800D02*
Y242900D01*
X491400Y227900D02*
X492300Y228800D01*
X487200Y227900D02*
X491400D01*
X487200Y250400D02*
X490400Y253600D01*
X487200Y222900D02*
X495200D01*
X498400Y226100D01*
X495200Y290800D02*
X498400Y287600D01*
X487200Y290800D02*
X495200D01*
X451200Y192900D02*
X456800D01*
X457900Y194000D01*
Y248800D01*
X456300Y250400D02*
X457900Y248800D01*
X451200Y235400D02*
X455300D01*
X456300Y234400D01*
Y208800D02*
Y234400D01*
X455400Y207900D02*
X456300Y208800D01*
X451200Y207900D02*
X455400D01*
X487200Y192900D02*
X492400D01*
Y207900D01*
X487200D02*
X492400D01*
X414400Y390800D02*
X415200Y390000D01*
X414400Y390800D02*
Y404200D01*
X415200Y405000D02*
X419500D01*
X365500Y492000D02*
X366300Y491200D01*
X365500Y492000D02*
Y505300D01*
X366400Y506200D02*
X370600D01*
X414400Y314500D02*
X418500D01*
X413400Y315500D02*
X414400Y314500D01*
X413400Y315500D02*
Y328500D01*
X414400Y329500D01*
X418500D01*
X378300D02*
X382500D01*
X377400Y330400D02*
X378300Y329500D01*
X377400Y330400D02*
Y336000D01*
X378400Y337000D01*
D29*
X360075Y352967D02*
X366550Y358050D01*
X359105Y352205D02*
X360075Y352967D01*
X237995Y289400D02*
Y297087D01*
Y289213D02*
Y289400D01*
X343500Y340394D02*
X343894D01*
X342294D02*
X343500D01*
X259638Y365195D02*
X259895D01*
X356700Y334488D02*
Y334700D01*
X238774Y301818D02*
X241295Y299297D01*
X237600Y302992D02*
X238774Y301818D01*
X346200Y343700D02*
Y344900D01*
Y343200D02*
Y343700D01*
X347800Y273465D02*
Y274400D01*
X356811Y255278D02*
Y259685D01*
X345661Y281339D02*
X352059D01*
X335761D02*
X345661D01*
X259638Y262238D02*
Y262400D01*
Y249941D02*
Y262238D01*
X237995Y289213D02*
X238613D01*
X346400Y306929D02*
X352059D01*
X344971D02*
X346400D01*
X341034Y310866D02*
X346400D01*
X341034D02*
X344971Y306929D01*
X340600Y311300D02*
X341034Y310866D01*
X291134Y364800D02*
Y369823D01*
Y359134D02*
Y364800D01*
X324405Y360305D02*
X328535Y364435D01*
X319100Y355000D02*
X324405Y360305D01*
X318500Y260700D02*
X320661Y258539D01*
X313500Y265700D02*
X318500Y260700D01*
X285228Y257616D02*
Y261844D01*
X240607Y283307D02*
X244193D01*
X232177D02*
X240607D01*
X247827Y249941D02*
Y262873D01*
X237600Y302992D02*
X238452D01*
X357900Y308898D02*
X369798D01*
X346200Y344900D02*
Y353173D01*
X277100Y351935D02*
X284365Y359200D01*
X279323Y360523D02*
Y360800D01*
X261606Y257000D02*
Y258606D01*
Y249941D02*
Y257000D01*
X238000Y346299D02*
X244100D01*
X241239Y278300D02*
X250839Y268700D01*
X330970Y279370D02*
X332330D01*
X340799Y293150D02*
X352059D01*
X281291Y363609D02*
Y369823D01*
Y363609D02*
X281900Y363000D01*
X320661Y249941D02*
Y258539D01*
X240607Y283307D02*
X244500Y287200D01*
X243366Y310866D02*
X243500Y311000D01*
X232177Y310866D02*
X243366D01*
X259638Y365195D02*
Y369823D01*
X259895Y358195D02*
Y365195D01*
X232177Y348268D02*
X248432D01*
X221805Y350295D02*
X223832Y348268D01*
X232177D01*
X347200Y314803D02*
X352059D01*
X337103Y324900D02*
X347200Y314803D01*
Y318740D02*
X352059D01*
X345000Y320940D02*
X347200Y318740D01*
X345000Y320940D02*
Y322100D01*
X352059Y322677D02*
X361961D01*
X341600Y324646D02*
X352059D01*
X345100Y327400D02*
X345886Y326614D01*
X352059D01*
Y328583D02*
X359100D01*
X359261Y325600D01*
X357849Y330551D02*
X359449Y332151D01*
X352059Y330551D02*
X357849D01*
X345796Y332520D02*
X352059D01*
X345280Y333035D02*
X345796Y332520D01*
X352059Y338425D02*
X363250D01*
X352059Y346299D02*
X360700D01*
X352059Y348268D02*
X358168D01*
X358700Y348800D01*
X362900D01*
X352059Y350236D02*
X360836D01*
X368905Y350900D01*
X299008Y374708D02*
X311200Y386900D01*
X299008Y369823D02*
Y374708D01*
X295071Y369823D02*
Y381629D01*
X287197Y369823D02*
Y382493D01*
X283260Y369823D02*
Y388371D01*
X277354Y369823D02*
Y387509D01*
X271449Y369823D02*
Y389570D01*
X249795Y228995D02*
Y249941D01*
X287197D02*
Y259797D01*
X347200Y283307D02*
X352059D01*
X346200Y284307D02*
X347200Y283307D01*
X336300Y295000D02*
X346200Y284307D01*
X336800Y321600D02*
X345565Y312835D01*
X352059D01*
X336829Y349744D02*
X340500Y353415D01*
Y360800D02*
X354400Y374700D01*
X351200Y400400D02*
X354400Y397200D01*
X348456Y400400D02*
X351200D01*
X326567Y369823D02*
Y378511D01*
X348456Y400400D01*
X354400Y374700D02*
Y397200D01*
X340500Y353415D02*
Y360800D01*
X324598Y369823D02*
Y379687D01*
X213869Y338425D02*
X232177D01*
Y334488D02*
X251500D01*
X215578Y310400D02*
X224954Y301024D01*
X232177D01*
X214790Y289494D02*
X224494D01*
X226181Y291181D01*
X232177D01*
X220300Y283500D02*
X224044Y287244D01*
X232177D01*
X344700Y269100D02*
X345128Y269528D01*
X352059D01*
X346200Y258600D02*
X353894Y250906D01*
X346200Y258600D02*
Y261254D01*
X352059Y261654D01*
Y267559D02*
X357900D01*
Y265222D02*
Y267559D01*
Y265222D02*
X385200Y237922D01*
X232177Y360079D02*
Y361023D01*
X229400Y363800D02*
X232177Y361023D01*
X206303Y271496D02*
X232177D01*
X210155Y269528D02*
X232177D01*
Y273465D02*
X238165D01*
X239200Y274500D01*
X219200Y280800D02*
X222598Y277402D01*
X232177D01*
X225041Y266600D02*
X226000Y267559D01*
X232177D01*
X227200Y354173D02*
X232177D01*
X225068Y356305D02*
X227200Y354173D01*
X225068Y356305D02*
Y402568D01*
X232177Y350236D02*
X237600D01*
X239870Y352506D01*
Y361330D01*
X226905Y361700D02*
Y399805D01*
X226359Y361154D02*
X226905Y361700D01*
X226359Y358951D02*
Y361154D01*
Y358951D02*
X227200Y358110D01*
X232177D01*
X277300Y241000D02*
X277354Y241054D01*
Y249941D01*
X334441Y214241D02*
Y249941D01*
X241921Y242242D02*
Y249941D01*
X239600Y239921D02*
X241921Y242242D01*
X255701Y234900D02*
Y249941D01*
X328535Y239035D02*
Y249941D01*
X330504Y234404D02*
Y249941D01*
X307000Y176500D02*
X336110D01*
X336410Y249941D01*
X332473Y217150D02*
Y249941D01*
X251764Y230336D02*
Y249941D01*
X318693Y244593D02*
Y249941D01*
X316100Y242000D02*
X318693Y244593D01*
X308300Y242000D02*
X316100D01*
X324598Y239800D02*
Y249941D01*
X239200Y267200D02*
Y268800D01*
X237591Y265591D02*
X239200Y267200D01*
X232177Y265591D02*
X237591D01*
X300976Y243376D02*
Y249941D01*
X300900Y243300D02*
X300976Y243376D01*
X299008Y249941D02*
Y255208D01*
X301600Y257800D01*
X308700D01*
X295071Y249941D02*
Y271200D01*
X297039Y249941D02*
Y293361D01*
X238435Y312835D02*
X239200Y313600D01*
X232177Y312835D02*
X238435D01*
X275386Y259286D02*
X277600Y261500D01*
X275386Y249941D02*
Y259286D01*
X314700Y362856D02*
X314756Y362912D01*
Y369823D01*
X278000Y359200D02*
X279323Y360523D01*
X347038Y342362D02*
X352059D01*
X346200Y343200D02*
X347038Y342362D01*
X258700Y381700D02*
X263575Y376825D01*
Y369823D02*
Y376825D01*
X232177Y289213D02*
X237995D01*
X232177Y297087D02*
X237995D01*
X359231Y343800D02*
X371800D01*
X358700Y344331D02*
X359231Y343800D01*
X352059Y344331D02*
X358700D01*
X332330Y279370D02*
X352059D01*
X216167Y275433D02*
X232177D01*
X261606Y258606D02*
X266400Y263400D01*
X261606Y257000D02*
X268000Y263394D01*
X249795Y249941D02*
Y264395D01*
X352059Y334488D02*
X356700D01*
Y334700D02*
X361100D01*
X364700Y331100D01*
X212346Y336457D02*
X232177D01*
Y285276D02*
X239771D01*
X241295Y286800D01*
Y299297D01*
X232177Y302992D02*
X237600D01*
X238613Y289213D02*
X238800Y289400D01*
X347800Y273465D02*
X352059D01*
X345531Y276669D02*
X347800Y274400D01*
X332744Y276669D02*
X345531D01*
X344700Y273100D02*
X346304Y271496D01*
X352059D01*
Y316772D02*
X358128D01*
X360869Y314031D01*
Y311969D02*
Y314031D01*
X343100Y265100D02*
X343591Y265591D01*
X352059D01*
X358859Y258244D02*
X383500Y233603D01*
X358859Y258244D02*
Y262363D01*
X357600Y263622D02*
X358859Y262363D01*
X352059Y263622D02*
X357600D01*
X208168Y263622D02*
X232177D01*
X222585Y259685D02*
X232177D01*
X206000Y243100D02*
X222585Y259685D01*
X209054Y261654D02*
X232177D01*
X253732Y249941D02*
Y256900D01*
X279800Y239000D02*
Y244300D01*
X279323Y244777D02*
X279800Y244300D01*
X279323Y244777D02*
Y249941D01*
X322630Y241330D02*
Y249941D01*
X319200Y237900D02*
X322630Y241330D01*
X287197Y244403D02*
X293700Y237900D01*
X287197Y244403D02*
Y249941D01*
X358291Y320709D02*
X359100Y319900D01*
X352059Y320709D02*
X358291D01*
X285228Y249941D02*
Y257616D01*
X277600Y265244D02*
X285228Y257616D01*
X346400Y310866D02*
X352059D01*
X345600Y310066D02*
X346400Y310866D01*
X345600Y307729D02*
Y310066D01*
Y307729D02*
X346400Y306929D01*
X356811Y255278D02*
X381750Y230339D01*
X352059Y259685D02*
X356811D01*
X322630Y249941D02*
Y270500D01*
X352059Y312835D02*
X357065D01*
X357900Y312000D01*
Y308898D02*
Y312000D01*
X352059Y308898D02*
X357900D01*
X352059Y352205D02*
X359105D01*
X359983Y353083D01*
X342400Y284600D02*
X345661Y281339D01*
X316200Y377400D02*
X316724Y376876D01*
Y369823D02*
Y376876D01*
X352059Y283307D02*
X357223D01*
X358130Y282400D01*
Y278400D02*
Y282400D01*
X357132Y277402D02*
X358130Y278400D01*
X352059Y277402D02*
X357132D01*
X225250Y293150D02*
X232177D01*
X223217Y291117D02*
X225250Y293150D01*
X212865Y291117D02*
X223217D01*
X279323Y360800D02*
Y369823D01*
Y360800D02*
X280923Y359200D01*
X284365D02*
X289165Y364000D01*
Y369823D01*
X328535Y364435D02*
Y369823D01*
X295629Y360305D02*
X324405D01*
X291134Y364800D02*
X295629Y360305D01*
X232177Y324646D02*
X240154D01*
X244900Y319900D01*
X223505Y354512D02*
Y404505D01*
Y354512D02*
X225812Y352205D01*
X232177D01*
X229460Y369340D02*
X238000Y360800D01*
Y356142D02*
Y360800D01*
X232177Y356142D02*
X238000D01*
X218900Y348000D02*
X222569Y344331D01*
X232177D01*
X218000Y342362D02*
X232177D01*
X216506Y340394D02*
X232177D01*
X318693Y369823D02*
Y375114D01*
X318806Y375227D01*
Y384273D01*
X320661Y369823D02*
Y382200D01*
X322630Y369823D02*
Y380187D01*
X312787Y369823D02*
Y383687D01*
X214464Y314289D02*
X223792Y304961D01*
X232177D01*
X257400Y362700D02*
X257669Y362969D01*
Y369823D01*
X290500Y378807D02*
Y383200D01*
Y378807D02*
X293102Y376205D01*
Y369823D02*
Y376205D01*
X297039Y369823D02*
Y377639D01*
X300100Y380700D01*
X275386Y369823D02*
Y387945D01*
X269480Y369823D02*
Y390857D01*
X256500Y381006D02*
X261606Y375900D01*
Y369823D02*
Y375900D01*
X273417Y369823D02*
Y388558D01*
X232177Y281339D02*
X238200D01*
X241239Y278300D01*
X245600D01*
X240402Y308898D02*
X248921Y300379D01*
X232177Y308898D02*
X240402D01*
X238000Y346299D02*
X246644Y337655D01*
X232177Y346299D02*
X238000D01*
X265543Y369823D02*
Y386300D01*
X356109Y367809D02*
X359300Y371000D01*
X356109Y361669D02*
Y367809D01*
Y361669D02*
X357700Y360079D01*
X352059D02*
X357700D01*
X243890Y224582D02*
Y249941D01*
X285228Y369823D02*
Y386828D01*
X358802Y356142D02*
X363900Y361239D01*
X352059Y356142D02*
X358802D01*
X235700Y255800D02*
X245858D01*
Y249941D02*
Y255800D01*
X352059Y358110D02*
X357600D01*
X361595Y362106D01*
Y399795D01*
X343894Y340394D02*
X352059D01*
X343500Y340000D02*
X343894Y340394D01*
X347200Y354173D02*
X352059D01*
X346200Y353173D02*
X347200Y354173D01*
X345000Y343700D02*
X346200Y344900D01*
X352059Y342362D02*
X357554D01*
X357658Y342258D01*
X362042D01*
X237600Y322677D02*
X243077Y317200D01*
X232177Y322677D02*
X237600D01*
X223200Y324646D02*
X232177D01*
X221500Y322946D02*
X223200Y324646D01*
X222187Y297087D02*
X232177D01*
X238203Y306929D02*
X238977Y306156D01*
X232177Y306929D02*
X238203D01*
X222020Y293000D02*
X224139Y295118D01*
X232177D01*
X213494Y308700D02*
X223139Y299055D01*
X232177D01*
X238452Y302992D02*
X239200Y302244D01*
X225976Y285276D02*
X232177D01*
X225444Y284744D02*
X225976Y285276D01*
X267512Y369823D02*
Y387600D01*
X226400Y322677D02*
X232177D01*
X224800Y321077D02*
X226400Y322677D01*
X224800Y310498D02*
Y321077D01*
Y310498D02*
X226400Y308898D01*
X232177D01*
D30*
X220100Y440000D02*
Y447200D01*
X213000Y473957D02*
Y481200D01*
X194200Y440000D02*
Y447400D01*
X44443Y458400D02*
Y458443D01*
Y457743D02*
Y458400D01*
X187900Y422087D02*
X187913D01*
X187887D02*
X187900D01*
X62357Y442500D02*
X66000D01*
X62357Y441000D02*
X65800D01*
X187900Y422100D02*
X187913Y422087D01*
X212000D02*
X216835D01*
X206800Y440000D02*
X216835D01*
X66400Y436900D02*
X69900Y440400D01*
X46643Y451000D02*
X66800D01*
X44443Y448800D02*
X46643Y451000D01*
X209443Y456043D02*
X210800D01*
X75402Y471200D02*
Y496702D01*
X90757Y450559D02*
Y457400D01*
X47002Y462998D02*
Y467017D01*
Y456859D02*
Y462998D01*
X44443Y448800D02*
Y454300D01*
Y444183D02*
Y448800D01*
X66400Y436900D02*
X69800D01*
X61600D02*
X66400D01*
X210800Y505998D02*
X215817D01*
X192983D02*
X210800D01*
X196159Y437441D02*
X212000D01*
X185346Y424646D02*
X194000D01*
X181600D02*
X185346D01*
X181600Y487400D02*
X185608D01*
X180936D02*
X181600D01*
X62357Y442500D02*
Y444183D01*
Y441000D02*
Y442500D01*
X205200Y451800D02*
X209443Y456043D01*
X192044Y474895D02*
Y481000D01*
Y474895D02*
X192983Y473957D01*
Y458602D02*
X205502D01*
X219034Y511773D02*
X232077D01*
X215817Y508557D02*
X219034Y511773D01*
X88198Y448000D02*
X90757Y450559D01*
X88198Y443983D02*
Y448000D01*
X90757Y457400D02*
Y466817D01*
X186500Y437441D02*
X194000D01*
X184000Y439941D02*
X186500Y437441D01*
X181198Y489200D02*
X185200Y493202D01*
X187913Y422087D02*
X194000D01*
X72843Y460543D02*
Y466817D01*
X66000Y453700D02*
X72843Y460543D01*
X33400Y480100D02*
X56800D01*
X57239Y467017D01*
X47002Y431002D02*
Y444183D01*
X88198Y466817D02*
Y471200D01*
X90298Y473300D01*
X92900D01*
X118371Y447829D01*
X49561Y467017D02*
Y471200D01*
X47861Y472900D02*
X49561Y471200D01*
X44000Y472900D02*
X47861D01*
X38300Y467200D02*
X44000Y472900D01*
X192983Y500880D02*
X202200D01*
X215817Y495761D02*
X224839D01*
X192983Y468839D02*
X200561D01*
X204900Y464500D01*
X192983Y466280D02*
X198820D01*
X200600Y464500D01*
X215817Y503439D02*
X222239D01*
X227500Y508700D01*
X192983Y503439D02*
X204861D01*
X184700Y464700D02*
X185700Y463700D01*
Y456743D02*
Y463700D01*
Y456743D02*
X186400Y456043D01*
X192983D01*
X191844Y509695D02*
Y516400D01*
Y509695D02*
X192983Y508557D01*
X194000Y440000D02*
X194200D01*
X59798Y438702D02*
Y444183D01*
X69800Y436900D02*
X72843Y439943D01*
Y443983D01*
X59798Y438702D02*
X61600Y436900D01*
X85639Y461639D02*
Y466817D01*
X74900Y450900D02*
X85639Y461639D01*
X77961Y461361D02*
Y466817D01*
X70300Y453700D02*
X77961Y461361D01*
X44443Y458443D02*
Y467017D01*
X49561Y421100D02*
Y444183D01*
X80520Y473420D02*
X82400Y475300D01*
X80520Y466817D02*
Y473420D01*
X188851Y490643D02*
X192983D01*
X185608Y487400D02*
X188851Y490643D01*
X85900Y434900D02*
X90757Y439757D01*
Y443983D01*
X62357Y467017D02*
Y471257D01*
X64800Y473700D01*
X72902D01*
X75402Y471200D01*
Y466817D02*
Y471200D01*
Y439200D02*
Y443983D01*
Y439200D02*
X77002Y437600D01*
X86598D01*
X88198Y439200D01*
Y443983D01*
X52120Y467017D02*
Y475680D01*
X54680Y467017D02*
Y476000D01*
X192983Y498320D02*
X199200D01*
X200500Y497020D01*
Y488600D02*
Y497020D01*
X194000Y429764D02*
X201164D01*
X201300Y429900D01*
X215817Y500880D02*
X229200D01*
X194000Y432323D02*
X198900D01*
X199977Y433400D01*
X204000D01*
X182700Y434882D02*
X194000D01*
X187098Y459505D02*
Y480598D01*
Y459505D02*
X188000Y458602D01*
X192983D01*
X184295Y427205D02*
X194000D01*
X215817Y493202D02*
X223200D01*
X226900Y489502D01*
X215817Y490643D02*
X221057D01*
X223700Y488000D01*
X199712Y447400D02*
Y453932D01*
X197600Y456043D02*
X199712Y453932D01*
X192983Y456043D02*
X197600D01*
X216835Y440000D02*
X220100D01*
X192983Y495761D02*
X198000D01*
Y487544D02*
Y495761D01*
X188800Y493202D02*
X192983D01*
X187800Y494202D02*
X188800Y493202D01*
X187800Y494202D02*
Y514600D01*
X212000Y437441D02*
X216835D01*
X211100Y436541D02*
X212000Y437441D01*
X211100Y422987D02*
Y436541D01*
Y422987D02*
X212000Y422087D01*
X215817Y473957D02*
X222400D01*
X222764Y473593D01*
Y423200D02*
Y473593D01*
X221651Y422087D02*
X222764Y423200D01*
X216835Y422087D02*
X221651D01*
X210400Y508557D02*
X215817D01*
X208556Y510401D02*
X210400Y508557D01*
X208556Y510401D02*
Y516400D01*
X213000Y473957D02*
X215817D01*
X210800Y490643D02*
X215817D01*
X210800D02*
Y505998D01*
Y456043D02*
X215817D01*
X210800D02*
Y470400D01*
X211798Y471398D01*
X215817D01*
X59798Y462000D02*
Y467017D01*
X48000Y462000D02*
X59798D01*
X47002Y462998D02*
X48000Y462000D01*
D31*
X286700Y354700D02*
X287000Y355000D01*
X286400Y354400D02*
X286700Y354700D01*
X291700Y180853D02*
X302147Y191300D01*
X290400Y179553D02*
X291700Y180853D01*
X284200Y179553D02*
X290400D01*
X281400D02*
X284200D01*
X226600Y180153D02*
X232300D01*
X222953D02*
X226600D01*
X151600Y210400D02*
X165047D01*
X220600Y179400D02*
X221953Y180753D01*
X216500Y175300D02*
X220600Y179400D01*
X223047Y127853D02*
X223073Y127823D01*
X226400Y124100D01*
X153200Y49044D02*
X165600D01*
X147600D02*
X153200D01*
X523200Y52088D02*
X524888D01*
X520800D02*
X523200D01*
X194200Y439400D02*
Y440000D01*
X195080Y438520D02*
X196159Y437441D01*
X194200Y439400D02*
X195080Y438520D01*
X174900Y489200D02*
Y492600D01*
X86185Y226085D02*
X100085D01*
X86500Y172500D02*
X88800Y170200D01*
X84100Y174900D02*
X86500Y172500D01*
X476200Y542200D02*
X476949D01*
X476002Y577502D02*
X478312Y575192D01*
X472125Y581379D02*
X476002Y577502D01*
X431847Y539600D02*
Y539647D01*
Y515075D02*
Y539600D01*
X396300Y246600D02*
Y260900D01*
X363900Y366500D02*
Y397800D01*
Y361239D02*
Y366500D01*
X395001Y553101D02*
X396302Y551800D01*
X393800Y554302D02*
X395001Y553101D01*
X419749Y551800D02*
X428849Y560900D01*
X419249Y551300D02*
X419749Y551800D01*
X212250Y295506D02*
X214756Y293000D01*
X204000Y303756D02*
X212250Y295506D01*
X198500Y303800D02*
X208944D01*
X189400D02*
X198500D01*
X199400Y347300D02*
Y368288D01*
Y343644D02*
Y347300D01*
X476700Y289800D02*
Y293600D01*
X507250Y96750D02*
X509600Y94400D01*
X491000Y113000D02*
X507250Y96750D01*
X509950Y94750D02*
X538969Y65731D01*
X507600Y97100D02*
X509950Y94750D01*
X440100Y304300D02*
Y310400D01*
X163344Y403000D02*
X187900D01*
X163300D02*
X163344D01*
X249500Y69500D02*
Y81500D01*
Y58846D02*
Y69500D01*
X177000Y53556D02*
X183600D01*
X165600D02*
X177000D01*
X153200D02*
X165600D01*
X141600D02*
X153200D01*
X140000D02*
X141600D01*
X537000Y15700D02*
X554700D01*
X533600D02*
X537000D01*
X390902Y597359D02*
X391200D01*
X170073Y257349D02*
X170571Y256830D01*
X166000Y261600D02*
X170073Y257349D01*
X370100Y70300D02*
X371400Y71600D01*
X419174Y513294D02*
Y523474D01*
Y493126D02*
Y513294D01*
X93300Y238100D02*
X102294D01*
X168300Y441200D02*
Y444200D01*
X259800Y174047D02*
Y176000D01*
X253200Y171400D02*
Y174047D01*
X300100Y173494D02*
Y175200D01*
X143953Y572300D02*
X146400D01*
X263800Y69500D02*
Y82600D01*
Y68000D02*
Y69500D01*
X228553Y139406D02*
X235494D01*
X228953Y127300D02*
X243600D01*
X162153Y546100D02*
X177000D01*
X143953Y556200D02*
X146900D01*
X140800Y554400D02*
X143953D01*
X316100Y145600D02*
Y173847D01*
X290964Y145742D02*
Y147710D01*
X69900Y440400D02*
Y447900D01*
X66800Y451000D02*
X69900Y447900D01*
X286400Y355000D02*
X287000D01*
X259638Y262400D02*
X263200Y265962D01*
X429700Y341250D02*
Y341450D01*
X481600Y255900D02*
X483800Y253700D01*
X480600Y256900D02*
X481600Y255900D01*
X409800Y568800D02*
Y582700D01*
Y545400D02*
Y568800D01*
X429700Y333700D02*
Y341250D01*
X330100Y71600D02*
X332000D01*
X192983Y471398D02*
X211798D01*
X287000Y355000D02*
X319100D01*
X287000D02*
X291134Y359134D01*
X138047Y573047D02*
Y576488D01*
Y571000D02*
Y573047D01*
X280137Y107184D02*
X285908Y112955D01*
X277800Y104847D02*
X280137Y107184D01*
X277800Y94300D02*
Y104847D01*
Y87700D02*
Y94300D01*
X145556Y49844D02*
X146800D01*
X141600D02*
X145556D01*
X147600Y49044D02*
X147956Y48688D01*
X146800Y49844D02*
X147600Y49044D01*
X146356D02*
X147600D01*
X524888Y52088D02*
X526086D01*
X524888D02*
X525487Y52687D01*
X523200Y50400D02*
X524888Y52088D01*
X185200Y493202D02*
X188800D01*
X174900Y489200D02*
X181198D01*
X107753Y92000D02*
Y93800D01*
Y30447D02*
Y92000D01*
X482500Y601000D02*
Y603800D01*
X496200Y508100D02*
Y544600D01*
Y429700D02*
Y508100D01*
X472125Y581575D02*
Y595475D01*
Y581379D02*
Y581575D01*
X468000Y540200D02*
X474400D01*
X440800Y538500D02*
X448500Y530800D01*
X431847Y539647D02*
Y545400D01*
X365000Y288100D02*
X365100Y288200D01*
X419249Y551300D02*
Y552300D01*
Y545400D02*
Y551300D01*
X208944Y303800D02*
X208988Y303756D01*
X204000D02*
X208988D01*
X198500D02*
X204000D01*
Y372888D02*
X206600D01*
X200800D02*
X204000D01*
X200800Y369688D02*
X204000Y372888D01*
X199400Y368288D02*
X200800Y369688D01*
X197600Y376088D02*
Y378844D01*
Y374500D02*
Y376088D01*
X200800Y369688D02*
Y371300D01*
Y347300D02*
Y369688D01*
X196918Y342644D02*
X198400D01*
X196400D02*
X196918D01*
X405300Y568615D02*
Y580708D01*
Y568269D02*
Y568615D01*
X383500Y443000D02*
X390300D01*
X377029D02*
X383500D01*
X538969Y57600D02*
Y65731D01*
Y31200D02*
Y57600D01*
X551400D01*
X535000D02*
X538969D01*
X310400Y185100D02*
X325168D01*
X307312Y120803D02*
Y122600D01*
Y113412D02*
Y120803D01*
X311715Y116400D02*
Y122200D01*
X197672Y481200D02*
X202600D01*
X197556Y481316D02*
X197672Y481200D01*
X194900Y483972D02*
X197556Y481316D01*
X194900Y483972D02*
X197556D01*
Y481316D02*
Y483972D01*
Y481000D02*
Y481316D01*
X292500Y418100D02*
X293600D01*
X297100D02*
X300000D01*
X293600D02*
X297100D01*
X188000Y483972D02*
X194900D01*
X185700D02*
X188000D01*
X139466Y444200D02*
X145500D01*
X133800D02*
X139466D01*
X164200Y419466D02*
Y425100D01*
X163344Y403044D02*
X164200Y403900D01*
X163300Y403000D02*
X163344Y403044D01*
X161100Y400800D02*
X163300Y403000D01*
X158000D02*
X163300D01*
X264300Y268700D02*
X266400Y266600D01*
X255200Y277800D02*
X264300Y268700D01*
X266294D02*
X269900D01*
X264300D02*
X266294D01*
X254100D02*
X264300D01*
X250839D02*
X254100D01*
X265600Y179553D02*
X267800D01*
X264200D02*
X265600D01*
X263200Y95900D02*
Y102600D01*
Y95200D02*
Y95900D01*
X253000Y85000D02*
X263200Y95200D01*
X249500Y81500D02*
X253000Y85000D01*
X105300Y241600D02*
Y254500D01*
X110715Y218400D02*
Y229600D01*
X253000Y85000D02*
Y85700D01*
Y69500D02*
Y85000D01*
X249500Y58304D02*
Y58846D01*
X253000Y62346D01*
X234354Y43700D02*
X249500Y58846D01*
X234354Y43700D02*
X234896D01*
X138600Y47200D02*
X142100Y43700D01*
X112115Y73685D02*
X138600Y47200D01*
Y52156D02*
Y54400D01*
Y11700D02*
Y47200D01*
X557600Y18600D02*
X564000Y25000D01*
X554700Y15700D02*
X557600Y18600D01*
X530700D02*
X533600Y15700D01*
X528300Y21000D02*
X530700Y18600D01*
X557600D01*
X517600D02*
X530700D01*
X197600Y389553D02*
X204697D01*
X170571Y256830D02*
X176600Y257000D01*
X169500Y256800D02*
X170571Y256830D01*
X170600Y256800D01*
X209372Y329972D02*
Y333600D01*
X344600Y257750D02*
Y258500D01*
Y233300D02*
Y257750D01*
X240600Y402423D02*
Y586300D01*
Y395100D02*
Y402423D01*
X327681Y284019D02*
Y291419D01*
Y282981D02*
Y284019D01*
X344600Y257750D02*
X369600Y232750D01*
X321450Y280900D02*
X344600Y257750D01*
X269000Y333350D02*
X321450Y280900D01*
X419174Y523474D02*
X428698Y532998D01*
X417400Y521700D02*
X419174Y523474D01*
X269200Y173647D02*
X270224D01*
X282126Y173174D02*
X282400Y173447D01*
X279900Y170947D02*
X282126Y173174D01*
X274800Y128044D02*
X276400D01*
X264900Y105620D02*
Y106820D01*
Y85600D02*
Y105620D01*
Y83700D02*
Y85600D01*
X156400Y549553D02*
Y551700D01*
X143953Y554400D02*
Y556200D01*
X460000Y250400D02*
X463900Y254300D01*
X356800Y405400D02*
X370300Y418900D01*
X356800Y372400D02*
Y405400D01*
X343800Y359400D02*
X356800Y372400D01*
X343800Y348100D02*
Y359400D01*
X327800Y332100D02*
X343800Y348100D01*
X327800Y306148D02*
Y332100D01*
Y306148D02*
X340799Y293150D01*
X442800Y398200D02*
X446500Y401900D01*
Y432200D01*
X445100Y433600D02*
X446500Y432200D01*
X557800Y398200D02*
X562100Y402500D01*
Y463200D01*
X547100Y338900D02*
Y479500D01*
Y338900D02*
X557800Y328200D01*
Y298200D02*
X562100Y302500D01*
Y332000D01*
X560200Y333900D02*
X562100Y332000D01*
X556000Y333900D02*
X560200D01*
X553500Y336400D02*
X556000Y333900D01*
X553500Y336400D02*
Y491000D01*
X391200Y458000D02*
Y461400D01*
Y458000D02*
X392800Y456400D01*
X395800D01*
X397600Y458200D01*
Y464400D01*
X507400Y466400D02*
X526000D01*
X536900Y455500D01*
Y289100D02*
Y455500D01*
Y289100D02*
X557800Y268200D01*
X504600Y463100D02*
Y472500D01*
Y463100D02*
X526300Y462100D01*
X528186Y460214D01*
Y221214D02*
Y460214D01*
Y221214D02*
X551200Y198200D01*
X557800D01*
X439800Y261600D02*
X440600Y260800D01*
X437100Y272200D02*
Y284415D01*
X438400Y285715D01*
Y312800D01*
X498400Y220400D02*
X501600Y223600D01*
X465600Y279900D02*
X472900Y287200D01*
X465600Y191293D02*
Y279900D01*
Y191293D02*
X469893Y187000D01*
X492507D01*
X495900Y190393D01*
Y214000D01*
X490900Y188700D02*
X493900Y191700D01*
X471585Y188700D02*
X490900D01*
X467300Y192985D02*
X471585Y188700D01*
X467300Y192985D02*
Y278900D01*
X469200Y280800D01*
X473500Y196700D02*
X475800Y194400D01*
X473500Y196700D02*
Y212600D01*
X259638Y262238D02*
X263200Y265800D01*
X222647Y132900D02*
X223047Y127853D01*
X226400Y124100D02*
X258500D01*
X262400Y128000D01*
X222647Y132900D02*
Y137600D01*
Y132900D02*
X223047Y127800D01*
X262400Y143394D02*
X273450Y132344D01*
X279944D01*
X283488Y128800D01*
Y125478D02*
Y128800D01*
Y125478D02*
X285908Y123059D01*
Y112955D02*
Y123059D01*
X302147Y191300D02*
X303200D01*
X308600Y179153D02*
Y182400D01*
X294395Y182495D02*
X303200Y191300D01*
X294395Y180248D02*
Y182495D01*
X293200Y179353D02*
X294395Y180248D01*
X430400Y143200D02*
Y146100D01*
X417600Y130400D02*
X430400Y143200D01*
X406400Y130400D02*
X417600D01*
X403200Y127200D02*
X406400Y130400D01*
X403200Y84700D02*
Y127200D01*
X392600Y84000D02*
X403200Y84700D01*
X470000Y275700D02*
X471600Y274100D01*
X408800Y343000D02*
Y379300D01*
X431600Y279500D02*
X434200Y282100D01*
X370300Y321744D02*
X370556Y322000D01*
X372989Y295811D02*
X374100Y294700D01*
X413500Y209200D02*
X414800Y207900D01*
X277800Y87700D02*
X297400D01*
X393900Y276800D02*
Y288100D01*
X301898Y265700D02*
X313500D01*
X285228Y261844D02*
X289084Y265700D01*
X244193Y283307D02*
X244500Y283000D01*
Y287200D02*
Y291600D01*
X242200Y331576D02*
X253600D01*
X254565Y332540D01*
Y342135D01*
X248432Y348268D02*
X254565Y342135D01*
X220800Y417900D02*
X221805Y416895D01*
Y350295D02*
Y416895D01*
X233000Y486100D02*
X234030Y487130D01*
Y509820D01*
X232077Y511773D02*
X234030Y509820D01*
X196200Y554400D02*
X202318Y560518D01*
X138047Y573047D02*
X140000Y575000D01*
X144800D01*
X184500Y557000D02*
X197100D01*
X44443Y454300D02*
X47002Y456859D01*
X165047Y207700D02*
Y210400D01*
X164847Y202600D02*
X165047Y207700D01*
Y210400D02*
Y212600D01*
X117300Y244700D02*
X151600Y210400D01*
X117300Y244700D02*
Y333300D01*
X112900Y337700D02*
X117300Y333300D01*
X93200Y437800D02*
Y454957D01*
X90757Y457400D02*
X93200Y454957D01*
X221953Y180753D02*
X226600D01*
X103600Y182800D02*
Y184900D01*
X106700Y188000D01*
X221400Y178600D02*
X222953Y180153D01*
X406600Y400700D02*
X409500Y403600D01*
Y416800D01*
X403200Y423100D02*
X409500Y416800D01*
X403200Y423100D02*
Y440300D01*
X390800Y439300D02*
X391800Y440300D01*
X410400Y429800D02*
Y440300D01*
X409800Y582700D02*
X412950Y585850D01*
Y594408D01*
X516200Y564600D02*
X519900Y560900D01*
Y488300D02*
Y560900D01*
X517200Y485600D02*
X519900Y488300D01*
X477200Y487000D02*
X477500Y487300D01*
X477200Y401900D02*
Y487000D01*
X474776Y399476D02*
X477200Y401900D01*
X82600Y277400D02*
X88600Y283400D01*
X82600Y235800D02*
Y277400D01*
Y235800D02*
X88400Y230000D01*
X182200Y421500D02*
X185346Y424646D01*
X97600Y300600D02*
X112900Y315900D01*
X97600Y285885D02*
Y300600D01*
Y285885D02*
X97685Y285800D01*
Y282800D02*
Y285800D01*
X184000Y439941D02*
Y462000D01*
X179400Y466600D02*
X184000Y462000D01*
X167600Y466600D02*
X179400D01*
X166600Y465600D02*
X167600Y466600D01*
X166600Y452800D02*
Y465600D01*
Y452800D02*
X167600Y451800D01*
X176800D01*
X178400Y450200D01*
Y427846D02*
Y450200D01*
Y427846D02*
X181600Y424646D01*
X349800Y465000D02*
X350577Y464223D01*
X357600D01*
X361095Y460728D01*
Y458505D02*
Y460728D01*
Y458505D02*
X368552Y451048D01*
X380108D01*
X171800Y489200D02*
X174900D01*
X502800Y385600D02*
Y388200D01*
X499100Y381900D02*
X502800Y385600D01*
X499100Y364000D02*
Y381900D01*
Y364000D02*
X501200Y361900D01*
X504800D01*
X506500Y360200D01*
Y158400D02*
Y360200D01*
X486800Y138700D02*
X506500Y158400D01*
X486800Y86088D02*
Y138700D01*
Y86088D02*
X520800Y52088D01*
X479200Y607100D02*
X482500Y603800D01*
X432300Y607100D02*
X479200D01*
X427900Y602700D02*
X432300Y607100D01*
X394052Y599352D02*
X397400Y602700D01*
X394052Y594408D02*
Y599352D01*
X569300Y183900D02*
Y568477D01*
X540674Y597103D02*
X569300Y568477D01*
X525318Y597103D02*
X540674D01*
X520421Y602000D02*
X525318Y597103D01*
X483500Y602000D02*
X520421D01*
X482500Y601000D02*
X483500Y602000D01*
X482500Y581600D02*
Y601000D01*
Y581600D02*
X482800Y581300D01*
X427700Y284500D02*
X429800Y282400D01*
X572000Y342500D02*
Y574000D01*
X546000Y600000D02*
X572000Y574000D01*
X528000Y600000D02*
X546000D01*
X387753Y545400D02*
Y554200D01*
X375200Y566753D02*
X387753Y554200D01*
X375200Y566753D02*
Y575200D01*
X379800Y579800D01*
X387700D01*
X390296Y577204D01*
X432600Y289500D02*
X436700Y293600D01*
Y314400D01*
X457500Y335200D01*
X475200D01*
X478400Y338400D01*
Y370000D01*
X483500Y375100D01*
Y412900D01*
X486500Y415900D01*
Y435600D01*
X484500Y437600D02*
X486500Y435600D01*
X484500Y437600D02*
Y504600D01*
X384603Y545400D02*
Y551300D01*
X373500Y562403D02*
X384603Y551300D01*
X373500Y562403D02*
Y585900D01*
X430500Y292000D02*
X432100Y293600D01*
X521700Y316600D02*
Y391500D01*
X526486Y396286D01*
Y457914D01*
X525000Y459400D02*
X526486Y457914D01*
X503254Y459400D02*
X525000D01*
X499900Y462754D02*
X503254Y459400D01*
X499900Y462754D02*
Y586400D01*
X497850Y588450D02*
X499900Y586400D01*
X492350Y588450D02*
X497850D01*
X486200Y594600D02*
X492350Y588450D01*
X439100Y478100D02*
X464700Y503700D01*
X439100Y366000D02*
Y478100D01*
Y366000D02*
X444500Y360600D01*
Y336996D02*
Y360600D01*
X435100Y327596D02*
X444500Y336996D01*
X435100Y316300D02*
Y327596D01*
X435000Y316200D02*
X435100Y316300D01*
X435000Y304650D02*
Y316200D01*
X432800Y302450D02*
X435000Y304650D01*
X430550Y302450D02*
X432800D01*
X491500Y599300D02*
X496200Y594600D01*
X486200Y599300D02*
X491500D01*
X370800Y559304D02*
Y580400D01*
Y559304D02*
X378304Y551800D01*
Y545400D02*
Y551800D01*
X502500Y497000D02*
X509900Y489600D01*
X502500Y497000D02*
Y588300D01*
X496200Y594600D02*
X502500Y588300D01*
X378304Y589965D02*
Y594408D01*
Y589965D02*
X384069Y584200D01*
X386700D01*
X543600Y365500D02*
X545400Y367300D01*
Y377800D01*
X543600Y379600D02*
X545400Y377800D01*
X543600Y379600D02*
Y591700D01*
X540700Y594600D02*
X543600Y591700D01*
X506200Y594600D02*
X540700D01*
X384603Y594408D02*
Y600200D01*
X489100Y327600D02*
Y371400D01*
X490100Y372400D01*
Y414500D01*
X488800Y415800D02*
X490100Y414500D01*
X488800Y415800D02*
Y450200D01*
X486200Y452800D02*
X488800Y450200D01*
X486200Y452800D02*
Y459400D01*
X492500Y465700D01*
Y548300D01*
X486200Y554600D02*
X492500Y548300D01*
X431847Y575195D02*
Y594408D01*
Y575195D02*
X432800Y574242D01*
X482800Y572700D02*
X486200Y569300D01*
Y554600D02*
Y569300D01*
X476200Y542200D02*
Y544600D01*
X476949Y498949D02*
Y542200D01*
X466847Y488847D02*
X476949Y498949D01*
X466847Y438747D02*
Y488847D01*
X459100Y431000D02*
X466847Y438747D01*
X459100Y355700D02*
Y431000D01*
Y355700D02*
X466500Y348300D01*
X438146Y594408D02*
Y603678D01*
X439768Y605300D01*
X472700D01*
X480012Y597988D01*
Y569988D02*
Y597988D01*
Y569988D02*
X482500Y567500D01*
Y552500D02*
Y567500D01*
Y552500D02*
X486200Y548800D01*
Y544600D02*
Y548800D01*
X441296Y541304D02*
Y545400D01*
Y541304D02*
X442400Y540200D01*
X468000D01*
X469900Y542100D01*
Y548100D01*
X468000Y550000D02*
X469900Y548100D01*
X438146Y541154D02*
Y545400D01*
Y541154D02*
X440800Y538500D01*
X471500D01*
X473200Y536800D01*
Y521900D02*
Y536800D01*
X448700Y497400D02*
X473200Y521900D01*
X388500Y375600D02*
X395300Y368800D01*
Y346705D02*
Y368800D01*
Y346705D02*
X410005Y332000D01*
X434997Y545400D02*
Y551397D01*
X435100Y551500D01*
X516200Y549100D02*
Y554600D01*
X430400Y508500D02*
X431400Y507500D01*
Y409300D02*
Y507500D01*
X335000Y324900D02*
X337103D01*
X334100Y324000D02*
X335000Y324900D01*
X334100Y312800D02*
Y324000D01*
Y312800D02*
X345100Y301800D01*
X359000Y285500D02*
Y292400D01*
Y285500D02*
X362500Y282000D01*
X388600Y204000D02*
X389600Y203000D01*
X388600Y204000D02*
Y240500D01*
X365200Y263900D02*
X388600Y240500D01*
X365200Y263900D02*
Y265300D01*
X395500Y244196D02*
X426400Y212300D01*
X395500Y240500D02*
Y244196D01*
X332400Y310600D02*
X345100Y297900D01*
X332400Y310600D02*
Y326400D01*
X338646Y327600D01*
X341600Y324646D01*
X395663Y260900D02*
X396300D01*
Y246600D02*
X422400Y220500D01*
X400000Y271000D02*
X422300Y248700D01*
Y226400D02*
Y248700D01*
Y226400D02*
X425800Y222900D01*
X400000Y269300D02*
Y271000D01*
X399200Y268500D02*
X400000Y269300D01*
X429600Y229600D02*
X433800Y225400D01*
X429600Y229600D02*
Y244500D01*
X401700Y272400D02*
X429600Y244500D01*
X401700Y272400D02*
Y310800D01*
X400500Y312000D02*
X401700Y310800D01*
X403400Y274724D02*
X419824Y258300D01*
X403400Y274724D02*
Y311618D01*
X398018Y317000D02*
X403400Y311618D01*
X371700Y318400D02*
X372800Y319500D01*
X367600Y320000D02*
X369200Y318400D01*
X367600Y320000D02*
Y334075D01*
X363250Y338425D02*
X367600Y334075D01*
X407300Y276000D02*
X417500Y265800D01*
X407300Y276000D02*
Y277800D01*
X405300Y279800D02*
X407300Y277800D01*
X405300Y279800D02*
Y314600D01*
X400400Y319500D02*
X405300Y314600D01*
X461200Y274400D02*
Y284900D01*
X362900Y348800D02*
X363400Y348300D01*
X385700D01*
X389200Y344800D01*
X404400Y329300D02*
X407000Y326700D01*
Y280600D02*
Y326700D01*
Y280600D02*
X409000Y278600D01*
Y277500D02*
Y278600D01*
Y277500D02*
X417200Y269300D01*
X438100D01*
X440000Y271200D01*
Y274400D01*
X368905Y350900D02*
X369200Y351195D01*
X440000Y283100D02*
X442300Y280800D01*
X367700Y362300D02*
X370900Y359100D01*
X367700Y362300D02*
Y394900D01*
X400351Y541200D02*
Y545400D01*
X397714Y538563D02*
X400351Y541200D01*
X388663Y538563D02*
X397714D01*
X383100Y533000D02*
X388663Y538563D01*
X383100Y524000D02*
Y533000D01*
X378014Y518914D02*
X383100Y524000D01*
X362514Y518914D02*
X378014D01*
X326400Y482800D02*
X362514Y518914D01*
X326400Y419950D02*
Y482800D01*
X324850Y418400D02*
X326400Y419950D01*
X323150Y418400D02*
X324850D01*
X400351Y545400D02*
Y550500D01*
X395500Y555351D02*
X400351Y550500D01*
X395500Y555351D02*
Y576104D01*
X402600Y583204D01*
X456200Y584600D02*
Y597400D01*
X301500Y532900D02*
X301700Y533100D01*
X387400D02*
X390575Y536275D01*
X398475D01*
X403501Y541301D01*
Y545400D01*
X429800Y564600D02*
X456200D01*
X420769Y555569D02*
X429800Y564600D01*
X418400Y555569D02*
X420769D01*
X416099Y553268D02*
X418400Y555569D01*
X416099Y545400D02*
Y553268D01*
X428849Y560900D02*
X462500D01*
X466200Y564600D01*
X264800Y528500D02*
X281500Y511800D01*
X425500Y569700D02*
X425548Y569748D01*
Y594408D01*
X275000Y512000D02*
X279000Y508000D01*
X267700Y512000D02*
X275000D01*
X262100Y517600D02*
X267700Y512000D01*
X262100Y517600D02*
Y530400D01*
X266300Y534600D01*
X269100D01*
X419600Y560500D02*
Y564600D01*
X422398Y567398D01*
Y594408D01*
X272800Y427300D02*
X274000Y428500D01*
X248600Y427300D02*
X272800D01*
X246300Y429600D02*
X248600Y427300D01*
X246300Y429600D02*
Y574200D01*
X285400Y613300D01*
X418400D01*
X419249Y594408D01*
X416099Y565500D02*
Y594408D01*
X249000Y430762D02*
Y563900D01*
Y430762D02*
X250746Y429015D01*
X406650Y594408D02*
Y604850D01*
X401600Y609900D02*
X406650Y604850D01*
X288100Y609900D02*
X401600D01*
X252000Y573800D02*
X288100Y609900D01*
X252000Y435800D02*
Y573800D01*
Y435800D02*
X252400Y435400D01*
X319800Y461900D02*
Y568200D01*
X357811Y606211D01*
X402290D01*
X403501Y605000D01*
Y594408D02*
Y605000D01*
X259000Y499700D02*
X265500Y506200D01*
X359400Y523400D02*
X364800Y528800D01*
Y582400D01*
X371000Y588600D01*
X377265D01*
X384365Y581500D01*
X393996D01*
X400351Y587855D01*
Y594408D01*
X318800Y413400D02*
X324325Y407875D01*
X294800Y381900D02*
X295071Y381629D01*
X348900Y471000D02*
X351200Y468700D01*
X342800Y467700D02*
X346100Y471000D01*
X342800Y464200D02*
Y467700D01*
X340300Y461700D02*
X342800Y464200D01*
X340300Y410910D02*
Y461700D01*
X321958Y392568D02*
X340300Y410910D01*
X311232Y392568D02*
X321958D01*
X308082Y389418D02*
X311232Y392568D01*
X287197Y382493D02*
X294000Y389296D01*
X330600Y458200D02*
X346100Y473700D01*
X330600Y407402D02*
Y458200D01*
X321500Y398302D02*
X330600Y407402D01*
X321500Y396000D02*
Y398302D01*
X320200Y394700D02*
X321500Y396000D01*
X309000Y394700D02*
X320200D01*
X305100Y390800D02*
X309000Y394700D01*
X297600Y390800D02*
X305100D01*
X294000Y394400D02*
X297600Y390800D01*
X283260Y388371D02*
X286500Y391611D01*
X277354Y387509D02*
X284000Y394155D01*
X271449Y389570D02*
X274000Y392121D01*
X198400Y342644D02*
X199400Y343644D01*
X197600Y374500D02*
X200800Y371300D01*
X264800Y178753D02*
X265600Y179553D01*
X264800Y170500D02*
Y178753D01*
Y170500D02*
X266000Y169300D01*
X249400Y228600D02*
X249795Y228995D01*
X287197Y259797D02*
X292000Y264600D01*
Y267000D01*
X288244Y270756D02*
X292000Y267000D01*
X334900Y295000D02*
X336300D01*
X361782Y303200D02*
X364982Y306400D01*
X361782Y285969D02*
Y303200D01*
Y285969D02*
X362400Y285351D01*
X367600D02*
X369249Y287000D01*
X261500Y449000D02*
X265191Y452691D01*
X162553Y570451D02*
Y571400D01*
X172700Y557200D02*
Y560304D01*
X162553Y570451D02*
X172700Y560304D01*
Y557200D02*
X178100Y551800D01*
X112115Y73685D02*
Y105400D01*
X234896Y43700D02*
X249500Y58304D01*
X260700Y105100D02*
Y122800D01*
X294900Y109300D02*
X303200D01*
X307312Y113412D01*
X340800Y154844D02*
X350700D01*
X316200Y179753D02*
X328347D01*
X307000Y185100D02*
X310400D01*
X314400Y181100D01*
X316200Y179753D01*
X305900Y184000D02*
X307000Y185100D01*
X305900Y181500D02*
Y184000D01*
X303800Y179400D02*
X305900Y181500D01*
X301600Y179400D02*
X303800D01*
X553400Y34400D02*
X564000Y45000D01*
X542169Y34400D02*
X553400D01*
X538969Y31200D02*
X542169Y34400D01*
X538969Y21454D02*
Y31200D01*
X371400Y85200D02*
X376900D01*
X440100Y310400D02*
X441300Y311600D01*
X444400D01*
X446100Y309900D01*
X440600Y303800D02*
X441100Y304300D01*
X473100Y292500D02*
Y310800D01*
Y292500D02*
X475800Y289800D01*
X435900Y242100D02*
X441400Y247600D01*
X435900Y232400D02*
X440400Y227900D01*
X396700Y390000D02*
X398800Y392100D01*
X388900Y441600D02*
X390300Y443000D01*
X393600D01*
X394500Y442100D01*
Y424000D02*
Y442100D01*
Y495200D02*
X398500Y491200D01*
X409800Y585208D02*
Y594408D01*
X412950Y545400D02*
Y572900D01*
X405300Y580708D02*
X409800Y585208D01*
X18660Y438874D02*
Y447200D01*
Y473260D01*
X48600Y503200D01*
Y559800D01*
X62000Y573200D01*
X41000Y454300D02*
X44443Y457743D01*
X18660Y447200D02*
X25760Y454300D01*
X431000Y123000D02*
X436000Y118000D01*
X443200D01*
X445200Y116000D01*
Y112900D02*
Y116000D01*
Y112900D02*
X492700Y65400D01*
X495600D01*
X514400Y46600D01*
Y21800D02*
Y46600D01*
Y21800D02*
X517600Y18600D01*
X494200Y128600D02*
Y133000D01*
X508200Y147000D01*
Y362600D01*
X507200Y363600D02*
X508200Y362600D01*
X507200Y363600D02*
Y389500D01*
X504800Y391900D02*
X507200Y389500D01*
X499900Y391900D02*
X504800D01*
X497400Y394400D02*
X499900Y391900D01*
X497400Y394400D02*
Y402600D01*
X498400Y403600D01*
X505600D01*
X510200Y408200D01*
X512800D01*
X390902Y594408D02*
Y597359D01*
X391200D02*
Y602000D01*
X390300Y602900D02*
X391200Y602000D01*
X382600Y602900D02*
X390300D01*
X380200Y600500D02*
X382600Y602900D01*
X373600Y600500D02*
X380200D01*
X323700Y550600D02*
X373600Y600500D01*
X323700Y422500D02*
Y550600D01*
X324598Y379687D02*
X367695Y422783D01*
X372228D01*
X373300Y418600D01*
X428000Y419100D02*
Y472459D01*
X427818Y472641D02*
X428000Y472459D01*
X427818Y472641D02*
Y493782D01*
X422574Y499026D02*
X427818Y493782D01*
X422574Y499026D02*
Y513874D01*
X425400Y516700D01*
X372000Y524200D02*
X381400Y533600D01*
Y536800D01*
X384863Y540263D01*
X394052D01*
Y545400D01*
X420874Y516974D02*
X424600Y520700D01*
X420874Y493926D02*
Y516974D01*
Y493926D02*
X424600Y490200D01*
X349565Y458735D02*
X350579D01*
X346700Y461600D02*
X349565Y458735D01*
X346700Y461600D02*
Y467200D01*
X159500Y494031D02*
X164969Y499500D01*
X159500Y434400D02*
Y494031D01*
Y434400D02*
X178400Y415500D01*
X198500D01*
X212772Y401228D01*
Y339523D02*
Y401228D01*
Y339523D02*
X213869Y338425D01*
X358100Y458100D02*
Y461046D01*
X356800Y462346D02*
X358100Y461046D01*
X351946Y462346D02*
X356800D01*
X351100Y461500D02*
X351946Y462346D01*
X243600Y402018D02*
Y443700D01*
Y402018D02*
X253900Y391718D01*
Y379900D02*
Y391718D01*
Y379900D02*
X256112Y377688D01*
X251500Y334488D02*
X251588Y334400D01*
X170600Y256800D02*
X176600Y257000D01*
X166000Y261600D02*
Y291600D01*
X184800Y310400D01*
X215578D01*
X176600Y257000D02*
X183500D01*
X198500Y294000D02*
Y298244D01*
X211596Y286300D02*
X214790Y289494D01*
X206000Y356153D02*
X208019D01*
X209372Y354800D01*
Y333600D02*
Y354800D01*
X197100Y332500D02*
X209372Y333600D01*
X193428Y336172D02*
X197100Y332500D01*
X193428Y336172D02*
Y344928D01*
X196400Y347900D01*
Y348156D01*
X203800Y285600D02*
X205900Y283500D01*
X220300D01*
X191944Y289756D02*
X198500D01*
X188500Y293200D02*
X191944Y289756D01*
X354869Y133931D02*
X367000Y146061D01*
Y210900D01*
X344600Y233300D02*
X367000Y210900D01*
X330000Y273100D02*
X344600Y258500D01*
X330000Y273100D02*
Y278400D01*
X330970Y279370D01*
X206800Y584300D02*
X212554Y578546D01*
X206800Y591200D02*
X208600Y593000D01*
X233900D02*
X240600Y586300D01*
Y395100D02*
X250400Y385300D01*
X321450Y280900D02*
X325600D01*
X327681Y282981D01*
X326100Y293000D02*
X327681Y291419D01*
X326100Y293000D02*
Y351300D01*
X337600Y362800D01*
X206800Y584300D02*
Y591200D01*
X208600Y593000D02*
X233900D01*
X240600Y402423D02*
X250400Y392623D01*
Y385300D02*
Y392623D01*
X369600Y102700D02*
Y232750D01*
X388500Y456300D02*
X390000Y454800D01*
X388500Y456300D02*
Y489300D01*
X388600Y489400D01*
Y509500D01*
X392800Y513700D01*
X476200Y554600D02*
Y572071D01*
X473371Y574900D02*
X476200Y572071D01*
X473371Y574900D02*
Y577729D01*
X470200Y580900D02*
X473371Y577729D01*
X453600Y580900D02*
X470200D01*
X450200Y584300D02*
X453600Y580900D01*
X450200Y584300D02*
Y595600D01*
X444900Y600900D02*
X450200Y595600D01*
X387753Y599353D02*
X388500Y600100D01*
X387753Y594408D02*
Y599353D01*
X403553Y387047D02*
X405600Y385000D01*
X403553Y387047D02*
Y411053D01*
X406800Y414300D01*
X469100Y411000D02*
Y434100D01*
X475200Y440200D01*
Y484634D01*
X474751Y485084D02*
X475200Y484634D01*
X474751Y485084D02*
Y488953D01*
X479900Y494102D01*
Y547600D01*
X476200Y551300D02*
X479900Y547600D01*
X476200Y551300D02*
Y554600D01*
X519000Y393400D02*
X522400Y396800D01*
X519000Y224700D02*
Y393400D01*
Y224700D02*
X529500Y214200D01*
Y194400D02*
Y214200D01*
X514100Y179000D02*
X529500Y194400D01*
X417400Y513294D02*
Y521700D01*
X379700Y117100D02*
Y225100D01*
X353894Y250906D02*
X379700Y225100D01*
X385200Y199200D02*
Y237922D01*
Y199200D02*
X391400Y193000D01*
X405647D01*
X467800Y130847D01*
X102294Y238100D02*
Y239600D01*
Y235306D02*
Y238100D01*
Y235306D02*
X103800Y233800D01*
Y225815D02*
Y233800D01*
X100085Y222100D02*
X103800Y225815D01*
X100085Y218400D02*
Y222100D01*
X175007Y240200D02*
X206303Y271496D01*
X141200Y240200D02*
X175007D01*
X127300Y254100D02*
X141200Y240200D01*
X127300Y254100D02*
Y331700D01*
X62200Y396800D02*
X127300Y331700D01*
X34400Y396800D02*
X62200D01*
X29300Y401900D02*
X34400Y396800D01*
X29300Y401900D02*
Y476000D01*
X33400Y480100D01*
X23974Y438874D02*
X26140D01*
X19200Y434100D02*
X23974Y438874D01*
X19200Y386400D02*
Y434100D01*
Y386400D02*
X22400Y383200D01*
X73300D01*
X124000Y332500D01*
Y243300D02*
Y332500D01*
Y243300D02*
X130300Y237000D01*
X192100D01*
X197500Y242400D01*
Y256872D01*
X210155Y269528D01*
X118371Y427998D02*
Y447829D01*
Y427998D02*
X127200Y419169D01*
X140800D01*
X142118Y417850D01*
Y412800D02*
Y417850D01*
X141100Y411782D02*
X142118Y412800D01*
X141100Y247900D02*
Y411782D01*
Y247900D02*
X142200Y246800D01*
X178400D01*
X212400Y280800D01*
X219200D01*
X38300Y437800D02*
Y467200D01*
X225068Y402568D02*
X226300Y403800D01*
Y477500D01*
X223000Y480800D02*
X226300Y477500D01*
X223000Y480800D02*
Y483300D01*
X218100Y488200D02*
X223000Y483300D01*
X208300Y488200D02*
X218100D01*
X204500Y492000D02*
X208300Y488200D01*
X204500Y492000D02*
Y498580D01*
X202200Y500880D02*
X204500Y498580D01*
X231160Y370040D02*
X239870Y361330D01*
X231160Y370040D02*
Y395258D01*
X232648Y396746D01*
Y430452D01*
X228600Y434500D02*
X232648Y430452D01*
X228600Y434500D02*
Y492000D01*
X224839Y495761D02*
X228600Y492000D01*
X226905Y399805D02*
X228200Y401100D01*
X29300Y607500D02*
X35200Y601600D01*
X29300Y607500D02*
Y627400D01*
X31200Y629300D01*
X75500D01*
X120800Y584000D01*
Y530500D02*
Y584000D01*
Y530500D02*
X124000Y527300D01*
X186000D01*
X186300Y527000D01*
Y522400D02*
Y527000D01*
X185000Y521100D02*
X186300Y522400D01*
X175900Y521100D02*
X185000D01*
X170400Y515600D02*
X175900Y521100D01*
X170400Y508865D02*
Y515600D01*
X157800Y496265D02*
X170400Y508865D01*
X157800Y463200D02*
Y496265D01*
X143800Y449200D02*
X157800Y463200D01*
X133800Y449200D02*
X143800D01*
X171800Y459200D02*
X178400D01*
X162200Y472600D02*
Y492900D01*
Y472600D02*
X165600Y469200D01*
X171800D01*
X167200Y484200D02*
X171800D01*
X164900Y486500D02*
X167200Y484200D01*
X164900Y486500D02*
Y494500D01*
X166500Y496100D01*
X206700Y496000D02*
X207700Y495000D01*
X206700Y496000D02*
Y501600D01*
X204861Y503439D02*
X206700Y501600D01*
X196600Y576159D02*
Y593685D01*
X211200Y608285D01*
X321000Y200800D02*
X334441Y214241D01*
X276000Y167500D02*
Y173647D01*
X296053Y173447D02*
X297300Y172200D01*
X293200Y173447D02*
X296053D01*
X255701Y234900D02*
X284801Y205800D01*
X310453Y173247D02*
X313400Y170300D01*
X308600Y173247D02*
X310453D01*
X259900Y166550D02*
Y170400D01*
X278600Y189100D02*
X328535Y239035D01*
X284000Y187900D02*
X330504Y234404D01*
X247000Y171000D02*
X259500Y158500D01*
X289195Y165600D02*
X301600D01*
X304800Y168800D01*
Y174300D01*
X307000Y176500D01*
X301600Y172000D02*
Y173494D01*
X298300Y168700D02*
X301600Y172000D01*
X287061Y168700D02*
X298300D01*
X280615Y162254D02*
X287061Y168700D01*
X300100Y173494D02*
X301600D01*
X298600Y176700D02*
X300100Y175200D01*
X298600Y176700D02*
Y182000D01*
X317723Y200123D01*
Y202400D01*
X332473Y217150D01*
X251764Y230336D02*
X273000Y209100D01*
Y176900D02*
Y209100D01*
Y176900D02*
X278400D01*
X282126Y173174D01*
X284200Y173447D01*
X196500Y144800D02*
Y233500D01*
Y144800D02*
X199100Y142200D01*
X223400D01*
X225600Y140000D01*
Y135400D02*
Y140000D01*
Y135400D02*
X226400Y134600D01*
X243582D01*
X248818Y139836D01*
X281398Y196600D02*
X324598Y239800D01*
X204300Y164200D02*
X220790Y147710D01*
X204300Y164200D02*
Y245500D01*
X205300Y246500D01*
X156647Y571400D02*
Y577353D01*
X151400Y582600D02*
X156647Y577353D01*
X151400Y582600D02*
Y603800D01*
X156000Y608400D01*
X312542Y143773D02*
X313490Y142825D01*
X317716D01*
X332700Y157810D01*
Y161300D01*
X301800Y122600D02*
Y125000D01*
X300000Y126800D02*
X301800Y125000D01*
X265800Y130000D02*
X270294Y125506D01*
X287354Y103146D02*
X292000Y98500D01*
X274300Y135800D02*
X279425D01*
X228553Y137600D02*
Y139406D01*
X181300Y561969D02*
X182694Y563363D01*
X181300Y550400D02*
Y561969D01*
X177000Y546100D02*
X181300Y550400D01*
X162153Y545200D02*
Y546100D01*
X226600Y169400D02*
Y174847D01*
X276700Y108300D02*
Y112400D01*
X137647Y548800D02*
Y551247D01*
X140800Y554400D01*
X143953Y556200D02*
Y556600D01*
X146900Y556200D02*
X152300Y550800D01*
Y543900D02*
Y550800D01*
Y543900D02*
X154400Y541800D01*
X146500Y249600D02*
Y421587D01*
X137087Y431000D02*
X146500Y421587D01*
X130500Y431000D02*
X137087D01*
X126900Y434600D02*
X130500Y431000D01*
X126900Y434600D02*
Y459600D01*
X123400Y463100D02*
X126900Y459600D01*
X123400Y463100D02*
Y489486D01*
X145909Y511995D01*
X165495D01*
X143800Y266900D02*
X143818Y266918D01*
Y418650D01*
X141600Y420869D02*
X143818Y418650D01*
X130912Y420869D02*
X141600D01*
X125200Y426581D02*
X130912Y420869D01*
X125200Y426581D02*
Y457800D01*
X121700Y461300D02*
X125200Y457800D01*
X121700Y461300D02*
Y501700D01*
X144300Y524300D01*
X183600D01*
X208000Y524700D02*
Y536877D01*
X209995Y537005D02*
X236048Y510952D01*
Y379400D02*
Y510952D01*
X253800Y327000D02*
X257600Y330800D01*
X253800Y304600D02*
Y327000D01*
X252500Y303300D02*
X253800Y304600D01*
X252500Y285500D02*
Y303300D01*
Y285500D02*
X263100Y274900D01*
X291371D01*
X295071Y271200D01*
X266300Y324100D02*
X297039Y293361D01*
X266300Y324100D02*
Y337400D01*
X239600Y364100D02*
X266300Y337400D01*
X239600Y364100D02*
Y382100D01*
X238000Y383700D02*
X239600Y382100D01*
X238000Y383700D02*
Y512748D01*
X261400Y382600D02*
Y391700D01*
Y382600D02*
X263000Y381000D01*
X92400Y151600D02*
X102847D01*
X89000Y155000D02*
X92400Y151600D01*
X102447Y207000D02*
Y210400D01*
X105647Y213600D01*
X113300D01*
X114100Y214400D01*
Y233700D01*
X108200Y239600D02*
X114100Y233700D01*
X395000Y382200D02*
Y383000D01*
X392800Y380000D02*
X395000Y382200D01*
X375419Y380000D02*
X392800D01*
X370616Y375196D02*
X375419Y380000D01*
X370616Y370916D02*
Y375196D01*
X330400Y362800D02*
X331000D01*
X324400Y356800D02*
X330400Y362800D01*
X324400Y284300D02*
Y356800D01*
X398095Y329500D02*
X400500Y331905D01*
X407000D02*
X409405Y329500D01*
X442300Y291100D02*
Y300100D01*
X443800Y301600D01*
Y307800D01*
X442800Y308800D02*
X443800Y307800D01*
X401500Y347400D02*
Y402400D01*
X396400Y407500D02*
X401500Y402400D01*
X358605Y363600D02*
X361391Y366386D01*
Y400391D01*
X363200Y402200D01*
X260200Y174047D02*
X262881D01*
Y166116D02*
Y174047D01*
X22400Y420895D02*
Y431000D01*
Y420895D02*
X23595Y419700D01*
Y408323D02*
Y419700D01*
X396000Y387500D02*
X397700Y385800D01*
Y380000D02*
Y385800D01*
X396000Y378300D02*
X397700Y380000D01*
X380200Y378300D02*
X396000D01*
X375100Y373200D02*
X380200Y378300D01*
X173756Y280256D02*
X183500D01*
X169500Y276000D02*
X173756Y280256D01*
X526000Y57600D02*
X535000D01*
X523200Y60400D02*
X526000Y57600D01*
X218800Y563300D02*
X220900Y565400D01*
X202600Y481200D02*
X207488D01*
X202400Y481000D02*
X202600Y481200D01*
X197556Y481000D02*
X202400D01*
X184700Y480672D02*
X188000Y483972D01*
X184700Y464700D02*
Y480672D01*
X289000Y421600D02*
X292500Y418100D01*
X297100D02*
X304000Y425000D01*
X373900Y286600D02*
X374300Y287000D01*
X263800Y179953D02*
X264200Y179553D01*
X260200Y179953D02*
X263800D01*
X198500Y280800D02*
Y284244D01*
X192444Y274744D02*
X198500Y280800D01*
X183500Y274744D02*
X192444D01*
X258700Y392800D02*
X259000Y393100D01*
X380800Y468500D02*
X383000Y466300D01*
Y460454D02*
Y466300D01*
X381246Y458700D02*
X383000Y460454D01*
X425548Y534152D02*
Y545400D01*
Y534152D02*
X425700Y534000D01*
X364100Y396000D02*
X368100Y400000D01*
X497800Y328800D02*
Y358200D01*
X493500Y324500D02*
X497800Y328800D01*
X480100Y324500D02*
X493500D01*
X464300Y308700D02*
X480100Y324500D01*
X463200Y308700D02*
X464300D01*
X461200Y306700D02*
X463200Y308700D01*
X461200Y290500D02*
Y306700D01*
X506200Y584600D02*
X509900Y580900D01*
X517600D01*
X541900Y556600D01*
Y375900D02*
Y556600D01*
Y375900D02*
X542700Y375100D01*
X441800Y336700D02*
Y353900D01*
X433400Y328300D02*
X441800Y336700D01*
X433400Y320100D02*
Y328300D01*
X427400Y314100D02*
X433400Y320100D01*
X427400Y306400D02*
Y314100D01*
X103600Y179500D02*
Y182800D01*
Y179500D02*
X104400Y178700D01*
Y170315D02*
Y178700D01*
X100485Y166400D02*
X104400Y170315D01*
X100485Y162400D02*
Y166400D01*
X334000Y332100D02*
X342294Y340394D01*
X478400Y210300D02*
Y232400D01*
X298800Y71600D02*
X310400D01*
X296700Y69500D02*
X298800Y71600D01*
X283000Y69500D02*
X296700D01*
X145556Y49844D02*
X146356Y49044D01*
X557800Y178200D02*
X566181Y186581D01*
Y465519D01*
X563500Y468200D02*
X566181Y465519D01*
X557800Y468200D02*
X563500D01*
X520400Y404171D02*
Y455200D01*
X519029Y402800D02*
X520400Y404171D01*
X510604Y402800D02*
X519029D01*
X506004Y398200D02*
X510604Y402800D01*
X502800Y398200D02*
X506004D01*
X498200Y453000D02*
X500400Y455200D01*
X498200Y407800D02*
Y453000D01*
X495700Y405300D02*
X498200Y407800D01*
X495700Y386600D02*
Y405300D01*
Y386600D02*
X497400Y384900D01*
X523400Y403736D02*
Y441500D01*
X517864Y398200D02*
X523400Y403736D01*
X512800Y398200D02*
X517864D01*
X471000Y318300D02*
X487400Y334700D01*
Y407553D01*
X408800Y303600D02*
Y311300D01*
Y303600D02*
X410400Y302000D01*
X495200Y363400D02*
X496500Y364700D01*
Y374700D01*
X494000Y377200D02*
X496500Y374700D01*
X494000Y377200D02*
Y412000D01*
X496500Y414500D01*
Y429400D01*
X496200Y429700D02*
X496500Y429400D01*
X381454Y539400D02*
Y545400D01*
X362754Y520700D02*
X381454Y539400D01*
X356500Y520700D02*
X362754D01*
X347300Y511500D02*
X356500Y520700D01*
X429200Y319600D02*
X431400Y321800D01*
Y330700D01*
X437400Y336700D01*
Y502200D01*
X470400Y535200D01*
X474400Y540200D02*
X475249Y539351D01*
Y499749D02*
Y539351D01*
X456847Y481347D02*
X475249Y499749D01*
X456847Y352647D02*
Y481347D01*
X447700Y343500D02*
X456847Y352647D01*
X327681Y284019D02*
X332330Y279370D01*
X214300Y277300D02*
X216167Y275433D01*
X126600Y465900D02*
Y467000D01*
X128800Y469200D01*
X133800D01*
X168300Y444200D02*
X171800D01*
X122100Y456100D02*
Y457700D01*
X119800Y460000D02*
X122100Y457700D01*
X119800Y460000D02*
Y521900D01*
X98600Y543100D02*
X119800Y521900D01*
X98600Y543100D02*
Y578400D01*
X51200Y625800D02*
X98600Y578400D01*
X31000Y625800D02*
X51200D01*
X31000Y615800D02*
Y625800D01*
Y615800D02*
X35200Y611600D01*
X44400Y458400D02*
X44443Y458443D01*
X108353Y207000D02*
X116800D01*
X120200Y210400D01*
Y238200D01*
X115800Y242600D02*
X120200Y238200D01*
X106300Y242600D02*
X115800D01*
X105300Y241600D02*
X106300Y242600D01*
X105300Y237215D02*
Y241600D01*
X266400Y263400D02*
Y266600D01*
X268000Y263394D02*
Y266994D01*
X266294Y268700D02*
X268000Y266994D01*
X249795Y264395D02*
X254100Y268700D01*
X64800Y30600D02*
X82100D01*
X106000Y6700D01*
X133600D01*
X138600Y11700D01*
Y54400D02*
X139556Y55356D01*
X141600D01*
X291000Y395100D02*
X291500Y395600D01*
X364700Y318044D02*
Y331100D01*
Y318044D02*
X366900Y315844D01*
X372500D02*
X373656Y317000D01*
X465500Y340600D02*
X476500Y351600D01*
Y372100D01*
X479100Y374700D01*
Y483534D01*
X481600Y486034D01*
Y549100D01*
X480700Y550000D02*
X481600Y549100D01*
X480700Y550000D02*
Y564762D01*
X478312Y567150D02*
X480700Y564762D01*
X478312Y567150D02*
Y575192D01*
X463814Y599600D02*
X468000D01*
X459814Y603600D02*
X463814Y599600D01*
X442934Y603600D02*
X459814D01*
X441296Y601962D02*
X442934Y603600D01*
X470400Y194400D02*
X473100Y191700D01*
X165000Y449200D02*
X171800D01*
X163000Y447200D02*
X165000Y449200D01*
X163000Y440900D02*
Y447200D01*
X116600Y459300D02*
Y479700D01*
X92300Y504000D02*
X116600Y479700D01*
X92300Y504000D02*
Y562300D01*
X75500Y579100D02*
X92300Y562300D01*
X47500Y579100D02*
X75500D01*
X43500Y583100D02*
X47500Y579100D01*
X43500Y583100D02*
Y613300D01*
X35200Y621600D02*
X43500Y613300D01*
X62178Y416000D02*
X77478Y431300D01*
X100500D01*
X115400Y446200D01*
X121400D02*
Y448100D01*
X94200Y475300D02*
X121400Y448100D01*
X82400Y475300D02*
X94200D01*
X133800Y464200D02*
X136600D01*
X139200Y466800D01*
Y471200D01*
X141100Y473100D01*
X141900D01*
X145400Y469600D01*
Y461600D02*
Y469600D01*
X133800Y454200D02*
Y456000D01*
X133000Y456800D02*
X133800Y456000D01*
X129400Y456800D02*
X133000D01*
X128600Y457600D02*
X129400Y456800D01*
X128600Y457600D02*
Y460800D01*
X129400Y461600D01*
X137500D01*
X141900Y466000D01*
Y467600D01*
X355400Y456259D02*
Y459646D01*
X156100Y498392D02*
X162554Y504846D01*
X156100Y465535D02*
Y498392D01*
X142365Y451800D02*
X156100Y465535D01*
X129600Y451800D02*
X142365D01*
X128600Y450800D02*
X129600Y451800D01*
X128600Y436300D02*
Y450800D01*
Y436300D02*
X132200Y432700D01*
X144533D01*
X151500Y425733D01*
Y398000D02*
Y425733D01*
Y398000D02*
X156000Y393500D01*
X207500D01*
X211072Y389928D01*
Y337731D02*
Y389928D01*
Y337731D02*
X212346Y336457D01*
X133800Y459200D02*
X138600D01*
X139600Y458200D01*
X108315Y257515D02*
Y272600D01*
X105300Y254500D02*
X108315Y257515D01*
X105300Y237215D02*
X110715Y231800D01*
Y229600D02*
Y231800D01*
X129600Y474200D02*
X133800D01*
X128245Y472845D02*
X129600Y474200D01*
X128245Y472645D02*
Y472845D01*
X136315Y588715D02*
X147500Y577530D01*
Y573400D02*
Y577530D01*
X146400Y572300D02*
X147500Y573400D01*
X143953Y571000D02*
Y572300D01*
X133800Y479200D02*
X145500D01*
X148700Y482400D01*
Y509200D01*
X133800Y484200D02*
X138400D01*
X140500Y486300D01*
Y490600D01*
X84700Y534900D02*
Y558900D01*
X66200Y577400D02*
X84700Y558900D01*
X39400Y577400D02*
X66200D01*
X35200Y581600D02*
X39400Y577400D01*
X176000Y481800D02*
X181600Y487400D01*
X167600Y481800D02*
X176000D01*
X166600Y480800D02*
X167600Y481800D01*
X166600Y477600D02*
Y480800D01*
Y477600D02*
X167400Y476800D01*
X178528D01*
X185700Y483972D01*
X180336Y486800D02*
X180936Y487400D01*
X167800Y486800D02*
X180336D01*
X166600Y488000D02*
X167800Y486800D01*
X166600Y488000D02*
Y491600D01*
X172100Y497100D01*
Y514400D01*
X177100Y519400D01*
X193900D01*
X194900Y518400D01*
Y516400D02*
Y518400D01*
Y516400D02*
X197356D01*
X221100Y296000D02*
X221700Y296600D01*
X104700Y267553D02*
X104953Y267300D01*
Y263200D02*
Y267300D01*
X535032Y21454D02*
Y40800D01*
X530432Y45400D02*
X535032Y40800D01*
X518200Y45400D02*
X530432D01*
X493200Y70400D02*
X518200Y45400D01*
X502600Y265600D02*
Y289100D01*
X498400Y293300D02*
X502600Y289100D01*
X532100Y227500D02*
X538500D01*
X557800Y208200D01*
X511400Y184200D02*
X512000Y184800D01*
X511400Y100900D02*
Y184200D01*
X507600Y97100D02*
X511400Y100900D01*
X380500Y88800D02*
Y97100D01*
X376900Y85200D02*
X380500Y88800D01*
X289800Y104700D02*
Y114100D01*
Y104700D02*
X291600Y102900D01*
X312800D01*
X327100Y117200D01*
Y125800D01*
X316100Y173847D02*
X316200D01*
X340856Y149056D02*
X350700D01*
X340800Y149000D02*
X340856Y149056D01*
X253000Y85700D02*
X263200Y95900D01*
X260700Y105100D02*
X263200Y102600D01*
X260700Y122800D02*
X262200Y124300D01*
X293900Y122500D02*
X295154Y123754D01*
X228953Y127300D02*
Y127800D01*
X292800Y106000D02*
X298100D01*
X292200Y106600D02*
X292800Y106000D01*
X292200Y106600D02*
Y110500D01*
X296700Y115000D01*
X107753Y30447D02*
X128000Y10200D01*
X106153Y291400D02*
Y303753D01*
X110700Y308300D01*
X145500Y444200D02*
X152300Y437400D01*
X139466Y444200D02*
X164200Y419466D01*
Y403900D02*
Y419466D01*
X330400Y286700D02*
X335761Y281339D01*
X138600Y52156D02*
X140000Y53556D01*
X138600Y47200D02*
Y52156D01*
X142100Y43700D02*
X234354D01*
X253000Y62346D02*
Y69500D01*
X441296Y594408D02*
Y601962D01*
X468000Y599600D02*
X472125Y595475D01*
Y581575D02*
X476100Y577600D01*
X101485Y101000D02*
Y105400D01*
X85900Y101000D02*
X101485D01*
X84900Y100000D02*
X85900Y101000D01*
X84900Y92000D02*
Y100000D01*
Y92000D02*
X86500Y90400D01*
X106153D01*
X107753Y92000D01*
X391200Y277000D02*
Y280800D01*
X387400Y273200D02*
X391200Y277000D01*
X502800Y418200D02*
X507400Y413600D01*
X514900D01*
X516500Y412000D01*
Y406600D02*
Y412000D01*
X514400Y404500D02*
X516500Y406600D01*
X508904Y404500D02*
X514400D01*
X506304Y401900D02*
X508904Y404500D01*
X500000Y401900D02*
X506304D01*
X499100Y401000D02*
X500000Y401900D01*
X499100Y395400D02*
Y401000D01*
Y395400D02*
X500000Y394500D01*
X504800D01*
X508900Y390400D01*
Y366300D02*
Y390400D01*
Y366300D02*
X510600Y364600D01*
Y214000D02*
Y364600D01*
Y214000D02*
X526800Y197800D01*
X478500Y278200D02*
X478600Y278300D01*
X433100Y131247D02*
Y147401D01*
X383500Y197001D02*
X433100Y147401D01*
X383500Y197001D02*
Y233603D01*
X389200Y84000D02*
X392600D01*
X387600Y82400D02*
X389200Y84000D01*
X387600Y66400D02*
Y82400D01*
X385600Y64400D02*
X387600Y66400D01*
X380000Y64400D02*
X385600D01*
X376000Y68400D02*
X380000Y64400D01*
X376000Y68400D02*
Y81100D01*
X375200Y81900D02*
X376000Y81100D01*
X332000Y81900D02*
X375200D01*
X331000Y80900D02*
X332000Y81900D01*
X331000Y72600D02*
Y80900D01*
Y72600D02*
X332000Y71600D01*
X334000D01*
X222847Y53600D02*
Y101400D01*
X217291Y48044D02*
X222847Y53600D01*
X189000Y48044D02*
X217291D01*
X97685Y268585D02*
Y272600D01*
X96800Y267700D02*
X97685Y268585D01*
X84300Y267700D02*
X96800D01*
X84300Y259100D02*
Y267700D01*
Y259100D02*
X103153D01*
X104953Y260900D01*
Y263200D01*
X199200Y149400D02*
X202858Y145742D01*
X199200Y149400D02*
Y254654D01*
X208168Y263622D01*
X206000Y170700D02*
Y243100D01*
Y170700D02*
X210400Y166300D01*
X243200D01*
X259900Y149600D01*
X241000Y142000D02*
X242773Y143773D01*
X202600Y156500D02*
X210300Y148800D01*
X202600Y156500D02*
Y255200D01*
X209054Y261654D01*
X351200Y136100D02*
X353700Y138600D01*
Y200800D01*
X341300Y213200D02*
X353700Y200800D01*
X275700Y234900D02*
X279800Y239000D01*
X372329Y447700D02*
X377029Y443000D01*
X293700Y237900D02*
X319200D01*
X286500Y535000D02*
X288100Y536600D01*
X422398Y537200D02*
Y545400D01*
X313400Y522500D02*
X316000Y525100D01*
Y548600D01*
X393700Y551800D02*
X396302D01*
X397202Y550900D01*
Y545400D02*
Y550900D01*
X372700Y292100D02*
X372800Y292000D01*
X403700Y194800D02*
X404300Y195400D01*
X386900Y201950D02*
X394050Y194800D01*
X386900Y201950D02*
Y239056D01*
X360920Y265036D02*
X386900Y239056D01*
X360920Y265036D02*
Y277620D01*
X365300Y282000D01*
X427636Y505807D02*
X429518Y503925D01*
Y474524D02*
Y503925D01*
Y474524D02*
X429700Y474341D01*
Y417000D02*
Y474341D01*
X431800Y539600D02*
X431847Y539647D01*
X433100Y407300D02*
Y513822D01*
X431847Y515075D02*
X433100Y513822D01*
X553500Y232500D02*
X557800Y228200D01*
X553500Y232500D02*
Y261600D01*
X555800Y263900D01*
X560900D01*
X562100Y265100D01*
Y280800D01*
X559700Y283200D02*
X562100Y280800D01*
X551200Y283200D02*
X559700D01*
X540000Y294400D02*
X551200Y283200D01*
X540000Y294400D02*
Y458200D01*
X524500Y473700D02*
X540000Y458200D01*
X419400Y468900D02*
Y484600D01*
X254000Y536700D02*
X258400Y541100D01*
Y565300D02*
X269100Y576000D01*
X278400D01*
X311500Y542900D01*
X256500Y534800D02*
X271000Y549300D01*
Y573300D01*
X395976Y588300D02*
X397202Y589525D01*
Y594408D01*
X231700Y174247D02*
X236800D01*
X218256Y296000D02*
X221100D01*
X51200Y476600D02*
X52120Y475680D01*
X40278Y476600D02*
X51200D01*
X32700Y469022D02*
X40278Y476600D01*
X32700Y433667D02*
Y469022D01*
Y433667D02*
X50367Y416000D01*
X52380Y478300D02*
X54680Y476000D01*
X36878Y478300D02*
X52380D01*
X31000Y472422D02*
X36878Y478300D01*
X31000Y420632D02*
Y472422D01*
Y420632D02*
X38832Y412800D01*
X53072D01*
X56272Y416000D01*
X388500Y244396D02*
Y267700D01*
Y244396D02*
X390300Y242596D01*
Y219100D02*
Y242596D01*
Y219100D02*
X404000Y205400D01*
X368500Y270500D02*
X389600D01*
X391200Y268900D01*
Y266500D02*
Y268900D01*
X390400Y265700D02*
X391200Y266500D01*
X390400Y245896D02*
Y265700D01*
Y245896D02*
X392000Y244296D01*
Y234800D02*
Y244296D01*
Y234800D02*
X416400Y210400D01*
X381800Y68600D02*
Y74900D01*
X383400Y76500D01*
Y191900D01*
X381750Y193550D02*
X383400Y191900D01*
X381750Y193550D02*
Y230339D01*
X498400Y293300D02*
X501600Y296500D01*
X388800Y586900D02*
X390900Y584800D01*
X385300Y586900D02*
X388800D01*
X381454Y590746D02*
X385300Y586900D01*
X381454Y590746D02*
Y594408D01*
X390902Y545400D02*
Y566712D01*
X380800Y576814D02*
X390902Y566712D01*
X448500Y530800D02*
X450800D01*
X261500Y452800D02*
X262300Y453600D01*
X210712Y447400D02*
Y452412D01*
X393800Y554302D02*
Y578900D01*
X402471Y587571D01*
X405671D01*
X401500Y554405D02*
Y574100D01*
Y554405D02*
X403501Y552404D01*
Y545400D02*
Y552404D01*
X406650Y545400D02*
Y555200D01*
X429500Y557100D02*
X431600Y559200D01*
X466300D01*
X469900Y562800D01*
Y570900D01*
X466200Y574600D02*
X469900Y570900D01*
X434997Y360497D02*
Y545400D01*
X211505Y289756D02*
X212865Y291117D01*
X198500Y289756D02*
X211505D01*
X280923Y359200D02*
X284365D01*
X229600Y94300D02*
X253800D01*
X226100Y97800D02*
X229600Y94300D01*
X226100Y97800D02*
Y103700D01*
X229153Y106753D01*
Y109600D01*
X200500Y488600D02*
X204000Y485100D01*
X218300D01*
X221300Y482100D01*
Y479100D02*
Y482100D01*
Y479100D02*
X224500Y475900D01*
Y405500D02*
Y475900D01*
X223505Y404505D02*
X224500Y405500D01*
X229050Y405744D02*
Y429900D01*
Y405744D02*
X230948Y403846D01*
Y398446D02*
Y403846D01*
X229460Y396958D02*
X230948Y398446D01*
X229460Y369340D02*
Y396958D01*
X229200Y500880D02*
X230300Y499780D01*
Y483400D02*
Y499780D01*
Y483400D02*
X234348Y479352D01*
Y394448D02*
Y479352D01*
X232860Y392960D02*
X234348Y394448D01*
X232860Y375740D02*
Y392960D01*
Y375740D02*
X235200Y373400D01*
X218900Y348000D02*
Y370700D01*
X472500Y548300D02*
X476200Y544600D01*
X472500Y548300D02*
Y571825D01*
X470800Y573524D02*
X472500Y571825D01*
X470800Y573524D02*
Y576900D01*
X468500Y579200D02*
X470800Y576900D01*
X440597Y579200D02*
X468500D01*
X434997Y584800D02*
X440597Y579200D01*
X434997Y584800D02*
Y594408D01*
X412950Y519450D02*
Y545400D01*
Y519450D02*
X414700Y517700D01*
Y467700D02*
Y517700D01*
X417300Y444900D02*
X422900Y450500D01*
Y489400D01*
X419174Y493126D02*
X422900Y489400D01*
X428698Y532998D02*
Y545400D01*
X204000Y433400D02*
X208000Y429400D01*
Y421600D02*
Y429400D01*
Y421600D02*
X209700Y419900D01*
X214900D01*
X217200Y417600D01*
Y374300D02*
Y417600D01*
X216200Y373300D02*
X217200Y374300D01*
X216200Y344162D02*
Y373300D01*
Y344162D02*
X218000Y342362D01*
X182077Y435505D02*
X182700Y434882D01*
X182077Y435505D02*
Y460523D01*
X178400Y464200D02*
X182077Y460523D01*
X171800Y464200D02*
X178400D01*
X187500Y481000D02*
X192044D01*
X187098Y480598D02*
X187500Y481000D01*
X180300Y431200D02*
X184295Y427205D01*
X180300Y431200D02*
Y452300D01*
X178400Y454200D02*
X180300Y452300D01*
X171800Y454200D02*
X178400D01*
X159900Y573800D02*
X160800Y574700D01*
X159900Y568400D02*
Y573800D01*
Y568400D02*
X160800Y567500D01*
X163100D01*
X165000Y565600D01*
Y551500D02*
Y565600D01*
X164000Y550500D02*
X165000Y551500D01*
X157600Y550500D02*
X164000D01*
X156400Y551700D02*
X157600Y550500D01*
X156400Y551700D02*
Y553800D01*
X343000Y456800D02*
X350100D01*
X214500Y342400D02*
Y415900D01*
Y342400D02*
X216506Y340394D01*
X205200Y447400D02*
Y451800D01*
X210712Y445212D02*
Y447400D01*
X209800Y444300D02*
X210712Y445212D01*
X200800Y444300D02*
X209800D01*
X199712Y445388D02*
X200800Y444300D01*
X199712Y445388D02*
Y447400D01*
X318806Y384273D02*
X321200Y386666D01*
Y389400D01*
X360171Y428371D01*
X320661Y382200D02*
X345063Y406601D01*
Y410463D01*
X361371Y426771D01*
X375412D01*
X322630Y380187D02*
X349044Y406601D01*
Y411344D01*
X362183Y424483D01*
X373801D01*
X375000Y423284D01*
Y419300D02*
Y423284D01*
X312787Y383687D02*
X318500Y389400D01*
X397900Y416900D02*
Y451700D01*
X191728Y383681D02*
X197600Y389553D01*
X191728Y333832D02*
Y383681D01*
Y333832D02*
X211272Y314289D01*
X214464D01*
X203118Y336444D02*
X206400D01*
X196918Y342644D02*
X203118Y336444D01*
X206000Y346300D02*
Y350247D01*
Y346300D02*
X206400Y345900D01*
Y341956D02*
Y345900D01*
X334000Y332100D02*
X340300D01*
X244100Y346299D02*
X250650Y339750D01*
X258800Y293000D02*
Y324900D01*
X298800Y395200D02*
X299600Y394400D01*
X303100D01*
X293500Y386200D02*
X305400D01*
X290500Y383200D02*
X293500Y386200D01*
X317200Y397400D02*
Y409000D01*
X312800Y413400D02*
X317200Y409000D01*
X380200Y478936D02*
Y481900D01*
X195300Y534400D02*
X197444D01*
X195300Y530900D02*
Y534400D01*
X208556Y516400D02*
X214700D01*
X226900Y484700D02*
Y489502D01*
X225700Y483500D02*
X226900Y484700D01*
X171800Y474200D02*
X180700D01*
X213000Y481200D02*
X216900D01*
X207200Y555900D02*
X211069D01*
X215113Y551856D01*
X275386Y387945D02*
X281181Y393740D01*
X295600Y541000D02*
X299000Y537600D01*
X299064Y139836D02*
X300200Y138700D01*
X202956Y521544D02*
Y534400D01*
Y521544D02*
X203044Y521456D01*
Y516400D02*
Y521456D01*
X255200Y289800D02*
X262500Y282500D01*
X269480Y390857D02*
X271500Y392877D01*
X273417Y388558D02*
X279000Y394140D01*
X245600Y278300D02*
X248921Y281621D01*
Y300379D01*
X264000Y387843D02*
X265543Y386300D01*
X477300Y296800D02*
X478300Y295800D01*
X359300Y402700D02*
X364000Y407400D01*
X359300Y371000D02*
Y402700D01*
X196128Y485672D02*
X198000Y487544D01*
X182372Y485672D02*
X196128D01*
X175900Y479200D02*
X182372Y485672D01*
X171800Y479200D02*
X175900D01*
X243890Y224582D02*
X270772Y197700D01*
Y175219D02*
Y197700D01*
X269200Y173647D02*
X270772Y175219D01*
X267800Y173647D02*
X269200D01*
X308600Y159200D02*
Y173247D01*
X301000Y151600D02*
X308600Y159200D01*
X288800Y151600D02*
X301000D01*
X287000Y149800D02*
X288800Y151600D01*
X273300Y172800D02*
X274147Y173647D01*
X276000D01*
X285228Y386828D02*
X291500Y393100D01*
X363900Y397800D02*
X366100Y400000D01*
X391800Y472800D02*
X393400Y471200D01*
X391800Y472800D02*
Y496800D01*
X393700Y498700D01*
X397200Y397500D02*
X398800Y399100D01*
X311111Y141805D02*
X311790Y141125D01*
X319616D01*
X320590Y142100D01*
X332700D01*
X273726Y105854D02*
Y108300D01*
Y105854D02*
X275100Y104480D01*
Y82400D02*
Y104480D01*
Y82400D02*
X278000Y79500D01*
X267393Y106668D02*
Y111707D01*
Y106668D02*
X273000Y101062D01*
Y69500D02*
Y101062D01*
X334000Y77506D02*
X336000D01*
X337000Y76506D01*
Y68800D02*
Y76506D01*
X332000Y63800D02*
X337000Y68800D01*
X268000Y63800D02*
X332000D01*
X263800Y68000D02*
X268000Y63800D01*
X263800Y82600D02*
X264900Y83700D01*
X262420Y108100D02*
X264900Y105620D01*
X259800Y174047D02*
X260200D01*
X258600Y177200D02*
X259800Y176000D01*
X243200Y177200D02*
X258600D01*
X242400Y178000D02*
X243200Y177200D01*
X242400Y178000D02*
Y183300D01*
X241200Y184500D02*
X242400Y183300D01*
X223100Y184500D02*
X241200D01*
X217300Y178700D02*
X223100Y184500D01*
X207700Y178700D02*
X217300D01*
X207700D02*
Y227800D01*
X235700Y255800D01*
X275700Y162700D02*
X279900Y166900D01*
Y170947D01*
X282400Y173447D02*
X284200D01*
X270976Y161239D02*
Y172896D01*
X270224Y173647D02*
X270976Y172896D01*
X252800Y174047D02*
X253200D01*
Y171400D02*
X254343Y170257D01*
X256194D01*
X245600Y174247D02*
X247000D01*
X187800Y514600D02*
X189600Y516400D01*
X191844D01*
X342315Y369823D02*
Y390115D01*
X361595Y399795D02*
X364000Y402200D01*
X407500Y424200D02*
Y435900D01*
Y424200D02*
X411200Y420500D01*
Y400000D02*
Y420500D01*
X405800Y394600D02*
X411200Y400000D01*
X405800Y389600D02*
Y394600D01*
Y389600D02*
X407900Y387500D01*
X281600Y179353D02*
X284200D01*
X281400Y179553D02*
X281600Y179353D01*
X276000Y179553D02*
X281400D01*
X263000Y69500D02*
Y83700D01*
X264900Y85600D01*
X262420Y109300D02*
X264900Y106820D01*
X380000Y456200D02*
X383500Y452700D01*
X382900Y471439D02*
Y493600D01*
X382661Y471200D02*
X382900Y471439D01*
X294000Y495200D02*
X295300Y496500D01*
X416099Y527000D02*
Y545400D01*
X476700Y293600D02*
X478900Y295800D01*
X362042Y342258D02*
X367300Y337000D01*
X243077Y317200D02*
X249156D01*
X221500Y319200D02*
Y322946D01*
X531800Y421200D02*
X533200Y422600D01*
X531800Y412200D02*
Y421200D01*
X386900Y527600D02*
X392800Y533500D01*
X406500D01*
X409800Y536800D01*
Y545400D01*
X289000Y413500D02*
X293600Y418100D01*
X300000D02*
X304000Y414100D01*
X221700Y296600D02*
X222187Y297087D01*
X214756Y293000D02*
X222020D01*
X183500Y280256D02*
Y304200D01*
X188000Y308700D01*
X213494D01*
X410100Y516700D02*
X412600Y514200D01*
X410100Y516700D02*
Y527600D01*
X405600Y532100D02*
X410100Y527600D01*
X391900Y532100D02*
X405600D01*
X387000Y527200D02*
X391900Y532100D01*
X408892Y390356D02*
X409248Y390000D01*
X471000Y439054D02*
Y455600D01*
X467400Y435454D02*
X471000Y439054D01*
X467400Y415700D02*
Y435454D01*
X466200Y414500D02*
X467400Y415700D01*
X185600Y300000D02*
X189400Y303800D01*
X185600Y289844D02*
Y300000D01*
Y289844D02*
X191200Y284244D01*
X198500D01*
X212744Y296000D02*
Y300000D01*
X208988Y303756D02*
X212744Y300000D01*
X455400Y544600D02*
X466200D01*
X445800Y554200D02*
X455400Y544600D01*
X430000Y554200D02*
X445800D01*
X425548Y549748D02*
X430000Y554200D01*
X425548Y545400D02*
Y549748D01*
X557800Y258200D02*
X563800Y264200D01*
Y382200D01*
X557800Y388200D02*
X563800Y382200D01*
X476200Y199200D02*
X476900D01*
X478800Y197300D01*
X478300Y247000D02*
Y265100D01*
X266132Y395500D02*
X266500Y395868D01*
X266132Y388980D02*
X267512Y387600D01*
X143553Y543200D02*
Y548800D01*
Y543200D02*
X147253Y539500D01*
X245600Y180153D02*
Y183000D01*
X242400Y186200D02*
X245600Y183000D01*
X215200Y186200D02*
X242400D01*
X211400Y182400D02*
X215200Y186200D01*
X75402Y496702D02*
X77600Y498900D01*
X498400Y226100D02*
Y287600D01*
X526086Y52088D02*
X535000D01*
X525487Y52687D02*
X526086Y52088D01*
X226985Y561700D02*
X230885Y565600D01*
Y588600D01*
X229600Y98500D02*
X249000D01*
X228753Y99347D02*
X229600Y98500D01*
X228753Y99347D02*
Y101400D01*
X254400Y103100D02*
X259000Y98500D01*
X242753Y103100D02*
X254400D01*
X228753Y117100D02*
X242753Y103100D01*
X228753Y117100D02*
Y119600D01*
X197600Y376088D02*
X200800Y372888D01*
X164847Y196353D02*
Y202600D01*
Y196353D02*
X168800Y192400D01*
X181400D01*
X523200Y40400D02*
X527200D01*
X528300Y39300D01*
Y21000D02*
Y39300D01*
X537000Y15700D02*
Y15746D01*
X551400Y57600D02*
X564000Y45000D01*
X64800Y54100D02*
Y91400D01*
X89200Y115800D01*
X111115Y158162D02*
Y162400D01*
X108753Y155800D02*
X111115Y158162D01*
X108753Y151600D02*
Y155800D01*
X109506Y180806D02*
Y182800D01*
X107700Y179000D02*
X109506Y180806D01*
X107700Y158600D02*
Y179000D01*
X102847Y153747D02*
X107700Y158600D01*
X102847Y151600D02*
Y153747D01*
X232300Y180153D02*
X236800D01*
X231700Y180753D02*
X232300Y180153D01*
X226600Y180753D02*
X231700D01*
X250472Y179953D02*
X252800D01*
X250272Y180153D02*
X250472Y179953D01*
X245600Y180153D02*
X250272D01*
X316206Y77706D02*
X318800D01*
X313400Y74900D02*
X316206Y77706D01*
X278400Y74900D02*
X313400D01*
X273000Y69500D02*
X278400Y74900D01*
X371400Y71600D02*
Y79294D01*
X370100Y70300D02*
X371800Y68600D01*
X99047Y263200D02*
X101100D01*
Y287847D01*
X100247Y288700D02*
X101100Y287847D01*
X100247Y288700D02*
Y291400D01*
X278000Y79500D02*
X282500D01*
X283800Y80800D01*
Y83700D01*
X319606D01*
X325600Y77706D01*
X326000D01*
X451000Y450000D02*
Y455600D01*
X449100Y448100D02*
X451000Y450000D01*
X449100Y401900D02*
Y448100D01*
Y401900D02*
X452800Y398200D01*
X101847Y93800D02*
X103800D01*
Y95900D01*
X106800Y98900D01*
Y119100D01*
X101447Y124453D02*
X106800Y119100D01*
X101447Y124453D02*
Y127000D01*
X100685Y170200D02*
Y174400D01*
X88800Y170200D02*
X100685D01*
X84100Y174900D02*
Y224000D01*
X86185Y226085D01*
X100085D02*
Y229600D01*
X93500Y272600D02*
X97685D01*
X92700Y273400D02*
X93500Y272600D01*
X88600Y273400D02*
X92700D01*
X147956Y48688D02*
X153200D01*
X171400Y49244D02*
X177000D01*
X171200Y49044D02*
X171400Y49244D01*
X165600Y49044D02*
X171200D01*
X183600Y48044D02*
X189000D01*
X182400Y49244D02*
X183600Y48044D01*
X177000Y49244D02*
X182400D01*
X223247Y105700D02*
Y109600D01*
X222847Y105300D02*
X223247Y105700D01*
X222847Y101400D02*
Y105300D01*
Y114800D02*
Y119600D01*
Y114800D02*
X223247Y114400D01*
Y109600D02*
Y114400D01*
X223047Y123800D02*
Y127800D01*
X222847Y123600D02*
X223047Y123800D01*
X222847Y119600D02*
Y123600D01*
X284200Y179353D02*
X293200D01*
X314700Y71800D02*
X318800D01*
X314500Y71600D02*
X314700Y71800D01*
X310400Y71600D02*
X314500D01*
X318800Y71800D02*
X326000D01*
X329900D02*
X330100Y71600D01*
X326000Y71800D02*
X329900D01*
X192983Y471398D02*
Y473957D01*
X197200Y539544D02*
Y544575D01*
Y539544D02*
X197444Y539300D01*
Y534400D02*
Y539300D01*
X197200Y544575D02*
X199759D01*
X59798Y467017D02*
X62357D01*
X72843Y443983D02*
X75402D01*
X181400Y182400D02*
Y192400D01*
X96000Y162400D02*
X100485D01*
X93400Y165000D02*
X96000Y162400D01*
X89000Y165000D02*
X93400D01*
X95100Y174400D02*
X100685D01*
X94500Y175000D02*
X95100Y174400D01*
X89000Y175000D02*
X94500D01*
X94400Y229600D02*
X100085D01*
X94000Y230000D02*
X94400Y229600D01*
X88400Y230000D02*
X94000D01*
X93400Y282800D02*
X97685D01*
X92800Y283400D02*
X93400Y282800D01*
X88600Y283400D02*
X92800D01*
X194000Y437441D02*
Y440000D01*
X192983Y505998D02*
Y508557D01*
X95500Y105400D02*
X101485D01*
X95100Y105800D02*
X95500Y105400D01*
X89200Y105800D02*
X95100D01*
X183500Y262512D02*
Y274744D01*
X147956Y54200D02*
X153200D01*
X146800Y55356D02*
X147956Y54200D01*
X141600Y55356D02*
X146800D01*
X159556Y54556D02*
X165600D01*
X159200Y54200D02*
X159556Y54556D01*
X153200Y54200D02*
X159200D01*
X171400Y54756D02*
X177000D01*
X171200Y54556D02*
X171400Y54756D01*
X165600Y54556D02*
X171200D01*
X183600Y53556D02*
X189000D01*
X182400Y54756D02*
X183600Y53556D01*
X177000Y54756D02*
X182400D01*
X252800Y179953D02*
X260200D01*
X211400Y182400D02*
Y192400D01*
Y202400D01*
Y212400D01*
X352059Y273465D02*
Y275433D01*
Y277402D01*
X197356Y516400D02*
X203044D01*
X207436Y568000D02*
X209995D01*
X106153Y288162D02*
Y291400D01*
Y288162D02*
X108315Y286000D01*
Y282800D02*
Y286000D01*
Y272600D02*
Y282800D01*
X108353Y196847D02*
Y207000D01*
Y196847D02*
X112400Y192800D01*
Y179085D02*
Y192800D01*
X111315Y178000D02*
X112400Y179085D01*
X111315Y174400D02*
Y178000D01*
Y168500D02*
Y174400D01*
X111115Y168300D02*
X111315Y168500D01*
X111115Y162400D02*
Y168300D01*
X108753Y140000D02*
Y151600D01*
X107353Y138600D02*
X108753Y140000D01*
X107353Y127000D02*
Y138600D01*
Y123862D02*
Y127000D01*
Y123862D02*
X112115Y119100D01*
Y116000D02*
Y119100D01*
Y105400D02*
Y116000D01*
X307312Y120803D02*
X311715Y116400D01*
Y114800D02*
Y116400D01*
X350700Y149056D02*
Y154844D01*
X204697Y389553D02*
X206600D01*
X199500Y384356D02*
X204697Y389553D01*
X197600Y384356D02*
X199500D01*
X206600Y378400D02*
Y383647D01*
X193844Y298244D02*
X198500D01*
X193100Y297500D02*
X193844Y298244D01*
X188500Y297500D02*
X193100D01*
X392600Y73700D02*
Y78094D01*
X391800Y72900D02*
X392600Y73700D01*
X391800Y68600D02*
Y72900D01*
X95000Y218400D02*
X100085D01*
X93400Y220000D02*
X95000Y218400D01*
X88400Y220000D02*
X93400D01*
X176200Y212400D02*
X181400D01*
X176000Y212600D02*
X176200Y212400D01*
X170953Y212600D02*
X176000D01*
X176100Y202400D02*
X181400D01*
X175900Y202600D02*
X176100Y202400D01*
X170753Y202600D02*
X175900D01*
X143953Y567097D02*
Y571000D01*
X143756Y566900D02*
X143953Y567097D01*
X143756Y563000D02*
Y566900D01*
X156647Y567103D02*
Y571400D01*
X156644Y567100D02*
X156647Y567103D01*
X156644Y563000D02*
Y567100D01*
X342144Y160356D02*
X350700D01*
X341200Y161300D02*
X342144Y160356D01*
X332700Y161300D02*
X341200D01*
X342344Y143544D02*
X350700D01*
X340900Y142100D02*
X342344Y143544D01*
X332700Y142100D02*
X340900D01*
X301800Y119015D02*
Y122600D01*
X301085Y118300D02*
X301800Y119015D01*
X301085Y114800D02*
Y118300D01*
X138244Y559897D02*
Y563000D01*
X138047Y559700D02*
X138244Y559897D01*
X138047Y556600D02*
Y559700D01*
X162156Y558450D02*
Y563000D01*
Y558450D02*
X162306Y558300D01*
Y553800D02*
Y558300D01*
X300194Y77506D02*
X310400D01*
X298200Y79500D02*
X300194Y77506D01*
X288000Y79500D02*
X298200D01*
X156247Y549400D02*
X156400Y549553D01*
X156247Y545200D02*
Y549400D01*
X95400Y116000D02*
X101485D01*
X95200Y115800D02*
X95400Y116000D01*
X89200Y115800D02*
X95200D01*
X93900Y263200D02*
X99047D01*
X93700Y263400D02*
X93900Y263200D01*
X88600Y263400D02*
X93700D01*
X96500Y93800D02*
X101847D01*
X94500Y95800D02*
X96500Y93800D01*
X89200Y95800D02*
X94500D01*
X96900Y207000D02*
X102447D01*
X93900Y210000D02*
X96900Y207000D01*
X88400Y210000D02*
X93900D01*
D32*
X215113Y565400D02*
X220900D01*
X154400Y541800D02*
X192082D01*
X202318Y560518D02*
Y562218D01*
X215113Y565400D02*
Y568000D01*
Y563300D02*
Y565400D01*
Y563300D02*
X218800D01*
X208436D02*
X209995D01*
X197100Y557000D02*
X202318Y562218D01*
Y568000D01*
X215113Y544575D02*
Y551856D01*
X192400Y559700D02*
X194500D01*
X197200Y562400D01*
Y568000D01*
X212554D02*
Y578546D01*
X204877Y568000D02*
Y575238D01*
X199759Y568000D02*
Y573000D01*
X196600Y576159D02*
X199759Y573000D01*
X194641Y564404D02*
Y568000D01*
X193600Y563363D02*
X194641Y564404D01*
X182694Y563363D02*
X193600D01*
X192082Y541800D02*
Y544575D01*
X207436D02*
Y550400D01*
X204877Y540000D02*
X208000Y536877D01*
X204877Y540000D02*
Y544575D01*
X209995Y537005D02*
Y544575D01*
X212554Y538194D02*
X238000Y512748D01*
X212554Y538194D02*
Y544575D01*
X207436Y564300D02*
Y568000D01*
Y564300D02*
X208436Y563300D01*
X192082Y568000D02*
Y574000D01*
X191382Y574700D02*
X192082Y574000D01*
X160800Y574700D02*
X191382D01*
X202318Y544575D02*
Y551018D01*
X207200Y555900D01*
X202318Y538338D02*
Y544575D01*
Y538338D02*
X202956Y537700D01*
Y534400D02*
Y537700D01*
X196200Y554400D02*
X199759Y550841D01*
Y544575D02*
Y550841D01*
X147253Y539500D02*
X193600D01*
X194641Y540541D01*
Y544575D01*
X204877Y564323D02*
Y568000D01*
Y564323D02*
X207500Y561700D01*
X226985D01*
X209995Y563300D02*
Y568000D01*
Y563300D02*
X215113D01*
D33*
X296200Y147710D02*
X300500D01*
X290964D02*
X296200D01*
X271755Y157188D02*
X272263D01*
X275600Y127244D02*
X276400Y128044D01*
X272263Y123907D02*
X275600Y127244D01*
X268326Y154600D02*
Y158125D01*
X276200Y119167D02*
Y123700D01*
X280137Y154600D02*
X280615Y158578D01*
X272263Y119167D02*
Y123907D01*
X282105Y119167D02*
Y122995D01*
X290964Y133931D02*
X354869D01*
X290964Y131962D02*
X295200D01*
X272263Y154600D02*
Y157188D01*
X270294Y119167D02*
Y125506D01*
Y154600D02*
Y158702D01*
X251568Y137868D02*
X255531D01*
X220790Y147710D02*
X255531D01*
X287125Y128025D02*
X290964D01*
X242773Y143773D02*
X255531D01*
X287901Y135899D02*
X290964D01*
X202858Y145742D02*
X255531D01*
X248818Y139836D02*
X255531D01*
X290964D02*
X299064D01*
X290964Y145742D02*
X294600D01*
X266357Y119167D02*
Y122743D01*
X274231Y154600D02*
Y157569D01*
X278168Y154600D02*
Y161000D01*
X290964Y137868D02*
X294900D01*
X266357Y154600D02*
Y157600D01*
X282105Y154600D02*
Y158511D01*
X276200Y154600D02*
Y158700D01*
X255531Y141805D02*
X258505D01*
X290964Y143773D02*
X312542D01*
X290964Y141805D02*
X311111D01*
X290964Y129994D02*
X293960D01*
X262400Y128000D02*
Y143394D01*
X264900Y149800D02*
X266990Y147710D01*
X256194Y170257D02*
X259900Y166550D01*
X259500Y158500D02*
X262747D01*
X262420Y109300D02*
Y119167D01*
Y108100D02*
Y109300D01*
X262400Y154580D02*
X262420Y154600D01*
X262400Y143394D02*
Y154580D01*
X294600Y145742D02*
X296200Y147342D01*
X264389Y150311D02*
Y154600D01*
Y150311D02*
X264900Y149800D01*
X259900Y166550D02*
X268326Y158125D01*
X265457Y158500D02*
X266357Y157600D01*
X282105Y158511D02*
X289195Y165600D01*
X280615Y158578D02*
Y162254D01*
X250400Y136700D02*
X251568Y137868D01*
X281535Y126510D02*
X282105Y122995D01*
X280000Y128044D02*
X281535Y126510D01*
X276400Y128044D02*
X280000D01*
X282400Y146852D02*
X284074Y148526D01*
X282400Y146000D02*
Y146852D01*
X284074Y148526D02*
Y154600D01*
X286300Y125678D02*
X287125Y128025D01*
X286300Y125678D02*
X287354Y124624D01*
Y103146D02*
Y124624D01*
X279425Y135800D02*
X287125Y128025D01*
X276700Y112400D02*
Y114500D01*
X278168Y115968D01*
Y119167D01*
X281535Y123565D02*
X282105Y122995D01*
X281535Y123565D02*
Y126510D01*
X262881Y166116D02*
X270294Y158702D01*
X274231Y114000D02*
Y119167D01*
X284074Y115074D02*
Y119167D01*
X283100Y114100D02*
X284074Y115074D01*
X262200Y124300D02*
X264800D01*
X266357Y122743D01*
X293960Y129994D02*
X295154Y128800D01*
Y123754D02*
Y128800D01*
X296700Y115000D02*
Y130462D01*
X295200Y131962D02*
X296700Y130462D01*
X259900Y143200D02*
Y149600D01*
X258505Y141805D02*
X259900Y143200D01*
X294900Y137868D02*
X296668Y136100D01*
X351200D01*
X276200Y123700D02*
X277800Y125300D01*
X287000Y136800D02*
Y149800D01*
Y136800D02*
X287901Y135899D01*
X273300Y158500D02*
X274231Y157569D01*
X273300Y158500D02*
Y172800D01*
X280137Y107184D02*
Y119167D01*
X268326Y113700D02*
Y119167D01*
Y113700D02*
X273726Y108300D01*
X264389Y114711D02*
Y119167D01*
Y114711D02*
X267393Y111707D01*
X275700Y159200D02*
X276200Y158700D01*
X275700Y159200D02*
Y162700D01*
X271755Y157188D02*
Y160461D01*
X270976Y161239D02*
X271755Y160461D01*
X262747Y158500D02*
X265457D01*
X247000Y174247D02*
X262747Y158500D01*
D34*
X136315Y588715D02*
D03*
X156000D02*
D03*
Y608400D02*
D03*
X175685Y618242D02*
D03*
X136315D02*
D03*
X175685Y608400D02*
D03*
X136315D02*
D03*
X175685Y588715D02*
D03*
X165842D02*
D03*
X146157D02*
D03*
X191515Y588600D02*
D03*
X211200D02*
D03*
Y608285D02*
D03*
X230885Y618127D02*
D03*
X191515D02*
D03*
X230885Y608285D02*
D03*
X191515D02*
D03*
X230885Y588600D02*
D03*
X221043D02*
D03*
X201358D02*
D03*
D35*
X490400Y455200D02*
D03*
X500400D02*
D03*
X510400D02*
D03*
X461000Y455600D02*
D03*
X471000D02*
D03*
X381800Y68600D02*
D03*
X391800D02*
D03*
X501000Y113000D02*
D03*
X491000Y123000D02*
D03*
Y113000D02*
D03*
X481000Y123000D02*
D03*
Y113000D02*
D03*
X471000Y123000D02*
D03*
Y113000D02*
D03*
X461000Y123000D02*
D03*
Y113000D02*
D03*
X451000Y123000D02*
D03*
Y113000D02*
D03*
X441000Y123000D02*
D03*
Y113000D02*
D03*
X431000Y123000D02*
D03*
Y113000D02*
D03*
X421000Y123000D02*
D03*
Y113000D02*
D03*
X411000Y123000D02*
D03*
Y113000D02*
D03*
D36*
X520400Y455200D02*
D03*
X451000Y455600D02*
D03*
X371800Y68600D02*
D03*
X501000Y123000D02*
D03*
D37*
X523200Y40400D02*
D03*
X211400Y182400D02*
D03*
D38*
X523200Y50400D02*
D03*
Y60400D02*
D03*
Y70400D02*
D03*
X493200D02*
D03*
Y60400D02*
D03*
Y50400D02*
D03*
Y40400D02*
D03*
X211400Y192400D02*
D03*
Y202400D02*
D03*
Y212400D02*
D03*
X181400D02*
D03*
Y202400D02*
D03*
Y192400D02*
D03*
Y182400D02*
D03*
X472800Y358200D02*
D03*
X462800Y368200D02*
D03*
Y358200D02*
D03*
X452800Y368200D02*
D03*
Y358200D02*
D03*
X442800Y368200D02*
D03*
X452800Y378200D02*
D03*
X442800D02*
D03*
X452800Y388200D02*
D03*
X442800D02*
D03*
X452800Y398200D02*
D03*
X442800D02*
D03*
X452800Y408200D02*
D03*
X442800D02*
D03*
X452800Y418200D02*
D03*
X442800D02*
D03*
X452800Y428200D02*
D03*
X462800Y418200D02*
D03*
Y428200D02*
D03*
X472800Y418200D02*
D03*
Y428200D02*
D03*
X482800Y418200D02*
D03*
Y428200D02*
D03*
X492800Y418200D02*
D03*
Y428200D02*
D03*
X502800Y418200D02*
D03*
Y428200D02*
D03*
X512800Y418200D02*
D03*
X502800Y408200D02*
D03*
X512800D02*
D03*
X502800Y398200D02*
D03*
X512800D02*
D03*
X502800Y388200D02*
D03*
X512800D02*
D03*
X502800Y378200D02*
D03*
X512800D02*
D03*
X502800Y368200D02*
D03*
X512800D02*
D03*
X502800Y358200D02*
D03*
X492800Y368200D02*
D03*
Y358200D02*
D03*
X482800Y368200D02*
D03*
Y358200D02*
D03*
X472800Y368200D02*
D03*
X456200Y554600D02*
D03*
Y564600D02*
D03*
Y574600D02*
D03*
X466200Y564600D02*
D03*
Y574600D02*
D03*
X456200Y584600D02*
D03*
X466200D02*
D03*
X476200D02*
D03*
X486200D02*
D03*
X496200D02*
D03*
X466200Y594600D02*
D03*
X476200D02*
D03*
X486200D02*
D03*
X496200D02*
D03*
X466200Y554600D02*
D03*
X476200D02*
D03*
X486200D02*
D03*
X496200D02*
D03*
X466200Y544600D02*
D03*
X476200D02*
D03*
X486200D02*
D03*
X496200D02*
D03*
X506200D02*
D03*
Y594600D02*
D03*
X516200Y584600D02*
D03*
X506200D02*
D03*
Y554600D02*
D03*
X516200D02*
D03*
Y564600D02*
D03*
X506200Y574600D02*
D03*
X516200D02*
D03*
X506200Y564600D02*
D03*
D39*
X564000Y45000D02*
D03*
Y25000D02*
D03*
X594000D02*
D03*
Y45000D02*
D03*
Y75000D02*
D03*
X564000Y15000D02*
D03*
X249000Y98500D02*
D03*
X259000D02*
D03*
X282000D02*
D03*
X292000D02*
D03*
X253000Y69500D02*
D03*
X258000Y79500D02*
D03*
X263000Y69500D02*
D03*
X268000Y79500D02*
D03*
X273000Y69500D02*
D03*
X278000Y79500D02*
D03*
X283000Y69500D02*
D03*
X62000Y593200D02*
D03*
Y573200D02*
D03*
X92000D02*
D03*
Y593200D02*
D03*
Y623200D02*
D03*
X62000Y563200D02*
D03*
X35200Y611600D02*
D03*
Y601600D02*
D03*
Y591600D02*
D03*
Y581600D02*
D03*
Y571600D02*
D03*
Y561600D02*
D03*
Y551600D02*
D03*
D40*
X188500Y293200D02*
D03*
Y297500D02*
D03*
D41*
X64800Y30600D02*
D03*
D42*
X82800Y43600D02*
D03*
D43*
X64800Y54100D02*
D03*
D44*
X18600Y273400D02*
D03*
X19200Y105800D02*
D03*
X19000Y165000D02*
D03*
X18400Y220000D02*
D03*
D45*
X88600Y283400D02*
D03*
Y273400D02*
D03*
Y263400D02*
D03*
X89200Y115800D02*
D03*
Y105800D02*
D03*
Y95800D02*
D03*
X89000Y175000D02*
D03*
Y165000D02*
D03*
Y155000D02*
D03*
X88400Y230000D02*
D03*
Y220000D02*
D03*
Y210000D02*
D03*
X557800Y178200D02*
D03*
D46*
X293000Y44500D02*
D03*
X248000D02*
D03*
D47*
X288000Y79500D02*
D03*
D48*
X239800Y56500D02*
D03*
X301200D02*
D03*
D49*
X169500Y256800D02*
D03*
Y276000D02*
D03*
X332700Y142100D02*
D03*
Y161300D02*
D03*
D50*
X557800Y505700D02*
D03*
D51*
Y140700D02*
D03*
D52*
Y188200D02*
D03*
Y198200D02*
D03*
Y208200D02*
D03*
Y218200D02*
D03*
Y228200D02*
D03*
Y238200D02*
D03*
Y248200D02*
D03*
Y258200D02*
D03*
Y268200D02*
D03*
Y278200D02*
D03*
Y288200D02*
D03*
Y298200D02*
D03*
Y308200D02*
D03*
Y318200D02*
D03*
Y328200D02*
D03*
Y338200D02*
D03*
Y348200D02*
D03*
Y358200D02*
D03*
Y368200D02*
D03*
Y378200D02*
D03*
Y388200D02*
D03*
Y398200D02*
D03*
Y408200D02*
D03*
Y418200D02*
D03*
Y428200D02*
D03*
Y438200D02*
D03*
Y448200D02*
D03*
Y458200D02*
D03*
Y468200D02*
D03*
D53*
X23595Y408323D02*
D03*
X159816D02*
D03*
D54*
X44461Y416000D02*
D03*
X50367D02*
D03*
X56272D02*
D03*
X62178D02*
D03*
X68083D02*
D03*
X73989D02*
D03*
X79894D02*
D03*
X85800D02*
D03*
X91706D02*
D03*
X97611D02*
D03*
X103517D02*
D03*
X109422D02*
D03*
X115328D02*
D03*
X121233D02*
D03*
X127139D02*
D03*
X133044D02*
D03*
X138950D02*
D03*
D55*
X35200Y621600D02*
D03*
D56*
X66000Y442500D02*
D03*
X463900Y305329D02*
D03*
X370300Y418900D02*
D03*
X445100Y433600D02*
D03*
X400800Y483700D02*
D03*
X562100Y463200D02*
D03*
X398100Y481100D02*
D03*
X394500Y488100D02*
D03*
X547100Y479500D02*
D03*
X553500Y491000D02*
D03*
X391200Y461400D02*
D03*
X400300Y462800D02*
D03*
X507400Y466400D02*
D03*
X413500Y458700D02*
D03*
X504600Y472500D02*
D03*
X439800Y261600D02*
D03*
X437100Y272200D02*
D03*
X495500Y273100D02*
D03*
X501600Y253250D02*
D03*
X480200Y288100D02*
D03*
X481400Y281300D02*
D03*
X475800Y194400D02*
D03*
X366550Y358050D02*
D03*
X281900Y363000D02*
D03*
X308600Y182400D02*
D03*
X303200Y191300D02*
D03*
X430400Y146100D02*
D03*
X470000Y275700D02*
D03*
X479900Y298500D02*
D03*
X458500Y293400D02*
D03*
X429700Y341450D02*
D03*
X438600Y235400D02*
D03*
X408800Y343000D02*
D03*
X434200Y282100D02*
D03*
X428200Y294600D02*
D03*
X402100Y322000D02*
D03*
X370300Y321744D02*
D03*
X372989Y295811D02*
D03*
X413500Y209200D02*
D03*
X297400Y87700D02*
D03*
X393900Y276800D02*
D03*
X301898Y265700D02*
D03*
X289084D02*
D03*
X244500Y283000D02*
D03*
Y291600D02*
D03*
X243500Y311000D02*
D03*
X242200Y331576D02*
D03*
X296500Y415100D02*
D03*
X220800Y417900D02*
D03*
X269000Y433315D02*
D03*
X296500D02*
D03*
X205502Y458602D02*
D03*
X233000Y486100D02*
D03*
X144800Y575000D02*
D03*
X184500Y557000D02*
D03*
X138047Y576488D02*
D03*
X112900Y337700D02*
D03*
X93200Y437800D02*
D03*
X216500Y175300D02*
D03*
X106700Y188000D02*
D03*
X221400Y178600D02*
D03*
X398800Y399100D02*
D03*
X406600Y400700D02*
D03*
X403200Y440300D02*
D03*
X391800D02*
D03*
X410400D02*
D03*
X409800Y568800D02*
D03*
X517200Y485600D02*
D03*
X477500Y487300D02*
D03*
X474776Y399476D02*
D03*
X182200Y421500D02*
D03*
X112900Y315900D02*
D03*
X349800Y465000D02*
D03*
X380108Y451048D02*
D03*
X174900Y492600D02*
D03*
X427900Y602700D02*
D03*
X397400D02*
D03*
X411700Y278800D02*
D03*
X569300Y183900D02*
D03*
X482800Y581300D02*
D03*
X429800Y282400D02*
D03*
X572000Y342500D02*
D03*
X528000Y600000D02*
D03*
X390296Y577204D02*
D03*
X484500Y504600D02*
D03*
X373500Y585900D02*
D03*
X432100Y297200D02*
D03*
X521700Y316600D02*
D03*
X464700Y503700D02*
D03*
X486200Y599300D02*
D03*
X370800Y580400D02*
D03*
X431681Y306619D02*
D03*
X509900Y489600D02*
D03*
X386700Y584200D02*
D03*
X412300Y304600D02*
D03*
X543600Y365500D02*
D03*
X496200Y508100D02*
D03*
X384603Y600200D02*
D03*
X424700Y311200D02*
D03*
X489100Y327600D02*
D03*
X432800Y574242D02*
D03*
X482800Y572700D02*
D03*
X466500Y348300D02*
D03*
X424300Y317000D02*
D03*
X468000Y550000D02*
D03*
X448700Y497400D02*
D03*
X388500Y375600D02*
D03*
X435100Y551500D02*
D03*
X516200Y549100D02*
D03*
X430400Y508500D02*
D03*
X345100Y301800D02*
D03*
X359000Y292400D02*
D03*
X345000Y322100D02*
D03*
X365200Y265300D02*
D03*
X365000Y288100D02*
D03*
X365300Y300000D02*
D03*
X361961Y322677D02*
D03*
X395500Y240500D02*
D03*
X345100Y297900D02*
D03*
Y327400D02*
D03*
X388900Y303600D02*
D03*
X442700Y217900D02*
D03*
X359261Y325600D02*
D03*
X395663Y260900D02*
D03*
X399200Y268500D02*
D03*
X359449Y332151D02*
D03*
X345280Y333035D02*
D03*
X397668Y312000D02*
D03*
X388600Y325400D02*
D03*
X461200Y284900D02*
D03*
X375625Y327000D02*
D03*
X360700Y346299D02*
D03*
X389900Y353800D02*
D03*
X404400Y329300D02*
D03*
X369200Y351195D02*
D03*
X378895Y341500D02*
D03*
X440000Y283100D02*
D03*
X371200Y340100D02*
D03*
X445000Y292800D02*
D03*
X370900Y359100D02*
D03*
X367700Y394900D02*
D03*
X402600Y583204D02*
D03*
X456200Y597400D02*
D03*
X301700Y533100D02*
D03*
X387400D02*
D03*
X264800Y528500D02*
D03*
X425500Y569700D02*
D03*
X269100Y534600D02*
D03*
X419600Y560500D02*
D03*
X416099Y565500D02*
D03*
X249000Y563900D02*
D03*
X268500Y449900D02*
D03*
X319800Y461900D02*
D03*
X265500Y506200D02*
D03*
X359400Y523400D02*
D03*
X309300Y410300D02*
D03*
X311200Y386900D02*
D03*
X376600Y461300D02*
D03*
X324325Y407875D02*
D03*
X294800Y381900D02*
D03*
X301500Y398700D02*
D03*
X379500Y464000D02*
D03*
X308082Y389418D02*
D03*
X376400Y480600D02*
D03*
X286500Y392400D02*
D03*
X200800Y347300D02*
D03*
X296200Y147342D02*
D03*
X266990Y147710D02*
D03*
X300500D02*
D03*
X266000Y169300D02*
D03*
X264900Y149800D02*
D03*
X249400Y228600D02*
D03*
X288244Y270756D02*
D03*
X334900Y295000D02*
D03*
X336800Y321600D02*
D03*
X409700Y282700D02*
D03*
X388500Y279500D02*
D03*
X277100Y351935D02*
D03*
X215113Y551856D02*
D03*
X192400Y559700D02*
D03*
X178100Y551800D02*
D03*
X164200Y425100D02*
D03*
X163344Y403044D02*
D03*
X187900Y422100D02*
D03*
Y403000D02*
D03*
X158000D02*
D03*
X85900Y434900D02*
D03*
X264800Y124300D02*
D03*
X294900Y109300D02*
D03*
X340800Y154844D02*
D03*
X328347Y179753D02*
D03*
X325168Y185100D02*
D03*
X441100Y304300D02*
D03*
X473100Y310800D02*
D03*
X475800Y289800D02*
D03*
X435900Y232400D02*
D03*
X481100Y268200D02*
D03*
X398800Y392100D02*
D03*
X383200Y506200D02*
D03*
X399900D02*
D03*
X394500Y495200D02*
D03*
X405300Y568615D02*
D03*
X412950Y572900D02*
D03*
X41000Y454300D02*
D03*
X25760D02*
D03*
X494200Y128600D02*
D03*
X323700Y422500D02*
D03*
X425700Y392500D02*
D03*
X425400Y516700D02*
D03*
X372000Y524200D02*
D03*
X412900Y422900D02*
D03*
X424600Y520700D02*
D03*
X346700Y467200D02*
D03*
X164969Y499500D02*
D03*
X351100Y461500D02*
D03*
X243600Y443700D02*
D03*
X256112Y377688D02*
D03*
X251588Y334400D02*
D03*
X198500Y294000D02*
D03*
X211596Y286300D02*
D03*
X209372Y329972D02*
D03*
X203800Y285600D02*
D03*
X250400Y385300D02*
D03*
X269000Y333350D02*
D03*
X369600Y102700D02*
D03*
X404400Y528800D02*
D03*
X311500D02*
D03*
X444900Y600900D02*
D03*
X388500Y600100D02*
D03*
X406800Y414300D02*
D03*
X469100Y411000D02*
D03*
X522400Y396800D02*
D03*
X514100Y179000D02*
D03*
X344700Y269100D02*
D03*
X417400Y513294D02*
D03*
X379700Y117100D02*
D03*
X467800Y130847D02*
D03*
X66000Y453700D02*
D03*
X93300Y238100D02*
D03*
X229400Y363800D02*
D03*
X239200Y274500D02*
D03*
X47002Y431002D02*
D03*
X38300Y437800D02*
D03*
X225041Y266600D02*
D03*
X204900Y464500D02*
D03*
X228200Y401100D02*
D03*
X277300Y241000D02*
D03*
X200600Y464500D02*
D03*
X178400Y459200D02*
D03*
X227500Y508700D02*
D03*
X162200Y492900D02*
D03*
X166500Y496100D02*
D03*
X207700Y495000D02*
D03*
X204877Y575238D02*
D03*
X321000Y200800D02*
D03*
X276000Y167500D02*
D03*
X239600Y239921D02*
D03*
X284801Y205800D02*
D03*
X313400Y170300D02*
D03*
X259900Y170400D02*
D03*
X278600Y189100D02*
D03*
X284000Y187900D02*
D03*
X247000Y171000D02*
D03*
X308300Y242000D02*
D03*
X196500Y233500D02*
D03*
X281398Y196600D02*
D03*
X250400Y136700D02*
D03*
X205300Y246500D02*
D03*
X239200Y268800D02*
D03*
X300000Y126800D02*
D03*
X265800Y130000D02*
D03*
X274300Y135800D02*
D03*
X235494Y139406D02*
D03*
X226600Y169400D02*
D03*
X276700Y108300D02*
D03*
X300900Y243300D02*
D03*
X146500Y249600D02*
D03*
X165495Y511995D02*
D03*
X207436Y550400D02*
D03*
X308700Y257800D02*
D03*
X143800Y266900D02*
D03*
X183600Y524300D02*
D03*
X208000Y524700D02*
D03*
X236048Y379400D02*
D03*
X257600Y330800D02*
D03*
X261400Y391700D02*
D03*
X263000Y381000D02*
D03*
X239200Y313600D02*
D03*
X395000Y383000D02*
D03*
X370616Y370916D02*
D03*
X331000Y362800D02*
D03*
X324400Y284300D02*
D03*
X277600Y261500D02*
D03*
X442700Y273300D02*
D03*
X442800Y308800D02*
D03*
X401500Y347400D02*
D03*
X445400Y287600D02*
D03*
X358605Y363600D02*
D03*
X274800Y128044D02*
D03*
X375100Y373200D02*
D03*
X314700Y362856D02*
D03*
X425300Y432500D02*
D03*
X278000Y359200D02*
D03*
X374300Y276400D02*
D03*
X373900Y286600D02*
D03*
X380800Y468500D02*
D03*
X425700Y534000D02*
D03*
X284000Y536678D02*
D03*
X364100Y366500D02*
D03*
X497800Y358200D02*
D03*
X542700Y375100D02*
D03*
X441800Y353900D02*
D03*
X497400Y384900D02*
D03*
X523400Y441500D02*
D03*
X487400Y407553D02*
D03*
X371800Y343800D02*
D03*
X411500Y309500D02*
D03*
X495200Y363400D02*
D03*
X347300Y511500D02*
D03*
X470400Y535200D02*
D03*
X447700Y343500D02*
D03*
X427000Y330800D02*
D03*
X337600Y362800D02*
D03*
X477800Y202900D02*
D03*
X476600Y267400D02*
D03*
X74900Y450900D02*
D03*
X70300Y453700D02*
D03*
X214300Y277300D02*
D03*
X126600Y465900D02*
D03*
X168300Y441200D02*
D03*
X122100Y456100D02*
D03*
X44400Y458400D02*
D03*
X481400Y199900D02*
D03*
X255200Y277800D02*
D03*
X376700Y474600D02*
D03*
X291000Y395100D02*
D03*
X425400Y324600D02*
D03*
X465500Y340600D02*
D03*
X470400Y194400D02*
D03*
X300200Y138700D02*
D03*
X277800Y94300D02*
D03*
X481100Y211300D02*
D03*
X478500Y278200D02*
D03*
X49561Y421100D02*
D03*
X163000Y440900D02*
D03*
X116600Y459300D02*
D03*
X115400Y446200D02*
D03*
X121400D02*
D03*
X145400Y461600D02*
D03*
X141900Y467600D02*
D03*
X355400Y459646D02*
D03*
X162554Y504846D02*
D03*
X139600Y458200D02*
D03*
X128245Y472645D02*
D03*
X148700Y509200D02*
D03*
X140500Y490600D02*
D03*
X84700Y534900D02*
D03*
X104700Y267553D02*
D03*
X238800Y289400D02*
D03*
X481400Y250400D02*
D03*
Y235400D02*
D03*
X495500Y264900D02*
D03*
X502600Y265600D02*
D03*
X479700Y194500D02*
D03*
X485230Y257800D02*
D03*
X532100Y227500D02*
D03*
X481600Y255900D02*
D03*
X445400Y200400D02*
D03*
X512000Y184800D02*
D03*
X507600Y97100D02*
D03*
X380500D02*
D03*
X509600Y94400D02*
D03*
X283100Y114100D02*
D03*
X289800D02*
D03*
X327100Y125800D02*
D03*
X316100Y145600D02*
D03*
X340800Y149000D02*
D03*
X311715Y122200D02*
D03*
X274231Y114000D02*
D03*
X293900Y122500D02*
D03*
X243600Y127300D02*
D03*
X298100Y106000D02*
D03*
X128000Y10200D02*
D03*
X110700Y308300D02*
D03*
X152300Y437400D02*
D03*
X161100Y400800D02*
D03*
X332744Y276669D02*
D03*
X330400Y286700D02*
D03*
X263200Y265962D02*
D03*
X344700Y273100D02*
D03*
X476100Y577600D02*
D03*
X360869Y311969D02*
D03*
X387400Y273200D02*
D03*
X402300Y197600D02*
D03*
X526800Y197800D02*
D03*
X343100Y265100D02*
D03*
X433100Y131247D02*
D03*
X241000Y142000D02*
D03*
X210300Y148800D02*
D03*
X341300Y213200D02*
D03*
X253732Y256900D02*
D03*
X275700Y234900D02*
D03*
X372329Y447700D02*
D03*
X269900Y268700D02*
D03*
X288100Y536600D02*
D03*
X422398Y537200D02*
D03*
X316000Y548600D02*
D03*
X393700Y551800D02*
D03*
X372700Y292100D02*
D03*
X359100Y319900D02*
D03*
X427636Y505807D02*
D03*
X431800Y539600D02*
D03*
X277600Y265244D02*
D03*
X340600Y311300D02*
D03*
X524500Y473700D02*
D03*
X419400Y484600D02*
D03*
X271000Y573300D02*
D03*
X395976Y588300D02*
D03*
X277800Y125300D02*
D03*
X231700Y174247D02*
D03*
X221700Y296600D02*
D03*
X376700Y292100D02*
D03*
X388500Y267700D02*
D03*
X368500Y270500D02*
D03*
X322630D02*
D03*
X481000Y292300D02*
D03*
X501600Y296500D02*
D03*
X390900Y584800D02*
D03*
X380800Y576814D02*
D03*
X450800Y530800D02*
D03*
X318500Y260700D02*
D03*
X262300Y453600D02*
D03*
X210712Y452412D02*
D03*
X405671Y587571D02*
D03*
X401500Y574100D02*
D03*
X406650Y555200D02*
D03*
X429500Y557100D02*
D03*
X359983Y353083D02*
D03*
X342400Y284600D02*
D03*
X316200Y377400D02*
D03*
X220900Y565400D02*
D03*
X493400Y300200D02*
D03*
X244900Y319900D02*
D03*
X253800Y94300D02*
D03*
X201300Y429900D02*
D03*
X229050D02*
D03*
X235200Y373400D02*
D03*
X218900Y370700D02*
D03*
X417300Y444900D02*
D03*
X343000Y456800D02*
D03*
X214500Y415900D02*
D03*
X206800Y440000D02*
D03*
X205200Y451800D02*
D03*
X318500Y389400D02*
D03*
X372800Y392500D02*
D03*
X286400Y355000D02*
D03*
X389900Y383400D02*
D03*
X397900Y416900D02*
D03*
X376800Y404800D02*
D03*
Y384100D02*
D03*
X334000Y332100D02*
D03*
X340300D02*
D03*
X250650Y339750D02*
D03*
X251100Y401700D02*
D03*
X257400Y362700D02*
D03*
X258800Y324900D02*
D03*
Y293000D02*
D03*
X303100Y394400D02*
D03*
X305400Y386200D02*
D03*
X300100Y380700D02*
D03*
X317200Y397400D02*
D03*
X283900Y397000D02*
D03*
X380200Y478936D02*
D03*
X195300Y530900D02*
D03*
X214700Y516400D02*
D03*
X225700Y483500D02*
D03*
X180700Y474200D02*
D03*
X223700Y488000D02*
D03*
X216900Y481200D02*
D03*
X291500Y544700D02*
D03*
X419249Y552300D02*
D03*
X295600Y541000D02*
D03*
X259895Y358195D02*
D03*
X262500Y282500D02*
D03*
X255200Y289800D02*
D03*
X246644Y337655D02*
D03*
X220100Y447200D02*
D03*
X271193Y447226D02*
D03*
X196200Y554400D02*
D03*
X461200Y310800D02*
D03*
X394400Y459100D02*
D03*
X413500Y440000D02*
D03*
X277800Y87700D02*
D03*
X278168Y161000D02*
D03*
X297300Y172200D02*
D03*
X244500Y266200D02*
D03*
X342315Y390115D02*
D03*
X377200Y410000D02*
D03*
X407500Y435900D02*
D03*
X343500Y340000D02*
D03*
X345000Y343700D02*
D03*
X364800Y463700D02*
D03*
Y478700D02*
D03*
X295300Y496500D02*
D03*
X416099Y527000D02*
D03*
X476700Y283900D02*
D03*
X296500Y412100D02*
D03*
Y422000D02*
D03*
X445400Y214900D02*
D03*
X249156Y317200D02*
D03*
X221500Y319200D02*
D03*
X400800Y476400D02*
D03*
X533200Y422600D02*
D03*
X531800Y412200D02*
D03*
X481350Y215250D02*
D03*
X445400Y228600D02*
D03*
X428400Y397500D02*
D03*
X408892Y390356D02*
D03*
X466200Y414500D02*
D03*
X238977Y306156D02*
D03*
X239200Y302244D02*
D03*
X483800Y253700D02*
D03*
X476200Y199200D02*
D03*
X225444Y284744D02*
D03*
X77600Y498900D02*
D03*
M02*
