G04 Layer_Color=16711935*
%FSLAX25Y25*%
%MOIN*%
G70*
G01*
G75*
%ADD35C,0.05000*%
%ADD38C,0.06500*%
%ADD41C,0.04500*%
%ADD44C,0.08500*%
%ADD62R,0.03650X0.04043*%
%ADD65R,0.03256X0.04043*%
%ADD67R,0.04043X0.03256*%
%ADD69R,0.04043X0.03650*%
%ADD78R,0.06406X0.06406*%
%ADD79C,0.06406*%
%ADD80R,0.06406X0.06406*%
%ADD81R,0.04500X0.04500*%
%ADD82R,0.05500X0.05500*%
%ADD83C,0.05500*%
%ADD84R,0.06500X0.06500*%
%ADD85C,0.07000*%
%ADD86C,0.04437*%
%ADD87C,0.07100*%
%ADD88C,0.06700*%
%ADD89R,0.06700X0.06700*%
%ADD90C,0.09000*%
%ADD91C,0.11100*%
%ADD92R,0.06500X0.06500*%
%ADD93C,0.15500*%
%ADD94C,0.13000*%
%ADD95O,0.17000X0.06000*%
%ADD96O,0.05000X0.15000*%
%ADD97O,0.15000X0.05000*%
%ADD98C,0.03900*%
%ADD99C,0.06799*%
%ADD100C,0.25500*%
%ADD101C,0.03500*%
D35*
X332700Y161300D02*
D03*
Y142100D02*
D03*
X169500Y276000D02*
D03*
Y256800D02*
D03*
D38*
X46700Y516100D02*
D03*
Y526100D02*
D03*
Y536100D02*
D03*
Y546100D02*
D03*
Y556100D02*
D03*
Y566100D02*
D03*
Y576100D02*
D03*
X103500Y557700D02*
D03*
Y537700D02*
D03*
X73500D02*
D03*
Y557700D02*
D03*
X283000Y69500D02*
D03*
X278000Y79500D02*
D03*
X273000Y69500D02*
D03*
X268000Y79500D02*
D03*
X263000Y69500D02*
D03*
X258000Y79500D02*
D03*
X253000Y69500D02*
D03*
X292000Y98500D02*
D03*
X282000D02*
D03*
X259000D02*
D03*
X249000D02*
D03*
X594000Y45000D02*
D03*
Y25000D02*
D03*
X564000D02*
D03*
Y45000D02*
D03*
D41*
X181400Y182400D02*
D03*
Y192400D02*
D03*
Y202400D02*
D03*
Y212400D02*
D03*
X211400D02*
D03*
Y202400D02*
D03*
Y192400D02*
D03*
D44*
X301200Y56500D02*
D03*
X239800D02*
D03*
D62*
X263256Y88000D02*
D03*
X257744D02*
D03*
X258244Y176500D02*
D03*
X263756D02*
D03*
X276756Y131000D02*
D03*
X271244D02*
D03*
X276756Y136500D02*
D03*
X271244D02*
D03*
X257744Y163500D02*
D03*
X263256D02*
D03*
X257744Y170000D02*
D03*
X263256D02*
D03*
X72256Y407500D02*
D03*
X66744D02*
D03*
X66244Y368500D02*
D03*
X71756D02*
D03*
X71756Y377500D02*
D03*
X66244D02*
D03*
X71756Y385800D02*
D03*
X66244D02*
D03*
X79744Y410000D02*
D03*
X85256D02*
D03*
X91244Y409500D02*
D03*
X96756D02*
D03*
X101744Y407500D02*
D03*
X107256D02*
D03*
X338356Y286100D02*
D03*
X332844D02*
D03*
X334744Y316500D02*
D03*
X340256D02*
D03*
X253256Y311000D02*
D03*
X247744D02*
D03*
X254756Y283000D02*
D03*
X249244D02*
D03*
X334244Y340000D02*
D03*
X339756D02*
D03*
X296988Y330000D02*
D03*
X302500D02*
D03*
X340756Y352300D02*
D03*
X335244D02*
D03*
X334744Y307500D02*
D03*
X340256D02*
D03*
X245244Y323500D02*
D03*
X250756D02*
D03*
X122244Y468000D02*
D03*
X127756D02*
D03*
X199156Y182000D02*
D03*
X193644D02*
D03*
X207356Y557200D02*
D03*
X201844D02*
D03*
X251756Y347500D02*
D03*
X246244D02*
D03*
X332744Y271500D02*
D03*
X338256D02*
D03*
D65*
X587500Y194500D02*
D03*
X593406D02*
D03*
X588147Y437300D02*
D03*
X594053D02*
D03*
D67*
X278500Y47547D02*
D03*
Y53453D02*
D03*
X265500Y47547D02*
D03*
Y53453D02*
D03*
X441000Y137153D02*
D03*
Y131247D02*
D03*
X451200Y136953D02*
D03*
Y131047D02*
D03*
X461400Y137153D02*
D03*
Y131247D02*
D03*
X471400Y136753D02*
D03*
Y130847D02*
D03*
X480800Y137153D02*
D03*
Y131247D02*
D03*
X491000Y137353D02*
D03*
Y131447D02*
D03*
X421200Y138553D02*
D03*
Y132647D02*
D03*
X411000Y138553D02*
D03*
Y132647D02*
D03*
X86700Y567147D02*
D03*
Y573053D02*
D03*
X463800Y222947D02*
D03*
Y228853D02*
D03*
X447200Y223747D02*
D03*
Y229653D02*
D03*
X512800Y72953D02*
D03*
Y67047D02*
D03*
X512600Y61353D02*
D03*
Y55447D02*
D03*
D69*
X272000Y53256D02*
D03*
Y47744D02*
D03*
X631500Y182744D02*
D03*
Y188256D02*
D03*
X301500Y147000D02*
D03*
Y141488D02*
D03*
X307500Y147000D02*
D03*
Y141488D02*
D03*
X113500Y409256D02*
D03*
Y403744D02*
D03*
X120000Y409256D02*
D03*
Y403744D02*
D03*
X127000Y478244D02*
D03*
Y483756D02*
D03*
X221500Y307756D02*
D03*
Y302244D02*
D03*
X327500Y349744D02*
D03*
Y355256D02*
D03*
X284000Y270756D02*
D03*
Y265244D02*
D03*
X338500Y296756D02*
D03*
Y291244D02*
D03*
X321000Y296012D02*
D03*
Y290500D02*
D03*
X298000Y296012D02*
D03*
Y290500D02*
D03*
X221500Y290256D02*
D03*
Y284744D02*
D03*
X318500Y270500D02*
D03*
Y264988D02*
D03*
X467500Y320000D02*
D03*
Y314488D02*
D03*
X141500Y408756D02*
D03*
Y403244D02*
D03*
X133000Y408756D02*
D03*
Y403244D02*
D03*
X126000Y408756D02*
D03*
Y403244D02*
D03*
X125000Y453244D02*
D03*
Y458756D02*
D03*
X282400Y131956D02*
D03*
Y126444D02*
D03*
Y137844D02*
D03*
Y143356D02*
D03*
X258500Y348744D02*
D03*
Y354256D02*
D03*
X290000Y349744D02*
D03*
Y355256D02*
D03*
X281000D02*
D03*
Y349744D02*
D03*
X259500Y265744D02*
D03*
Y271256D02*
D03*
X249000Y271256D02*
D03*
Y265744D02*
D03*
X631000Y461488D02*
D03*
Y467000D02*
D03*
D78*
X440000Y469500D02*
D03*
X317000Y514500D02*
D03*
X343000Y481000D02*
D03*
X501000Y123000D02*
D03*
X371800Y68600D02*
D03*
D79*
X440000Y459500D02*
D03*
X430000Y469500D02*
D03*
Y459500D02*
D03*
X420000Y469500D02*
D03*
Y459500D02*
D03*
X410000Y469500D02*
D03*
Y459500D02*
D03*
X400000Y469500D02*
D03*
Y459500D02*
D03*
X390000Y469500D02*
D03*
Y459500D02*
D03*
X380000Y469500D02*
D03*
Y459500D02*
D03*
X370000Y469500D02*
D03*
Y459500D02*
D03*
X317000Y504500D02*
D03*
X307000Y514500D02*
D03*
Y504500D02*
D03*
X297000Y514500D02*
D03*
Y504500D02*
D03*
X287000Y514500D02*
D03*
Y504500D02*
D03*
X277000Y514500D02*
D03*
Y504500D02*
D03*
X267000Y514500D02*
D03*
Y504500D02*
D03*
X257000Y514500D02*
D03*
Y504500D02*
D03*
X247000Y514500D02*
D03*
Y504500D02*
D03*
X313000Y471000D02*
D03*
Y481000D02*
D03*
X323000Y471000D02*
D03*
Y481000D02*
D03*
X333000Y471000D02*
D03*
Y481000D02*
D03*
X343000Y471000D02*
D03*
X549500Y129000D02*
D03*
X559500Y139000D02*
D03*
X549500D02*
D03*
X559500Y149000D02*
D03*
X549500D02*
D03*
X559500Y159000D02*
D03*
X549500D02*
D03*
X559500Y169000D02*
D03*
X549500D02*
D03*
X559500Y179000D02*
D03*
X549500D02*
D03*
X559500Y189000D02*
D03*
X549500D02*
D03*
X559500Y199000D02*
D03*
X549500D02*
D03*
X532000D02*
D03*
X522000Y189000D02*
D03*
X532000D02*
D03*
X522000Y179000D02*
D03*
X532000D02*
D03*
X522000Y169000D02*
D03*
X532000D02*
D03*
X522000Y159000D02*
D03*
X532000D02*
D03*
X522000Y149000D02*
D03*
X532000D02*
D03*
X522000Y139000D02*
D03*
X532000D02*
D03*
X522000Y129000D02*
D03*
X532000D02*
D03*
X411000Y113000D02*
D03*
Y123000D02*
D03*
X421000Y113000D02*
D03*
Y123000D02*
D03*
X431000Y113000D02*
D03*
Y123000D02*
D03*
X441000Y113000D02*
D03*
Y123000D02*
D03*
X451000Y113000D02*
D03*
Y123000D02*
D03*
X461000Y113000D02*
D03*
Y123000D02*
D03*
X471000Y113000D02*
D03*
Y123000D02*
D03*
X481000Y113000D02*
D03*
Y123000D02*
D03*
X491000Y113000D02*
D03*
Y123000D02*
D03*
X501000Y113000D02*
D03*
X378500Y179000D02*
D03*
Y189000D02*
D03*
X395500Y198000D02*
D03*
Y188000D02*
D03*
Y178000D02*
D03*
X391800Y68600D02*
D03*
X381800D02*
D03*
D80*
X559500Y129000D02*
D03*
X522000Y199000D02*
D03*
X378500D02*
D03*
X395500Y208000D02*
D03*
D81*
X211400Y182400D02*
D03*
D82*
X138000Y521000D02*
D03*
X523200Y40400D02*
D03*
D83*
X138000Y511000D02*
D03*
Y501000D02*
D03*
Y491000D02*
D03*
Y481000D02*
D03*
Y471000D02*
D03*
Y461000D02*
D03*
Y451000D02*
D03*
Y441000D02*
D03*
Y431000D02*
D03*
X168000D02*
D03*
Y441000D02*
D03*
Y451000D02*
D03*
Y461000D02*
D03*
Y471000D02*
D03*
Y481000D02*
D03*
Y491000D02*
D03*
Y501000D02*
D03*
Y511000D02*
D03*
Y521000D02*
D03*
X506200Y564600D02*
D03*
X516200Y574600D02*
D03*
X506200D02*
D03*
X516200Y564600D02*
D03*
Y554600D02*
D03*
X506200D02*
D03*
Y584600D02*
D03*
X516200D02*
D03*
X506200Y594600D02*
D03*
Y544600D02*
D03*
X496200D02*
D03*
X486200D02*
D03*
X476200D02*
D03*
X466200D02*
D03*
X496200Y554600D02*
D03*
X486200D02*
D03*
X476200D02*
D03*
X466200D02*
D03*
X496200Y594600D02*
D03*
X486200D02*
D03*
X476200D02*
D03*
X466200D02*
D03*
X496200Y584600D02*
D03*
X486200D02*
D03*
X476200D02*
D03*
X466200D02*
D03*
X456200D02*
D03*
X466200Y574600D02*
D03*
Y564600D02*
D03*
X456200Y574600D02*
D03*
Y564600D02*
D03*
Y554600D02*
D03*
X443800Y188700D02*
D03*
X453800Y178700D02*
D03*
Y188700D02*
D03*
X463800Y178700D02*
D03*
Y188700D02*
D03*
X473800Y178700D02*
D03*
X483800Y188700D02*
D03*
X473800D02*
D03*
X483800Y198700D02*
D03*
X473800D02*
D03*
X483800Y208700D02*
D03*
X473800D02*
D03*
X483800Y218700D02*
D03*
X473800D02*
D03*
X483800Y228700D02*
D03*
X473800D02*
D03*
X483800Y238700D02*
D03*
X473800Y248700D02*
D03*
Y238700D02*
D03*
X463800Y248700D02*
D03*
Y238700D02*
D03*
X453800Y248700D02*
D03*
Y238700D02*
D03*
X443800Y248700D02*
D03*
Y238700D02*
D03*
X433800Y248700D02*
D03*
Y238700D02*
D03*
X423800Y248700D02*
D03*
X413800Y238700D02*
D03*
X423800D02*
D03*
X413800Y228700D02*
D03*
X423800D02*
D03*
X413800Y218700D02*
D03*
X423800D02*
D03*
X413800Y208700D02*
D03*
X423800D02*
D03*
X413800Y198700D02*
D03*
X423800D02*
D03*
X413800Y188700D02*
D03*
X423800Y178700D02*
D03*
Y188700D02*
D03*
X433800Y178700D02*
D03*
Y188700D02*
D03*
X443800Y178700D02*
D03*
X493200Y40400D02*
D03*
Y50400D02*
D03*
Y60400D02*
D03*
Y70400D02*
D03*
X523200D02*
D03*
Y60400D02*
D03*
Y50400D02*
D03*
D84*
X46700Y586100D02*
D03*
D85*
X73500Y527700D02*
D03*
X103500Y587700D02*
D03*
X564000Y15000D02*
D03*
X594000Y75000D02*
D03*
D86*
X138950Y416000D02*
D03*
X133044D02*
D03*
X127139D02*
D03*
X121233D02*
D03*
X115328D02*
D03*
X109422D02*
D03*
X103517D02*
D03*
X97611D02*
D03*
X91706D02*
D03*
X85800D02*
D03*
X79894D02*
D03*
X73989D02*
D03*
X68083D02*
D03*
X62178D02*
D03*
X56272D02*
D03*
X50367D02*
D03*
X44461D02*
D03*
D87*
X159816Y408323D02*
D03*
X23595D02*
D03*
D88*
X611300Y467700D02*
D03*
Y457700D02*
D03*
Y447700D02*
D03*
Y437700D02*
D03*
Y427700D02*
D03*
Y417700D02*
D03*
Y407700D02*
D03*
Y397700D02*
D03*
Y387700D02*
D03*
Y377700D02*
D03*
Y367700D02*
D03*
Y357700D02*
D03*
Y347700D02*
D03*
Y337700D02*
D03*
Y327700D02*
D03*
Y317700D02*
D03*
Y307700D02*
D03*
Y297700D02*
D03*
Y287700D02*
D03*
Y277700D02*
D03*
Y267700D02*
D03*
Y257700D02*
D03*
Y247700D02*
D03*
Y237700D02*
D03*
Y227700D02*
D03*
Y217700D02*
D03*
Y207700D02*
D03*
Y197700D02*
D03*
Y187700D02*
D03*
D89*
Y177700D02*
D03*
X88400Y210000D02*
D03*
Y220000D02*
D03*
Y230000D02*
D03*
X89000Y155000D02*
D03*
Y165000D02*
D03*
Y175000D02*
D03*
X89200Y95800D02*
D03*
Y105800D02*
D03*
Y115800D02*
D03*
X88600Y263400D02*
D03*
Y273400D02*
D03*
Y283400D02*
D03*
D90*
X611300Y140200D02*
D03*
D91*
Y505200D02*
D03*
D92*
X288000Y79500D02*
D03*
D93*
X248000Y44500D02*
D03*
X293000D02*
D03*
D94*
X18400Y220000D02*
D03*
X19000Y165000D02*
D03*
X19200Y105800D02*
D03*
X18600Y273400D02*
D03*
D95*
X64800Y54100D02*
D03*
D96*
X82800Y43600D02*
D03*
D97*
X64800Y30600D02*
D03*
D98*
X188500Y293500D02*
D03*
Y297800D02*
D03*
D99*
X201358Y588600D02*
D03*
X221043D02*
D03*
X230885D02*
D03*
X191515Y608285D02*
D03*
X230885D02*
D03*
X191515Y618127D02*
D03*
X230885D02*
D03*
X211200Y608285D02*
D03*
Y588600D02*
D03*
X191515D02*
D03*
X146157Y588715D02*
D03*
X165842D02*
D03*
X175685D02*
D03*
X136315Y608400D02*
D03*
X175685D02*
D03*
X136315Y618242D02*
D03*
X175685D02*
D03*
X156000Y608400D02*
D03*
Y588715D02*
D03*
X136315D02*
D03*
D100*
X30000Y620000D02*
D03*
X640000D02*
D03*
Y30000D02*
D03*
X30000D02*
D03*
D101*
X271244Y131000D02*
D03*
X276756Y131000D02*
D03*
X263256Y163244D02*
D03*
X258000Y163500D02*
D03*
X301500Y141500D02*
D03*
X300790Y147710D02*
D03*
X424000Y533000D02*
D03*
X420000Y533500D02*
D03*
X416000Y534500D02*
D03*
X427700Y532000D02*
D03*
X400000Y538000D02*
D03*
X500500Y523500D02*
D03*
X404000Y537000D02*
D03*
X408500D02*
D03*
X471260Y285878D02*
D03*
Y289815D02*
D03*
Y297689D02*
D03*
Y301626D02*
D03*
Y305563D02*
D03*
X482740Y283910D02*
D03*
Y291784D02*
D03*
Y295721D02*
D03*
Y303595D02*
D03*
X482940Y310017D02*
D03*
X430000Y286000D02*
D03*
X430685Y289815D02*
D03*
X433500Y293000D02*
D03*
X381000Y335000D02*
D03*
X384000Y343500D02*
D03*
X430780Y295721D02*
D03*
X433500Y298500D02*
D03*
X382000Y339000D02*
D03*
X389500Y355000D02*
D03*
X433000Y302500D02*
D03*
X392000Y361541D02*
D03*
X436500Y305000D02*
D03*
X395000Y368500D02*
D03*
X433500Y309000D02*
D03*
X385182Y348500D02*
D03*
X395000Y372318D02*
D03*
X436000Y312000D02*
D03*
X395000Y376500D02*
D03*
X396000Y489000D02*
D03*
X378500Y533000D02*
D03*
X399000Y491500D02*
D03*
X382500Y532000D02*
D03*
X401500Y494500D02*
D03*
X386500Y532500D02*
D03*
X388000Y536500D02*
D03*
X404000Y497500D02*
D03*
X393000Y486500D02*
D03*
X364000Y606500D02*
D03*
X390000Y483500D02*
D03*
X359500Y605000D02*
D03*
X356000Y609500D02*
D03*
X387500Y480500D02*
D03*
X538500Y628500D02*
D03*
X545500Y626500D02*
D03*
X549000Y624500D02*
D03*
X552500Y622000D02*
D03*
X394052Y604552D02*
D03*
M02*
