G04 Layer_Color=8388736*
%FSLAX25Y25*%
%MOIN*%
G70*
G01*
G75*
%ADD35C,0.05000*%
%ADD38C,0.06500*%
%ADD41C,0.04500*%
%ADD44C,0.08500*%
%ADD62R,0.03650X0.04043*%
%ADD63O,0.01681X0.07980*%
%ADD64O,0.07980X0.01681*%
%ADD65R,0.03256X0.04043*%
%ADD66R,0.04831X0.07193*%
%ADD67R,0.04043X0.03256*%
%ADD68O,0.01878X0.08374*%
%ADD69R,0.04043X0.03650*%
%ADD70O,0.02665X0.08374*%
%ADD71O,0.10146X0.01681*%
%ADD72O,0.01681X0.10146*%
%ADD73O,0.06406X0.01484*%
%ADD74O,0.01484X0.06406*%
%ADD75R,0.02665X0.03453*%
%ADD76R,0.03650X0.04043*%
%ADD77O,0.02075X0.07587*%
%ADD78R,0.06406X0.06406*%
%ADD79C,0.06406*%
%ADD80R,0.06406X0.06406*%
%ADD81R,0.04500X0.04500*%
%ADD82R,0.05500X0.05500*%
%ADD83C,0.05500*%
%ADD84R,0.06500X0.06500*%
%ADD85C,0.07000*%
%ADD86C,0.04437*%
%ADD87C,0.07100*%
%ADD88C,0.06700*%
%ADD89R,0.06700X0.06700*%
%ADD90C,0.09000*%
%ADD91C,0.11100*%
%ADD92R,0.06500X0.06500*%
%ADD93C,0.15500*%
%ADD94C,0.13000*%
%ADD95O,0.17000X0.06000*%
%ADD96O,0.05000X0.15000*%
%ADD97O,0.15000X0.05000*%
%ADD98C,0.03900*%
%ADD99C,0.06799*%
%ADD100C,0.25500*%
%ADD101C,0.03500*%
D35*
X332700Y161300D02*
D03*
Y142100D02*
D03*
X169500Y276000D02*
D03*
Y256800D02*
D03*
D38*
X46700Y516100D02*
D03*
Y526100D02*
D03*
Y536100D02*
D03*
Y546100D02*
D03*
Y556100D02*
D03*
Y566100D02*
D03*
Y576100D02*
D03*
X103500Y557700D02*
D03*
Y537700D02*
D03*
X73500D02*
D03*
Y557700D02*
D03*
X283000Y69500D02*
D03*
X278000Y79500D02*
D03*
X273000Y69500D02*
D03*
X268000Y79500D02*
D03*
X263000Y69500D02*
D03*
X258000Y79500D02*
D03*
X253000Y69500D02*
D03*
X292000Y98500D02*
D03*
X282000D02*
D03*
X259000D02*
D03*
X249000D02*
D03*
X594000Y45000D02*
D03*
Y25000D02*
D03*
X564000D02*
D03*
Y45000D02*
D03*
D41*
X181400Y182400D02*
D03*
Y192400D02*
D03*
Y202400D02*
D03*
Y212400D02*
D03*
X211400D02*
D03*
Y202400D02*
D03*
Y192400D02*
D03*
D44*
X301200Y56500D02*
D03*
X239800D02*
D03*
D62*
X313756Y65000D02*
D03*
X308244D02*
D03*
Y72000D02*
D03*
X313756D02*
D03*
X307312Y122600D02*
D03*
X301800D02*
D03*
X202956Y534400D02*
D03*
X197444D02*
D03*
X199712Y447400D02*
D03*
X194200D02*
D03*
X162156Y563000D02*
D03*
X156644D02*
D03*
X138244D02*
D03*
X143756D02*
D03*
X203044Y516400D02*
D03*
X208556D02*
D03*
X197556Y481000D02*
D03*
X192044D02*
D03*
X210712Y447400D02*
D03*
X205200D02*
D03*
X197356Y516400D02*
D03*
X191844D02*
D03*
X207488Y481200D02*
D03*
X213000D02*
D03*
D63*
X304716Y401866D02*
D03*
X302748D02*
D03*
X300780D02*
D03*
X298811D02*
D03*
X296843D02*
D03*
X294874D02*
D03*
X292905D02*
D03*
X290937D02*
D03*
X288968D02*
D03*
X287000D02*
D03*
X285032D02*
D03*
X283063D02*
D03*
X281095D02*
D03*
X279126D02*
D03*
X277157D02*
D03*
X275189D02*
D03*
X273220D02*
D03*
X271252D02*
D03*
X269284D02*
D03*
X267315D02*
D03*
X265347D02*
D03*
X263378D02*
D03*
X261409D02*
D03*
X259441D02*
D03*
Y431000D02*
D03*
X302748D02*
D03*
X304716D02*
D03*
X261409D02*
D03*
X263378D02*
D03*
X265347D02*
D03*
X267315D02*
D03*
X269284D02*
D03*
X271252D02*
D03*
X273220D02*
D03*
X275189D02*
D03*
X277157D02*
D03*
X279126D02*
D03*
X281095D02*
D03*
X283063D02*
D03*
X285032D02*
D03*
X287000D02*
D03*
X288968D02*
D03*
X290937D02*
D03*
X292905D02*
D03*
X294874D02*
D03*
X296843D02*
D03*
X298811D02*
D03*
X300780D02*
D03*
X565433Y462500D02*
D03*
X563464D02*
D03*
X561496D02*
D03*
X559527D02*
D03*
X557559D02*
D03*
X555590D02*
D03*
X553622D02*
D03*
X551653D02*
D03*
X549685D02*
D03*
X547717D02*
D03*
X545748D02*
D03*
X543780D02*
D03*
X541811D02*
D03*
X539843D02*
D03*
X537874D02*
D03*
X535906D02*
D03*
X533937D02*
D03*
X531968D02*
D03*
X530000D02*
D03*
X528031D02*
D03*
X526063D02*
D03*
X524094D02*
D03*
X522126D02*
D03*
X520157D02*
D03*
Y491634D02*
D03*
X563464D02*
D03*
X565433D02*
D03*
X522126D02*
D03*
X524094D02*
D03*
X526063D02*
D03*
X528031D02*
D03*
X530000D02*
D03*
X531968D02*
D03*
X533937D02*
D03*
X535906D02*
D03*
X537874D02*
D03*
X539843D02*
D03*
X541811D02*
D03*
X543780D02*
D03*
X545748D02*
D03*
X547717D02*
D03*
X549685D02*
D03*
X551653D02*
D03*
X553622D02*
D03*
X555590D02*
D03*
X557559D02*
D03*
X559527D02*
D03*
X561496D02*
D03*
X366653Y402000D02*
D03*
X364685D02*
D03*
X362717D02*
D03*
X360748D02*
D03*
X358780D02*
D03*
X356811D02*
D03*
X354842D02*
D03*
X352874D02*
D03*
X350905D02*
D03*
X348937D02*
D03*
X346969D02*
D03*
X345000D02*
D03*
X343032D02*
D03*
X341063D02*
D03*
X339094D02*
D03*
X337126D02*
D03*
X335157D02*
D03*
X333189D02*
D03*
X331221D02*
D03*
X329252D02*
D03*
X327284D02*
D03*
X325315D02*
D03*
X323346D02*
D03*
X321378D02*
D03*
Y431134D02*
D03*
X364685D02*
D03*
X366653D02*
D03*
X323346D02*
D03*
X325315D02*
D03*
X327284D02*
D03*
X329252D02*
D03*
X331221D02*
D03*
X333189D02*
D03*
X335157D02*
D03*
X337126D02*
D03*
X339094D02*
D03*
X341063D02*
D03*
X343032D02*
D03*
X345000D02*
D03*
X346969D02*
D03*
X348937D02*
D03*
X350905D02*
D03*
X352874D02*
D03*
X354842D02*
D03*
X356811D02*
D03*
X358780D02*
D03*
X360748D02*
D03*
X362717D02*
D03*
X425496Y401866D02*
D03*
X423527D02*
D03*
X421559D02*
D03*
X419591D02*
D03*
X417622D02*
D03*
X415654D02*
D03*
X413685D02*
D03*
X411717D02*
D03*
X409748D02*
D03*
X407780D02*
D03*
X405811D02*
D03*
X403842D02*
D03*
X401874D02*
D03*
X399905D02*
D03*
X397937D02*
D03*
X395969D02*
D03*
X394000D02*
D03*
X392032D02*
D03*
X390063D02*
D03*
X388094D02*
D03*
X386126D02*
D03*
X384157D02*
D03*
X382189D02*
D03*
X380221D02*
D03*
Y431000D02*
D03*
X423527D02*
D03*
X425496D02*
D03*
X382189D02*
D03*
X384157D02*
D03*
X386126D02*
D03*
X388094D02*
D03*
X390063D02*
D03*
X392032D02*
D03*
X394000D02*
D03*
X395969D02*
D03*
X397937D02*
D03*
X399905D02*
D03*
X401874D02*
D03*
X403842D02*
D03*
X405811D02*
D03*
X407780D02*
D03*
X409748D02*
D03*
X411717D02*
D03*
X413685D02*
D03*
X415654D02*
D03*
X417622D02*
D03*
X419591D02*
D03*
X421559D02*
D03*
D64*
X447866Y281941D02*
D03*
Y283910D02*
D03*
Y285878D02*
D03*
Y287846D02*
D03*
Y289815D02*
D03*
Y291783D02*
D03*
Y293752D02*
D03*
Y295721D02*
D03*
Y297689D02*
D03*
Y299658D02*
D03*
Y301626D02*
D03*
Y303594D02*
D03*
Y305563D02*
D03*
Y307531D02*
D03*
Y309500D02*
D03*
Y311469D02*
D03*
Y313437D02*
D03*
Y315406D02*
D03*
Y317374D02*
D03*
Y319342D02*
D03*
Y321311D02*
D03*
Y323280D02*
D03*
Y325248D02*
D03*
Y327217D02*
D03*
X477000D02*
D03*
Y283910D02*
D03*
Y281941D02*
D03*
Y325248D02*
D03*
Y323280D02*
D03*
Y321311D02*
D03*
Y319342D02*
D03*
Y317374D02*
D03*
Y315406D02*
D03*
Y313437D02*
D03*
Y311469D02*
D03*
Y309500D02*
D03*
Y307531D02*
D03*
Y305563D02*
D03*
Y303594D02*
D03*
Y301626D02*
D03*
Y299658D02*
D03*
Y297689D02*
D03*
Y295721D02*
D03*
Y293752D02*
D03*
Y291783D02*
D03*
Y289815D02*
D03*
Y287846D02*
D03*
Y285878D02*
D03*
X448500Y343972D02*
D03*
Y345941D02*
D03*
Y347909D02*
D03*
Y349878D02*
D03*
Y351847D02*
D03*
Y353815D02*
D03*
Y355784D02*
D03*
Y357752D02*
D03*
Y359720D02*
D03*
Y361689D02*
D03*
Y363657D02*
D03*
Y365626D02*
D03*
Y367595D02*
D03*
Y369563D02*
D03*
Y371532D02*
D03*
Y373500D02*
D03*
Y375468D02*
D03*
Y377437D02*
D03*
Y379405D02*
D03*
Y381374D02*
D03*
Y383343D02*
D03*
Y385311D02*
D03*
Y387280D02*
D03*
Y389248D02*
D03*
X477634D02*
D03*
Y345941D02*
D03*
Y343972D02*
D03*
Y387280D02*
D03*
Y385311D02*
D03*
Y383343D02*
D03*
Y381374D02*
D03*
Y379405D02*
D03*
Y377437D02*
D03*
Y375468D02*
D03*
Y373500D02*
D03*
Y371532D02*
D03*
Y369563D02*
D03*
Y367595D02*
D03*
Y365626D02*
D03*
Y363657D02*
D03*
Y361689D02*
D03*
Y359720D02*
D03*
Y357752D02*
D03*
Y355784D02*
D03*
Y353815D02*
D03*
Y351847D02*
D03*
Y349878D02*
D03*
Y347909D02*
D03*
D65*
X500953Y89000D02*
D03*
X495047D02*
D03*
X228553Y137600D02*
D03*
X222647D02*
D03*
X228953Y127800D02*
D03*
X223047D02*
D03*
X228753Y119600D02*
D03*
X222847D02*
D03*
X228753Y101400D02*
D03*
X222847D02*
D03*
X229153Y109600D02*
D03*
X223247D02*
D03*
X313953Y77500D02*
D03*
X308047D02*
D03*
X313953Y83000D02*
D03*
X308047D02*
D03*
X101447Y127000D02*
D03*
X107353D02*
D03*
X107753Y93800D02*
D03*
X101847D02*
D03*
X103600Y182800D02*
D03*
X109506D02*
D03*
X102294Y239600D02*
D03*
X108200D02*
D03*
X102847Y151600D02*
D03*
X108753D02*
D03*
X102447Y207000D02*
D03*
X108353D02*
D03*
X100247Y291400D02*
D03*
X106153D02*
D03*
X104953Y263200D02*
D03*
X99047D02*
D03*
X165047Y212600D02*
D03*
X170953D02*
D03*
X164847Y202600D02*
D03*
X170753D02*
D03*
X156647Y571400D02*
D03*
X162553D02*
D03*
X138047Y571000D02*
D03*
X143953D02*
D03*
Y556600D02*
D03*
X138047D02*
D03*
X143553Y548800D02*
D03*
X137647D02*
D03*
X156400Y553800D02*
D03*
X162306D02*
D03*
X162153Y545200D02*
D03*
X156247D02*
D03*
D66*
X311715Y114800D02*
D03*
X301085D02*
D03*
X100085Y229600D02*
D03*
X110715D02*
D03*
X100085Y218400D02*
D03*
X110715D02*
D03*
X100485Y162400D02*
D03*
X111115D02*
D03*
X100685Y174400D02*
D03*
X111315D02*
D03*
X101485Y116000D02*
D03*
X112115D02*
D03*
X101485Y105400D02*
D03*
X112115D02*
D03*
X97685Y272600D02*
D03*
X108315D02*
D03*
X97685Y282800D02*
D03*
X108315D02*
D03*
D67*
X320700Y186753D02*
D03*
Y180847D02*
D03*
X297700Y186353D02*
D03*
Y180447D02*
D03*
X288700Y186353D02*
D03*
Y180447D02*
D03*
X306100Y186400D02*
D03*
Y180494D02*
D03*
X250100Y187153D02*
D03*
Y181247D02*
D03*
X257300Y181047D02*
D03*
Y186953D02*
D03*
X264700Y181047D02*
D03*
Y186953D02*
D03*
X272300Y180647D02*
D03*
Y186553D02*
D03*
X280500D02*
D03*
Y180647D02*
D03*
X313100Y180247D02*
D03*
Y186153D02*
D03*
X241300Y181247D02*
D03*
Y187153D02*
D03*
X231100Y181847D02*
D03*
Y187753D02*
D03*
X392600Y84000D02*
D03*
Y78094D02*
D03*
X371400Y85200D02*
D03*
Y79294D02*
D03*
X206000Y356153D02*
D03*
Y350247D02*
D03*
X206600Y389553D02*
D03*
Y383647D02*
D03*
D68*
X62357Y467017D02*
D03*
X59798D02*
D03*
X57239D02*
D03*
X54680D02*
D03*
X52120D02*
D03*
X49561D02*
D03*
X47002D02*
D03*
X44443D02*
D03*
X62357Y444183D02*
D03*
X59798D02*
D03*
X57239D02*
D03*
X54680D02*
D03*
X52120D02*
D03*
X49561D02*
D03*
X47002D02*
D03*
X44443D02*
D03*
X72843Y443983D02*
D03*
X75402D02*
D03*
X77961D02*
D03*
X80520D02*
D03*
X83080D02*
D03*
X85639D02*
D03*
X88198D02*
D03*
X90757D02*
D03*
X72843Y466817D02*
D03*
X75402D02*
D03*
X77961D02*
D03*
X80520D02*
D03*
X83080D02*
D03*
X85639D02*
D03*
X88198D02*
D03*
X90757D02*
D03*
D69*
X198500Y303756D02*
D03*
Y298244D02*
D03*
X215500Y298756D02*
D03*
Y293244D02*
D03*
X183500Y274744D02*
D03*
Y280256D02*
D03*
Y262512D02*
D03*
Y257000D02*
D03*
X198500Y289500D02*
D03*
Y283988D02*
D03*
X350700Y154844D02*
D03*
Y160356D02*
D03*
Y149056D02*
D03*
Y143544D02*
D03*
X535000Y57600D02*
D03*
Y52088D02*
D03*
X154500Y42556D02*
D03*
Y37044D02*
D03*
X142500Y43756D02*
D03*
Y38244D02*
D03*
X131100Y43556D02*
D03*
Y38044D02*
D03*
X118700Y43200D02*
D03*
Y37688D02*
D03*
X107100Y44356D02*
D03*
Y38844D02*
D03*
X206600Y372888D02*
D03*
Y378400D02*
D03*
X197600Y378844D02*
D03*
Y384356D02*
D03*
X206400Y336444D02*
D03*
Y341956D02*
D03*
X196400Y342644D02*
D03*
Y348156D02*
D03*
D70*
X378304Y545400D02*
D03*
X381454D02*
D03*
X384603D02*
D03*
X387753D02*
D03*
X390902D02*
D03*
X394052D02*
D03*
X397202D02*
D03*
X400351D02*
D03*
X403501D02*
D03*
X406650D02*
D03*
X409800D02*
D03*
X412950D02*
D03*
X416099D02*
D03*
X419249D02*
D03*
X422398D02*
D03*
X425548D02*
D03*
X428698D02*
D03*
X431847D02*
D03*
X441296Y594408D02*
D03*
X438146D02*
D03*
X434997D02*
D03*
X431847D02*
D03*
X428698D02*
D03*
X425548D02*
D03*
X422398D02*
D03*
X419249D02*
D03*
X416099D02*
D03*
X412950D02*
D03*
X409800D02*
D03*
X406650D02*
D03*
X403501D02*
D03*
X434997Y545400D02*
D03*
X438146D02*
D03*
X441296D02*
D03*
X444446D02*
D03*
Y594408D02*
D03*
X378304D02*
D03*
X381454D02*
D03*
X384603D02*
D03*
X387753D02*
D03*
X390902D02*
D03*
X394052D02*
D03*
X397202D02*
D03*
X400351D02*
D03*
D71*
X232177Y261654D02*
D03*
Y263622D02*
D03*
Y265591D02*
D03*
Y267559D02*
D03*
Y269528D02*
D03*
Y271496D02*
D03*
Y275433D02*
D03*
Y277402D02*
D03*
Y279370D02*
D03*
Y281339D02*
D03*
Y283307D02*
D03*
Y285276D02*
D03*
Y287244D02*
D03*
Y289213D02*
D03*
Y291181D02*
D03*
Y293150D02*
D03*
Y295118D02*
D03*
Y297087D02*
D03*
Y299055D02*
D03*
Y301024D02*
D03*
Y302992D02*
D03*
Y306929D02*
D03*
Y308898D02*
D03*
Y310866D02*
D03*
Y312835D02*
D03*
Y314803D02*
D03*
Y316772D02*
D03*
Y318740D02*
D03*
Y320709D02*
D03*
Y322677D02*
D03*
Y324646D02*
D03*
Y326614D02*
D03*
Y328583D02*
D03*
Y330551D02*
D03*
Y332520D02*
D03*
Y334488D02*
D03*
Y336457D02*
D03*
Y338425D02*
D03*
Y340394D02*
D03*
Y342362D02*
D03*
Y344331D02*
D03*
Y346299D02*
D03*
Y348268D02*
D03*
Y350236D02*
D03*
Y352205D02*
D03*
Y354173D02*
D03*
Y356142D02*
D03*
Y358110D02*
D03*
X352059Y261654D02*
D03*
Y263622D02*
D03*
Y265591D02*
D03*
Y267559D02*
D03*
Y269528D02*
D03*
Y271496D02*
D03*
Y273465D02*
D03*
Y275433D02*
D03*
Y277402D02*
D03*
Y279370D02*
D03*
Y281339D02*
D03*
Y285276D02*
D03*
Y287244D02*
D03*
Y291181D02*
D03*
Y293150D02*
D03*
Y295118D02*
D03*
Y297087D02*
D03*
Y299055D02*
D03*
Y301024D02*
D03*
Y302992D02*
D03*
Y304961D02*
D03*
Y306929D02*
D03*
Y308898D02*
D03*
Y310866D02*
D03*
Y312835D02*
D03*
Y314803D02*
D03*
Y316772D02*
D03*
Y318740D02*
D03*
Y320709D02*
D03*
Y322677D02*
D03*
Y324646D02*
D03*
Y326614D02*
D03*
Y328583D02*
D03*
Y330551D02*
D03*
Y332520D02*
D03*
Y334488D02*
D03*
Y336457D02*
D03*
Y338425D02*
D03*
Y340394D02*
D03*
Y342362D02*
D03*
Y344331D02*
D03*
Y346299D02*
D03*
Y348268D02*
D03*
Y350236D02*
D03*
Y352205D02*
D03*
Y354173D02*
D03*
Y356142D02*
D03*
Y358110D02*
D03*
Y360079D02*
D03*
X232177D02*
D03*
Y273465D02*
D03*
X352059Y283307D02*
D03*
Y289213D02*
D03*
Y259685D02*
D03*
X232177D02*
D03*
Y304961D02*
D03*
D72*
X243890Y249941D02*
D03*
X245858D02*
D03*
X247827D02*
D03*
X249795D02*
D03*
X251764D02*
D03*
X253732D02*
D03*
X255701D02*
D03*
X257669D02*
D03*
X259638D02*
D03*
X261606D02*
D03*
X263575D02*
D03*
X265543D02*
D03*
X267512D02*
D03*
X269480D02*
D03*
X271449D02*
D03*
X273417D02*
D03*
X275386D02*
D03*
X277354D02*
D03*
X279323D02*
D03*
X281291D02*
D03*
X283260D02*
D03*
X285228D02*
D03*
X287197D02*
D03*
X289165D02*
D03*
X291134D02*
D03*
X293102D02*
D03*
X295071D02*
D03*
X297039D02*
D03*
X299008D02*
D03*
X302945D02*
D03*
X304913D02*
D03*
X306882D02*
D03*
X308850D02*
D03*
X310819D02*
D03*
X312787D02*
D03*
X314756D02*
D03*
X316724D02*
D03*
X318693D02*
D03*
X320661D02*
D03*
X322630D02*
D03*
X324598D02*
D03*
X326567D02*
D03*
X328535D02*
D03*
X330504D02*
D03*
X332473D02*
D03*
X334441D02*
D03*
X336410D02*
D03*
X338378D02*
D03*
X340347D02*
D03*
X342315D02*
D03*
Y369823D02*
D03*
X340347D02*
D03*
X338378D02*
D03*
X336410D02*
D03*
X334441D02*
D03*
X332473D02*
D03*
X330504D02*
D03*
X328535D02*
D03*
X326567D02*
D03*
X324598D02*
D03*
X322630D02*
D03*
X320661D02*
D03*
X318693D02*
D03*
X316724D02*
D03*
X314756D02*
D03*
X312787D02*
D03*
X310819D02*
D03*
X308850D02*
D03*
X306882D02*
D03*
X304913D02*
D03*
X302945D02*
D03*
X300976D02*
D03*
X299008D02*
D03*
X297039D02*
D03*
X295071D02*
D03*
X293102D02*
D03*
X291134D02*
D03*
X289165D02*
D03*
X287197D02*
D03*
X285228D02*
D03*
X283260D02*
D03*
X281291D02*
D03*
X279323D02*
D03*
X277354D02*
D03*
X275386D02*
D03*
X273417D02*
D03*
X271449D02*
D03*
X269480D02*
D03*
X267512D02*
D03*
X265543D02*
D03*
X263575D02*
D03*
X261606D02*
D03*
X259638D02*
D03*
X257669D02*
D03*
X255701D02*
D03*
X253732D02*
D03*
X251764D02*
D03*
X249795D02*
D03*
X247827D02*
D03*
X245858D02*
D03*
X243890D02*
D03*
X300976Y249941D02*
D03*
X241921Y369823D02*
D03*
X241921Y249941D02*
D03*
D73*
X255531Y143773D02*
D03*
Y141805D02*
D03*
Y139836D02*
D03*
Y137868D02*
D03*
Y135899D02*
D03*
Y133931D02*
D03*
Y131962D02*
D03*
Y129994D02*
D03*
Y128025D02*
D03*
Y145742D02*
D03*
X290964Y126057D02*
D03*
Y128025D02*
D03*
Y129994D02*
D03*
Y131962D02*
D03*
Y133931D02*
D03*
Y135899D02*
D03*
Y137868D02*
D03*
Y139836D02*
D03*
Y141805D02*
D03*
Y143773D02*
D03*
Y147710D02*
D03*
Y145742D02*
D03*
X255531Y126057D02*
D03*
Y147710D02*
D03*
D74*
X264389Y119167D02*
D03*
X266357D02*
D03*
X268326D02*
D03*
X270294D02*
D03*
X272263D02*
D03*
X274231D02*
D03*
X276200D02*
D03*
X278168D02*
D03*
X280137D02*
D03*
X282105D02*
D03*
X284074D02*
D03*
Y154600D02*
D03*
X282105D02*
D03*
X280137D02*
D03*
X278168D02*
D03*
X276200D02*
D03*
X274231D02*
D03*
X272263D02*
D03*
X262420Y119167D02*
D03*
Y154600D02*
D03*
X264389D02*
D03*
X266357D02*
D03*
X268326D02*
D03*
X270294D02*
D03*
D75*
X538969Y21454D02*
D03*
X537000Y15746D02*
D03*
X535032Y21454D02*
D03*
D76*
X22400Y431000D02*
D03*
X18660Y438874D02*
D03*
X26140D02*
D03*
D77*
X209995Y568000D02*
D03*
X207436D02*
D03*
X204877D02*
D03*
X202318D02*
D03*
X199759D02*
D03*
X197200D02*
D03*
X192082Y544575D02*
D03*
X194641D02*
D03*
X197200D02*
D03*
X199759D02*
D03*
X202318D02*
D03*
X204877D02*
D03*
X194641Y568000D02*
D03*
X207436Y544575D02*
D03*
X209995D02*
D03*
X212554D02*
D03*
X215113D02*
D03*
X192082Y568000D02*
D03*
X212554D02*
D03*
X215113D02*
D03*
D78*
X440000Y469500D02*
D03*
X317000Y514500D02*
D03*
X343000Y481000D02*
D03*
X501000Y123000D02*
D03*
X371800Y68600D02*
D03*
D79*
X440000Y459500D02*
D03*
X430000Y469500D02*
D03*
Y459500D02*
D03*
X420000Y469500D02*
D03*
Y459500D02*
D03*
X410000Y469500D02*
D03*
Y459500D02*
D03*
X400000Y469500D02*
D03*
Y459500D02*
D03*
X390000Y469500D02*
D03*
Y459500D02*
D03*
X380000Y469500D02*
D03*
Y459500D02*
D03*
X370000Y469500D02*
D03*
Y459500D02*
D03*
X317000Y504500D02*
D03*
X307000Y514500D02*
D03*
Y504500D02*
D03*
X297000Y514500D02*
D03*
Y504500D02*
D03*
X287000Y514500D02*
D03*
Y504500D02*
D03*
X277000Y514500D02*
D03*
Y504500D02*
D03*
X267000Y514500D02*
D03*
Y504500D02*
D03*
X257000Y514500D02*
D03*
Y504500D02*
D03*
X247000Y514500D02*
D03*
Y504500D02*
D03*
X313000Y471000D02*
D03*
Y481000D02*
D03*
X323000Y471000D02*
D03*
Y481000D02*
D03*
X333000Y471000D02*
D03*
Y481000D02*
D03*
X343000Y471000D02*
D03*
X549500Y129000D02*
D03*
X559500Y139000D02*
D03*
X549500D02*
D03*
X559500Y149000D02*
D03*
X549500D02*
D03*
X559500Y159000D02*
D03*
X549500D02*
D03*
X559500Y169000D02*
D03*
X549500D02*
D03*
X559500Y179000D02*
D03*
X549500D02*
D03*
X559500Y189000D02*
D03*
X549500D02*
D03*
X559500Y199000D02*
D03*
X549500D02*
D03*
X532000D02*
D03*
X522000Y189000D02*
D03*
X532000D02*
D03*
X522000Y179000D02*
D03*
X532000D02*
D03*
X522000Y169000D02*
D03*
X532000D02*
D03*
X522000Y159000D02*
D03*
X532000D02*
D03*
X522000Y149000D02*
D03*
X532000D02*
D03*
X522000Y139000D02*
D03*
X532000D02*
D03*
X522000Y129000D02*
D03*
X532000D02*
D03*
X411000Y113000D02*
D03*
Y123000D02*
D03*
X421000Y113000D02*
D03*
Y123000D02*
D03*
X431000Y113000D02*
D03*
Y123000D02*
D03*
X441000Y113000D02*
D03*
Y123000D02*
D03*
X451000Y113000D02*
D03*
Y123000D02*
D03*
X461000Y113000D02*
D03*
Y123000D02*
D03*
X471000Y113000D02*
D03*
Y123000D02*
D03*
X481000Y113000D02*
D03*
Y123000D02*
D03*
X491000Y113000D02*
D03*
Y123000D02*
D03*
X501000Y113000D02*
D03*
X378500Y179000D02*
D03*
Y189000D02*
D03*
X395500Y198000D02*
D03*
Y188000D02*
D03*
Y178000D02*
D03*
X391800Y68600D02*
D03*
X381800D02*
D03*
D80*
X559500Y129000D02*
D03*
X522000Y199000D02*
D03*
X378500D02*
D03*
X395500Y208000D02*
D03*
D81*
X211400Y182400D02*
D03*
D82*
X138000Y521000D02*
D03*
X523200Y40400D02*
D03*
D83*
X138000Y511000D02*
D03*
Y501000D02*
D03*
Y491000D02*
D03*
Y481000D02*
D03*
Y471000D02*
D03*
Y461000D02*
D03*
Y451000D02*
D03*
Y441000D02*
D03*
Y431000D02*
D03*
X168000D02*
D03*
Y441000D02*
D03*
Y451000D02*
D03*
Y461000D02*
D03*
Y471000D02*
D03*
Y481000D02*
D03*
Y491000D02*
D03*
Y501000D02*
D03*
Y511000D02*
D03*
Y521000D02*
D03*
X506200Y564600D02*
D03*
X516200Y574600D02*
D03*
X506200D02*
D03*
X516200Y564600D02*
D03*
Y554600D02*
D03*
X506200D02*
D03*
Y584600D02*
D03*
X516200D02*
D03*
X506200Y594600D02*
D03*
Y544600D02*
D03*
X496200D02*
D03*
X486200D02*
D03*
X476200D02*
D03*
X466200D02*
D03*
X496200Y554600D02*
D03*
X486200D02*
D03*
X476200D02*
D03*
X466200D02*
D03*
X496200Y594600D02*
D03*
X486200D02*
D03*
X476200D02*
D03*
X466200D02*
D03*
X496200Y584600D02*
D03*
X486200D02*
D03*
X476200D02*
D03*
X466200D02*
D03*
X456200D02*
D03*
X466200Y574600D02*
D03*
Y564600D02*
D03*
X456200Y574600D02*
D03*
Y564600D02*
D03*
Y554600D02*
D03*
X443800Y188700D02*
D03*
X453800Y178700D02*
D03*
Y188700D02*
D03*
X463800Y178700D02*
D03*
Y188700D02*
D03*
X473800Y178700D02*
D03*
X483800Y188700D02*
D03*
X473800D02*
D03*
X483800Y198700D02*
D03*
X473800D02*
D03*
X483800Y208700D02*
D03*
X473800D02*
D03*
X483800Y218700D02*
D03*
X473800D02*
D03*
X483800Y228700D02*
D03*
X473800D02*
D03*
X483800Y238700D02*
D03*
X473800Y248700D02*
D03*
Y238700D02*
D03*
X463800Y248700D02*
D03*
Y238700D02*
D03*
X453800Y248700D02*
D03*
Y238700D02*
D03*
X443800Y248700D02*
D03*
Y238700D02*
D03*
X433800Y248700D02*
D03*
Y238700D02*
D03*
X423800Y248700D02*
D03*
X413800Y238700D02*
D03*
X423800D02*
D03*
X413800Y228700D02*
D03*
X423800D02*
D03*
X413800Y218700D02*
D03*
X423800D02*
D03*
X413800Y208700D02*
D03*
X423800D02*
D03*
X413800Y198700D02*
D03*
X423800D02*
D03*
X413800Y188700D02*
D03*
X423800Y178700D02*
D03*
Y188700D02*
D03*
X433800Y178700D02*
D03*
Y188700D02*
D03*
X443800Y178700D02*
D03*
X493200Y40400D02*
D03*
Y50400D02*
D03*
Y60400D02*
D03*
Y70400D02*
D03*
X523200D02*
D03*
Y60400D02*
D03*
Y50400D02*
D03*
D84*
X46700Y586100D02*
D03*
D85*
X73500Y527700D02*
D03*
X103500Y587700D02*
D03*
X564000Y15000D02*
D03*
X594000Y75000D02*
D03*
D86*
X138950Y416000D02*
D03*
X133044D02*
D03*
X127139D02*
D03*
X121233D02*
D03*
X115328D02*
D03*
X109422D02*
D03*
X103517D02*
D03*
X97611D02*
D03*
X91706D02*
D03*
X85800D02*
D03*
X79894D02*
D03*
X73989D02*
D03*
X68083D02*
D03*
X62178D02*
D03*
X56272D02*
D03*
X50367D02*
D03*
X44461D02*
D03*
D87*
X159816Y408323D02*
D03*
X23595D02*
D03*
D88*
X611300Y467700D02*
D03*
Y457700D02*
D03*
Y447700D02*
D03*
Y437700D02*
D03*
Y427700D02*
D03*
Y417700D02*
D03*
Y407700D02*
D03*
Y397700D02*
D03*
Y387700D02*
D03*
Y377700D02*
D03*
Y367700D02*
D03*
Y357700D02*
D03*
Y347700D02*
D03*
Y337700D02*
D03*
Y327700D02*
D03*
Y317700D02*
D03*
Y307700D02*
D03*
Y297700D02*
D03*
Y287700D02*
D03*
Y277700D02*
D03*
Y267700D02*
D03*
Y257700D02*
D03*
Y247700D02*
D03*
Y237700D02*
D03*
Y227700D02*
D03*
Y217700D02*
D03*
Y207700D02*
D03*
Y197700D02*
D03*
Y187700D02*
D03*
D89*
Y177700D02*
D03*
X88400Y210000D02*
D03*
Y220000D02*
D03*
Y230000D02*
D03*
X89000Y155000D02*
D03*
Y165000D02*
D03*
Y175000D02*
D03*
X89200Y95800D02*
D03*
Y105800D02*
D03*
Y115800D02*
D03*
X88600Y263400D02*
D03*
Y273400D02*
D03*
Y283400D02*
D03*
D90*
X611300Y140200D02*
D03*
D91*
Y505200D02*
D03*
D92*
X288000Y79500D02*
D03*
D93*
X248000Y44500D02*
D03*
X293000D02*
D03*
D94*
X18400Y220000D02*
D03*
X19000Y165000D02*
D03*
X19200Y105800D02*
D03*
X18600Y273400D02*
D03*
D95*
X64800Y54100D02*
D03*
D96*
X82800Y43600D02*
D03*
D97*
X64800Y30600D02*
D03*
D98*
X188500Y293500D02*
D03*
Y297800D02*
D03*
D99*
X201358Y588600D02*
D03*
X221043D02*
D03*
X230885D02*
D03*
X191515Y608285D02*
D03*
X230885D02*
D03*
X191515Y618127D02*
D03*
X230885D02*
D03*
X211200Y608285D02*
D03*
Y588600D02*
D03*
X191515D02*
D03*
X146157Y588715D02*
D03*
X165842D02*
D03*
X175685D02*
D03*
X136315Y608400D02*
D03*
X175685D02*
D03*
X136315Y618242D02*
D03*
X175685D02*
D03*
X156000Y608400D02*
D03*
Y588715D02*
D03*
X136315D02*
D03*
D100*
X30000Y620000D02*
D03*
X640000D02*
D03*
Y30000D02*
D03*
X30000D02*
D03*
D101*
X271244Y131000D02*
D03*
X276756Y131000D02*
D03*
X263256Y163244D02*
D03*
X258000Y163500D02*
D03*
X301500Y141500D02*
D03*
X300790Y147710D02*
D03*
X424000Y533000D02*
D03*
X420000Y533500D02*
D03*
X416000Y534500D02*
D03*
X427700Y532000D02*
D03*
X400000Y538000D02*
D03*
X500500Y523500D02*
D03*
X404000Y537000D02*
D03*
X408500D02*
D03*
X471260Y285878D02*
D03*
Y289815D02*
D03*
Y297689D02*
D03*
Y301626D02*
D03*
Y305563D02*
D03*
X482740Y283910D02*
D03*
Y291784D02*
D03*
Y295721D02*
D03*
Y303595D02*
D03*
X482940Y310017D02*
D03*
X430000Y286000D02*
D03*
X430685Y289815D02*
D03*
X433500Y293000D02*
D03*
X381000Y335000D02*
D03*
X384000Y343500D02*
D03*
X430780Y295721D02*
D03*
X433500Y298500D02*
D03*
X382000Y339000D02*
D03*
X389500Y355000D02*
D03*
X433000Y302500D02*
D03*
X392000Y361541D02*
D03*
X436500Y305000D02*
D03*
X395000Y368500D02*
D03*
X433500Y309000D02*
D03*
X385182Y348500D02*
D03*
X395000Y372318D02*
D03*
X436000Y312000D02*
D03*
X395000Y376500D02*
D03*
X396000Y489000D02*
D03*
X378500Y533000D02*
D03*
X399000Y491500D02*
D03*
X382500Y532000D02*
D03*
X401500Y494500D02*
D03*
X386500Y532500D02*
D03*
X388000Y536500D02*
D03*
X404000Y497500D02*
D03*
X393000Y486500D02*
D03*
X364000Y606500D02*
D03*
X390000Y483500D02*
D03*
X359500Y605000D02*
D03*
X356000Y609500D02*
D03*
X387500Y480500D02*
D03*
X538500Y628500D02*
D03*
X545500Y626500D02*
D03*
X549000Y624500D02*
D03*
X552500Y622000D02*
D03*
X394052Y604552D02*
D03*
M02*
