G04 Layer_Color=255*
%FSLAX25Y25*%
%MOIN*%
G70*
G01*
G75*
%ADD10R,0.02756X0.03543*%
%ADD11R,0.03543X0.03150*%
%ADD12R,0.03543X0.02756*%
%ADD20R,0.03150X0.03543*%
%ADD30C,0.03300*%
%ADD31O,0.13780X0.03937*%
%ADD32O,0.03937X0.13780*%
%ADD33O,0.15748X0.04921*%
%ADD34C,0.12500*%
%ADD35R,0.06200X0.06200*%
%ADD36C,0.05000*%
%ADD37C,0.03937*%
%ADD38C,0.06299*%
%ADD39C,0.06000*%
%ADD40C,0.15000*%
%ADD41R,0.06000X0.06000*%
%ADD42C,0.08000*%
%ADD43C,0.06299*%
%ADD44R,0.06000X0.06000*%
%ADD45C,0.04500*%
%ADD46R,0.05000X0.05000*%
%ADD47R,0.05906X0.05906*%
%ADD48C,0.05906*%
%ADD49C,0.09200*%
%ADD50C,0.07000*%
%ADD51R,0.06200X0.06200*%
%ADD52C,0.06200*%
%ADD54R,0.02165X0.02953*%
D10*
X656953Y223000D02*
D03*
X651047D02*
D03*
X276047Y319500D02*
D03*
X281953D02*
D03*
X287453Y288000D02*
D03*
X281547D02*
D03*
X407453D02*
D03*
X401547D02*
D03*
X466453D02*
D03*
X460547D02*
D03*
X483453D02*
D03*
X477547D02*
D03*
X500453D02*
D03*
X494547D02*
D03*
D11*
X455500Y619012D02*
D03*
Y613500D02*
D03*
X314500Y355988D02*
D03*
Y361500D02*
D03*
X262000Y395744D02*
D03*
Y401256D02*
D03*
X328500Y154500D02*
D03*
Y160012D02*
D03*
X355500Y395744D02*
D03*
Y401256D02*
D03*
X478000Y256744D02*
D03*
Y262256D02*
D03*
X500000Y256744D02*
D03*
Y262256D02*
D03*
X522000Y256744D02*
D03*
Y262256D02*
D03*
X544000Y256744D02*
D03*
Y262256D02*
D03*
X602000Y236744D02*
D03*
Y242256D02*
D03*
X626000Y267488D02*
D03*
Y273000D02*
D03*
X319500Y226500D02*
D03*
Y232012D02*
D03*
X342500Y226500D02*
D03*
Y232012D02*
D03*
X365500Y226744D02*
D03*
Y232256D02*
D03*
X269000Y627000D02*
D03*
Y632512D02*
D03*
X286000Y446256D02*
D03*
Y440744D02*
D03*
X254500Y445256D02*
D03*
Y439744D02*
D03*
X245000Y356744D02*
D03*
Y362256D02*
D03*
X294000Y381500D02*
D03*
Y387012D02*
D03*
X317000Y381500D02*
D03*
Y387012D02*
D03*
X340000Y381500D02*
D03*
Y387012D02*
D03*
X363000Y381500D02*
D03*
Y387012D02*
D03*
X280000Y356244D02*
D03*
Y361756D02*
D03*
X432000Y381500D02*
D03*
Y387012D02*
D03*
X323500Y446256D02*
D03*
Y440744D02*
D03*
D12*
X679500Y265953D02*
D03*
Y260047D02*
D03*
X348000Y359547D02*
D03*
Y365453D02*
D03*
X424000Y603453D02*
D03*
Y597547D02*
D03*
X164000Y262594D02*
D03*
Y268500D02*
D03*
X184000Y256547D02*
D03*
Y262453D02*
D03*
X224000Y256547D02*
D03*
Y262453D02*
D03*
X264000Y256547D02*
D03*
Y262453D02*
D03*
X389000Y256547D02*
D03*
Y262453D02*
D03*
X412000Y256547D02*
D03*
Y262453D02*
D03*
X435000Y256547D02*
D03*
Y262453D02*
D03*
X458000Y256547D02*
D03*
Y262453D02*
D03*
X424000Y615453D02*
D03*
Y609547D02*
D03*
X427000Y282547D02*
D03*
Y288453D02*
D03*
X449000Y282547D02*
D03*
Y288453D02*
D03*
X152500Y219803D02*
D03*
Y225709D02*
D03*
X174500Y219803D02*
D03*
Y225709D02*
D03*
X196500Y219803D02*
D03*
Y225709D02*
D03*
D20*
X174744Y653000D02*
D03*
X180256D02*
D03*
X389756Y630500D02*
D03*
X384244D02*
D03*
X201256Y263500D02*
D03*
X195744D02*
D03*
X241256Y262000D02*
D03*
X235744D02*
D03*
X258256Y421000D02*
D03*
X252744D02*
D03*
X270500D02*
D03*
X264988D02*
D03*
X286256D02*
D03*
X280744D02*
D03*
X298500D02*
D03*
X292988D02*
D03*
X310756Y420500D02*
D03*
X305244D02*
D03*
X323256D02*
D03*
X317744D02*
D03*
X166756Y636500D02*
D03*
X161244D02*
D03*
X161500Y624500D02*
D03*
X167012D02*
D03*
X242244Y438500D02*
D03*
X247756D02*
D03*
X245244Y374000D02*
D03*
X250756D02*
D03*
X243744Y402000D02*
D03*
X249256D02*
D03*
X334256Y362500D02*
D03*
X328744D02*
D03*
D30*
X196200Y403244D02*
D03*
X200500D02*
D03*
D31*
X735500Y131000D02*
D03*
D32*
X753500Y144000D02*
D03*
D33*
X735500Y154500D02*
D03*
D34*
X718000Y717000D02*
D03*
X605000D02*
D03*
X466000D02*
D03*
X321000Y715500D02*
D03*
D35*
X728000Y647000D02*
D03*
X718000D02*
D03*
X708000D02*
D03*
X615000D02*
D03*
X605000D02*
D03*
X595000D02*
D03*
X476000D02*
D03*
X466000D02*
D03*
X456000D02*
D03*
X331000Y645500D02*
D03*
X321000D02*
D03*
X311000D02*
D03*
D36*
X425500Y180500D02*
D03*
X435500Y170500D02*
D03*
Y180500D02*
D03*
X445500Y170500D02*
D03*
Y180500D02*
D03*
X455500Y170500D02*
D03*
X445500Y160500D02*
D03*
X455500D02*
D03*
X445500Y150500D02*
D03*
X455500D02*
D03*
X445500Y140500D02*
D03*
X455500D02*
D03*
X445500Y130500D02*
D03*
X455500D02*
D03*
X445500Y120500D02*
D03*
X455500D02*
D03*
X445500Y110500D02*
D03*
X435500Y120500D02*
D03*
Y110500D02*
D03*
X425500Y120500D02*
D03*
Y110500D02*
D03*
X415500Y120500D02*
D03*
Y110500D02*
D03*
X405500Y120500D02*
D03*
Y110500D02*
D03*
X395500Y120500D02*
D03*
Y110500D02*
D03*
X385500Y120500D02*
D03*
X395500Y130500D02*
D03*
X385500D02*
D03*
X395500Y140500D02*
D03*
X385500D02*
D03*
X395500Y150500D02*
D03*
X385500D02*
D03*
X395500Y160500D02*
D03*
X385500D02*
D03*
X395500Y170500D02*
D03*
X385500D02*
D03*
X395500Y180500D02*
D03*
X405500Y170500D02*
D03*
Y180500D02*
D03*
X415500Y170500D02*
D03*
Y180500D02*
D03*
X425500Y170500D02*
D03*
X439000Y620500D02*
D03*
Y610500D02*
D03*
Y600500D02*
D03*
X469000D02*
D03*
Y610500D02*
D03*
Y620500D02*
D03*
Y630500D02*
D03*
X637500Y466500D02*
D03*
X627500D02*
D03*
X617500D02*
D03*
X627500Y476500D02*
D03*
X617500D02*
D03*
X607500Y466500D02*
D03*
Y476500D02*
D03*
Y486500D02*
D03*
Y496500D02*
D03*
Y506500D02*
D03*
X597500Y476500D02*
D03*
Y486500D02*
D03*
Y496500D02*
D03*
Y506500D02*
D03*
X637500Y476500D02*
D03*
Y486500D02*
D03*
Y496500D02*
D03*
Y506500D02*
D03*
X647500Y476500D02*
D03*
Y486500D02*
D03*
Y496500D02*
D03*
Y506500D02*
D03*
Y516500D02*
D03*
X597500D02*
D03*
X607500Y526500D02*
D03*
Y516500D02*
D03*
X637500D02*
D03*
Y526500D02*
D03*
X627500D02*
D03*
X617500Y516500D02*
D03*
Y526500D02*
D03*
X627500Y516500D02*
D03*
X372000Y621500D02*
D03*
Y611500D02*
D03*
Y601500D02*
D03*
X402000D02*
D03*
Y611500D02*
D03*
Y621500D02*
D03*
Y631500D02*
D03*
D37*
X209500Y570067D02*
D03*
Y575972D02*
D03*
Y581878D02*
D03*
Y587783D02*
D03*
Y593689D02*
D03*
Y599594D02*
D03*
Y605500D02*
D03*
Y611406D02*
D03*
Y617311D02*
D03*
Y623217D02*
D03*
Y629122D02*
D03*
Y635028D02*
D03*
Y640933D02*
D03*
Y646839D02*
D03*
Y652744D02*
D03*
Y658650D02*
D03*
Y664555D02*
D03*
D38*
X201823Y549201D02*
D03*
Y685421D02*
D03*
D39*
X209500Y149500D02*
D03*
Y129500D02*
D03*
X239500D02*
D03*
Y149500D02*
D03*
Y179500D02*
D03*
X209500Y119500D02*
D03*
X631500Y199500D02*
D03*
X641500D02*
D03*
X664500D02*
D03*
X674500D02*
D03*
X635500Y170500D02*
D03*
X640500Y180500D02*
D03*
X645500Y170500D02*
D03*
X650500Y180500D02*
D03*
X655500Y170500D02*
D03*
X660500Y180500D02*
D03*
X665500Y170500D02*
D03*
X271500Y178500D02*
D03*
Y168500D02*
D03*
Y158500D02*
D03*
Y148500D02*
D03*
Y138500D02*
D03*
Y128500D02*
D03*
Y118500D02*
D03*
X148500Y151000D02*
D03*
Y131000D02*
D03*
X178500D02*
D03*
Y151000D02*
D03*
Y181000D02*
D03*
X148500Y121000D02*
D03*
D40*
X675500Y145500D02*
D03*
X630500D02*
D03*
D41*
X670500Y180500D02*
D03*
D42*
X622300Y157500D02*
D03*
X683700D02*
D03*
D43*
X549685Y143185D02*
D03*
X530000D02*
D03*
Y123500D02*
D03*
X510315Y113658D02*
D03*
X549685D02*
D03*
X510315Y123500D02*
D03*
X549685D02*
D03*
X510315Y143185D02*
D03*
X520158D02*
D03*
X539843D02*
D03*
X608000Y142185D02*
D03*
X588315D02*
D03*
Y122500D02*
D03*
X568630Y112658D02*
D03*
X608000D02*
D03*
X568630Y122500D02*
D03*
X608000D02*
D03*
X568630Y142185D02*
D03*
X578472D02*
D03*
X598157D02*
D03*
D44*
X271500Y188500D02*
D03*
D45*
X179500Y337800D02*
D03*
Y357000D02*
D03*
X683200Y289500D02*
D03*
X664000D02*
D03*
D46*
X439000Y630500D02*
D03*
X372000Y631500D02*
D03*
D47*
X118000Y251000D02*
D03*
X126000Y123500D02*
D03*
X470500Y110000D02*
D03*
X359500Y150500D02*
D03*
D48*
X118000Y261000D02*
D03*
Y271000D02*
D03*
X116000Y123500D02*
D03*
X126000Y133500D02*
D03*
X116000D02*
D03*
X126000Y143500D02*
D03*
X116000D02*
D03*
X126000Y153500D02*
D03*
X116000D02*
D03*
X126000Y163500D02*
D03*
X116000D02*
D03*
X126000Y173500D02*
D03*
X116000D02*
D03*
X126000Y183500D02*
D03*
X116000D02*
D03*
X126000Y193500D02*
D03*
X116000D02*
D03*
X126000Y203500D02*
D03*
X116000D02*
D03*
X126000Y213500D02*
D03*
X116000D02*
D03*
X470500Y130000D02*
D03*
Y120000D02*
D03*
X359500Y140500D02*
D03*
Y130500D02*
D03*
Y120500D02*
D03*
D49*
X761000Y649000D02*
D03*
D50*
Y284000D02*
D03*
D51*
Y321500D02*
D03*
D52*
Y331500D02*
D03*
Y341500D02*
D03*
Y351500D02*
D03*
Y361500D02*
D03*
Y371500D02*
D03*
Y381500D02*
D03*
Y391500D02*
D03*
Y401500D02*
D03*
Y411500D02*
D03*
Y421500D02*
D03*
Y431500D02*
D03*
Y441500D02*
D03*
Y451500D02*
D03*
Y461500D02*
D03*
Y471500D02*
D03*
Y481500D02*
D03*
Y491500D02*
D03*
Y501500D02*
D03*
Y511500D02*
D03*
Y521500D02*
D03*
Y531500D02*
D03*
Y541500D02*
D03*
Y551500D02*
D03*
Y561500D02*
D03*
Y571500D02*
D03*
Y581500D02*
D03*
Y591500D02*
D03*
Y601500D02*
D03*
Y611500D02*
D03*
D54*
X497032Y591646D02*
D03*
X499000Y597354D02*
D03*
X500969Y591646D02*
D03*
M02*
