G04 Layer_Color=65535*
%FSLAX25Y25*%
%MOIN*%
G70*
G01*
G75*
%ADD26C,0.01000*%
%ADD55C,0.00984*%
%ADD56C,0.02362*%
%ADD57C,0.00800*%
%ADD58C,0.00787*%
%ADD59C,0.01200*%
%ADD60C,0.02400*%
D26*
X204200Y403244D02*
G03*
X204200Y403244I-5900J0D01*
G01*
X641288Y258772D02*
G03*
X641288Y258772I-2296J0D01*
G01*
X320500Y121500D02*
G03*
X315500Y121500I-2500J0D01*
G01*
X547391Y184945D02*
G03*
X547391Y184945I-1623J0D01*
G01*
X248009Y445933D02*
G03*
X248009Y445933I-4068J0D01*
G01*
X170300Y334900D02*
G03*
X188700Y334900I9200J0D01*
G01*
Y360000D02*
G03*
X170300Y360000I-9200J0D01*
G01*
X451500Y635500D02*
G03*
X456500Y635500I2500J0D01*
G01*
X384500Y636500D02*
G03*
X389500Y636500I2500J0D01*
G01*
X686100Y280300D02*
G03*
X686100Y298700I0J9200D01*
G01*
X661000D02*
G03*
X661000Y280300I0J-9200D01*
G01*
X718000Y102000D02*
Y156500D01*
X725500D01*
X728000Y159000D01*
X742000D01*
X745000Y156000D01*
X753000D01*
X757000Y152000D01*
Y137500D02*
Y152000D01*
X753000Y133500D02*
X757000Y137500D01*
X753000Y102000D02*
Y133500D01*
X718000Y102000D02*
X753000D01*
X211862Y538177D02*
Y696445D01*
X116193Y538177D02*
X211862D01*
X116193D02*
Y696445D01*
X211862D01*
X621500Y103000D02*
X684000D01*
X621500Y206000D02*
X684000D01*
Y103000D02*
Y206000D01*
X621500Y103000D02*
Y206000D01*
X634268Y235937D02*
X661827D01*
X634268Y263496D02*
X661827D01*
X634268Y235937D02*
Y263496D01*
X661827Y235937D02*
Y263496D01*
X320500Y121500D02*
X331500D01*
X304500Y171500D02*
X331500D01*
X304500Y121500D02*
X315500D01*
X331500D02*
Y171500D01*
X304500Y121500D02*
Y171500D01*
X266500Y113500D02*
Y193500D01*
X276500Y113500D02*
Y193500D01*
X266500Y113500D02*
X276500D01*
X266500Y193500D02*
X276500D01*
X266500Y183500D02*
X276500D01*
X522933Y188488D02*
X549311D01*
X522933Y175890D02*
X549311D01*
X522933D02*
Y188488D01*
X549311Y175890D02*
Y188488D01*
X170300Y334900D02*
Y360000D01*
X188700Y334900D02*
Y360000D01*
X444000Y635500D02*
X451500D01*
X456500D02*
X464000D01*
X444000Y595500D02*
X464000D01*
Y635500D01*
X444000Y595500D02*
Y635500D01*
X377000Y636500D02*
X384500D01*
X389500D02*
X397000D01*
X377000Y596500D02*
X397000D01*
Y636500D01*
X377000Y596500D02*
Y636500D01*
X661000Y280300D02*
X686100D01*
X661000Y298700D02*
X686100D01*
X780600Y580900D02*
Y586898D01*
X783599D01*
X784599Y585898D01*
Y583899D01*
X783599Y582899D01*
X780600D01*
X782599D02*
X784599Y580900D01*
X790597Y586898D02*
X786598D01*
Y583899D01*
X788597Y584899D01*
X789597D01*
X790597Y583899D01*
Y581900D01*
X789597Y580900D01*
X787598D01*
X786598Y581900D01*
X796595Y586898D02*
X792596D01*
Y583899D01*
X794595Y584899D01*
X795595D01*
X796595Y583899D01*
Y581900D01*
X795595Y580900D01*
X793596D01*
X792596Y581900D01*
X780600Y335400D02*
Y341398D01*
X783599D01*
X784599Y340398D01*
Y338399D01*
X783599Y337399D01*
X780600D01*
X782599D02*
X784599Y335400D01*
X790597Y341398D02*
X786598D01*
Y338399D01*
X788597Y339399D01*
X789597D01*
X790597Y338399D01*
Y336400D01*
X789597Y335400D01*
X787598D01*
X786598Y336400D01*
X796595Y341398D02*
X794595Y340398D01*
X792596Y338399D01*
Y336400D01*
X793596Y335400D01*
X795595D01*
X796595Y336400D01*
Y337399D01*
X795595Y338399D01*
X792596D01*
X381150Y194948D02*
Y189950D01*
X382150Y188950D01*
X384149D01*
X385149Y189950D01*
Y194948D01*
X391147D02*
X387148D01*
Y191949D01*
X389147Y192949D01*
X390147D01*
X391147Y191949D01*
Y189950D01*
X390147Y188950D01*
X388148D01*
X387148Y189950D01*
X585400Y731600D02*
Y737598D01*
X588399D01*
X589399Y736598D01*
Y734599D01*
X588399Y733599D01*
X585400D01*
X587399D02*
X589399Y731600D01*
X595397Y737598D02*
X591398D01*
Y731600D01*
X595397D01*
X591398Y734599D02*
X593397D01*
X601395Y736598D02*
X600395Y737598D01*
X598396D01*
X597396Y736598D01*
Y732600D01*
X598396Y731600D01*
X600395D01*
X601395Y732600D01*
Y734599D01*
X599396D01*
X603394Y730600D02*
X607393D01*
X613391Y737598D02*
X609392D01*
Y734599D01*
X611392Y735599D01*
X612391D01*
X613391Y734599D01*
Y732600D01*
X612391Y731600D01*
X610392D01*
X609392Y732600D01*
X615390Y737598D02*
Y733599D01*
X617390Y731600D01*
X619389Y733599D01*
Y737598D01*
X301400Y730100D02*
Y736098D01*
X304399D01*
X305399Y735098D01*
Y733099D01*
X304399Y732099D01*
X301400D01*
X303399D02*
X305399Y730100D01*
X311397Y736098D02*
X307398D01*
Y730100D01*
X311397D01*
X307398Y733099D02*
X309397D01*
X317395Y735098D02*
X316395Y736098D01*
X314396D01*
X313396Y735098D01*
Y731100D01*
X314396Y730100D01*
X316395D01*
X317395Y731100D01*
Y733099D01*
X315395D01*
X319394Y729100D02*
X323393D01*
X325392Y735098D02*
X326392Y736098D01*
X328391D01*
X329391Y735098D01*
Y734099D01*
X328391Y733099D01*
X327392D01*
X328391D01*
X329391Y732099D01*
Y731100D01*
X328391Y730100D01*
X326392D01*
X325392Y731100D01*
X331390Y736098D02*
Y732099D01*
X333390Y730100D01*
X335389Y732099D01*
Y736098D01*
X446400Y731600D02*
Y737598D01*
X449399D01*
X450399Y736598D01*
Y734599D01*
X449399Y733599D01*
X446400D01*
X448399D02*
X450399Y731600D01*
X456397Y737598D02*
X452398D01*
Y731600D01*
X456397D01*
X452398Y734599D02*
X454397D01*
X462395Y736598D02*
X461395Y737598D01*
X459396D01*
X458396Y736598D01*
Y732600D01*
X459396Y731600D01*
X461395D01*
X462395Y732600D01*
Y734599D01*
X460395D01*
X464394Y730600D02*
X468393D01*
X470392Y736598D02*
X471392Y737598D01*
X473391D01*
X474391Y736598D01*
Y735599D01*
X473391Y734599D01*
X472392D01*
X473391D01*
X474391Y733599D01*
Y732600D01*
X473391Y731600D01*
X471392D01*
X470392Y732600D01*
X476390Y737598D02*
Y733599D01*
X478390Y731600D01*
X480389Y733599D01*
Y737598D01*
X482388Y736598D02*
X483388Y737598D01*
X485387D01*
X486387Y736598D01*
Y735599D01*
X485387Y734599D01*
X484388D01*
X485387D01*
X486387Y733599D01*
Y732600D01*
X485387Y731600D01*
X483388D01*
X482388Y732600D01*
X698400Y731600D02*
Y737598D01*
X701399D01*
X702399Y736598D01*
Y734599D01*
X701399Y733599D01*
X698400D01*
X700399D02*
X702399Y731600D01*
X708397Y737598D02*
X704398D01*
Y731600D01*
X708397D01*
X704398Y734599D02*
X706397D01*
X714395Y736598D02*
X713395Y737598D01*
X711396D01*
X710396Y736598D01*
Y732600D01*
X711396Y731600D01*
X713395D01*
X714395Y732600D01*
Y734599D01*
X712395D01*
X716394Y730600D02*
X720393D01*
X722392Y731600D02*
X724392D01*
X723392D01*
Y737598D01*
X722392Y736598D01*
X727391Y737598D02*
Y733599D01*
X729390Y731600D01*
X731389Y733599D01*
Y737598D01*
X733389Y736598D02*
X734388Y737598D01*
X736388D01*
X737387Y736598D01*
Y735599D01*
X736388Y734599D01*
X737387Y733599D01*
Y732600D01*
X736388Y731600D01*
X734388D01*
X733389Y732600D01*
Y733599D01*
X734388Y734599D01*
X733389Y735599D01*
Y736598D01*
X734388Y734599D02*
X736388D01*
X195100Y731900D02*
Y737898D01*
X198099D01*
X199099Y736898D01*
Y734899D01*
X198099Y733899D01*
X195100D01*
X197099D02*
X199099Y731900D01*
X205097Y737898D02*
X201098D01*
Y734899D01*
X203097Y735899D01*
X204097D01*
X205097Y734899D01*
Y732900D01*
X204097Y731900D01*
X202098D01*
X201098Y732900D01*
X210095Y731900D02*
Y737898D01*
X207096Y734899D01*
X211095D01*
X218100Y731900D02*
Y737898D01*
X221099D01*
X222099Y736898D01*
Y734899D01*
X221099Y733899D01*
X218100D01*
X220099D02*
X222099Y731900D01*
X228097Y737898D02*
X224098D01*
Y734899D01*
X226097Y735899D01*
X227097D01*
X228097Y734899D01*
Y732900D01*
X227097Y731900D01*
X225098D01*
X224098Y732900D01*
X230096Y736898D02*
X231096Y737898D01*
X233095D01*
X234095Y736898D01*
Y735899D01*
X233095Y734899D01*
X232096D01*
X233095D01*
X234095Y733899D01*
Y732900D01*
X233095Y731900D01*
X231096D01*
X230096Y732900D01*
X276100Y731500D02*
Y737498D01*
X279099D01*
X280099Y736498D01*
Y734499D01*
X279099Y733499D01*
X276100D01*
X278099D02*
X280099Y731500D01*
X286097Y737498D02*
X282098D01*
Y734499D01*
X284097Y735499D01*
X285097D01*
X286097Y734499D01*
Y732500D01*
X285097Y731500D01*
X283098D01*
X282098Y732500D01*
X292095Y731500D02*
X288096D01*
X292095Y735499D01*
Y736498D01*
X291095Y737498D01*
X289096D01*
X288096Y736498D01*
X356100Y731900D02*
Y737898D01*
X359099D01*
X360099Y736898D01*
Y734899D01*
X359099Y733899D01*
X356100D01*
X358099D02*
X360099Y731900D01*
X366097Y737898D02*
X362098D01*
Y734899D01*
X364097Y735899D01*
X365097D01*
X366097Y734899D01*
Y732900D01*
X365097Y731900D01*
X363098D01*
X362098Y732900D01*
X368096Y731900D02*
X370095D01*
X369096D01*
Y737898D01*
X368096Y736898D01*
X423100Y731900D02*
Y737898D01*
X426099D01*
X427099Y736898D01*
Y734899D01*
X426099Y733899D01*
X423100D01*
X425099D02*
X427099Y731900D01*
X433097Y737898D02*
X429098D01*
Y734899D01*
X431097Y735899D01*
X432097D01*
X433097Y734899D01*
Y732900D01*
X432097Y731900D01*
X430098D01*
X429098Y732900D01*
X435096Y736898D02*
X436096Y737898D01*
X438095D01*
X439095Y736898D01*
Y732900D01*
X438095Y731900D01*
X436096D01*
X435096Y732900D01*
Y736898D01*
X493100Y731900D02*
Y737898D01*
X496099D01*
X497099Y736898D01*
Y734899D01*
X496099Y733899D01*
X493100D01*
X495099D02*
X497099Y731900D01*
X502097D02*
Y737898D01*
X499098Y734899D01*
X503097D01*
X505096Y732900D02*
X506096Y731900D01*
X508095D01*
X509095Y732900D01*
Y736898D01*
X508095Y737898D01*
X506096D01*
X505096Y736898D01*
Y735899D01*
X506096Y734899D01*
X509095D01*
X562100Y731900D02*
Y737898D01*
X565099D01*
X566099Y736898D01*
Y734899D01*
X565099Y733899D01*
X562100D01*
X564099D02*
X566099Y731900D01*
X571097D02*
Y737898D01*
X568098Y734899D01*
X572097D01*
X574096Y736898D02*
X575096Y737898D01*
X577095D01*
X578095Y736898D01*
Y735899D01*
X577095Y734899D01*
X578095Y733899D01*
Y732900D01*
X577095Y731900D01*
X575096D01*
X574096Y732900D01*
Y733899D01*
X575096Y734899D01*
X574096Y735899D01*
Y736898D01*
X575096Y734899D02*
X577095D01*
X631600Y731900D02*
Y737898D01*
X634599D01*
X635599Y736898D01*
Y734899D01*
X634599Y733899D01*
X631600D01*
X633599D02*
X635599Y731900D01*
X640597D02*
Y737898D01*
X637598Y734899D01*
X641597D01*
X643596Y737898D02*
X647595D01*
Y736898D01*
X643596Y732900D01*
Y731900D01*
X722499Y168498D02*
X720499D01*
X721499D01*
Y163500D01*
X720499Y162500D01*
X719500D01*
X718500Y163500D01*
X727497Y162500D02*
Y168498D01*
X724498Y165499D01*
X728497D01*
X268599Y736698D02*
X267599Y737698D01*
X265600D01*
X264600Y736698D01*
Y732700D01*
X265600Y731700D01*
X267599D01*
X268599Y732700D01*
X270598Y737698D02*
X274597D01*
Y736698D01*
X270598Y732700D01*
Y731700D01*
X276596Y736698D02*
X277596Y737698D01*
X279595D01*
X280595Y736698D01*
Y735699D01*
X279595Y734699D01*
X280595Y733699D01*
Y732700D01*
X279595Y731700D01*
X277596D01*
X276596Y732700D01*
Y733699D01*
X277596Y734699D01*
X276596Y735699D01*
Y736698D01*
X277596Y734699D02*
X279595D01*
X245099Y736898D02*
X244099Y737898D01*
X242100D01*
X241100Y736898D01*
Y732900D01*
X242100Y731900D01*
X244099D01*
X245099Y732900D01*
X247098Y737898D02*
X251097D01*
Y736898D01*
X247098Y732900D01*
Y731900D01*
X253096Y737898D02*
X257095D01*
Y736898D01*
X253096Y732900D01*
Y731900D01*
X404099Y736898D02*
X403099Y737898D01*
X401100D01*
X400100Y736898D01*
Y732900D01*
X401100Y731900D01*
X403099D01*
X404099Y732900D01*
X406098Y737898D02*
X410097D01*
Y736898D01*
X406098Y732900D01*
Y731900D01*
X416095Y737898D02*
X414095Y736898D01*
X412096Y734899D01*
Y732900D01*
X413096Y731900D01*
X415095D01*
X416095Y732900D01*
Y733899D01*
X415095Y734899D01*
X412096D01*
X381099Y736898D02*
X380099Y737898D01*
X378100D01*
X377100Y736898D01*
Y732900D01*
X378100Y731900D01*
X380099D01*
X381099Y732900D01*
X383098Y737898D02*
X387097D01*
Y736898D01*
X383098Y732900D01*
Y731900D01*
X393095Y737898D02*
X389096D01*
Y734899D01*
X391095Y735899D01*
X392095D01*
X393095Y734899D01*
Y732900D01*
X392095Y731900D01*
X390096D01*
X389096Y732900D01*
X543099Y736898D02*
X542099Y737898D01*
X540100D01*
X539100Y736898D01*
Y732900D01*
X540100Y731900D01*
X542099D01*
X543099Y732900D01*
X545098Y737898D02*
X549097D01*
Y736898D01*
X545098Y732900D01*
Y731900D01*
X554095D02*
Y737898D01*
X551096Y734899D01*
X555095D01*
X520099Y736898D02*
X519099Y737898D01*
X517100D01*
X516100Y736898D01*
Y732900D01*
X517100Y731900D01*
X519099D01*
X520099Y732900D01*
X522098Y737898D02*
X526097D01*
Y736898D01*
X522098Y732900D01*
Y731900D01*
X528096Y736898D02*
X529096Y737898D01*
X531095D01*
X532095Y736898D01*
Y735899D01*
X531095Y734899D01*
X530095D01*
X531095D01*
X532095Y733899D01*
Y732900D01*
X531095Y731900D01*
X529096D01*
X528096Y732900D01*
X679599Y736898D02*
X678599Y737898D01*
X676600D01*
X675600Y736898D01*
Y732900D01*
X676600Y731900D01*
X678599D01*
X679599Y732900D01*
X681598Y737898D02*
X685597D01*
Y736898D01*
X681598Y732900D01*
Y731900D01*
X691595D02*
X687596D01*
X691595Y735899D01*
Y736898D01*
X690595Y737898D01*
X688596D01*
X687596Y736898D01*
X658599D02*
X657599Y737898D01*
X655600D01*
X654600Y736898D01*
Y732900D01*
X655600Y731900D01*
X657599D01*
X658599Y732900D01*
X660598Y737898D02*
X664597D01*
Y736898D01*
X660598Y732900D01*
Y731900D01*
X666596D02*
X668596D01*
X667596D01*
Y737898D01*
X666596Y736898D01*
X401650Y203997D02*
Y209995D01*
X404649D01*
X405649Y208996D01*
Y206996D01*
X404649Y205997D01*
X401650D01*
X403649D02*
X405649Y203997D01*
X410647D02*
Y209995D01*
X407648Y206996D01*
X411647D01*
X416645Y203997D02*
Y209995D01*
X413646Y206996D01*
X417645D01*
X417150Y205450D02*
Y211448D01*
X420149D01*
X421149Y210448D01*
Y208449D01*
X420149Y207449D01*
X417150D01*
X419149D02*
X421149Y205450D01*
X426147D02*
Y211448D01*
X423148Y208449D01*
X427147D01*
X429146Y210448D02*
X430146Y211448D01*
X432145D01*
X433145Y210448D01*
Y209449D01*
X432145Y208449D01*
X431145D01*
X432145D01*
X433145Y207449D01*
Y206450D01*
X432145Y205450D01*
X430146D01*
X429146Y206450D01*
X440150Y205450D02*
Y211448D01*
X443149D01*
X444149Y210448D01*
Y208449D01*
X443149Y207449D01*
X440150D01*
X442149D02*
X444149Y205450D01*
X449147D02*
Y211448D01*
X446148Y208449D01*
X450147D01*
X456145Y205450D02*
X452146D01*
X456145Y209449D01*
Y210448D01*
X455145Y211448D01*
X453146D01*
X452146Y210448D01*
X463150Y205450D02*
Y211448D01*
X466149D01*
X467149Y210448D01*
Y208449D01*
X466149Y207449D01*
X463150D01*
X465149D02*
X467149Y205450D01*
X472147D02*
Y211448D01*
X469148Y208449D01*
X473147D01*
X475146Y205450D02*
X477145D01*
X476146D01*
Y211448D01*
X475146Y210448D01*
X644500Y304498D02*
X648499Y298500D01*
Y304498D02*
X644500Y298500D01*
X650498Y303498D02*
X651498Y304498D01*
X653497D01*
X654497Y303498D01*
Y302499D01*
X653497Y301499D01*
X652497D01*
X653497D01*
X654497Y300499D01*
Y299500D01*
X653497Y298500D01*
X651498D01*
X650498Y299500D01*
X192900Y418642D02*
X196899Y412644D01*
Y418642D02*
X192900Y412644D01*
X202897D02*
X198898D01*
X202897Y416643D01*
Y417642D01*
X201897Y418642D01*
X199898D01*
X198898Y417642D01*
X170750Y378648D02*
X174749Y372650D01*
Y378648D02*
X170750Y372650D01*
X176748D02*
X178747D01*
X177748D01*
Y378648D01*
X176748Y377648D01*
X523400Y206973D02*
Y201975D01*
X524400Y200975D01*
X526399D01*
X527399Y201975D01*
Y206973D01*
X529398Y200975D02*
X531397D01*
X530398D01*
Y206973D01*
X529398Y205973D01*
X534396Y206973D02*
X538395D01*
Y205973D01*
X534396Y201975D01*
Y200975D01*
X628000Y279798D02*
Y274800D01*
X629000Y273800D01*
X630999D01*
X631999Y274800D01*
Y279798D01*
X633998Y273800D02*
X635997D01*
X634998D01*
Y279798D01*
X633998Y278798D01*
X642995Y279798D02*
X640996Y278798D01*
X638996Y276799D01*
Y274800D01*
X639996Y273800D01*
X641995D01*
X642995Y274800D01*
Y275799D01*
X641995Y276799D01*
X638996D01*
X370050Y645948D02*
Y640950D01*
X371050Y639950D01*
X373049D01*
X374049Y640950D01*
Y645948D01*
X376048Y639950D02*
X378047D01*
X377048D01*
Y645948D01*
X376048Y644948D01*
X385045Y645948D02*
X381046D01*
Y642949D01*
X383046Y643949D01*
X384046D01*
X385045Y642949D01*
Y640950D01*
X384046Y639950D01*
X382046D01*
X381046Y640950D01*
X441750Y266948D02*
Y261950D01*
X442750Y260950D01*
X444749D01*
X445749Y261950D01*
Y266948D01*
X447748Y260950D02*
X449747D01*
X448748D01*
Y266948D01*
X447748Y265948D01*
X455746Y260950D02*
Y266948D01*
X452746Y263949D01*
X456745D01*
X295600Y180998D02*
Y176000D01*
X296600Y175000D01*
X298599D01*
X299599Y176000D01*
Y180998D01*
X301598Y175000D02*
X303597D01*
X302598D01*
Y180998D01*
X301598Y179998D01*
X306596D02*
X307596Y180998D01*
X309595D01*
X310595Y179998D01*
Y178999D01*
X309595Y177999D01*
X308596D01*
X309595D01*
X310595Y176999D01*
Y176000D01*
X309595Y175000D01*
X307596D01*
X306596Y176000D01*
X311750Y314948D02*
Y309950D01*
X312750Y308950D01*
X314749D01*
X315749Y309950D01*
Y314948D01*
X317748Y308950D02*
X319747D01*
X318748D01*
Y314948D01*
X317748Y313948D01*
X326745Y308950D02*
X322746D01*
X326745Y312949D01*
Y313948D01*
X325746Y314948D01*
X323746D01*
X322746Y313948D01*
X236600Y664598D02*
Y659600D01*
X237600Y658600D01*
X239599D01*
X240599Y659600D01*
Y664598D01*
X242598Y658600D02*
X244597D01*
X243598D01*
Y664598D01*
X242598Y663598D01*
X247596Y658600D02*
X249596D01*
X248596D01*
Y664598D01*
X247596Y663598D01*
X330750Y228448D02*
Y223450D01*
X331750Y222450D01*
X333749D01*
X334749Y223450D01*
Y228448D01*
X336748Y222450D02*
X338747D01*
X337748D01*
Y228448D01*
X336748Y227448D01*
X341746D02*
X342746Y228448D01*
X344745D01*
X345745Y227448D01*
Y223450D01*
X344745Y222450D01*
X342746D01*
X341746Y223450D01*
Y227448D01*
X237083Y706098D02*
Y701100D01*
X238082Y700100D01*
X240082D01*
X241081Y701100D01*
Y706098D01*
X243081Y701100D02*
X244080Y700100D01*
X246080D01*
X247079Y701100D01*
Y705098D01*
X246080Y706098D01*
X244080D01*
X243081Y705098D01*
Y704099D01*
X244080Y703099D01*
X247079D01*
X248100Y603298D02*
Y598300D01*
X249100Y597300D01*
X251099D01*
X252099Y598300D01*
Y603298D01*
X254098Y602298D02*
X255098Y603298D01*
X257097D01*
X258097Y602298D01*
Y601299D01*
X257097Y600299D01*
X258097Y599299D01*
Y598300D01*
X257097Y597300D01*
X255098D01*
X254098Y598300D01*
Y599299D01*
X255098Y600299D01*
X254098Y601299D01*
Y602298D01*
X255098Y600299D02*
X257097D01*
X593100Y540898D02*
Y535900D01*
X594100Y534900D01*
X596099D01*
X597099Y535900D01*
Y540898D01*
X599098D02*
X603097D01*
Y539898D01*
X599098Y535900D01*
Y534900D01*
X431600Y571698D02*
Y566700D01*
X432600Y565700D01*
X434599D01*
X435599Y566700D01*
Y571698D01*
X441597D02*
X439597Y570698D01*
X437598Y568699D01*
Y566700D01*
X438598Y565700D01*
X440597D01*
X441597Y566700D01*
Y567699D01*
X440597Y568699D01*
X437598D01*
X347200Y574398D02*
Y569400D01*
X348200Y568400D01*
X350199D01*
X351199Y569400D01*
Y574398D01*
X356197Y568400D02*
Y574398D01*
X353198Y571399D01*
X357197D01*
X437050Y644948D02*
Y639950D01*
X438050Y638950D01*
X440049D01*
X441049Y639950D01*
Y644948D01*
X443048Y643948D02*
X444048Y644948D01*
X446047D01*
X447047Y643948D01*
Y642949D01*
X446047Y641949D01*
X445047D01*
X446047D01*
X447047Y640949D01*
Y639950D01*
X446047Y638950D01*
X444048D01*
X443048Y639950D01*
X403600Y466898D02*
Y461900D01*
X404600Y460900D01*
X406599D01*
X407599Y461900D01*
Y466898D01*
X413597Y460900D02*
X409598D01*
X413597Y464899D01*
Y465898D01*
X412597Y466898D01*
X410598D01*
X409598Y465898D01*
X223950Y475048D02*
Y470050D01*
X224950Y469050D01*
X226949D01*
X227949Y470050D01*
Y475048D01*
X229948Y469050D02*
X231947D01*
X230948D01*
Y475048D01*
X229948Y474048D01*
X203749Y195148D02*
X202749Y196148D01*
X200750D01*
X199750Y195148D01*
Y194149D01*
X200750Y193149D01*
X202749D01*
X203749Y192149D01*
Y191150D01*
X202749Y190150D01*
X200750D01*
X199750Y191150D01*
X205748Y196148D02*
Y190150D01*
X207747Y192149D01*
X209747Y190150D01*
Y196148D01*
X211746Y189150D02*
X215745D01*
X217744Y196148D02*
Y190150D01*
Y193149D01*
X221743D01*
Y196148D01*
Y190150D01*
X224742Y194149D02*
X226741D01*
X227741Y193149D01*
Y190150D01*
X224742D01*
X223742Y191150D01*
X224742Y192149D01*
X227741D01*
X229740Y190150D02*
Y194149D01*
X232739D01*
X233739Y193149D01*
Y190150D01*
X237738Y188151D02*
X238737D01*
X239737Y189150D01*
Y194149D01*
X236738D01*
X235738Y193149D01*
Y191150D01*
X236738Y190150D01*
X239737D01*
X241736Y196148D02*
Y191150D01*
X242736Y190150D01*
X244735D01*
X245735Y191150D01*
Y196148D01*
X247734Y188151D02*
Y194149D01*
X250733D01*
X251733Y193149D01*
Y191150D01*
X250733Y190150D01*
X247734D01*
X142749Y194648D02*
X141749Y195648D01*
X139750D01*
X138750Y194648D01*
Y193649D01*
X139750Y192649D01*
X141749D01*
X142749Y191649D01*
Y190650D01*
X141749Y189650D01*
X139750D01*
X138750Y190650D01*
X144748Y195648D02*
Y189650D01*
X146747Y191649D01*
X148747Y189650D01*
Y195648D01*
X150746Y189650D02*
X152745D01*
X151746D01*
Y195648D01*
X150746Y194648D01*
X493100Y185900D02*
Y191898D01*
X496099D01*
X497099Y190898D01*
Y188899D01*
X496099Y187899D01*
X493100D01*
X495099D02*
X497099Y185900D01*
X499098Y190898D02*
X500098Y191898D01*
X502097D01*
X503097Y190898D01*
Y189899D01*
X502097Y188899D01*
X501097D01*
X502097D01*
X503097Y187899D01*
Y186900D01*
X502097Y185900D01*
X500098D01*
X499098Y186900D01*
X505096Y185900D02*
X507095D01*
X506096D01*
Y191898D01*
X505096Y190898D01*
X721600Y225400D02*
Y231398D01*
X724599D01*
X725599Y230398D01*
Y228399D01*
X724599Y227399D01*
X721600D01*
X723599D02*
X725599Y225400D01*
X727598Y230398D02*
X728598Y231398D01*
X730597D01*
X731597Y230398D01*
Y229399D01*
X730597Y228399D01*
X729597D01*
X730597D01*
X731597Y227399D01*
Y226400D01*
X730597Y225400D01*
X728598D01*
X727598Y226400D01*
X733596Y230398D02*
X734596Y231398D01*
X736595D01*
X737595Y230398D01*
Y226400D01*
X736595Y225400D01*
X734596D01*
X733596Y226400D01*
Y230398D01*
X747600Y241947D02*
Y247945D01*
X750599D01*
X751599Y246946D01*
Y244946D01*
X750599Y243947D01*
X747600D01*
X749599D02*
X751599Y241947D01*
X757597D02*
X753598D01*
X757597Y245946D01*
Y246946D01*
X756597Y247945D01*
X754598D01*
X753598Y246946D01*
X759596Y242947D02*
X760596Y241947D01*
X762595D01*
X763595Y242947D01*
Y246946D01*
X762595Y247945D01*
X760596D01*
X759596Y246946D01*
Y245946D01*
X760596Y244946D01*
X763595D01*
X701100Y199400D02*
Y205398D01*
X704099D01*
X705099Y204398D01*
Y202399D01*
X704099Y201399D01*
X701100D01*
X703099D02*
X705099Y199400D01*
X711097D02*
X707098D01*
X711097Y203399D01*
Y204398D01*
X710097Y205398D01*
X708098D01*
X707098Y204398D01*
X713096D02*
X714096Y205398D01*
X716095D01*
X717095Y204398D01*
Y203399D01*
X716095Y202399D01*
X717095Y201399D01*
Y200400D01*
X716095Y199400D01*
X714096D01*
X713096Y200400D01*
Y201399D01*
X714096Y202399D01*
X713096Y203399D01*
Y204398D01*
X714096Y202399D02*
X716095D01*
X162600Y437400D02*
Y443398D01*
X165599D01*
X166599Y442398D01*
Y440399D01*
X165599Y439399D01*
X162600D01*
X164599D02*
X166599Y437400D01*
X172597D02*
X168598D01*
X172597Y441399D01*
Y442398D01*
X171597Y443398D01*
X169598D01*
X168598Y442398D01*
X178595Y443398D02*
X176595Y442398D01*
X174596Y440399D01*
Y438400D01*
X175596Y437400D01*
X177595D01*
X178595Y438400D01*
Y439399D01*
X177595Y440399D01*
X174596D01*
X484600Y155400D02*
Y161398D01*
X487599D01*
X488599Y160398D01*
Y158399D01*
X487599Y157399D01*
X484600D01*
X486599D02*
X488599Y155400D01*
X494597D02*
X490598D01*
X494597Y159399D01*
Y160398D01*
X493597Y161398D01*
X491598D01*
X490598Y160398D01*
X500595Y161398D02*
X496596D01*
Y158399D01*
X498596Y159399D01*
X499595D01*
X500595Y158399D01*
Y156400D01*
X499595Y155400D01*
X497596D01*
X496596Y156400D01*
X182650Y260950D02*
Y266948D01*
X185649D01*
X186649Y265948D01*
Y263949D01*
X185649Y262949D01*
X182650D01*
X184649D02*
X186649Y260950D01*
X192647D02*
X188648D01*
X192647Y264949D01*
Y265948D01*
X191647Y266948D01*
X189648D01*
X188648Y265948D01*
X197645Y260950D02*
Y266948D01*
X194646Y263949D01*
X198645D01*
X205650Y260950D02*
Y266948D01*
X208649D01*
X209649Y265948D01*
Y263949D01*
X208649Y262949D01*
X205650D01*
X207649D02*
X209649Y260950D01*
X215647D02*
X211648D01*
X215647Y264949D01*
Y265948D01*
X214647Y266948D01*
X212648D01*
X211648Y265948D01*
X217646D02*
X218646Y266948D01*
X220645D01*
X221645Y265948D01*
Y264949D01*
X220645Y263949D01*
X219646D01*
X220645D01*
X221645Y262949D01*
Y261950D01*
X220645Y260950D01*
X218646D01*
X217646Y261950D01*
X316650Y260950D02*
Y266948D01*
X319649D01*
X320649Y265948D01*
Y263949D01*
X319649Y262949D01*
X316650D01*
X318649D02*
X320649Y260950D01*
X326647D02*
X322648D01*
X326647Y264949D01*
Y265948D01*
X325647Y266948D01*
X323648D01*
X322648Y265948D01*
X332645Y260950D02*
X328646D01*
X332645Y264949D01*
Y265948D01*
X331645Y266948D01*
X329646D01*
X328646Y265948D01*
X295650Y260950D02*
Y266948D01*
X298649D01*
X299649Y265948D01*
Y263949D01*
X298649Y262949D01*
X295650D01*
X297649D02*
X299649Y260950D01*
X305647D02*
X301648D01*
X305647Y264949D01*
Y265948D01*
X304647Y266948D01*
X302648D01*
X301648Y265948D01*
X307646Y260950D02*
X309646D01*
X308646D01*
Y266948D01*
X307646Y265948D01*
X272650Y260950D02*
Y266948D01*
X275649D01*
X276649Y265948D01*
Y263949D01*
X275649Y262949D01*
X272650D01*
X274649D02*
X276649Y260950D01*
X282647D02*
X278648D01*
X282647Y264949D01*
Y265948D01*
X281647Y266948D01*
X279648D01*
X278648Y265948D01*
X284646D02*
X285646Y266948D01*
X287645D01*
X288645Y265948D01*
Y261950D01*
X287645Y260950D01*
X285646D01*
X284646Y261950D01*
Y265948D01*
X250650Y260950D02*
Y266948D01*
X253649D01*
X254649Y265948D01*
Y263949D01*
X253649Y262949D01*
X250650D01*
X252649D02*
X254649Y260950D01*
X256648D02*
X258647D01*
X257648D01*
Y266948D01*
X256648Y265948D01*
X261646Y261950D02*
X262646Y260950D01*
X264646D01*
X265645Y261950D01*
Y265948D01*
X264646Y266948D01*
X262646D01*
X261646Y265948D01*
Y264949D01*
X262646Y263949D01*
X265645D01*
X228650Y260950D02*
Y266948D01*
X231649D01*
X232649Y265948D01*
Y263949D01*
X231649Y262949D01*
X228650D01*
X230649D02*
X232649Y260950D01*
X234648D02*
X236647D01*
X235648D01*
Y266948D01*
X234648Y265948D01*
X239646D02*
X240646Y266948D01*
X242646D01*
X243645Y265948D01*
Y264949D01*
X242646Y263949D01*
X243645Y262949D01*
Y261950D01*
X242646Y260950D01*
X240646D01*
X239646Y261950D01*
Y262949D01*
X240646Y263949D01*
X239646Y264949D01*
Y265948D01*
X240646Y263949D02*
X242646D01*
X301150Y201997D02*
Y207995D01*
X304149D01*
X305149Y206996D01*
Y204996D01*
X304149Y203997D01*
X301150D01*
X303149D02*
X305149Y201997D01*
X307148D02*
X309147D01*
X308148D01*
Y207995D01*
X307148Y206996D01*
X316145Y207995D02*
X312146D01*
Y204996D01*
X314146Y205996D01*
X315145D01*
X316145Y204996D01*
Y202997D01*
X315145Y201997D01*
X313146D01*
X312146Y202997D01*
X162003Y514850D02*
Y520848D01*
X165002D01*
X166001Y519848D01*
Y517849D01*
X165002Y516849D01*
X162003D01*
X164002D02*
X166001Y514850D01*
X172000D02*
X168001D01*
X172000Y518849D01*
Y519848D01*
X171000Y520848D01*
X169000D01*
X168001Y519848D01*
X176100Y510900D02*
Y516898D01*
X179099D01*
X180099Y515898D01*
Y513899D01*
X179099Y512899D01*
X176100D01*
X178099D02*
X180099Y510900D01*
X182098D02*
X184097D01*
X183098D01*
Y516898D01*
X182098Y515898D01*
X111650Y231650D02*
Y237648D01*
X114649D01*
X115649Y236648D01*
Y234649D01*
X114649Y233649D01*
X111650D01*
X117648Y231650D02*
X119647D01*
X118648D01*
Y237648D01*
X117648Y236648D01*
X267000Y202998D02*
Y197000D01*
Y198999D01*
X270999Y202998D01*
X268000Y199999D01*
X270999Y197000D01*
X272998D02*
X274997D01*
X273998D01*
Y202998D01*
X272998Y201998D01*
X117649Y286348D02*
X115649D01*
X116649D01*
Y281350D01*
X115649Y280350D01*
X114650D01*
X113650Y281350D01*
X119648Y286348D02*
X123647D01*
X121647D01*
Y280350D01*
X125646D02*
Y284349D01*
X127646Y286348D01*
X129645Y284349D01*
Y280350D01*
Y283349D01*
X125646D01*
X135643Y285348D02*
X134643Y286348D01*
X132644D01*
X131644Y285348D01*
Y281350D01*
X132644Y280350D01*
X134643D01*
X135643Y281350D01*
Y283349D01*
X133643D01*
X137642Y279350D02*
X141641D01*
X147639Y285348D02*
X146639Y286348D01*
X144640D01*
X143640Y285348D01*
Y284349D01*
X144640Y283349D01*
X146639D01*
X147639Y282349D01*
Y281350D01*
X146639Y280350D01*
X144640D01*
X143640Y281350D01*
X153637Y286348D02*
X149638D01*
Y280350D01*
X153637D01*
X149638Y283349D02*
X151638D01*
X155636Y286348D02*
Y280350D01*
X159635D01*
X569099Y159698D02*
X567099D01*
X568099D01*
Y154700D01*
X567099Y153700D01*
X566100D01*
X565100Y154700D01*
X571098Y158698D02*
X572098Y159698D01*
X574097D01*
X575097Y158698D01*
Y157699D01*
X574097Y156699D01*
X573097D01*
X574097D01*
X575097Y155699D01*
Y154700D01*
X574097Y153700D01*
X572098D01*
X571098Y154700D01*
X510799Y160698D02*
X508799D01*
X509799D01*
Y155700D01*
X508799Y154700D01*
X507800D01*
X506800Y155700D01*
X516797Y154700D02*
X512798D01*
X516797Y158699D01*
Y159698D01*
X515797Y160698D01*
X513798D01*
X512798Y159698D01*
X622949Y215548D02*
X620949D01*
X621949D01*
Y210550D01*
X620949Y209550D01*
X619950D01*
X618950Y210550D01*
X624948Y209550D02*
X626947D01*
X625948D01*
Y215548D01*
X624948Y214548D01*
X116700Y705898D02*
Y699900D01*
X119699D01*
X120699Y700900D01*
Y704898D01*
X119699Y705898D01*
X116700D01*
X122698D02*
X124697D01*
X123698D01*
Y699900D01*
X122698D01*
X124697D01*
X131695Y704898D02*
X130695Y705898D01*
X128696D01*
X127696Y704898D01*
Y703899D01*
X128696Y702899D01*
X130695D01*
X131695Y701899D01*
Y700900D01*
X130695Y699900D01*
X128696D01*
X127696Y700900D01*
X133695Y699900D02*
Y705898D01*
X136694D01*
X137693Y704898D01*
Y702899D01*
X136694Y701899D01*
X133695D01*
X139693Y699900D02*
X141692D01*
X140692D01*
Y705898D01*
X139693Y704898D01*
X681599Y230398D02*
X680599Y231398D01*
X678600D01*
X677600Y230398D01*
Y226400D01*
X678600Y225400D01*
X680599D01*
X681599Y226400D01*
X687597Y231398D02*
X685597Y230398D01*
X683598Y228399D01*
Y226400D01*
X684598Y225400D01*
X686597D01*
X687597Y226400D01*
Y227399D01*
X686597Y228399D01*
X683598D01*
X693595Y231398D02*
X691596Y230398D01*
X689596Y228399D01*
Y226400D01*
X690596Y225400D01*
X692595D01*
X693595Y226400D01*
Y227399D01*
X692595Y228399D01*
X689596D01*
X727599Y262142D02*
X726599Y263142D01*
X724600D01*
X723600Y262142D01*
Y258144D01*
X724600Y257144D01*
X726599D01*
X727599Y258144D01*
X733597Y263142D02*
X731597Y262142D01*
X729598Y260143D01*
Y258144D01*
X730598Y257144D01*
X732597D01*
X733597Y258144D01*
Y259143D01*
X732597Y260143D01*
X729598D01*
X739595Y263142D02*
X735596D01*
Y260143D01*
X737596Y261143D01*
X738595D01*
X739595Y260143D01*
Y258144D01*
X738595Y257144D01*
X736596D01*
X735596Y258144D01*
X483599Y136898D02*
X482599Y137898D01*
X480600D01*
X479600Y136898D01*
Y132900D01*
X480600Y131900D01*
X482599D01*
X483599Y132900D01*
X489597Y137898D02*
X487597Y136898D01*
X485598Y134899D01*
Y132900D01*
X486598Y131900D01*
X488597D01*
X489597Y132900D01*
Y133899D01*
X488597Y134899D01*
X485598D01*
X494595Y131900D02*
Y137898D01*
X491596Y134899D01*
X495595D01*
X143599Y442398D02*
X142599Y443398D01*
X140600D01*
X139600Y442398D01*
Y438400D01*
X140600Y437400D01*
X142599D01*
X143599Y438400D01*
X149597Y443398D02*
X147597Y442398D01*
X145598Y440399D01*
Y438400D01*
X146598Y437400D01*
X148597D01*
X149597Y438400D01*
Y439399D01*
X148597Y440399D01*
X145598D01*
X151596Y442398D02*
X152596Y443398D01*
X154595D01*
X155595Y442398D01*
Y441399D01*
X154595Y440399D01*
X153595D01*
X154595D01*
X155595Y439399D01*
Y438400D01*
X154595Y437400D01*
X152596D01*
X151596Y438400D01*
X569599Y184642D02*
X568599Y185642D01*
X566600D01*
X565600Y184642D01*
Y180644D01*
X566600Y179644D01*
X568599D01*
X569599Y180644D01*
X575597Y185642D02*
X573597Y184642D01*
X571598Y182643D01*
Y180644D01*
X572598Y179644D01*
X574597D01*
X575597Y180644D01*
Y181643D01*
X574597Y182643D01*
X571598D01*
X581595Y179644D02*
X577596D01*
X581595Y183643D01*
Y184642D01*
X580595Y185642D01*
X578596D01*
X577596Y184642D01*
X189599Y442398D02*
X188599Y443398D01*
X186600D01*
X185600Y442398D01*
Y438400D01*
X186600Y437400D01*
X188599D01*
X189599Y438400D01*
X195597Y443398D02*
X193597Y442398D01*
X191598Y440399D01*
Y438400D01*
X192598Y437400D01*
X194597D01*
X195597Y438400D01*
Y439399D01*
X194597Y440399D01*
X191598D01*
X197596Y437400D02*
X199595D01*
X198596D01*
Y443398D01*
X197596Y442398D01*
X685599Y319398D02*
X684599Y320398D01*
X682600D01*
X681600Y319398D01*
Y315400D01*
X682600Y314400D01*
X684599D01*
X685599Y315400D01*
X691597Y320398D02*
X689597Y319398D01*
X687598Y317399D01*
Y315400D01*
X688598Y314400D01*
X690597D01*
X691597Y315400D01*
Y316399D01*
X690597Y317399D01*
X687598D01*
X693596Y319398D02*
X694596Y320398D01*
X696595D01*
X697595Y319398D01*
Y315400D01*
X696595Y314400D01*
X694596D01*
X693596Y315400D01*
Y319398D01*
X666599D02*
X665599Y320398D01*
X663600D01*
X662600Y319398D01*
Y315400D01*
X663600Y314400D01*
X665599D01*
X666599Y315400D01*
X672597Y320398D02*
X668598D01*
Y317399D01*
X670597Y318399D01*
X671597D01*
X672597Y317399D01*
Y315400D01*
X671597Y314400D01*
X669598D01*
X668598Y315400D01*
X674596D02*
X675596Y314400D01*
X677595D01*
X678595Y315400D01*
Y319398D01*
X677595Y320398D01*
X675596D01*
X674596Y319398D01*
Y318399D01*
X675596Y317399D01*
X678595D01*
X567649Y265948D02*
X566649Y266948D01*
X564650D01*
X563650Y265948D01*
Y261950D01*
X564650Y260950D01*
X566649D01*
X567649Y261950D01*
X572647Y260950D02*
Y266948D01*
X569648Y263949D01*
X573647D01*
X575646Y265948D02*
X576646Y266948D01*
X578645D01*
X579645Y265948D01*
Y264949D01*
X578645Y263949D01*
X579645Y262949D01*
Y261950D01*
X578645Y260950D01*
X576646D01*
X575646Y261950D01*
Y262949D01*
X576646Y263949D01*
X575646Y264949D01*
Y265948D01*
X576646Y263949D02*
X578645D01*
X544649Y265948D02*
X543649Y266948D01*
X541650D01*
X540650Y265948D01*
Y261950D01*
X541650Y260950D01*
X543649D01*
X544649Y261950D01*
X549647Y260950D02*
Y266948D01*
X546648Y263949D01*
X550647D01*
X552646Y266948D02*
X556645D01*
Y265948D01*
X552646Y261950D01*
Y260950D01*
X521649Y265948D02*
X520649Y266948D01*
X518650D01*
X517650Y265948D01*
Y261950D01*
X518650Y260950D01*
X520649D01*
X521649Y261950D01*
X526647Y260950D02*
Y266948D01*
X523648Y263949D01*
X527647D01*
X533645Y266948D02*
X531645Y265948D01*
X529646Y263949D01*
Y261950D01*
X530646Y260950D01*
X532645D01*
X533645Y261950D01*
Y262949D01*
X532645Y263949D01*
X529646D01*
X498649Y265948D02*
X497649Y266948D01*
X495650D01*
X494650Y265948D01*
Y261950D01*
X495650Y260950D01*
X497649D01*
X498649Y261950D01*
X503647Y260950D02*
Y266948D01*
X500648Y263949D01*
X504647D01*
X510645Y266948D02*
X506646D01*
Y263949D01*
X508645Y264949D01*
X509645D01*
X510645Y263949D01*
Y261950D01*
X509645Y260950D01*
X507646D01*
X506646Y261950D01*
X475649Y265948D02*
X474649Y266948D01*
X472650D01*
X471650Y265948D01*
Y261950D01*
X472650Y260950D01*
X474649D01*
X475649Y261950D01*
X480647Y260950D02*
Y266948D01*
X477648Y263949D01*
X481647D01*
X486645Y260950D02*
Y266948D01*
X483646Y263949D01*
X487645D01*
X231149Y313948D02*
X230149Y314948D01*
X228150D01*
X227150Y313948D01*
Y309950D01*
X228150Y308950D01*
X230149D01*
X231149Y309950D01*
X233148Y313948D02*
X234148Y314948D01*
X236147D01*
X237147Y313948D01*
Y312949D01*
X236147Y311949D01*
X235147D01*
X236147D01*
X237147Y310949D01*
Y309950D01*
X236147Y308950D01*
X234148D01*
X233148Y309950D01*
X239146D02*
X240146Y308950D01*
X242145D01*
X243145Y309950D01*
Y313948D01*
X242145Y314948D01*
X240146D01*
X239146Y313948D01*
Y312949D01*
X240146Y311949D01*
X243145D01*
X140649Y503448D02*
X139649Y504448D01*
X137650D01*
X136650Y503448D01*
Y499450D01*
X137650Y498450D01*
X139649D01*
X140649Y499450D01*
X142648Y503448D02*
X143648Y504448D01*
X145647D01*
X146647Y503448D01*
Y502449D01*
X145647Y501449D01*
X144647D01*
X145647D01*
X146647Y500449D01*
Y499450D01*
X145647Y498450D01*
X143648D01*
X142648Y499450D01*
X148646Y498450D02*
X150645D01*
X149646D01*
Y504448D01*
X148646Y503448D01*
X185149Y390436D02*
X184149Y391436D01*
X182150D01*
X181150Y390436D01*
Y386438D01*
X182150Y385438D01*
X184149D01*
X185149Y386438D01*
X187148Y390436D02*
X188148Y391436D01*
X190147D01*
X191147Y390436D01*
Y389437D01*
X190147Y388437D01*
X189147D01*
X190147D01*
X191147Y387437D01*
Y386438D01*
X190147Y385438D01*
X188148D01*
X187148Y386438D01*
X193146Y390436D02*
X194146Y391436D01*
X196145D01*
X197145Y390436D01*
Y386438D01*
X196145Y385438D01*
X194146D01*
X193146Y386438D01*
Y390436D01*
X161649Y503448D02*
X160649Y504448D01*
X158650D01*
X157650Y503448D01*
Y499450D01*
X158650Y498450D01*
X160649D01*
X161649Y499450D01*
X167647Y498450D02*
X163648D01*
X167647Y502449D01*
Y503448D01*
X166647Y504448D01*
X164648D01*
X163648Y503448D01*
X169646Y499450D02*
X170646Y498450D01*
X172645D01*
X173645Y499450D01*
Y503448D01*
X172645Y504448D01*
X170646D01*
X169646Y503448D01*
Y502449D01*
X170646Y501449D01*
X173645D01*
X209999Y420998D02*
X208999Y421998D01*
X207000D01*
X206000Y420998D01*
Y417000D01*
X207000Y416000D01*
X208999D01*
X209999Y417000D01*
X215997Y416000D02*
X211998D01*
X215997Y419999D01*
Y420998D01*
X214997Y421998D01*
X212998D01*
X211998Y420998D01*
X217996D02*
X218996Y421998D01*
X220995D01*
X221995Y420998D01*
Y419999D01*
X220995Y418999D01*
X221995Y417999D01*
Y417000D01*
X220995Y416000D01*
X218996D01*
X217996Y417000D01*
Y417999D01*
X218996Y418999D01*
X217996Y419999D01*
Y420998D01*
X218996Y418999D02*
X220995D01*
X151502Y337243D02*
X150502Y336243D01*
Y334244D01*
X151502Y333244D01*
X155500D01*
X156500Y334244D01*
Y336243D01*
X155500Y337243D01*
X156500Y343241D02*
Y339242D01*
X152501Y343241D01*
X151502D01*
X150502Y342241D01*
Y340242D01*
X151502Y339242D01*
X150502Y345240D02*
Y349239D01*
X151502D01*
X155500Y345240D01*
X156500D01*
X179149Y501448D02*
X178149Y502448D01*
X176150D01*
X175150Y501448D01*
Y497450D01*
X176150Y496450D01*
X178149D01*
X179149Y497450D01*
X185147Y496450D02*
X181148D01*
X185147Y500449D01*
Y501448D01*
X184147Y502448D01*
X182148D01*
X181148Y501448D01*
X191145Y502448D02*
X189146Y501448D01*
X187146Y499449D01*
Y497450D01*
X188146Y496450D01*
X190145D01*
X191145Y497450D01*
Y498449D01*
X190145Y499449D01*
X187146D01*
X152502Y357499D02*
X151502Y356499D01*
Y354500D01*
X152502Y353500D01*
X156500D01*
X157500Y354500D01*
Y356499D01*
X156500Y357499D01*
X157500Y363497D02*
Y359498D01*
X153501Y363497D01*
X152502D01*
X151502Y362497D01*
Y360498D01*
X152502Y359498D01*
Y365496D02*
X151502Y366496D01*
Y368495D01*
X152502Y369495D01*
X153501D01*
X154501Y368495D01*
Y367495D01*
Y368495D01*
X155501Y369495D01*
X156500D01*
X157500Y368495D01*
Y366496D01*
X156500Y365496D01*
X179649Y442692D02*
X178649Y443692D01*
X176650D01*
X175650Y442692D01*
Y438694D01*
X176650Y437694D01*
X178649D01*
X179649Y438694D01*
X185647Y437694D02*
X181648D01*
X185647Y441693D01*
Y442692D01*
X184647Y443692D01*
X182648D01*
X181648Y442692D01*
X191645Y437694D02*
X187646D01*
X191645Y441693D01*
Y442692D01*
X190645Y443692D01*
X188646D01*
X187646Y442692D01*
X107149Y479192D02*
X106149Y480192D01*
X104150D01*
X103150Y479192D01*
Y475194D01*
X104150Y474194D01*
X106149D01*
X107149Y475194D01*
X113147Y474194D02*
X109148D01*
X113147Y478193D01*
Y479192D01*
X112147Y480192D01*
X110148D01*
X109148Y479192D01*
X115146Y474194D02*
X117146D01*
X116146D01*
Y480192D01*
X115146Y479192D01*
X128149D02*
X127149Y480192D01*
X125150D01*
X124150Y479192D01*
Y475194D01*
X125150Y474194D01*
X127149D01*
X128149Y475194D01*
X134147Y474194D02*
X130148D01*
X134147Y478193D01*
Y479192D01*
X133147Y480192D01*
X131148D01*
X130148Y479192D01*
X136146D02*
X137146Y480192D01*
X139145D01*
X140145Y479192D01*
Y475194D01*
X139145Y474194D01*
X137146D01*
X136146Y475194D01*
Y479192D01*
X173149D02*
X172149Y480192D01*
X170150D01*
X169150Y479192D01*
Y475194D01*
X170150Y474194D01*
X172149D01*
X173149Y475194D01*
X175148Y474194D02*
X177147D01*
X176148D01*
Y480192D01*
X175148Y479192D01*
X180147Y475194D02*
X181146Y474194D01*
X183145D01*
X184145Y475194D01*
Y479192D01*
X183145Y480192D01*
X181146D01*
X180147Y479192D01*
Y478193D01*
X181146Y477193D01*
X184145D01*
X151149Y479192D02*
X150149Y480192D01*
X148150D01*
X147150Y479192D01*
Y475194D01*
X148150Y474194D01*
X150149D01*
X151149Y475194D01*
X153148Y474194D02*
X155147D01*
X154148D01*
Y480192D01*
X153148Y479192D01*
X158147D02*
X159146Y480192D01*
X161145D01*
X162145Y479192D01*
Y478193D01*
X161145Y477193D01*
X162145Y476193D01*
Y475194D01*
X161145Y474194D01*
X159146D01*
X158147Y475194D01*
Y476193D01*
X159146Y477193D01*
X158147Y478193D01*
Y479192D01*
X159146Y477193D02*
X161145D01*
X217149Y479192D02*
X216149Y480192D01*
X214150D01*
X213150Y479192D01*
Y475194D01*
X214150Y474194D01*
X216149D01*
X217149Y475194D01*
X219148Y474194D02*
X221147D01*
X220148D01*
Y480192D01*
X219148Y479192D01*
X224147Y480192D02*
X228145D01*
Y479192D01*
X224147Y475194D01*
Y474194D01*
X195149Y479192D02*
X194149Y480192D01*
X192150D01*
X191150Y479192D01*
Y475194D01*
X192150Y474194D01*
X194149D01*
X195149Y475194D01*
X197148Y474194D02*
X199147D01*
X198148D01*
Y480192D01*
X197148Y479192D01*
X206145Y480192D02*
X204146Y479192D01*
X202147Y477193D01*
Y475194D01*
X203146Y474194D01*
X205146D01*
X206145Y475194D01*
Y476193D01*
X205146Y477193D01*
X202147D01*
X694854Y251898D02*
X693855Y252898D01*
X691855D01*
X690856Y251898D01*
Y247900D01*
X691855Y246900D01*
X693855D01*
X694854Y247900D01*
X696854Y246900D02*
X698853D01*
X697854D01*
Y252898D01*
X696854Y251898D01*
X341750Y314648D02*
X345749Y310650D01*
X341750D02*
X345749Y314648D01*
X341750Y312649D02*
X345749D01*
X343749Y310650D02*
Y314648D01*
X355100Y158900D02*
Y164898D01*
X358099D01*
X359099Y163898D01*
Y161899D01*
X358099Y160899D01*
X355100D01*
X365097Y158900D02*
X361098D01*
X365097Y162899D01*
Y163898D01*
X364097Y164898D01*
X362098D01*
X361098Y163898D01*
X466150Y138350D02*
Y144348D01*
X469149D01*
X470149Y143348D01*
Y141349D01*
X469149Y140349D01*
X466150D01*
X472148Y143348D02*
X473148Y144348D01*
X475147D01*
X476147Y143348D01*
Y142349D01*
X475147Y141349D01*
X474147D01*
X475147D01*
X476147Y140349D01*
Y139350D01*
X475147Y138350D01*
X473148D01*
X472148Y139350D01*
X246150Y500997D02*
Y506995D01*
X249149D01*
X250149Y505996D01*
Y503996D01*
X249149Y502997D01*
X246150D01*
X248149D02*
X250149Y500997D01*
X255147D02*
Y506995D01*
X252148Y503996D01*
X256147D01*
X262145Y506995D02*
X258146D01*
Y503996D01*
X260145Y504996D01*
X261145D01*
X262145Y503996D01*
Y501997D01*
X261145Y500997D01*
X259146D01*
X258146Y501997D01*
X232650Y522950D02*
Y528948D01*
X235649D01*
X236649Y527948D01*
Y525949D01*
X235649Y524949D01*
X232650D01*
X234649D02*
X236649Y522950D01*
X241647D02*
Y528948D01*
X238648Y525949D01*
X242647D01*
X248645Y528948D02*
X246645Y527948D01*
X244646Y525949D01*
Y523950D01*
X245646Y522950D01*
X247645D01*
X248645Y523950D01*
Y524949D01*
X247645Y525949D01*
X244646D01*
X616300Y609898D02*
Y604900D01*
X617300Y603900D01*
X619299D01*
X620299Y604900D01*
Y609898D01*
X622298Y603900D02*
X624297D01*
X623298D01*
Y609898D01*
X622298Y608898D01*
X627296D02*
X628296Y609898D01*
X630296D01*
X631295Y608898D01*
Y607899D01*
X630296Y606899D01*
X631295Y605899D01*
Y604900D01*
X630296Y603900D01*
X628296D01*
X627296Y604900D01*
Y605899D01*
X628296Y606899D01*
X627296Y607899D01*
Y608898D01*
X628296Y606899D02*
X630296D01*
X596300Y382398D02*
Y377400D01*
X597300Y376400D01*
X599299D01*
X600299Y377400D01*
Y382398D01*
X602298Y376400D02*
X604297D01*
X603298D01*
Y382398D01*
X602298Y381398D01*
X607296Y377400D02*
X608296Y376400D01*
X610295D01*
X611295Y377400D01*
Y381398D01*
X610295Y382398D01*
X608296D01*
X607296Y381398D01*
Y380399D01*
X608296Y379399D01*
X611295D01*
X746400Y666098D02*
Y661100D01*
X747400Y660100D01*
X749399D01*
X750399Y661100D01*
Y666098D01*
X756397Y660100D02*
X752398D01*
X756397Y664099D01*
Y665098D01*
X755397Y666098D01*
X753398D01*
X752398Y665098D01*
X758396D02*
X759396Y666098D01*
X761395D01*
X762395Y665098D01*
Y661100D01*
X761395Y660100D01*
X759396D01*
X758396Y661100D01*
Y665098D01*
X599800Y456398D02*
Y451400D01*
X600800Y450400D01*
X602799D01*
X603799Y451400D01*
Y456398D01*
X609797Y450400D02*
X605798D01*
X609797Y454399D01*
Y455398D01*
X608797Y456398D01*
X606798D01*
X605798Y455398D01*
X611796Y450400D02*
X613796D01*
X612796D01*
Y456398D01*
X611796Y455398D01*
X731166Y109999D02*
X728500D01*
Y107999D01*
X729833D01*
X728500D01*
Y106000D01*
X733165Y108666D02*
X734498D01*
X735164Y107999D01*
Y106000D01*
X733165D01*
X732499Y106667D01*
X733165Y107333D01*
X735164D01*
X739163Y108666D02*
X737164D01*
X736497Y107999D01*
Y106667D01*
X737164Y106000D01*
X739163D01*
X742495D02*
X741163D01*
X740496Y106667D01*
Y107999D01*
X741163Y108666D01*
X742495D01*
X743162Y107999D01*
Y107333D01*
X740496D01*
D55*
X442181Y229083D02*
G03*
X442181Y229083I-492J0D01*
G01*
X312181Y277083D02*
G03*
X312181Y277083I-492J0D01*
G01*
X264910Y631689D02*
G03*
X264910Y631689I-492J0D01*
G01*
X331181Y190583D02*
G03*
X331181Y190583I-492J0D01*
G01*
X265409Y673189D02*
G03*
X265409Y673189I-492J0D01*
G01*
D56*
X448579Y238531D02*
G03*
X448579Y238531I-1181J0D01*
G01*
X318579Y286531D02*
G03*
X318579Y286531I-1181J0D01*
G01*
X256150Y637398D02*
G03*
X256150Y637398I-1181J0D01*
G01*
X337579Y200031D02*
G03*
X337579Y200031I-1181J0D01*
G01*
X256650Y678898D02*
G03*
X256650Y678898I-1181J0D01*
G01*
D57*
X431004Y531480D02*
G03*
X431004Y536992I0J2756D01*
G01*
X426500Y395000D02*
G03*
X423500Y395000I-1500J0D01*
G01*
X370000Y502500D02*
G03*
X367000Y502500I-1500J0D01*
G01*
X310000Y573500D02*
G03*
X310000Y570500I0J-1500D01*
G01*
X622500Y384500D02*
G03*
X619500Y384500I-1500J0D01*
G01*
X619000Y310500D02*
G03*
X616000Y310500I-1500J0D01*
G01*
X639000Y538000D02*
G03*
X636000Y538000I-1500J0D01*
G01*
X380500Y105500D02*
X460500D01*
X385500Y185500D02*
X460500D01*
X380500Y105500D02*
Y180500D01*
X460500Y105500D02*
Y185500D01*
X380500Y180500D02*
X385500Y185500D01*
X431004Y514992D02*
Y531480D01*
Y536992D02*
Y552992D01*
X501004Y514992D02*
Y552992D01*
X431004Y514992D02*
X501004D01*
X431035Y552988D02*
X501004Y552992D01*
X412000Y395000D02*
X423500D01*
X426500D02*
X438000D01*
X412000Y457500D02*
X438000D01*
X412000Y395000D02*
Y457500D01*
X438000Y395000D02*
Y457500D01*
X597500Y531500D02*
X652500D01*
X592500Y461500D02*
X652500D01*
X592500D02*
Y526500D01*
X652500Y461500D02*
Y531500D01*
X592500Y526500D02*
X597500Y531500D01*
X355500Y502500D02*
X367000D01*
X370000D02*
X381500D01*
X355500Y565000D02*
X381500D01*
X355500Y502500D02*
Y565000D01*
X381500Y502500D02*
Y565000D01*
X310000Y559000D02*
Y570500D01*
Y573500D02*
Y585000D01*
X247500Y559000D02*
Y585000D01*
Y559000D02*
X310000D01*
X247500Y585000D02*
X310000D01*
X634000Y384500D02*
Y447000D01*
X608000Y384500D02*
Y447000D01*
X634000D01*
X622500Y384500D02*
X634000D01*
X608000D02*
X619500D01*
X630500Y310500D02*
Y373000D01*
X604500Y310500D02*
Y373000D01*
X630500D01*
X619000Y310500D02*
X630500D01*
X604500D02*
X616000D01*
X650500Y538000D02*
Y600500D01*
X624500Y538000D02*
Y600500D01*
X650500D01*
X639000Y538000D02*
X650500D01*
X624500D02*
X636000D01*
X118000Y222832D02*
Y219500D01*
X114668Y222832D01*
X113835D01*
X113002Y221999D01*
Y220333D01*
X113835Y219500D01*
Y224498D02*
X113002Y225331D01*
Y226998D01*
X113835Y227831D01*
X117167D01*
X118000Y226998D01*
Y225331D01*
X117167Y224498D01*
X113835D01*
X128000Y219500D02*
Y221166D01*
Y220333D01*
X123002D01*
X123835Y219500D01*
X127167Y223665D02*
X128000Y224498D01*
Y226165D01*
X127167Y226998D01*
X123835D01*
X123002Y226165D01*
Y224498D01*
X123835Y223665D01*
X124668D01*
X125501Y224498D01*
Y226998D01*
X128000Y113500D02*
Y115166D01*
Y114333D01*
X123002D01*
X123835Y113500D01*
X118000Y116832D02*
Y113500D01*
X114668Y116832D01*
X113835D01*
X113002Y115999D01*
Y114333D01*
X113835Y113500D01*
D58*
X783760Y576878D02*
X785335D01*
X783760Y574122D02*
X785335D01*
X783713Y331378D02*
X785287D01*
X783713Y328622D02*
X785287D01*
X631622Y723213D02*
Y724787D01*
X634378Y723213D02*
Y724787D01*
X562122Y723213D02*
Y724787D01*
X564878Y723213D02*
Y724787D01*
X493122Y723213D02*
Y724787D01*
X495878Y723213D02*
Y724787D01*
X423122Y723213D02*
Y724787D01*
X425878Y723213D02*
Y724787D01*
X356122Y723213D02*
Y724787D01*
X358878Y723213D02*
Y724787D01*
X278878Y722760D02*
Y724335D01*
X276122Y722760D02*
Y724335D01*
X218122Y723213D02*
Y724787D01*
X220878Y723213D02*
Y724787D01*
X195122Y723213D02*
Y724787D01*
X197878Y723213D02*
Y724787D01*
X463122Y196713D02*
Y198287D01*
X465878Y196713D02*
Y198287D01*
X440122Y196713D02*
Y198287D01*
X442878Y196713D02*
Y198287D01*
X417122Y196713D02*
Y198287D01*
X419878Y196713D02*
Y198287D01*
X401622Y195260D02*
Y196835D01*
X404378Y195260D02*
Y196835D01*
X443461Y234594D02*
X463539D01*
X443461Y246406D02*
X463539D01*
X443461Y234594D02*
Y246406D01*
X463539Y234594D02*
Y246406D01*
X313461Y282594D02*
X333539D01*
X313461Y294406D02*
X333539D01*
X313461Y282594D02*
Y294406D01*
X333539Y282594D02*
Y294406D01*
X258906Y633461D02*
Y653539D01*
X247094Y633461D02*
Y653539D01*
Y633461D02*
X258906D01*
X247094Y653539D02*
X258906D01*
X332461Y196095D02*
X352539D01*
X332461Y207906D02*
X352539D01*
X332461Y196095D02*
Y207906D01*
X352539Y196095D02*
Y207906D01*
X259405Y674961D02*
Y695039D01*
X247594Y674961D02*
Y695039D01*
Y674961D02*
X259405D01*
X247594Y695039D02*
X259405D01*
X301122Y193260D02*
Y194835D01*
X303878Y193260D02*
Y194835D01*
X316622Y252213D02*
Y253787D01*
X319378Y252213D02*
Y253787D01*
X295622Y252213D02*
Y253787D01*
X298378Y252213D02*
Y253787D01*
X272622Y252213D02*
Y253787D01*
X275378Y252213D02*
Y253787D01*
X250622Y252213D02*
Y253787D01*
X253378Y252213D02*
Y253787D01*
X228622Y252213D02*
Y253787D01*
X231378Y252213D02*
Y253787D01*
X205622Y252213D02*
Y253787D01*
X208378Y252213D02*
Y253787D01*
X182622Y252213D02*
Y253787D01*
X185378Y252213D02*
Y253787D01*
X484622Y146713D02*
Y148287D01*
X487378Y146713D02*
Y148287D01*
X162622Y428713D02*
Y430287D01*
X165378Y428713D02*
Y430287D01*
X747622Y233260D02*
Y234835D01*
X750378Y233260D02*
Y234835D01*
X701122Y190713D02*
Y192287D01*
X703878Y190713D02*
Y192287D01*
X721622Y216713D02*
Y218287D01*
X724378Y216713D02*
Y218287D01*
X493122Y177213D02*
Y178787D01*
X495878Y177213D02*
Y178787D01*
X178878Y502213D02*
Y503787D01*
X176122Y502213D02*
Y503787D01*
X165165Y510878D02*
X166740D01*
X165165Y508122D02*
X166740D01*
X123000Y246000D02*
Y276000D01*
X113000D02*
X123000D01*
X113000Y246000D02*
Y276000D01*
Y246000D02*
X123000D01*
X111000Y218500D02*
X131000D01*
Y118500D02*
Y126000D01*
X111000Y118500D02*
X131000D01*
X111000D02*
Y126000D01*
Y218500D01*
X131000Y126000D02*
Y218500D01*
X235378Y514213D02*
Y515787D01*
X232622Y514213D02*
Y515787D01*
X248878Y492260D02*
Y493835D01*
X246122Y492260D02*
Y493835D01*
X465500Y105000D02*
X475500D01*
X465500D02*
Y135000D01*
X475500D01*
Y105000D02*
Y135000D01*
X354500Y115500D02*
X364500D01*
X354500D02*
Y155500D01*
X364500Y115500D02*
Y155500D01*
X354500D02*
X364500D01*
D59*
X698000Y722000D02*
X703000D01*
X698000Y712000D02*
X703000D01*
X698000Y667000D02*
X738000D01*
X733000Y712000D02*
X738000D01*
X733000Y722000D02*
X738000D01*
X698000Y727000D02*
X738000D01*
X728000Y653000D02*
Y667000D01*
X718000Y653000D02*
Y667000D01*
X708000Y653000D02*
Y667000D01*
X698000Y722000D02*
Y727000D01*
X703000Y712000D02*
Y722000D01*
X698000Y667000D02*
Y712000D01*
X738000Y667000D02*
Y712000D01*
X733000D02*
Y722000D01*
X738000D02*
Y727000D01*
X585000Y722000D02*
X590000D01*
X585000Y712000D02*
X590000D01*
X585000Y667000D02*
X625000D01*
X620000Y712000D02*
X625000D01*
X620000Y722000D02*
X625000D01*
X585000Y727000D02*
X625000D01*
X615000Y653000D02*
Y667000D01*
X605000Y653000D02*
Y667000D01*
X595000Y653000D02*
Y667000D01*
X585000Y722000D02*
Y727000D01*
X590000Y712000D02*
Y722000D01*
X585000Y667000D02*
Y712000D01*
X625000Y667000D02*
Y712000D01*
X620000D02*
Y722000D01*
X625000D02*
Y727000D01*
X446000Y722000D02*
X451000D01*
X446000Y712000D02*
X451000D01*
X446000Y667000D02*
X486000D01*
X481000Y712000D02*
X486000D01*
X481000Y722000D02*
X486000D01*
X446000Y727000D02*
X486000D01*
X476000Y653000D02*
Y667000D01*
X466000Y653000D02*
Y667000D01*
X456000Y653000D02*
Y667000D01*
X446000Y722000D02*
Y727000D01*
X451000Y712000D02*
Y722000D01*
X446000Y667000D02*
Y712000D01*
X486000Y667000D02*
Y712000D01*
X481000D02*
Y722000D01*
X486000D02*
Y727000D01*
X301000Y720500D02*
X306000D01*
X301000Y710500D02*
X306000D01*
X301000Y665500D02*
X341000D01*
X336000Y710500D02*
X341000D01*
X336000Y720500D02*
X341000D01*
X301000Y725500D02*
X341000D01*
X331000Y651500D02*
Y665500D01*
X321000Y651500D02*
Y665500D01*
X311000Y651500D02*
Y665500D01*
X301000Y720500D02*
Y725500D01*
X306000Y710500D02*
Y720500D01*
X301000Y665500D02*
Y710500D01*
X341000Y665500D02*
Y710500D01*
X336000D02*
Y720500D01*
X341000D02*
Y725500D01*
X553622Y105784D02*
Y151059D01*
X506378Y105784D02*
Y151059D01*
X553622D01*
X506378Y105784D02*
X553622D01*
X611937Y104784D02*
Y150059D01*
X564693Y104784D02*
Y150059D01*
X611937D01*
X564693Y104784D02*
X611937D01*
X234969Y347634D02*
X341169D01*
X239693Y454130D02*
X341169D01*
Y347634D02*
Y454130D01*
X234969Y347634D02*
Y449307D01*
X239791Y454130D01*
X746000Y276000D02*
X776000D01*
X746000Y656500D02*
X776000D01*
X746000Y276000D02*
Y656500D01*
X776000Y276000D02*
Y656500D01*
D60*
X200000Y184000D02*
X249000D01*
X200000Y115000D02*
X249000D01*
Y184000D01*
X200000Y115000D02*
Y184000D01*
X139000Y185500D02*
X188000D01*
X139000Y116500D02*
X188000D01*
Y185500D01*
X139000Y116500D02*
Y185500D01*
M02*
