G04 Layer_Color=65535*
%FSLAX25Y25*%
%MOIN*%
G70*
G01*
G75*
%ADD28C,0.01200*%
%ADD29C,0.01000*%
%ADD30C,0.00800*%
%ADD61C,0.00984*%
%ADD62C,0.02362*%
%ADD63C,0.00787*%
D28*
X238969Y358307D02*
X243791Y363130D01*
X238969Y256634D02*
Y358307D01*
X345169Y256634D02*
Y363130D01*
X243693D02*
X345169D01*
X238969Y256634D02*
X345169D01*
X626300Y132200D02*
Y512700D01*
X596300Y132200D02*
Y512700D01*
X626300D01*
X596300Y132200D02*
X626300D01*
X187578Y626001D02*
X234822D01*
X187578Y580726D02*
X234822D01*
Y626001D01*
X187578Y580726D02*
Y626001D01*
X132378Y626116D02*
X179622D01*
X132378Y580841D02*
X179622D01*
Y626116D01*
X132378Y580841D02*
Y626116D01*
X4200Y189000D02*
X9200D01*
Y184000D02*
X19200D01*
Y189000D02*
X64200D01*
X19200Y149000D02*
X64200D01*
X9200Y154000D02*
X19200D01*
X4200Y149000D02*
X9200D01*
X64200Y159000D02*
X78200D01*
X64200Y169000D02*
X78200D01*
X64200Y179000D02*
X78200D01*
X4200Y149000D02*
Y189000D01*
X9200Y184000D02*
Y189000D01*
X19200Y184000D02*
Y189000D01*
X64200Y149000D02*
Y189000D01*
X19200Y149000D02*
Y154000D01*
X9200Y149000D02*
Y154000D01*
X4300Y248700D02*
X9300D01*
Y243700D02*
X19300D01*
Y248700D02*
X64300D01*
X19300Y208700D02*
X64300D01*
X9300Y213700D02*
X19300D01*
X4300Y208700D02*
X9300D01*
X64300Y218700D02*
X78300D01*
X64300Y228700D02*
X78300D01*
X64300Y238700D02*
X78300D01*
X4300Y208700D02*
Y248700D01*
X9300Y243700D02*
Y248700D01*
X19300Y243700D02*
Y248700D01*
X64300Y208700D02*
Y248700D01*
X19300Y208700D02*
Y213700D01*
X9300Y208700D02*
Y213700D01*
X3900Y308300D02*
X8900D01*
Y303300D02*
X18900D01*
Y308300D02*
X63900D01*
X18900Y268300D02*
X63900D01*
X8900Y273300D02*
X18900D01*
X3900Y268300D02*
X8900D01*
X63900Y278300D02*
X77900D01*
X63900Y288300D02*
X77900D01*
X63900Y298300D02*
X77900D01*
X3900Y268300D02*
Y308300D01*
X8900Y303300D02*
Y308300D01*
X18900Y303300D02*
Y308300D01*
X63900Y268300D02*
Y308300D01*
X18900Y268300D02*
Y273300D01*
X8900Y268300D02*
Y273300D01*
X4100Y126400D02*
X9100D01*
Y121400D02*
X19100D01*
Y126400D02*
X64100D01*
X19100Y86400D02*
X64100D01*
X9100Y91400D02*
X19100D01*
X4100Y86400D02*
X9100D01*
X64100Y96400D02*
X78100D01*
X64100Y106400D02*
X78100D01*
X64100Y116400D02*
X78100D01*
X4100Y86400D02*
Y126400D01*
X9100Y121400D02*
Y126400D01*
X19100Y121400D02*
Y126400D01*
X64100Y86400D02*
Y126400D01*
X19100Y86400D02*
Y91400D01*
X9100Y86400D02*
Y91400D01*
D29*
X252009Y354933D02*
G03*
X252009Y354933I-4068J0D01*
G01*
X304371Y421945D02*
G03*
X304371Y421945I-1623J0D01*
G01*
X469568Y283910D02*
G03*
X469568Y283910I-1623J0D01*
G01*
X198900Y177400D02*
G03*
X193900Y177400I-2500J0D01*
G01*
X341900Y164300D02*
G03*
X323500Y164300I-9200J0D01*
G01*
Y139200D02*
G03*
X341900Y139200I9200J0D01*
G01*
X173392Y257197D02*
G03*
X186403Y270208I6505J6505D01*
G01*
X168655Y287956D02*
G03*
X155644Y274945I-6505J-6505D01*
G01*
X266488Y145939D02*
G03*
X266488Y145939I-2296J0D01*
G01*
X204900Y296200D02*
G03*
X204900Y296200I-5900J0D01*
G01*
X510700Y35400D02*
G03*
X505700Y35400I-2500J0D01*
G01*
X214768Y558945D02*
G03*
X214768Y558945I-1623J0D01*
G01*
X565088Y482579D02*
G03*
X565088Y482579I-1623J0D01*
G01*
X366308Y422079D02*
G03*
X366308Y422079I-1623J0D01*
G01*
X425151Y421945D02*
G03*
X425151Y421945I-1623J0D01*
G01*
X470202Y345941D02*
G03*
X470202Y345941I-1623J0D01*
G01*
X75815Y592496D02*
G03*
X95500Y592496I9843J-21654D01*
G01*
X552315Y53811D02*
G03*
X572000Y53811I9843J-21654D01*
G01*
X150500Y526000D02*
G03*
X155500Y526000I2500J0D01*
G01*
X257866Y406984D02*
X306291D01*
X257866Y425488D02*
X306291D01*
X257866Y406984D02*
Y425488D01*
X306291Y406984D02*
Y425488D01*
X452984Y280366D02*
Y328791D01*
X471488Y280366D02*
Y328791D01*
X452984D02*
X471488D01*
X452984Y280366D02*
X471488D01*
X198900Y177400D02*
X216400D01*
X176400Y217400D02*
X216400D01*
X176400Y177400D02*
X193900D01*
X216400D02*
Y217400D01*
X176400Y177400D02*
Y217400D01*
X41700Y581100D02*
X51700D01*
X41700Y591100D02*
X51700D01*
X41700Y511100D02*
X51700D01*
Y591100D01*
X41700Y511100D02*
Y591100D01*
X12572Y418362D02*
X170839D01*
Y322693D02*
Y418362D01*
X12572Y322693D02*
X170839D01*
X12572D02*
Y418362D01*
X341900Y139200D02*
Y164300D01*
X323500Y139200D02*
Y164300D01*
X155644Y274945D02*
X173392Y257197D01*
X168655Y287956D02*
X186403Y270208D01*
X287027Y123104D02*
Y150663D01*
X259468Y123104D02*
Y150663D01*
X287027D01*
X259468Y123104D02*
X287027D01*
X239000Y2000D02*
Y105000D01*
X301500Y2000D02*
Y105000D01*
X239000D02*
X301500D01*
X239000Y2000D02*
X301500D01*
X47300Y1600D02*
X82300D01*
Y33100D01*
X86300Y37100D01*
Y51600D01*
X82300Y55600D02*
X86300Y51600D01*
X74300Y55600D02*
X82300D01*
X71300Y58600D02*
X74300Y55600D01*
X57300Y58600D02*
X71300D01*
X54800Y56100D02*
X57300Y58600D01*
X47300Y56100D02*
X54800D01*
X47300Y1600D02*
Y56100D01*
X518200Y35400D02*
Y75400D01*
X498200Y35400D02*
Y75400D01*
X518200D01*
X498200Y35400D02*
X505700D01*
X510700D02*
X518200D01*
X216688Y549890D02*
Y562488D01*
X190310Y549890D02*
Y562488D01*
Y549890D02*
X216688D01*
X190310Y562488D02*
X216688D01*
X518583Y467618D02*
X567008D01*
X518583Y486122D02*
X567008D01*
X518583Y467618D02*
Y486122D01*
X567008Y467618D02*
Y486122D01*
X319803Y407118D02*
X368228D01*
X319803Y425622D02*
X368228D01*
X319803Y407118D02*
Y425622D01*
X368228Y407118D02*
Y425622D01*
X378646Y406984D02*
X427071D01*
X378646Y425488D02*
X427071D01*
X378646Y406984D02*
Y425488D01*
X427071Y406984D02*
Y425488D01*
X453618Y342398D02*
Y390823D01*
X472122Y342398D02*
Y390823D01*
X453618D02*
X472122D01*
X453618Y342398D02*
X472122D01*
X143000Y426000D02*
Y526000D01*
X163000Y426000D02*
Y526000D01*
X143000Y426000D02*
X163000D01*
X155500Y526000D02*
X163000D01*
X143000D02*
X150500D01*
X517500Y214700D02*
Y220698D01*
X520499D01*
X521499Y219698D01*
Y217699D01*
X520499Y216699D01*
X517500D01*
X527497Y220698D02*
X525497Y219698D01*
X523498Y217699D01*
Y215700D01*
X524498Y214700D01*
X526497D01*
X527497Y215700D01*
Y216699D01*
X526497Y217699D01*
X523498D01*
X303900Y489400D02*
Y495398D01*
X306899D01*
X307899Y494398D01*
Y492399D01*
X306899Y491399D01*
X303900D01*
X309898Y494398D02*
X310898Y495398D01*
X312897D01*
X313897Y494398D01*
Y493399D01*
X312897Y492399D01*
X313897Y491399D01*
Y490400D01*
X312897Y489400D01*
X310898D01*
X309898Y490400D01*
Y491399D01*
X310898Y492399D01*
X309898Y493399D01*
Y494398D01*
X310898Y492399D02*
X312897D01*
X356700Y477900D02*
Y483898D01*
X359699D01*
X360699Y482898D01*
Y480899D01*
X359699Y479899D01*
X356700D01*
X362698Y483898D02*
X366697D01*
Y482898D01*
X362698Y478900D01*
Y477900D01*
X233700Y522900D02*
Y528898D01*
X236699D01*
X237699Y527898D01*
Y525899D01*
X236699Y524899D01*
X233700D01*
X242697Y522900D02*
Y528898D01*
X239698Y525899D01*
X243697D01*
X13100Y427898D02*
Y421900D01*
X16099D01*
X17099Y422900D01*
Y426898D01*
X16099Y427898D01*
X13100D01*
X19098D02*
X21097D01*
X20098D01*
Y421900D01*
X19098D01*
X21097D01*
X28095Y426898D02*
X27095Y427898D01*
X25096D01*
X24096Y426898D01*
Y425899D01*
X25096Y424899D01*
X27095D01*
X28095Y423899D01*
Y422900D01*
X27095Y421900D01*
X25096D01*
X24096Y422900D01*
X30095Y421900D02*
Y427898D01*
X33094D01*
X34093Y426898D01*
Y424899D01*
X33094Y423899D01*
X30095D01*
X36093Y421900D02*
X38092D01*
X37092D01*
Y427898D01*
X36093Y426898D01*
X79602Y476800D02*
X84600D01*
X85600Y477800D01*
Y479799D01*
X84600Y480799D01*
X79602D01*
X85600Y482798D02*
Y484797D01*
Y483798D01*
X79602D01*
X80602Y482798D01*
X85600Y487796D02*
Y489796D01*
Y488796D01*
X79602D01*
X80602Y487796D01*
X51002Y478400D02*
X56000D01*
X57000Y479400D01*
Y481399D01*
X56000Y482399D01*
X51002D01*
X56000Y484398D02*
X57000Y485398D01*
Y487397D01*
X56000Y488397D01*
X52002D01*
X51002Y487397D01*
Y485398D01*
X52002Y484398D01*
X53001D01*
X54001Y485398D01*
Y488397D01*
X463000Y398813D02*
Y393815D01*
X464000Y392815D01*
X465999D01*
X466999Y393815D01*
Y398813D01*
X472997Y392815D02*
X468998D01*
X472997Y396814D01*
Y397813D01*
X471997Y398813D01*
X469998D01*
X468998Y397813D01*
X474996Y392815D02*
X476996D01*
X475996D01*
Y398813D01*
X474996Y397813D01*
X596700Y522298D02*
Y517300D01*
X597700Y516300D01*
X599699D01*
X600699Y517300D01*
Y522298D01*
X606697Y516300D02*
X602698D01*
X606697Y520299D01*
Y521298D01*
X605697Y522298D01*
X603698D01*
X602698Y521298D01*
X608696D02*
X609696Y522298D01*
X611695D01*
X612695Y521298D01*
Y517300D01*
X611695Y516300D01*
X609696D01*
X608696Y517300D01*
Y521298D01*
X459366Y339841D02*
Y334842D01*
X460366Y333842D01*
X462365D01*
X463365Y334842D01*
Y339841D01*
X465364Y333842D02*
X467364D01*
X466364D01*
Y339841D01*
X465364Y338841D01*
X470363Y334842D02*
X471362Y333842D01*
X473362D01*
X474361Y334842D01*
Y338841D01*
X473362Y339841D01*
X471362D01*
X470363Y338841D01*
Y337841D01*
X471362Y336842D01*
X474361D01*
X508844Y478500D02*
X513843D01*
X514843Y479500D01*
Y481499D01*
X513843Y482499D01*
X508844D01*
X514843Y484498D02*
Y486497D01*
Y485498D01*
X508844D01*
X509844Y484498D01*
Y489496D02*
X508844Y490496D01*
Y492495D01*
X509844Y493495D01*
X510844D01*
X511843Y492495D01*
X512843Y493495D01*
X513843D01*
X514843Y492495D01*
Y490496D01*
X513843Y489496D01*
X512843D01*
X511843Y490496D01*
X510844Y489496D01*
X509844D01*
X511843Y490496D02*
Y492495D01*
X121199Y565198D02*
X120199Y566198D01*
X118200D01*
X117200Y565198D01*
Y561200D01*
X118200Y560200D01*
X120199D01*
X121199Y561200D01*
X127197Y566198D02*
X125197Y565198D01*
X123198Y563199D01*
Y561200D01*
X124198Y560200D01*
X126197D01*
X127197Y561200D01*
Y562199D01*
X126197Y563199D01*
X123198D01*
X133195Y560200D02*
X129196D01*
X133195Y564199D01*
Y565198D01*
X132195Y566198D01*
X130196D01*
X129196Y565198D01*
X240599Y114498D02*
X238599D01*
X239599D01*
Y109500D01*
X238599Y108500D01*
X237600D01*
X236600Y109500D01*
X242598Y108500D02*
X244597D01*
X243598D01*
Y114498D01*
X242598Y113498D01*
X126001Y605002D02*
X128001D01*
X127001D01*
Y610000D01*
X128001Y611000D01*
X129000D01*
X130000Y610000D01*
X120003Y611000D02*
X124002D01*
X120003Y607001D01*
Y606002D01*
X121003Y605002D01*
X123002D01*
X124002Y606002D01*
X245501Y605502D02*
X247501D01*
X246501D01*
Y610500D01*
X247501Y611500D01*
X248500D01*
X249500Y610500D01*
X243502Y606502D02*
X242502Y605502D01*
X240503D01*
X239503Y606502D01*
Y607501D01*
X240503Y608501D01*
X241503D01*
X240503D01*
X239503Y609501D01*
Y610500D01*
X240503Y611500D01*
X242502D01*
X243502Y610500D01*
X146400Y210200D02*
Y216198D01*
X149399D01*
X150399Y215198D01*
Y213199D01*
X149399Y212199D01*
X146400D01*
X148399D02*
X150399Y210200D01*
X152398D02*
X154397D01*
X153398D01*
Y216198D01*
X152398Y215198D01*
X161395Y216198D02*
X159396Y215198D01*
X157396Y213199D01*
Y211200D01*
X158396Y210200D01*
X160396D01*
X161395Y211200D01*
Y212199D01*
X160396Y213199D01*
X157396D01*
X283500Y190800D02*
X277502D01*
Y193799D01*
X278502Y194799D01*
X280501D01*
X281501Y193799D01*
Y190800D01*
Y192799D02*
X283500Y194799D01*
Y200797D02*
Y196798D01*
X279501Y200797D01*
X278502D01*
X277502Y199797D01*
Y197798D01*
X278502Y196798D01*
X277502Y202796D02*
Y206795D01*
X278502D01*
X282500Y202796D01*
X283500D01*
X230800Y369998D02*
Y365000D01*
X231800Y364000D01*
X233799D01*
X234799Y365000D01*
Y369998D01*
X236798Y364000D02*
X238797D01*
X237798D01*
Y369998D01*
X236798Y368998D01*
X435498Y421500D02*
X430500D01*
X429500Y420500D01*
Y418501D01*
X430500Y417501D01*
X435498D01*
X429500Y411503D02*
Y415502D01*
X433499Y411503D01*
X434498D01*
X435498Y412503D01*
Y414502D01*
X434498Y415502D01*
X313498Y424000D02*
X308500D01*
X307500Y423000D01*
Y421001D01*
X308500Y420001D01*
X313498D01*
X307500Y415003D02*
X313498D01*
X310499Y418002D01*
Y414003D01*
X376900Y607598D02*
Y602600D01*
X377900Y601600D01*
X379899D01*
X380899Y602600D01*
Y607598D01*
X386897D02*
X384897Y606598D01*
X382898Y604599D01*
Y602600D01*
X383898Y601600D01*
X385897D01*
X386897Y602600D01*
Y603599D01*
X385897Y604599D01*
X382898D01*
X451800Y608998D02*
Y604000D01*
X452800Y603000D01*
X454799D01*
X455799Y604000D01*
Y608998D01*
X457798D02*
X461797D01*
Y607998D01*
X457798Y604000D01*
Y603000D01*
X375998Y424000D02*
X371000D01*
X370000Y423000D01*
Y421001D01*
X371000Y420001D01*
X375998D01*
X374998Y418002D02*
X375998Y417002D01*
Y415003D01*
X374998Y414003D01*
X373999D01*
X372999Y415003D01*
X371999Y414003D01*
X371000D01*
X370000Y415003D01*
Y417002D01*
X371000Y418002D01*
X371999D01*
X372999Y417002D01*
X373999Y418002D01*
X374998D01*
X372999Y417002D02*
Y415003D01*
X253300Y166798D02*
Y161800D01*
X254300Y160800D01*
X256299D01*
X257299Y161800D01*
Y166798D01*
X259298Y160800D02*
X261297D01*
X260298D01*
Y166798D01*
X259298Y165798D01*
X268295Y166798D02*
X266296Y165798D01*
X264296Y163799D01*
Y161800D01*
X265296Y160800D01*
X267296D01*
X268295Y161800D01*
Y162799D01*
X267296Y163799D01*
X264296D01*
X221877Y560198D02*
Y555200D01*
X222877Y554200D01*
X224876D01*
X225876Y555200D01*
Y560198D01*
X227875Y554200D02*
X229875D01*
X228875D01*
Y560198D01*
X227875Y559198D01*
X232874Y560198D02*
X236872D01*
Y559198D01*
X232874Y555200D01*
Y554200D01*
X153476Y300122D02*
X157475Y294124D01*
Y300122D02*
X153476Y294124D01*
X159475D02*
X161474D01*
X160474D01*
Y300122D01*
X159475Y299122D01*
X193600Y311598D02*
X197599Y305600D01*
Y311598D02*
X193600Y305600D01*
X203597D02*
X199598D01*
X203597Y309599D01*
Y310598D01*
X202597Y311598D01*
X200598D01*
X199598Y310598D01*
X349198Y181200D02*
X343200Y177201D01*
X349198D02*
X343200Y181200D01*
X348198Y175202D02*
X349198Y174202D01*
Y172203D01*
X348198Y171203D01*
X347199D01*
X346199Y172203D01*
Y173203D01*
Y172203D01*
X345199Y171203D01*
X344200D01*
X343200Y172203D01*
Y174202D01*
X344200Y175202D01*
X51799Y68098D02*
X49799D01*
X50799D01*
Y63100D01*
X49799Y62100D01*
X48800D01*
X47800Y63100D01*
X56797Y62100D02*
Y68098D01*
X53798Y65099D01*
X57797D01*
X409400Y263098D02*
Y258100D01*
X410400Y257100D01*
X412399D01*
X413399Y258100D01*
Y263098D01*
X419397D02*
X415398D01*
Y260099D01*
X417397Y261099D01*
X418397D01*
X419397Y260099D01*
Y258100D01*
X418397Y257100D01*
X416398D01*
X415398Y258100D01*
X400901Y610202D02*
X401901Y609202D01*
X403900D01*
X404900Y610202D01*
Y614200D01*
X403900Y615200D01*
X401901D01*
X400901Y614200D01*
X398902Y610202D02*
X397902Y609202D01*
X395903D01*
X394903Y610202D01*
Y611201D01*
X395903Y612201D01*
X396903D01*
X395903D01*
X394903Y613201D01*
Y614200D01*
X395903Y615200D01*
X397902D01*
X398902Y614200D01*
X34402Y467899D02*
X33402Y466899D01*
Y464900D01*
X34402Y463900D01*
X38400D01*
X39400Y464900D01*
Y466899D01*
X38400Y467899D01*
X39400Y469898D02*
Y471897D01*
Y470898D01*
X33402D01*
X34402Y469898D01*
Y474896D02*
X33402Y475896D01*
Y477895D01*
X34402Y478895D01*
X38400D01*
X39400Y477895D01*
Y475896D01*
X38400Y474896D01*
X34402D01*
X100598Y447601D02*
X101598Y448601D01*
Y450600D01*
X100598Y451600D01*
X96600D01*
X95600Y450600D01*
Y448601D01*
X96600Y447601D01*
X95600Y445602D02*
Y443603D01*
Y444602D01*
X101598D01*
X100598Y445602D01*
X101598Y436605D02*
X100598Y438604D01*
X98599Y440604D01*
X96600D01*
X95600Y439604D01*
Y437605D01*
X96600Y436605D01*
X97599D01*
X98599Y437605D01*
Y440604D01*
X392799Y529998D02*
X391799Y530998D01*
X389800D01*
X388800Y529998D01*
Y526000D01*
X389800Y525000D01*
X391799D01*
X392799Y526000D01*
X398797Y525000D02*
X394798D01*
X398797Y528999D01*
Y529998D01*
X397797Y530998D01*
X395798D01*
X394798Y529998D01*
X403795Y525000D02*
Y530998D01*
X400796Y527999D01*
X404795D01*
X325801Y111402D02*
X326801Y110402D01*
X328800D01*
X329800Y111402D01*
Y115400D01*
X328800Y116400D01*
X326801D01*
X325801Y115400D01*
X319803Y110402D02*
X321803Y111402D01*
X323802Y113401D01*
Y115400D01*
X322802Y116400D01*
X320803D01*
X319803Y115400D01*
Y114401D01*
X320803Y113401D01*
X323802D01*
X317804Y116400D02*
X315805D01*
X316804D01*
Y110402D01*
X317804Y111402D01*
X325557Y120402D02*
X326557Y119402D01*
X328556D01*
X329556Y120402D01*
Y124400D01*
X328556Y125400D01*
X326557D01*
X325557Y124400D01*
X319559Y119402D02*
X321558Y120402D01*
X323558Y122401D01*
Y124400D01*
X322558Y125400D01*
X320559D01*
X319559Y124400D01*
Y123401D01*
X320559Y122401D01*
X323558D01*
X317560Y120402D02*
X316560Y119402D01*
X314561D01*
X313561Y120402D01*
Y121401D01*
X314561Y122401D01*
X315560D01*
X314561D01*
X313561Y123401D01*
Y124400D01*
X314561Y125400D01*
X316560D01*
X317560Y124400D01*
X170599Y564198D02*
X169599Y565198D01*
X167600D01*
X166600Y564198D01*
Y560200D01*
X167600Y559200D01*
X169599D01*
X170599Y560200D01*
X176597Y565198D02*
X174597Y564198D01*
X172598Y562199D01*
Y560200D01*
X173598Y559200D01*
X175597D01*
X176597Y560200D01*
Y561199D01*
X175597Y562199D01*
X172598D01*
X181595Y559200D02*
Y565198D01*
X178596Y562199D01*
X182595D01*
X402499Y71198D02*
X400499D01*
X401499D01*
Y66200D01*
X400499Y65200D01*
X399500D01*
X398500Y66200D01*
X404498Y71198D02*
X408497D01*
X406497D01*
Y65200D01*
X410496D02*
Y69199D01*
X412496Y71198D01*
X414495Y69199D01*
Y65200D01*
Y68199D01*
X410496D01*
X420493Y70198D02*
X419493Y71198D01*
X417494D01*
X416494Y70198D01*
Y66200D01*
X417494Y65200D01*
X419493D01*
X420493Y66200D01*
Y68199D01*
X418494D01*
X422492Y64200D02*
X426491D01*
X432489Y70198D02*
X431489Y71198D01*
X429490D01*
X428490Y70198D01*
Y69199D01*
X429490Y68199D01*
X431489D01*
X432489Y67199D01*
Y66200D01*
X431489Y65200D01*
X429490D01*
X428490Y66200D01*
X438487Y71198D02*
X434488D01*
Y65200D01*
X438487D01*
X434488Y68199D02*
X436488D01*
X440486Y71198D02*
Y65200D01*
X444485D01*
X49100Y500302D02*
Y506300D01*
Y504301D01*
X45101Y500302D01*
X48100Y503301D01*
X45101Y506300D01*
X43102D02*
X41103D01*
X42102D01*
Y500302D01*
X43102Y501302D01*
X396900Y131400D02*
Y137398D01*
X399899D01*
X400899Y136398D01*
Y134399D01*
X399899Y133399D01*
X396900D01*
X402898Y131400D02*
X404897D01*
X403898D01*
Y137398D01*
X402898Y136398D01*
X391100Y216400D02*
Y222398D01*
X394099D01*
X395099Y221398D01*
Y219399D01*
X394099Y218399D01*
X391100D01*
X401097Y216400D02*
X397098D01*
X401097Y220399D01*
Y221398D01*
X400097Y222398D01*
X398098D01*
X397098Y221398D01*
X374100Y207400D02*
Y213398D01*
X377099D01*
X378099Y212398D01*
Y210399D01*
X377099Y209399D01*
X374100D01*
X380098Y212398D02*
X381098Y213398D01*
X383097D01*
X384097Y212398D01*
Y211399D01*
X383097Y210399D01*
X382097D01*
X383097D01*
X384097Y209399D01*
Y208400D01*
X383097Y207400D01*
X381098D01*
X380098Y208400D01*
X389600Y99000D02*
X395598D01*
Y96001D01*
X394598Y95001D01*
X392599D01*
X391599Y96001D01*
Y99000D01*
Y97001D02*
X389600Y95001D01*
X395598Y89003D02*
Y93002D01*
X392599D01*
X393599Y91003D01*
Y90003D01*
X392599Y89003D01*
X390600D01*
X389600Y90003D01*
Y92002D01*
X390600Y93002D01*
X369000Y98847D02*
X374998D01*
Y95848D01*
X373998Y94849D01*
X371999D01*
X370999Y95848D01*
Y98847D01*
Y96848D02*
X369000Y94849D01*
X374998Y88850D02*
X373998Y90850D01*
X371999Y92849D01*
X370000D01*
X369000Y91849D01*
Y89850D01*
X370000Y88850D01*
X370999D01*
X371999Y89850D01*
Y92849D01*
X146800Y200000D02*
Y205998D01*
X149799D01*
X150799Y204998D01*
Y202999D01*
X149799Y201999D01*
X146800D01*
X148799D02*
X150799Y200000D01*
X152798D02*
X154797D01*
X153798D01*
Y205998D01*
X152798Y204998D01*
X157796Y205998D02*
X161795D01*
Y204998D01*
X157796Y201000D01*
Y200000D01*
X218800Y112500D02*
Y106502D01*
X215801D01*
X214801Y107502D01*
Y109501D01*
X215801Y110501D01*
X218800D01*
X216801D02*
X214801Y112500D01*
X212802D02*
X210803D01*
X211802D01*
Y106502D01*
X212802Y107502D01*
X207804D02*
X206804Y106502D01*
X204804D01*
X203805Y107502D01*
Y108501D01*
X204804Y109501D01*
X203805Y110501D01*
Y111500D01*
X204804Y112500D01*
X206804D01*
X207804Y111500D01*
Y110501D01*
X206804Y109501D01*
X207804Y108501D01*
Y107502D01*
X206804Y109501D02*
X204804D01*
X219600Y131000D02*
Y125002D01*
X216601D01*
X215601Y126002D01*
Y128001D01*
X216601Y129001D01*
X219600D01*
X217601D02*
X215601Y131000D01*
X213602D02*
X211603D01*
X212602D01*
Y125002D01*
X213602Y126002D01*
X208604Y130000D02*
X207604Y131000D01*
X205605D01*
X204605Y130000D01*
Y126002D01*
X205605Y125002D01*
X207604D01*
X208604Y126002D01*
Y127001D01*
X207604Y128001D01*
X204605D01*
X219000Y140800D02*
Y134802D01*
X216001D01*
X215001Y135802D01*
Y137801D01*
X216001Y138801D01*
X219000D01*
X217001D02*
X215001Y140800D01*
X209003D02*
X213002D01*
X209003Y136801D01*
Y135802D01*
X210003Y134802D01*
X212002D01*
X213002Y135802D01*
X207004D02*
X206004Y134802D01*
X204005D01*
X203005Y135802D01*
Y139800D01*
X204005Y140800D01*
X206004D01*
X207004Y139800D01*
Y135802D01*
X219100Y122900D02*
Y116902D01*
X216101D01*
X215101Y117902D01*
Y119901D01*
X216101Y120901D01*
X219100D01*
X217101D02*
X215101Y122900D01*
X209103D02*
X213102D01*
X209103Y118901D01*
Y117902D01*
X210103Y116902D01*
X212102D01*
X213102Y117902D01*
X207104Y122900D02*
X205104D01*
X206104D01*
Y116902D01*
X207104Y117902D01*
X219200Y104000D02*
Y98002D01*
X216201D01*
X215201Y99002D01*
Y101001D01*
X216201Y102001D01*
X219200D01*
X217201D02*
X215201Y104000D01*
X209203D02*
X213202D01*
X209203Y100001D01*
Y99002D01*
X210203Y98002D01*
X212202D01*
X213202Y99002D01*
X203205Y104000D02*
X207204D01*
X203205Y100001D01*
Y99002D01*
X204205Y98002D01*
X206204D01*
X207204Y99002D01*
X309000Y190600D02*
X303002D01*
Y193599D01*
X304002Y194599D01*
X306001D01*
X307001Y193599D01*
Y190600D01*
Y192599D02*
X309000Y194599D01*
Y200597D02*
Y196598D01*
X305001Y200597D01*
X304002D01*
X303002Y199597D01*
Y197598D01*
X304002Y196598D01*
Y202596D02*
X303002Y203596D01*
Y205595D01*
X304002Y206595D01*
X305001D01*
X306001Y205595D01*
Y204595D01*
Y205595D01*
X307001Y206595D01*
X308000D01*
X309000Y205595D01*
Y203596D01*
X308000Y202596D01*
X118000Y569000D02*
Y574998D01*
X120999D01*
X121999Y573998D01*
Y571999D01*
X120999Y570999D01*
X118000D01*
X119999D02*
X121999Y569000D01*
X127997D02*
X123998D01*
X127997Y572999D01*
Y573998D01*
X126997Y574998D01*
X124998D01*
X123998Y573998D01*
X132995Y569000D02*
Y574998D01*
X129996Y571999D01*
X133995D01*
X165800Y541000D02*
Y546998D01*
X168799D01*
X169799Y545998D01*
Y543999D01*
X168799Y542999D01*
X165800D01*
X167799D02*
X169799Y541000D01*
X175797D02*
X171798D01*
X175797Y544999D01*
Y545998D01*
X174797Y546998D01*
X172798D01*
X171798Y545998D01*
X181795Y546998D02*
X177796D01*
Y543999D01*
X179796Y544999D01*
X180795D01*
X181795Y543999D01*
Y542000D01*
X180795Y541000D01*
X178796D01*
X177796Y542000D01*
X117400Y552200D02*
Y558198D01*
X120399D01*
X121399Y557198D01*
Y555199D01*
X120399Y554199D01*
X117400D01*
X119399D02*
X121399Y552200D01*
X127397D02*
X123398D01*
X127397Y556199D01*
Y557198D01*
X126397Y558198D01*
X124398D01*
X123398Y557198D01*
X133395Y558198D02*
X131395Y557198D01*
X129396Y555199D01*
Y553200D01*
X130396Y552200D01*
X132395D01*
X133395Y553200D01*
Y554199D01*
X132395Y555199D01*
X129396D01*
X346500Y111400D02*
Y117398D01*
X349499D01*
X350499Y116398D01*
Y114399D01*
X349499Y113399D01*
X346500D01*
X348499D02*
X350499Y111400D01*
X356497D02*
X352498D01*
X356497Y115399D01*
Y116398D01*
X355497Y117398D01*
X353498D01*
X352498Y116398D01*
X358496D02*
X359496Y117398D01*
X361495D01*
X362495Y116398D01*
Y115399D01*
X361495Y114399D01*
X362495Y113399D01*
Y112400D01*
X361495Y111400D01*
X359496D01*
X358496Y112400D01*
Y113399D01*
X359496Y114399D01*
X358496Y115399D01*
Y116398D01*
X359496Y114399D02*
X361495D01*
X346000Y106800D02*
Y112798D01*
X348999D01*
X349999Y111798D01*
Y109799D01*
X348999Y108799D01*
X346000D01*
X347999D02*
X349999Y106800D01*
X355997D02*
X351998D01*
X355997Y110799D01*
Y111798D01*
X354997Y112798D01*
X352998D01*
X351998Y111798D01*
X357996Y107800D02*
X358996Y106800D01*
X360995D01*
X361995Y107800D01*
Y111798D01*
X360995Y112798D01*
X358996D01*
X357996Y111798D01*
Y110799D01*
X358996Y109799D01*
X361995D01*
X300900Y190200D02*
X294902D01*
Y193199D01*
X295902Y194199D01*
X297901D01*
X298901Y193199D01*
Y190200D01*
Y192199D02*
X300900Y194199D01*
X295902Y196198D02*
X294902Y197198D01*
Y199197D01*
X295902Y200197D01*
X296901D01*
X297901Y199197D01*
Y198197D01*
Y199197D01*
X298901Y200197D01*
X299900D01*
X300900Y199197D01*
Y197198D01*
X299900Y196198D01*
X295902Y202196D02*
X294902Y203196D01*
Y205195D01*
X295902Y206195D01*
X299900D01*
X300900Y205195D01*
Y203196D01*
X299900Y202196D01*
X295902D01*
X119200Y544200D02*
Y550198D01*
X122199D01*
X123199Y549198D01*
Y547199D01*
X122199Y546199D01*
X119200D01*
X121199D02*
X123199Y544200D01*
X125198Y549198D02*
X126198Y550198D01*
X128197D01*
X129197Y549198D01*
Y548199D01*
X128197Y547199D01*
X127197D01*
X128197D01*
X129197Y546199D01*
Y545200D01*
X128197Y544200D01*
X126198D01*
X125198Y545200D01*
X131196Y544200D02*
X133195D01*
X132196D01*
Y550198D01*
X131196Y549198D01*
X166200Y549800D02*
Y555798D01*
X169199D01*
X170199Y554798D01*
Y552799D01*
X169199Y551799D01*
X166200D01*
X168199D02*
X170199Y549800D01*
X172198Y554798D02*
X173198Y555798D01*
X175197D01*
X176197Y554798D01*
Y553799D01*
X175197Y552799D01*
X174197D01*
X175197D01*
X176197Y551799D01*
Y550800D01*
X175197Y549800D01*
X173198D01*
X172198Y550800D01*
X182195Y549800D02*
X178196D01*
X182195Y553799D01*
Y554798D01*
X181195Y555798D01*
X179196D01*
X178196Y554798D01*
X167600Y570200D02*
Y576198D01*
X170599D01*
X171599Y575198D01*
Y573199D01*
X170599Y572199D01*
X167600D01*
X169599D02*
X171599Y570200D01*
X173598Y575198D02*
X174598Y576198D01*
X176597D01*
X177597Y575198D01*
Y574199D01*
X176597Y573199D01*
X175597D01*
X176597D01*
X177597Y572199D01*
Y571200D01*
X176597Y570200D01*
X174598D01*
X173598Y571200D01*
X179596Y575198D02*
X180596Y576198D01*
X182595D01*
X183595Y575198D01*
Y574199D01*
X182595Y573199D01*
X181596D01*
X182595D01*
X183595Y572199D01*
Y571200D01*
X182595Y570200D01*
X180596D01*
X179596Y571200D01*
X292100Y190600D02*
X286102D01*
Y193599D01*
X287102Y194599D01*
X289101D01*
X290101Y193599D01*
Y190600D01*
Y192599D02*
X292100Y194599D01*
X287102Y196598D02*
X286102Y197598D01*
Y199597D01*
X287102Y200597D01*
X288101D01*
X289101Y199597D01*
Y198597D01*
Y199597D01*
X290101Y200597D01*
X291100D01*
X292100Y199597D01*
Y197598D01*
X291100Y196598D01*
X292100Y205595D02*
X286102D01*
X289101Y202596D01*
Y206595D01*
X317200Y190647D02*
X311202D01*
Y193646D01*
X312202Y194646D01*
X314201D01*
X315201Y193646D01*
Y190647D01*
Y192647D02*
X317200Y194646D01*
X312202Y196645D02*
X311202Y197645D01*
Y199644D01*
X312202Y200644D01*
X313201D01*
X314201Y199644D01*
Y198645D01*
Y199644D01*
X315201Y200644D01*
X316200D01*
X317200Y199644D01*
Y197645D01*
X316200Y196645D01*
X311202Y206642D02*
Y202643D01*
X314201D01*
X313201Y204643D01*
Y205642D01*
X314201Y206642D01*
X316200D01*
X317200Y205642D01*
Y203643D01*
X316200Y202643D01*
X275700Y191000D02*
X269702D01*
Y193999D01*
X270702Y194999D01*
X272701D01*
X273701Y193999D01*
Y191000D01*
Y192999D02*
X275700Y194999D01*
X270702Y196998D02*
X269702Y197998D01*
Y199997D01*
X270702Y200997D01*
X271701D01*
X272701Y199997D01*
Y198997D01*
Y199997D01*
X273701Y200997D01*
X274700D01*
X275700Y199997D01*
Y197998D01*
X274700Y196998D01*
X269702Y206995D02*
X270702Y204995D01*
X272701Y202996D01*
X274700D01*
X275700Y203996D01*
Y205995D01*
X274700Y206995D01*
X273701D01*
X272701Y205995D01*
Y202996D01*
X267500Y191600D02*
X261502D01*
Y194599D01*
X262502Y195599D01*
X264501D01*
X265501Y194599D01*
Y191600D01*
Y193599D02*
X267500Y195599D01*
X262502Y197598D02*
X261502Y198598D01*
Y200597D01*
X262502Y201597D01*
X263501D01*
X264501Y200597D01*
Y199597D01*
Y200597D01*
X265501Y201597D01*
X266500D01*
X267500Y200597D01*
Y198598D01*
X266500Y197598D01*
X261502Y203596D02*
Y207595D01*
X262502D01*
X266500Y203596D01*
X267500D01*
X259900Y192600D02*
X253902D01*
Y195599D01*
X254902Y196599D01*
X256901D01*
X257901Y195599D01*
Y192600D01*
Y194599D02*
X259900Y196599D01*
X254902Y198598D02*
X253902Y199598D01*
Y201597D01*
X254902Y202597D01*
X255901D01*
X256901Y201597D01*
Y200597D01*
Y201597D01*
X257901Y202597D01*
X258900D01*
X259900Y201597D01*
Y199598D01*
X258900Y198598D01*
X254902Y204596D02*
X253902Y205596D01*
Y207595D01*
X254902Y208595D01*
X255901D01*
X256901Y207595D01*
X257901Y208595D01*
X258900D01*
X259900Y207595D01*
Y205596D01*
X258900Y204596D01*
X257901D01*
X256901Y205596D01*
X255901Y204596D01*
X254902D01*
X256901Y205596D02*
Y207595D01*
X251700Y192400D02*
X245702D01*
Y195399D01*
X246702Y196399D01*
X248701D01*
X249701Y195399D01*
Y192400D01*
Y194399D02*
X251700Y196399D01*
X246702Y198398D02*
X245702Y199398D01*
Y201397D01*
X246702Y202397D01*
X247701D01*
X248701Y201397D01*
Y200397D01*
Y201397D01*
X249701Y202397D01*
X250700D01*
X251700Y201397D01*
Y199398D01*
X250700Y198398D01*
Y204396D02*
X251700Y205396D01*
Y207395D01*
X250700Y208395D01*
X246702D01*
X245702Y207395D01*
Y205396D01*
X246702Y204396D01*
X247701D01*
X248701Y205396D01*
Y208395D01*
X566299Y66698D02*
X565299Y67698D01*
X563300D01*
X562300Y66698D01*
Y65699D01*
X563300Y64699D01*
X565299D01*
X566299Y63699D01*
Y62700D01*
X565299Y61700D01*
X563300D01*
X562300Y62700D01*
X568298Y67698D02*
Y61700D01*
X570297Y63699D01*
X572297Y61700D01*
Y67698D01*
X574296Y60700D02*
X578295D01*
X580294Y61700D02*
Y67698D01*
X583293D01*
X584293Y66698D01*
Y64699D01*
X583293Y63699D01*
X580294D01*
X582294D02*
X584293Y61700D01*
X590291Y67698D02*
X586292D01*
Y61700D01*
X590291D01*
X586292Y64699D02*
X588292D01*
X596289Y66698D02*
X595289Y67698D01*
X593290D01*
X592290Y66698D01*
Y65699D01*
X593290Y64699D01*
X595289D01*
X596289Y63699D01*
Y62700D01*
X595289Y61700D01*
X593290D01*
X592290Y62700D01*
X602287Y67698D02*
X598288D01*
Y61700D01*
X602287D01*
X598288Y64699D02*
X600288D01*
X604286Y67698D02*
X608285D01*
X606286D01*
Y61700D01*
X133301Y600487D02*
X134301Y599487D01*
X136300D01*
X137300Y600487D01*
Y601486D01*
X136300Y602486D01*
X134301D01*
X133301Y603486D01*
Y604485D01*
X134301Y605485D01*
X136300D01*
X137300Y604485D01*
X131302Y599487D02*
Y605485D01*
X129303Y603486D01*
X127303Y605485D01*
Y599487D01*
X125304Y606485D02*
X121305D01*
X119306Y599487D02*
Y605485D01*
Y602486D01*
X115307D01*
Y599487D01*
Y605485D01*
X112308Y601486D02*
X110309D01*
X109309Y602486D01*
Y605485D01*
X112308D01*
X113308Y604485D01*
X112308Y603486D01*
X109309D01*
X107310Y605485D02*
Y601486D01*
X104311D01*
X103311Y602486D01*
Y605485D01*
X99312Y607484D02*
X98313D01*
X97313Y606485D01*
Y601486D01*
X100312D01*
X101312Y602486D01*
Y604485D01*
X100312Y605485D01*
X97313D01*
X95314Y599487D02*
Y604485D01*
X94314Y605485D01*
X92314D01*
X91315Y604485D01*
Y599487D01*
X89315Y607484D02*
Y601486D01*
X86317D01*
X85317Y602486D01*
Y604485D01*
X86317Y605485D01*
X89315D01*
X491400Y84898D02*
Y79900D01*
X492400Y78900D01*
X494399D01*
X495399Y79900D01*
Y84898D01*
X497398Y83898D02*
X498398Y84898D01*
X500397D01*
X501397Y83898D01*
Y82899D01*
X500397Y81899D01*
X499397D01*
X500397D01*
X501397Y80899D01*
Y79900D01*
X500397Y78900D01*
X498398D01*
X497398Y79900D01*
X176900Y226898D02*
Y221900D01*
X177900Y220900D01*
X179899D01*
X180899Y221900D01*
Y226898D01*
X182898Y220900D02*
X184897D01*
X183898D01*
Y226898D01*
X182898Y225898D01*
X191895Y226898D02*
X187896D01*
Y223899D01*
X189896Y224899D01*
X190895D01*
X191895Y223899D01*
Y221900D01*
X190895Y220900D01*
X188896D01*
X187896Y221900D01*
X21799Y444900D02*
Y448898D01*
X20799Y449898D01*
X18800D01*
X17800Y448898D01*
Y444900D01*
X18800Y443900D01*
X20799D01*
X19799Y445899D02*
X21799Y443900D01*
X20799D02*
X21799Y444900D01*
X27797Y443900D02*
X23798D01*
X27797Y447899D01*
Y448898D01*
X26797Y449898D01*
X24798D01*
X23798Y448898D01*
X270100Y580198D02*
Y574200D01*
X274099D01*
X276098D02*
X278097D01*
X277098D01*
Y580198D01*
X276098Y579198D01*
X270100Y597198D02*
Y591200D01*
X274099D01*
X280097D02*
X276098D01*
X280097Y595199D01*
Y596198D01*
X279097Y597198D01*
X277098D01*
X276098Y596198D01*
X184198Y368100D02*
X178200D01*
Y364101D01*
X183198Y362102D02*
X184198Y361102D01*
Y359103D01*
X183198Y358103D01*
X182199D01*
X181199Y359103D01*
Y360103D01*
Y359103D01*
X180199Y358103D01*
X179200D01*
X178200Y359103D01*
Y361102D01*
X179200Y362102D01*
X127800Y294398D02*
Y288400D01*
X131799D01*
X136797D02*
Y294398D01*
X133798Y291399D01*
X137797D01*
X218000Y150000D02*
Y144002D01*
X215001D01*
X214001Y145002D01*
Y147001D01*
X215001Y148001D01*
X218000D01*
X216001D02*
X214001Y150000D01*
X208003Y144002D02*
X212002D01*
Y147001D01*
X210003Y146001D01*
X209003D01*
X208003Y147001D01*
Y149000D01*
X209003Y150000D01*
X211002D01*
X212002Y149000D01*
X206004D02*
X205004Y150000D01*
X203005D01*
X202005Y149000D01*
Y145002D01*
X203005Y144002D01*
X205004D01*
X206004Y145002D01*
Y146001D01*
X205004Y147001D01*
X202005D01*
X303000Y574500D02*
X308998D01*
Y571501D01*
X307998Y570501D01*
X305999D01*
X304999Y571501D01*
Y574500D01*
Y572501D02*
X303000Y570501D01*
X308998Y564503D02*
X307998Y566503D01*
X305999Y568502D01*
X304000D01*
X303000Y567502D01*
Y565503D01*
X304000Y564503D01*
X304999D01*
X305999Y565503D01*
Y568502D01*
X307998Y562504D02*
X308998Y561504D01*
Y559505D01*
X307998Y558505D01*
X306999D01*
X305999Y559505D01*
Y560504D01*
Y559505D01*
X304999Y558505D01*
X304000D01*
X303000Y559505D01*
Y561504D01*
X304000Y562504D01*
X296800Y604000D02*
X302798D01*
Y601001D01*
X301798Y600001D01*
X299799D01*
X298799Y601001D01*
Y604000D01*
Y602001D02*
X296800Y600001D01*
X302798Y594003D02*
X301798Y596003D01*
X299799Y598002D01*
X297800D01*
X296800Y597002D01*
Y595003D01*
X297800Y594003D01*
X298799D01*
X299799Y595003D01*
Y598002D01*
X296800Y589005D02*
X302798D01*
X299799Y592004D01*
Y588005D01*
X136200Y535498D02*
Y530500D01*
X137200Y529500D01*
X139199D01*
X140199Y530500D01*
Y535498D01*
X142198Y529500D02*
X144197D01*
X143198D01*
Y535498D01*
X142198Y534498D01*
X147196D02*
X148196Y535498D01*
X150196D01*
X151195Y534498D01*
Y533499D01*
X150196Y532499D01*
X149196D01*
X150196D01*
X151195Y531499D01*
Y530500D01*
X150196Y529500D01*
X148196D01*
X147196Y530500D01*
X74399Y80898D02*
X73399Y81898D01*
X71400D01*
X70400Y80898D01*
Y76900D01*
X71400Y75900D01*
X73399D01*
X74399Y76900D01*
X76398Y81898D02*
X80397D01*
Y80898D01*
X76398Y76900D01*
Y75900D01*
X82396D02*
X84395D01*
X83396D01*
Y81898D01*
X82396Y80898D01*
X112099Y109898D02*
X111099Y110898D01*
X109100D01*
X108100Y109898D01*
Y105900D01*
X109100Y104900D01*
X111099D01*
X112099Y105900D01*
X114098Y110898D02*
X118097D01*
Y109898D01*
X114098Y105900D01*
Y104900D01*
X124095D02*
X120096D01*
X124095Y108899D01*
Y109898D01*
X123095Y110898D01*
X121096D01*
X120096Y109898D01*
X246799Y589398D02*
X245799Y590398D01*
X243800D01*
X242800Y589398D01*
Y585400D01*
X243800Y584400D01*
X245799D01*
X246799Y585400D01*
X248798Y590398D02*
X252797D01*
Y589398D01*
X248798Y585400D01*
Y584400D01*
X254796Y589398D02*
X255796Y590398D01*
X257795D01*
X258795Y589398D01*
Y588399D01*
X257795Y587399D01*
X256796D01*
X257795D01*
X258795Y586399D01*
Y585400D01*
X257795Y584400D01*
X255796D01*
X254796Y585400D01*
X112199Y296298D02*
X111199Y297298D01*
X109200D01*
X108200Y296298D01*
Y292300D01*
X109200Y291300D01*
X111199D01*
X112199Y292300D01*
X114198Y297298D02*
X118197D01*
Y296298D01*
X114198Y292300D01*
Y291300D01*
X123195D02*
Y297298D01*
X120196Y294299D01*
X124195D01*
X114399Y237698D02*
X113399Y238698D01*
X111400D01*
X110400Y237698D01*
Y233700D01*
X111400Y232700D01*
X113399D01*
X114399Y233700D01*
X116398Y238698D02*
X120397D01*
Y237698D01*
X116398Y233700D01*
Y232700D01*
X126395Y238698D02*
X124396Y237698D01*
X122396Y235699D01*
Y233700D01*
X123396Y232700D01*
X125395D01*
X126395Y233700D01*
Y234699D01*
X125395Y235699D01*
X122396D01*
X114099Y176798D02*
X113099Y177798D01*
X111100D01*
X110100Y176798D01*
Y172800D01*
X111100Y171800D01*
X113099D01*
X114099Y172800D01*
X116098Y177798D02*
X120097D01*
Y176798D01*
X116098Y172800D01*
Y171800D01*
X122096Y176798D02*
X123096Y177798D01*
X125095D01*
X126095Y176798D01*
Y175799D01*
X125095Y174799D01*
X126095Y173799D01*
Y172800D01*
X125095Y171800D01*
X123096D01*
X122096Y172800D01*
Y173799D01*
X123096Y174799D01*
X122096Y175799D01*
Y176798D01*
X123096Y174799D02*
X125095D01*
X104600Y96400D02*
Y102398D01*
X107599D01*
X108599Y101398D01*
Y99399D01*
X107599Y98399D01*
X104600D01*
X106599D02*
X108599Y96400D01*
X113597D02*
Y102398D01*
X110598Y99399D01*
X114597D01*
X116596Y102398D02*
X120595D01*
Y101398D01*
X116596Y97400D01*
Y96400D01*
X104600Y88400D02*
Y94398D01*
X107599D01*
X108599Y93398D01*
Y91399D01*
X107599Y90399D01*
X104600D01*
X106599D02*
X108599Y88400D01*
X113597D02*
Y94398D01*
X110598Y91399D01*
X114597D01*
X116596Y93398D02*
X117596Y94398D01*
X119595D01*
X120595Y93398D01*
Y92399D01*
X119595Y91399D01*
X120595Y90399D01*
Y89400D01*
X119595Y88400D01*
X117596D01*
X116596Y89400D01*
Y90399D01*
X117596Y91399D01*
X116596Y92399D01*
Y93398D01*
X117596Y91399D02*
X119595D01*
X103900Y282100D02*
Y288098D01*
X106899D01*
X107899Y287098D01*
Y285099D01*
X106899Y284099D01*
X103900D01*
X105899D02*
X107899Y282100D01*
X112897D02*
Y288098D01*
X109898Y285099D01*
X113897D01*
X115896Y283100D02*
X116896Y282100D01*
X118895D01*
X119895Y283100D01*
Y287098D01*
X118895Y288098D01*
X116896D01*
X115896Y287098D01*
Y286099D01*
X116896Y285099D01*
X119895D01*
X103800Y272900D02*
Y278898D01*
X106799D01*
X107799Y277898D01*
Y275899D01*
X106799Y274899D01*
X103800D01*
X105799D02*
X107799Y272900D01*
X113797Y278898D02*
X109798D01*
Y275899D01*
X111797Y276899D01*
X112797D01*
X113797Y275899D01*
Y273900D01*
X112797Y272900D01*
X110798D01*
X109798Y273900D01*
X115796Y277898D02*
X116796Y278898D01*
X118795D01*
X119795Y277898D01*
Y273900D01*
X118795Y272900D01*
X116796D01*
X115796Y273900D01*
Y277898D01*
X105100Y223700D02*
Y229698D01*
X108099D01*
X109099Y228698D01*
Y226699D01*
X108099Y225699D01*
X105100D01*
X107099D02*
X109099Y223700D01*
X115097Y229698D02*
X111098D01*
Y226699D01*
X113097Y227699D01*
X114097D01*
X115097Y226699D01*
Y224700D01*
X114097Y223700D01*
X112098D01*
X111098Y224700D01*
X117096Y223700D02*
X119096D01*
X118096D01*
Y229698D01*
X117096Y228698D01*
X105200Y213400D02*
Y219398D01*
X108199D01*
X109199Y218398D01*
Y216399D01*
X108199Y215399D01*
X105200D01*
X107199D02*
X109199Y213400D01*
X115197Y219398D02*
X111198D01*
Y216399D01*
X113197Y217399D01*
X114197D01*
X115197Y216399D01*
Y214400D01*
X114197Y213400D01*
X112198D01*
X111198Y214400D01*
X121195Y213400D02*
X117196D01*
X121195Y217399D01*
Y218398D01*
X120195Y219398D01*
X118196D01*
X117196Y218398D01*
X105200Y161700D02*
Y167698D01*
X108199D01*
X109199Y166698D01*
Y164699D01*
X108199Y163699D01*
X105200D01*
X107199D02*
X109199Y161700D01*
X115197Y167698D02*
X111198D01*
Y164699D01*
X113197Y165699D01*
X114197D01*
X115197Y164699D01*
Y162700D01*
X114197Y161700D01*
X112198D01*
X111198Y162700D01*
X117196Y166698D02*
X118196Y167698D01*
X120195D01*
X121195Y166698D01*
Y165699D01*
X120195Y164699D01*
X119195D01*
X120195D01*
X121195Y163699D01*
Y162700D01*
X120195Y161700D01*
X118196D01*
X117196Y162700D01*
X105700Y153000D02*
Y158998D01*
X108699D01*
X109699Y157998D01*
Y155999D01*
X108699Y154999D01*
X105700D01*
X107699D02*
X109699Y153000D01*
X115697Y158998D02*
X111698D01*
Y155999D01*
X113697Y156999D01*
X114697D01*
X115697Y155999D01*
Y154000D01*
X114697Y153000D01*
X112698D01*
X111698Y154000D01*
X120695Y153000D02*
Y158998D01*
X117696Y155999D01*
X121695D01*
X4500Y131000D02*
Y136998D01*
X7499D01*
X8499Y135998D01*
Y133999D01*
X7499Y132999D01*
X4500D01*
X6499D02*
X8499Y131000D01*
X14497Y136998D02*
X10498D01*
Y131000D01*
X14497D01*
X10498Y133999D02*
X12497D01*
X20495Y135998D02*
X19495Y136998D01*
X17496D01*
X16496Y135998D01*
Y132000D01*
X17496Y131000D01*
X19495D01*
X20495Y132000D01*
Y133999D01*
X18496D01*
X22494Y130000D02*
X26493D01*
X28492Y131000D02*
X30492D01*
X29492D01*
Y136998D01*
X28492Y135998D01*
X33491Y136998D02*
Y132999D01*
X35490Y131000D01*
X37489Y132999D01*
Y136998D01*
X39489Y135998D02*
X40488Y136998D01*
X42488D01*
X43487Y135998D01*
Y134999D01*
X42488Y133999D01*
X43487Y132999D01*
Y132000D01*
X42488Y131000D01*
X40488D01*
X39489Y132000D01*
Y132999D01*
X40488Y133999D01*
X39489Y134999D01*
Y135998D01*
X40488Y133999D02*
X42488D01*
X4700Y253300D02*
Y259298D01*
X7699D01*
X8699Y258298D01*
Y256299D01*
X7699Y255299D01*
X4700D01*
X6699D02*
X8699Y253300D01*
X14697Y259298D02*
X10698D01*
Y253300D01*
X14697D01*
X10698Y256299D02*
X12697D01*
X20695Y258298D02*
X19695Y259298D01*
X17696D01*
X16696Y258298D01*
Y254300D01*
X17696Y253300D01*
X19695D01*
X20695Y254300D01*
Y256299D01*
X18696D01*
X22694Y252300D02*
X26693D01*
X28692Y258298D02*
X29692Y259298D01*
X31691D01*
X32691Y258298D01*
Y257299D01*
X31691Y256299D01*
X30692D01*
X31691D01*
X32691Y255299D01*
Y254300D01*
X31691Y253300D01*
X29692D01*
X28692Y254300D01*
X34690Y259298D02*
Y255299D01*
X36690Y253300D01*
X38689Y255299D01*
Y259298D01*
X40688Y258298D02*
X41688Y259298D01*
X43687D01*
X44687Y258298D01*
Y257299D01*
X43687Y256299D01*
X42688D01*
X43687D01*
X44687Y255299D01*
Y254300D01*
X43687Y253300D01*
X41688D01*
X40688Y254300D01*
X4600Y193600D02*
Y199598D01*
X7599D01*
X8599Y198598D01*
Y196599D01*
X7599Y195599D01*
X4600D01*
X6599D02*
X8599Y193600D01*
X14597Y199598D02*
X10598D01*
Y193600D01*
X14597D01*
X10598Y196599D02*
X12597D01*
X20595Y198598D02*
X19595Y199598D01*
X17596D01*
X16596Y198598D01*
Y194600D01*
X17596Y193600D01*
X19595D01*
X20595Y194600D01*
Y196599D01*
X18596D01*
X22594Y192600D02*
X26593D01*
X28592Y198598D02*
X29592Y199598D01*
X31591D01*
X32591Y198598D01*
Y197599D01*
X31591Y196599D01*
X30592D01*
X31591D01*
X32591Y195599D01*
Y194600D01*
X31591Y193600D01*
X29592D01*
X28592Y194600D01*
X34590Y199598D02*
Y195599D01*
X36590Y193600D01*
X38589Y195599D01*
Y199598D01*
X4300Y312900D02*
Y318898D01*
X7299D01*
X8299Y317898D01*
Y315899D01*
X7299Y314899D01*
X4300D01*
X6299D02*
X8299Y312900D01*
X14297Y318898D02*
X10298D01*
Y312900D01*
X14297D01*
X10298Y315899D02*
X12297D01*
X20295Y317898D02*
X19295Y318898D01*
X17296D01*
X16296Y317898D01*
Y313900D01*
X17296Y312900D01*
X19295D01*
X20295Y313900D01*
Y315899D01*
X18295D01*
X22294Y311900D02*
X26293D01*
X32291Y318898D02*
X28292D01*
Y315899D01*
X30292Y316899D01*
X31291D01*
X32291Y315899D01*
Y313900D01*
X31291Y312900D01*
X29292D01*
X28292Y313900D01*
X34290Y318898D02*
Y314899D01*
X36290Y312900D01*
X38289Y314899D01*
Y318898D01*
X94899Y429298D02*
X93899Y430298D01*
X91900D01*
X90900Y429298D01*
Y425300D01*
X91900Y424300D01*
X93899D01*
X94899Y425300D01*
X96898Y430298D02*
X100897D01*
Y429298D01*
X96898Y425300D01*
Y424300D01*
X102896Y425300D02*
X103896Y424300D01*
X105895D01*
X106895Y425300D01*
Y429298D01*
X105895Y430298D01*
X103896D01*
X102896Y429298D01*
Y428299D01*
X103896Y427299D01*
X106895D01*
X60466Y9599D02*
X57800D01*
Y7599D01*
X59133D01*
X57800D01*
Y5600D01*
X62465Y8266D02*
X63798D01*
X64464Y7599D01*
Y5600D01*
X62465D01*
X61799Y6266D01*
X62465Y6933D01*
X64464D01*
X68463Y8266D02*
X66464D01*
X65797Y7599D01*
Y6266D01*
X66464Y5600D01*
X68463D01*
X71795D02*
X70463D01*
X69796Y6266D01*
Y7599D01*
X70463Y8266D01*
X71795D01*
X72462Y7599D01*
Y6933D01*
X69796D01*
D30*
X376304Y567388D02*
G03*
X376304Y572900I0J2756D01*
G01*
X516200Y599600D02*
X521200Y594600D01*
X451200Y539600D02*
X521200D01*
X451200Y599600D02*
X516200D01*
X451200Y539600D02*
Y599600D01*
X521200Y539600D02*
Y594600D01*
X376335Y588896D02*
X446304Y588900D01*
X376304Y550900D02*
X446304D01*
Y588900D01*
X376304Y572900D02*
Y588900D01*
Y550900D02*
Y567388D01*
X483800Y173700D02*
X488800Y178700D01*
X408800Y173700D02*
Y253700D01*
X488800Y178700D02*
Y253700D01*
X408800Y173700D02*
X483800D01*
X408800Y253700D02*
X488800D01*
X529900Y207568D02*
Y210900D01*
X533232Y207568D01*
X534065D01*
X534898Y208401D01*
Y210067D01*
X534065Y210900D01*
X519900D02*
Y209234D01*
Y210067D01*
X524898D01*
X524065Y210900D01*
X519900Y124900D02*
Y123234D01*
Y124067D01*
X524898D01*
X524065Y124900D01*
X524898Y117402D02*
Y120735D01*
X522399D01*
X523232Y119069D01*
Y118236D01*
X522399Y117402D01*
X520733D01*
X519900Y118236D01*
Y119902D01*
X520733Y120735D01*
X529900Y124900D02*
Y123234D01*
Y124067D01*
X534898D01*
X534065Y124900D01*
X534898Y117402D02*
X534065Y119069D01*
X532399Y120735D01*
X530733D01*
X529900Y119902D01*
Y118236D01*
X530733Y117402D01*
X531566D01*
X532399Y118236D01*
Y120735D01*
X320166Y66332D02*
X319499Y66999D01*
X318166D01*
X317500Y66332D01*
Y63666D01*
X318166Y63000D01*
X319499D01*
X320166Y63666D01*
X321499Y66332D02*
X322165Y66999D01*
X323498D01*
X324165Y66332D01*
Y65666D01*
X323498Y64999D01*
X324165Y64333D01*
Y63666D01*
X323498Y63000D01*
X322165D01*
X321499Y63666D01*
Y64333D01*
X322165Y64999D01*
X321499Y65666D01*
Y66332D01*
X322165Y64999D02*
X323498D01*
X328163Y66999D02*
X326830Y66332D01*
X325497Y64999D01*
Y63666D01*
X326164Y63000D01*
X327497D01*
X328163Y63666D01*
Y64333D01*
X327497Y64999D01*
X325497D01*
X214268Y304466D02*
X213601Y303799D01*
Y302466D01*
X214268Y301800D01*
X216934D01*
X217600Y302466D01*
Y303799D01*
X216934Y304466D01*
X217600Y305799D02*
Y307132D01*
Y306465D01*
X213601D01*
X214268Y305799D01*
X216934Y309131D02*
X217600Y309797D01*
Y311130D01*
X216934Y311797D01*
X214268D01*
X213601Y311130D01*
Y309797D01*
X214268Y309131D01*
X214934D01*
X215601Y309797D01*
Y311797D01*
X195066Y277532D02*
X194399Y278199D01*
X193067D01*
X192400Y277532D01*
Y274866D01*
X193067Y274200D01*
X194399D01*
X195066Y274866D01*
X199065Y274200D02*
X196399D01*
X199065Y276866D01*
Y277532D01*
X198398Y278199D01*
X197065D01*
X196399Y277532D01*
X200397D02*
X201064Y278199D01*
X202397D01*
X203063Y277532D01*
Y276866D01*
X202397Y276199D01*
X201730D01*
X202397D01*
X203063Y275533D01*
Y274866D01*
X202397Y274200D01*
X201064D01*
X200397Y274866D01*
X186132Y309834D02*
X186799Y310501D01*
Y311834D01*
X186132Y312500D01*
X183466D01*
X182800Y311834D01*
Y310501D01*
X183466Y309834D01*
X182800Y305836D02*
Y308501D01*
X185466Y305836D01*
X186132D01*
X186799Y306502D01*
Y307835D01*
X186132Y308501D01*
X186799Y304503D02*
Y301837D01*
X186132D01*
X183466Y304503D01*
X182800D01*
X207168Y276222D02*
X206501Y275555D01*
Y274222D01*
X207168Y273556D01*
X209834D01*
X210500Y274222D01*
Y275555D01*
X209834Y276222D01*
X210500Y280221D02*
Y277555D01*
X207834Y280221D01*
X207168D01*
X206501Y279554D01*
Y278221D01*
X207168Y277555D01*
Y281553D02*
X206501Y282220D01*
Y283553D01*
X207168Y284219D01*
X207834D01*
X208501Y283553D01*
X209167Y284219D01*
X209834D01*
X210500Y283553D01*
Y282220D01*
X209834Y281553D01*
X209167D01*
X208501Y282220D01*
X207834Y281553D01*
X207168D01*
X208501Y282220D02*
Y283553D01*
X207068Y308966D02*
X206401Y308299D01*
Y306966D01*
X207068Y306300D01*
X209734D01*
X210400Y306966D01*
Y308299D01*
X209734Y308966D01*
X207068Y310299D02*
X206401Y310965D01*
Y312298D01*
X207068Y312965D01*
X207734D01*
X208401Y312298D01*
Y311632D01*
Y312298D01*
X209067Y312965D01*
X209734D01*
X210400Y312298D01*
Y310965D01*
X209734Y310299D01*
X207068Y314297D02*
X206401Y314964D01*
Y316297D01*
X207068Y316963D01*
X209734D01*
X210400Y316297D01*
Y314964D01*
X209734Y314297D01*
X207068D01*
X317000Y75500D02*
Y79499D01*
X318999D01*
X319666Y78832D01*
Y77499D01*
X318999Y76833D01*
X317000D01*
X318333D02*
X319666Y75500D01*
X322998D02*
Y79499D01*
X320999Y77499D01*
X323664D01*
X324997Y75500D02*
X326330D01*
X325664D01*
Y79499D01*
X324997Y78832D01*
X317000Y80500D02*
Y84499D01*
X318999D01*
X319666Y83832D01*
Y82499D01*
X318999Y81833D01*
X317000D01*
X318333D02*
X319666Y80500D01*
X322998D02*
Y84499D01*
X320999Y82499D01*
X323664D01*
X327663Y80500D02*
X324997D01*
X327663Y83166D01*
Y83832D01*
X326997Y84499D01*
X325664D01*
X324997Y83832D01*
X320410Y73332D02*
X319743Y73999D01*
X318410D01*
X317744Y73332D01*
Y70666D01*
X318410Y70000D01*
X319743D01*
X320410Y70666D01*
X321743Y73332D02*
X322409Y73999D01*
X323742D01*
X324409Y73332D01*
Y72666D01*
X323742Y71999D01*
X324409Y71333D01*
Y70666D01*
X323742Y70000D01*
X322409D01*
X321743Y70666D01*
Y71333D01*
X322409Y71999D01*
X321743Y72666D01*
Y73332D01*
X322409Y71999D02*
X323742D01*
X325742Y70000D02*
X327074D01*
X326408D01*
Y73999D01*
X325742Y73332D01*
X446668Y461500D02*
X450000D01*
X446668Y458168D01*
Y457335D01*
X447501Y456502D01*
X449167D01*
X450000Y457335D01*
Y471500D02*
X448334D01*
X449167D01*
Y466502D01*
X450000Y467335D01*
X364000Y471500D02*
X362334D01*
X363167D01*
Y466502D01*
X364000Y467335D01*
X356502Y466502D02*
X359835D01*
Y469001D01*
X358169Y468168D01*
X357335D01*
X356502Y469001D01*
Y470667D01*
X357335Y471500D01*
X359002D01*
X359835Y470667D01*
X364000Y461500D02*
X362334D01*
X363167D01*
Y456502D01*
X364000Y457335D01*
X356502Y456502D02*
X358169Y457335D01*
X359835Y459001D01*
Y460667D01*
X359002Y461500D01*
X357335D01*
X356502Y460667D01*
Y459834D01*
X357335Y459001D01*
X359835D01*
X323668Y506500D02*
X327000D01*
X323668Y503168D01*
Y502335D01*
X324501Y501502D01*
X326167D01*
X327000Y502335D01*
Y516500D02*
X325334D01*
X326167D01*
Y511502D01*
X327000Y512335D01*
X241000Y516500D02*
X239334D01*
X240167D01*
Y511502D01*
X241000Y512335D01*
X233502Y511502D02*
X236835D01*
Y514001D01*
X235169Y513168D01*
X234335D01*
X233502Y514001D01*
Y515667D01*
X234335Y516500D01*
X236002D01*
X236835Y515667D01*
X241000Y506500D02*
X239334D01*
X240167D01*
Y501502D01*
X241000Y502335D01*
X233502Y501502D02*
X235169Y502335D01*
X236835Y504001D01*
Y505667D01*
X236002Y506500D01*
X234335D01*
X233502Y505667D01*
Y504834D01*
X234335Y504001D01*
X236835D01*
X349668Y473000D02*
X353000D01*
X349668Y469668D01*
Y468835D01*
X350501Y468002D01*
X352167D01*
X353000Y468835D01*
X351000Y483000D02*
X349334D01*
X350167D01*
Y478002D01*
X351000Y478835D01*
X307000Y478002D02*
X303668D01*
Y478835D01*
X307000Y482167D01*
Y483000D01*
Y468835D02*
X306167Y468002D01*
X304501D01*
X303668Y468835D01*
Y469668D01*
X304501Y470501D01*
X303668Y471334D01*
Y472167D01*
X304501Y473000D01*
X306167D01*
X307000Y472167D01*
Y471334D01*
X306167Y470501D01*
X307000Y469668D01*
Y468835D01*
X306167Y470501D02*
X304501D01*
X507668Y115000D02*
X511000D01*
X507668Y111668D01*
Y110835D01*
X508501Y110002D01*
X510167D01*
X511000Y110835D01*
Y125000D02*
X509334D01*
X510167D01*
Y120002D01*
X511000Y120835D01*
X405000Y125000D02*
X403334D01*
X404167D01*
Y120002D01*
X405000Y120835D01*
X400835Y124167D02*
X400002Y125000D01*
X398336D01*
X397502Y124167D01*
Y120835D01*
X398336Y120002D01*
X400002D01*
X400835Y120835D01*
Y121668D01*
X400002Y122501D01*
X397502D01*
X401668Y115000D02*
X405000D01*
X401668Y111668D01*
Y110835D01*
X402501Y110002D01*
X404167D01*
X405000Y110835D01*
X400002D02*
X399169Y110002D01*
X397502D01*
X396669Y110835D01*
Y114167D01*
X397502Y115000D01*
X399169D01*
X400002Y114167D01*
Y110835D01*
D61*
X65703Y467017D02*
G03*
X65703Y467017I-492J0D01*
G01*
X70481Y443983D02*
G03*
X70481Y443983I-492J0D01*
G01*
X75815Y592496D02*
X95500D01*
X552315Y53811D02*
X572000D01*
D62*
X60684Y457569D02*
G03*
X60684Y457569I-1181J0D01*
G01*
X76879Y453432D02*
G03*
X76879Y453432I-1181J0D01*
G01*
D63*
X516900Y125900D02*
X536900D01*
X516900Y205900D02*
X536900D01*
X516900Y125900D02*
Y205900D01*
X536900Y125900D02*
Y205900D01*
X133122Y284650D02*
X135878D01*
X133122Y278350D02*
X135878D01*
X96925Y290547D02*
X100075D01*
X96925Y296453D02*
X100075D01*
X98325Y232447D02*
X101475D01*
X98325Y238353D02*
X101475D01*
X98525Y171347D02*
X101675D01*
X98525Y177253D02*
X101675D01*
X97613Y158578D02*
X99187D01*
X97613Y155822D02*
X99187D01*
X97613Y162622D02*
X99187D01*
X97613Y165378D02*
X99187D01*
X98013Y219578D02*
X99587D01*
X98013Y216822D02*
X99587D01*
X98113Y224022D02*
X99687D01*
X98113Y226778D02*
X99687D01*
X96813Y282022D02*
X98387D01*
X96813Y284778D02*
X98387D01*
X96813Y278178D02*
X98387D01*
X96813Y275422D02*
X98387D01*
X297122Y568213D02*
Y569787D01*
X299878Y568213D02*
Y569787D01*
X297622Y581713D02*
Y583287D01*
X300378Y581713D02*
Y583287D01*
X224260Y146378D02*
X225835D01*
X224260Y143622D02*
X225835D01*
X96813Y93278D02*
X98387D01*
X96813Y90522D02*
X98387D01*
X96765Y98022D02*
X98340D01*
X96765Y100778D02*
X98340D01*
X97525Y104947D02*
X100675D01*
X97525Y110853D02*
X100675D01*
X365000Y454500D02*
Y474500D01*
X445000Y454500D02*
Y474500D01*
X365000D02*
X445000D01*
X365000Y454500D02*
X445000D01*
X242000Y499500D02*
Y519500D01*
X322000Y499500D02*
Y519500D01*
X242000D02*
X322000D01*
X242000Y499500D02*
X322000D01*
X308000Y486000D02*
X348000D01*
X308000Y466000D02*
X348000D01*
Y486000D01*
X308000Y466000D02*
Y486000D01*
X304825Y111847D02*
X307975D01*
X304825Y117753D02*
X307975D01*
X299078Y182613D02*
Y184187D01*
X296322Y182613D02*
Y184187D01*
X290078Y182613D02*
Y184187D01*
X287322Y182613D02*
Y184187D01*
X314978Y182413D02*
Y183987D01*
X312222Y182413D02*
Y183987D01*
X251478Y183413D02*
Y184987D01*
X248722Y183413D02*
Y184987D01*
X255922Y183213D02*
Y184787D01*
X258678Y183213D02*
Y184787D01*
X263322Y183213D02*
Y184787D01*
X266078Y183213D02*
Y184787D01*
X270922Y182813D02*
Y184387D01*
X273678Y182813D02*
Y184387D01*
X224813Y136222D02*
X226387D01*
X224813Y138978D02*
X226387D01*
X225213Y126422D02*
X226787D01*
X225213Y129178D02*
X226787D01*
X224813Y108522D02*
X226387D01*
X224813Y111278D02*
X226387D01*
X225013Y100022D02*
X226587D01*
X225013Y102778D02*
X226587D01*
X225313Y117922D02*
X226887D01*
X225313Y120678D02*
X226887D01*
X281878Y182813D02*
Y184387D01*
X279122Y182813D02*
Y184387D01*
X310213Y76122D02*
X311787D01*
X310213Y78878D02*
X311787D01*
X310213Y81622D02*
X311787D01*
X310213Y84378D02*
X311787D01*
X43361Y461506D02*
X63439D01*
X43361Y449694D02*
X63439D01*
Y461506D01*
X43361Y449694D02*
Y461506D01*
X71761Y449494D02*
X91839D01*
X71761Y461306D02*
X91839D01*
X71761Y449494D02*
Y461306D01*
X91839Y449494D02*
Y461306D01*
X406000Y128000D02*
X498500D01*
X406000Y108000D02*
X498500D01*
X506000D01*
Y128000D01*
X498500D02*
X506000D01*
X406000Y108000D02*
Y128000D01*
X373500Y204000D02*
X383500D01*
Y174000D02*
Y204000D01*
X373500Y174000D02*
X383500D01*
X373500D02*
Y204000D01*
X390500Y173000D02*
X400500D01*
X390500D02*
Y213000D01*
X400500Y173000D02*
Y213000D01*
X390500D02*
X400500D01*
X303022Y182213D02*
Y183787D01*
X305778Y182213D02*
Y183787D01*
X338613Y110178D02*
X340187D01*
X338613Y107422D02*
X340187D01*
X338713Y115578D02*
X340287D01*
X338713Y112822D02*
X340287D01*
X167213Y213978D02*
X168787D01*
X167213Y211222D02*
X168787D01*
X167013Y203978D02*
X168587D01*
X167013Y201222D02*
X168587D01*
X393978Y80260D02*
Y81835D01*
X391222Y80260D02*
Y81835D01*
X372778Y81460D02*
Y83035D01*
X370022Y81460D02*
Y83035D01*
X158813Y572778D02*
X160387D01*
X158813Y570022D02*
X160387D01*
X140213Y572378D02*
X141787D01*
X140213Y569622D02*
X141787D01*
X140213Y555222D02*
X141787D01*
X140213Y557978D02*
X141787D01*
X139813Y547422D02*
X141387D01*
X139813Y550178D02*
X141387D01*
X158565Y555178D02*
X160140D01*
X158565Y552422D02*
X160140D01*
X158413Y543822D02*
X159987D01*
X158413Y546578D02*
X159987D01*
X366800Y63600D02*
Y73600D01*
X396800D01*
Y63600D02*
Y73600D01*
X366800Y63600D02*
X396800D01*
X278122Y580350D02*
X280878D01*
X278122Y586650D02*
X280878D01*
X278122Y563350D02*
X280878D01*
X278122Y569650D02*
X280878D01*
X248653Y571725D02*
Y574875D01*
X242747Y571725D02*
Y574875D01*
X75925Y66047D02*
X79075D01*
X75925Y71953D02*
X79075D01*
X184050Y344622D02*
Y347378D01*
X177750Y344622D02*
Y347378D01*
M02*
