G04 Layer_Color=32768*
%FSLAX25Y25*%
%MOIN*%
G70*
G01*
G75*
%ADD37C,0.05000*%
%ADD115C,0.00394*%
%ADD116C,0.00197*%
D37*
X735000Y-3000D02*
X753000D01*
Y14000D01*
X-3000Y653000D02*
X15000D01*
X-3000Y636000D02*
Y653000D01*
Y-3000D02*
X14000D01*
X-3000D02*
Y15000D01*
D115*
X333276Y350135D02*
Y354465D01*
X342724Y350135D02*
Y354465D01*
X333276Y350135D02*
X342724D01*
X333276Y354465D02*
X342724D01*
X336130Y352300D02*
X339870D01*
X338000Y350430D02*
Y354170D01*
X325630Y352500D02*
X329370D01*
X327500Y350630D02*
Y354370D01*
X329665Y347776D02*
Y357224D01*
X325335Y347776D02*
Y357224D01*
Y347776D02*
X329665D01*
X325335Y357224D02*
X329665D01*
X252724Y321335D02*
Y325665D01*
X243276Y321335D02*
Y325665D01*
X252724D01*
X243276Y321335D02*
X252724D01*
X246130Y323500D02*
X249870D01*
X248000Y321630D02*
Y325370D01*
X250500Y309130D02*
Y312870D01*
X248630Y311000D02*
X252370D01*
X245776Y313165D02*
X255225D01*
X245776Y308835D02*
X255225D01*
Y313165D01*
X245776Y308835D02*
Y313165D01*
X342224Y305335D02*
Y309665D01*
X332776Y305335D02*
Y309665D01*
X342224D01*
X332776Y305335D02*
X342224D01*
X335630Y307500D02*
X339370D01*
X337500Y305630D02*
Y309370D01*
X337500Y314630D02*
Y318370D01*
X335630Y316500D02*
X339370D01*
X332775Y314335D02*
X342224D01*
X332775Y318665D02*
X342224D01*
X332775Y314335D02*
Y318665D01*
X342224Y314335D02*
Y318665D01*
X341724Y337835D02*
Y342165D01*
X332276Y337835D02*
Y342165D01*
X341724D01*
X332276Y337835D02*
X341724D01*
X335130Y340000D02*
X338870D01*
X337000Y338130D02*
Y341870D01*
X252000Y281130D02*
Y284870D01*
X250130Y283000D02*
X253870D01*
X247276Y285165D02*
X256725D01*
X247276Y280835D02*
X256725D01*
Y285165D01*
X247276Y280835D02*
Y285165D01*
X463630Y293700D02*
X467370D01*
X465500Y291830D02*
Y295570D01*
X467665Y288976D02*
Y298424D01*
X463335Y288976D02*
Y298424D01*
Y288976D02*
X467665D01*
X463335Y298424D02*
X467665D01*
X413130Y388000D02*
X416870D01*
X415000Y386130D02*
Y389870D01*
X417165Y383276D02*
Y392724D01*
X412835Y383276D02*
Y392724D01*
Y383276D02*
X417165D01*
X412835Y392724D02*
X417165D01*
X457130Y291100D02*
X460870D01*
X459000Y289230D02*
Y292970D01*
X461165Y286376D02*
Y295824D01*
X456835Y286376D02*
Y295824D01*
Y286376D02*
X461165D01*
X456835Y295824D02*
X461165D01*
X459330Y317700D02*
X463070D01*
X461200Y315830D02*
Y319570D01*
X459035Y312976D02*
Y322424D01*
X463365Y312976D02*
Y322424D01*
X459035D02*
X463365D01*
X459035Y312976D02*
X463365D01*
X316630Y267744D02*
X320370D01*
X318500Y265874D02*
Y269614D01*
X320665Y263020D02*
Y272468D01*
X316335D02*
X320665D01*
X316335Y263020D02*
X320665D01*
X316335D02*
Y272468D01*
X81400Y312031D02*
Y315969D01*
X79431Y314000D02*
X83369D01*
X95180Y307110D02*
Y320890D01*
X67620D02*
X95180D01*
X67620Y307110D02*
X95180D01*
X67620D02*
Y320890D01*
X82200Y251431D02*
Y255369D01*
X80231Y253400D02*
X84169D01*
X95980Y246510D02*
Y260290D01*
X68420D02*
X95980D01*
X68420Y246510D02*
X95980D01*
X68420D02*
Y260290D01*
X84200Y192031D02*
Y195969D01*
X82231Y194000D02*
X86169D01*
X97980Y187110D02*
Y200890D01*
X70420D02*
X97980D01*
X70420Y187110D02*
X97980D01*
X70420D02*
Y200890D01*
X87100Y129932D02*
Y133869D01*
X85132Y131900D02*
X89069D01*
X100880Y125010D02*
Y138790D01*
X73320D02*
X100880D01*
X73320Y125010D02*
X100880D01*
X73320D02*
Y138790D01*
X465630Y317244D02*
X469370D01*
X467500Y315374D02*
Y319114D01*
X469665Y312520D02*
Y321968D01*
X465335D02*
X469665D01*
X465335Y312520D02*
X469665D01*
X465335D02*
Y321968D01*
X116032Y70300D02*
X119969D01*
X118000Y68331D02*
Y72269D01*
X125874Y66560D02*
Y74040D01*
X110126D02*
X125874D01*
X110126Y66560D02*
X125874D01*
X110126D02*
Y74040D01*
X277532Y566500D02*
X281469D01*
X279500Y564532D02*
Y568469D01*
X289736Y561972D02*
Y571028D01*
X269264D02*
X289736D01*
X269264Y561972D02*
X289736D01*
X269264D02*
Y571028D01*
X277532Y583500D02*
X281469D01*
X279500Y581532D02*
Y585469D01*
X289736Y578972D02*
Y588028D01*
X269264D02*
X289736D01*
X269264Y578972D02*
X289736D01*
X269264D02*
Y588028D01*
X243732Y573300D02*
X247669D01*
X245700Y571332D02*
Y575269D01*
X249440Y565426D02*
Y581174D01*
X241960D02*
X249440D01*
X241960Y565426D02*
X249440D01*
X241960D02*
Y581174D01*
X81800Y453432D02*
Y457369D01*
X79832Y455400D02*
X83769D01*
X53400Y453631D02*
Y457569D01*
X51431Y455600D02*
X55369D01*
X454835Y38276D02*
X459165D01*
X454835Y47724D02*
X459165D01*
Y38276D02*
Y47724D01*
X454835Y38276D02*
Y47724D01*
X457000Y41130D02*
Y44870D01*
X455130Y43000D02*
X458870D01*
X462835Y38276D02*
X467165D01*
X462835Y47724D02*
X467165D01*
Y38276D02*
Y47724D01*
X462835Y38276D02*
Y47724D01*
X465000Y41130D02*
Y44870D01*
X463130Y43000D02*
X466870D01*
X549724Y57135D02*
Y61465D01*
X540276Y57135D02*
Y61465D01*
X549724D01*
X540276Y57135D02*
X549724D01*
X543130Y59300D02*
X546870D01*
X545000Y57430D02*
Y61170D01*
X296835Y587224D02*
X301165D01*
X296835Y577776D02*
X301165D01*
Y587224D01*
X296835Y577776D02*
Y587224D01*
X299000Y580630D02*
Y584370D01*
X297130Y582500D02*
X300870D01*
X296335Y573724D02*
X300665D01*
X296335Y564276D02*
X300665D01*
Y573724D01*
X296335Y564276D02*
Y573724D01*
X298500Y567130D02*
Y570870D01*
X296630Y569000D02*
X300370D01*
X451835Y76724D02*
X456165D01*
X451835Y67276D02*
X456165D01*
X451835D02*
Y76724D01*
X456165Y67276D02*
Y76724D01*
X454000Y70130D02*
Y73870D01*
X452130Y72000D02*
X455870D01*
X595177Y192335D02*
Y196665D01*
X585728Y192335D02*
Y196665D01*
X595177D01*
X585728Y192335D02*
X595177D01*
X588583Y194500D02*
X592323D01*
X590453Y192630D02*
Y196370D01*
X103124Y155035D02*
Y159365D01*
X93676Y155035D02*
Y159365D01*
Y155035D02*
X103124D01*
X93676Y159365D02*
X103124D01*
X96530Y157200D02*
X100270D01*
X98400Y155330D02*
Y159070D01*
X93676Y161835D02*
Y166165D01*
X103124Y161835D02*
Y166165D01*
X93676D02*
X103124D01*
X93676Y161835D02*
X103124D01*
X96530Y164000D02*
X100270D01*
X98400Y162130D02*
Y165870D01*
X103524Y216035D02*
Y220365D01*
X94076Y216035D02*
Y220365D01*
Y216035D02*
X103524D01*
X94076Y220365D02*
X103524D01*
X96930Y218200D02*
X100670D01*
X98800Y216330D02*
Y220070D01*
X94176Y223235D02*
Y227565D01*
X103624Y223235D02*
Y227565D01*
X94176D02*
X103624D01*
X94176Y223235D02*
X103624D01*
X97030Y225400D02*
X100770D01*
X98900Y223530D02*
Y227270D01*
X102324Y274635D02*
Y278965D01*
X92876Y274635D02*
Y278965D01*
Y274635D02*
X102324D01*
X92876Y278965D02*
X102324D01*
X95730Y276800D02*
X99470D01*
X97600Y274930D02*
Y278670D01*
X92876Y281235D02*
Y285565D01*
X102324Y281235D02*
Y285565D01*
X92876D02*
X102324D01*
X92876Y281235D02*
X102324D01*
X95730Y283400D02*
X99470D01*
X97600Y281530D02*
Y285270D01*
X102324Y89735D02*
Y94065D01*
X92876Y89735D02*
Y94065D01*
Y89735D02*
X102324D01*
X92876Y94065D02*
X102324D01*
X95730Y91900D02*
X99470D01*
X97600Y90030D02*
Y93770D01*
X92828Y97235D02*
Y101565D01*
X102277Y97235D02*
Y101565D01*
X92828D02*
X102277D01*
X92828Y97235D02*
X102277D01*
X95683Y99400D02*
X99423D01*
X97553Y97530D02*
Y101270D01*
X448735Y229624D02*
X453065D01*
X448735Y220176D02*
X453065D01*
X448735D02*
Y229624D01*
X453065Y220176D02*
Y229624D01*
X450900Y223030D02*
Y226770D01*
X449030Y224900D02*
X452770D01*
X461635Y230624D02*
X465965D01*
X461635Y221176D02*
X465965D01*
X461635D02*
Y230624D01*
X465965Y221176D02*
Y230624D01*
X463800Y224030D02*
Y227770D01*
X461930Y225900D02*
X465670D01*
X263335Y55224D02*
X267665D01*
X263335Y45776D02*
X267665D01*
X263335D02*
Y55224D01*
X267665Y45776D02*
Y55224D01*
X265500Y48630D02*
Y52370D01*
X263630Y50500D02*
X267370D01*
X276335Y55224D02*
X280665D01*
X276335Y45776D02*
X280665D01*
X276335D02*
Y55224D01*
X280665Y45776D02*
Y55224D01*
X278500Y48630D02*
Y52370D01*
X276630Y50500D02*
X280370D01*
X317328Y83835D02*
Y88165D01*
X326777Y83835D02*
Y88165D01*
X317328D02*
X326777D01*
X317328Y83835D02*
X326777D01*
X320183Y86000D02*
X323923D01*
X322053Y84130D02*
Y87870D01*
X317328Y78335D02*
Y82665D01*
X326777Y78335D02*
Y82665D01*
X317328D02*
X326777D01*
X317328Y78335D02*
X326777D01*
X320183Y80500D02*
X323923D01*
X322053Y78630D02*
Y82370D01*
X287576Y117935D02*
Y122265D01*
X297024Y117935D02*
Y122265D01*
X287576Y117935D02*
X297024D01*
X287576Y122265D02*
X297024D01*
X290430Y120100D02*
X294170D01*
X292300Y118230D02*
Y121970D01*
X247935Y179476D02*
X252265D01*
X247935Y188924D02*
X252265D01*
X247935Y179476D02*
Y188924D01*
X252265Y179476D02*
Y188924D01*
X250100Y182330D02*
Y186070D01*
X248230Y184200D02*
X251970D01*
X255135Y188724D02*
X259465D01*
X255135Y179276D02*
X259465D01*
Y188724D01*
X255135Y179276D02*
Y188724D01*
X257300Y182130D02*
Y185870D01*
X255430Y184000D02*
X259170D01*
X262535Y188724D02*
X266865D01*
X262535Y179276D02*
X266865D01*
Y188724D01*
X262535Y179276D02*
Y188724D01*
X264700Y182130D02*
Y185870D01*
X262830Y184000D02*
X266570D01*
X270135Y188324D02*
X274465D01*
X270135Y178876D02*
X274465D01*
Y188324D01*
X270135Y178876D02*
Y188324D01*
X272300Y181730D02*
Y185470D01*
X270430Y183600D02*
X274170D01*
X164324Y569235D02*
Y573565D01*
X154876Y569235D02*
Y573565D01*
Y569235D02*
X164324D01*
X154876Y573565D02*
X164324D01*
X157730Y571400D02*
X161470D01*
X159600Y569530D02*
Y573270D01*
X164077Y551635D02*
Y555965D01*
X154628Y551635D02*
Y555965D01*
Y551635D02*
X164077D01*
X154628Y555965D02*
X164077D01*
X157483Y553800D02*
X161223D01*
X159353Y551930D02*
Y555670D01*
X135876Y546635D02*
Y550965D01*
X145324Y546635D02*
Y550965D01*
X135876D02*
X145324D01*
X135876Y546635D02*
X145324D01*
X138730Y548800D02*
X142470D01*
X140600Y546930D02*
Y550670D01*
X295535Y178676D02*
X299865D01*
X295535Y188124D02*
X299865D01*
X295535Y178676D02*
Y188124D01*
X299865Y178676D02*
Y188124D01*
X297700Y181530D02*
Y185270D01*
X295830Y183400D02*
X299570D01*
X344124Y105535D02*
Y109865D01*
X334676Y105535D02*
Y109865D01*
Y105535D02*
X344124D01*
X334676Y109865D02*
X344124D01*
X337530Y107700D02*
X341270D01*
X339400Y105830D02*
Y109570D01*
X344224Y112035D02*
Y116365D01*
X334776Y112035D02*
Y116365D01*
Y112035D02*
X344224D01*
X334776Y116365D02*
X344224D01*
X337630Y114200D02*
X341370D01*
X339500Y112330D02*
Y116070D01*
X278335Y178876D02*
X282665D01*
X278335Y188324D02*
X282665D01*
X278335Y178876D02*
Y188324D01*
X282665Y178876D02*
Y188324D01*
X280500Y181730D02*
Y185470D01*
X278630Y183600D02*
X282370D01*
X136276Y554435D02*
Y558765D01*
X145724Y554435D02*
Y558765D01*
X136276D02*
X145724D01*
X136276Y554435D02*
X145724D01*
X139130Y556600D02*
X142870D01*
X141000Y554730D02*
Y558470D01*
X154476Y543035D02*
Y547365D01*
X163924Y543035D02*
Y547365D01*
X154476D02*
X163924D01*
X154476Y543035D02*
X163924D01*
X157330Y545200D02*
X161070D01*
X159200Y543330D02*
Y547070D01*
X145724Y568835D02*
Y573165D01*
X136276Y568835D02*
Y573165D01*
Y568835D02*
X145724D01*
X136276Y573165D02*
X145724D01*
X139130Y571000D02*
X142870D01*
X141000Y569130D02*
Y572870D01*
X302235Y187724D02*
X306565D01*
X302235Y178276D02*
X306565D01*
Y187724D01*
X302235Y178276D02*
Y187724D01*
X304400Y181130D02*
Y184870D01*
X302530Y183000D02*
X306270D01*
X221076Y99235D02*
Y103565D01*
X230524Y99235D02*
Y103565D01*
X221076D02*
X230524D01*
X221076Y99235D02*
X230524D01*
X223930Y101400D02*
X227670D01*
X225800Y99530D02*
Y103270D01*
X221376Y117135D02*
Y121465D01*
X230824Y117135D02*
Y121465D01*
X221376D02*
X230824D01*
X221376Y117135D02*
X230824D01*
X224230Y119300D02*
X227970D01*
X226100Y117430D02*
Y121170D01*
X220876Y135435D02*
Y139765D01*
X230324Y135435D02*
Y139765D01*
X220876D02*
X230324D01*
X220876Y135435D02*
X230324D01*
X223730Y137600D02*
X227470D01*
X225600Y135730D02*
Y139470D01*
X221276Y125635D02*
Y129965D01*
X230724Y125635D02*
Y129965D01*
X221276D02*
X230724D01*
X221276Y125635D02*
X230724D01*
X224130Y127800D02*
X227870D01*
X226000Y125930D02*
Y129670D01*
X220876Y107735D02*
Y112065D01*
X230324Y107735D02*
Y112065D01*
X220876D02*
X230324D01*
X220876Y107735D02*
X230324D01*
X223730Y109900D02*
X227470D01*
X225600Y108030D02*
Y111770D01*
X172524Y200435D02*
Y204765D01*
X163076Y200435D02*
Y204765D01*
Y200435D02*
X172524D01*
X163076Y204765D02*
X172524D01*
X165930Y202600D02*
X169670D01*
X167800Y200730D02*
Y204470D01*
X172724Y210435D02*
Y214765D01*
X163276Y210435D02*
Y214765D01*
Y210435D02*
X172724D01*
X163276Y214765D02*
X172724D01*
X166130Y212600D02*
X169870D01*
X168000Y210730D02*
Y214470D01*
X84535Y574824D02*
X88865D01*
X84535Y565376D02*
X88865D01*
X84535D02*
Y574824D01*
X88865Y565376D02*
Y574824D01*
X86700Y568230D02*
Y571970D01*
X84830Y570100D02*
X88570D01*
X408835Y130876D02*
X413165D01*
X408835Y140324D02*
X413165D01*
Y130876D02*
Y140324D01*
X408835Y130876D02*
Y140324D01*
X411000Y133730D02*
Y137470D01*
X409130Y135600D02*
X412870D01*
X419035Y130876D02*
X423365D01*
X419035Y140324D02*
X423365D01*
Y130876D02*
Y140324D01*
X419035Y130876D02*
Y140324D01*
X421200Y133730D02*
Y137470D01*
X419330Y135600D02*
X423070D01*
X488835Y129676D02*
X493165D01*
X488835Y139124D02*
X493165D01*
Y129676D02*
Y139124D01*
X488835Y129676D02*
Y139124D01*
X491000Y132530D02*
Y136270D01*
X489130Y134400D02*
X492870D01*
X478635Y129476D02*
X482965D01*
X478635Y138924D02*
X482965D01*
Y129476D02*
Y138924D01*
X478635Y129476D02*
Y138924D01*
X480800Y132330D02*
Y136070D01*
X478930Y134200D02*
X482670D01*
X469235Y129076D02*
X473565D01*
X469235Y138524D02*
X473565D01*
Y129076D02*
Y138524D01*
X469235Y129076D02*
Y138524D01*
X471400Y131930D02*
Y135670D01*
X469530Y133800D02*
X473270D01*
X459235Y129476D02*
X463565D01*
X459235Y138924D02*
X463565D01*
Y129476D02*
Y138924D01*
X459235Y129476D02*
Y138924D01*
X461400Y132330D02*
Y136070D01*
X459530Y134200D02*
X463270D01*
X449035Y129276D02*
X453365D01*
X449035Y138724D02*
X453365D01*
Y129276D02*
Y138724D01*
X449035Y129276D02*
Y138724D01*
X451200Y132130D02*
Y135870D01*
X449330Y134000D02*
X453070D01*
X438835Y129476D02*
X443165D01*
X438835Y138924D02*
X443165D01*
Y129476D02*
Y138924D01*
X438835Y129476D02*
Y138924D01*
X441000Y132330D02*
Y136070D01*
X439130Y134200D02*
X442870D01*
X510435Y53676D02*
X514765D01*
X510435Y63124D02*
X514765D01*
Y53676D02*
Y63124D01*
X510435Y53676D02*
Y63124D01*
X512600Y56530D02*
Y60270D01*
X510730Y58400D02*
X514470D01*
X510635Y65276D02*
X514965D01*
X510635Y74724D02*
X514965D01*
Y65276D02*
Y74724D01*
X510635Y65276D02*
Y74724D01*
X512800Y68130D02*
Y71870D01*
X510930Y70000D02*
X514670D01*
X284824Y289335D02*
Y293665D01*
X275376Y289335D02*
Y293665D01*
X284824D01*
X275376Y289335D02*
X284824D01*
X278230Y291500D02*
X281970D01*
X280100Y289630D02*
Y293370D01*
X188276Y320735D02*
Y325065D01*
X197724Y320735D02*
Y325065D01*
X188276Y320735D02*
X197724D01*
X188276Y325065D02*
X197724D01*
X191130Y322900D02*
X194870D01*
X193000Y321030D02*
Y324770D01*
X453500Y54531D02*
Y58469D01*
X451532Y56500D02*
X455469D01*
X144736Y276972D02*
Y286028D01*
X124264Y276972D02*
Y286028D01*
Y276972D02*
X144736D01*
X124264Y286028D02*
X144736D01*
X132531Y281500D02*
X136469D01*
X134500Y279531D02*
Y283469D01*
X299335Y139520D02*
X303665D01*
X299335Y148969D02*
X303665D01*
Y139520D02*
Y148969D01*
X299335Y139520D02*
Y148969D01*
X301500Y142374D02*
Y146114D01*
X299630Y144244D02*
X303370D01*
X305335Y139520D02*
X309665D01*
X305335Y148969D02*
X309665D01*
Y139520D02*
Y148969D01*
X305335Y139520D02*
Y148969D01*
X307500Y142374D02*
Y146114D01*
X305630Y144244D02*
X309370D01*
X255776Y174035D02*
Y178365D01*
X265224Y174035D02*
Y178365D01*
X255776Y174035D02*
X265224D01*
X255776Y178365D02*
X265224D01*
X258630Y176200D02*
X262370D01*
X260500Y174330D02*
Y178070D01*
X278724Y128835D02*
Y133165D01*
X269276Y128835D02*
Y133165D01*
X278724D01*
X269276Y128835D02*
X278724D01*
X272130Y131000D02*
X275870D01*
X274000Y129130D02*
Y132870D01*
X278724Y134335D02*
Y138665D01*
X269276Y134335D02*
Y138665D01*
X278724D01*
X269276Y134335D02*
X278724D01*
X272130Y136500D02*
X275870D01*
X274000Y134630D02*
Y138370D01*
X255776Y167835D02*
Y172165D01*
X265224Y167835D02*
Y172165D01*
X255776Y167835D02*
X265224D01*
X255776Y172165D02*
X265224D01*
X258630Y170000D02*
X262370D01*
X260500Y168130D02*
Y171870D01*
X255776Y161335D02*
Y165665D01*
X265224Y161335D02*
Y165665D01*
X255776Y161335D02*
X265224D01*
X255776Y165665D02*
X265224D01*
X258630Y163500D02*
X262370D01*
X260500Y161630D02*
Y165370D01*
X326777Y65835D02*
Y70165D01*
X317328Y65835D02*
Y70165D01*
Y65835D02*
X326777D01*
X317328Y70165D02*
X326777D01*
X320183Y68000D02*
X323923D01*
X322053Y66130D02*
Y69870D01*
X265224Y85835D02*
Y90165D01*
X255776Y85835D02*
Y90165D01*
X265224D01*
X255776Y85835D02*
X265224D01*
X258630Y88000D02*
X262370D01*
X260500Y86130D02*
Y89870D01*
X629335Y180776D02*
X633665D01*
X629335Y190224D02*
X633665D01*
Y180776D02*
Y190224D01*
X629335Y180776D02*
Y190224D01*
X631500Y183630D02*
Y187370D01*
X629630Y185500D02*
X633370D01*
X628335Y467724D02*
X632665D01*
X628335Y458276D02*
X632665D01*
X628335D02*
Y467724D01*
X632665Y458276D02*
Y467724D01*
X630500Y461130D02*
Y464870D01*
X628630Y463000D02*
X632370D01*
X269835Y45776D02*
X274165D01*
X269835Y55224D02*
X274165D01*
Y45776D02*
Y55224D01*
X269835Y45776D02*
Y55224D01*
X272000Y48630D02*
Y52370D01*
X270130Y50500D02*
X273870D01*
X326777Y72835D02*
Y77165D01*
X317328Y72835D02*
Y77165D01*
Y72835D02*
X326777D01*
X317328Y77165D02*
X326777D01*
X320183Y75000D02*
X323923D01*
X322053Y73130D02*
Y76870D01*
X89024Y423435D02*
Y427765D01*
X79576Y423435D02*
Y427765D01*
Y423435D02*
X89024D01*
X79576Y427765D02*
X89024D01*
X82430Y425600D02*
X86170D01*
X84300Y423730D02*
Y427470D01*
X100100Y172331D02*
Y176269D01*
X98132Y174300D02*
X102069D01*
X92226Y178040D02*
X107974D01*
X92226Y170560D02*
X107974D01*
X92226D02*
Y178040D01*
X107974Y170560D02*
Y178040D01*
X640335Y180776D02*
X644665D01*
X640335Y190224D02*
X644665D01*
Y180776D02*
Y190224D01*
X640335Y180776D02*
Y190224D01*
X642500Y183630D02*
Y187370D01*
X640630Y185500D02*
X644370D01*
X99900Y233431D02*
Y237369D01*
X97932Y235400D02*
X101869D01*
X92026Y239140D02*
X107774D01*
X92026Y231660D02*
X107774D01*
X92026D02*
Y239140D01*
X107774Y231660D02*
Y239140D01*
X638335Y467724D02*
X642665D01*
X638335Y458276D02*
X642665D01*
X638335D02*
Y467724D01*
X642665Y458276D02*
Y467724D01*
X640500Y461130D02*
Y464870D01*
X638630Y463000D02*
X642370D01*
X98500Y291531D02*
Y295469D01*
X96532Y293500D02*
X100469D01*
X90626Y297240D02*
X106374D01*
X90626Y289760D02*
X106374D01*
X90626D02*
Y297240D01*
X106374Y289760D02*
Y297240D01*
X99100Y105931D02*
Y109869D01*
X97132Y107900D02*
X101069D01*
X91226Y111640D02*
X106974D01*
X91226Y104160D02*
X106974D01*
X91226D02*
Y111640D01*
X106974Y104160D02*
Y111640D01*
X280235Y124476D02*
X284565D01*
X280235Y133924D02*
X284565D01*
Y124476D02*
Y133924D01*
X280235Y124476D02*
Y133924D01*
X282400Y127330D02*
Y131070D01*
X280530Y129200D02*
X284270D01*
X280235Y145324D02*
X284565D01*
X280235Y135876D02*
X284565D01*
X280235D02*
Y145324D01*
X284565Y135876D02*
Y145324D01*
X282400Y138730D02*
Y142470D01*
X280530Y140600D02*
X284270D01*
X154676Y560835D02*
Y565165D01*
X164124Y560835D02*
Y565165D01*
X154676D02*
X164124D01*
X154676Y560835D02*
X164124D01*
X157530Y563000D02*
X161270D01*
X159400Y561130D02*
Y564870D01*
X145724Y560835D02*
Y565165D01*
X136276Y560835D02*
Y565165D01*
Y560835D02*
X145724D01*
X136276Y565165D02*
X145724D01*
X139130Y563000D02*
X142870D01*
X141000Y561130D02*
Y564870D01*
X343735Y141876D02*
X348065D01*
X343735Y151324D02*
X348065D01*
Y141876D02*
Y151324D01*
X343735Y141876D02*
Y151324D01*
X345900Y144730D02*
Y148470D01*
X344030Y146600D02*
X347770D01*
X344035Y163124D02*
X348365D01*
X344035Y153676D02*
X348365D01*
X344035D02*
Y163124D01*
X348365Y153676D02*
Y163124D01*
X346200Y156530D02*
Y160270D01*
X344330Y158400D02*
X348070D01*
X437935Y218076D02*
X442265D01*
X437935Y227524D02*
X442265D01*
Y218076D02*
Y227524D01*
X437935Y218076D02*
Y227524D01*
X440100Y220930D02*
Y224670D01*
X438230Y222800D02*
X441970D01*
X65335Y467176D02*
X69665D01*
X65335Y476624D02*
X69665D01*
Y467176D02*
Y476624D01*
X65335Y467176D02*
Y476624D01*
X67500Y470030D02*
Y473770D01*
X65630Y471900D02*
X69370D01*
X64776Y405335D02*
Y409665D01*
X74224Y405335D02*
Y409665D01*
X64776Y405335D02*
X74224D01*
X64776Y409665D02*
X74224D01*
X67630Y407500D02*
X71370D01*
X69500Y405630D02*
Y409370D01*
X111335Y401776D02*
X115665D01*
X111335Y411224D02*
X115665D01*
Y401776D02*
Y411224D01*
X111335Y401776D02*
Y411224D01*
X113500Y404630D02*
Y408370D01*
X111630Y406500D02*
X115370D01*
X117835Y401776D02*
X122165D01*
X117835Y411224D02*
X122165D01*
Y401776D02*
Y411224D01*
X117835Y401776D02*
Y411224D01*
X120000Y404630D02*
Y408370D01*
X118130Y406500D02*
X121870D01*
X123835Y401276D02*
X128165D01*
X123835Y410724D02*
X128165D01*
Y401276D02*
Y410724D01*
X123835Y401276D02*
Y410724D01*
X126000Y404130D02*
Y407870D01*
X124130Y406000D02*
X127870D01*
X130835Y401276D02*
X135165D01*
X130835Y410724D02*
X135165D01*
Y401276D02*
Y410724D01*
X130835Y401276D02*
Y410724D01*
X133000Y404130D02*
Y407870D01*
X131130Y406000D02*
X134870D01*
X139335Y401276D02*
X143665D01*
X139335Y410724D02*
X143665D01*
Y401276D02*
Y410724D01*
X139335Y401276D02*
Y410724D01*
X141500Y404130D02*
Y407870D01*
X139630Y406000D02*
X143370D01*
X154935Y462624D02*
X159265D01*
X154935Y453176D02*
X159265D01*
X154935D02*
Y462624D01*
X159265Y453176D02*
Y462624D01*
X157100Y456030D02*
Y459770D01*
X155230Y457900D02*
X158970D01*
X109224Y405335D02*
Y409665D01*
X99776Y405335D02*
Y409665D01*
X109224D01*
X99776Y405335D02*
X109224D01*
X102630Y407500D02*
X106370D01*
X104500Y405630D02*
Y409370D01*
X148635Y462624D02*
X152965D01*
X148635Y453176D02*
X152965D01*
X148635D02*
Y462624D01*
X152965Y453176D02*
Y462624D01*
X150800Y456030D02*
Y459770D01*
X148930Y457900D02*
X152670D01*
X98724Y407335D02*
Y411665D01*
X89276Y407335D02*
Y411665D01*
X98724D01*
X89276Y407335D02*
X98724D01*
X92130Y409500D02*
X95870D01*
X94000Y407630D02*
Y411370D01*
X87224Y407835D02*
Y412165D01*
X77776Y407835D02*
Y412165D01*
X87224D01*
X77776Y407835D02*
X87224D01*
X80630Y410000D02*
X84370D01*
X82500Y408130D02*
Y411870D01*
X286035Y292924D02*
X290365D01*
X286035Y283476D02*
X290365D01*
X286035D02*
Y292924D01*
X290365Y283476D02*
Y292924D01*
X288200Y286330D02*
Y290070D01*
X286330Y288200D02*
X290070D01*
X206435Y305424D02*
X210765D01*
X206435Y295976D02*
X210765D01*
Y305424D01*
X206435Y295976D02*
Y305424D01*
X208600Y298830D02*
Y302570D01*
X206730Y300700D02*
X210470D01*
X275476Y282635D02*
Y286965D01*
X284924Y282635D02*
Y286965D01*
X275476Y282635D02*
X284924D01*
X275476Y286965D02*
X284924D01*
X278330Y284800D02*
X282070D01*
X280200Y282930D02*
Y286670D01*
X206435Y285676D02*
X210765D01*
X206435Y295124D02*
X210765D01*
X206435Y285676D02*
Y295124D01*
X210765Y285676D02*
Y295124D01*
X208600Y288530D02*
Y292270D01*
X206730Y290400D02*
X210470D01*
X182935Y300724D02*
X187265D01*
X182935Y291276D02*
X187265D01*
Y300724D01*
X182935Y291276D02*
Y300724D01*
X185100Y294130D02*
Y297870D01*
X183230Y296000D02*
X186970D01*
X406076Y526135D02*
Y530465D01*
X415524Y526135D02*
Y530465D01*
X406076D02*
X415524D01*
X406076Y526135D02*
X415524D01*
X408930Y528300D02*
X412670D01*
X410800Y526430D02*
Y530170D01*
X201324Y278935D02*
Y283265D01*
X191876Y278935D02*
Y283265D01*
Y278935D02*
X201324D01*
X191876Y283265D02*
X201324D01*
X194730Y281100D02*
X198470D01*
X196600Y279230D02*
Y282970D01*
X154435Y522824D02*
X158765D01*
X154435Y513376D02*
X158765D01*
X154435D02*
Y522824D01*
X158765Y513376D02*
Y522824D01*
X156600Y516230D02*
Y519970D01*
X154730Y518100D02*
X158470D01*
X463635Y353876D02*
X467965D01*
X463635Y363324D02*
X467965D01*
Y353876D02*
Y363324D01*
X463635Y353876D02*
Y363324D01*
X465800Y356730D02*
Y360470D01*
X463930Y358600D02*
X467670D01*
X96835Y463124D02*
X101165D01*
X96835Y453676D02*
X101165D01*
Y463124D01*
X96835Y453676D02*
Y463124D01*
X99000Y456530D02*
Y460270D01*
X97130Y458400D02*
X100870D01*
X257335Y273224D02*
X261665D01*
X257335Y263776D02*
X261665D01*
X257335D02*
Y273224D01*
X261665Y263776D02*
Y273224D01*
X259500Y266630D02*
Y270370D01*
X257630Y268500D02*
X261370D01*
X488535Y565120D02*
X492865D01*
X488535Y574568D02*
X492865D01*
Y565120D02*
Y574568D01*
X488535Y565120D02*
Y574568D01*
X490700Y567974D02*
Y571714D01*
X488830Y569844D02*
X492570D01*
X330876Y283935D02*
Y288265D01*
X340324Y283935D02*
Y288265D01*
X330876Y283935D02*
X340324D01*
X330876Y288265D02*
X340324D01*
X333730Y286100D02*
X337470D01*
X335600Y284230D02*
Y287970D01*
X34035Y451576D02*
X38365D01*
X34035Y461024D02*
X38365D01*
X34035Y451576D02*
Y461024D01*
X38365Y451576D02*
Y461024D01*
X36200Y454430D02*
Y458170D01*
X34330Y456300D02*
X38070D01*
X278835Y347776D02*
X283165D01*
X278835Y357224D02*
X283165D01*
Y347776D02*
Y357224D01*
X278835Y347776D02*
Y357224D01*
X281000Y350630D02*
Y354370D01*
X279130Y352500D02*
X282870D01*
X329424Y387735D02*
Y392065D01*
X319976Y387735D02*
Y392065D01*
X329424D01*
X319976Y387735D02*
X329424D01*
X322830Y389900D02*
X326570D01*
X324700Y388030D02*
Y391770D01*
X191676Y179835D02*
Y184165D01*
X201124Y179835D02*
Y184165D01*
X191676Y179835D02*
X201124D01*
X191676Y184165D02*
X201124D01*
X194530Y182000D02*
X198270D01*
X196400Y180130D02*
Y183870D01*
X199876Y555035D02*
Y559365D01*
X209324Y555035D02*
Y559365D01*
X199876Y555035D02*
X209324D01*
X199876Y559365D02*
X209324D01*
X202730Y557200D02*
X206470D01*
X204600Y555330D02*
Y559070D01*
X119935Y32824D02*
X124265D01*
X119935Y23376D02*
X124265D01*
Y32824D01*
X119935Y23376D02*
Y32824D01*
X122100Y26230D02*
Y29970D01*
X120230Y28100D02*
X123970D01*
X46935Y298124D02*
X51265D01*
X46935Y288676D02*
X51265D01*
Y298124D01*
X46935Y288676D02*
Y298124D01*
X49100Y291530D02*
Y295270D01*
X47230Y293400D02*
X50970D01*
X42635Y222076D02*
X46965D01*
X42635Y231524D02*
X46965D01*
X42635Y222076D02*
Y231524D01*
X46965Y222076D02*
Y231524D01*
X44800Y224930D02*
Y228670D01*
X42930Y226800D02*
X46670D01*
X335600Y289830D02*
Y293570D01*
X333730Y291700D02*
X337470D01*
X330875Y289535D02*
X340324D01*
X330875Y293865D02*
X340324D01*
X330875Y289535D02*
Y293865D01*
X340324Y289535D02*
Y293865D01*
X268200Y445730D02*
Y449470D01*
X266330Y447600D02*
X270070D01*
X263475Y445435D02*
X272924D01*
X263475Y449765D02*
X272924D01*
X263475Y445435D02*
Y449765D01*
X272924Y445435D02*
Y449765D01*
X225047Y143130D02*
Y146870D01*
X223177Y145000D02*
X226917D01*
X220323Y147165D02*
X229772D01*
X220323Y142835D02*
X229772D01*
X220323D02*
Y147165D01*
X229772Y142835D02*
Y147165D01*
X591100Y435430D02*
Y439170D01*
X589230Y437300D02*
X592970D01*
X586376Y435135D02*
X595824D01*
X586376Y439465D02*
X595824D01*
X586376Y435135D02*
Y439465D01*
X595824Y435135D02*
Y439465D01*
X306400Y112832D02*
Y116769D01*
X304432Y114800D02*
X308369D01*
X298526Y111060D02*
X314274D01*
X298526Y118540D02*
X314274D01*
Y111060D02*
Y118540D01*
X298526Y111060D02*
Y118540D01*
X304556Y120730D02*
Y124470D01*
X302686Y122600D02*
X306426D01*
X299832Y120435D02*
X309280D01*
X299832Y124765D02*
X309280D01*
Y120435D02*
Y124765D01*
X299832Y120435D02*
Y124765D01*
X286830Y183400D02*
X290570D01*
X288700Y181530D02*
Y185270D01*
X290865Y178676D02*
Y188124D01*
X286535Y178676D02*
Y188124D01*
X290865D01*
X286535Y178676D02*
X290865D01*
X311730Y183200D02*
X315470D01*
X313600Y181330D02*
Y185070D01*
X315765Y178476D02*
Y187924D01*
X311435Y178476D02*
Y187924D01*
X315765D01*
X311435Y178476D02*
X315765D01*
X390730Y81047D02*
X394470D01*
X392600Y79177D02*
Y82917D01*
X394765Y76323D02*
Y85772D01*
X390435Y76323D02*
Y85772D01*
X394765D01*
X390435Y76323D02*
X394765D01*
X369530Y82247D02*
X373270D01*
X371400Y80377D02*
Y84117D01*
X373565Y77523D02*
Y86972D01*
X369235Y77523D02*
Y86972D01*
X373565D01*
X369235Y77523D02*
X373565D01*
X411700Y609330D02*
Y613070D01*
X409830Y611200D02*
X413570D01*
X406976Y613365D02*
X416424D01*
X406976Y609035D02*
X416424D01*
X406976D02*
Y613365D01*
X416424Y609035D02*
Y613365D01*
X256630Y351500D02*
X260370D01*
X258500Y349630D02*
Y353370D01*
X260665Y346776D02*
Y356224D01*
X256335Y346776D02*
Y356224D01*
Y346776D02*
X260665D01*
X256335Y356224D02*
X260665D01*
X249000Y345630D02*
Y349370D01*
X247130Y347500D02*
X250870D01*
X244276Y349665D02*
X253725D01*
X244276Y345335D02*
X253725D01*
Y349665D01*
X244276Y345335D02*
Y349665D01*
X288130Y352500D02*
X291870D01*
X290000Y350630D02*
Y354370D01*
X292165Y347776D02*
Y357224D01*
X287835Y347776D02*
Y357224D01*
Y347776D02*
X292165D01*
X287835Y357224D02*
X292165D01*
X335500Y269630D02*
Y273370D01*
X333630Y271500D02*
X337370D01*
X330776Y269335D02*
X340224D01*
X330776Y273665D02*
X340224D01*
X330776Y269335D02*
Y273665D01*
X340224Y269335D02*
Y273665D01*
X247130Y268500D02*
X250870D01*
X249000Y266630D02*
Y270370D01*
X246835Y263776D02*
Y273225D01*
X251165Y263776D02*
Y273225D01*
X246835D02*
X251165D01*
X246835Y263776D02*
X251165D01*
X390330Y387944D02*
X394070D01*
X392200Y386074D02*
Y389814D01*
X394365Y383220D02*
Y392668D01*
X390035Y383220D02*
Y392668D01*
Y383220D02*
X394365D01*
X390035Y392668D02*
X394365D01*
X431030Y222800D02*
X434770D01*
X432900Y220930D02*
Y224670D01*
X435065Y218076D02*
Y227524D01*
X430735Y218076D02*
Y227524D01*
Y218076D02*
X435065D01*
X430735Y227524D02*
X435065D01*
X213630Y296000D02*
X217370D01*
X215500Y294130D02*
Y297870D01*
X217665Y291276D02*
Y300725D01*
X213335Y291276D02*
Y300725D01*
X217665D01*
X213335Y291276D02*
X217665D01*
X270030Y288000D02*
X273770D01*
X271900Y286130D02*
Y289870D01*
X269735Y283276D02*
Y292725D01*
X274065Y283276D02*
Y292725D01*
X269735D02*
X274065D01*
X269735Y283276D02*
X274065D01*
X199830Y327056D02*
X203570D01*
X201700Y325186D02*
Y328926D01*
X199535Y322332D02*
Y331780D01*
X203865Y322332D02*
Y331780D01*
X199535D02*
X203865D01*
X199535Y322332D02*
X203865D01*
X183030Y326700D02*
X186770D01*
X184900Y324830D02*
Y328570D01*
X182735Y321976D02*
Y331425D01*
X187065Y321976D02*
Y331425D01*
X182735D02*
X187065D01*
X182735Y321976D02*
X187065D01*
X193567Y327830D02*
Y331570D01*
X191697Y329700D02*
X195437D01*
X188843Y327535D02*
X198292D01*
X188843Y331865D02*
X198292D01*
X188843Y327535D02*
Y331865D01*
X198292Y327535D02*
Y331865D01*
X178931Y346000D02*
X182868D01*
X180900Y344032D02*
Y347969D01*
X185428Y335764D02*
Y356236D01*
X176372Y335764D02*
Y356236D01*
X185428D01*
X176372Y335764D02*
X185428D01*
X530830Y56000D02*
X534570D01*
X532700Y54130D02*
Y57870D01*
X530535Y51276D02*
Y60725D01*
X534865Y51276D02*
Y60725D01*
X530535D02*
X534865D01*
X530535Y51276D02*
X534865D01*
X289800Y444430D02*
Y448170D01*
X287930Y446300D02*
X291670D01*
X285076Y444135D02*
X294524D01*
X285076Y448465D02*
X294524D01*
X285076Y444135D02*
Y448465D01*
X294524Y444135D02*
Y448465D01*
X290200Y390030D02*
Y393770D01*
X288330Y391900D02*
X292070D01*
X285476Y389735D02*
X294924D01*
X285476Y394065D02*
X294924D01*
X285476Y389735D02*
Y394065D01*
X294924Y389735D02*
Y394065D01*
X274000Y389730D02*
Y393470D01*
X272130Y391600D02*
X275870D01*
X269276Y393765D02*
X278724D01*
X269276Y389435D02*
X278724D01*
Y393765D01*
X269276Y389435D02*
Y393765D01*
X352200Y388730D02*
Y392470D01*
X350330Y390600D02*
X354070D01*
X347476Y388435D02*
X356924D01*
X347476Y392765D02*
X356924D01*
X347476Y388435D02*
Y392765D01*
X356924Y388435D02*
Y392765D01*
X329500Y445030D02*
Y448770D01*
X327630Y446900D02*
X331370D01*
X324776Y444735D02*
X334224D01*
X324776Y449065D02*
X334224D01*
X324776Y444735D02*
Y449065D01*
X334224Y444735D02*
Y449065D01*
X351756Y440430D02*
Y444170D01*
X349886Y442300D02*
X353626D01*
X347031Y440135D02*
X356480D01*
X347031Y444465D02*
X356480D01*
X347031Y440135D02*
Y444465D01*
X356480Y440135D02*
Y444465D01*
X389100Y440030D02*
Y443770D01*
X387230Y441900D02*
X390970D01*
X384376Y439735D02*
X393824D01*
X384376Y444065D02*
X393824D01*
X384376Y439735D02*
Y444065D01*
X393824Y439735D02*
Y444065D01*
X417000Y439630D02*
Y443370D01*
X415130Y441500D02*
X418870D01*
X412276Y443665D02*
X421724D01*
X412276Y439335D02*
X421724D01*
Y443665D01*
X412276Y439335D02*
Y443665D01*
X529100Y451330D02*
Y455070D01*
X527230Y453200D02*
X530970D01*
X524376Y455365D02*
X533824D01*
X524376Y451035D02*
X533824D01*
X524376D02*
Y455365D01*
X533824Y451035D02*
Y455365D01*
X555724Y451835D02*
Y456165D01*
X546276Y451835D02*
Y456165D01*
Y451835D02*
X555724D01*
X546276Y456165D02*
X555724D01*
X549130Y454000D02*
X552870D01*
X551000Y452130D02*
Y455870D01*
X556300Y499030D02*
Y502770D01*
X554430Y500900D02*
X558170D01*
X551576Y498735D02*
X561024D01*
X551576Y503065D02*
X561024D01*
Y498735D02*
Y503065D01*
X551576Y498735D02*
Y503065D01*
X534400Y499330D02*
Y503070D01*
X532530Y501200D02*
X536270D01*
X529676Y499035D02*
X539125D01*
X529676Y503365D02*
X539125D01*
Y499035D02*
Y503365D01*
X529676Y499035D02*
Y503365D01*
X491800Y375430D02*
Y379170D01*
X489930Y377300D02*
X493670D01*
X487076Y375135D02*
X496524D01*
X487076Y379465D02*
X496524D01*
Y375135D02*
Y379465D01*
X487076Y375135D02*
Y379465D01*
X456630Y377600D02*
X460370D01*
X458500Y375730D02*
Y379470D01*
X456335Y372876D02*
Y382324D01*
X460665Y372876D02*
Y382324D01*
X456335D02*
X460665D01*
X456335Y372876D02*
X460665D01*
X458730Y358544D02*
X462470D01*
X460600Y356674D02*
Y360414D01*
X458435Y353820D02*
Y363268D01*
X462765Y353820D02*
Y363268D01*
X458435D02*
X462765D01*
X458435Y353820D02*
X462765D01*
X281130Y268000D02*
X284870D01*
X283000Y266130D02*
Y269870D01*
X280835Y263276D02*
Y272724D01*
X285165Y263276D02*
Y272724D01*
X280835D02*
X285165D01*
X280835Y263276D02*
X285165D01*
D116*
X69792Y438077D02*
X93808D01*
X69792Y472723D02*
X93808D01*
X69792Y438077D02*
Y472723D01*
X93808Y438077D02*
Y472723D01*
X41392Y472923D02*
X65408D01*
X41392Y438277D02*
X65408D01*
Y472923D01*
X41392Y438277D02*
Y472923D01*
X447358Y50398D02*
X459642D01*
X447358Y62602D02*
X459642D01*
Y50398D02*
Y62602D01*
X447358Y50398D02*
Y62602D01*
M02*
