G04 Layer_Physical_Order=2*
G04 Layer_Color=16711680*
%FSLAX25Y25*%
%MOIN*%
G70*
G01*
G75*
%ADD10R,0.02756X0.03543*%
%ADD11R,0.03543X0.03150*%
%ADD12R,0.03543X0.02756*%
%ADD20R,0.03150X0.03543*%
%ADD26C,0.01000*%
%ADD30C,0.03300*%
%ADD31O,0.13780X0.03937*%
%ADD32O,0.03937X0.13780*%
%ADD33O,0.15748X0.04921*%
%ADD34C,0.12500*%
%ADD35R,0.06200X0.06200*%
%ADD36C,0.05000*%
%ADD37C,0.03937*%
%ADD38C,0.06299*%
%ADD39C,0.06000*%
%ADD40C,0.15000*%
%ADD41R,0.06000X0.06000*%
%ADD42C,0.08000*%
%ADD43C,0.06299*%
%ADD44R,0.06000X0.06000*%
%ADD45C,0.04500*%
%ADD46R,0.05000X0.05000*%
%ADD47R,0.05906X0.05906*%
%ADD48C,0.05906*%
%ADD49C,0.09200*%
%ADD50C,0.07000*%
%ADD51R,0.06200X0.06200*%
%ADD52C,0.06200*%
%ADD53C,0.03000*%
%ADD54R,0.02165X0.02953*%
D10*
X656953Y223000D02*
D03*
X651047D02*
D03*
X276047Y319500D02*
D03*
X281953D02*
D03*
X287453Y288000D02*
D03*
X281547D02*
D03*
X407453D02*
D03*
X401547D02*
D03*
X466453D02*
D03*
X460547D02*
D03*
X483453D02*
D03*
X477547D02*
D03*
X500453D02*
D03*
X494547D02*
D03*
D11*
X455500Y619012D02*
D03*
Y613500D02*
D03*
X314500Y355988D02*
D03*
Y361500D02*
D03*
X262000Y395744D02*
D03*
Y401256D02*
D03*
X328500Y154500D02*
D03*
Y160012D02*
D03*
X355500Y395744D02*
D03*
Y401256D02*
D03*
X478000Y256744D02*
D03*
Y262256D02*
D03*
X500000Y256744D02*
D03*
Y262256D02*
D03*
X522000Y256744D02*
D03*
Y262256D02*
D03*
X544000Y256744D02*
D03*
Y262256D02*
D03*
X602000Y236744D02*
D03*
Y242256D02*
D03*
X626000Y267488D02*
D03*
Y273000D02*
D03*
X319500Y226500D02*
D03*
Y232012D02*
D03*
X342500Y226500D02*
D03*
Y232012D02*
D03*
X365500Y226744D02*
D03*
Y232256D02*
D03*
X269000Y627000D02*
D03*
Y632512D02*
D03*
X286000Y446256D02*
D03*
Y440744D02*
D03*
X254500Y445256D02*
D03*
Y439744D02*
D03*
X245000Y356744D02*
D03*
Y362256D02*
D03*
X294000Y381500D02*
D03*
Y387012D02*
D03*
X317000Y381500D02*
D03*
Y387012D02*
D03*
X340000Y381500D02*
D03*
Y387012D02*
D03*
X363000Y381500D02*
D03*
Y387012D02*
D03*
X280000Y356244D02*
D03*
Y361756D02*
D03*
X432000Y381500D02*
D03*
Y387012D02*
D03*
X323500Y446256D02*
D03*
Y440744D02*
D03*
D12*
X679500Y265953D02*
D03*
Y260047D02*
D03*
X348000Y359547D02*
D03*
Y365453D02*
D03*
X424000Y603453D02*
D03*
Y597547D02*
D03*
X164000Y262594D02*
D03*
Y268500D02*
D03*
X184000Y256547D02*
D03*
Y262453D02*
D03*
X224000Y256547D02*
D03*
Y262453D02*
D03*
X264000Y256547D02*
D03*
Y262453D02*
D03*
X389000Y256547D02*
D03*
Y262453D02*
D03*
X412000Y256547D02*
D03*
Y262453D02*
D03*
X435000Y256547D02*
D03*
Y262453D02*
D03*
X458000Y256547D02*
D03*
Y262453D02*
D03*
X424000Y615453D02*
D03*
Y609547D02*
D03*
X427000Y282547D02*
D03*
Y288453D02*
D03*
X449000Y282547D02*
D03*
Y288453D02*
D03*
X152500Y219803D02*
D03*
Y225709D02*
D03*
X174500Y219803D02*
D03*
Y225709D02*
D03*
X196500Y219803D02*
D03*
Y225709D02*
D03*
D20*
X174744Y653000D02*
D03*
X180256D02*
D03*
X389756Y630500D02*
D03*
X384244D02*
D03*
X201256Y263500D02*
D03*
X195744D02*
D03*
X241256Y262000D02*
D03*
X235744D02*
D03*
X258256Y421000D02*
D03*
X252744D02*
D03*
X270500D02*
D03*
X264988D02*
D03*
X286256D02*
D03*
X280744D02*
D03*
X298500D02*
D03*
X292988D02*
D03*
X310756Y420500D02*
D03*
X305244D02*
D03*
X323256D02*
D03*
X317744D02*
D03*
X166756Y636500D02*
D03*
X161244D02*
D03*
X161500Y624500D02*
D03*
X167012D02*
D03*
X242244Y438500D02*
D03*
X247756D02*
D03*
X245244Y374000D02*
D03*
X250756D02*
D03*
X243744Y402000D02*
D03*
X249256D02*
D03*
X334256Y362500D02*
D03*
X328744D02*
D03*
D26*
X357600Y457800D02*
X489100D01*
X651200Y391500D02*
X761000D01*
X636670Y394142D02*
X641811Y389000D01*
X661100Y365500D02*
X667500Y359100D01*
X312900Y449031D02*
X320475D01*
X330300D01*
X294569Y430700D02*
X312900Y449031D01*
X291969Y428100D02*
X294569Y430700D01*
X305244Y422456D02*
Y433800D01*
Y420500D02*
Y422456D01*
X588383Y242256D02*
X600000D01*
X490500Y265300D02*
X509456D01*
X276600Y438800D02*
X282000Y444200D01*
X271600Y433800D02*
X276600Y438800D01*
X208200Y464400D02*
Y464800D01*
Y460000D02*
Y464400D01*
X256000Y427200D02*
X276388D01*
X252700Y417400D02*
Y421000D01*
X609000Y388600D02*
Y393600D01*
X617600Y428600D02*
X631700D01*
X462100Y412900D02*
X465300D01*
X434800D02*
X462100D01*
X466000Y416800D01*
X461200Y412000D02*
X462100Y412900D01*
X394256Y620100D02*
X422900D01*
X434800Y412900D02*
X435700Y412000D01*
X424500Y423200D02*
X434800Y412900D01*
X368600Y517000D02*
X370200Y515400D01*
X366100Y519500D02*
X368600Y517000D01*
X365200Y519500D02*
X367700Y517000D01*
X364500Y520200D02*
X365200Y519500D01*
X368600Y517000D02*
X372500D01*
X367700D02*
X368600D01*
X367500Y381500D02*
X370200D01*
X363000D02*
X367500D01*
X679246Y260046D02*
X682500Y263300D01*
X679200Y260000D02*
X679246Y260046D01*
X680700Y255787D02*
Y260047D01*
Y254100D02*
Y255787D01*
X679246Y260046D02*
X679500Y260047D01*
X665800Y260000D02*
X679246Y260046D01*
X623100Y357500D02*
X625100Y355500D01*
X626000Y265800D02*
X634900D01*
X688500Y240000D02*
X767400D01*
X680700Y255787D02*
X685900Y252100D01*
X680400Y256000D02*
X680700Y255787D01*
X678400Y260000D02*
X680400Y258000D01*
X678400Y260000D02*
X679200D01*
X665800D02*
X678400D01*
X489778Y281178D02*
X491928Y283328D01*
X528544Y256744D02*
X534500D01*
X512300Y253900D02*
X512500Y253700D01*
X509456Y256744D02*
X512300Y253900D01*
X525700D01*
X491867D02*
X512300D01*
X451800Y207700D02*
X462400D01*
X261050Y525750D02*
X270200Y516600D01*
X256400Y530400D02*
X261050Y525750D01*
X365200Y519500D02*
X366100D01*
X318000D02*
X365200D01*
X280575Y447800D02*
X286000D01*
X255200Y532400D02*
X261050Y526550D01*
X255500Y531600D02*
X261200Y525900D01*
X235800Y652457D02*
Y678602D01*
X242244Y438816D02*
Y444000D01*
Y438500D02*
Y438816D01*
X332400Y360865D02*
Y362500D01*
X283123Y355988D02*
X314500D01*
X280212D02*
X283123D01*
X283000Y356244D02*
X283123Y355988D01*
X283600Y355000D01*
X281913Y303513D02*
X283200Y304800D01*
X281547Y303147D02*
X281913Y303513D01*
X281953Y305206D01*
X281547Y288000D02*
X281913Y303513D01*
X270500Y419200D02*
Y421000D01*
Y396050D02*
Y419200D01*
X277500Y358700D02*
X280212Y355988D01*
X245000Y352300D02*
X251400Y358700D01*
X243563Y350863D02*
X245000Y352300D01*
X241700Y349000D02*
X241850Y349150D01*
X204700Y349000D02*
X204850Y349150D01*
X227800Y244200D02*
Y260800D01*
Y242900D02*
Y244200D01*
X203400Y250600D02*
Y260800D01*
Y250300D02*
Y250600D01*
X201256Y252744D02*
Y257914D01*
X196200Y244200D02*
X227800D01*
X447988Y619012D02*
X455500D01*
X429088D02*
X447988D01*
X447102Y248700D02*
X458400D01*
X331000Y226744D02*
X365500D01*
X338900Y226500D02*
X342500D01*
X330756D02*
X338900D01*
X319500D02*
X330756D01*
X470400Y421200D02*
X480600D01*
X456100D02*
X470400D01*
X437100Y428900D02*
X577300D01*
X437100Y429100D02*
X453600D01*
X436900D02*
X437100D01*
X400100Y435200D02*
X400700D01*
X396000D02*
X400100D01*
X375333D02*
X396000D01*
X398600Y514750D02*
X401750Y517900D01*
X489700Y546000D02*
X490300Y545400D01*
X482100Y553600D02*
X489700Y546000D01*
X300300Y524200D02*
X304123D01*
X321100Y524800D02*
X333800D01*
X330831Y532213D02*
X336400Y531800D01*
X314800Y533400D02*
X330831Y532213D01*
X367800Y521300D02*
X368800D01*
X361500Y528600D02*
Y529200D01*
Y527600D02*
Y528600D01*
X404400Y512700D02*
X419100D01*
X361500Y528600D02*
X368800Y521300D01*
X360600Y529500D02*
X361500Y528600D01*
X223100Y404200D02*
Y425373D01*
X215600Y411700D02*
X223100Y404200D01*
X626900Y387300D02*
X633200Y393600D01*
X699200Y233600D02*
X700700Y235100D01*
X699200Y233600D02*
X699700D01*
X683500D02*
X699200D01*
X683900Y131000D02*
X735500D01*
X638500Y273000D02*
X638600D01*
X626000D02*
X638500D01*
X642900Y224000D02*
X651047D01*
X493000Y260300D02*
X506500D01*
X493000D02*
X494956Y262256D01*
X491700Y259000D02*
X493000Y260300D01*
X396800Y287600D02*
X401547D01*
X435000Y256547D02*
X446700D01*
X391247Y262453D02*
X396075D01*
X271700Y725900D02*
X272300Y726500D01*
X268200Y722400D02*
X271700Y725900D01*
X322200Y439600D02*
X323500D01*
X285000Y437600D02*
X286000Y436600D01*
X266900Y730700D02*
X271700Y725900D01*
X265688Y632512D02*
X266000Y632200D01*
Y624000D02*
Y631312D01*
Y620800D02*
Y624000D01*
Y631312D02*
Y632200D01*
X211478Y631100D02*
X247600D01*
X203600D02*
X211478D01*
X374000Y387012D02*
X393412D01*
X363000D02*
X373700D01*
X357218Y386688D02*
X363000Y387012D01*
X352088Y386400D02*
X357218Y386688D01*
X349876Y387012D02*
X357200D01*
X373700D02*
X374000D01*
X357200D02*
X363000D01*
X340000D02*
X349876D01*
X327100Y384600D02*
X477200D01*
X294800Y421000D02*
Y422400D01*
X352088Y386400D02*
X373700D01*
X327100D02*
X352088D01*
X317000Y387012D02*
X340000D01*
X350240Y232012D02*
X353800D01*
X342500D02*
X350240D01*
X335388D02*
X342500D01*
X263600Y421000D02*
X266600Y424000D01*
X249256Y406656D02*
X263600Y421000D01*
X264988D01*
X258256D02*
X263600D01*
X248212Y362256D02*
X262000D01*
X227872Y428400D02*
X239500Y416772D01*
X221154Y435117D02*
X227872Y428400D01*
X205100Y382174D02*
X214935Y372339D01*
X255247Y262453D02*
X264000D01*
X252500D02*
X255247D01*
X181800Y265600D02*
X189300D01*
X175606D02*
X181800D01*
X174500Y225709D02*
X184000D01*
X191800D01*
X172350Y262594D02*
X172600D01*
X133850Y174050D02*
X152700Y155200D01*
X128553Y179347D02*
X133850Y174050D01*
X472600Y591600D02*
X497032D01*
X571400Y254900D02*
X594100Y232200D01*
X567000Y259300D02*
X571400Y254900D01*
X459200Y146800D02*
X468500Y137500D01*
X455500Y150500D02*
X459200Y146800D01*
X352900Y579400D02*
X441900D01*
X352300Y578800D02*
X352900Y579400D01*
X344900Y571400D02*
X352300Y578800D01*
X492700Y490600D02*
X563500D01*
X425503Y603453D02*
Y609547D01*
X429953D01*
X246300Y718800D02*
X269500D01*
X272700Y627000D02*
X302500D01*
X462700Y259845D02*
X470545Y252000D01*
X460092Y262453D02*
X462700Y259845D01*
X723700Y651300D02*
X728000Y647000D01*
X651300Y723700D02*
X723700Y651300D01*
X722000D02*
X723700D01*
X484800D02*
X610700D01*
X615000Y647000D01*
X564200Y697800D02*
X610700Y651300D01*
X725500Y641300D02*
Y647800D01*
X610700Y651300D02*
X722000D01*
X444591Y691509D02*
X444600Y691500D01*
X484800Y651300D01*
X444600Y691500D02*
X451800D01*
X368900D02*
X444600D01*
X268091Y691509D02*
X368900D01*
X444591D01*
X572100Y455000D02*
X573900Y453200D01*
X510600Y455000D02*
X572100D01*
X509900Y454300D02*
X510600Y455000D01*
X345300Y454300D02*
X509900D01*
X337300Y462300D02*
X345300Y454300D01*
X281800Y462300D02*
X337300D01*
X252000Y492100D02*
X281800Y462300D01*
X565100Y190500D02*
X573400Y198800D01*
X521945Y190500D02*
X565100D01*
X514345Y182900D02*
X521945Y190500D01*
X504000Y182900D02*
X514345D01*
X500600Y186300D02*
X504000Y182900D01*
X493327Y186300D02*
X500600D01*
X474927Y204700D02*
X493327Y186300D01*
X436400Y204700D02*
X474927D01*
X429200Y197500D02*
X436400Y204700D01*
X393300Y108300D02*
X395500Y110500D01*
X104400Y108300D02*
X393300D01*
X99000Y102900D02*
X104400Y108300D01*
X99000Y72700D02*
Y102900D01*
Y72700D02*
X102400Y69300D01*
X838700D01*
X843000Y73600D01*
Y532400D01*
X787500Y587900D02*
X843000Y532400D01*
X403000Y125200D02*
X404000Y124200D01*
X407200D01*
X411900Y119500D01*
Y118400D02*
Y119500D01*
Y118400D02*
X413500Y116800D01*
X417600D01*
X419200Y118400D01*
Y121600D01*
X421800Y124200D01*
X466300D01*
X470500Y120000D01*
X359500Y120500D02*
X374100Y135100D01*
X440100D01*
X440900Y135900D01*
X450900D01*
X455500Y140500D01*
X405500Y110500D02*
X410300Y105700D01*
X581200D01*
X603300Y127800D01*
X775900D01*
X701700Y541500D02*
X761000D01*
X663100Y558900D02*
X665558D01*
X712958Y511500D01*
X761000D01*
X756700Y475800D02*
X761000Y471500D01*
X756700Y475800D02*
Y484100D01*
X758400Y485800D01*
X761600D01*
X765300Y489500D01*
Y494400D01*
X763200Y496500D02*
X765300Y494400D01*
X722100Y496500D02*
X763200D01*
X666900Y551700D02*
X722100Y496500D01*
X746600Y397100D02*
X761000Y411500D01*
X710700Y397100D02*
X746600D01*
X714000Y341500D02*
X761000D01*
X489000Y457700D02*
X489100Y457800D01*
X356209Y456409D02*
X357600Y457800D01*
X353491Y456409D02*
X356209D01*
X351300Y458600D02*
X353491Y456409D01*
X351300Y458600D02*
Y480800D01*
X350400Y481700D02*
X351300Y480800D01*
X346000Y481700D02*
X350400D01*
X337700Y473400D02*
X346000Y481700D01*
X289900Y473400D02*
X337700D01*
X277400Y485900D02*
X289900Y473400D01*
X265600Y485900D02*
X277400D01*
X239453Y512047D02*
X265600Y485900D01*
X415500Y110500D02*
X418103D01*
X422600Y114997D01*
X472897D01*
X480500Y122600D01*
Y130600D01*
X489000Y457700D02*
X581800D01*
X395500Y120500D02*
X398400D01*
X399200Y119700D01*
Y108300D02*
Y119700D01*
Y108300D02*
X403900Y103600D01*
X586900D01*
X601000Y117700D01*
X776100D01*
X683800Y491500D02*
X761000D01*
Y481500D02*
X765300Y477200D01*
Y428600D02*
Y477200D01*
X763200Y426500D02*
X765300Y428600D01*
X660200Y426500D02*
X763200D01*
X650700Y417000D02*
X660200Y426500D01*
X653000Y405800D02*
Y414100D01*
X642500Y407000D02*
X645300Y409800D01*
X642500Y393462D02*
Y407000D01*
Y393462D02*
X645262Y390700D01*
X647486D01*
X649470Y388716D01*
X655246D01*
X660200Y383762D01*
X645300Y409800D02*
Y427200D01*
X647962Y429862D01*
X686100D01*
X687738Y431500D01*
X761000D01*
X645700Y353400D02*
X657500Y341600D01*
Y322300D02*
Y341600D01*
X746616Y375884D02*
X761000Y361500D01*
X657516Y375884D02*
X746616D01*
X649100Y384300D02*
X657516Y375884D01*
X747000Y365500D02*
X761000Y351500D01*
X661100Y365500D02*
X747000D01*
X645200Y381400D02*
X661100Y365500D01*
X260800Y433800D02*
X271600D01*
X478000Y262256D02*
X487456D01*
X490500Y265300D02*
X492500Y266100D01*
X398800Y369500D02*
X492500D01*
X393300Y375000D02*
X398800Y369500D01*
X361500Y375000D02*
X393300D01*
X359900Y396700D02*
Y440000D01*
X281100Y430700D02*
X294569D01*
X276600Y435200D02*
X281100Y430700D01*
X276600Y435200D02*
Y438800D01*
X274800Y448400D02*
X279000Y452600D01*
X253900Y460700D02*
X266200Y448400D01*
X218200Y460700D02*
X253900D01*
X168100Y458800D02*
X216400Y458900D01*
X167200Y459700D02*
X168100Y458800D01*
X600000Y242256D02*
X602000D01*
X599000Y241256D02*
X600000Y242256D01*
X599000Y233900D02*
Y241256D01*
Y233900D02*
X622280D01*
X623450Y235070D01*
X637434D01*
X647788Y245424D01*
X665669D01*
X669345Y249100D01*
X672400D01*
X678100Y243400D01*
X201256Y257914D02*
Y263500D01*
X192598Y249256D02*
X201256Y257914D01*
X241256Y262000D02*
Y264000D01*
X238356Y266900D02*
X241256Y264000D01*
X233200Y266900D02*
X238356D01*
X241256Y262000D02*
X245100D01*
X204850Y349150D02*
X241850D01*
X243563Y350863D01*
X202600Y346900D02*
X204700Y349000D01*
X241700D01*
X251400Y358700D02*
X277500D01*
X281547Y288000D02*
Y303147D01*
X283200Y304800D02*
X301500D01*
X281953Y305206D02*
Y319500D01*
X291300Y381500D02*
X294000D01*
X280800Y371000D02*
X291300Y381500D01*
X280800Y367000D02*
Y371000D01*
Y367000D02*
X283000Y364800D01*
Y356244D02*
Y364800D01*
X280000Y356244D02*
X283000D01*
X245000Y352300D02*
Y356744D01*
X218600Y379700D02*
X225700D01*
X231400Y374000D01*
X245244D01*
X218600Y379700D02*
X220200Y381300D01*
X237400D01*
X243200Y387100D01*
X267031Y392581D02*
X270500Y396050D01*
X255742Y392581D02*
X267031D01*
X251823Y396500D02*
X255742Y392581D01*
X247244Y396500D02*
X251823D01*
X243744Y400000D02*
X247244Y396500D01*
X243744Y400000D02*
Y402000D01*
X298500Y419000D02*
Y421000D01*
Y419000D02*
X300769Y416731D01*
Y415828D02*
Y416731D01*
Y415828D02*
X318128D01*
X322800Y420500D01*
X323256D01*
X270500Y419200D02*
X273372Y416328D01*
X295828D01*
X298500Y419000D01*
X327600Y446256D02*
X332356Y441500D01*
X342400D01*
X343300Y440600D01*
Y424600D02*
Y440600D01*
X339200Y420500D02*
X343300Y424600D01*
X323256Y420500D02*
X339200D01*
X323500Y446256D02*
X327600D01*
X240902Y445342D02*
X242244Y444000D01*
X226510Y445342D02*
X240902D01*
X221268Y440100D02*
X226510Y445342D01*
X265000Y532400D02*
X270500Y526900D01*
X287900D01*
X273200Y609800D02*
X305600D01*
X265000Y601600D02*
X273200Y609800D01*
X389756Y624600D02*
Y630500D01*
Y624600D02*
X394256Y620100D01*
X420300Y599100D02*
Y607000D01*
Y599100D02*
X421853Y597547D01*
X424000D01*
X415600Y381500D02*
X432000D01*
X439053Y288453D02*
X449000D01*
X427000D02*
X439053D01*
X370200Y381500D02*
X374500Y377200D01*
X442100D01*
X439053Y288453D02*
X442100Y291500D01*
X495877Y188170D02*
X506530D01*
X476347Y207700D02*
X495877Y188170D01*
X469200Y265056D02*
Y265800D01*
Y265056D02*
X473328Y260927D01*
Y255772D02*
X475200Y253900D01*
X525700D02*
X528500Y256700D01*
X469200Y281178D02*
X489778D01*
X473328Y255772D02*
Y260927D01*
X475200Y253900D02*
X491867D01*
X494711Y256744D01*
X500000D01*
X506530Y188170D02*
X509000Y185700D01*
X462400Y207700D02*
X476347D01*
X461100Y399200D02*
X573700D01*
X593300Y379600D01*
Y366400D02*
Y379600D01*
X609000Y388600D02*
X624500Y373100D01*
Y357500D02*
Y373100D01*
Y332900D02*
Y333800D01*
Y332900D02*
X629400Y328000D01*
X657400Y251600D02*
X665800Y260000D01*
X682500Y263300D02*
Y268600D01*
X663500D02*
X682500D01*
X661700Y270400D02*
X663500Y268600D01*
X661700Y270400D02*
Y278200D01*
X653600Y286300D02*
X661700Y278200D01*
X636500Y286300D02*
X653600D01*
X634900Y284700D02*
X636500Y286300D01*
X626000Y265800D02*
Y267488D01*
X659600Y216100D02*
X668100D01*
X669700Y214500D01*
Y196300D02*
Y214500D01*
X653900Y180500D02*
X669700Y196300D01*
X650500Y180500D02*
X653900D01*
X685900Y252100D02*
X689600Y255800D01*
X680400Y256000D02*
Y258000D01*
X607600Y576000D02*
X609200Y574400D01*
X612600D01*
X619700Y567300D01*
X634100D01*
X641900Y575100D01*
Y583000D01*
X406800Y604800D02*
X417100D01*
X188900Y466200D02*
X191700Y469000D01*
X230200D01*
X270200Y516600D02*
X290600D01*
X291100Y516100D01*
X299400D01*
X305800Y522500D01*
X315000D01*
X318000Y519500D01*
X445402Y247400D02*
X447102Y245700D01*
X341700Y247400D02*
X445402D01*
X463800Y248700D02*
X464900Y247600D01*
X447102Y245700D02*
Y248700D01*
X406100Y624100D02*
X424000D01*
X429088Y619012D01*
X428200Y488003D02*
X431603Y484600D01*
X460590D01*
X465090Y489100D01*
X479000D01*
X483500Y484600D01*
X556648D01*
X558448Y482800D01*
X599600D01*
X603300Y486500D01*
X607500D01*
X488400D02*
X597500D01*
X484100Y490800D02*
X488400Y486500D01*
X463200Y490800D02*
X484100D01*
X460200Y493800D02*
X463200Y490800D01*
X435027Y487427D02*
X439279D01*
X442453Y490600D01*
X446500Y492800D02*
X450200Y496500D01*
X462938D01*
X466638Y492800D01*
X603800D01*
X607500Y496500D01*
X432800Y503700D02*
X435700Y506600D01*
X474000D01*
X480600Y500000D01*
X452400Y417500D02*
X456100Y421200D01*
X470400D02*
X475700Y415900D01*
X580700D01*
X422700Y510300D02*
X479600D01*
X488800Y501100D01*
X582700D01*
X594400Y512800D01*
X603800D01*
X607500Y516500D01*
X424400Y432100D02*
X433900D01*
X436900Y429100D01*
X437100Y428900D02*
Y429100D01*
X577300Y428900D02*
X586700Y438300D01*
X642800D01*
X649300Y444800D01*
Y467300D01*
X463300Y444000D02*
X509000D01*
X548900D01*
X556900Y436000D01*
X581900D01*
X589200Y443300D01*
X630300D01*
X636700Y449700D01*
Y458500D01*
X449846Y434454D02*
X518154D01*
X521700Y526500D02*
X607500D01*
X518500Y523300D02*
X521700Y526500D01*
X514400Y523300D02*
X518500D01*
X498600Y470000D02*
Y472623D01*
Y470000D02*
X570400D01*
X573200Y472800D01*
X602400D01*
X603800Y474200D01*
Y478400D01*
X605600Y480200D01*
X610604D01*
X614004Y483600D01*
X623400D01*
X629400Y489600D01*
Y498400D01*
X637500Y506500D01*
X468000Y469600D02*
X471023Y472623D01*
X498600D01*
X446600Y445200D02*
X449200Y447800D01*
X446600Y433600D02*
Y445200D01*
Y433600D02*
X448500Y431700D01*
X450800D01*
X450900Y431800D01*
X498600D01*
X498700Y431700D01*
X492846Y522900D02*
X495146Y520600D01*
X542600D01*
X544500Y522500D01*
X641500D01*
X647500Y516500D01*
X613800Y520200D02*
X617500Y516500D01*
X594600Y520200D02*
X613800D01*
X587300Y512900D02*
X594600Y520200D01*
X568692Y512900D02*
X587300D01*
X559592Y503800D02*
X568692Y512900D01*
X490297Y503800D02*
X559592D01*
X287700Y595800D02*
X299000Y607100D01*
X308444D01*
X312836Y611492D01*
X344592D01*
X368300Y635200D01*
X375700D01*
X377400Y633500D01*
X393700D01*
X400400Y626800D01*
X440000D01*
X443656Y623144D01*
X459856D01*
X465300Y617700D01*
Y608000D02*
Y617700D01*
Y608000D02*
X467200Y606100D01*
X484300D01*
X495900Y594500D01*
X608700D01*
X609300Y593900D01*
X282300Y581100D02*
X286484Y585284D01*
X502936D01*
X504951Y587300D01*
X597300D01*
X602700Y581900D01*
X392241Y408959D02*
X401200Y400000D01*
X392241Y408959D02*
Y423700D01*
X389041Y426900D02*
X392241Y423700D01*
X382300Y426900D02*
X389041D01*
X376800Y421400D02*
X382300Y426900D01*
X376800Y402100D02*
Y421400D01*
X456800Y396500D02*
X572000D01*
X453300Y400000D02*
X456800Y396500D01*
X401200Y400000D02*
X453300D01*
X580300Y332300D02*
X582700Y329900D01*
X399800Y332300D02*
X580300D01*
X397100Y335000D02*
X399800Y332300D01*
X558400Y392600D02*
X587300Y363700D01*
X453912Y392600D02*
X558400D01*
X451900Y394612D02*
X453912Y392600D01*
X389688Y394612D02*
X451900D01*
X385261Y399039D02*
X389688Y394612D01*
X385261Y399039D02*
Y413900D01*
X569800Y364500D02*
X589100Y345200D01*
X395400Y364500D02*
X569800D01*
X387600Y372300D02*
X395400Y364500D01*
X389700Y404200D02*
X390050Y404550D01*
Y421950D01*
X389500Y422500D02*
X390050Y421950D01*
X400500Y427500D02*
X403297D01*
X409898Y420899D01*
X417712D01*
X429312Y409300D01*
X455300D01*
X456300Y410300D01*
X471900D01*
X472900Y409300D01*
X605600D01*
X619100Y395800D01*
Y392600D02*
Y395800D01*
X395641Y427059D02*
Y429600D01*
Y427059D02*
X399200Y423500D01*
X404783D01*
X410260Y418024D01*
X415519D01*
X426542Y407000D01*
X456400D01*
X458000Y408600D01*
X470200D01*
X471800Y407000D01*
X585282D01*
X616800Y375482D01*
Y372294D02*
Y375482D01*
X614400Y369894D02*
X616800Y372294D01*
X374373Y439500D02*
X400800D01*
X475600Y412600D02*
X592500D01*
X468700Y419500D02*
X475600Y412600D01*
X463300Y419500D02*
X468700D01*
X458600Y414800D02*
X463300Y419500D01*
X438300Y414800D02*
X458600D01*
X427200Y425900D02*
X438300Y414800D01*
X414400Y425900D02*
X427200D01*
X400800Y439500D02*
X414400Y425900D01*
X365631Y435331D02*
X372800Y442500D01*
X389700D01*
X401600Y471000D02*
X405000Y474400D01*
X489036D01*
X491336Y476700D01*
X586800D01*
X590300Y480200D01*
X600400D01*
X602100Y481900D01*
X609900D01*
X615000Y487000D01*
X619800D01*
X374000Y467800D02*
X439700D01*
X440900Y469000D01*
X463200D01*
X465300Y466900D01*
X470700D01*
X473100Y469300D01*
X495300D01*
X496800Y467800D01*
X599300D01*
X601700Y470200D01*
X612053D01*
X348800Y583500D02*
X572100D01*
X345900Y580600D02*
X348800Y583500D01*
X281997Y473400D02*
X290850Y464547D01*
X340453D01*
X348000Y457000D01*
X279500Y535400D02*
X281840Y533060D01*
X310140D01*
X314100Y529100D01*
X334900D01*
X336500Y527500D01*
X554300Y422600D02*
X594100D01*
X597200Y419500D01*
X398550Y526100D02*
X450500D01*
X396400Y523950D02*
X398550Y526100D01*
X455102Y523600D02*
X461600D01*
X466300Y518900D01*
X551000D01*
X551600Y519500D01*
Y472800D02*
X553600Y474800D01*
X588500D01*
X590200Y476500D01*
X597500D01*
X460800Y464600D02*
X461900Y463500D01*
X474100D01*
X474400Y463800D01*
X604800D01*
X607500Y466500D01*
X395200Y530500D02*
X458201D01*
X461094Y533393D01*
X491957D01*
X494650Y530700D01*
X513400D01*
X517300Y534600D01*
X628800D01*
X631000Y532400D01*
X637400D01*
X651200Y518600D01*
Y494400D02*
Y518600D01*
X648700Y491900D02*
X651200Y494400D01*
X633600Y491900D02*
X648700D01*
X631496Y489796D02*
X633600Y491900D01*
X631496Y487532D02*
Y489796D01*
X625864Y481900D02*
X631496Y487532D01*
X616450Y481900D02*
X625864D01*
X611050Y476500D02*
X616450Y481900D01*
X607500Y476500D02*
X611050D01*
X559269Y518200D02*
X584800D01*
X557369Y516300D02*
X559269Y518200D01*
X463050Y516300D02*
X557369D01*
X461350Y518000D02*
X463050Y516300D01*
X458100Y526300D02*
X470800D01*
X455600Y528800D02*
X458100Y526300D01*
X398100Y528800D02*
X455600D01*
X396500Y527200D02*
X398100Y528800D01*
X378400Y527200D02*
X396500D01*
X376900Y525700D02*
X378400Y527200D01*
X627500Y476500D02*
X633800Y482800D01*
X649600D01*
X652900Y486100D01*
Y520036D01*
X634636Y538300D02*
X652900Y520036D01*
X603900Y538300D02*
X634636D01*
X600200Y542000D02*
X603900Y538300D01*
X595995Y542000D02*
X600200D01*
X594895Y540900D02*
X595995Y542000D01*
X473949Y540900D02*
X594895D01*
X398600Y542300D02*
X400429Y544129D01*
X477098D01*
X400200Y547800D02*
X402171Y545829D01*
X470449D01*
X478220Y553600D01*
X482100D01*
X490300Y545400D02*
X604000D01*
X607700Y541700D01*
X636915D01*
X650815Y527800D01*
X653100D01*
X371000Y532900D02*
X380300D01*
X368200Y535700D02*
X371000Y532900D01*
X368200Y535700D02*
Y556400D01*
X383400Y571600D01*
X401400D01*
X404300Y568700D01*
X476700D01*
X370600Y536800D02*
X378100D01*
X369900Y537500D02*
X370600Y536800D01*
X369900Y537500D02*
Y552100D01*
X386600Y568800D01*
X388400D01*
X392600Y564600D01*
X477098D01*
X479800Y563200D02*
Y571900D01*
X478500Y561900D02*
X479800Y563200D01*
X390900Y561900D02*
X478500D01*
X378000Y549000D02*
X390900Y561900D01*
X379900Y576081D02*
X442519D01*
X443500Y575100D01*
X295200Y467800D02*
X337400D01*
X348600Y479000D01*
X610600Y547100D02*
X613300Y544400D01*
X570500Y547100D02*
X610600D01*
X543000Y574600D02*
X570500Y547100D01*
X478300Y574600D02*
X543000D01*
X474400Y570700D02*
X478300Y574600D01*
X415200Y570700D02*
X474400D01*
X414300Y571600D02*
X415200Y570700D01*
X330100Y510500D02*
X356400D01*
X349300Y640300D02*
X380800D01*
X382500Y638600D01*
X578200D01*
X637700Y579100D01*
Y575900D02*
Y579100D01*
X353200Y513700D02*
X356400Y510500D01*
X312005Y513700D02*
X353200D01*
X308305Y510000D02*
X312005Y513700D01*
X294300Y510000D02*
X308305D01*
X292700Y508400D02*
X294300Y510000D01*
X570500Y551000D02*
X613300D01*
X545200Y576300D02*
X570500Y551000D01*
X469400Y576300D02*
X545200D01*
X465500Y572400D02*
X469400Y576300D01*
X440900Y572400D02*
X465500D01*
X438919Y574381D02*
X440900Y572400D01*
X382881Y574381D02*
X438919D01*
X379649Y571149D02*
X382881Y574381D01*
X372800Y571149D02*
X379649D01*
X364700Y563049D02*
X372800Y571149D01*
X364700Y553000D02*
Y563049D01*
X372900Y492800D02*
Y497800D01*
X366900Y486800D02*
X372900Y492800D01*
X291000Y486800D02*
X366900D01*
X289900Y485700D02*
X291000Y486800D01*
X361318Y515400D02*
X363000Y513718D01*
X310500Y515400D02*
X361318D01*
X307800Y512700D02*
X310500Y515400D01*
X288800Y512700D02*
X307800D01*
X287300Y511200D02*
X288800Y512700D01*
X355200Y524800D02*
X356600Y526200D01*
X320000Y525900D02*
X321100Y524800D01*
X302060Y525900D02*
X320000D01*
X296600Y531360D02*
X302060Y525900D01*
X274540Y531360D02*
X296600D01*
X274200Y531700D02*
X274540Y531360D01*
X274549Y476951D02*
X282100Y469400D01*
X338300Y529900D02*
X356300D01*
X336400Y531800D02*
X338300Y529900D01*
X330800Y531800D02*
X336400D01*
X332800Y616300D02*
X346600D01*
X367200Y636900D01*
X377400D01*
X379100Y635200D01*
X456900D01*
X465300Y626800D01*
X586600D01*
X634200Y579200D01*
Y574400D02*
Y579200D01*
X632400Y572600D02*
X634200Y574400D01*
X625700Y572600D02*
X632400D01*
X312400Y535800D02*
X314800Y533400D01*
X283200Y535800D02*
X312400D01*
X368800Y521300D02*
X374400D01*
X377600Y512700D02*
X404400D01*
X413200Y503900D01*
X336300Y494200D02*
X362300D01*
X331800Y498700D02*
X336300Y494200D01*
X323524Y498700D02*
X331800D01*
X319924Y495100D02*
X323524Y498700D01*
X283600Y495100D02*
X319924D01*
X281000Y497700D02*
X283600Y495100D01*
X271000Y497700D02*
X281000D01*
X267400Y494100D02*
X271000Y497700D01*
X267400Y489600D02*
Y494100D01*
Y489600D02*
X268400Y488600D01*
X277900D01*
X361500Y527600D02*
X367800Y521300D01*
X374400D02*
X375200Y520500D01*
Y515100D02*
Y520500D01*
Y515100D02*
X377600Y512700D01*
X419100D02*
X420100Y513700D01*
X564100D01*
X565600Y573500D02*
X600775D01*
X606275Y568000D01*
X613700D01*
X361500Y542000D02*
X363600D01*
X366500Y544900D01*
Y549400D01*
X365600Y550300D02*
X366500Y549400D01*
X362846Y550300D02*
X365600D01*
X359546Y553600D02*
X362846Y550300D01*
X332700Y553600D02*
X359546D01*
X326100Y560200D02*
X332700Y553600D01*
X323700Y493400D02*
X326300Y496000D01*
X281900Y493400D02*
X323700D01*
X279300Y496000D02*
X281900Y493400D01*
X274100Y496000D02*
X279300D01*
X270100Y492000D02*
X274100Y496000D01*
X354800Y541800D02*
X356700Y543700D01*
X328600Y541800D02*
X354800D01*
X327000Y540200D02*
X328600Y541800D01*
X322400Y540200D02*
X327000D01*
X321600Y541000D02*
X322400Y540200D01*
X321600Y541000D02*
Y547700D01*
X293800Y575500D02*
X321600Y547700D01*
X291200Y575500D02*
X293800D01*
X288800Y573100D02*
X291200Y575500D01*
X288800Y568500D02*
Y573100D01*
Y568500D02*
X289100Y568200D01*
Y563000D02*
Y568200D01*
X273900Y547800D02*
X289100Y563000D01*
X325900Y544500D02*
X344300D01*
X324300Y542900D02*
X325900Y544500D01*
X289376Y470700D02*
X327100D01*
X275876Y484200D02*
X289376Y470700D01*
X264500Y484200D02*
X275876D01*
X253506Y495194D02*
X264500Y484200D01*
X249600Y495194D02*
X253506D01*
X248800Y491319D02*
X249600Y495194D01*
X248800Y491319D02*
X264800Y475319D01*
X325800Y550400D02*
X357200D01*
X315400Y560800D02*
X325800Y550400D01*
X313498Y505000D02*
X316600Y508102D01*
X297100Y505000D02*
X313498D01*
X296100Y504000D02*
X297100Y505000D01*
X288300Y504000D02*
X296100D01*
X287300Y505000D02*
X288300Y504000D01*
X284413Y505000D02*
X287300D01*
X280313Y509100D02*
X284413Y505000D01*
X263500Y509100D02*
X280313D01*
X351600Y564900D02*
X359300Y557200D01*
X323200Y564900D02*
X351600D01*
X319300Y561000D02*
X323200Y564900D01*
X284500Y498300D02*
X318300D01*
X283200Y499600D02*
X284500Y498300D01*
X259900Y499600D02*
X283200D01*
X322400Y569300D02*
X354000D01*
X315900Y503300D02*
X316600Y504000D01*
X298300Y503300D02*
X315900D01*
X297300Y502300D02*
X298300Y503300D01*
X286100Y502300D02*
X297300D01*
X285100Y503300D02*
X286100Y502300D01*
X279700Y503300D02*
X285100D01*
X277000Y506000D02*
X279700Y503300D01*
X256200Y506000D02*
X277000D01*
X247000Y515200D02*
X256200Y506000D01*
X238300Y515200D02*
X247000D01*
X236700Y513600D02*
X238300Y515200D01*
X236700Y499486D02*
Y513600D01*
Y499486D02*
X255100Y481086D01*
Y478000D02*
Y481086D01*
X176700Y395400D02*
X185200Y386900D01*
X223100Y392000D02*
Y404200D01*
X218454Y390225D02*
X221325D01*
X211200Y389400D02*
X213243Y391443D01*
X210000Y406100D02*
X215500Y411600D01*
X194400Y406100D02*
X210000D01*
X193300Y405000D02*
X194400Y406100D01*
X193300Y398100D02*
Y405000D01*
Y398100D02*
X193500Y397900D01*
X168800Y486000D02*
X227100D01*
X241900Y471200D01*
Y466700D02*
Y471200D01*
X240000Y464800D02*
X241900Y466700D01*
X214100Y464800D02*
X240000D01*
X210900Y461600D02*
X214100Y464800D01*
X151500Y377900D02*
Y493300D01*
Y377900D02*
X195400Y334000D01*
X235800D01*
X243800D01*
X246500Y336700D01*
X250400D01*
X251256Y335844D01*
X300800D01*
X310240Y326404D01*
Y325504D02*
Y326404D01*
Y325504D02*
X325744Y310000D01*
X562220D01*
X567420Y304800D01*
X572600D01*
X595400Y282000D01*
X637600D01*
X639200Y283600D01*
X652800D01*
X656000Y280400D01*
Y255065D02*
Y280400D01*
X653335Y252400D02*
X656000Y255065D01*
X624500Y252400D02*
X653335D01*
X608844Y236744D02*
X624500Y252400D01*
X602000Y236744D02*
X608844D01*
X158509Y225709D02*
X174500D01*
X155600Y222800D02*
X158509Y225709D01*
X125300Y222800D02*
X155600D01*
X116000Y213500D02*
X125300Y222800D01*
X254400Y263300D02*
X255247Y262453D01*
X212100Y377300D02*
X216000Y381200D01*
X216700D01*
X218500Y383000D01*
X232100D01*
X239000Y389900D01*
X246800D01*
X250756Y385944D01*
Y374000D02*
Y385944D01*
X205100Y382174D02*
Y384300D01*
X195900Y393500D02*
X205100Y384300D01*
X189590Y393500D02*
X195900D01*
X182311Y400779D02*
X189590Y393500D01*
X182311Y400779D02*
Y408111D01*
X184000Y409800D01*
X204200D01*
X216900Y422500D01*
X247756Y435956D02*
Y438500D01*
X240200Y428400D02*
X247756Y435956D01*
X227872Y428400D02*
X240200D01*
X286256Y420384D02*
Y421000D01*
X283900Y418028D02*
X286256Y420384D01*
X277969Y418028D02*
X283900D01*
X277969D02*
Y422400D01*
X276369Y424000D02*
X277969Y422400D01*
X266600Y424000D02*
X276369D01*
X249256Y402000D02*
Y406656D01*
X327000Y438500D02*
X340600D01*
X323500Y439600D02*
Y440744D01*
Y439600D02*
X326600Y438900D01*
X327000Y438500D01*
X349876Y387012D02*
X352088Y386400D01*
X329544Y365600D02*
X340400D01*
X328744Y362500D02*
X329544Y365600D01*
X395200Y419000D02*
X409200Y405000D01*
X413200D01*
X395400Y387000D02*
X416812D01*
X432000Y387012D01*
X444874Y258374D02*
X446700Y256547D01*
X458000D01*
X494956Y262256D02*
X500000D01*
X529156Y262100D02*
X538700D01*
X523800Y256744D02*
X529156Y262100D01*
X522000Y256744D02*
X523800D01*
X538856Y262256D02*
X544000D01*
X547744D01*
X531600Y202000D02*
X540059D01*
X470500Y130000D02*
X473800Y133300D01*
X484700D01*
X487400Y130600D01*
X449200Y174200D02*
X450500Y172900D01*
X429200Y174200D02*
X449200D01*
X425500Y170500D02*
X429200Y174200D01*
X319500Y232012D02*
X335388D01*
X325500Y160012D02*
X328500D01*
X307500Y142012D02*
X325500Y160012D01*
X307500Y128000D02*
Y142012D01*
X306500Y127000D02*
X307500Y128000D01*
X289432Y127000D02*
X306500D01*
X282732Y133700D02*
X289432Y127000D01*
X213700Y133700D02*
X282732D01*
X209500Y129500D02*
X213700Y133700D01*
X178000Y473800D02*
X230627D01*
X235927Y468500D01*
X239200D01*
X279300Y437600D02*
X285000D01*
X361000Y465100D02*
X372300Y476400D01*
X468400D01*
X470200Y478200D01*
X286000Y436600D02*
X288400Y434200D01*
X286000Y436600D02*
Y440744D01*
X285800Y547200D02*
X298650Y560050D01*
X321792Y614892D02*
X323600Y616700D01*
X271908Y614892D02*
X321792D01*
X266000Y620800D02*
X271908Y614892D01*
X266000Y631312D02*
X269000Y632512D01*
X247056Y722400D02*
X268200D01*
X167012Y624500D02*
X204878D01*
X209500Y629122D01*
X669200Y538000D02*
X672800Y541600D01*
X646300Y538000D02*
X669200D01*
X626900Y371000D02*
Y387300D01*
Y371000D02*
X634400Y369900D01*
X641300Y363000D01*
X632800Y441000D02*
X644700Y452900D01*
Y468300D01*
X646400Y470000D01*
X658500D01*
X683100Y445400D01*
X683200Y394300D02*
X753800D01*
X761000Y401500D01*
X651047Y220757D02*
Y223000D01*
Y220757D02*
X659357Y212447D01*
X666000D01*
X679000Y229100D02*
X683500Y233600D01*
X125703Y219803D02*
X152500D01*
X121800Y215900D02*
X125703Y219803D01*
X121800Y180747D02*
Y215900D01*
X133850Y174050D02*
X139100Y179300D01*
X160700Y157700D01*
X206200D01*
X349600Y123200D02*
X356453Y116347D01*
X362447D01*
X376600Y130500D01*
X385500D01*
X121800Y180747D02*
X123200Y179347D01*
X128553D01*
X152700Y147200D02*
Y155200D01*
X149300Y143800D02*
X152700Y147200D01*
X144000Y143800D02*
X149300D01*
X133700Y133500D02*
X144000Y143800D01*
X126000Y133500D02*
X133700D01*
X311201Y542801D02*
X313300Y544900D01*
X273399Y542801D02*
X311201D01*
X271200Y545000D02*
X273399Y542801D01*
X271200Y545000D02*
Y554500D01*
X276900Y560200D01*
X309800Y518100D02*
X312200D01*
X306100Y514400D02*
X309800Y518100D01*
X289400Y514400D02*
X306100D01*
X288900Y514900D02*
X289400Y514400D01*
X267522Y514900D02*
X288900D01*
X260800Y521622D02*
X267522Y514900D01*
X269500Y575500D02*
X277100Y583100D01*
X269500Y537800D02*
Y575500D01*
Y537800D02*
X273100Y536900D01*
X274800Y538600D01*
X312226D01*
X315726Y535100D01*
X337929D01*
X339200Y533829D01*
X362777D01*
X373607Y523000D01*
X378000D01*
X380200Y520800D01*
X398600D01*
X401100Y523300D01*
X439300D01*
X333100Y481400D02*
X339100D01*
X342800Y485100D01*
X354700D01*
X361400Y478400D01*
X465000D01*
X467500Y480900D01*
X478600D01*
X480800Y478700D01*
X486300D01*
X633800Y472800D02*
X637500Y476500D01*
X633800Y450200D02*
Y472800D01*
X630400Y446800D02*
X633800Y450200D01*
X619600Y446800D02*
X630400D01*
X617700Y448700D02*
X619600Y446800D01*
X487700Y448700D02*
X617700D01*
X483800Y452600D02*
X487700Y448700D01*
X345300Y452600D02*
X483800D01*
X341735Y449035D02*
X345300Y452600D01*
X336335Y449035D02*
X341735D01*
X330070Y455300D02*
X336335Y449035D01*
X270608Y455300D02*
X330070D01*
X234600Y491308D02*
X270608Y455300D01*
X234600Y491308D02*
Y504600D01*
X231000Y508200D02*
X234600Y504600D01*
X264400Y560200D02*
Y566400D01*
X256900Y573900D02*
X264400Y566400D01*
X226200Y573900D02*
X256900D01*
X224200Y454900D02*
X225600Y456300D01*
X186172Y454900D02*
X224200D01*
X182472Y451200D02*
X186172Y454900D01*
X182472Y448000D02*
Y451200D01*
Y448000D02*
X184322Y446150D01*
X192881D01*
X195882Y449152D01*
X217600D01*
X218500Y448252D01*
Y440800D02*
Y448252D01*
X218000Y440300D02*
X218500Y440800D01*
X218000Y434006D02*
Y440300D01*
Y434006D02*
X220612Y431394D01*
X236800Y431100D02*
Y441800D01*
X237600Y442600D01*
X218400Y569700D02*
X225000Y563100D01*
X255000D01*
X243500Y453200D02*
X247900Y448800D01*
X218848Y453200D02*
X243500D01*
X218200Y452552D02*
X218848Y453200D01*
X189724Y452552D02*
X218200D01*
X188975Y451803D02*
X189724Y452552D01*
X187375Y451803D02*
X188975D01*
X185172Y449600D02*
X187375Y451803D01*
X216700Y418300D02*
X219600Y421200D01*
Y424000D01*
X218400Y425200D02*
X219600Y424000D01*
X215304Y425200D02*
X218400D01*
X201604Y411500D02*
X215304Y425200D01*
X181600Y411500D02*
X201604D01*
X178400Y408300D02*
X181600Y411500D01*
X178400Y402900D02*
Y408300D01*
X219643Y393143D02*
X220400Y393900D01*
X210657Y393143D02*
X219643D01*
X206700Y397100D02*
X210657Y393143D01*
X196500Y320800D02*
X205300D01*
X179500Y337800D02*
X196500Y320800D01*
X155700Y390800D02*
Y513600D01*
Y390800D02*
X191847Y354653D01*
X223353D01*
X223900Y355200D01*
Y374300D01*
X221200Y377000D02*
X223900Y374300D01*
X407453Y281453D02*
Y288000D01*
X403900Y277900D02*
X407453Y281453D01*
X285800Y277900D02*
X403900D01*
X283348Y275448D02*
X285800Y277900D01*
X263000Y275448D02*
X283348D01*
X260185Y278263D02*
X263000Y275448D01*
X144263Y278263D02*
X260185D01*
X135750Y269750D02*
X144263Y278263D01*
X118000Y251000D02*
X135750Y269750D01*
X353500Y289100D02*
X377600D01*
X348600Y284200D02*
X353500Y289100D01*
X328196Y284200D02*
X348600D01*
X323400Y288996D02*
X328196Y284200D01*
X310496Y288996D02*
X323400D01*
X302800Y281300D02*
X310496Y288996D01*
X269600Y281300D02*
X302800D01*
X268400Y282500D02*
X269600Y281300D01*
X264300Y282500D02*
X268400D01*
X263000Y281200D02*
X264300Y282500D01*
X144700Y281200D02*
X263000D01*
X124500Y261000D02*
X144700Y281200D01*
X118000Y261000D02*
X124500D01*
X287453Y286053D02*
Y288000D01*
X286400Y285000D02*
X287453Y286053D01*
X271800Y285000D02*
X286400D01*
X270900Y285900D02*
X271800Y285000D01*
X132900Y285900D02*
X270900D01*
X118000Y271000D02*
X132900Y285900D01*
X123547Y175953D02*
X126000Y173500D01*
X122758Y175953D02*
X123547D01*
X120147Y178563D02*
X122758Y175953D01*
X114337Y178563D02*
X120147D01*
X111800Y181100D02*
X114337Y178563D01*
X111800Y181100D02*
Y218500D01*
X126900Y233600D01*
Y256500D01*
X129000Y258600D01*
X136600D01*
X152863Y274863D01*
X256085D01*
X258900Y272048D01*
X279552D01*
X281500Y270100D01*
X289204D01*
X291904Y272800D01*
X309400D01*
X314000Y268200D01*
X328000D01*
X332800Y273000D01*
X364400D01*
X370900Y266500D01*
X379369D01*
X381300Y268431D01*
X411831D01*
X421600Y278200D01*
X494300D01*
X497700Y281600D01*
Y290100D01*
X496800Y291000D02*
X497700Y290100D01*
X483453Y291000D02*
X496800D01*
X483453Y288000D02*
Y291000D01*
X174500Y219803D02*
X190600D01*
X193197Y222400D01*
X199500D01*
Y215000D02*
Y222400D01*
X194700Y210200D02*
X199500Y215000D01*
X132700Y210200D02*
X194700D01*
X126000Y203500D02*
X132700Y210200D01*
X468500Y137500D02*
X481600D01*
X649488Y243724D02*
X669560D01*
X639134Y233370D02*
X649488Y243724D01*
X550500Y254900D02*
X571400D01*
X381800Y305600D02*
X385000Y302400D01*
X554800Y259300D02*
X567000D01*
X594100Y232200D02*
X624030D01*
X625200Y233370D01*
X639134D01*
X669560Y243724D02*
X671000Y245164D01*
X385000Y302400D02*
X545000D01*
X391487Y538000D02*
X398600D01*
X387087Y542400D02*
X391487Y538000D01*
X379387Y542400D02*
X387087D01*
X374400Y547387D02*
X379387Y542400D01*
X374400Y547387D02*
Y552300D01*
X387500Y565400D01*
X389400Y511000D02*
X394000Y506400D01*
X369595Y511000D02*
X389400D01*
X363495Y517100D02*
X369595Y511000D01*
X317800Y517100D02*
X363495D01*
X314100Y520800D02*
X317800Y517100D01*
X308300Y520800D02*
X314100D01*
X306800Y519300D02*
X308300Y520800D01*
X335500Y573600D02*
X337700Y571400D01*
X352300Y578800D02*
X388600D01*
X643100Y542100D02*
X647000D01*
X622300Y562900D02*
X643100Y542100D01*
X567100Y562900D02*
X622300D01*
X552000Y578000D02*
X567100Y562900D01*
X443300Y578000D02*
X552000D01*
X441900Y579400D02*
X443300Y578000D01*
X337700Y571400D02*
X344900D01*
X305000Y573600D02*
X335500D01*
X323100Y593400D02*
X428200D01*
X442453Y535300D02*
X493200D01*
X496200Y538300D01*
X597700D01*
X598700Y539300D01*
X491400Y489300D02*
X492700Y490600D01*
X319300Y617600D02*
X347500Y645800D01*
X416300D01*
X419400Y642700D01*
X547100D01*
X549400Y645000D01*
X562200Y489300D02*
X563500Y490600D01*
X611600D01*
X637500Y516500D01*
X378623Y216323D02*
X381100Y218800D01*
X266023Y216323D02*
X378623D01*
X209355Y159655D02*
X266023Y216323D01*
X209355Y156800D02*
Y159655D01*
X194655Y142100D02*
X209355Y156800D01*
X145700Y142100D02*
X194655D01*
X132100Y128500D02*
X145700Y142100D01*
X113600Y128500D02*
X132100D01*
X111800Y130300D02*
X113600Y128500D01*
X111800Y130300D02*
Y145900D01*
X113600Y147700D01*
X121800D01*
X126000Y143500D01*
X376500Y270131D02*
X408984D01*
X421400Y282547D01*
X427000D01*
X373900Y229600D02*
X381800D01*
X368000Y223700D02*
X373900Y229600D01*
X308300Y223700D02*
X368000D01*
X299600Y232400D02*
X308300Y223700D01*
X221000Y232400D02*
X299600D01*
X195500Y206900D02*
X221000Y232400D01*
X149400Y206900D02*
X195500D01*
X126000Y183500D02*
X149400Y206900D01*
X376500Y295100D02*
X378600Y297200D01*
X495000D01*
X500453Y291747D01*
Y288000D02*
Y291747D01*
X247800Y637000D02*
X248100Y637300D01*
X272400D01*
X276100Y633600D01*
Y630400D02*
Y633600D01*
X272700Y627000D02*
X276100Y630400D01*
X269000Y627000D02*
X272700D01*
X268600Y717900D02*
X269500Y718800D01*
X252865Y717900D02*
X268600D01*
X183000Y414400D02*
X202100D01*
X208800Y421100D01*
Y425900D01*
X208500Y426200D02*
X208800Y425900D01*
X207700Y437681D02*
Y442650D01*
X203347Y433327D02*
X207700Y437681D01*
X179629Y433327D02*
X203347D01*
X171847Y425545D02*
X179629Y433327D01*
X171847Y384953D02*
Y425545D01*
Y384953D02*
X197700Y359100D01*
X214204D01*
X233300Y323700D02*
X241678D01*
X249050Y331072D01*
X294316D01*
X321729Y303659D01*
X332520D01*
X342200Y293979D01*
X163200Y498100D02*
X226700D01*
X157900Y492800D02*
X163200Y498100D01*
X157900Y422700D02*
Y492800D01*
Y422700D02*
X165000Y415600D01*
Y384400D02*
Y415600D01*
Y384400D02*
X193047Y356353D01*
X219953D01*
X221000Y357400D01*
X206227Y431627D02*
X213300Y438700D01*
X187327Y431627D02*
X206227D01*
X174800Y419100D02*
X187327Y431627D01*
X187500Y204200D02*
X205900D01*
X227500Y225800D01*
X303400D01*
X307200Y222000D01*
X371250D01*
X374400Y225150D01*
X450650D01*
X452600Y223200D01*
X350604Y343700D02*
X478200D01*
X346304Y339400D02*
X350604Y343700D01*
X337600Y339400D02*
X346304D01*
X334417Y342583D02*
X337600Y339400D01*
X316900Y342583D02*
X334417D01*
X315183Y344300D02*
X316900Y342583D01*
X270300Y344300D02*
X315183D01*
X266700Y347900D02*
X270300Y344300D01*
X243400Y445700D02*
X250200D01*
X240600Y448500D02*
X243400Y445700D01*
X235300Y448500D02*
X240600D01*
X337200Y356300D02*
X478200D01*
X339900Y348700D02*
X343100Y345500D01*
X337800Y348700D02*
X339900D01*
X288100Y196700D02*
X337400D01*
X275700Y184300D02*
X288100Y196700D01*
X256000Y184300D02*
X275700D01*
X255200Y185100D02*
X256000Y184300D01*
X255200Y185100D02*
Y201100D01*
X256800Y202700D01*
X191000Y448900D02*
X192952Y450852D01*
X220500D01*
X220900Y450452D01*
X322800Y274500D02*
X326400Y270900D01*
X291200Y274500D02*
X322800D01*
X288500Y271800D02*
X291200Y274500D01*
X285175Y271800D02*
X288500D01*
X283227Y273748D02*
X285175Y271800D01*
X261300Y273748D02*
X283227D01*
X258485Y276563D02*
X261300Y273748D01*
X150063Y276563D02*
X258485D01*
X141600Y268100D02*
X150063Y276563D01*
X138400Y268100D02*
X141600D01*
X168900Y418100D02*
Y436800D01*
X170950Y438850D01*
X198298D01*
X204798Y445350D01*
X213450D01*
X214100Y444700D01*
X160000Y611406D02*
X209500D01*
X155325Y616081D02*
X160000Y611406D01*
X155325Y616081D02*
Y644425D01*
X163900Y653000D01*
X174744D01*
X158534Y617311D02*
X209500D01*
X157025Y618820D02*
X158534Y617311D01*
X157025Y618820D02*
Y638625D01*
X166856Y648456D01*
X177600D01*
X180256Y651112D01*
Y653000D01*
X206300Y596394D02*
X209500Y599594D01*
X206300Y528900D02*
Y596394D01*
Y528900D02*
X232700Y502500D01*
Y489700D02*
Y502500D01*
Y489700D02*
X270900Y451500D01*
X304700Y395744D02*
X355500D01*
X209500Y575972D02*
X214100Y571372D01*
Y563756D02*
Y571372D01*
Y563756D02*
X264656Y513200D01*
X280868D01*
X286868Y507200D01*
X290000Y505700D01*
X293900D01*
X295400Y507200D01*
X309100D01*
X313900Y512000D01*
X319300D01*
X323605Y507695D01*
X371645D01*
X396440Y482900D01*
X462290D01*
X466790Y487400D01*
X475200D01*
X481200Y481400D01*
X500800D01*
X501300Y480900D01*
X446300Y588900D02*
X449800Y592400D01*
X216522Y588900D02*
X446300D01*
X209500Y581878D02*
X216522Y588900D01*
X436500Y605500D02*
X452500D01*
X429800Y612200D02*
X436500Y605500D01*
X410100Y612200D02*
X429800D01*
X405700Y607800D02*
X410100Y612200D01*
X321700Y607800D02*
X405700D01*
X318200Y604300D02*
X321700Y607800D01*
X301500Y604300D02*
X318200D01*
X288500Y591300D02*
X301500Y604300D01*
X213017Y591300D02*
X288500D01*
X209500Y587783D02*
X213017Y591300D01*
X209500Y593689D02*
X229003Y613192D01*
X324092D01*
X348200Y637300D01*
X365000D01*
X366300Y638600D01*
X380000D01*
X381700Y636900D01*
X549100D01*
X550100Y635900D01*
X209500Y646839D02*
X226739D01*
X226800Y646900D01*
X258850Y683050D02*
X259200Y683400D01*
X236150Y683050D02*
X258850D01*
X233100Y680000D02*
X236150Y683050D01*
X233100Y676344D02*
Y680000D01*
X209500Y652744D02*
X233100Y676344D01*
X209500Y658650D02*
X228785Y677934D01*
Y680872D01*
X234013Y686100D01*
X261900D01*
X265000Y683000D01*
X271000D01*
X285100Y114900D02*
X335500D01*
X271500Y128500D02*
X285100Y114900D01*
X283500Y368300D02*
X322300D01*
X333500Y357100D02*
X335400Y359000D01*
X348000Y359547D01*
X276047Y319500D02*
Y321600D01*
X258800Y322400D02*
X276047Y321600D01*
X193000Y317800D02*
X257100D01*
X148800Y362000D02*
X193000Y317800D01*
X148800Y362000D02*
Y644600D01*
X185000Y680800D01*
X204800D01*
X217100Y693100D01*
X261496D01*
X267996Y686600D01*
X307400D01*
X344200Y649800D01*
X389500D01*
X314600Y141090D02*
X333720D01*
X383231Y190600D01*
X399500D01*
X401200Y192300D01*
X411100D01*
X429500Y210700D01*
X432100D01*
X310200Y126500D02*
Y135100D01*
Y126500D02*
X313600Y123100D01*
X341446D01*
X349899Y114647D01*
X365147D01*
X376000Y125500D01*
X397900D01*
X400300Y127900D01*
X430200D01*
X431800Y129500D01*
X433600Y192900D02*
X443300Y202600D01*
X471700D01*
X482500Y191800D01*
X492200Y244900D02*
X492800Y245500D01*
X460998Y244900D02*
X492200D01*
X459898Y246000D02*
X460998Y244900D01*
X312900Y132300D02*
X332900D01*
X355300Y154700D01*
X366000D01*
X373900Y146800D01*
X397400D01*
X404800Y154200D01*
X449300D01*
X450500Y153000D01*
X603585Y146600D02*
X608000Y142185D01*
X573045Y146600D02*
X603585D01*
X568630Y142185D02*
X573045Y146600D01*
X333200Y328700D02*
X338000Y323900D01*
X349200D01*
X352800Y320300D01*
X577100D01*
X584000Y313400D01*
X592400D01*
X607000Y298800D01*
X621100D01*
X622700Y300400D01*
X630500D01*
X637500Y293400D01*
X642200D01*
X643900Y291700D01*
X255000Y351000D02*
X258100Y354100D01*
X273150D01*
X276650Y350600D01*
X289620D01*
X290420Y351400D01*
X344296D01*
X344596Y351100D01*
X574242D01*
X584542Y340800D01*
X608400D01*
X652969Y296231D01*
X721900Y272200D02*
X728000Y266100D01*
X664700Y272200D02*
X721900D01*
X683400Y257500D02*
X689200Y263300D01*
X729600D01*
X730700Y264400D01*
Y281300D01*
X709100Y302900D02*
X730700Y281300D01*
X652800Y302900D02*
X709100D01*
X649000Y306700D02*
X652800Y302900D01*
X649000Y306700D02*
Y312500D01*
X636200Y325300D02*
X649000Y312500D01*
X636200Y325300D02*
Y331900D01*
X625600Y342500D02*
X636200Y331900D01*
X587200Y342500D02*
X625600D01*
X576500Y353200D02*
X587200Y342500D01*
X287600Y353200D02*
X576500D01*
X286700Y352300D02*
X287600Y353200D01*
X277354Y352300D02*
X286700D01*
X273854Y355800D02*
X277354Y352300D01*
X254900Y355800D02*
X273854D01*
X248500Y334000D02*
X293800D01*
X321800Y306000D01*
X335100D01*
X342200Y298900D01*
X573300D01*
X612000Y260200D01*
X639300D01*
Y246800D02*
X643200Y250700D01*
X653600D01*
X655400Y248900D01*
X660100D01*
X667000Y255800D01*
X674900D01*
X677300Y253400D01*
X242400Y327900D02*
X248500Y334000D01*
X197100Y327900D02*
X242400D01*
X462700Y253200D02*
Y259845D01*
X461600Y252100D02*
X462700Y253200D01*
X330100Y252100D02*
X461600D01*
X324900Y257300D02*
X330100Y252100D01*
X274700Y257300D02*
X324900D01*
X268200Y263800D02*
X274700Y257300D01*
X644754Y247200D02*
X662368D01*
X666879Y251711D01*
X674600D01*
X680800Y245511D01*
Y241500D02*
Y245511D01*
X680000Y240700D02*
X680800Y241500D01*
X649826Y240700D02*
X680000D01*
X640796Y231670D02*
X649826Y240700D01*
X626850Y231670D02*
X640796D01*
X625680Y230500D02*
X626850Y231670D01*
X588858Y230500D02*
X625680D01*
X567358Y252000D02*
X588858Y230500D01*
X470545Y252000D02*
X567358D01*
X458000Y262453D02*
X460092D01*
X264340Y266900D02*
X272100D01*
X274200Y264800D01*
X305237D01*
X307178Y262860D01*
X383829D01*
X386000Y265031D01*
X403269D01*
X408700Y259600D01*
X429400D01*
X432253Y262453D01*
X435000D01*
X571600Y273500D02*
X580100Y282000D01*
X460926Y273500D02*
X571600D01*
X449878Y262453D02*
X460926Y273500D01*
X435000Y262453D02*
X449878D01*
X409600D02*
X412000D01*
X405322Y266731D02*
X409600Y262453D01*
X384100Y266731D02*
X405322D01*
X382169Y264800D02*
X384100Y266731D01*
X308900Y264800D02*
X382169D01*
X306200Y267500D02*
X308900Y264800D01*
X331900Y256547D02*
X389000D01*
X328347Y260100D02*
X331900Y256547D01*
X305300Y260100D02*
X328347D01*
X304200Y261200D02*
X305300Y260100D01*
X638000Y290400D02*
X639900D01*
X635800Y292600D02*
X638000Y290400D01*
X591775Y292600D02*
X635800D01*
X576175Y308200D02*
X591775Y292600D01*
X569175Y308200D02*
X576175D01*
X563975Y313400D02*
X569175Y308200D01*
X339234Y313400D02*
X563975D01*
X337200Y315434D02*
X339234Y313400D01*
X298100Y291200D02*
X311700Y304800D01*
X264000Y256547D02*
X269147D01*
X649600Y295100D02*
X661900Y282800D01*
X640000Y295100D02*
X649600D01*
X631300Y303800D02*
X640000Y295100D01*
X622400Y303800D02*
X631300D01*
X619200Y300600D02*
X622400Y303800D01*
X610396Y300600D02*
X619200D01*
X585996Y325000D02*
X610396Y300600D01*
X518800Y325000D02*
X585996D01*
X515600Y328200D02*
X518800Y325000D01*
X342800Y328200D02*
X515600D01*
X339600Y331400D02*
X342800Y328200D01*
X331700Y331400D02*
X339600D01*
X328473Y328173D02*
X331700Y331400D01*
X211453Y256547D02*
X224000D01*
X208000Y260000D02*
X211453Y256547D01*
X192800Y340800D02*
X217128D01*
X223628Y347300D01*
X245821D01*
X575100Y306500D02*
X592265Y289335D01*
X568200Y306500D02*
X575100D01*
X563000Y311700D02*
X568200Y306500D01*
X332220Y311700D02*
X563000D01*
X320704Y323216D02*
X332220Y311700D01*
X315684Y323216D02*
X320704D01*
X313400Y325500D02*
X315684Y323216D01*
X313400Y325500D02*
Y333707D01*
X316100Y327200D02*
X322023D01*
X330605Y318618D01*
X340000D01*
X343018Y315600D01*
X568800D01*
X572486Y311914D01*
X232588Y339500D02*
X235175D01*
X236500Y340825D01*
X303852D01*
X305498Y339179D01*
X328917D01*
X332096Y336000D01*
X346725D01*
X352625Y330100D01*
X578309D01*
X581680Y326729D01*
X586671D01*
X606200Y307200D01*
X608100D01*
X229700Y336700D02*
X243544D01*
X245244Y338400D01*
X251200D01*
X252056Y337544D01*
X303877D01*
X304721Y336700D01*
X315100D01*
X331482Y320318D01*
X341700D01*
X343602Y318416D01*
X569851D01*
X578992Y309275D01*
X590959D01*
X603215Y297018D01*
X626300D01*
X528496Y234287D02*
X562000Y200783D01*
X467812Y234287D02*
X528496D01*
X464362Y230837D02*
X467812Y234287D01*
X446454Y230837D02*
X464362D01*
X442891Y234400D02*
X446454Y230837D01*
X380800Y234400D02*
X442891D01*
X379800Y235400D02*
X380800Y234400D01*
X198400Y235400D02*
X379800D01*
X164000Y268500D02*
X165800D01*
X167700Y270400D01*
X202500Y238100D02*
X424400D01*
X425200Y237300D01*
X428800Y243000D02*
X430500Y241300D01*
X446900D01*
X453700Y234500D01*
X461700D01*
X467800Y240600D01*
X561400D01*
X576100Y225900D01*
X682300Y211400D02*
X703300Y232400D01*
X658300Y305600D02*
Y307200D01*
X642300Y323200D02*
X658300Y307200D01*
X642300Y323200D02*
Y328700D01*
X623100Y347900D02*
X642300Y328700D01*
X589000Y347900D02*
X623100D01*
X547000Y389900D02*
X589000Y347900D01*
X452200Y389900D02*
X547000D01*
X449200Y392900D02*
X452200Y389900D01*
X390700Y392900D02*
X449200D01*
X386600Y388800D02*
X390700Y392900D01*
X378300Y388800D02*
X386600D01*
X377200Y389900D02*
X378300Y388800D01*
X277300Y389900D02*
X377200D01*
X275700Y388300D02*
X277300Y389900D01*
X252600Y388300D02*
X275700D01*
X249300Y391600D02*
X252600Y388300D01*
X234600Y391600D02*
X249300D01*
X227700Y384700D02*
X234600Y391600D01*
X217700Y384700D02*
X227700D01*
X215900Y382900D02*
X217700Y384700D01*
X207900Y382900D02*
X215900D01*
X206800Y384000D02*
X207900Y382900D01*
X206800Y384000D02*
Y387300D01*
X198900Y395200D02*
X206800Y387300D01*
X191600Y395200D02*
X198900D01*
X185400Y401400D02*
X191600Y395200D01*
X185400Y401400D02*
Y407100D01*
X500600Y166800D02*
X501500Y165900D01*
X380800Y166800D02*
X500600D01*
X378000Y169600D02*
X380800Y166800D01*
X368800Y169600D02*
X378000D01*
X366900Y167700D02*
X368800Y169600D01*
X363300Y242900D02*
Y243000D01*
X362400Y242000D02*
X363300Y242900D01*
X261100Y242000D02*
X362400D01*
X248900Y254200D02*
X261100Y242000D01*
X235200Y254200D02*
X248900D01*
X232800Y251800D02*
X235200Y254200D01*
X232800Y242500D02*
Y251800D01*
X230500Y240200D02*
X232800Y242500D01*
X208400Y240200D02*
X230500D01*
X207400Y241200D02*
X208400Y240200D01*
X200100Y241200D02*
X207400D01*
X195700Y236800D02*
X200100Y241200D01*
X195700Y230100D02*
Y236800D01*
X193500Y227900D02*
X195700Y230100D01*
X185600Y227900D02*
X193500D01*
X184000Y229500D02*
X185600Y227900D01*
X184000Y229500D02*
Y256547D01*
X459500Y183300D02*
X464800Y178000D01*
X496800D01*
X498700Y176100D01*
X521800D01*
X524400Y178700D01*
X533800D01*
X538800Y183700D01*
X619300D01*
X627300Y191700D01*
X651300D01*
X452900Y199800D02*
X467996D01*
X483196Y184600D01*
X499700D01*
X503100Y181200D01*
X516199D01*
X519300Y184301D01*
X529201D01*
X533700Y188800D01*
X602300D01*
X617200Y203700D01*
X633600D01*
X635700Y201600D01*
Y198000D02*
Y201600D01*
Y198000D02*
X638400Y195300D01*
X647000D01*
X648600Y196900D01*
X629450Y229700D02*
X668800D01*
X628550Y228800D02*
X629450Y229700D01*
X580400Y228800D02*
X628550D01*
X558900Y250300D02*
X580400Y228800D01*
X466282Y250300D02*
X558900D01*
X466182Y250400D02*
X466282Y250300D01*
X283900Y250400D02*
X466182D01*
X279900Y254400D02*
X283900Y250400D01*
X664500Y199500D02*
Y204800D01*
X661300Y208000D02*
X664500Y204800D01*
X650200Y208000D02*
X661300D01*
X632200Y226000D02*
X650200Y208000D01*
X580400Y226000D02*
X632200D01*
X563600Y242800D02*
X580400Y226000D01*
X465800Y242800D02*
X563600D01*
X459200Y236200D02*
X465800Y242800D01*
X456000Y236200D02*
X459200D01*
X449200Y243000D02*
X456000Y236200D01*
X440500Y243000D02*
X449200D01*
X437800Y245700D02*
X440500Y243000D01*
X360612Y245700D02*
X437800D01*
X358712Y243800D02*
X360612Y245700D01*
X289600Y243800D02*
X358712D01*
X288100Y245300D02*
X289600Y243800D01*
X617824Y223176D02*
X641500Y199500D01*
X542600Y223176D02*
X617824D01*
X527200Y238576D02*
X542600Y223176D01*
X469210Y238576D02*
X527200D01*
X463171Y232537D02*
X469210Y238576D01*
X448237Y232537D02*
X463171D01*
X441524Y239250D02*
X448237Y232537D01*
X428150Y239250D02*
X441524D01*
X427150Y240250D02*
X428150Y239250D01*
X248703Y240250D02*
X427150D01*
X237675Y251278D02*
X248703Y240250D01*
X249000Y208100D02*
Y215200D01*
X203497Y162597D02*
X249000Y208100D01*
X214200Y105300D02*
X217600Y101900D01*
X609700D01*
X612400Y104600D01*
X476900Y218800D02*
X497400Y198300D01*
X447788Y218800D02*
X476900D01*
X445018Y221569D02*
X447788Y218800D01*
X378400Y221569D02*
X445018D01*
X375231Y218400D02*
X378400Y221569D01*
X233400Y218400D02*
X375231D01*
X224500Y209500D02*
X233400Y218400D01*
X189200Y230800D02*
Y261053D01*
X187800Y262453D02*
X189200Y261053D01*
X184000Y262453D02*
X187800D01*
X229400Y220300D02*
X374400D01*
X377550Y223450D01*
X446550D01*
X449500Y220500D01*
X479900D01*
X505200Y195200D01*
X302800Y329800D02*
X324300Y308300D01*
X559500D01*
X565700Y302100D01*
X570000D01*
X267300Y279600D02*
X401000D01*
X403200Y281800D01*
X410500Y228500D02*
X411800Y227200D01*
X526200D01*
X554157Y199243D01*
X538763Y163163D02*
X540400Y164800D01*
X498791Y163163D02*
X538763D01*
X496854Y165100D02*
X498791Y163163D01*
X371700Y165100D02*
X496854D01*
X371600Y165200D02*
X371700Y165100D01*
X350600Y295300D02*
X357900D01*
X345500Y290200D02*
X350600Y295300D01*
X341085Y290200D02*
X345500D01*
X334575Y296710D02*
X341085Y290200D01*
X324390Y296710D02*
X334575D01*
X299900Y321200D02*
X324390Y296710D01*
X290200Y321200D02*
X299900D01*
X286700Y274900D02*
X288000Y276200D01*
X402800D01*
X405300Y273700D01*
X423200Y184700D02*
X428000D01*
X430300Y182400D01*
Y177600D02*
Y182400D01*
Y177600D02*
X432000Y175900D01*
X474300D01*
X479900Y170300D01*
X539800D01*
X544900Y165200D01*
X235700Y399731D02*
Y404800D01*
Y399731D02*
X238400Y397031D01*
X242533D01*
X244764Y394800D01*
X250086D01*
X254005Y390881D01*
X267881D01*
X268700Y391700D01*
X383100D01*
X409200Y116800D02*
X410900Y115100D01*
X419200D01*
X420900Y116800D01*
X431800D01*
X435500Y120500D01*
X489500Y697800D02*
X564200D01*
X258556Y395744D02*
X262000D01*
X258100Y396200D02*
X258556Y395744D01*
X226800Y352400D02*
X243000Y368600D01*
X188200Y352400D02*
X226800D01*
X285000Y205200D02*
X347400D01*
X353600Y199000D01*
X636260Y306840D02*
X643600Y299500D01*
X636260Y306840D02*
Y308440D01*
X605600Y339100D02*
X636260Y308440D01*
X582467Y339100D02*
X605600D01*
X573067Y348500D02*
X582467Y339100D01*
X350500Y348500D02*
X573067D01*
X344800Y342800D02*
X350500Y348500D01*
X340800Y342800D02*
X344800D01*
X337617Y345983D02*
X340800Y342800D01*
X335100Y345983D02*
X337617D01*
X332583Y348500D02*
X335100Y345983D01*
X273286Y348500D02*
X332583D01*
X269422Y352364D02*
X273286Y348500D01*
X262250Y352364D02*
X269422D01*
X258148Y348261D02*
X262250Y352364D01*
X246782Y348261D02*
X258148D01*
X246521Y348000D02*
X246782Y348261D01*
X208165Y367300D02*
X211000Y364465D01*
X200000Y367300D02*
X208165D01*
X190800Y376500D02*
X200000Y367300D01*
X190800Y376500D02*
Y388400D01*
X442000Y613500D02*
X455500D01*
X439000Y610500D02*
X442000Y613500D01*
X476156Y256744D02*
X478000D01*
X475028Y257872D02*
X476156Y256744D01*
X475028Y257872D02*
Y265600D01*
X471828Y268800D02*
X475028Y265600D01*
X466700Y268800D02*
X471828D01*
X465100Y267200D02*
X466700Y268800D01*
X465100Y264500D02*
Y267200D01*
Y264500D02*
X470000Y259600D01*
X254500Y434800D02*
Y439744D01*
X249900Y430200D02*
X254500Y434800D01*
X249900Y416000D02*
Y430200D01*
Y416000D02*
X251200Y414700D01*
X254400D01*
X258256Y418556D01*
Y421000D01*
X239500Y408700D02*
Y416772D01*
X189300Y265600D02*
X191400Y263500D01*
X172600Y262594D02*
X175606Y265600D01*
X392300Y558300D02*
X396900Y553700D01*
X453451D01*
X455051Y552100D01*
X380700Y545100D02*
X386400Y550800D01*
X452400D01*
X455671Y547529D01*
X467128D01*
X470799Y551200D01*
X637500Y466500D02*
X643400Y472400D01*
X650200D01*
X654600Y476800D01*
Y521608D01*
X636208Y540000D02*
X654600Y521608D01*
X605500Y540000D02*
X636208D01*
X601800Y543700D02*
X605500Y540000D01*
X594295Y543700D02*
X601800D01*
X593295Y542700D02*
X594295Y543700D01*
X481398Y542700D02*
X593295D01*
X477098Y547000D02*
X481398Y542700D01*
X398600Y514750D02*
Y516300D01*
X401750Y517900D02*
X455051D01*
X604300Y415500D02*
X617700Y402100D01*
X588000Y415500D02*
X604300D01*
X583600Y419900D02*
X588000Y415500D01*
X553000Y419900D02*
X583600D01*
X548500Y424400D02*
X553000Y419900D01*
X432100Y424400D02*
X548500D01*
X428900Y427600D02*
X432100Y424400D01*
X417300Y427600D02*
X428900D01*
X402400Y442500D02*
X417300Y427600D01*
X389700Y442500D02*
X402400D01*
X590600Y351000D02*
Y370200D01*
X566500Y394300D02*
X590600Y370200D01*
X456118Y394300D02*
X566500D01*
X454106Y396312D02*
X456118Y394300D01*
X393049Y396312D02*
X454106D01*
X386961Y402400D02*
X393049Y396312D01*
X386961Y402400D02*
Y405490D01*
X388350Y406879D01*
Y417850D01*
X385000Y421200D02*
X388350Y417850D01*
X385000Y421200D02*
Y424200D01*
X605700Y332200D02*
X608000D01*
X613400Y326800D01*
X602400Y373900D02*
X613500D01*
X598700Y377600D02*
X602400Y373900D01*
X598700Y377600D02*
Y385300D01*
X580400Y403600D02*
X598700Y385300D01*
X468400Y403600D02*
X580400D01*
X466800Y405200D02*
X468400Y403600D01*
X461400Y405200D02*
X466800D01*
X459800Y403600D02*
X461400Y405200D01*
X420000Y403600D02*
X459800D01*
X409700Y413900D02*
X420000Y403600D01*
X404400Y413900D02*
X409700D01*
X400800Y417500D02*
X404400Y413900D01*
X583600Y334000D02*
X592100Y325500D01*
X574252Y334000D02*
X583600D01*
X570573Y337679D02*
X574252Y334000D01*
X406321Y337679D02*
X570573D01*
X405400Y338600D02*
X406321Y337679D01*
X582800Y323000D02*
X584400Y321400D01*
X396700Y323000D02*
X582800D01*
X536100Y451800D02*
X537500Y450400D01*
X622500D01*
X624400Y448500D01*
X627600D01*
X628700Y449600D01*
Y457900D01*
X623800Y462800D02*
X628700Y457900D01*
X623800Y462800D02*
Y478400D01*
X625600Y480200D01*
X627400D01*
X633800Y486600D01*
Y488800D01*
X635200Y490200D01*
X643800D01*
X647500Y486500D01*
X435027Y491692D02*
Y492227D01*
X439300Y496500D01*
X446500Y620500D02*
X447988Y619012D01*
X439000Y620500D02*
X446500D01*
X593300Y357500D02*
X623100D01*
X426347Y596500D02*
X452500D01*
X425300Y597547D02*
X426347Y596500D01*
X424000Y597547D02*
X425300D01*
X242244Y438816D02*
X246428Y443000D01*
X254500D01*
Y445256D01*
X660500Y396000D02*
X663400Y393100D01*
X645200Y396000D02*
X660500D01*
X647900Y398700D02*
X648900Y399700D01*
X707700D01*
X708700Y400700D01*
X740200D01*
X761000Y421500D01*
X676400Y437300D02*
X736800D01*
X761000Y461500D01*
X659400Y555100D02*
X661700Y552800D01*
X659400Y555100D02*
Y564600D01*
X661000Y566200D01*
X755700D01*
X359500Y130500D02*
X365800Y136800D01*
X431800D01*
X445500Y150500D01*
X190100Y586100D02*
X209500Y605500D01*
X190100Y540100D02*
Y586100D01*
Y540100D02*
X229400Y500800D01*
Y488900D02*
Y500800D01*
Y488900D02*
X242100Y476200D01*
X247900Y480700D02*
Y482000D01*
Y480700D02*
X269100Y459500D01*
X331300D01*
X339000Y451800D01*
X335900Y404456D02*
X354400D01*
X355500Y403356D01*
Y401256D02*
Y403356D01*
X174800Y454000D02*
X177400Y456600D01*
X221500D01*
X223900Y459000D01*
X245950D01*
X259650Y445300D01*
X274200D01*
X278400Y449500D01*
X283669D01*
X284900Y450731D01*
X331469D01*
X334865Y447335D01*
X342764D01*
X346160Y450731D01*
X391931D01*
X392100Y450900D01*
X456200D01*
X460100Y447000D01*
X561900D01*
X566400Y442500D01*
X260800Y428100D02*
X291969D01*
X330300Y449031D02*
X335431Y443900D01*
X286000Y446256D02*
X293244D01*
X295200Y444300D01*
X209500Y562300D02*
Y570067D01*
Y562300D02*
X248900Y522900D01*
Y509300D02*
X254200Y504000D01*
X274200D01*
X276600Y501600D01*
X283900D01*
X284900Y500600D01*
X300500D01*
X301200Y501300D01*
X374600D01*
X395100Y480800D01*
X463090D01*
X466990Y484700D01*
X473000D01*
X348000Y359547D02*
X548100D01*
X292988Y421000D02*
X294800D01*
Y422400D02*
X296400Y424000D01*
X300869D01*
X302469Y422400D01*
Y417528D02*
Y422400D01*
Y417528D02*
X309884D01*
X310756Y418400D01*
Y420500D01*
X279300Y437600D02*
X282444Y440744D01*
X286000D01*
X254500Y445256D02*
X257116D01*
X263122Y439250D01*
X272025D01*
X280575Y447800D01*
X286000Y446256D02*
Y447800D01*
X208200Y460000D02*
X209300Y458900D01*
X216400D01*
X218200Y460700D01*
X266200Y448400D02*
X274800D01*
X283197Y520827D02*
X289773D01*
X292800Y517800D01*
X297723D01*
X304123Y524200D01*
X316700D01*
X319000Y521900D01*
X357100D01*
X357700Y522500D01*
X292600Y477800D02*
X294800Y475600D01*
X336600D01*
X344400Y483400D01*
X351200D01*
X354200Y480400D01*
Y460375D02*
Y480400D01*
X203500Y459700D02*
X208200Y464400D01*
X167200Y459700D02*
X203500D01*
X216900Y578500D02*
X228400Y567000D01*
X253300D01*
X187500Y427700D02*
X198700D01*
X173547Y413747D02*
X187500Y427700D01*
X173547Y390653D02*
Y413747D01*
Y390653D02*
X201700Y362500D01*
X286400Y566400D02*
Y578300D01*
X288700Y580600D01*
X338900D01*
X342100Y577400D01*
X611939Y576185D02*
X631439D01*
X609024Y579100D02*
X611939Y576185D01*
X597400Y579100D02*
X609024D01*
X596500Y580000D02*
X597400Y579100D01*
X469300Y580000D02*
X596500D01*
X467800Y581500D02*
X469300Y580000D01*
X352400Y581500D02*
X467800D01*
X344000Y573100D02*
X352400Y581500D01*
X339400Y573100D02*
X344000D01*
X334800Y577700D02*
X339400Y573100D01*
X304200Y577700D02*
X334800D01*
X302300Y575800D02*
X304200Y577700D01*
X302300Y569600D02*
Y575800D01*
Y569600D02*
X324300Y547600D01*
X363800D01*
X333800Y524800D02*
X355200D01*
X382500Y642600D02*
X384700Y640400D01*
X589838D01*
X645300Y584938D01*
Y576000D02*
Y584938D01*
X629800Y560500D02*
X645300Y576000D01*
X250300Y680100D02*
X286400D01*
X321000Y645500D01*
X231500Y636900D02*
X235800Y641200D01*
X223900Y721047D02*
Y730400D01*
X227200Y733700D01*
X275200D01*
X311000Y697900D01*
X389000Y256547D02*
X392600D01*
X395247Y253900D01*
X460400D01*
X461000Y254500D01*
Y258500D01*
X460000Y259500D02*
X461000Y258500D01*
X456000Y259500D02*
X460000D01*
X455000Y260500D02*
X456000Y259500D01*
X455000Y260500D02*
Y265100D01*
X461700Y271800D01*
X590800D01*
X608500Y254100D01*
X652400D01*
X653800Y255500D01*
Y277000D01*
X651400Y279400D02*
X653800Y277000D01*
X641200Y279400D02*
X651400D01*
X234345Y689400D02*
X250000D01*
X209500Y664555D02*
X234345Y689400D01*
X201200Y418400D02*
X206100Y423300D01*
X182400Y418400D02*
X201200D01*
X175700Y411700D02*
X182400Y418400D01*
X175700Y401265D02*
Y411700D01*
Y401265D02*
X185165Y391800D01*
X195100D01*
X203200Y383700D01*
Y374118D02*
Y383700D01*
Y374118D02*
X208000Y369318D01*
X220782D01*
X236300Y728800D02*
X246300Y718800D01*
X233547Y728800D02*
X236300D01*
X231700Y726953D02*
X233547Y728800D01*
X483900Y647700D02*
X577500D01*
X480300Y651300D02*
X483900Y647700D01*
X470300Y651300D02*
X480300D01*
X466000Y647000D02*
X470300Y651300D01*
X222000Y710100D02*
X227500Y715600D01*
Y728000D01*
X230200Y730700D01*
X266900D01*
X419700Y683300D02*
X456000Y647000D01*
X352600Y683300D02*
X419700D01*
X651300Y722100D02*
Y723700D01*
X649700Y726900D02*
X669000D01*
X732300Y663600D01*
Y643200D02*
Y663600D01*
X726500Y637400D02*
X732300Y643200D01*
X717600Y637400D02*
X726500D01*
X708000Y647000D02*
X717600Y637400D01*
X451800Y691500D02*
X476000Y667300D01*
X191400Y263500D02*
X195744D01*
X181000Y264800D02*
X181800Y265600D01*
X181000Y228709D02*
Y264800D01*
Y228709D02*
X184000Y225709D01*
X191800D02*
X196500D01*
X395500Y150500D02*
X400900Y155900D01*
X471807D01*
X490100Y137607D01*
Y128800D02*
Y137607D01*
X489200Y127900D02*
X490100Y128800D01*
X488400Y127900D02*
X489200D01*
X470500Y110000D02*
X488400Y127900D01*
X470400Y230546D02*
Y230800D01*
X468800Y228946D02*
X470400Y230546D01*
X445600Y228946D02*
X468800D01*
X442246Y232300D02*
X445600Y228946D01*
X380144Y232300D02*
X442246D01*
X380100Y232256D02*
X380144Y232300D01*
X365500Y232256D02*
X380100D01*
X458400Y248700D02*
X463800D01*
X457100Y247400D02*
X458400Y248700D01*
X457100Y239100D02*
Y247400D01*
Y239100D02*
X457300Y238900D01*
X453680Y217100D02*
X454780Y216000D01*
X447000Y217100D02*
X453680D01*
X446900Y217200D02*
X447000Y217100D01*
X399000Y217200D02*
X446900D01*
X396300Y214500D02*
X399000Y217200D01*
X285400Y214500D02*
X396300D01*
X257900Y187000D02*
X285400Y214500D01*
X185900Y421100D02*
X198100D01*
X206000Y429000D01*
X208900D01*
X212800Y432900D01*
X103521Y685421D02*
X201823D01*
X99800Y681700D02*
X103521Y685421D01*
X133900Y254500D02*
X137271D01*
X154571Y271800D01*
X163644D01*
X165006Y273163D01*
X169044D01*
X170406Y271800D01*
X256448D01*
X257900Y270348D01*
X278827D01*
X280775Y268400D01*
X293000D01*
X295700Y271100D01*
X307662D01*
X312262Y266500D01*
X356900D01*
X360700Y270300D01*
X386782Y194182D02*
X405400Y212800D01*
X355465Y194182D02*
X386782D01*
X334364Y173081D02*
X355465Y194182D01*
X326400Y173081D02*
X334364D01*
X296819Y143500D02*
X326400Y173081D01*
X268800Y143500D02*
X296819D01*
X263600Y138300D02*
X268800Y143500D01*
X155800Y138300D02*
X263600D01*
X148500Y131000D02*
X155800Y138300D01*
X572705Y206200D02*
X604900D01*
X558705Y192200D02*
X572705Y206200D01*
X494620Y192200D02*
X558705D01*
X476120Y210700D02*
X494620Y192200D01*
X439913Y210700D02*
X476120D01*
X429413Y200200D02*
X439913Y210700D01*
X426500Y200200D02*
X429413D01*
X424400Y198100D02*
X426500Y200200D01*
X424400Y194547D02*
Y198100D01*
X544600Y180800D02*
X554500Y170900D01*
Y140600D02*
Y170900D01*
Y140600D02*
X562100Y133000D01*
X577815D01*
X588315Y122500D01*
X291500Y211100D02*
X399300D01*
X403700Y215500D01*
X432100D01*
X434800Y212800D01*
Y208800D02*
Y212800D01*
X434000Y208000D02*
X434800Y208800D01*
X429322Y208000D02*
X434000D01*
X422356Y201034D02*
X429322Y208000D01*
X422356Y197934D02*
Y201034D01*
X415023Y190600D02*
X422356Y197934D01*
X402200Y190600D02*
X415023D01*
X401200Y189600D02*
X402200Y190600D01*
X401200Y186200D02*
Y189600D01*
Y186200D02*
X402400Y185000D01*
X419100D01*
X421500Y187400D01*
X473308D01*
X480308Y180400D01*
X497100D01*
X499700Y177800D01*
X520100D01*
X522700Y180400D01*
X532100D01*
X537100Y185400D01*
X617400D01*
X631500Y199500D01*
X403900Y187900D02*
X417000D01*
X418200Y189100D01*
X475296D01*
X482296Y182100D01*
X498800D01*
X501400Y179500D01*
X518400D01*
X521000Y182100D01*
X530400D01*
X535400Y187100D01*
X614500D01*
X623900Y196500D01*
X557600Y153215D02*
Y172800D01*
Y153215D02*
X568630Y142185D01*
X304800Y129800D02*
Y147040D01*
X326460Y168700D01*
X334715D01*
X358315Y192300D01*
X393160D01*
X406260Y205400D01*
X416000D01*
X646200Y276600D02*
X652100Y270700D01*
Y257400D02*
Y270700D01*
X650876Y256176D02*
X652100Y257400D01*
X612585Y256176D02*
X650876D01*
X584061Y284700D02*
X612585Y256176D01*
X568900Y284700D02*
X584061D01*
X559400Y275200D02*
X568900Y284700D01*
X424747Y275200D02*
X559400D01*
X412000Y262453D02*
X424747Y275200D01*
X209500Y640933D02*
X226694D01*
X233100Y647339D01*
X235100Y724500D02*
X268091Y691509D01*
X722000Y651300D02*
X725500Y647800D01*
X235800Y641200D02*
Y652457D01*
X189044Y640244D02*
X203600Y654800D01*
X163088Y640244D02*
X189044D01*
X161244Y638400D02*
X163088Y640244D01*
X161244Y636500D02*
Y638400D01*
X265688Y632512D02*
X269000D01*
X262600Y635600D02*
X265688Y632512D01*
X252100Y635600D02*
X262600D01*
X308800Y621900D02*
X326100Y639200D01*
X268100Y621900D02*
X308800D01*
X266000Y624000D02*
X268100Y621900D01*
X247600Y631100D02*
X252100Y635600D01*
X209500Y629122D02*
X211478Y631100D01*
X302500Y627000D02*
X321000Y645500D01*
X281953Y319500D02*
Y321419D01*
X275000Y328372D02*
X281953Y321419D01*
X258700Y618300D02*
Y631500D01*
X126000Y213500D02*
X189197D01*
X195500Y219803D01*
X196500D01*
X131000Y168500D02*
X148500Y151000D01*
X121000Y168500D02*
X131000D01*
X116000Y173500D02*
X121000Y168500D01*
X116000Y133500D02*
X121000Y138500D01*
X136000D01*
X148500Y151000D01*
X700700Y235100D02*
X706400D01*
X707600Y233900D01*
Y154700D02*
Y233900D01*
X683900Y131000D02*
X707600Y154700D01*
X675000Y131000D02*
X683900D01*
X658300Y305600D02*
X666800Y314100D01*
X645200Y381400D02*
Y384800D01*
X166756Y629606D02*
Y636500D01*
X161650Y624500D02*
X166756Y629606D01*
X161500Y624500D02*
X161650D01*
X167012Y622400D02*
Y624500D01*
X166112Y621500D02*
X167012Y622400D01*
X158725Y621500D02*
X166112D01*
X158725D02*
Y628881D01*
X161244Y631400D01*
Y636500D01*
X203400Y260800D02*
X205700Y263100D01*
X222953D01*
X223600Y262453D01*
X224000D01*
X201256Y252744D02*
X203400Y250600D01*
X688500Y241500D02*
Y246300D01*
X680700Y254100D02*
X688500Y246300D01*
X679500Y260047D02*
X680700D01*
X231500Y262000D02*
X235744D01*
X227000Y266500D02*
X231500Y262000D01*
X176256Y266500D02*
X227000D01*
X172350Y262594D02*
X176256Y266500D01*
X164000Y262594D02*
X172350D01*
X152500Y225709D02*
Y261200D01*
X156500Y265200D01*
X167000D01*
X170700Y268900D01*
X232300D01*
X227800Y244200D02*
X228100Y243900D01*
X132200Y225709D02*
X152500D01*
X229500Y342300D02*
X232375D01*
X232600Y342525D01*
X305635D01*
X307277Y340883D01*
X332913D01*
X336096Y337700D01*
X347825D01*
X351825Y341700D01*
X474766D01*
X477088Y339379D01*
X575121D01*
X578800Y335700D01*
X586619D01*
X613300Y309019D01*
Y304600D02*
Y309019D01*
X594100Y431500D02*
X616400D01*
X295100Y200200D02*
X303500D01*
X252744Y421000D02*
Y423944D01*
X256000Y427200D01*
X276388D02*
X280744Y422844D01*
X632800Y398011D02*
X636670Y394142D01*
Y387157D02*
Y394142D01*
Y387157D02*
X660500Y363326D01*
Y320000D02*
Y363326D01*
X659676Y319176D02*
X660500Y320000D01*
X653100Y319176D02*
X659676D01*
X704800Y385800D02*
X763500D01*
X765300Y384000D01*
Y375800D02*
Y384000D01*
X761000Y371500D02*
X765300Y375800D01*
X328500Y149000D02*
Y154500D01*
X524500Y173400D02*
X527100Y176000D01*
X500000Y173400D02*
X524500D01*
X293400Y150100D02*
X318081Y174781D01*
X329981D01*
X351220Y196020D01*
X355200D01*
X356318Y197138D01*
Y204982D01*
X356200Y205100D02*
X356318Y204982D01*
X324423Y282400D02*
X356200D01*
X321000Y285823D02*
X324423Y282400D01*
X284400Y152500D02*
X289500Y147400D01*
X284400Y152500D02*
Y168200D01*
X309600Y193400D01*
X339420D01*
X341220Y195200D01*
Y198900D01*
X271500Y118500D02*
X278600Y111400D01*
X342300D01*
X345500Y114600D01*
X328500Y163700D02*
X330800Y166000D01*
X328500Y160012D02*
Y163700D01*
X487456Y262256D02*
X490500Y265300D01*
X509456D02*
X512500Y262256D01*
X522000D01*
X506500Y260300D02*
X507800Y259000D01*
X522000D01*
Y256744D02*
Y259000D01*
X224000Y262453D02*
X226147D01*
X227800Y260800D01*
X395500Y130500D02*
X427400D01*
X429100Y132200D01*
X439800D01*
X441800Y134200D01*
X457600D01*
X459200Y135800D01*
Y146800D01*
X415500Y120500D02*
X420900Y125900D01*
X466400D01*
X470500Y130000D01*
X208500Y387200D02*
X210100Y385600D01*
X208500Y387200D02*
Y390944D01*
X196200Y403244D02*
X208500Y390944D01*
X211100Y402400D02*
X213500Y400000D01*
Y396000D02*
Y400000D01*
X213243Y391443D02*
X217236D01*
X218454Y390225D01*
X221325D02*
X223100Y392000D01*
X221300Y427173D02*
X223100Y425373D01*
X217027Y427173D02*
X221300D01*
X216004Y428196D02*
X217027Y427173D01*
X216004Y428196D02*
Y442000D01*
X216800Y442796D01*
Y446652D01*
X216000Y447452D02*
X216800Y446652D01*
X203002Y447452D02*
X216000D01*
X200000Y444450D02*
X203002Y447452D01*
X165550Y444450D02*
X200000D01*
X163100Y446900D02*
X165550Y444450D01*
X163100Y446900D02*
Y461800D01*
X164800Y463500D01*
X174300D01*
X231100Y394300D02*
X239800D01*
X225300Y388500D02*
X231100Y394300D01*
X216000Y388500D02*
X225300D01*
X215800Y388700D02*
X216000Y388500D01*
X629400Y324700D02*
X641300Y312800D01*
X629400Y324700D02*
Y328000D01*
X641500Y199500D02*
X645100Y203100D01*
X659700D01*
X658700Y257900D02*
X666753Y265953D01*
X679500D01*
X652800Y237200D02*
X764700D01*
X666600Y220028D02*
X692175Y194453D01*
X654300Y220028D02*
X666600D01*
X654300D02*
Y226900D01*
X656953Y223000D02*
X658500D01*
X661100Y225600D01*
X617600Y304800D02*
Y308200D01*
X588400Y337400D02*
X617600Y308200D01*
X581300Y337400D02*
X588400D01*
X571900Y346800D02*
X581300Y337400D01*
X351300Y346800D02*
X571900D01*
X345600Y341100D02*
X351300Y346800D01*
X339200Y341100D02*
X345600D01*
X336017Y344283D02*
X339200Y341100D01*
X333400Y344283D02*
X336017D01*
X330883Y346800D02*
X333400Y344283D01*
X272200Y346800D02*
X330883D01*
X268400Y350600D02*
X272200Y346800D01*
X264000Y350600D02*
X268400D01*
X258400Y345000D02*
X264000Y350600D01*
X227300Y345000D02*
X258400D01*
X225300Y343000D02*
X227300Y345000D01*
X647000Y542100D02*
Y598000D01*
X286100Y361500D02*
X314500D01*
X171600Y434700D02*
X177350D01*
X178750Y436100D01*
X201700D01*
X340000Y372181D02*
Y381500D01*
Y372181D02*
X346728Y365453D01*
X348000D01*
X252700Y421000D02*
X252744D01*
X651047Y223000D02*
Y224000D01*
X565039Y265600D02*
X588383Y242256D01*
X523600Y265600D02*
X565039D01*
X522000Y264000D02*
X523600Y265600D01*
X522000Y262256D02*
Y264000D01*
X334256Y362500D02*
X338136D01*
X338140Y362496D01*
X629600Y374200D02*
X635600Y380200D01*
X648400Y402400D02*
Y414700D01*
X650700Y417000D01*
X649100Y393600D02*
X651200Y391500D01*
X278000Y493300D02*
X288864Y482436D01*
X315364D01*
X319200Y478600D01*
X641811Y389000D02*
X645800D01*
X647784Y387016D01*
X650672D01*
X658788Y378900D01*
X758400D01*
X761000Y381500D01*
X245244Y371764D02*
Y374000D01*
Y371764D02*
X245740Y371269D01*
Y366808D02*
Y371269D01*
X244800Y365869D02*
X245740Y366808D01*
X243069Y365869D02*
X244800D01*
X242000Y364800D02*
X243069Y365869D01*
X242000Y357600D02*
Y364800D01*
Y357600D02*
X242856Y356744D01*
X245000D01*
X111800Y266000D02*
X121250D01*
X138450Y283200D01*
X260300D01*
X261300Y284200D01*
X270100D01*
X271100Y283200D01*
X301100D01*
X310300Y292400D01*
X334100D01*
X338500Y288000D01*
X401981Y256547D02*
X412000D01*
X396075Y262453D02*
X401981Y256547D01*
X338500Y288000D02*
X346500D01*
X350300Y291800D01*
X412500D01*
X419100Y285200D01*
X429347D01*
X432000Y282547D01*
X449000D01*
X279344Y361756D02*
X280000D01*
X274850Y366250D02*
X279344Y361756D01*
X317744Y435144D02*
X322200Y439600D01*
X317744Y420500D02*
Y435144D01*
X284800Y387012D02*
X294000D01*
X279100Y381312D02*
X284800Y387012D01*
X279100Y364800D02*
Y381312D01*
Y364800D02*
X280000Y363900D01*
Y361756D02*
Y363900D01*
X398304Y557800D02*
X454650D01*
X461350Y551100D01*
X424000Y603453D02*
X425503D01*
X424000Y609547D02*
X425503D01*
X455500Y592900D02*
X459500Y588900D01*
X500969Y589769D02*
Y591646D01*
X500100Y588900D02*
X500969Y589769D01*
X459500Y588900D02*
X500100D01*
X455500Y592900D02*
Y613500D01*
X291500Y571000D02*
X292500D01*
X319298Y544202D01*
Y540800D02*
Y544202D01*
Y540800D02*
X321598Y538500D01*
X328700D01*
X329500Y539300D01*
X361250D01*
X370350Y530200D01*
X386700D01*
X390100Y533600D01*
X409500D01*
X414100Y538200D01*
X485750D01*
X303200Y601500D02*
X372000D01*
X300000Y598300D02*
X303200Y601500D01*
X382900Y294500D02*
X463153D01*
X466453Y291200D01*
Y288000D02*
Y291200D01*
X432000Y387012D02*
X444518D01*
X447412Y389906D01*
X646100Y325400D02*
Y343300D01*
X314800Y592200D02*
X316369Y590631D01*
X430831D01*
X434000Y593800D01*
X602700Y589500D02*
X613300Y578900D01*
X503831Y589500D02*
X602700D01*
X501515Y587184D02*
X503831Y589500D01*
X276457Y587184D02*
X501515D01*
X267800Y578527D02*
X276457Y587184D01*
X267800Y534100D02*
Y578527D01*
Y534100D02*
X272900Y529000D01*
X276900D01*
X277560Y529660D01*
X294840D01*
X300300Y524200D01*
X261700Y530500D02*
Y562900D01*
Y530500D02*
X268500Y523700D01*
X294959D01*
X295500Y523159D01*
X429953Y609547D02*
X439000Y600500D01*
X395291Y615453D02*
X424000D01*
X384244Y626500D02*
X395291Y615453D01*
X384244Y626500D02*
Y630500D01*
X478000Y256744D02*
Y259000D01*
X491700D01*
X365500Y226744D02*
Y229000D01*
X329898D02*
X365500D01*
X683600Y432600D02*
X684000D01*
X684600Y433200D01*
X742700D01*
X761000Y451500D01*
X358100Y536800D02*
X358300Y536600D01*
X317598Y536800D02*
X358100D01*
X314098Y540300D02*
X317598Y536800D01*
X272300Y540300D02*
X314098D01*
X361300Y520200D02*
X364500D01*
X587900Y456800D02*
X607300D01*
X584300Y460400D02*
X587900Y456800D01*
X487100Y460400D02*
X584300D01*
X486300Y459600D02*
X487100Y460400D01*
X359000Y459600D02*
X486300D01*
X358000Y460600D02*
X359000Y459600D01*
X493785Y466285D02*
X494100Y466600D01*
X473485Y466285D02*
X493785D01*
X472400Y465200D02*
X473485Y466285D01*
X464585Y465200D02*
X472400D01*
X462485Y467300D02*
X464585Y465200D01*
X448300Y467300D02*
X462485D01*
X446000Y465000D02*
X448300Y467300D01*
X392800Y463700D02*
X394700Y461800D01*
X484300D01*
X484600Y462100D01*
X615100D01*
X626000Y451200D01*
X332400Y362500D02*
X334256D01*
X327524Y355988D02*
X332400Y360865D01*
X314500Y355988D02*
X327524D01*
X464500Y530100D02*
X471000D01*
X378000Y519000D02*
X399731D01*
X401300Y520569D01*
X440266D01*
X440598Y520900D01*
X458450D01*
X461350Y518000D01*
X410300Y540900D02*
X473949D01*
X404700Y535300D02*
X410300Y540900D01*
X387100Y535300D02*
X404700D01*
X382251Y540149D02*
X387100Y535300D01*
X372900Y540149D02*
X382251D01*
X378500Y508300D02*
X385800Y501000D01*
X435500D01*
X437400Y502900D01*
X467650D01*
X401100Y445200D02*
X407400D01*
X423300Y429300D01*
X430100D01*
X433300Y426100D01*
X592300D01*
X594100Y424300D01*
X610200D01*
X618500Y416000D01*
X455700Y446000D02*
X461100Y440600D01*
X517100D01*
X459400Y437500D02*
X507900D01*
X609000Y393600D02*
Y401800D01*
Y393600D02*
X613800Y388800D01*
X620300D01*
X621900Y390400D01*
Y424300D01*
X617600Y428600D02*
X621900Y424300D01*
X596800Y428600D02*
X617600D01*
X632200Y536600D02*
X633700Y535100D01*
X513900Y536600D02*
X632200D01*
X510700Y533400D02*
X513900Y536600D01*
X617500Y526500D02*
Y530600D01*
X615200Y532900D02*
X617500Y530600D01*
X519000Y532900D02*
X615200D01*
X515100Y529000D02*
X519000Y532900D01*
X491045Y529000D02*
X515100D01*
X519700Y530200D02*
X610900D01*
X516800Y527300D02*
X519700Y530200D01*
X509800Y527300D02*
X516800D01*
X508800Y526300D02*
X509800Y527300D01*
X470800Y526300D02*
X508800D01*
X366423Y446900D02*
X394300D01*
X361600Y433800D02*
X363200Y432200D01*
X361600Y433800D02*
Y435877D01*
X370923Y445200D01*
X391000D01*
X392000Y444200D01*
X396000D01*
X400000Y448200D01*
X414900D01*
X392800Y432000D02*
X396000Y435200D01*
X392800Y427541D02*
Y432000D01*
Y427541D02*
X393941Y426400D01*
Y422859D02*
Y426400D01*
Y422859D02*
X395100Y421700D01*
X402450D01*
X408196Y415954D01*
X411185D01*
X421838Y405300D01*
X458100D01*
X459700Y406900D01*
X468500D01*
X470100Y405300D01*
X581800D01*
X603500Y383600D01*
X389000Y262453D02*
X391247D01*
X395500Y258200D01*
X401547Y287600D02*
Y288000D01*
X377200Y381500D02*
X402150D01*
X250756Y364800D02*
Y374000D01*
X248212Y362256D02*
X250756Y364800D01*
X245000Y362256D02*
X248212D01*
X389756Y630500D02*
X393000D01*
X402000Y621500D01*
X603800Y510200D02*
X607500Y506500D01*
X595200Y510200D02*
X603800D01*
X584400Y499400D02*
X595200Y510200D01*
X485874Y499400D02*
X584400D01*
X483398Y496924D02*
X485874Y499400D01*
X469276Y496924D02*
X483398D01*
X466300Y499900D02*
X469276Y496924D01*
X438400Y499900D02*
X466300D01*
X434877Y496377D02*
X438400Y499900D01*
X247756Y438500D02*
X250987D01*
X252231Y439744D01*
X254500D01*
X435700Y412000D02*
X448800D01*
X432000Y381500D02*
X457100D01*
X465300Y412900D02*
X466000Y413600D01*
X464100Y402500D02*
X465700Y400900D01*
X577400D01*
X448800Y412000D02*
X461200D01*
X486676Y496500D02*
X597500D01*
X485400Y495224D02*
X486676Y496500D01*
X468376Y495224D02*
X485400D01*
X465400Y498200D02*
X468376Y495224D01*
X441000Y498200D02*
X465400D01*
X439300Y496500D02*
X441000Y498200D01*
X356000Y443900D02*
X359900Y440000D01*
Y396700D02*
X361500Y395100D01*
X238400Y402000D02*
X243744D01*
X494547Y285947D02*
Y288000D01*
X491928Y283328D02*
X494547Y285947D01*
X479219Y283328D02*
X491928D01*
X477547Y285000D02*
X479219Y283328D01*
X305244Y433800D02*
X320475Y449031D01*
X335431Y443900D02*
X356000D01*
X330756Y226500D02*
X331000Y226744D01*
X348000Y365453D02*
X356967D01*
X442400Y465600D02*
Y465900D01*
X441600Y464800D02*
X442400Y465600D01*
X404300Y464800D02*
X441600D01*
X629700Y348300D02*
X641300Y359900D01*
Y363000D01*
X300800Y426900D02*
X305244Y422456D01*
X284800Y426900D02*
X300800D01*
X280744Y422844D02*
X284800Y426900D01*
X280744Y421000D02*
Y422844D01*
X708200Y561500D02*
X761000D01*
X630100Y406700D02*
X633200Y409800D01*
X630100Y396400D02*
Y406700D01*
Y396400D02*
X632900Y393600D01*
X425700Y709100D02*
X507000D01*
X500000Y256744D02*
X509456D01*
X512500Y253700D02*
X531456D01*
X534500Y256744D01*
X544000D01*
X194500Y556524D02*
X201823Y549201D01*
X194500Y556524D02*
Y569000D01*
X192800Y570700D02*
X194500Y569000D01*
X424000Y615453D02*
X434047D01*
X439000Y610500D01*
X166756Y636500D02*
X208028D01*
X209500Y635028D01*
X264988Y415576D02*
Y421000D01*
X262000Y412588D02*
X264988Y415576D01*
X262000Y401256D02*
Y412588D01*
X650500Y180500D02*
X656300Y174700D01*
X661300D01*
X665500Y170500D01*
X499000Y597354D02*
Y620800D01*
X494900Y624900D02*
X499000Y620800D01*
X444600Y624900D02*
X494900D01*
X439000Y630500D02*
X444600Y624900D01*
X635500Y170500D02*
X675000Y131000D01*
X469000Y595200D02*
Y600500D01*
Y595200D02*
X472600Y591600D01*
X497032D02*
Y591646D01*
X391800Y144200D02*
X395500Y140500D01*
X365800Y144200D02*
X391800D01*
X359500Y150500D02*
X365800Y144200D01*
X235744Y260000D02*
Y262000D01*
Y260000D02*
X236744Y259000D01*
X249047D01*
X252500Y262453D01*
X545300Y138800D02*
X549685Y143185D01*
X514700Y138800D02*
X545300D01*
X510315Y143185D02*
X514700Y138800D01*
X460547Y286053D02*
Y288000D01*
Y286053D02*
X461600Y285000D01*
X477547D01*
Y288000D01*
X294000Y381500D02*
X317000D01*
X340000D01*
X454953Y288000D02*
X460547D01*
X454500Y288453D02*
X454953Y288000D01*
X449000Y288453D02*
X454500D01*
X255944Y401256D02*
X262000D01*
X255200Y402000D02*
X255944Y401256D01*
X249256Y402000D02*
X255200D01*
X286256Y421000D02*
X292988D01*
X310756Y420500D02*
X317744D01*
X322100Y362500D02*
X328744D01*
X321100Y361500D02*
X322100Y362500D01*
X314500Y361500D02*
X321100D01*
X294000Y387012D02*
X317000D01*
X412000Y256547D02*
X435000D01*
X354044Y232256D02*
X365500D01*
X353800Y232012D02*
X354044Y232256D01*
X378600Y630500D02*
X384244D01*
X377600Y631500D02*
X378600Y630500D01*
X372000Y631500D02*
X377600D01*
D30*
X196200Y403244D02*
D03*
X200500D02*
D03*
D31*
X735500Y131000D02*
D03*
D32*
X753500Y144000D02*
D03*
D33*
X735500Y154500D02*
D03*
D34*
X718000Y717000D02*
D03*
X605000D02*
D03*
X466000D02*
D03*
X321000Y715500D02*
D03*
D35*
X728000Y647000D02*
D03*
X718000D02*
D03*
X708000D02*
D03*
X615000D02*
D03*
X605000D02*
D03*
X595000D02*
D03*
X476000D02*
D03*
X466000D02*
D03*
X456000D02*
D03*
X331000Y645500D02*
D03*
X321000D02*
D03*
X311000D02*
D03*
D36*
X425500Y180500D02*
D03*
X435500Y170500D02*
D03*
Y180500D02*
D03*
X445500Y170500D02*
D03*
Y180500D02*
D03*
X455500Y170500D02*
D03*
X445500Y160500D02*
D03*
X455500D02*
D03*
X445500Y150500D02*
D03*
X455500D02*
D03*
X445500Y140500D02*
D03*
X455500D02*
D03*
X445500Y130500D02*
D03*
X455500D02*
D03*
X445500Y120500D02*
D03*
X455500D02*
D03*
X445500Y110500D02*
D03*
X435500Y120500D02*
D03*
Y110500D02*
D03*
X425500Y120500D02*
D03*
Y110500D02*
D03*
X415500Y120500D02*
D03*
Y110500D02*
D03*
X405500Y120500D02*
D03*
Y110500D02*
D03*
X395500Y120500D02*
D03*
Y110500D02*
D03*
X385500Y120500D02*
D03*
X395500Y130500D02*
D03*
X385500D02*
D03*
X395500Y140500D02*
D03*
X385500D02*
D03*
X395500Y150500D02*
D03*
X385500D02*
D03*
X395500Y160500D02*
D03*
X385500D02*
D03*
X395500Y170500D02*
D03*
X385500D02*
D03*
X395500Y180500D02*
D03*
X405500Y170500D02*
D03*
Y180500D02*
D03*
X415500Y170500D02*
D03*
Y180500D02*
D03*
X425500Y170500D02*
D03*
X439000Y620500D02*
D03*
Y610500D02*
D03*
Y600500D02*
D03*
X469000D02*
D03*
Y610500D02*
D03*
Y620500D02*
D03*
Y630500D02*
D03*
X637500Y466500D02*
D03*
X627500D02*
D03*
X617500D02*
D03*
X627500Y476500D02*
D03*
X617500D02*
D03*
X607500Y466500D02*
D03*
Y476500D02*
D03*
Y486500D02*
D03*
Y496500D02*
D03*
Y506500D02*
D03*
X597500Y476500D02*
D03*
Y486500D02*
D03*
Y496500D02*
D03*
Y506500D02*
D03*
X637500Y476500D02*
D03*
Y486500D02*
D03*
Y496500D02*
D03*
Y506500D02*
D03*
X647500Y476500D02*
D03*
Y486500D02*
D03*
Y496500D02*
D03*
Y506500D02*
D03*
Y516500D02*
D03*
X597500D02*
D03*
X607500Y526500D02*
D03*
Y516500D02*
D03*
X637500D02*
D03*
Y526500D02*
D03*
X627500D02*
D03*
X617500Y516500D02*
D03*
Y526500D02*
D03*
X627500Y516500D02*
D03*
X372000Y621500D02*
D03*
Y611500D02*
D03*
Y601500D02*
D03*
X402000D02*
D03*
Y611500D02*
D03*
Y621500D02*
D03*
Y631500D02*
D03*
D37*
X209500Y570067D02*
D03*
Y575972D02*
D03*
Y581878D02*
D03*
Y587783D02*
D03*
Y593689D02*
D03*
Y599594D02*
D03*
Y605500D02*
D03*
Y611406D02*
D03*
Y617311D02*
D03*
Y623217D02*
D03*
Y629122D02*
D03*
Y635028D02*
D03*
Y640933D02*
D03*
Y646839D02*
D03*
Y652744D02*
D03*
Y658650D02*
D03*
Y664555D02*
D03*
D38*
X201823Y549201D02*
D03*
Y685421D02*
D03*
D39*
X209500Y149500D02*
D03*
Y129500D02*
D03*
X239500D02*
D03*
Y149500D02*
D03*
Y179500D02*
D03*
X209500Y119500D02*
D03*
X631500Y199500D02*
D03*
X641500D02*
D03*
X664500D02*
D03*
X674500D02*
D03*
X635500Y170500D02*
D03*
X640500Y180500D02*
D03*
X645500Y170500D02*
D03*
X650500Y180500D02*
D03*
X655500Y170500D02*
D03*
X660500Y180500D02*
D03*
X665500Y170500D02*
D03*
X271500Y178500D02*
D03*
Y168500D02*
D03*
Y158500D02*
D03*
Y148500D02*
D03*
Y138500D02*
D03*
Y128500D02*
D03*
Y118500D02*
D03*
X148500Y151000D02*
D03*
Y131000D02*
D03*
X178500D02*
D03*
Y151000D02*
D03*
Y181000D02*
D03*
X148500Y121000D02*
D03*
D40*
X675500Y145500D02*
D03*
X630500D02*
D03*
D41*
X670500Y180500D02*
D03*
D42*
X622300Y157500D02*
D03*
X683700D02*
D03*
D43*
X549685Y143185D02*
D03*
X530000D02*
D03*
Y123500D02*
D03*
X510315Y113658D02*
D03*
X549685D02*
D03*
X510315Y123500D02*
D03*
X549685D02*
D03*
X510315Y143185D02*
D03*
X520158D02*
D03*
X539843D02*
D03*
X608000Y142185D02*
D03*
X588315D02*
D03*
Y122500D02*
D03*
X568630Y112658D02*
D03*
X608000D02*
D03*
X568630Y122500D02*
D03*
X608000D02*
D03*
X568630Y142185D02*
D03*
X578472D02*
D03*
X598157D02*
D03*
D44*
X271500Y188500D02*
D03*
D45*
X179500Y337800D02*
D03*
Y357000D02*
D03*
X683200Y289500D02*
D03*
X664000D02*
D03*
D46*
X439000Y630500D02*
D03*
X372000Y631500D02*
D03*
D47*
X118000Y251000D02*
D03*
X126000Y123500D02*
D03*
X470500Y110000D02*
D03*
X359500Y150500D02*
D03*
D48*
X118000Y261000D02*
D03*
Y271000D02*
D03*
X116000Y123500D02*
D03*
X126000Y133500D02*
D03*
X116000D02*
D03*
X126000Y143500D02*
D03*
X116000D02*
D03*
X126000Y153500D02*
D03*
X116000D02*
D03*
X126000Y163500D02*
D03*
X116000D02*
D03*
X126000Y173500D02*
D03*
X116000D02*
D03*
X126000Y183500D02*
D03*
X116000D02*
D03*
X126000Y193500D02*
D03*
X116000D02*
D03*
X126000Y203500D02*
D03*
X116000D02*
D03*
X126000Y213500D02*
D03*
X116000D02*
D03*
X470500Y130000D02*
D03*
Y120000D02*
D03*
X359500Y140500D02*
D03*
Y130500D02*
D03*
Y120500D02*
D03*
D49*
X761000Y649000D02*
D03*
D50*
Y284000D02*
D03*
D51*
Y321500D02*
D03*
D52*
Y331500D02*
D03*
Y341500D02*
D03*
Y351500D02*
D03*
Y361500D02*
D03*
Y371500D02*
D03*
Y381500D02*
D03*
Y391500D02*
D03*
Y401500D02*
D03*
Y411500D02*
D03*
Y421500D02*
D03*
Y431500D02*
D03*
Y441500D02*
D03*
Y451500D02*
D03*
Y461500D02*
D03*
Y471500D02*
D03*
Y481500D02*
D03*
Y491500D02*
D03*
Y501500D02*
D03*
Y511500D02*
D03*
Y521500D02*
D03*
Y531500D02*
D03*
Y541500D02*
D03*
Y551500D02*
D03*
Y561500D02*
D03*
Y571500D02*
D03*
Y581500D02*
D03*
Y591500D02*
D03*
Y601500D02*
D03*
Y611500D02*
D03*
D53*
X573900Y453200D02*
D03*
X252000Y492100D02*
D03*
X573400Y198800D02*
D03*
X429200Y197500D02*
D03*
X787500Y587900D02*
D03*
X403000Y125200D02*
D03*
X775900Y127800D02*
D03*
X701700Y541500D02*
D03*
X663100Y558900D02*
D03*
X666900Y551700D02*
D03*
X710700Y397100D02*
D03*
X714000Y341500D02*
D03*
X581800Y457700D02*
D03*
X239453Y512047D02*
D03*
X480500Y130600D02*
D03*
X489000Y457700D02*
D03*
X776100Y117700D02*
D03*
X683800Y491500D02*
D03*
X650700Y417000D02*
D03*
X653000Y414100D02*
D03*
Y405800D02*
D03*
X645300Y409800D02*
D03*
X660200Y383762D02*
D03*
X645700Y353400D02*
D03*
X657500Y322300D02*
D03*
X649100Y384300D02*
D03*
X645200Y384800D02*
D03*
X260800Y433800D02*
D03*
X492500Y266100D02*
D03*
Y369500D02*
D03*
X361500Y375000D02*
D03*
X282000Y444200D02*
D03*
X678100Y243400D02*
D03*
X192598Y249256D02*
D03*
X233200Y266900D02*
D03*
X245100Y262000D02*
D03*
X243563Y350863D02*
D03*
X202600Y346900D02*
D03*
X301500Y304800D02*
D03*
X303500Y200200D02*
D03*
X283600Y355000D02*
D03*
X245000Y352300D02*
D03*
X243200Y387100D02*
D03*
X327600Y446256D02*
D03*
X221268Y440100D02*
D03*
X261050Y526550D02*
D03*
X255200Y532400D02*
D03*
X265000D02*
D03*
X287900Y526900D02*
D03*
X305600Y609800D02*
D03*
X265000Y601600D02*
D03*
X422900Y620100D02*
D03*
X420300Y607000D02*
D03*
X415600Y381500D02*
D03*
X442100Y377200D02*
D03*
Y291500D02*
D03*
X509000Y185700D02*
D03*
X451800Y207700D02*
D03*
X528500Y256700D02*
D03*
X469200Y281178D02*
D03*
Y265800D02*
D03*
X462400Y207700D02*
D03*
X461100Y399200D02*
D03*
X593300Y366400D02*
D03*
X624500Y357500D02*
D03*
Y333800D02*
D03*
X629400Y328000D02*
D03*
X634900Y284700D02*
D03*
Y265800D02*
D03*
X659600Y216100D02*
D03*
X689600Y255800D02*
D03*
X657400Y251600D02*
D03*
X607600Y576000D02*
D03*
X641900Y583000D02*
D03*
X417100Y604800D02*
D03*
X406800D02*
D03*
X188900Y466200D02*
D03*
X230200Y469000D02*
D03*
X256400Y530400D02*
D03*
X370200Y515400D02*
D03*
X338900Y226500D02*
D03*
X341700Y247400D02*
D03*
X447102Y245700D02*
D03*
X406100Y624100D02*
D03*
X428200Y488003D02*
D03*
X460200Y493800D02*
D03*
X435027Y487427D02*
D03*
X442453Y490600D02*
D03*
X446500Y492800D02*
D03*
X432800Y503700D02*
D03*
X480600Y500000D02*
D03*
Y421200D02*
D03*
X452400Y417500D02*
D03*
X580700Y415900D02*
D03*
X422700Y510300D02*
D03*
X453600Y429100D02*
D03*
X424400Y432100D02*
D03*
X649300Y467300D02*
D03*
X463300Y444000D02*
D03*
X509000D02*
D03*
X636700Y458500D02*
D03*
X449846Y434454D02*
D03*
X518154D02*
D03*
X514400Y523300D02*
D03*
X468000Y469600D02*
D03*
X449200Y447800D02*
D03*
X498700Y431700D02*
D03*
X492846Y522900D02*
D03*
X490297Y503800D02*
D03*
X287700Y595800D02*
D03*
X609300Y593900D02*
D03*
X282300Y581100D02*
D03*
X602700Y581900D02*
D03*
X401200Y400000D02*
D03*
X376800Y402100D02*
D03*
X572000Y396500D02*
D03*
X582700Y329900D02*
D03*
X397100Y335000D02*
D03*
X587300Y363700D02*
D03*
X385261Y413900D02*
D03*
X589100Y345200D02*
D03*
X387600Y372300D02*
D03*
X389700Y404200D02*
D03*
X389500Y422500D02*
D03*
X400500Y427500D02*
D03*
X619100Y392600D02*
D03*
X395641Y429600D02*
D03*
X614400Y369894D02*
D03*
X374373Y439500D02*
D03*
X400800D02*
D03*
X592500Y412600D02*
D03*
X365631Y435331D02*
D03*
X389700Y442500D02*
D03*
X401600Y471000D02*
D03*
X619800Y487000D02*
D03*
X374000Y467800D02*
D03*
X612053Y470200D02*
D03*
X572100Y583500D02*
D03*
X345900Y580600D02*
D03*
X281997Y473400D02*
D03*
X348000Y457000D02*
D03*
X279500Y535400D02*
D03*
X336500Y527500D02*
D03*
X554300Y422600D02*
D03*
X597200Y419500D02*
D03*
X450500Y526100D02*
D03*
X396400Y523950D02*
D03*
X455102Y523600D02*
D03*
X551600Y519500D02*
D03*
Y472800D02*
D03*
X460800Y464600D02*
D03*
X395200Y530500D02*
D03*
X458201D02*
D03*
X584800Y518200D02*
D03*
X461350Y518000D02*
D03*
X376900Y525700D02*
D03*
X398600Y542300D02*
D03*
X477098Y544129D02*
D03*
X400200Y547800D02*
D03*
X489700Y546000D02*
D03*
X653100Y527800D02*
D03*
X380300Y532900D02*
D03*
X476700Y568700D02*
D03*
X378100Y536800D02*
D03*
X477098Y564600D02*
D03*
X479800Y571900D02*
D03*
X378000Y549000D02*
D03*
X379900Y576081D02*
D03*
X443500Y575100D02*
D03*
X295200Y467800D02*
D03*
X348600Y479000D02*
D03*
X613300Y544400D02*
D03*
X414300Y571600D02*
D03*
X330100Y510500D02*
D03*
X349300Y640300D02*
D03*
X637700Y575900D02*
D03*
X356400Y510500D02*
D03*
X292700Y508400D02*
D03*
X613300Y551000D02*
D03*
X364700Y553000D02*
D03*
X372900Y497800D02*
D03*
X289900Y485700D02*
D03*
X363000Y513718D02*
D03*
X287300Y511200D02*
D03*
X356600Y526200D02*
D03*
X274200Y531700D02*
D03*
X274549Y476951D02*
D03*
X282100Y469400D02*
D03*
X330800Y531800D02*
D03*
X332800Y616300D02*
D03*
X625700Y572600D02*
D03*
X356300Y529900D02*
D03*
X283200Y535800D02*
D03*
X360600Y529500D02*
D03*
X413200Y503900D02*
D03*
X362300Y494200D02*
D03*
X277900Y488600D02*
D03*
X361500Y529200D02*
D03*
X564100Y513700D02*
D03*
X565600Y573500D02*
D03*
X613700Y568000D02*
D03*
X361500Y542000D02*
D03*
X326100Y560200D02*
D03*
X326300Y496000D02*
D03*
X270100Y492000D02*
D03*
X356700Y543700D02*
D03*
X273900Y547800D02*
D03*
X344300Y544500D02*
D03*
X324300Y542900D02*
D03*
X327100Y470700D02*
D03*
X264800Y475319D02*
D03*
X357200Y550400D02*
D03*
X315400Y560800D02*
D03*
X316600Y508102D02*
D03*
X263500Y509100D02*
D03*
X359300Y557200D02*
D03*
X319300Y561000D02*
D03*
X318300Y498300D02*
D03*
X259900Y499600D02*
D03*
X354000Y569300D02*
D03*
X322400D02*
D03*
X316600Y504000D02*
D03*
X255100Y478000D02*
D03*
X176700Y395400D02*
D03*
X185200Y386900D02*
D03*
X211200Y389400D02*
D03*
X215500Y411600D02*
D03*
X193500Y397900D02*
D03*
X168800Y486000D02*
D03*
X210900Y461600D02*
D03*
X151500Y493300D02*
D03*
X235800Y334000D02*
D03*
X254400Y263300D02*
D03*
X262000Y362256D02*
D03*
X212100Y377300D02*
D03*
X214935Y372339D02*
D03*
X216900Y422500D02*
D03*
X340600Y438500D02*
D03*
X327000D02*
D03*
X327100Y386400D02*
D03*
X373700D02*
D03*
X374000Y387012D02*
D03*
X340400Y365600D02*
D03*
X395200Y419000D02*
D03*
X413200Y405000D02*
D03*
X395400Y387000D02*
D03*
X444874Y258374D02*
D03*
X538856Y262256D02*
D03*
X547744D02*
D03*
X531600Y202000D02*
D03*
X540059D02*
D03*
X487400Y130600D02*
D03*
X450500Y172900D02*
D03*
X335388Y232012D02*
D03*
X350240D02*
D03*
X178000Y473800D02*
D03*
X239200Y468500D02*
D03*
X361000Y465100D02*
D03*
X470200Y478200D02*
D03*
X477200Y384600D02*
D03*
X327100D02*
D03*
X288400Y434200D02*
D03*
X298650Y560050D02*
D03*
X285800Y547200D02*
D03*
X323600Y616700D02*
D03*
X272300Y726500D02*
D03*
X247056Y722400D02*
D03*
X672800Y541600D02*
D03*
X646300Y538000D02*
D03*
X633200Y393600D02*
D03*
X641300Y363000D02*
D03*
X632800Y441000D02*
D03*
X683100Y445400D02*
D03*
X683200Y394300D02*
D03*
X666000Y212447D02*
D03*
X679000Y229100D02*
D03*
X699700Y233600D02*
D03*
X206200Y157700D02*
D03*
X349600Y123200D02*
D03*
X313300Y544900D02*
D03*
X276900Y560200D02*
D03*
X312200Y518100D02*
D03*
X260800Y521622D02*
D03*
X277100Y583100D02*
D03*
X439300Y523300D02*
D03*
X333100Y481400D02*
D03*
X486300Y478700D02*
D03*
X231000Y508200D02*
D03*
X264400Y560200D02*
D03*
X226200Y573900D02*
D03*
X225600Y456300D02*
D03*
X220612Y431394D02*
D03*
X236800Y431100D02*
D03*
X237600Y442600D02*
D03*
X218400Y569700D02*
D03*
X255000Y563100D02*
D03*
X247900Y448800D02*
D03*
X185172Y449600D02*
D03*
X216700Y418300D02*
D03*
X178400Y402900D02*
D03*
X220400Y393900D02*
D03*
X206700Y397100D02*
D03*
X205300Y320800D02*
D03*
X155700Y513600D02*
D03*
X221200Y377000D02*
D03*
X377600Y289100D02*
D03*
X481600Y137500D02*
D03*
X550500Y254900D02*
D03*
X381800Y305600D02*
D03*
X545000Y302400D02*
D03*
X554800Y259300D02*
D03*
X671000Y245164D02*
D03*
X398600Y538000D02*
D03*
X387500Y565400D02*
D03*
X394000Y506400D02*
D03*
X306800Y519300D02*
D03*
X388600Y578800D02*
D03*
X647000Y542100D02*
D03*
X305000Y573600D02*
D03*
X323100Y593400D02*
D03*
X428200D02*
D03*
X442453Y535300D02*
D03*
X598700Y539300D02*
D03*
X491400Y489300D02*
D03*
X319300Y617600D02*
D03*
X549400Y645000D02*
D03*
X562200Y489300D02*
D03*
X381100Y218800D02*
D03*
X376500Y270131D02*
D03*
X381800Y229600D02*
D03*
X376500Y295100D02*
D03*
X247800Y637000D02*
D03*
X269500Y718800D02*
D03*
X252865Y717900D02*
D03*
X183000Y414400D02*
D03*
X208500Y426200D02*
D03*
X207700Y442650D02*
D03*
X214204Y359100D02*
D03*
X233300Y323700D02*
D03*
X342200Y293979D02*
D03*
X226700Y498100D02*
D03*
X221000Y357400D02*
D03*
X213300Y438700D02*
D03*
X174800Y419100D02*
D03*
X187500Y204200D02*
D03*
X452600Y223200D02*
D03*
X478200Y343700D02*
D03*
X266700Y347900D02*
D03*
X250200Y445700D02*
D03*
X235300Y448500D02*
D03*
X337200Y356300D02*
D03*
X478200D02*
D03*
X343100Y345500D02*
D03*
X337800Y348700D02*
D03*
X337400Y196700D02*
D03*
X256800Y202700D02*
D03*
X191000Y448900D02*
D03*
X220900Y450452D02*
D03*
X326400Y270900D02*
D03*
X138400Y268100D02*
D03*
X168900Y418100D02*
D03*
X214100Y444700D02*
D03*
X270900Y451500D02*
D03*
X304700Y395744D02*
D03*
X501300Y480900D02*
D03*
X449800Y592400D02*
D03*
X452500Y605500D02*
D03*
X550100Y635900D02*
D03*
X226800Y646900D02*
D03*
X259200Y683400D02*
D03*
X271000Y683000D02*
D03*
X335500Y114900D02*
D03*
X283500Y368300D02*
D03*
X322300D02*
D03*
X333500Y357100D02*
D03*
X258800Y322400D02*
D03*
X257100Y317800D02*
D03*
X389500Y649800D02*
D03*
X314600Y141090D02*
D03*
X432100Y210700D02*
D03*
X310200Y135100D02*
D03*
X431800Y129500D02*
D03*
X433600Y192900D02*
D03*
X482500Y191800D02*
D03*
X492800Y245500D02*
D03*
X459898Y246000D02*
D03*
X312900Y132300D02*
D03*
X450500Y153000D02*
D03*
X333200Y328700D02*
D03*
X643900Y291700D02*
D03*
X255000Y351000D02*
D03*
X652969Y296231D02*
D03*
X728000Y266100D02*
D03*
X664700Y272200D02*
D03*
X683400Y257500D02*
D03*
X254900Y355800D02*
D03*
X248500Y334000D02*
D03*
X639300Y260200D02*
D03*
Y246800D02*
D03*
X677300Y253400D02*
D03*
X197100Y327900D02*
D03*
X268200Y263800D02*
D03*
X644754Y247200D02*
D03*
X264340Y266900D02*
D03*
X580100Y282000D02*
D03*
X306200Y267500D02*
D03*
X304200Y261200D02*
D03*
X639900Y290400D02*
D03*
X337200Y315434D02*
D03*
X311700Y304800D02*
D03*
X298100Y291200D02*
D03*
X269147Y256547D02*
D03*
X661900Y282800D02*
D03*
X328473Y328173D02*
D03*
X208000Y260000D02*
D03*
X192800Y340800D02*
D03*
X592265Y289335D02*
D03*
X313400Y333707D02*
D03*
X316100Y327200D02*
D03*
X572486Y311914D02*
D03*
X232588Y339500D02*
D03*
X608100Y307200D02*
D03*
X229700Y336700D02*
D03*
X626300Y297018D02*
D03*
X562000Y200783D02*
D03*
X198400Y235400D02*
D03*
X167700Y270400D02*
D03*
X202500Y238100D02*
D03*
X425200Y237300D02*
D03*
X428800Y243000D02*
D03*
X576100Y225900D02*
D03*
X703300Y232400D02*
D03*
X682300Y211400D02*
D03*
X185400Y407100D02*
D03*
X501500Y165900D02*
D03*
X366900Y167700D02*
D03*
X363300Y243000D02*
D03*
X459500Y183300D02*
D03*
X651300Y191700D02*
D03*
X452900Y199800D02*
D03*
X648600Y196900D02*
D03*
X668800Y229700D02*
D03*
X279900Y254400D02*
D03*
X288100Y245300D02*
D03*
X237675Y251278D02*
D03*
X249000Y215200D02*
D03*
X203497Y162597D02*
D03*
X214200Y105300D02*
D03*
X612400Y104600D02*
D03*
X497400Y198300D02*
D03*
X224500Y209500D02*
D03*
X189200Y230800D02*
D03*
X229400Y220300D02*
D03*
X505200Y195200D02*
D03*
X302800Y329800D02*
D03*
X570000Y302100D02*
D03*
X267300Y279600D02*
D03*
X403200Y281800D02*
D03*
X410500Y228500D02*
D03*
X554157Y199243D02*
D03*
X540400Y164800D02*
D03*
X371600Y165200D02*
D03*
X357900Y295300D02*
D03*
X290200Y321200D02*
D03*
X286700Y274900D02*
D03*
X405300Y273700D02*
D03*
X423200Y184700D02*
D03*
X544900Y165200D02*
D03*
X235700Y404800D02*
D03*
X383100Y391700D02*
D03*
X409200Y116800D02*
D03*
X489500Y697800D02*
D03*
X258100Y396200D02*
D03*
X243000Y368600D02*
D03*
X188200Y352400D02*
D03*
X285000Y205200D02*
D03*
X353600Y199000D02*
D03*
X643600Y299500D02*
D03*
X246521Y348000D02*
D03*
X211000Y364465D02*
D03*
X190800Y388400D02*
D03*
X470000Y259600D02*
D03*
X239500Y408700D02*
D03*
X221154Y435117D02*
D03*
X392300Y558300D02*
D03*
X455051Y552100D02*
D03*
X380700Y545100D02*
D03*
X470799Y551200D02*
D03*
X477098Y547000D02*
D03*
X398600Y516300D02*
D03*
X455051Y517900D02*
D03*
X617700Y402100D02*
D03*
X590600Y351000D02*
D03*
X385000Y424200D02*
D03*
X605700Y332200D02*
D03*
X613400Y326800D02*
D03*
X613500Y373900D02*
D03*
X400800Y417500D02*
D03*
X592100Y325500D02*
D03*
X405400Y338600D02*
D03*
X584400Y321400D02*
D03*
X396700Y323000D02*
D03*
X536100Y451800D02*
D03*
X435027Y491692D02*
D03*
X631700Y428600D02*
D03*
X593300Y357500D02*
D03*
X625100Y355500D02*
D03*
X452500Y596500D02*
D03*
X663400Y393100D02*
D03*
X645200Y396000D02*
D03*
X647900Y398700D02*
D03*
X676400Y437300D02*
D03*
X661700Y552800D02*
D03*
X755700Y566200D02*
D03*
X242100Y476200D02*
D03*
X247900Y482000D02*
D03*
X339000Y451800D02*
D03*
X335900Y404456D02*
D03*
X367500Y381500D02*
D03*
X174800Y454000D02*
D03*
X566400Y442500D02*
D03*
X260800Y428100D02*
D03*
X361500Y395100D02*
D03*
X295200Y444300D02*
D03*
X248900Y522900D02*
D03*
Y509300D02*
D03*
X473000Y484700D02*
D03*
X548100Y359547D02*
D03*
X279300Y437600D02*
D03*
X208200Y464800D02*
D03*
X279000Y452600D02*
D03*
X283197Y520827D02*
D03*
X357700Y522500D02*
D03*
X292600Y477800D02*
D03*
X354200Y460375D02*
D03*
X208200Y464400D02*
D03*
X167200Y459700D02*
D03*
X216900Y578500D02*
D03*
X253300Y567000D02*
D03*
X198700Y427700D02*
D03*
X201700Y362500D02*
D03*
X261200Y525900D02*
D03*
X255500Y531600D02*
D03*
X286400Y566400D02*
D03*
X342100Y577400D02*
D03*
X631439Y576185D02*
D03*
X363800Y547600D02*
D03*
X333800Y524800D02*
D03*
X382500Y642600D02*
D03*
X629800Y560500D02*
D03*
X250300Y680100D02*
D03*
X235800Y678602D02*
D03*
X231500Y636900D02*
D03*
X223900Y721047D02*
D03*
X311000Y697900D02*
D03*
X641200Y279400D02*
D03*
X250000Y689400D02*
D03*
X206100Y423300D02*
D03*
X220782Y369318D02*
D03*
X231700Y726953D02*
D03*
X577500Y647700D02*
D03*
X222000Y710100D02*
D03*
X271700Y725900D02*
D03*
X352600Y683300D02*
D03*
X651300Y722100D02*
D03*
X649700Y726900D02*
D03*
X476000Y667300D02*
D03*
X368900Y691500D02*
D03*
X470400Y230800D02*
D03*
X464900Y247600D02*
D03*
X457300Y238900D02*
D03*
X454780Y216000D02*
D03*
X257900Y187000D02*
D03*
X185900Y421100D02*
D03*
X212800Y432900D02*
D03*
X99800Y681700D02*
D03*
X133900Y254500D02*
D03*
X360700Y270300D02*
D03*
X405400Y212800D02*
D03*
X604900Y206200D02*
D03*
X424400Y194547D02*
D03*
X544600Y180800D02*
D03*
X291500Y211100D02*
D03*
X403900Y187900D02*
D03*
X623900Y196500D02*
D03*
X557600Y172800D02*
D03*
X304800Y129800D02*
D03*
X416000Y205400D02*
D03*
X646200Y276600D02*
D03*
X233100Y647339D02*
D03*
X235100Y724500D02*
D03*
X725500Y641300D02*
D03*
X235800Y652457D02*
D03*
X203600Y654800D02*
D03*
Y631100D02*
D03*
X326100Y639200D02*
D03*
X275000Y328372D02*
D03*
X258700Y618300D02*
D03*
Y631500D02*
D03*
X699200Y233600D02*
D03*
X658300Y305600D02*
D03*
X666800Y314100D02*
D03*
X667500Y359100D02*
D03*
X203400Y250300D02*
D03*
Y250600D02*
D03*
X688500Y240000D02*
D03*
X767400D02*
D03*
X688500Y241500D02*
D03*
X232300Y268900D02*
D03*
X228100Y243900D02*
D03*
X196200Y244200D02*
D03*
X132200Y225709D02*
D03*
X229500Y342300D02*
D03*
X613300Y304600D02*
D03*
X594100Y431500D02*
D03*
X616400D02*
D03*
X295100Y200200D02*
D03*
X653100Y319176D02*
D03*
X704800Y385800D02*
D03*
X328500Y149000D02*
D03*
X527100Y176000D02*
D03*
X500000Y173400D02*
D03*
X293400Y150100D02*
D03*
X356200Y205100D02*
D03*
Y282400D02*
D03*
X321000Y285823D02*
D03*
X289500Y147400D02*
D03*
X341220Y198900D02*
D03*
X345500Y114600D02*
D03*
X330800Y166000D02*
D03*
X491700Y259000D02*
D03*
X227800Y242900D02*
D03*
X210100Y385600D02*
D03*
X211100Y402400D02*
D03*
X213500Y396000D02*
D03*
X174300Y463500D02*
D03*
X239800Y394300D02*
D03*
X215800Y388700D02*
D03*
X641300Y312800D02*
D03*
X638500Y273000D02*
D03*
X659700Y203100D02*
D03*
X658700Y257900D02*
D03*
X652800Y237200D02*
D03*
X764700D02*
D03*
X692175Y194453D02*
D03*
X654300Y226900D02*
D03*
X661100Y225600D02*
D03*
X617600Y304800D02*
D03*
X225300Y343000D02*
D03*
X647000Y598000D02*
D03*
X286100Y361500D02*
D03*
X171600Y434700D02*
D03*
X201700Y436100D02*
D03*
X252700Y417400D02*
D03*
X642900Y224000D02*
D03*
X338140Y362496D02*
D03*
X635600Y380200D02*
D03*
X629600Y374200D02*
D03*
X648400Y402400D02*
D03*
X649100Y393600D02*
D03*
X278000Y493300D02*
D03*
X319200Y478600D02*
D03*
X632800Y398011D02*
D03*
X111800Y266000D02*
D03*
X338500Y288000D02*
D03*
X638600Y273000D02*
D03*
X274850Y366250D02*
D03*
X398304Y557800D02*
D03*
X461350Y551100D02*
D03*
X455500Y592900D02*
D03*
X291500Y571000D02*
D03*
X485750Y538200D02*
D03*
X300000Y598300D02*
D03*
X382900Y294500D02*
D03*
X447412Y389906D02*
D03*
X646100Y325400D02*
D03*
Y343300D02*
D03*
X314800Y592200D02*
D03*
X434000Y593800D02*
D03*
X613300Y578900D02*
D03*
X261700Y562900D02*
D03*
X295500Y523159D02*
D03*
X329898Y229000D02*
D03*
X683600Y432600D02*
D03*
X358300Y536600D02*
D03*
X272300Y540300D02*
D03*
X361300Y520200D02*
D03*
X372500Y517000D02*
D03*
X607300Y456800D02*
D03*
X358000Y460600D02*
D03*
X494100Y466600D02*
D03*
X446000Y465000D02*
D03*
X392800Y463700D02*
D03*
X626000Y451200D02*
D03*
X464500Y530100D02*
D03*
X471000D02*
D03*
X378000Y519000D02*
D03*
X473949Y540900D02*
D03*
X372900Y540149D02*
D03*
X378500Y508300D02*
D03*
X467650Y502900D02*
D03*
X401100Y445200D02*
D03*
X618500Y416000D02*
D03*
X455700Y446000D02*
D03*
X517100Y440600D02*
D03*
X459400Y437500D02*
D03*
X507900D02*
D03*
X609000Y401800D02*
D03*
X596800Y428600D02*
D03*
X633700Y535100D02*
D03*
X510700Y533400D02*
D03*
X491045Y529000D02*
D03*
X610900Y530200D02*
D03*
X470800Y526300D02*
D03*
X394300Y446900D02*
D03*
X366423D02*
D03*
X363200Y432200D02*
D03*
X414900Y448200D02*
D03*
X400700Y435200D02*
D03*
X603500Y383600D02*
D03*
X395500Y258200D02*
D03*
X396800Y287600D02*
D03*
X393412Y387012D02*
D03*
X377200Y381500D02*
D03*
X402150D02*
D03*
X434877Y496377D02*
D03*
X424500Y423200D02*
D03*
X457100Y381500D02*
D03*
X466000Y413600D02*
D03*
X464100Y402500D02*
D03*
X577400Y400900D02*
D03*
X448800Y412000D02*
D03*
X466000Y416800D02*
D03*
X439300Y496500D02*
D03*
X238400Y402000D02*
D03*
X356000Y443900D02*
D03*
X357200Y387012D02*
D03*
X356967Y365453D02*
D03*
X442400Y465900D02*
D03*
X404300Y464800D02*
D03*
X400100Y435200D02*
D03*
X375333D02*
D03*
X629700Y348300D02*
D03*
X708200Y561500D02*
D03*
X633200Y409800D02*
D03*
X632900Y393600D02*
D03*
X425700Y709100D02*
D03*
X507000D02*
D03*
X192800Y570700D02*
D03*
D54*
X497032Y591646D02*
D03*
X499000Y597354D02*
D03*
X500969Y591646D02*
D03*
M02*
