G04 Layer_Color=32768*
%FSLAX25Y25*%
%MOIN*%
G70*
G01*
G75*
%ADD102C,0.00394*%
%ADD103C,0.00197*%
%ADD104C,0.05000*%
D102*
X315724Y62835D02*
Y67165D01*
X306276Y62835D02*
Y67165D01*
Y62835D02*
X315724D01*
X306276Y67165D02*
X315724D01*
X309130Y65000D02*
X312870D01*
X311000Y63130D02*
Y66870D01*
X265224Y85835D02*
Y90165D01*
X255776Y85835D02*
Y90165D01*
X265224D01*
X255776Y85835D02*
X265224D01*
X258630Y88000D02*
X262370D01*
X260500Y86130D02*
Y89870D01*
X270130Y50500D02*
X273870D01*
X272000Y48630D02*
Y52370D01*
X269835Y45776D02*
Y55224D01*
X274165Y45776D02*
Y55224D01*
X269835D02*
X274165D01*
X269835Y45776D02*
X274165D01*
X276630Y50500D02*
X280370D01*
X278500Y48630D02*
Y52370D01*
X280665Y45776D02*
Y55224D01*
X276335Y45776D02*
Y55224D01*
Y45776D02*
X280665D01*
X276335Y55224D02*
X280665D01*
X263630Y50500D02*
X267370D01*
X265500Y48630D02*
Y52370D01*
X267665Y45776D02*
Y55224D01*
X263335Y45776D02*
Y55224D01*
Y45776D02*
X267665D01*
X263335Y55224D02*
X267665D01*
X311000Y70130D02*
Y73870D01*
X309130Y72000D02*
X312870D01*
X306276Y74165D02*
X315724D01*
X306276Y69835D02*
X315724D01*
X306276D02*
Y74165D01*
X315724Y69835D02*
Y74165D01*
X629335Y180776D02*
X633665D01*
X629335Y190224D02*
X633665D01*
Y180776D02*
Y190224D01*
X629335Y180776D02*
Y190224D01*
X631500Y183630D02*
Y187370D01*
X629630Y185500D02*
X633370D01*
X256276Y174335D02*
Y178665D01*
X265724Y174335D02*
Y178665D01*
X256276Y174335D02*
X265724D01*
X256276Y178665D02*
X265724D01*
X259130Y176500D02*
X262870D01*
X261000Y174630D02*
Y178370D01*
X278724Y128835D02*
Y133165D01*
X269276Y128835D02*
Y133165D01*
X278724D01*
X269276Y128835D02*
X278724D01*
X272130Y131000D02*
X275870D01*
X274000Y129130D02*
Y132870D01*
X278724Y134335D02*
Y138665D01*
X269276Y134335D02*
Y138665D01*
X278724D01*
X269276Y134335D02*
X278724D01*
X272130Y136500D02*
X275870D01*
X274000Y134630D02*
Y138370D01*
X255776Y161335D02*
Y165665D01*
X265224Y161335D02*
Y165665D01*
X255776Y161335D02*
X265224D01*
X255776Y165665D02*
X265224D01*
X258630Y163500D02*
X262370D01*
X260500Y161630D02*
Y165370D01*
X255776Y167835D02*
Y172165D01*
X265224Y167835D02*
Y172165D01*
X255776Y167835D02*
X265224D01*
X255776Y172165D02*
X265224D01*
X258630Y170000D02*
X262370D01*
X260500Y168130D02*
Y171870D01*
X299630Y144244D02*
X303370D01*
X301500Y142374D02*
Y146114D01*
X299335Y139520D02*
Y148969D01*
X303665Y139520D02*
Y148969D01*
X299335D02*
X303665D01*
X299335Y139520D02*
X303665D01*
X305630Y144244D02*
X309370D01*
X307500Y142374D02*
Y146114D01*
X305335Y139520D02*
Y148969D01*
X309665Y139520D02*
Y148969D01*
X305335D02*
X309665D01*
X305335Y139520D02*
X309665D01*
X502724Y86835D02*
Y91165D01*
X493276Y86835D02*
Y91165D01*
Y86835D02*
X502724D01*
X493276Y91165D02*
X502724D01*
X496130Y89000D02*
X499870D01*
X498000Y87130D02*
Y90870D01*
X69500Y405630D02*
Y409370D01*
X67630Y407500D02*
X71370D01*
X64776Y409665D02*
X74224D01*
X64776Y405335D02*
X74224D01*
Y409665D01*
X64776Y405335D02*
Y409665D01*
X69000Y366630D02*
Y370370D01*
X67130Y368500D02*
X70870D01*
X64276Y366335D02*
X73724D01*
X64276Y370665D02*
X73724D01*
X64276Y366335D02*
Y370665D01*
X73724Y366335D02*
Y370665D01*
X69000Y375630D02*
Y379370D01*
X67130Y377500D02*
X70870D01*
X64276Y379665D02*
X73724D01*
X64276Y375335D02*
X73724D01*
Y379665D01*
X64276Y375335D02*
Y379665D01*
X69000Y383930D02*
Y387670D01*
X67130Y385800D02*
X70870D01*
X64276Y387965D02*
X73724D01*
X64276Y383635D02*
X73724D01*
Y387965D01*
X64276Y383635D02*
Y387965D01*
X82500Y408130D02*
Y411870D01*
X80630Y410000D02*
X84370D01*
X77776Y407835D02*
X87224D01*
X77776Y412165D02*
X87224D01*
X77776Y407835D02*
Y412165D01*
X87224Y407835D02*
Y412165D01*
X94000Y407630D02*
Y411370D01*
X92130Y409500D02*
X95870D01*
X89276Y407335D02*
X98724D01*
X89276Y411665D02*
X98724D01*
X89276Y407335D02*
Y411665D01*
X98724Y407335D02*
Y411665D01*
X104500Y405630D02*
Y409370D01*
X102630Y407500D02*
X106370D01*
X99776Y405335D02*
X109224D01*
X99776Y409665D02*
X109224D01*
X99776Y405335D02*
Y409665D01*
X109224Y405335D02*
Y409665D01*
X111630Y406500D02*
X115370D01*
X113500Y404630D02*
Y408370D01*
X111335Y401776D02*
Y411224D01*
X115665Y401776D02*
Y411224D01*
X111335D02*
X115665D01*
X111335Y401776D02*
X115665D01*
X118130Y406500D02*
X121870D01*
X120000Y404630D02*
Y408370D01*
X117835Y401776D02*
Y411224D01*
X122165Y401776D02*
Y411224D01*
X117835D02*
X122165D01*
X117835Y401776D02*
X122165D01*
X590453Y192630D02*
Y196370D01*
X588583Y194500D02*
X592323D01*
X585728Y192335D02*
X595177D01*
X585728Y196665D02*
X595177D01*
X585728Y192335D02*
Y196665D01*
X595177Y192335D02*
Y196665D01*
X591100Y435430D02*
Y439170D01*
X589230Y437300D02*
X592970D01*
X586376Y435135D02*
X595824D01*
X586376Y439465D02*
X595824D01*
X586376Y435135D02*
Y439465D01*
X595824Y435135D02*
Y439465D01*
X335600Y284230D02*
Y287970D01*
X333730Y286100D02*
X337470D01*
X330876Y288265D02*
X340324D01*
X330876Y283935D02*
X340324D01*
Y288265D01*
X330876Y283935D02*
Y288265D01*
X306400Y112832D02*
Y116769D01*
X304432Y114800D02*
X308369D01*
X298526Y111060D02*
X314274D01*
X298526Y118540D02*
X314274D01*
Y111060D02*
Y118540D01*
X298526Y111060D02*
Y118540D01*
X318830Y183800D02*
X322570D01*
X320700Y181930D02*
Y185670D01*
X322865Y179076D02*
Y188524D01*
X318535Y179076D02*
Y188524D01*
X322865D01*
X318535Y179076D02*
X322865D01*
X304556Y120730D02*
Y124470D01*
X302686Y122600D02*
X306426D01*
X299832Y120435D02*
X309280D01*
X299832Y124765D02*
X309280D01*
Y120435D02*
Y124765D01*
X299832Y120435D02*
Y124765D01*
X295830Y183400D02*
X299570D01*
X297700Y181530D02*
Y185270D01*
X299865Y178676D02*
Y188124D01*
X295535Y178676D02*
Y188124D01*
X299865D01*
X295535Y178676D02*
X299865D01*
X286830Y183400D02*
X290570D01*
X288700Y181530D02*
Y185270D01*
X290865Y178676D02*
Y188124D01*
X286535Y178676D02*
Y188124D01*
X290865D01*
X286535Y178676D02*
X290865D01*
X304230Y183447D02*
X307970D01*
X306100Y181577D02*
Y185317D01*
X308265Y178723D02*
Y188172D01*
X303935Y178723D02*
Y188172D01*
X308265D01*
X303935Y178723D02*
X308265D01*
X248230Y184200D02*
X251970D01*
X250100Y182330D02*
Y186070D01*
X252265Y179476D02*
Y188924D01*
X247935Y179476D02*
Y188924D01*
X252265D01*
X247935Y179476D02*
X252265D01*
X255430Y184000D02*
X259170D01*
X257300Y182130D02*
Y185870D01*
X255135Y179276D02*
Y188724D01*
X259465Y179276D02*
Y188724D01*
X255135Y179276D02*
X259465D01*
X255135Y188724D02*
X259465D01*
X262830Y184000D02*
X266570D01*
X264700Y182130D02*
Y185870D01*
X262535Y179276D02*
Y188724D01*
X266865Y179276D02*
Y188724D01*
X262535Y179276D02*
X266865D01*
X262535Y188724D02*
X266865D01*
X270430Y183600D02*
X274170D01*
X272300Y181730D02*
Y185470D01*
X270135Y178876D02*
Y188324D01*
X274465Y178876D02*
Y188324D01*
X270135Y178876D02*
X274465D01*
X270135Y188324D02*
X274465D01*
X225600Y135730D02*
Y139470D01*
X223730Y137600D02*
X227470D01*
X220876Y135435D02*
X230324D01*
X220876Y139765D02*
X230324D01*
Y135435D02*
Y139765D01*
X220876Y135435D02*
Y139765D01*
X226000Y125930D02*
Y129670D01*
X224130Y127800D02*
X227870D01*
X221276Y125635D02*
X230724D01*
X221276Y129965D02*
X230724D01*
Y125635D02*
Y129965D01*
X221276Y125635D02*
Y129965D01*
X225800Y117730D02*
Y121470D01*
X223930Y119600D02*
X227670D01*
X221076Y117435D02*
X230524D01*
X221076Y121765D02*
X230524D01*
Y117435D02*
Y121765D01*
X221076Y117435D02*
Y121765D01*
X225800Y99530D02*
Y103270D01*
X223930Y101400D02*
X227670D01*
X221076Y99235D02*
X230524D01*
X221076Y103565D02*
X230524D01*
Y99235D02*
Y103565D01*
X221076Y99235D02*
Y103565D01*
X226200Y107730D02*
Y111470D01*
X224330Y109600D02*
X228070D01*
X221476Y107435D02*
X230924D01*
X221476Y111765D02*
X230924D01*
Y107435D02*
Y111765D01*
X221476Y107435D02*
Y111765D01*
X278630Y183600D02*
X282370D01*
X280500Y181730D02*
Y185470D01*
X282665Y178876D02*
Y188324D01*
X278335Y178876D02*
Y188324D01*
X282665D01*
X278335Y178876D02*
X282665D01*
X200200Y532530D02*
Y536270D01*
X198330Y534400D02*
X202070D01*
X195476Y532235D02*
X204924D01*
X195476Y536565D02*
X204924D01*
Y532235D02*
Y536565D01*
X195476Y532235D02*
Y536565D01*
X311000Y75630D02*
Y79370D01*
X309130Y77500D02*
X312870D01*
X306276Y75335D02*
X315724D01*
X306276Y79665D02*
X315724D01*
Y75335D02*
Y79665D01*
X306276Y75335D02*
Y79665D01*
X311000Y81130D02*
Y84870D01*
X309130Y83000D02*
X312870D01*
X306276Y80835D02*
X315724D01*
X306276Y85165D02*
X315724D01*
Y80835D02*
Y85165D01*
X306276Y80835D02*
Y85165D01*
X105400Y227631D02*
Y231569D01*
X103432Y229600D02*
X107369D01*
X97526Y233340D02*
X113274D01*
X97526Y225860D02*
X113274D01*
X97526D02*
Y233340D01*
X113274Y225860D02*
Y233340D01*
X105400Y216431D02*
Y220369D01*
X103432Y218400D02*
X107369D01*
X97526Y222140D02*
X113274D01*
X97526Y214660D02*
X113274D01*
X97526D02*
Y222140D01*
X113274Y214660D02*
Y222140D01*
X104400Y125130D02*
Y128870D01*
X102530Y127000D02*
X106270D01*
X99676Y129165D02*
X109124D01*
X99676Y124835D02*
X109124D01*
X99676D02*
Y129165D01*
X109124Y124835D02*
Y129165D01*
X104800Y91930D02*
Y95670D01*
X102930Y93800D02*
X106670D01*
X100076Y91635D02*
X109524D01*
X100076Y95965D02*
X109524D01*
Y91635D02*
Y95965D01*
X100076Y91635D02*
Y95965D01*
X106553Y180930D02*
Y184670D01*
X104683Y182800D02*
X108423D01*
X101828Y184965D02*
X111277D01*
X101828Y180635D02*
X111277D01*
X101828D02*
Y184965D01*
X111277Y180635D02*
Y184965D01*
X105800Y160431D02*
Y164369D01*
X103832Y162400D02*
X107769D01*
X97926Y166140D02*
X113674D01*
X97926Y158660D02*
X113674D01*
X97926D02*
Y166140D01*
X113674Y158660D02*
Y166140D01*
X106000Y172431D02*
Y176369D01*
X104032Y174400D02*
X107969D01*
X98126Y178140D02*
X113874D01*
X98126Y170660D02*
X113874D01*
X98126D02*
Y178140D01*
X113874Y170660D02*
Y178140D01*
X105247Y237730D02*
Y241470D01*
X103377Y239600D02*
X107117D01*
X100523Y241765D02*
X109972D01*
X100523Y237435D02*
X109972D01*
X100523D02*
Y241765D01*
X109972Y237435D02*
Y241765D01*
X106800Y114031D02*
Y117969D01*
X104832Y116000D02*
X108769D01*
X98926Y119740D02*
X114674D01*
X98926Y112260D02*
X114674D01*
X98926D02*
Y119740D01*
X114674Y112260D02*
Y119740D01*
X106800Y103431D02*
Y107369D01*
X104832Y105400D02*
X108769D01*
X98926Y109140D02*
X114674D01*
X98926Y101660D02*
X114674D01*
X98926D02*
Y109140D01*
X114674Y101660D02*
Y109140D01*
X105800Y149730D02*
Y153470D01*
X103930Y151600D02*
X107670D01*
X101076Y153765D02*
X110524D01*
X101076Y149435D02*
X110524D01*
X101076D02*
Y153765D01*
X110524Y149435D02*
Y153765D01*
X105400Y205130D02*
Y208870D01*
X103530Y207000D02*
X107270D01*
X100676Y209165D02*
X110124D01*
X100676Y204835D02*
X110124D01*
X100676D02*
Y209165D01*
X110124Y204835D02*
Y209165D01*
X103200Y289530D02*
Y293270D01*
X101330Y291400D02*
X105070D01*
X98476Y293565D02*
X107924D01*
X98476Y289235D02*
X107924D01*
X98476D02*
Y293565D01*
X107924Y289235D02*
Y293565D01*
X102000Y261330D02*
Y265070D01*
X100130Y263200D02*
X103870D01*
X97276Y261035D02*
X106724D01*
X97276Y265365D02*
X106724D01*
Y261035D02*
Y265365D01*
X97276Y261035D02*
Y265365D01*
X103000Y270631D02*
Y274569D01*
X101032Y272600D02*
X104969D01*
X95126Y276340D02*
X110874D01*
X95126Y268860D02*
X110874D01*
X95126D02*
Y276340D01*
X110874Y268860D02*
Y276340D01*
X103000Y280831D02*
Y284769D01*
X101032Y282800D02*
X104969D01*
X95126Y286540D02*
X110874D01*
X95126Y279060D02*
X110874D01*
X95126D02*
Y286540D01*
X110874Y279060D02*
Y286540D01*
X53400Y453631D02*
Y457569D01*
X51431Y455600D02*
X55369D01*
X81800Y453432D02*
Y457369D01*
X79832Y455400D02*
X83769D01*
X196956Y445530D02*
Y449270D01*
X195086Y447400D02*
X198826D01*
X192232Y445235D02*
X201680D01*
X192232Y449565D02*
X201680D01*
Y445235D02*
Y449565D01*
X192232Y445235D02*
Y449565D01*
X125130Y481000D02*
X128870D01*
X127000Y479130D02*
Y482870D01*
X129165Y476276D02*
Y485724D01*
X124835Y476276D02*
Y485724D01*
Y476276D02*
X129165D01*
X124835Y485724D02*
X129165D01*
X196630Y301000D02*
X200370D01*
X198500Y299130D02*
Y302870D01*
X200665Y296276D02*
Y305724D01*
X196335Y296276D02*
Y305724D01*
X200665D01*
X196335Y296276D02*
X200665D01*
X219630Y305000D02*
X223370D01*
X221500Y303130D02*
Y306870D01*
X219335Y300276D02*
Y309725D01*
X223665Y300276D02*
Y309725D01*
X219335D02*
X223665D01*
X219335Y300276D02*
X223665D01*
X213630Y296000D02*
X217370D01*
X215500Y294130D02*
Y297870D01*
X217665Y291276D02*
Y300725D01*
X213335Y291276D02*
Y300725D01*
X217665D01*
X213335Y291276D02*
X217665D01*
X325630Y352500D02*
X329370D01*
X327500Y350630D02*
Y354370D01*
X329665Y347776D02*
Y357224D01*
X325335Y347776D02*
Y357224D01*
Y347776D02*
X329665D01*
X325335Y357224D02*
X329665D01*
X282130Y268000D02*
X285870D01*
X284000Y266130D02*
Y269870D01*
X281835Y263276D02*
Y272725D01*
X286165Y263276D02*
Y272725D01*
X281835D02*
X286165D01*
X281835Y263276D02*
X286165D01*
X337500Y314630D02*
Y318370D01*
X335630Y316500D02*
X339370D01*
X332775Y314335D02*
X342224D01*
X332775Y318665D02*
X342224D01*
X332775Y314335D02*
Y318665D01*
X342224Y314335D02*
Y318665D01*
X336630Y294000D02*
X340370D01*
X338500Y292130D02*
Y295870D01*
X336335Y289276D02*
Y298725D01*
X340665Y289276D02*
Y298725D01*
X336335D02*
X340665D01*
X336335Y289276D02*
X340665D01*
X319130Y293256D02*
X322870D01*
X321000Y291386D02*
Y295126D01*
X318835Y288532D02*
Y297980D01*
X323165Y288532D02*
Y297980D01*
X318835D02*
X323165D01*
X318835Y288532D02*
X323165D01*
X296130Y293256D02*
X299870D01*
X298000Y291386D02*
Y295126D01*
X295835Y288532D02*
Y297980D01*
X300165Y288532D02*
Y297980D01*
X295835D02*
X300165D01*
X295835Y288532D02*
X300165D01*
X250500Y309130D02*
Y312870D01*
X248630Y311000D02*
X252370D01*
X245776Y313165D02*
X255225D01*
X245776Y308835D02*
X255225D01*
Y313165D01*
X245776Y308835D02*
Y313165D01*
X252000Y281130D02*
Y284870D01*
X250130Y283000D02*
X253870D01*
X247276Y285165D02*
X256725D01*
X247276Y280835D02*
X256725D01*
Y285165D01*
X247276Y280835D02*
Y285165D01*
X219630Y287500D02*
X223370D01*
X221500Y285630D02*
Y289370D01*
X219335Y282776D02*
Y292224D01*
X223665Y282776D02*
Y292224D01*
X219335D02*
X223665D01*
X219335Y282776D02*
X223665D01*
X337000Y338130D02*
Y341870D01*
X335130Y340000D02*
X338870D01*
X332276Y337835D02*
X341724D01*
X332276Y342165D02*
X341724D01*
X332276Y337835D02*
Y342165D01*
X341724Y337835D02*
Y342165D01*
X299744Y328130D02*
Y331870D01*
X297874Y330000D02*
X301614D01*
X295020Y327835D02*
X304468D01*
X295020Y332165D02*
X304468D01*
X295020Y327835D02*
Y332165D01*
X304468Y327835D02*
Y332165D01*
X338000Y350430D02*
Y354170D01*
X336130Y352300D02*
X339870D01*
X333276Y354465D02*
X342724D01*
X333276Y350135D02*
X342724D01*
Y354465D01*
X333276Y350135D02*
Y354465D01*
X337500Y305630D02*
Y309370D01*
X335630Y307500D02*
X339370D01*
X332776Y305335D02*
X342224D01*
X332776Y309665D02*
X342224D01*
X332776Y305335D02*
Y309665D01*
X342224Y305335D02*
Y309665D01*
X248000Y321630D02*
Y325370D01*
X246130Y323500D02*
X249870D01*
X243276Y321335D02*
X252724D01*
X243276Y325665D02*
X252724D01*
X243276Y321335D02*
Y325665D01*
X252724Y321335D02*
Y325665D01*
X316630Y267744D02*
X320370D01*
X318500Y265874D02*
Y269614D01*
X316335Y263020D02*
Y272468D01*
X320665Y263020D02*
Y272468D01*
X316335D02*
X320665D01*
X316335Y263020D02*
X320665D01*
X181630Y277500D02*
X185370D01*
X183500Y275630D02*
Y279370D01*
X181335Y272776D02*
Y282224D01*
X185665Y272776D02*
Y282224D01*
X181335Y272776D02*
X185665D01*
X181335Y282224D02*
X185665D01*
X181630Y259756D02*
X185370D01*
X183500Y257886D02*
Y261626D01*
X185665Y255031D02*
Y264480D01*
X181335Y255031D02*
Y264480D01*
X185665D01*
X181335Y255031D02*
X185665D01*
X196630Y286744D02*
X200370D01*
X198500Y284874D02*
Y288614D01*
X200665Y282020D02*
Y291468D01*
X196335Y282020D02*
Y291468D01*
X200665D01*
X196335Y282020D02*
X200665D01*
X348830Y157600D02*
X352570D01*
X350700Y155730D02*
Y159470D01*
X348535Y152876D02*
Y162324D01*
X352865Y152876D02*
Y162324D01*
X348535Y152876D02*
X352865D01*
X348535Y162324D02*
X352865D01*
X348830Y146300D02*
X352570D01*
X350700Y144430D02*
Y148170D01*
X352865Y141576D02*
Y151024D01*
X348535Y141576D02*
Y151024D01*
X352865D01*
X348535Y141576D02*
X352865D01*
X465630Y317244D02*
X469370D01*
X467500Y315374D02*
Y319114D01*
X465335Y312520D02*
Y321968D01*
X469665Y312520D02*
Y321968D01*
X465335D02*
X469665D01*
X465335Y312520D02*
X469665D01*
X139630Y406000D02*
X143370D01*
X141500Y404130D02*
Y407870D01*
X139335Y401276D02*
Y410724D01*
X143665Y401276D02*
Y410724D01*
X139335D02*
X143665D01*
X139335Y401276D02*
X143665D01*
X131130Y406000D02*
X134870D01*
X133000Y404130D02*
Y407870D01*
X130835Y401276D02*
Y410724D01*
X135165Y401276D02*
Y410724D01*
X130835D02*
X135165D01*
X130835Y401276D02*
X135165D01*
X124130Y406000D02*
X127870D01*
X126000Y404130D02*
Y407870D01*
X123835Y401276D02*
Y410724D01*
X128165Y401276D02*
Y410724D01*
X123835D02*
X128165D01*
X123835Y401276D02*
X128165D01*
X125000Y466130D02*
Y469870D01*
X123130Y468000D02*
X126870D01*
X120276Y465835D02*
X129724D01*
X120276Y470165D02*
X129724D01*
X120276Y465835D02*
Y470165D01*
X129724Y465835D02*
Y470165D01*
X123130Y456000D02*
X126870D01*
X125000Y454130D02*
Y457870D01*
X127165Y451276D02*
Y460724D01*
X122835Y451276D02*
Y460724D01*
Y451276D02*
X127165D01*
X122835Y460724D02*
X127165D01*
X280530Y129200D02*
X284270D01*
X282400Y127330D02*
Y131070D01*
X280235Y124476D02*
Y133924D01*
X284565Y124476D02*
Y133924D01*
X280235D02*
X284565D01*
X280235Y124476D02*
X284565D01*
X280530Y140600D02*
X284270D01*
X282400Y138730D02*
Y142470D01*
X284565Y135876D02*
Y145324D01*
X280235Y135876D02*
Y145324D01*
Y135876D02*
X284565D01*
X280235Y145324D02*
X284565D01*
X311230Y183200D02*
X314970D01*
X313100Y181330D02*
Y185070D01*
X310935Y178476D02*
Y187924D01*
X315265Y178476D02*
Y187924D01*
X310935Y178476D02*
X315265D01*
X310935Y187924D02*
X315265D01*
X239430Y184200D02*
X243170D01*
X241300Y182330D02*
Y186070D01*
X239135Y179476D02*
Y188924D01*
X243465Y179476D02*
Y188924D01*
X239135Y179476D02*
X243465D01*
X239135Y188924D02*
X243465D01*
X229230Y184800D02*
X232970D01*
X231100Y182930D02*
Y186670D01*
X228935Y180076D02*
Y189524D01*
X233265Y180076D02*
Y189524D01*
X228935Y180076D02*
X233265D01*
X228935Y189524D02*
X233265D01*
X439130Y134200D02*
X442870D01*
X441000Y132330D02*
Y136070D01*
X438835Y129476D02*
Y138924D01*
X443165Y129476D02*
Y138924D01*
X438835D02*
X443165D01*
X438835Y129476D02*
X443165D01*
X449330Y134000D02*
X453070D01*
X451200Y132130D02*
Y135870D01*
X449035Y129276D02*
Y138724D01*
X453365Y129276D02*
Y138724D01*
X449035D02*
X453365D01*
X449035Y129276D02*
X453365D01*
X459530Y134200D02*
X463270D01*
X461400Y132330D02*
Y136070D01*
X459235Y129476D02*
Y138924D01*
X463565Y129476D02*
Y138924D01*
X459235D02*
X463565D01*
X459235Y129476D02*
X463565D01*
X469530Y133800D02*
X473270D01*
X471400Y131930D02*
Y135670D01*
X469235Y129076D02*
Y138524D01*
X473565Y129076D02*
Y138524D01*
X469235D02*
X473565D01*
X469235Y129076D02*
X473565D01*
X478930Y134200D02*
X482670D01*
X480800Y132330D02*
Y136070D01*
X478635Y129476D02*
Y138924D01*
X482965Y129476D02*
Y138924D01*
X478635D02*
X482965D01*
X478635Y129476D02*
X482965D01*
X489130Y134400D02*
X492870D01*
X491000Y132530D02*
Y136270D01*
X488835Y129676D02*
Y139124D01*
X493165Y129676D02*
Y139124D01*
X488835D02*
X493165D01*
X488835Y129676D02*
X493165D01*
X419330Y135600D02*
X423070D01*
X421200Y133730D02*
Y137470D01*
X419035Y130876D02*
Y140324D01*
X423365Y130876D02*
Y140324D01*
X419035D02*
X423365D01*
X419035Y130876D02*
X423365D01*
X409130Y135600D02*
X412870D01*
X411000Y133730D02*
Y137470D01*
X408835Y130876D02*
Y140324D01*
X413165Y130876D02*
Y140324D01*
X408835D02*
X413165D01*
X408835Y130876D02*
X413165D01*
X533130Y54844D02*
X536870D01*
X535000Y52974D02*
Y56714D01*
X537165Y50120D02*
Y59569D01*
X532835Y50120D02*
Y59569D01*
X537165D01*
X532835Y50120D02*
X537165D01*
X168000Y210730D02*
Y214470D01*
X166130Y212600D02*
X169870D01*
X163276Y214765D02*
X172724D01*
X163276Y210435D02*
X172724D01*
X163276D02*
Y214765D01*
X172724Y210435D02*
Y214765D01*
X167800Y200730D02*
Y204470D01*
X165930Y202600D02*
X169670D01*
X163076Y204765D02*
X172524D01*
X163076Y200435D02*
X172524D01*
X163076D02*
Y204765D01*
X172524Y200435D02*
Y204765D01*
X196400Y180130D02*
Y183870D01*
X194530Y182000D02*
X198270D01*
X191676Y184165D02*
X201124D01*
X191676Y179835D02*
X201124D01*
Y184165D01*
X191676Y179835D02*
Y184165D01*
X390730Y81047D02*
X394470D01*
X392600Y79177D02*
Y82917D01*
X394765Y76323D02*
Y85772D01*
X390435Y76323D02*
Y85772D01*
X394765D01*
X390435Y76323D02*
X394765D01*
X369530Y82247D02*
X373270D01*
X371400Y80377D02*
Y84117D01*
X373565Y77523D02*
Y86972D01*
X369235Y77523D02*
Y86972D01*
X373565D01*
X369235Y77523D02*
X373565D01*
X159600Y569530D02*
Y573270D01*
X157730Y571400D02*
X161470D01*
X154876Y573565D02*
X164324D01*
X154876Y569235D02*
X164324D01*
X154876D02*
Y573565D01*
X164324Y569235D02*
Y573565D01*
X141000Y569130D02*
Y572870D01*
X139130Y571000D02*
X142870D01*
X136276Y573165D02*
X145724D01*
X136276Y568835D02*
X145724D01*
X136276D02*
Y573165D01*
X145724Y568835D02*
Y573165D01*
X159400Y561130D02*
Y564870D01*
X157530Y563000D02*
X161270D01*
X154676Y560835D02*
X164124D01*
X154676Y565165D02*
X164124D01*
Y560835D02*
Y565165D01*
X154676Y560835D02*
Y565165D01*
X141000Y561130D02*
Y564870D01*
X139130Y563000D02*
X142870D01*
X136276Y565165D02*
X145724D01*
X136276Y560835D02*
X145724D01*
X136276D02*
Y565165D01*
X145724Y560835D02*
Y565165D01*
X141000Y554730D02*
Y558470D01*
X139130Y556600D02*
X142870D01*
X136276Y554435D02*
X145724D01*
X136276Y558765D02*
X145724D01*
Y554435D02*
Y558765D01*
X136276Y554435D02*
Y558765D01*
X140600Y546930D02*
Y550670D01*
X138730Y548800D02*
X142470D01*
X135876Y546635D02*
X145324D01*
X135876Y550965D02*
X145324D01*
Y546635D02*
Y550965D01*
X135876Y546635D02*
Y550965D01*
X159353Y551930D02*
Y555670D01*
X157483Y553800D02*
X161223D01*
X154628Y555965D02*
X164077D01*
X154628Y551635D02*
X164077D01*
X154628D02*
Y555965D01*
X164077Y551635D02*
Y555965D01*
X159200Y543330D02*
Y547070D01*
X157330Y545200D02*
X161070D01*
X154476Y543035D02*
X163924D01*
X154476Y547365D02*
X163924D01*
Y543035D02*
Y547365D01*
X154476Y543035D02*
Y547365D01*
X84830Y570100D02*
X88570D01*
X86700Y568230D02*
Y571970D01*
X88865Y565376D02*
Y574824D01*
X84535Y565376D02*
Y574824D01*
Y565376D02*
X88865D01*
X84535Y574824D02*
X88865D01*
X204600Y555330D02*
Y559070D01*
X202730Y557200D02*
X206470D01*
X199876Y559365D02*
X209324D01*
X199876Y555035D02*
X209324D01*
Y559365D01*
X199876Y555035D02*
Y559365D01*
X152630Y39800D02*
X156370D01*
X154500Y37930D02*
Y41670D01*
X156665Y35076D02*
Y44524D01*
X152335Y35076D02*
Y44524D01*
X156665D01*
X152335Y35076D02*
X156665D01*
X205800Y514530D02*
Y518270D01*
X203930Y516400D02*
X207670D01*
X201076Y518565D02*
X210524D01*
X201076Y514235D02*
X210524D01*
X201076D02*
Y518565D01*
X210524Y514235D02*
Y518565D01*
X140630Y41000D02*
X144370D01*
X142500Y39130D02*
Y42870D01*
X144665Y36276D02*
Y45724D01*
X140335Y36276D02*
Y45724D01*
X144665D01*
X140335Y36276D02*
X144665D01*
X129230Y40800D02*
X132970D01*
X131100Y38930D02*
Y42670D01*
X133265Y36076D02*
Y45524D01*
X128935Y36076D02*
Y45524D01*
X133265D01*
X128935Y36076D02*
X133265D01*
X116830Y40444D02*
X120570D01*
X118700Y38574D02*
Y42314D01*
X120865Y35720D02*
Y45169D01*
X116535Y35720D02*
Y45169D01*
X120865D01*
X116535Y35720D02*
X120865D01*
X105230Y41600D02*
X108970D01*
X107100Y39730D02*
Y43470D01*
X109265Y36876D02*
Y46324D01*
X104935Y36876D02*
Y46324D01*
X109265D01*
X104935Y36876D02*
X109265D01*
X194800Y479130D02*
Y482870D01*
X192930Y481000D02*
X196670D01*
X190076Y478835D02*
X199524D01*
X190076Y483165D02*
X199524D01*
Y478835D02*
Y483165D01*
X190076Y478835D02*
Y483165D01*
X207956Y445530D02*
Y449270D01*
X206086Y447400D02*
X209826D01*
X203232Y445235D02*
X212680D01*
X203232Y449565D02*
X212680D01*
Y445235D02*
Y449565D01*
X203232Y445235D02*
Y449565D01*
X461930Y225900D02*
X465670D01*
X463800Y224030D02*
Y227770D01*
X465965Y221176D02*
Y230624D01*
X461635Y221176D02*
Y230624D01*
Y221176D02*
X465965D01*
X461635Y230624D02*
X465965D01*
X445330Y226700D02*
X449070D01*
X447200Y224830D02*
Y228570D01*
X449365Y221976D02*
Y231424D01*
X445035Y221976D02*
Y231424D01*
Y221976D02*
X449365D01*
X445035Y231424D02*
X449365D01*
X510930Y70000D02*
X514670D01*
X512800Y68130D02*
Y71870D01*
X510635Y65276D02*
Y74724D01*
X514965Y65276D02*
Y74724D01*
X510635D02*
X514965D01*
X510635Y65276D02*
X514965D01*
X510730Y58400D02*
X514470D01*
X512600Y56530D02*
Y60270D01*
X510435Y53676D02*
Y63124D01*
X514765Y53676D02*
Y63124D01*
X510435D02*
X514765D01*
X510435Y53676D02*
X514765D01*
X194600Y514530D02*
Y518270D01*
X192730Y516400D02*
X196470D01*
X189876Y514235D02*
X199324D01*
X189876Y518565D02*
X199324D01*
Y514235D02*
Y518565D01*
X189876Y514235D02*
Y518565D01*
X210244Y479330D02*
Y483070D01*
X208374Y481200D02*
X212114D01*
X205520Y483365D02*
X214969D01*
X205520Y479035D02*
X214969D01*
X205520D02*
Y483365D01*
X214969Y479035D02*
Y483365D01*
X204730Y375644D02*
X208470D01*
X206600Y373774D02*
Y377514D01*
X204435Y370920D02*
Y380369D01*
X208765Y370920D02*
Y380369D01*
X204435Y370920D02*
X208765D01*
X204435Y380369D02*
X208765D01*
X195730Y381600D02*
X199470D01*
X197600Y379730D02*
Y383470D01*
X195435Y376876D02*
Y386324D01*
X199765Y376876D02*
Y386324D01*
X195435Y376876D02*
X199765D01*
X195435Y386324D02*
X199765D01*
X204530Y339200D02*
X208270D01*
X206400Y337330D02*
Y341070D01*
X204235Y334476D02*
Y343924D01*
X208565Y334476D02*
Y343924D01*
X204235Y334476D02*
X208565D01*
X204235Y343924D02*
X208565D01*
X204130Y353200D02*
X207870D01*
X206000Y351330D02*
Y355070D01*
X208165Y348476D02*
Y357924D01*
X203835Y348476D02*
Y357924D01*
X208165D01*
X203835Y348476D02*
X208165D01*
X194530Y345400D02*
X198270D01*
X196400Y343530D02*
Y347270D01*
X194235Y340676D02*
Y350124D01*
X198565Y340676D02*
Y350124D01*
X194235Y340676D02*
X198565D01*
X194235Y350124D02*
X198565D01*
X204730Y386600D02*
X208470D01*
X206600Y384730D02*
Y388470D01*
X208765Y381876D02*
Y391324D01*
X204435Y381876D02*
Y391324D01*
X208765D01*
X204435Y381876D02*
X208765D01*
X256630Y351500D02*
X260370D01*
X258500Y349630D02*
Y353370D01*
X260665Y346776D02*
Y356224D01*
X256335Y346776D02*
Y356224D01*
Y346776D02*
X260665D01*
X256335Y356224D02*
X260665D01*
X249000Y345630D02*
Y349370D01*
X247130Y347500D02*
X250870D01*
X244276Y349665D02*
X253725D01*
X244276Y345335D02*
X253725D01*
Y349665D01*
X244276Y345335D02*
Y349665D01*
X288130Y352500D02*
X291870D01*
X290000Y350630D02*
Y354370D01*
X292165Y347776D02*
Y357224D01*
X287835Y347776D02*
Y357224D01*
Y347776D02*
X292165D01*
X287835Y357224D02*
X292165D01*
X279130Y352500D02*
X282870D01*
X281000Y350630D02*
Y354370D01*
X278835Y347776D02*
Y357224D01*
X283165Y347776D02*
Y357224D01*
X278835D02*
X283165D01*
X278835Y347776D02*
X283165D01*
X335500Y269630D02*
Y273370D01*
X333630Y271500D02*
X337370D01*
X330776Y269335D02*
X340224D01*
X330776Y273665D02*
X340224D01*
X330776Y269335D02*
Y273665D01*
X340224Y269335D02*
Y273665D01*
X257630Y268500D02*
X261370D01*
X259500Y266630D02*
Y270370D01*
X261665Y263776D02*
Y273224D01*
X257335Y263776D02*
Y273224D01*
Y263776D02*
X261665D01*
X257335Y273224D02*
X261665D01*
X247130Y268500D02*
X250870D01*
X249000Y266630D02*
Y270370D01*
X246835Y263776D02*
Y273225D01*
X251165Y263776D02*
Y273225D01*
X246835D02*
X251165D01*
X246835Y263776D02*
X251165D01*
X629130Y464244D02*
X632870D01*
X631000Y462374D02*
Y466114D01*
X633165Y459520D02*
Y468968D01*
X628835Y459520D02*
Y468968D01*
Y459520D02*
X633165D01*
X628835Y468968D02*
X633165D01*
D103*
X41392Y472923D02*
X65408D01*
X41392Y438277D02*
X65408D01*
Y472923D01*
X41392Y438277D02*
Y472923D01*
X69792Y438077D02*
X93808D01*
X69792Y472723D02*
X93808D01*
X69792Y438077D02*
Y472723D01*
X93808Y438077D02*
Y472723D01*
D104*
X-3000Y-3000D02*
Y15000D01*
Y-3000D02*
X14000D01*
X-3000Y636000D02*
Y653000D01*
X15000D01*
X673000Y-3000D02*
Y14000D01*
X655000Y-3000D02*
X673000D01*
M02*
