G04 Layer_Color=16711935*
%FSLAX25Y25*%
%MOIN*%
G70*
G01*
G75*
%ADD34C,0.05000*%
%ADD36C,0.06500*%
%ADD48C,0.08500*%
%ADD61R,0.04043X0.03256*%
%ADD62R,0.04043X0.03650*%
%ADD64R,0.03650X0.04043*%
%ADD66R,0.03256X0.04043*%
%ADD78C,0.25500*%
%ADD79R,0.06406X0.06406*%
%ADD80C,0.06406*%
%ADD81C,0.06799*%
%ADD82R,0.05500X0.05500*%
%ADD83C,0.05500*%
%ADD84C,0.07000*%
%ADD85C,0.03900*%
%ADD86O,0.15000X0.05000*%
%ADD87O,0.05000X0.15000*%
%ADD88O,0.17000X0.06000*%
%ADD89C,0.13000*%
%ADD90R,0.06700X0.06700*%
%ADD91C,0.15500*%
%ADD92R,0.06500X0.06500*%
%ADD93C,0.11100*%
%ADD94C,0.09000*%
%ADD95C,0.06700*%
%ADD96C,0.07100*%
%ADD97C,0.04437*%
%ADD98R,0.06500X0.06500*%
%ADD99C,0.03500*%
D34*
X169500Y256800D02*
D03*
Y276000D02*
D03*
X332700Y142100D02*
D03*
Y161300D02*
D03*
D36*
X564000Y45000D02*
D03*
Y25000D02*
D03*
X594000D02*
D03*
Y45000D02*
D03*
X249000Y98500D02*
D03*
X259000D02*
D03*
X282000D02*
D03*
X292000D02*
D03*
X253000Y69500D02*
D03*
X258000Y79500D02*
D03*
X263000Y69500D02*
D03*
X268000Y79500D02*
D03*
X273000Y69500D02*
D03*
X278000Y79500D02*
D03*
X283000Y69500D02*
D03*
X73500Y557700D02*
D03*
Y537700D02*
D03*
X103500D02*
D03*
Y557700D02*
D03*
X46700Y576100D02*
D03*
Y566100D02*
D03*
Y556100D02*
D03*
Y546100D02*
D03*
Y536100D02*
D03*
Y526100D02*
D03*
Y516100D02*
D03*
D48*
X239800Y56500D02*
D03*
X301200D02*
D03*
D61*
X512600Y55447D02*
D03*
Y61353D02*
D03*
X512800Y67047D02*
D03*
Y72953D02*
D03*
X476200Y409153D02*
D03*
Y403247D02*
D03*
X492800Y408353D02*
D03*
Y402447D02*
D03*
X86700Y573053D02*
D03*
Y567147D02*
D03*
X411000Y132647D02*
D03*
Y138553D02*
D03*
X421200Y132647D02*
D03*
Y138553D02*
D03*
X491000Y131447D02*
D03*
Y137353D02*
D03*
X480800Y131247D02*
D03*
Y137153D02*
D03*
X471400Y130847D02*
D03*
Y136753D02*
D03*
X461400Y131247D02*
D03*
Y137153D02*
D03*
X451200Y131047D02*
D03*
Y136953D02*
D03*
X441000Y131247D02*
D03*
Y137153D02*
D03*
D62*
X249000Y265744D02*
D03*
Y271256D02*
D03*
X259500Y271256D02*
D03*
Y265744D02*
D03*
X281000Y349744D02*
D03*
Y355256D02*
D03*
X290000D02*
D03*
Y349744D02*
D03*
X258500Y354256D02*
D03*
Y348744D02*
D03*
X282400Y143356D02*
D03*
Y137844D02*
D03*
Y126444D02*
D03*
Y131956D02*
D03*
X145000Y457756D02*
D03*
Y452244D02*
D03*
X152000Y457756D02*
D03*
Y452244D02*
D03*
X125000Y403644D02*
D03*
Y409156D02*
D03*
X131600Y403444D02*
D03*
Y408956D02*
D03*
X141400Y403044D02*
D03*
Y408556D02*
D03*
X401800Y383244D02*
D03*
Y388756D02*
D03*
X318500Y264988D02*
D03*
Y270500D02*
D03*
X221500Y284744D02*
D03*
Y290256D02*
D03*
X298000Y290500D02*
D03*
Y296012D02*
D03*
X321000Y290500D02*
D03*
Y296012D02*
D03*
X338500Y291244D02*
D03*
Y296756D02*
D03*
X284000Y265244D02*
D03*
Y270756D02*
D03*
X327500Y355256D02*
D03*
Y349744D02*
D03*
X221500Y302244D02*
D03*
Y307756D02*
D03*
X159400Y489156D02*
D03*
Y483644D02*
D03*
X119200Y404444D02*
D03*
Y409956D02*
D03*
X113000Y404044D02*
D03*
Y409556D02*
D03*
D64*
X338256Y271500D02*
D03*
X332744D02*
D03*
X246244Y347500D02*
D03*
X251756D02*
D03*
X201844Y557200D02*
D03*
X207356D02*
D03*
X193644Y182000D02*
D03*
X199156D02*
D03*
X250756Y323500D02*
D03*
X245244D02*
D03*
X340256Y307500D02*
D03*
X334744D02*
D03*
X335244Y352300D02*
D03*
X340756D02*
D03*
X302500Y330000D02*
D03*
X296988D02*
D03*
X339756Y340000D02*
D03*
X334244D02*
D03*
X249244Y283000D02*
D03*
X254756D02*
D03*
X247744Y311000D02*
D03*
X253256D02*
D03*
X340256Y316500D02*
D03*
X334744D02*
D03*
X332844Y286100D02*
D03*
X338356D02*
D03*
X107156Y406600D02*
D03*
X101644D02*
D03*
X95356Y406800D02*
D03*
X89844D02*
D03*
X83356Y404000D02*
D03*
X77844D02*
D03*
X66244Y385800D02*
D03*
X71756D02*
D03*
X71556Y368600D02*
D03*
X66044D02*
D03*
X66244Y354000D02*
D03*
X71756D02*
D03*
X66644Y404000D02*
D03*
X72156D02*
D03*
D66*
X540553Y437800D02*
D03*
X534647D02*
D03*
X539906Y195000D02*
D03*
X534000D02*
D03*
D78*
X30000Y30000D02*
D03*
X640000D02*
D03*
Y620000D02*
D03*
X30000D02*
D03*
D79*
X371800Y68600D02*
D03*
X520400Y455200D02*
D03*
X451000Y455600D02*
D03*
X501000Y123000D02*
D03*
D80*
X381800Y68600D02*
D03*
X391800D02*
D03*
X490400Y455200D02*
D03*
X500400D02*
D03*
X510400D02*
D03*
X461000Y455600D02*
D03*
X471000D02*
D03*
X501000Y113000D02*
D03*
X491000Y123000D02*
D03*
Y113000D02*
D03*
X481000Y123000D02*
D03*
Y113000D02*
D03*
X471000Y123000D02*
D03*
Y113000D02*
D03*
X461000Y123000D02*
D03*
Y113000D02*
D03*
X451000Y123000D02*
D03*
Y113000D02*
D03*
X441000Y123000D02*
D03*
Y113000D02*
D03*
X431000Y123000D02*
D03*
Y113000D02*
D03*
X421000Y123000D02*
D03*
Y113000D02*
D03*
X411000Y123000D02*
D03*
Y113000D02*
D03*
D81*
X136315Y588715D02*
D03*
X156000D02*
D03*
Y608400D02*
D03*
X175685Y618242D02*
D03*
X136315D02*
D03*
X175685Y608400D02*
D03*
X136315D02*
D03*
X175685Y588715D02*
D03*
X165842D02*
D03*
X146157D02*
D03*
X191515Y588600D02*
D03*
X211200D02*
D03*
Y608285D02*
D03*
X230885Y618127D02*
D03*
X191515D02*
D03*
X230885Y608285D02*
D03*
X191515D02*
D03*
X230885Y588600D02*
D03*
X221043D02*
D03*
X201358D02*
D03*
D82*
X523200Y40400D02*
D03*
X211400Y182400D02*
D03*
D83*
X523200Y50400D02*
D03*
Y60400D02*
D03*
Y70400D02*
D03*
X493200D02*
D03*
Y60400D02*
D03*
Y50400D02*
D03*
Y40400D02*
D03*
X211400Y192400D02*
D03*
Y202400D02*
D03*
Y212400D02*
D03*
X181400D02*
D03*
Y202400D02*
D03*
Y192400D02*
D03*
Y182400D02*
D03*
X472800Y358200D02*
D03*
X462800Y368200D02*
D03*
Y358200D02*
D03*
X452800Y368200D02*
D03*
Y358200D02*
D03*
X442800Y368200D02*
D03*
X452800Y378200D02*
D03*
X442800D02*
D03*
X452800Y388200D02*
D03*
X442800D02*
D03*
X452800Y398200D02*
D03*
X442800D02*
D03*
X452800Y408200D02*
D03*
X442800D02*
D03*
X452800Y418200D02*
D03*
X442800D02*
D03*
X452800Y428200D02*
D03*
X462800Y418200D02*
D03*
Y428200D02*
D03*
X472800Y418200D02*
D03*
Y428200D02*
D03*
X482800Y418200D02*
D03*
Y428200D02*
D03*
X492800Y418200D02*
D03*
Y428200D02*
D03*
X502800Y418200D02*
D03*
Y428200D02*
D03*
X512800Y418200D02*
D03*
X502800Y408200D02*
D03*
X512800D02*
D03*
X502800Y398200D02*
D03*
X512800D02*
D03*
X502800Y388200D02*
D03*
X512800D02*
D03*
X502800Y378200D02*
D03*
X512800D02*
D03*
X502800Y368200D02*
D03*
X512800D02*
D03*
X502800Y358200D02*
D03*
X492800Y368200D02*
D03*
Y358200D02*
D03*
X482800Y368200D02*
D03*
Y358200D02*
D03*
X472800Y368200D02*
D03*
X456200Y554600D02*
D03*
Y564600D02*
D03*
Y574600D02*
D03*
X466200Y564600D02*
D03*
Y574600D02*
D03*
X456200Y584600D02*
D03*
X466200D02*
D03*
X476200D02*
D03*
X486200D02*
D03*
X496200D02*
D03*
X466200Y594600D02*
D03*
X476200D02*
D03*
X486200D02*
D03*
X496200D02*
D03*
X466200Y554600D02*
D03*
X476200D02*
D03*
X486200D02*
D03*
X496200D02*
D03*
X466200Y544600D02*
D03*
X476200D02*
D03*
X486200D02*
D03*
X496200D02*
D03*
X506200D02*
D03*
Y594600D02*
D03*
X516200Y584600D02*
D03*
X506200D02*
D03*
Y554600D02*
D03*
X516200D02*
D03*
Y564600D02*
D03*
X506200Y574600D02*
D03*
X516200D02*
D03*
X506200Y564600D02*
D03*
D84*
X594000Y75000D02*
D03*
X564000Y15000D02*
D03*
X103500Y587700D02*
D03*
X73500Y527700D02*
D03*
D85*
X188500Y293200D02*
D03*
Y297500D02*
D03*
D86*
X64800Y30600D02*
D03*
D87*
X82800Y43600D02*
D03*
D88*
X64800Y54100D02*
D03*
D89*
X18600Y273400D02*
D03*
X19200Y105800D02*
D03*
X19000Y165000D02*
D03*
X18400Y220000D02*
D03*
D90*
X88600Y283400D02*
D03*
Y273400D02*
D03*
Y263400D02*
D03*
X89200Y115800D02*
D03*
Y105800D02*
D03*
Y95800D02*
D03*
X89000Y175000D02*
D03*
Y165000D02*
D03*
Y155000D02*
D03*
X88400Y230000D02*
D03*
Y220000D02*
D03*
Y210000D02*
D03*
X557800Y178200D02*
D03*
D91*
X293000Y44500D02*
D03*
X248000D02*
D03*
D92*
X288000Y79500D02*
D03*
D93*
X557800Y505700D02*
D03*
D94*
Y140700D02*
D03*
D95*
Y188200D02*
D03*
Y198200D02*
D03*
Y208200D02*
D03*
Y218200D02*
D03*
Y228200D02*
D03*
Y238200D02*
D03*
Y248200D02*
D03*
Y258200D02*
D03*
Y268200D02*
D03*
Y278200D02*
D03*
Y288200D02*
D03*
Y298200D02*
D03*
Y308200D02*
D03*
Y318200D02*
D03*
Y328200D02*
D03*
Y338200D02*
D03*
Y348200D02*
D03*
Y358200D02*
D03*
Y368200D02*
D03*
Y378200D02*
D03*
Y388200D02*
D03*
Y398200D02*
D03*
Y408200D02*
D03*
Y418200D02*
D03*
Y428200D02*
D03*
Y438200D02*
D03*
Y448200D02*
D03*
Y458200D02*
D03*
Y468200D02*
D03*
D96*
X23595Y408323D02*
D03*
X159816D02*
D03*
D97*
X44461Y416000D02*
D03*
X50367D02*
D03*
X56272D02*
D03*
X62178D02*
D03*
X68083D02*
D03*
X73989D02*
D03*
X79894D02*
D03*
X85800D02*
D03*
X91706D02*
D03*
X97611D02*
D03*
X103517D02*
D03*
X109422D02*
D03*
X115328D02*
D03*
X121233D02*
D03*
X127139D02*
D03*
X133044D02*
D03*
X138950D02*
D03*
D98*
X46700Y586100D02*
D03*
D99*
X494100Y232800D02*
D03*
X263700Y432100D02*
D03*
X249800Y376900D02*
D03*
X375000Y295600D02*
D03*
X499200Y413200D02*
D03*
X525000Y391000D02*
D03*
Y190600D02*
D03*
X405829Y182000D02*
D03*
X360800Y282500D02*
D03*
X345000Y293100D02*
D03*
X514500Y462400D02*
D03*
X489200Y384200D02*
D03*
X414500Y467700D02*
D03*
X399100Y477500D02*
D03*
X553500Y463500D02*
D03*
X538403Y483697D02*
D03*
X400800Y473700D02*
D03*
X393100Y479800D02*
D03*
X534600Y495300D02*
D03*
X390400Y484800D02*
D03*
X525900Y499200D02*
D03*
X400350Y459150D02*
D03*
X411300Y448200D02*
D03*
X422000Y493000D02*
D03*
X500703Y488200D02*
D03*
X493100Y321300D02*
D03*
X490400Y324000D02*
D03*
X498700Y297100D02*
D03*
X476600Y214700D02*
D03*
X499500Y191100D02*
D03*
X501100Y282700D02*
D03*
X480800Y204500D02*
D03*
X480600Y260900D02*
D03*
X479300Y195400D02*
D03*
X220000Y320300D02*
D03*
X359000Y353500D02*
D03*
X342300Y286100D02*
D03*
X337160Y346760D02*
D03*
X298100Y169900D02*
D03*
X509800Y114200D02*
D03*
X480000Y317200D02*
D03*
X444900Y313300D02*
D03*
X337100Y332400D02*
D03*
X342800Y271500D02*
D03*
X285228Y276100D02*
D03*
X319900Y239800D02*
D03*
X247827Y278418D02*
D03*
X244200Y264800D02*
D03*
X216708Y311000D02*
D03*
X223800Y280800D02*
D03*
X252238Y379400D02*
D03*
X238800Y348400D02*
D03*
X205900Y442100D02*
D03*
X208800Y456043D02*
D03*
X215800Y523300D02*
D03*
X199698Y461800D02*
D03*
X191700Y534400D02*
D03*
X208556D02*
D03*
X138047Y567147D02*
D03*
X460600Y198900D02*
D03*
X105000Y165500D02*
D03*
X222453Y180153D02*
D03*
X457400Y207900D02*
D03*
X438275Y235400D02*
D03*
X420300Y379200D02*
D03*
X429400Y388344D02*
D03*
X397656Y384300D02*
D03*
X390200Y444300D02*
D03*
X410900D02*
D03*
X486500Y402447D02*
D03*
X187227Y422273D02*
D03*
X78400Y323500D02*
D03*
X107753Y81200D02*
D03*
X458200Y614200D02*
D03*
X370300Y605200D02*
D03*
X390300Y584900D02*
D03*
X424700Y287500D02*
D03*
X541700Y285400D02*
D03*
X397600Y583900D02*
D03*
X434800Y300600D02*
D03*
X371800Y582200D02*
D03*
X429600Y303300D02*
D03*
X568900Y323200D02*
D03*
X561100Y591900D02*
D03*
X382700Y584660D02*
D03*
X353148Y578300D02*
D03*
X381900Y588600D02*
D03*
X535600Y391800D02*
D03*
X528200Y384400D02*
D03*
X527700Y294700D02*
D03*
X424700Y309600D02*
D03*
X407500Y519300D02*
D03*
X412500Y308200D02*
D03*
X550800Y377600D02*
D03*
Y490000D02*
D03*
X407600Y395700D02*
D03*
X444400Y402900D02*
D03*
X486200Y512600D02*
D03*
X369200Y368300D02*
D03*
X409100Y350600D02*
D03*
X411000Y327500D02*
D03*
X368900Y344500D02*
D03*
X352300Y381300D02*
D03*
X341900Y379100D02*
D03*
X307700Y498900D02*
D03*
X448300Y546100D02*
D03*
X434997Y554500D02*
D03*
X456800Y432300D02*
D03*
X410600Y421600D02*
D03*
X432600Y521600D02*
D03*
X360100Y314472D02*
D03*
X457600Y201600D02*
D03*
X390500Y229600D02*
D03*
Y272400D02*
D03*
X388700Y286100D02*
D03*
X360000Y318740D02*
D03*
X391400Y289500D02*
D03*
X443700Y204800D02*
D03*
X345000Y320600D02*
D03*
X375000Y289400D02*
D03*
X443800Y208500D02*
D03*
X359189Y322677D02*
D03*
X459100Y224000D02*
D03*
X339600Y279100D02*
D03*
X372900Y272694D02*
D03*
X424900Y222000D02*
D03*
X363950Y305500D02*
D03*
X345000Y333600D02*
D03*
X445000Y261800D02*
D03*
X361800Y336330D02*
D03*
X409900Y278800D02*
D03*
X402700Y286000D02*
D03*
X392100Y324300D02*
D03*
X360100Y345400D02*
D03*
X345100Y349600D02*
D03*
X387400Y339500D02*
D03*
X388800Y366400D02*
D03*
X395300Y387600D02*
D03*
X392900Y415500D02*
D03*
X358700Y398100D02*
D03*
X445400Y290900D02*
D03*
X349600Y366200D02*
D03*
X389900Y407500D02*
D03*
X341600Y362700D02*
D03*
X374600Y407800D02*
D03*
X459100Y306000D02*
D03*
X338400Y522300D02*
D03*
X397000Y539100D02*
D03*
X403700Y579400D02*
D03*
X320800Y557000D02*
D03*
X402800Y568700D02*
D03*
X412500Y584600D02*
D03*
X448300Y565600D02*
D03*
X407047Y551953D02*
D03*
X297727Y508000D02*
D03*
X461200Y564600D02*
D03*
X299600Y541500D02*
D03*
X419249Y558401D02*
D03*
X422400Y557500D02*
D03*
X289900Y491000D02*
D03*
X422398Y538300D02*
D03*
X285000Y491600D02*
D03*
X425548Y534600D02*
D03*
X424200Y566000D02*
D03*
X271200Y555500D02*
D03*
X261800Y576700D02*
D03*
X356100Y589300D02*
D03*
X256200Y565700D02*
D03*
X418800Y575700D02*
D03*
X349700Y450700D02*
D03*
X266500Y451900D02*
D03*
X263800Y446300D02*
D03*
X248600Y455000D02*
D03*
Y500400D02*
D03*
X379936Y560900D02*
D03*
X256700Y434700D02*
D03*
X377200Y563600D02*
D03*
X376900Y462500D02*
D03*
X319400Y425800D02*
D03*
X378500Y466200D02*
D03*
X319300Y444800D02*
D03*
X381200Y460250D02*
D03*
X299000Y422500D02*
D03*
X356800Y476100D02*
D03*
X319700Y466100D02*
D03*
X307700Y377100D02*
D03*
X288000Y378700D02*
D03*
X286300Y393700D02*
D03*
X316000Y412800D02*
D03*
X324100Y470400D02*
D03*
X364300Y481200D02*
D03*
X219800Y281300D02*
D03*
X247700Y328200D02*
D03*
X337100Y336300D02*
D03*
X481400Y283300D02*
D03*
X493000Y268300D02*
D03*
X481000Y312200D02*
D03*
X425300Y432800D02*
D03*
X391800Y490300D02*
D03*
X412950Y533650D02*
D03*
X408200Y571400D02*
D03*
X304000Y434300D02*
D03*
X310600Y398700D02*
D03*
X335500Y430500D02*
D03*
X215300Y399200D02*
D03*
X243700Y412000D02*
D03*
X196500Y418000D02*
D03*
X199700Y441800D02*
D03*
X178800D02*
D03*
X219800Y552900D02*
D03*
X220600Y569200D02*
D03*
X170353Y563200D02*
D03*
X192400Y578500D02*
D03*
X185100Y569300D02*
D03*
X325300Y87600D02*
D03*
X342900Y70000D02*
D03*
X319000Y191400D02*
D03*
X350700Y165900D02*
D03*
X527300Y56700D02*
D03*
X90757Y434600D02*
D03*
X43900Y459600D02*
D03*
X374700Y403400D02*
D03*
X413600Y392500D02*
D03*
X324598Y383983D02*
D03*
X371204Y427092D02*
D03*
X375100Y417200D02*
D03*
X323400Y362900D02*
D03*
X389700Y420507D02*
D03*
X317498Y362800D02*
D03*
X377309Y423200D02*
D03*
X350200Y407158D02*
D03*
X376800Y427500D02*
D03*
X225200Y339600D02*
D03*
X358600Y446900D02*
D03*
X251700Y446300D02*
D03*
X229200Y399700D02*
D03*
X217300Y336457D02*
D03*
X394700Y369100D02*
D03*
X405200Y439100D02*
D03*
X333600Y422200D02*
D03*
X320428Y502828D02*
D03*
X383800Y513700D02*
D03*
X336500Y362500D02*
D03*
X369900Y396300D02*
D03*
X375900Y396800D02*
D03*
X336300Y358000D02*
D03*
X388200Y588300D02*
D03*
X447800Y592600D02*
D03*
X437600Y515700D02*
D03*
X430700Y436500D02*
D03*
X401900Y144600D02*
D03*
X467900Y133200D02*
D03*
X67600Y445700D02*
D03*
Y458357D02*
D03*
X95400Y251100D02*
D03*
X222700Y391400D02*
D03*
X211800Y247700D02*
D03*
X43400Y473100D02*
D03*
X155800Y267600D02*
D03*
X239500Y275433D02*
D03*
X159100Y499800D02*
D03*
X178000D02*
D03*
X218000Y371000D02*
D03*
X185200Y377100D02*
D03*
X155800Y496800D02*
D03*
X221800D02*
D03*
X224900Y501700D02*
D03*
X163400Y508500D02*
D03*
X187900Y427800D02*
D03*
X201700Y384500D02*
D03*
X85639Y460600D02*
D03*
X104400Y436300D02*
D03*
X52000Y473100D02*
D03*
X59400Y450300D02*
D03*
X95600Y569058D02*
D03*
X99300Y561900D02*
D03*
X119500Y479200D02*
D03*
X115100Y474400D02*
D03*
X279323Y260000D02*
D03*
X189200Y244200D02*
D03*
X180000Y476800D02*
D03*
X221500Y492400D02*
D03*
X333900Y170600D02*
D03*
X276100Y167200D02*
D03*
X288653Y173447D02*
D03*
X245000Y240500D02*
D03*
X256555Y240000D02*
D03*
X353700Y200600D02*
D03*
X308500Y197600D02*
D03*
Y170000D02*
D03*
X357100Y179700D02*
D03*
X245600Y147800D02*
D03*
X266950Y149450D02*
D03*
X329400Y178200D02*
D03*
X208230Y170430D02*
D03*
X203600Y165800D02*
D03*
X198800Y178000D02*
D03*
X318000Y256900D02*
D03*
X324000Y177200D02*
D03*
X248400Y137100D02*
D03*
X195400Y155200D02*
D03*
X251500D02*
D03*
X257100Y158700D02*
D03*
X200900D02*
D03*
X278456Y129200D02*
D03*
X271200Y124300D02*
D03*
X286500Y150900D02*
D03*
X290500Y123200D02*
D03*
X269900Y114100D02*
D03*
X236000Y126100D02*
D03*
X286800Y117200D02*
D03*
X315100Y92200D02*
D03*
X297100Y123200D02*
D03*
X234400Y130200D02*
D03*
X273000Y128000D02*
D03*
X222600Y174847D02*
D03*
X244100Y437000D02*
D03*
X207400Y550300D02*
D03*
X238200Y454600D02*
D03*
Y449200D02*
D03*
X233600Y381700D02*
D03*
X281300Y324336D02*
D03*
X232200Y468100D02*
D03*
X205100Y466600D02*
D03*
X183600Y421400D02*
D03*
X283900Y293000D02*
D03*
X296700Y243300D02*
D03*
X214800Y550600D02*
D03*
X225200Y315800D02*
D03*
X127300Y464200D02*
D03*
X305200Y354100D02*
D03*
X481400Y266000D02*
D03*
X496300Y197900D02*
D03*
X492400Y255600D02*
D03*
X493400Y195200D02*
D03*
X111400Y535900D02*
D03*
X141000Y459200D02*
D03*
X268326Y132700D02*
D03*
X245700Y73700D02*
D03*
X164300Y307200D02*
D03*
X203000Y345900D02*
D03*
X250800Y257700D02*
D03*
X277354Y235000D02*
D03*
X100000Y315000D02*
D03*
X239200Y264700D02*
D03*
X225403Y277402D02*
D03*
X150200Y278600D02*
D03*
X223400Y360500D02*
D03*
X186100D02*
D03*
X159100Y512800D02*
D03*
X187200Y500700D02*
D03*
X81900Y478300D02*
D03*
X90200Y297300D02*
D03*
X336000Y85200D02*
D03*
X413300Y508100D02*
D03*
X519400Y505500D02*
D03*
X342900Y102600D02*
D03*
Y149056D02*
D03*
X351700Y185600D02*
D03*
X142200Y444200D02*
D03*
X284000Y257228D02*
D03*
X287000Y260397D02*
D03*
X322630Y270500D02*
D03*
X267100Y271256D02*
D03*
X425900Y293600D02*
D03*
X551300Y343200D02*
D03*
X535400Y587500D02*
D03*
X373369Y586603D02*
D03*
X496500Y281100D02*
D03*
X426400Y281500D02*
D03*
X571600Y279700D02*
D03*
X394100Y400100D02*
D03*
X459600Y351300D02*
D03*
X463500Y351900D02*
D03*
X421400Y513200D02*
D03*
X424400Y518467D02*
D03*
X429700Y510500D02*
D03*
X136100Y405400D02*
D03*
X497400Y214300D02*
D03*
X494600Y134600D02*
D03*
X499600Y274300D02*
D03*
X469200Y210400D02*
D03*
X415400Y135600D02*
D03*
X425900Y140100D02*
D03*
X445200Y137153D02*
D03*
X534000Y182900D02*
D03*
X411200Y411900D02*
D03*
X267300Y550000D02*
D03*
X422900Y570100D02*
D03*
X207516Y303944D02*
D03*
X254800Y287200D02*
D03*
X234300Y435400D02*
D03*
X208300Y461400D02*
D03*
X279691Y379300D02*
D03*
X349600Y384200D02*
D03*
X239700Y296700D02*
D03*
X392800Y434600D02*
D03*
X222100Y330488D02*
D03*
X389300Y429800D02*
D03*
X235700Y407900D02*
D03*
Y362900D02*
D03*
X239700Y352100D02*
D03*
X244200Y445900D02*
D03*
X243400Y462000D02*
D03*
X316000Y581100D02*
D03*
X398500Y600500D02*
D03*
X362000Y456400D02*
D03*
X323100Y435800D02*
D03*
X261100Y396200D02*
D03*
X413400Y405500D02*
D03*
X426400Y378000D02*
D03*
X513900Y593900D02*
D03*
X413900Y602600D02*
D03*
X492100Y574800D02*
D03*
X416100Y567300D02*
D03*
X416099Y551600D02*
D03*
X294500Y513100D02*
D03*
X197000Y557200D02*
D03*
X296400Y271700D02*
D03*
X327000Y340000D02*
D03*
X359100Y271500D02*
D03*
X404600Y424400D02*
D03*
X509400Y392900D02*
D03*
X518400Y173200D02*
D03*
X364400D02*
D03*
Y232200D02*
D03*
X349600Y256300D02*
D03*
X339000Y312500D02*
D03*
X373800Y330600D02*
D03*
X442500Y280100D02*
D03*
X417100Y271900D02*
D03*
X372300Y321300D02*
D03*
X424700Y243000D02*
D03*
X364500Y298900D02*
D03*
X407421Y231100D02*
D03*
X367200Y274048D02*
D03*
X363700Y294300D02*
D03*
Y288000D02*
D03*
X458500Y213500D02*
D03*
X399500Y308900D02*
D03*
X340700Y320500D02*
D03*
X404600Y372600D02*
D03*
X502700Y288600D02*
D03*
X194200Y303756D02*
D03*
X185600Y290300D02*
D03*
X212800Y292400D02*
D03*
X213000Y486000D02*
D03*
X203100Y476100D02*
D03*
X303500Y428700D02*
D03*
X254000Y427100D02*
D03*
X276500Y434300D02*
D03*
X281500Y385200D02*
D03*
X330900Y404552D02*
D03*
Y463300D02*
D03*
X363900Y485500D02*
D03*
X414400Y482100D02*
D03*
X300647Y517400D02*
D03*
X403501Y557600D02*
D03*
X407000Y587700D02*
D03*
X394500Y499800D02*
D03*
X411500Y527800D02*
D03*
X362700Y475500D02*
D03*
X323800Y466400D02*
D03*
X311000Y383500D02*
D03*
X287800D02*
D03*
X284100Y104000D02*
D03*
X326700Y174000D02*
D03*
X208350Y294750D02*
D03*
X198500Y293900D02*
D03*
X202400Y287200D02*
D03*
X210000Y285600D02*
D03*
X104700Y267500D02*
D03*
X199400Y314400D02*
D03*
X216500Y292400D02*
D03*
X272550Y386750D02*
D03*
X252800Y391600D02*
D03*
X371400Y317000D02*
D03*
X359630Y333100D02*
D03*
X376300Y309500D02*
D03*
X364100Y327200D02*
D03*
X390600Y327900D02*
D03*
X345100Y345500D02*
D03*
X392600Y318800D02*
D03*
X267500Y164200D02*
D03*
X250800D02*
D03*
X319978Y171278D02*
D03*
X256800Y167300D02*
D03*
X260200Y170400D02*
D03*
X264200Y179553D02*
D03*
X439800Y287400D02*
D03*
X392900Y332000D02*
D03*
X239200Y148500D02*
D03*
X273731Y107200D02*
D03*
X458400Y195900D02*
D03*
X411800Y284500D02*
D03*
Y294500D02*
D03*
X412800Y339200D02*
D03*
X408800Y287000D02*
D03*
X418400Y235400D02*
D03*
X445000Y265600D02*
D03*
X376670Y320000D02*
D03*
X301600Y392300D02*
D03*
X343800Y307500D02*
D03*
X238800Y289213D02*
D03*
X269500Y109800D02*
D03*
X300200Y147342D02*
D03*
X326200Y160000D02*
D03*
X267500D02*
D03*
X389800Y390300D02*
D03*
X330700Y362600D02*
D03*
X414300Y441830D02*
D03*
X398400D02*
D03*
X457100Y310800D02*
D03*
X434000Y309100D02*
D03*
X375000Y299300D02*
D03*
X345000Y324500D02*
D03*
X187900Y436600D02*
D03*
X178000Y461800D02*
D03*
X173300Y492500D02*
D03*
X221600Y503800D02*
D03*
X183900Y489700D02*
D03*
X222582Y295800D02*
D03*
X258500Y324000D02*
D03*
X288750Y390800D02*
D03*
X275200D02*
D03*
X289000Y434300D02*
D03*
X411100Y322000D02*
D03*
X225100Y307500D02*
D03*
X469700Y409153D02*
D03*
X457800Y416400D02*
D03*
X487000Y255300D02*
D03*
X207356Y577000D02*
D03*
X285400Y360035D02*
D03*
X295434Y355400D02*
D03*
X264400Y267338D02*
D03*
X90757Y567147D02*
D03*
M02*
