M48
;Layer_Color=9474304
;FILE_FORMAT=2:5
INCH,LZ
;TYPE=PLATED
T1F00S00C0.01600
T2F00S00C0.02000
T3F00S00C0.02362
T4F00S00C0.02500
T5F00S00C0.02800
T6F00S00C0.03500
T7F00S00C0.04000
T8F00S00C0.04200
T9F00S00C0.04331
T10F00S00C0.04724
T11F00S00C0.05118
T12F00S00C0.06300
T13F00S00C0.07000
T14F00S00C0.09200
T15F00S00C0.11811
T16F00S00C0.12008
T17F00S00C0.12500
T18F00S00C0.14016
%
T01
X02858Y00532
X04485Y00402
X04704Y00406
X0537Y0087
X05558Y00955
X05516Y01249
X0551734Y01881
X053Y0209
X05931Y01838
X0512417Y01967
X04951Y01941
X0496Y0189
X04933Y01746
X04943Y01658
X04963Y01616
X04983Y01584
X04968Y01511
X04956Y01445
X04785Y01596
Y01705
X04606Y0175
X04577Y01823
X0452Y01722
X04429Y01681
X0448247Y01909
X04493Y01946
X04609Y01962
X04674Y02038
X04571Y02105
X04526Y02104
X04291Y02111
X04217Y02035
X04065Y02056
Y01958
Y01687
X04022Y01576
X03895Y01542
X04352Y01342
X04364Y01005
X04264Y0101
X0383616Y0090116
X03774Y00879
X04951Y01034
X05101Y0104263
X0518Y0104
X052Y0080153
X05064Y01668
X03677Y01832
X0336Y01835
X03267Y01856
X03333Y01926
X03093Y01728
X03048Y0176
X03058Y01624
X0307Y01581
X03112Y01572
X03161Y01604
X03113Y01657
X03099Y01375
X03146Y01383
X03062Y01316
X0306Y01279
X0296425Y0128025
X02989Y01316
X0299636Y0139836
X02963Y01466
X02828Y01473
X02776Y01405
X02707Y01436
X02653Y01423
X02658Y01479
X02653Y01315
Y0126
X0269969Y0126331
X02744Y01259
X02781Y01261
X02821Y01263
X0287367Y0119167
X0311715Y0114285
Y0096085
X03357Y00912
X03391Y00932
X03469Y00946
X03482Y00788
X03536Y00842
X03653Y00896
Y01037
X03674Y01334
X03032Y0072
X02862Y00872
X02578Y0092
X02304Y00945
X02222
X0224853Y01151
X0222647Y0132853
X0228553Y0132653
X023659Y014771
X02395Y01453
X02435Y01439
X0247605Y0141805
X02446Y01922
X02384Y0195
X02337Y01948
X02299Y0209
X02416Y02115
X0254Y02116
X02537Y019
X02681Y0184
X02759Y01805
X02757Y02084
X01382
X01417Y02046
X00456Y02007
X0039Y0235
X00505Y02816
X00542Y02782
X01539Y02815
X0154567Y0249067
X0157184Y0251684
X01598Y02543
X01531Y02453
X01494Y02439
X01496Y02402
X01505Y02316
X01543
X01383Y02345
X0141048Y0238685
X01686Y02255
X01943Y0229433
X0198Y0229433
X0201266Y0231399
X02045Y02294
X01884Y02867
X02068Y03205
X02116Y03242
X0206375Y0346975
X0208991Y0349591
X01809Y03332
X01764Y03671
X0213167Y0353767
X0215784Y0356384
X02184Y0359
X0221016Y0361616
X02238Y03644
X0249046Y0360046
X02528Y03608
X0259998Y0358856
X02631Y03511
X02505
X02433Y03508
X0243813Y0354813
X024643Y035743
X02447Y03354
X02415Y03291
X02493Y03289
X02453Y03237
X02438Y03153
X0241Y03122
X0242008Y0302992
X02479Y03027
X02449Y02832
X02503Y0279
X0253Y02674
X02597Y02658
X02724Y02684
X02876Y02682
X0292474Y02745
X0296174
X0299874
X0304Y02741
X032263Y026713
X03192Y02606
X03214Y02414
X03086Y02332
X02971Y02272
X02923Y02316
X02836Y02245
X02723Y02244
X02683Y02307
X02674Y02384
X02757Y0241
X02805Y02412
X02859Y02414
X02842Y026
X02476Y02594
X0252Y02399
X02557Y02394
X02508Y02289
X02482Y0226267
X02477Y02311
X0245Y02338
X02411Y02332
X02383Y02366
X02305Y02397
X0223407Y02465
X02299Y0222
X0236084Y0224016
X02387Y02214
X0238Y02159
X02461Y02152
X02562Y02161
X02752
X02166Y02149
X02149Y02888
X02153Y03254
X02243Y03255
X0263713Y0334913
X026633Y033753
X0268946Y0340146
X0271562Y0342762
X02753Y03552
X0281291Y0355309
X02958Y03561
X02942Y03521
X0319Y03515
X03198Y03593
X03231Y03565
X03313Y03584
X03308Y0352
X0340895Y0352205
X0344094Y0340394
X03346Y03352
X03348Y03127
X03437Y03107
X03428Y03037
X03446Y02975
X03365Y0296
X0338456Y02862
X0335702Y0277402
X0342496Y0271496
X0361Y0275
X036503Y027937
X03655Y02485
X036
X0329Y02254
Y0301
X03067Y03009
X02645Y02946
X02614Y02894
X02594Y02861
X0312787Y0361613
X03913Y03609
X03895Y0355
X0385182Y03485
X03848Y0344219
X03815Y03369
X0381309Y0332891
X03799Y0328
X03736Y03089
X0433767Y0309
X0436Y0312
X04365Y0305
X0434067Y03022
X04335Y02984
X043078Y0295721
X0433Y02925
X0428585Y0289815
X04274Y02861
X0423991Y028391
X04183Y02683
X03995
X04017Y024
X0405Y02433
X04069Y02134
X04183Y02142
X04289Y02184
X0436244Y02167
X04366Y02285
X0431Y02328
X04424Y02545
X04478Y02599
X04551Y02633
X04596Y02546
X04443Y02741
X04566Y0288344
X04625Y02867
X04681Y02863
X0469Y02906
X0468157Y0300325
X04659Y03033
X04677Y03068
X04691Y03139
X04681Y03216
X04698Y03277
X047Y03442
X04697Y03558
X0471043Y0361558
X04578Y03646
X04566Y03558
X04468Y03387
X04562Y0321
X0456695Y0315406
X04556Y03099
X04626Y03005
X0459Y02967
X04848Y02955
X0485717Y02918
X0485Y02831
X04842Y03051
X04858Y03105
X04923Y03268
X05084Y02487
X05154Y02417
X05113Y02314
X0496417Y02127
X04571Y0217
X03787Y02266
X03759Y02485
X03707
X0395Y03685
X05361Y04524
X05517Y04496
X05471Y04441
X05499Y05009
X05505Y0506
X05407Y0512
X0531644Y0504744
X0641Y03851
X04698Y03893
X04701Y03757
X0462Y03793
X0455864Y0375436
X04563Y03852
X04548Y03981
X04465
X04469Y03921
X04255Y03923
X04198Y03855
X0407644Y0385244
X03991Y03921
X0392Y03948
X03855Y03912
X03798Y03961
X03765Y03795
X0395Y03765
X03925Y03714
X0414Y03949
X04138Y04383
X04257Y04378
X04224Y04458
X0392Y04378
X03801
X03837Y04462
X03736Y04297
X03751Y04249
X03875Y04805
X039Y04835
X0393Y04865
X0396Y0489
X0399Y04915
X04015Y04945
X0404Y04975
X04075Y05
X0413Y05061
X03958Y05159
X03994Y05199
X0376Y05225
X03693Y05233
X03704Y05137
X05005Y05235
X05223Y04983
Y04534
X05137Y04475
X03649Y04489
X0366478Y0438522
X0354843Y0438458
X03474Y04423
X03366Y04456
X03334Y04385
X03269Y04431
X03209Y0439
X03113Y04278
X03159Y04201
X03147Y04075
X03327Y04103
X03397Y04097
X0349
X03582Y04096
X03566Y04134
X0354843Y0395157
X03589Y03943
X03626Y03937
X03658Y03801
X03147Y03779
X03096Y0377763
Y0381463
Y03854
Y03891
X03257Y03943
X0292906Y0395794
X02871Y03943
X02898Y03874
X02772Y03951
X02705Y03952
X02571Y0389219
Y0385519
Y0381582
Y0377881
X02613Y04134
X0265347Y0417054
X02685Y04206
X0258Y04209
X02644Y04384
X02714Y04394
X0286Y04406
X02927Y04394
X0290937Y0407837
X035878Y046322
X03623Y04691
X02117Y05195
X02069Y0517932
X01884Y05239
X0154644Y0515344
X01175Y05241
X01138Y04769
X01122Y04684
X01162Y04689
X01199Y04688
X01241Y04698
X01324Y04594
X01336Y04546
X0099Y04653
X00891Y04733
X00854Y04739
X008052Y047368
X00758Y04744
X0062Y04761
X00571Y04736
X00685Y0462474
X00659Y04549
X00722Y04551
X00787Y04557
X00885Y04571
X00685Y0450326
X00725Y04037
X015495Y038855
X0187463Y0430037
X00547Y04569
X0052Y04595
X00499Y04781
X00384Y0475
X00276Y04642
X0021332Y04621
X00077Y0445
X00867Y05549
X01983Y05544
X02028Y05505
X01989Y05375
X02095Y05272
X0199Y05736
X02011Y05768
X01888Y05771
X015Y061
X02154Y05621
X0215113Y0551287
X02179Y05377
X02278
X02132Y05269
X02406Y05505
X02526Y05665
X02618
X02601Y05761
X02609Y05885
X0237185Y05765
X03053Y05855
X03547Y06024
X03597Y0605
X03635Y06004
X03567Y06108
X03515Y06107
X03668Y05285
X03786Y05253
X03823Y05255
X0386
X03906Y05252
X03898Y05291
X0390851Y0534249
X0395Y05345
X0394001Y0538399
X0387702Y0537898
X04068Y05384
X0409749Y0527151
X04135Y05271
X0419Y05272
X04385Y05267
X04396Y05304
X0453Y05302
X04877Y05263
X04903Y0563609
X04179Y05707
X04167Y05747
X04031Y05786
X04017Y05827
X04039Y05687
X04012Y05559
X03979Y05584
X03944Y06094
X03987Y06155
X0402Y06175
X04422Y06184
X05385Y06285
X05455Y06265
X0549Y06245
X05525Y0622
X0576Y061
X05793Y06132
T02
X0199Y0294
Y02983
T03
X0056272Y0416
X0062178
X0068083
X0073989
X0079894
X00858
X0091706
X0097611
X0103517
X0109422
X0115328
X0121233
X0127139
X0133044
X013895
X0050367
X0044461
T04
X04932Y00404
Y00504
X05232
Y00404
Y00604
Y00704
X04932
Y00604
X03327Y01421
Y01613
X02114Y01824
Y01924
Y02024
Y02124
X01814
Y02024
Y01924
Y01824
X0177776Y0265824
X01642Y02794
X0168Y0431
Y0441
Y0451
Y0461
Y0471
Y0481
Y0491
Y0501
Y0511
Y0521
X0138
Y0511
Y0501
Y0491
Y0481
Y0471
Y0461
Y0451
Y0441
Y0431
T05
X04138Y01887
X04238
Y01787
X04338
Y01887
X04438
Y01787
X04538
X04638
X04738
Y01887
X04638
X04538
X04838
Y01987
X04738
Y02087
X04838
X04238
X04138
Y01987
X04238
Y02187
X04138
Y02287
Y02387
X04238
Y02287
Y02487
X04338
Y02387
X04438
Y02487
X04538
Y02387
X04638
Y02487
X04738
Y02387
Y02287
Y02187
X04838
Y02287
Y02387
X04862Y05446
X04762
X04662
Y05546
X04562
Y05646
Y05746
Y05846
X04662
Y05746
Y05646
X04762Y05546
X04862
X04962
Y05446
X05062
Y05546
X05162
Y05646
X05062
Y05746
X05162
Y05846
X05062
X04962
X04862
X04762
Y05946
X04662
X04862
X04962
X05062
T06
X0253Y00695
X0263
X0273
X0283
X0278Y00795
X0268
X0258
X0288
T07
X0249Y00985
X0259
X0282
X0292
X00467Y05161
Y05261
Y05361
Y05461
Y05561
Y05661
Y05761
Y05861
T08
X07Y009
Y01
Y011
Y012
Y013
Y014
Y015
Y016
Y017
Y018
Y019
Y02
Y021
X073
Y02
Y019
Y018
Y017
Y016
Y015
Y014
Y013
Y012
Y011
Y01
Y009
X05738Y01035
X05638
Y01135
Y01235
Y01335
Y01435
Y01535
Y01635
Y01735
X05738
Y01635
Y01535
Y01435
Y01335
Y01235
Y01135
X0575Y00738
X05319Y01309
Y01409
Y01509
Y01609
Y01709
Y01809
Y01909
Y02009
X06113Y01977
Y01877
Y01777
Y02077
X05219Y02009
Y01909
Y01809
Y01709
Y01609
Y01509
Y01409
Y01309
X0501Y0123
X0491
Y0113
X0481
X0471
X0461
X0451
X0441
X0431
X0421
X0411
Y0123
X0421
X0431
X0441
X0451
X0461
X0471
X0481
X0501Y0113
X03918Y00686
X03818
X03718
X03785Y0179
Y0189
Y0199
X03955Y0198
Y0188
Y0178
Y0208
X01989Y01644
X00842Y0169
Y0179
Y0159
X00841Y01164
Y01064
Y00964
X00308Y00974
Y01074
Y01174
Y01274
Y00874
Y00774
X00843Y02187
Y02287
Y02387
X00839Y02783
Y02883
Y02983
X05679Y02747
X06113Y02777
Y02677
Y02577
Y02477
Y02377
Y02277
Y02177
Y02877
Y02977
Y03077
Y03177
Y03277
Y03377
Y03477
Y03577
Y03677
X07Y036
Y035
Y034
Y033
Y032
Y031
Y03
Y029
Y028
Y027
Y026
Y025
Y024
Y023
Y022
X073
Y023
Y024
Y025
Y026
Y027
Y028
Y029
Y03
Y031
Y032
Y033
Y034
Y035
Y036
Y037
Y038
Y039
Y04
Y041
Y042
Y043
Y044
Y045
Y046
Y047
Y048
Y049
Y05
Y051
Y052
X07
Y051
Y05
Y049
Y048
Y047
Y046
Y045
Y044
Y043
Y042
Y041
Y04
Y039
Y038
Y037
X06113Y03777
Y03877
Y03977
Y04077
Y04177
Y04277
Y04377
Y04477
Y04577
Y04677
X04908Y04313
X05043Y04133
X044Y04595
X043
X042
X041
X04
X039
X038
X037
Y04695
X038
X039
X04
X041
X042
X043
X044
X0343Y0471
X0333
X0323
X0313
Y0481
X0323
X0333
X0343
X0317Y05045
X0307
X0297
X0287
X0277
X0267
X0257
X0247
Y05145
X0257
X0267
X0277
X0287
X0297
X0307
X0317
X02426Y0472
X06038Y05963
Y06053
Y06153
X07Y059
Y058
Y057
Y056
Y055
Y054
Y053
X073
Y054
Y055
Y056
Y057
Y058
Y059
T09
X0552315Y0022315
Y0042
X0572
Y0022315
X00955Y0561
X0075815
Y0580685
X00955
T10
X0135315Y0599315
X0145157
X0155
X0164842
X0174685
X019063Y0599473
X0200473
X0210315
Y0619158
X019063
Y0629
X0174685Y0628842
Y0619
X0155
X0135315
Y0628842
X023Y0629
Y0619158
Y0599473
X0220158
T11
X0159816Y0408323
X0023595
T12
X02398Y00565
X03012
T13
X06113Y01402
T14
X06113Y05052
T15
X00853Y0031
T16
X01033Y0044
T17
X003Y003
X0248Y00445
X0293
X072Y003
X0536Y0105
X0378Y012
X003Y062
X034Y0535
X072Y062
T18
X00853Y00545
M30
