G04 Layer_Color=255*
%FSLAX25Y25*%
%MOIN*%
G70*
G01*
G75*
%ADD10R,0.03150X0.03543*%
%ADD11R,0.03150X0.03543*%
%ADD22R,0.03543X0.02756*%
%ADD23R,0.02756X0.03543*%
%ADD24R,0.03543X0.03150*%
%ADD37C,0.05000*%
%ADD38C,0.06000*%
%ADD39R,0.05905X0.05905*%
%ADD40C,0.05905*%
%ADD41C,0.03937*%
%ADD42C,0.06600*%
%ADD43R,0.05905X0.05905*%
%ADD44C,0.03400*%
%ADD45C,0.04500*%
%ADD46C,0.13780*%
%ADD47C,0.15748*%
%ADD48R,0.06000X0.06000*%
%ADD49C,0.08000*%
%ADD50C,0.15000*%
%ADD51C,0.04000*%
%ADD52R,0.04000X0.04000*%
%ADD53C,0.05000*%
%ADD54C,0.06200*%
%ADD55C,0.11000*%
%ADD56C,0.09000*%
%ADD57R,0.06200X0.06200*%
%ADD58C,0.14000*%
%ADD59C,0.07000*%
%ADD60R,0.07000X0.07000*%
%ADD61R,0.06000X0.06000*%
%ADD62C,0.06299*%
%ADD64R,0.04331X0.12992*%
D10*
X335244Y352300D02*
D03*
X340756D02*
D03*
X250756Y323500D02*
D03*
X245244D02*
D03*
X253256Y311000D02*
D03*
X247744D02*
D03*
X340256Y307500D02*
D03*
X334744D02*
D03*
Y316500D02*
D03*
X340256D02*
D03*
X339756Y340000D02*
D03*
X334244D02*
D03*
X254756Y283000D02*
D03*
X249244D02*
D03*
X257744Y176200D02*
D03*
X263256D02*
D03*
X276756Y131000D02*
D03*
X271244D02*
D03*
X276756Y136500D02*
D03*
X271244D02*
D03*
X257744Y170000D02*
D03*
X263256D02*
D03*
X257744Y163500D02*
D03*
X263256D02*
D03*
Y88000D02*
D03*
X257744D02*
D03*
X66744Y407500D02*
D03*
X72256D02*
D03*
X107256D02*
D03*
X101744D02*
D03*
X96756Y409500D02*
D03*
X91244D02*
D03*
X85256Y410000D02*
D03*
X79744D02*
D03*
X277444Y284800D02*
D03*
X282956D02*
D03*
X332844Y286100D02*
D03*
X338356D02*
D03*
X327456Y389900D02*
D03*
X321944D02*
D03*
X193644Y182000D02*
D03*
X199156D02*
D03*
X201844Y557200D02*
D03*
X207356D02*
D03*
X332844Y291700D02*
D03*
X338356D02*
D03*
X265444Y447600D02*
D03*
X270956D02*
D03*
X251756Y347500D02*
D03*
X246244D02*
D03*
X332744Y271500D02*
D03*
X338256D02*
D03*
X190811Y329700D02*
D03*
X196323D02*
D03*
X287044Y446300D02*
D03*
X292556D02*
D03*
X287444Y391900D02*
D03*
X292956D02*
D03*
X276756Y391600D02*
D03*
X271244D02*
D03*
X349444Y390600D02*
D03*
X354956D02*
D03*
X326744Y446900D02*
D03*
X332256D02*
D03*
X349000Y442300D02*
D03*
X354512D02*
D03*
X386344Y441900D02*
D03*
X391856D02*
D03*
X419756Y441500D02*
D03*
X414244D02*
D03*
D11*
X457240Y52563D02*
D03*
X449760D02*
D03*
X453500Y60437D02*
D03*
D22*
X457000Y40047D02*
D03*
Y45953D02*
D03*
X465000Y40047D02*
D03*
Y45953D02*
D03*
X454000Y74953D02*
D03*
Y69047D02*
D03*
X450900Y227853D02*
D03*
Y221947D02*
D03*
X463800Y228853D02*
D03*
Y222947D02*
D03*
X265500Y53453D02*
D03*
Y47547D02*
D03*
X278500Y53453D02*
D03*
Y47547D02*
D03*
X86700Y573053D02*
D03*
Y567147D02*
D03*
X411000Y132647D02*
D03*
Y138553D02*
D03*
X421200Y132647D02*
D03*
Y138553D02*
D03*
X491000Y131447D02*
D03*
Y137353D02*
D03*
X480800Y131247D02*
D03*
Y137153D02*
D03*
X471400Y130847D02*
D03*
Y136753D02*
D03*
X461400Y131247D02*
D03*
Y137153D02*
D03*
X451200Y131047D02*
D03*
Y136953D02*
D03*
X441000Y131247D02*
D03*
Y137153D02*
D03*
X512600Y55447D02*
D03*
Y61353D02*
D03*
X512800Y67047D02*
D03*
Y72953D02*
D03*
D23*
X547953Y59300D02*
D03*
X542047D02*
D03*
X593406Y194500D02*
D03*
X587500D02*
D03*
X289347Y120100D02*
D03*
X295253D02*
D03*
X283053Y291500D02*
D03*
X277147D02*
D03*
X190047Y322900D02*
D03*
X195953D02*
D03*
X588147Y437300D02*
D03*
X594053D02*
D03*
D24*
X327500Y349744D02*
D03*
Y355256D02*
D03*
X464500Y291144D02*
D03*
Y296656D02*
D03*
X415000Y385244D02*
D03*
Y390756D02*
D03*
X459000Y288344D02*
D03*
Y293856D02*
D03*
X461200Y320456D02*
D03*
Y314944D02*
D03*
X318500Y270500D02*
D03*
Y264988D02*
D03*
X467500Y320000D02*
D03*
Y314488D02*
D03*
X301500Y141488D02*
D03*
Y147000D02*
D03*
X307500Y141488D02*
D03*
Y147000D02*
D03*
X631500Y182744D02*
D03*
Y188256D02*
D03*
X630500Y465756D02*
D03*
Y460244D02*
D03*
X272000Y47744D02*
D03*
Y53256D02*
D03*
X642500Y182744D02*
D03*
Y188256D02*
D03*
X640500Y465756D02*
D03*
Y460244D02*
D03*
X282400Y126444D02*
D03*
Y131956D02*
D03*
Y143356D02*
D03*
Y137844D02*
D03*
X345900Y143844D02*
D03*
Y149356D02*
D03*
X346200Y161156D02*
D03*
Y155644D02*
D03*
X440100Y220044D02*
D03*
Y225556D02*
D03*
X67500Y469144D02*
D03*
Y474656D02*
D03*
X113500Y403744D02*
D03*
Y409256D02*
D03*
X120000Y403744D02*
D03*
Y409256D02*
D03*
X126000Y403244D02*
D03*
Y408756D02*
D03*
X133000Y403244D02*
D03*
Y408756D02*
D03*
X141500Y403244D02*
D03*
Y408756D02*
D03*
X157100Y460656D02*
D03*
Y455144D02*
D03*
X150800Y460656D02*
D03*
Y455144D02*
D03*
X288200Y290956D02*
D03*
Y285444D02*
D03*
X156600Y520856D02*
D03*
Y515344D02*
D03*
X465800Y355844D02*
D03*
Y361356D02*
D03*
X259500Y271256D02*
D03*
Y265744D02*
D03*
X490700Y567088D02*
D03*
Y572600D02*
D03*
X281000Y349744D02*
D03*
Y355256D02*
D03*
X258500Y348744D02*
D03*
Y354256D02*
D03*
X290000Y349744D02*
D03*
Y355256D02*
D03*
X249000Y271256D02*
D03*
Y265744D02*
D03*
X392200Y385188D02*
D03*
Y390700D02*
D03*
X432900Y220044D02*
D03*
Y225556D02*
D03*
X271900Y290756D02*
D03*
Y285244D02*
D03*
X201700Y329812D02*
D03*
Y324300D02*
D03*
X184900Y329456D02*
D03*
Y323944D02*
D03*
X532700Y58756D02*
D03*
Y53244D02*
D03*
X458500Y380356D02*
D03*
Y374844D02*
D03*
X460600Y361300D02*
D03*
Y355788D02*
D03*
X283000Y270756D02*
D03*
Y265244D02*
D03*
D37*
X735000Y-3000D02*
X753000D01*
Y14000D01*
X-3000Y653000D02*
X15000D01*
X-3000Y636000D02*
Y653000D01*
Y-3000D02*
X14000D01*
X-3000D02*
Y15000D01*
D38*
X575000Y73800D02*
D03*
X504300Y413300D02*
D03*
X730000Y590000D02*
D03*
Y580000D02*
D03*
Y570000D02*
D03*
Y560000D02*
D03*
Y550000D02*
D03*
Y540000D02*
D03*
Y530000D02*
D03*
Y520000D02*
D03*
X700000Y590000D02*
D03*
Y580000D02*
D03*
Y570000D02*
D03*
Y560000D02*
D03*
Y550000D02*
D03*
Y540000D02*
D03*
Y530000D02*
D03*
Y520000D02*
D03*
X730000Y230000D02*
D03*
Y220000D02*
D03*
Y210000D02*
D03*
Y200000D02*
D03*
Y190000D02*
D03*
Y180000D02*
D03*
Y170000D02*
D03*
Y160000D02*
D03*
Y150000D02*
D03*
Y140000D02*
D03*
Y130000D02*
D03*
Y120000D02*
D03*
Y110000D02*
D03*
Y90000D02*
D03*
Y100000D02*
D03*
X700000Y230000D02*
D03*
Y220000D02*
D03*
Y210000D02*
D03*
Y200000D02*
D03*
Y190000D02*
D03*
Y180000D02*
D03*
Y170000D02*
D03*
Y160000D02*
D03*
Y150000D02*
D03*
Y140000D02*
D03*
Y130000D02*
D03*
Y120000D02*
D03*
Y110000D02*
D03*
Y90000D02*
D03*
Y100000D02*
D03*
X730000Y240000D02*
D03*
Y250000D02*
D03*
Y260000D02*
D03*
Y270000D02*
D03*
Y280000D02*
D03*
X700000Y250000D02*
D03*
Y240000D02*
D03*
Y260000D02*
D03*
Y270000D02*
D03*
Y280000D02*
D03*
X730000Y290000D02*
D03*
Y300000D02*
D03*
Y310000D02*
D03*
Y320000D02*
D03*
Y330000D02*
D03*
Y340000D02*
D03*
Y350000D02*
D03*
Y360000D02*
D03*
Y370000D02*
D03*
Y380000D02*
D03*
Y390000D02*
D03*
Y400000D02*
D03*
Y410000D02*
D03*
Y420000D02*
D03*
X700000Y290000D02*
D03*
Y300000D02*
D03*
Y310000D02*
D03*
Y320000D02*
D03*
Y330000D02*
D03*
Y340000D02*
D03*
Y350000D02*
D03*
Y360000D02*
D03*
Y380000D02*
D03*
Y370000D02*
D03*
Y390000D02*
D03*
Y400000D02*
D03*
Y410000D02*
D03*
Y420000D02*
D03*
Y430000D02*
D03*
Y440000D02*
D03*
Y450000D02*
D03*
Y460000D02*
D03*
Y470000D02*
D03*
Y480000D02*
D03*
Y490000D02*
D03*
Y500000D02*
D03*
Y510000D02*
D03*
X730000Y430000D02*
D03*
Y440000D02*
D03*
Y450000D02*
D03*
Y460000D02*
D03*
Y470000D02*
D03*
Y480000D02*
D03*
Y490000D02*
D03*
Y500000D02*
D03*
Y510000D02*
D03*
X198900Y164400D02*
D03*
X567900Y274700D02*
D03*
X490800Y431300D02*
D03*
X242600Y472000D02*
D03*
X292000Y98500D02*
D03*
X282000D02*
D03*
X268000Y79500D02*
D03*
X278000D02*
D03*
X273000Y69500D02*
D03*
X283000D02*
D03*
X259000Y98500D02*
D03*
X258000Y79500D02*
D03*
X249000Y98500D02*
D03*
X253000Y69500D02*
D03*
X263000D02*
D03*
X46700Y516100D02*
D03*
Y526100D02*
D03*
Y536100D02*
D03*
Y546100D02*
D03*
Y556100D02*
D03*
Y566100D02*
D03*
Y576100D02*
D03*
X603800Y615300D02*
D03*
Y605300D02*
D03*
Y596300D02*
D03*
D39*
X30800Y77400D02*
D03*
X563800Y173500D02*
D03*
X521900Y200900D02*
D03*
X378500Y199000D02*
D03*
X395500Y208000D02*
D03*
D40*
X30800Y87400D02*
D03*
Y97400D02*
D03*
Y107400D02*
D03*
Y117400D02*
D03*
Y127400D02*
D03*
X333000Y481000D02*
D03*
X343000Y471000D02*
D03*
X323000D02*
D03*
X333000D02*
D03*
X323000Y481000D02*
D03*
X313000D02*
D03*
Y471000D02*
D03*
X501000Y113000D02*
D03*
X471000Y123000D02*
D03*
X461000D02*
D03*
X491000D02*
D03*
X481000D02*
D03*
X491000Y113000D02*
D03*
X471000D02*
D03*
X461000D02*
D03*
X481000D02*
D03*
X451000Y123000D02*
D03*
X441000D02*
D03*
X431000D02*
D03*
X421000D02*
D03*
X411000D02*
D03*
X431000Y113000D02*
D03*
X441000D02*
D03*
X421000D02*
D03*
X451000D02*
D03*
X411000D02*
D03*
X573800Y173500D02*
D03*
Y163500D02*
D03*
Y143500D02*
D03*
Y153500D02*
D03*
Y133500D02*
D03*
Y113500D02*
D03*
Y103500D02*
D03*
Y123500D02*
D03*
X563800Y153500D02*
D03*
Y163500D02*
D03*
Y143500D02*
D03*
Y123500D02*
D03*
Y133500D02*
D03*
Y113500D02*
D03*
Y103500D02*
D03*
X531900Y200900D02*
D03*
Y190900D02*
D03*
Y170900D02*
D03*
Y180900D02*
D03*
Y160900D02*
D03*
Y140900D02*
D03*
Y130900D02*
D03*
Y150900D02*
D03*
X521900Y180900D02*
D03*
Y190900D02*
D03*
Y170900D02*
D03*
Y150900D02*
D03*
Y160900D02*
D03*
Y140900D02*
D03*
Y130900D02*
D03*
X378500Y189000D02*
D03*
Y179000D02*
D03*
X395500Y198000D02*
D03*
Y178000D02*
D03*
Y188000D02*
D03*
X440000Y459500D02*
D03*
X420000Y469500D02*
D03*
X410000D02*
D03*
X430000D02*
D03*
Y459500D02*
D03*
X410000D02*
D03*
X400000D02*
D03*
X420000D02*
D03*
X400000Y469500D02*
D03*
X390000D02*
D03*
X380000D02*
D03*
X370000D02*
D03*
X390000Y459500D02*
D03*
X380000D02*
D03*
X370000D02*
D03*
X317000Y504500D02*
D03*
X297000Y514500D02*
D03*
X287000D02*
D03*
X307000D02*
D03*
Y504500D02*
D03*
X287000D02*
D03*
X277000D02*
D03*
X297000D02*
D03*
X277000Y514500D02*
D03*
X267000D02*
D03*
X257000D02*
D03*
X247000D02*
D03*
X267000Y504500D02*
D03*
X257000D02*
D03*
X247000D02*
D03*
X572000Y42000D02*
D03*
Y22315D02*
D03*
X552315D02*
D03*
Y42000D02*
D03*
X391800Y68600D02*
D03*
X381800D02*
D03*
X95500Y580685D02*
D03*
X75815D02*
D03*
X95500Y561000D02*
D03*
X75815D02*
D03*
D41*
X109422Y416000D02*
D03*
X103517D02*
D03*
X115328D02*
D03*
X91706D02*
D03*
X85800D02*
D03*
X97611D02*
D03*
X138950D02*
D03*
X127139D02*
D03*
X121233D02*
D03*
X133044D02*
D03*
X79894D02*
D03*
X73989D02*
D03*
X62178D02*
D03*
X56272D02*
D03*
X68083D02*
D03*
X50367D02*
D03*
X44461D02*
D03*
D42*
X159816Y408323D02*
D03*
X23595D02*
D03*
D43*
X343000Y481000D02*
D03*
X501000Y123000D02*
D03*
X440000Y469500D02*
D03*
X317000Y514500D02*
D03*
X371800Y68600D02*
D03*
D44*
X199000Y298300D02*
D03*
Y294000D02*
D03*
D45*
X177776Y265824D02*
D03*
X164200Y279400D02*
D03*
X332700Y161300D02*
D03*
Y142100D02*
D03*
D46*
X103300Y44000D02*
D03*
X85300Y31000D02*
D03*
D47*
Y54500D02*
D03*
D48*
X288000Y79500D02*
D03*
D49*
X301200Y56500D02*
D03*
X239800D02*
D03*
D50*
X293000Y44500D02*
D03*
X248000D02*
D03*
D51*
X523200Y50400D02*
D03*
Y70400D02*
D03*
Y60400D02*
D03*
X493200Y70400D02*
D03*
Y60400D02*
D03*
Y50400D02*
D03*
Y40400D02*
D03*
X168000Y521000D02*
D03*
Y511000D02*
D03*
Y501000D02*
D03*
Y491000D02*
D03*
Y481000D02*
D03*
Y471000D02*
D03*
Y461000D02*
D03*
Y451000D02*
D03*
Y441000D02*
D03*
Y431000D02*
D03*
X138000D02*
D03*
Y441000D02*
D03*
Y451000D02*
D03*
Y461000D02*
D03*
Y471000D02*
D03*
Y481000D02*
D03*
Y491000D02*
D03*
Y501000D02*
D03*
Y511000D02*
D03*
X181400Y182400D02*
D03*
Y192400D02*
D03*
Y202400D02*
D03*
Y212400D02*
D03*
X211400D02*
D03*
Y202400D02*
D03*
Y192400D02*
D03*
D52*
X523200Y40400D02*
D03*
X138000Y521000D02*
D03*
X211400Y182400D02*
D03*
D53*
X483800Y238700D02*
D03*
Y228700D02*
D03*
X473800Y248700D02*
D03*
Y238700D02*
D03*
X483800Y218700D02*
D03*
Y208700D02*
D03*
X473800Y218700D02*
D03*
X453800Y248700D02*
D03*
X463800D02*
D03*
X453800Y238700D02*
D03*
X473800Y228700D02*
D03*
Y208700D02*
D03*
X463800Y238700D02*
D03*
X483800Y198700D02*
D03*
X473800D02*
D03*
X483800Y188700D02*
D03*
X473800D02*
D03*
X463800D02*
D03*
X473800Y178700D02*
D03*
X453800Y188700D02*
D03*
Y178700D02*
D03*
X463800D02*
D03*
X443800D02*
D03*
X433800Y248700D02*
D03*
X443800D02*
D03*
X433800Y238700D02*
D03*
X443800D02*
D03*
X423800D02*
D03*
Y248700D02*
D03*
Y228700D02*
D03*
X413800Y238700D02*
D03*
Y228700D02*
D03*
X423800Y218700D02*
D03*
X413800D02*
D03*
X433800Y188700D02*
D03*
X443800D02*
D03*
X423800Y198700D02*
D03*
Y178700D02*
D03*
X433800D02*
D03*
X413800Y208700D02*
D03*
X423800D02*
D03*
X413800Y198700D02*
D03*
X423800Y188700D02*
D03*
X413800D02*
D03*
X516200Y584600D02*
D03*
X506200D02*
D03*
X516200Y574600D02*
D03*
X506200D02*
D03*
X496200Y594600D02*
D03*
X506200D02*
D03*
X486200D02*
D03*
X496200Y584600D02*
D03*
X486200D02*
D03*
X516200Y564600D02*
D03*
X506200D02*
D03*
X516200Y554600D02*
D03*
X506200D02*
D03*
Y544600D02*
D03*
X496200Y554600D02*
D03*
Y544600D02*
D03*
X486200D02*
D03*
X466200Y594600D02*
D03*
X476200D02*
D03*
Y584600D02*
D03*
X466200D02*
D03*
Y574600D02*
D03*
X456200Y584600D02*
D03*
X466200Y564600D02*
D03*
X456200Y574600D02*
D03*
X476200Y554600D02*
D03*
X486200D02*
D03*
X466200D02*
D03*
X476200Y544600D02*
D03*
X456200Y564600D02*
D03*
X466200Y544600D02*
D03*
X456200Y554600D02*
D03*
D54*
X611300Y417700D02*
D03*
Y407700D02*
D03*
Y427700D02*
D03*
Y387700D02*
D03*
Y397700D02*
D03*
Y457700D02*
D03*
Y467700D02*
D03*
Y437700D02*
D03*
Y447700D02*
D03*
Y337700D02*
D03*
Y327700D02*
D03*
Y307700D02*
D03*
Y317700D02*
D03*
Y367700D02*
D03*
Y377700D02*
D03*
Y347700D02*
D03*
Y357700D02*
D03*
Y297700D02*
D03*
Y277700D02*
D03*
Y287700D02*
D03*
Y257700D02*
D03*
Y267700D02*
D03*
Y237700D02*
D03*
Y247700D02*
D03*
Y217700D02*
D03*
Y207700D02*
D03*
Y227700D02*
D03*
Y197700D02*
D03*
Y187700D02*
D03*
D55*
Y505200D02*
D03*
D56*
Y140200D02*
D03*
D57*
Y177700D02*
D03*
D58*
X340000Y535000D02*
D03*
X536000Y105000D02*
D03*
X378000Y120000D02*
D03*
X30000Y620000D02*
D03*
X720000D02*
D03*
Y30000D02*
D03*
X30000D02*
D03*
D59*
X84100Y106400D02*
D03*
Y116400D02*
D03*
X84200Y169000D02*
D03*
Y179000D02*
D03*
X84300Y228700D02*
D03*
Y238700D02*
D03*
X83900Y288300D02*
D03*
Y298300D02*
D03*
D60*
X84100Y96400D02*
D03*
X84200Y159000D02*
D03*
X84300Y218700D02*
D03*
X83900Y278300D02*
D03*
D61*
X46700Y586100D02*
D03*
D62*
X200473Y599473D02*
D03*
X220158D02*
D03*
X230000D02*
D03*
X190630Y619158D02*
D03*
X230000D02*
D03*
X190630Y629000D02*
D03*
X230000D02*
D03*
X210315Y619158D02*
D03*
Y599473D02*
D03*
X190630D02*
D03*
X145157Y599315D02*
D03*
X164842D02*
D03*
X174685D02*
D03*
X135315Y619000D02*
D03*
X174685D02*
D03*
X135315Y628842D02*
D03*
X174685D02*
D03*
X155000Y619000D02*
D03*
Y599315D02*
D03*
X135315D02*
D03*
D64*
X92620Y314000D02*
D03*
X70180D02*
D03*
X93420Y253400D02*
D03*
X70980D02*
D03*
X95420Y194000D02*
D03*
X72980D02*
D03*
X98320Y131900D02*
D03*
X75880D02*
D03*
M02*
