G04 Layer_Physical_Order=1*
G04 Layer_Color=255*
%FSLAX25Y25*%
%MOIN*%
G70*
G01*
G75*
%ADD10O,0.07874X0.01378*%
%ADD11R,0.03543X0.02756*%
%ADD12R,0.03543X0.03150*%
%ADD13O,0.08000X0.02400*%
%ADD14R,0.03150X0.03543*%
%ADD15O,0.01575X0.07087*%
%ADD16R,0.02756X0.03543*%
%ADD17R,0.03150X0.03543*%
%ADD18R,0.02165X0.02953*%
%ADD19O,0.08000X0.01600*%
%ADD20O,0.00984X0.05905*%
%ADD21O,0.05905X0.00984*%
%ADD22O,0.01181X0.09646*%
%ADD23O,0.09646X0.01181*%
%ADD24O,0.02165X0.07874*%
%ADD25O,0.01600X0.08000*%
%ADD26O,0.01378X0.07874*%
%ADD27R,0.04331X0.06693*%
%ADD28C,0.01000*%
%ADD29C,0.25000*%
%ADD30R,0.05905X0.05905*%
%ADD31C,0.05905*%
%ADD32C,0.06299*%
%ADD33R,0.05000X0.05000*%
%ADD34C,0.05000*%
%ADD35C,0.06000*%
%ADD36C,0.06500*%
%ADD37C,0.03400*%
%ADD38O,0.14500X0.04500*%
%ADD39O,0.04500X0.14500*%
%ADD40O,0.16500X0.05500*%
%ADD41C,0.12500*%
%ADD42R,0.06200X0.06200*%
%ADD43C,0.15000*%
%ADD44R,0.06000X0.06000*%
%ADD45C,0.08000*%
%ADD46C,0.04500*%
%ADD47C,0.10600*%
%ADD48C,0.08500*%
%ADD49C,0.06200*%
%ADD50C,0.06600*%
%ADD51C,0.03937*%
%ADD52R,0.06000X0.06000*%
%ADD53C,0.03000*%
D10*
X216835Y422087D02*
D03*
Y424646D02*
D03*
Y427205D02*
D03*
Y429764D02*
D03*
Y432323D02*
D03*
Y434882D02*
D03*
Y437441D02*
D03*
Y440000D02*
D03*
X194000Y422087D02*
D03*
Y424646D02*
D03*
Y427205D02*
D03*
Y429764D02*
D03*
Y432323D02*
D03*
Y434882D02*
D03*
Y437441D02*
D03*
Y440000D02*
D03*
X215817Y490643D02*
D03*
Y493202D02*
D03*
Y495761D02*
D03*
Y498320D02*
D03*
Y500880D02*
D03*
Y503439D02*
D03*
Y505998D02*
D03*
Y508557D02*
D03*
X192983Y490643D02*
D03*
Y493202D02*
D03*
Y495761D02*
D03*
Y498320D02*
D03*
Y500880D02*
D03*
Y503439D02*
D03*
Y505998D02*
D03*
Y508557D02*
D03*
X215817Y456043D02*
D03*
Y458602D02*
D03*
Y461161D02*
D03*
Y463720D02*
D03*
Y466280D02*
D03*
Y468839D02*
D03*
Y471398D02*
D03*
Y473957D02*
D03*
X192983Y456043D02*
D03*
Y458602D02*
D03*
Y461161D02*
D03*
Y463720D02*
D03*
Y466280D02*
D03*
Y468839D02*
D03*
Y471398D02*
D03*
Y473957D02*
D03*
D11*
X206600Y383647D02*
D03*
Y389553D02*
D03*
X206000Y350247D02*
D03*
Y356153D02*
D03*
X371400Y79294D02*
D03*
Y85200D02*
D03*
X392600Y78094D02*
D03*
Y84000D02*
D03*
X226600Y180753D02*
D03*
Y174847D02*
D03*
X236800Y180153D02*
D03*
Y174247D02*
D03*
X308600Y179153D02*
D03*
Y173247D02*
D03*
X326000Y77706D02*
D03*
Y71800D02*
D03*
X310400Y77506D02*
D03*
Y71600D02*
D03*
X318800Y77706D02*
D03*
Y71800D02*
D03*
X334000Y77506D02*
D03*
Y71600D02*
D03*
X276000Y173647D02*
D03*
Y179553D02*
D03*
X267800D02*
D03*
Y173647D02*
D03*
X260200Y179953D02*
D03*
Y174047D02*
D03*
X252800Y179953D02*
D03*
Y174047D02*
D03*
X245600Y174247D02*
D03*
Y180153D02*
D03*
X301600Y173494D02*
D03*
Y179400D02*
D03*
X284200Y173447D02*
D03*
Y179353D02*
D03*
X293200Y173447D02*
D03*
Y179353D02*
D03*
X316200Y173847D02*
D03*
Y179753D02*
D03*
D12*
X196400Y348156D02*
D03*
Y342644D02*
D03*
X206400Y341956D02*
D03*
Y336444D02*
D03*
X197600Y384356D02*
D03*
Y378844D02*
D03*
X206600Y378400D02*
D03*
Y372888D02*
D03*
X141600Y49844D02*
D03*
Y55356D02*
D03*
X153200Y48688D02*
D03*
Y54200D02*
D03*
X165600Y49044D02*
D03*
Y54556D02*
D03*
X177000Y49244D02*
D03*
Y54756D02*
D03*
X189000Y48044D02*
D03*
Y53556D02*
D03*
X535000Y52088D02*
D03*
Y57600D02*
D03*
X350700Y143544D02*
D03*
Y149056D02*
D03*
Y160356D02*
D03*
Y154844D02*
D03*
X198500Y298244D02*
D03*
Y303756D02*
D03*
X183500Y257000D02*
D03*
Y262512D02*
D03*
Y280256D02*
D03*
Y274744D02*
D03*
X198500Y289756D02*
D03*
Y284244D02*
D03*
D13*
X171800Y474200D02*
D03*
Y479200D02*
D03*
Y484200D02*
D03*
Y489200D02*
D03*
X133800Y444200D02*
D03*
Y449200D02*
D03*
X171800Y464200D02*
D03*
Y469200D02*
D03*
X133800Y454200D02*
D03*
X171800Y459200D02*
D03*
Y454200D02*
D03*
Y449200D02*
D03*
Y444200D02*
D03*
X133800Y459200D02*
D03*
Y464200D02*
D03*
Y469200D02*
D03*
Y474200D02*
D03*
Y479200D02*
D03*
Y484200D02*
D03*
Y489200D02*
D03*
D14*
X213000Y481200D02*
D03*
X207488D02*
D03*
X191844Y516400D02*
D03*
X197356D02*
D03*
X205200Y447400D02*
D03*
X210712D02*
D03*
X192044Y481000D02*
D03*
X197556D02*
D03*
X208556Y516400D02*
D03*
X203044D02*
D03*
X143756Y563000D02*
D03*
X138244D02*
D03*
X156644D02*
D03*
X162156D02*
D03*
X212744Y296000D02*
D03*
X218256D02*
D03*
X194200Y447400D02*
D03*
X199712D02*
D03*
X197444Y534400D02*
D03*
X202956D02*
D03*
X301800Y122600D02*
D03*
X307312D02*
D03*
D15*
X215113Y568000D02*
D03*
X212554D02*
D03*
X192082D02*
D03*
X215113Y544575D02*
D03*
X212554D02*
D03*
X209995D02*
D03*
X207436D02*
D03*
X194641Y568000D02*
D03*
X204877Y544575D02*
D03*
X202318D02*
D03*
X199759D02*
D03*
X197200D02*
D03*
X194641D02*
D03*
X192082D02*
D03*
X197200Y568000D02*
D03*
X199759D02*
D03*
X202318D02*
D03*
X204877D02*
D03*
X207436D02*
D03*
X209995D02*
D03*
D16*
X156247Y545200D02*
D03*
X162153D02*
D03*
X162306Y553800D02*
D03*
X156400D02*
D03*
X137647Y548800D02*
D03*
X143553D02*
D03*
X138047Y556600D02*
D03*
X143953D02*
D03*
Y571000D02*
D03*
X138047D02*
D03*
X162553Y571400D02*
D03*
X156647D02*
D03*
X170753Y202600D02*
D03*
X164847D02*
D03*
X170953Y212600D02*
D03*
X165047D02*
D03*
X99047Y263200D02*
D03*
X104953D02*
D03*
X106153Y291400D02*
D03*
X100247D02*
D03*
X108353Y207000D02*
D03*
X102447D02*
D03*
X108753Y151600D02*
D03*
X102847D02*
D03*
X108200Y239600D02*
D03*
X102294D02*
D03*
X109506Y182800D02*
D03*
X103600D02*
D03*
X101847Y93800D02*
D03*
X107753D02*
D03*
X107353Y127000D02*
D03*
X101447D02*
D03*
X223247Y109600D02*
D03*
X229153D02*
D03*
X222847Y101400D02*
D03*
X228753D02*
D03*
X222847Y119600D02*
D03*
X228753D02*
D03*
X223047Y127800D02*
D03*
X228953D02*
D03*
X222647Y137600D02*
D03*
X228553D02*
D03*
D17*
X26140Y438874D02*
D03*
X18660D02*
D03*
X22400Y431000D02*
D03*
D18*
X535032Y21454D02*
D03*
X537000Y15746D02*
D03*
X538969Y21454D02*
D03*
D19*
X487200Y195400D02*
D03*
Y197900D02*
D03*
Y200400D02*
D03*
Y202900D02*
D03*
Y205400D02*
D03*
Y207900D02*
D03*
Y210400D02*
D03*
Y212900D02*
D03*
Y215400D02*
D03*
Y217900D02*
D03*
Y220400D02*
D03*
Y222900D02*
D03*
Y225400D02*
D03*
Y227900D02*
D03*
Y230400D02*
D03*
Y232900D02*
D03*
Y235400D02*
D03*
Y237900D02*
D03*
Y240400D02*
D03*
Y242900D02*
D03*
Y245400D02*
D03*
Y247900D02*
D03*
Y250400D02*
D03*
X451200D02*
D03*
Y247900D02*
D03*
Y245400D02*
D03*
Y242900D02*
D03*
Y240400D02*
D03*
Y237900D02*
D03*
Y235400D02*
D03*
Y232900D02*
D03*
Y230400D02*
D03*
Y227900D02*
D03*
Y225400D02*
D03*
Y222900D02*
D03*
Y220400D02*
D03*
Y217900D02*
D03*
Y215400D02*
D03*
Y212900D02*
D03*
Y210400D02*
D03*
Y207900D02*
D03*
Y205400D02*
D03*
Y202900D02*
D03*
Y200400D02*
D03*
Y197900D02*
D03*
Y195400D02*
D03*
Y192900D02*
D03*
X487200D02*
D03*
X418500Y279500D02*
D03*
X382500D02*
D03*
Y282000D02*
D03*
Y284500D02*
D03*
Y287000D02*
D03*
Y289500D02*
D03*
Y292000D02*
D03*
Y294500D02*
D03*
Y297000D02*
D03*
Y299500D02*
D03*
Y302000D02*
D03*
Y304500D02*
D03*
Y307000D02*
D03*
Y309500D02*
D03*
Y312000D02*
D03*
Y314500D02*
D03*
Y317000D02*
D03*
Y319500D02*
D03*
Y322000D02*
D03*
Y324500D02*
D03*
Y327000D02*
D03*
Y329500D02*
D03*
Y332000D02*
D03*
Y334500D02*
D03*
Y337000D02*
D03*
X418500D02*
D03*
Y334500D02*
D03*
Y332000D02*
D03*
Y329500D02*
D03*
Y327000D02*
D03*
Y324500D02*
D03*
Y322000D02*
D03*
Y319500D02*
D03*
Y317000D02*
D03*
Y314500D02*
D03*
Y312000D02*
D03*
Y309500D02*
D03*
Y307000D02*
D03*
Y304500D02*
D03*
Y302000D02*
D03*
Y299500D02*
D03*
Y297000D02*
D03*
Y294500D02*
D03*
Y292000D02*
D03*
Y289500D02*
D03*
Y287000D02*
D03*
Y284500D02*
D03*
Y282000D02*
D03*
X419500Y382500D02*
D03*
X383500D02*
D03*
Y385000D02*
D03*
Y387500D02*
D03*
Y390000D02*
D03*
Y392500D02*
D03*
Y395000D02*
D03*
Y397500D02*
D03*
Y400000D02*
D03*
Y402500D02*
D03*
Y405000D02*
D03*
Y407500D02*
D03*
Y410000D02*
D03*
Y412500D02*
D03*
Y415000D02*
D03*
Y417500D02*
D03*
Y420000D02*
D03*
Y422500D02*
D03*
Y425000D02*
D03*
Y427500D02*
D03*
Y430000D02*
D03*
Y432500D02*
D03*
Y435000D02*
D03*
Y437500D02*
D03*
Y440000D02*
D03*
X419500D02*
D03*
Y437500D02*
D03*
Y435000D02*
D03*
Y432500D02*
D03*
Y430000D02*
D03*
Y427500D02*
D03*
Y425000D02*
D03*
Y422500D02*
D03*
Y420000D02*
D03*
Y417500D02*
D03*
Y415000D02*
D03*
Y412500D02*
D03*
Y410000D02*
D03*
Y407500D02*
D03*
Y405000D02*
D03*
Y402500D02*
D03*
Y400000D02*
D03*
Y397500D02*
D03*
Y395000D02*
D03*
Y392500D02*
D03*
Y390000D02*
D03*
Y387500D02*
D03*
Y385000D02*
D03*
X487200Y263300D02*
D03*
Y265800D02*
D03*
Y268300D02*
D03*
Y270800D02*
D03*
Y273300D02*
D03*
Y275800D02*
D03*
Y278300D02*
D03*
Y280800D02*
D03*
Y283300D02*
D03*
Y285800D02*
D03*
Y288300D02*
D03*
Y290800D02*
D03*
Y293300D02*
D03*
Y295800D02*
D03*
Y298300D02*
D03*
Y300800D02*
D03*
Y303300D02*
D03*
Y305800D02*
D03*
Y308300D02*
D03*
Y310800D02*
D03*
Y313300D02*
D03*
Y315800D02*
D03*
Y318300D02*
D03*
X451200D02*
D03*
Y315800D02*
D03*
Y313300D02*
D03*
Y310800D02*
D03*
Y308300D02*
D03*
Y305800D02*
D03*
Y303300D02*
D03*
Y300800D02*
D03*
Y298300D02*
D03*
Y295800D02*
D03*
Y293300D02*
D03*
Y290800D02*
D03*
Y288300D02*
D03*
Y285800D02*
D03*
Y283300D02*
D03*
Y280800D02*
D03*
Y278300D02*
D03*
Y275800D02*
D03*
Y273300D02*
D03*
Y270800D02*
D03*
Y268300D02*
D03*
Y265800D02*
D03*
Y263300D02*
D03*
Y260800D02*
D03*
X487200D02*
D03*
X406600Y458700D02*
D03*
Y461200D02*
D03*
Y463700D02*
D03*
Y466200D02*
D03*
Y468700D02*
D03*
Y471200D02*
D03*
Y473700D02*
D03*
Y476200D02*
D03*
Y478700D02*
D03*
Y481200D02*
D03*
Y483700D02*
D03*
Y486200D02*
D03*
Y488700D02*
D03*
Y491200D02*
D03*
Y493700D02*
D03*
Y496200D02*
D03*
Y498700D02*
D03*
Y501200D02*
D03*
Y503700D02*
D03*
Y506200D02*
D03*
Y508700D02*
D03*
Y511200D02*
D03*
Y513700D02*
D03*
X370600D02*
D03*
Y511200D02*
D03*
Y508700D02*
D03*
Y506200D02*
D03*
Y503700D02*
D03*
Y501200D02*
D03*
Y498700D02*
D03*
Y496200D02*
D03*
Y493700D02*
D03*
Y491200D02*
D03*
Y488700D02*
D03*
Y486200D02*
D03*
Y483700D02*
D03*
Y481200D02*
D03*
Y478700D02*
D03*
Y476200D02*
D03*
Y473700D02*
D03*
Y471200D02*
D03*
Y468700D02*
D03*
Y466200D02*
D03*
Y463700D02*
D03*
Y461200D02*
D03*
Y458700D02*
D03*
Y456200D02*
D03*
X406600D02*
D03*
D20*
X270294Y154600D02*
D03*
X268326D02*
D03*
X266357D02*
D03*
X264389D02*
D03*
X262420D02*
D03*
Y119167D02*
D03*
X272263Y154600D02*
D03*
X274231D02*
D03*
X276200D02*
D03*
X278168D02*
D03*
X280137D02*
D03*
X282105D02*
D03*
X284074D02*
D03*
Y119167D02*
D03*
X282105D02*
D03*
X280137D02*
D03*
X278168D02*
D03*
X276200D02*
D03*
X274231D02*
D03*
X272263D02*
D03*
X270294D02*
D03*
X268326D02*
D03*
X266357D02*
D03*
X264389D02*
D03*
D21*
X255531Y147710D02*
D03*
Y126057D02*
D03*
X290964Y145742D02*
D03*
Y147710D02*
D03*
Y143773D02*
D03*
Y141805D02*
D03*
Y139836D02*
D03*
Y137868D02*
D03*
Y135899D02*
D03*
Y133931D02*
D03*
Y131962D02*
D03*
Y129994D02*
D03*
Y128025D02*
D03*
Y126057D02*
D03*
X255531Y145742D02*
D03*
Y128025D02*
D03*
Y129994D02*
D03*
Y131962D02*
D03*
Y133931D02*
D03*
Y135899D02*
D03*
Y137868D02*
D03*
Y139836D02*
D03*
Y141805D02*
D03*
Y143773D02*
D03*
D22*
X241921Y249941D02*
D03*
X241921Y369823D02*
D03*
X300976Y249941D02*
D03*
X243890Y369823D02*
D03*
X245858D02*
D03*
X247827D02*
D03*
X249795D02*
D03*
X251764D02*
D03*
X253732D02*
D03*
X255701D02*
D03*
X257669D02*
D03*
X259638D02*
D03*
X261606D02*
D03*
X263575D02*
D03*
X265543D02*
D03*
X267512D02*
D03*
X269480D02*
D03*
X271449D02*
D03*
X273417D02*
D03*
X275386D02*
D03*
X277354D02*
D03*
X279323D02*
D03*
X281291D02*
D03*
X283260D02*
D03*
X285228D02*
D03*
X287197D02*
D03*
X289165D02*
D03*
X291134D02*
D03*
X293102D02*
D03*
X295071D02*
D03*
X297039D02*
D03*
X299008D02*
D03*
X300976D02*
D03*
X302945D02*
D03*
X304913D02*
D03*
X306882D02*
D03*
X308850D02*
D03*
X310819D02*
D03*
X312787D02*
D03*
X314756D02*
D03*
X316724D02*
D03*
X318693D02*
D03*
X320661D02*
D03*
X322630D02*
D03*
X324598D02*
D03*
X326567D02*
D03*
X328535D02*
D03*
X330504D02*
D03*
X332473D02*
D03*
X334441D02*
D03*
X336410D02*
D03*
X338378D02*
D03*
X340347D02*
D03*
X342315D02*
D03*
Y249941D02*
D03*
X340347D02*
D03*
X338378D02*
D03*
X336410D02*
D03*
X334441D02*
D03*
X332473D02*
D03*
X330504D02*
D03*
X328535D02*
D03*
X326567D02*
D03*
X324598D02*
D03*
X322630D02*
D03*
X320661D02*
D03*
X318693D02*
D03*
X316724D02*
D03*
X314756D02*
D03*
X312787D02*
D03*
X310819D02*
D03*
X308850D02*
D03*
X306882D02*
D03*
X304913D02*
D03*
X302945D02*
D03*
X299008D02*
D03*
X297039D02*
D03*
X295071D02*
D03*
X293102D02*
D03*
X291134D02*
D03*
X289165D02*
D03*
X287197D02*
D03*
X285228D02*
D03*
X283260D02*
D03*
X281291D02*
D03*
X279323D02*
D03*
X277354D02*
D03*
X275386D02*
D03*
X273417D02*
D03*
X271449D02*
D03*
X269480D02*
D03*
X267512D02*
D03*
X265543D02*
D03*
X263575D02*
D03*
X261606D02*
D03*
X259638D02*
D03*
X257669D02*
D03*
X255701D02*
D03*
X253732D02*
D03*
X251764D02*
D03*
X249795D02*
D03*
X247827D02*
D03*
X245858D02*
D03*
X243890D02*
D03*
D23*
X232177Y304961D02*
D03*
Y259685D02*
D03*
X352059D02*
D03*
Y289213D02*
D03*
Y283307D02*
D03*
X232177Y273465D02*
D03*
Y360079D02*
D03*
X352059D02*
D03*
Y358110D02*
D03*
Y356142D02*
D03*
Y354173D02*
D03*
Y352205D02*
D03*
Y350236D02*
D03*
Y348268D02*
D03*
Y346299D02*
D03*
Y344331D02*
D03*
Y342362D02*
D03*
Y340394D02*
D03*
Y338425D02*
D03*
Y336457D02*
D03*
Y334488D02*
D03*
Y332520D02*
D03*
Y330551D02*
D03*
Y328583D02*
D03*
Y326614D02*
D03*
Y324646D02*
D03*
Y322677D02*
D03*
Y320709D02*
D03*
Y318740D02*
D03*
Y316772D02*
D03*
Y314803D02*
D03*
Y312835D02*
D03*
Y310866D02*
D03*
Y308898D02*
D03*
Y306929D02*
D03*
Y304961D02*
D03*
Y302992D02*
D03*
Y301024D02*
D03*
Y299055D02*
D03*
Y297087D02*
D03*
Y295118D02*
D03*
Y293150D02*
D03*
Y291181D02*
D03*
Y287244D02*
D03*
Y285276D02*
D03*
Y281339D02*
D03*
Y279370D02*
D03*
Y277402D02*
D03*
Y275433D02*
D03*
Y273465D02*
D03*
Y271496D02*
D03*
Y269528D02*
D03*
Y267559D02*
D03*
Y265591D02*
D03*
Y263622D02*
D03*
Y261654D02*
D03*
X232177Y358110D02*
D03*
Y356142D02*
D03*
Y354173D02*
D03*
Y352205D02*
D03*
Y350236D02*
D03*
Y348268D02*
D03*
Y346299D02*
D03*
Y344331D02*
D03*
Y342362D02*
D03*
Y340394D02*
D03*
Y338425D02*
D03*
Y336457D02*
D03*
Y334488D02*
D03*
Y332520D02*
D03*
Y330551D02*
D03*
Y328583D02*
D03*
Y326614D02*
D03*
Y324646D02*
D03*
Y322677D02*
D03*
Y320709D02*
D03*
Y318740D02*
D03*
Y316772D02*
D03*
Y314803D02*
D03*
Y312835D02*
D03*
Y310866D02*
D03*
Y308898D02*
D03*
Y306929D02*
D03*
Y302992D02*
D03*
Y301024D02*
D03*
Y299055D02*
D03*
Y297087D02*
D03*
Y295118D02*
D03*
Y293150D02*
D03*
Y291181D02*
D03*
Y289213D02*
D03*
Y287244D02*
D03*
Y285276D02*
D03*
Y283307D02*
D03*
Y281339D02*
D03*
Y279370D02*
D03*
Y277402D02*
D03*
Y275433D02*
D03*
Y271496D02*
D03*
Y269528D02*
D03*
Y267559D02*
D03*
Y265591D02*
D03*
Y263622D02*
D03*
Y261654D02*
D03*
D24*
X400351Y594408D02*
D03*
X397202D02*
D03*
X394052D02*
D03*
X390902D02*
D03*
X387753D02*
D03*
X384603D02*
D03*
X381454D02*
D03*
X378304D02*
D03*
X444446D02*
D03*
Y545400D02*
D03*
X441296D02*
D03*
X438146D02*
D03*
X434997D02*
D03*
X403501Y594408D02*
D03*
X406650D02*
D03*
X409800D02*
D03*
X412950D02*
D03*
X416099D02*
D03*
X419249D02*
D03*
X422398D02*
D03*
X425548D02*
D03*
X428698D02*
D03*
X431847D02*
D03*
X434997D02*
D03*
X438146D02*
D03*
X441296D02*
D03*
X431847Y545400D02*
D03*
X428698D02*
D03*
X425548D02*
D03*
X422398D02*
D03*
X419249D02*
D03*
X416099D02*
D03*
X412950D02*
D03*
X409800D02*
D03*
X406650D02*
D03*
X403501D02*
D03*
X400351D02*
D03*
X397202D02*
D03*
X394052D02*
D03*
X390902D02*
D03*
X387753D02*
D03*
X384603D02*
D03*
X381454D02*
D03*
X378304D02*
D03*
D25*
X311500Y440500D02*
D03*
Y404500D02*
D03*
X309000D02*
D03*
X306500D02*
D03*
X304000D02*
D03*
X301500D02*
D03*
X299000D02*
D03*
X296500D02*
D03*
X294000D02*
D03*
X291500D02*
D03*
X289000D02*
D03*
X286500D02*
D03*
X284000D02*
D03*
X281500D02*
D03*
X279000D02*
D03*
X276500D02*
D03*
X274000D02*
D03*
X271500D02*
D03*
X269000D02*
D03*
X266500D02*
D03*
X264000D02*
D03*
X261500D02*
D03*
X259000D02*
D03*
X256500D02*
D03*
X254000D02*
D03*
Y440500D02*
D03*
X256500D02*
D03*
X259000D02*
D03*
X261500D02*
D03*
X264000D02*
D03*
X266500D02*
D03*
X269000D02*
D03*
X271500D02*
D03*
X274000D02*
D03*
X276500D02*
D03*
X279000D02*
D03*
X281500D02*
D03*
X284000D02*
D03*
X286500D02*
D03*
X289000D02*
D03*
X291500D02*
D03*
X294000D02*
D03*
X296500D02*
D03*
X299000D02*
D03*
X301500D02*
D03*
X304000D02*
D03*
X306500D02*
D03*
X309000D02*
D03*
D26*
X90757Y466817D02*
D03*
X88198D02*
D03*
X85639D02*
D03*
X83080D02*
D03*
X80520D02*
D03*
X77961D02*
D03*
X75402D02*
D03*
X72843D02*
D03*
X90757Y443983D02*
D03*
X88198D02*
D03*
X85639D02*
D03*
X83080D02*
D03*
X80520D02*
D03*
X77961D02*
D03*
X75402D02*
D03*
X72843D02*
D03*
X44443Y444183D02*
D03*
X47002D02*
D03*
X49561D02*
D03*
X52120D02*
D03*
X54680D02*
D03*
X57239D02*
D03*
X59798D02*
D03*
X62357D02*
D03*
X44443Y467017D02*
D03*
X47002D02*
D03*
X49561D02*
D03*
X52120D02*
D03*
X54680D02*
D03*
X57239D02*
D03*
X59798D02*
D03*
X62357D02*
D03*
D27*
X108315Y282800D02*
D03*
X97685D02*
D03*
X108315Y272600D02*
D03*
X97685D02*
D03*
X112115Y105400D02*
D03*
X101485D02*
D03*
X112115Y116000D02*
D03*
X101485D02*
D03*
X111315Y174400D02*
D03*
X100685D02*
D03*
X111115Y162400D02*
D03*
X100485D02*
D03*
X110715Y218400D02*
D03*
X100085D02*
D03*
X110715Y229600D02*
D03*
X100085D02*
D03*
X301085Y114800D02*
D03*
X311715D02*
D03*
D28*
X403500Y476200D02*
Y476406D01*
X449100Y318300D02*
Y370400D01*
X493100Y320300D02*
X494100D01*
X478263D02*
X493100D01*
X497500Y297100D02*
Y328800D01*
Y291800D02*
Y297100D01*
X501489Y288600D02*
Y328011D01*
Y287477D02*
Y288600D01*
X500300Y281900D02*
X502300Y279900D01*
X498400Y283800D02*
X500300Y281900D01*
X490300Y270800D02*
Y271000D01*
X238600Y295600D02*
X238800Y295400D01*
X237113Y297087D02*
X238600Y295600D01*
X394500Y498700D02*
X400800D01*
X393400D02*
X394500D01*
X413685Y441215D02*
X414300Y440600D01*
X410900Y444000D02*
X413685Y441215D01*
X403500Y471000D02*
Y471200D01*
X479965Y317975D02*
X487200Y318300D01*
X478300Y317900D02*
X479965Y317975D01*
X478300Y317200D02*
Y317900D01*
Y307400D02*
Y317200D01*
X396778Y385178D02*
X398000Y386400D01*
X393200Y319400D02*
X393800Y318800D01*
X390600Y322000D02*
X393200Y319400D01*
X486400Y255300D02*
Y260000D01*
Y250400D02*
Y255300D01*
Y260000D02*
X487200D01*
X487000Y250400D02*
Y255300D01*
X493300Y233600D02*
X494100D01*
X483300Y259100D02*
Y260800D01*
X499850Y121850D02*
X507500Y114200D01*
X490300Y131400D02*
X499850Y121850D01*
X422000Y278300D02*
Y279500D01*
X215800Y508557D02*
Y523300D01*
X197060Y557142D02*
X202260Y562458D01*
X206500Y442700D02*
X209200Y440000D01*
X205200Y444000D02*
X206500Y442700D01*
X249800Y377086D02*
X257752D01*
X197059Y557141D02*
X197060Y557141D01*
X182146Y542228D02*
X197059Y557141D01*
X284059Y257281D02*
X285090Y256139D01*
X282528Y258978D02*
X284059Y257281D01*
X293164Y178657D02*
X296834Y178466D01*
X284188Y179126D02*
X293164Y178657D01*
X276000Y179553D02*
X284188Y179126D01*
X222453Y180753D02*
X226600D01*
X220800D02*
X222453D01*
X226600Y180153D02*
X232300D01*
X222453D02*
X226600D01*
X222647Y127800D02*
Y132900D01*
Y125281D02*
Y127800D01*
X153234Y49538D02*
X165600Y49044D01*
X146852Y49793D02*
X153234Y49538D01*
X215800Y482400D02*
Y490643D01*
X195198Y447308D02*
X195500Y450600D01*
X194592Y440708D02*
X195198Y447308D01*
X195930Y439370D02*
X197859Y437441D01*
X194650Y440650D02*
X195930Y439370D01*
X194592Y440708D02*
X194650Y440650D01*
X194200Y440000D02*
Y440800D01*
X195780Y439221D02*
X197559Y437441D01*
X194500Y440500D02*
X195780Y439221D01*
X194200Y440800D02*
X194500Y440500D01*
X190563Y437441D02*
Y438400D01*
X173300Y489200D02*
Y492500D01*
X88800Y279200D02*
X97685D01*
X86185Y226085D02*
X100085D01*
X86600Y281400D02*
X88800Y279200D01*
X85600Y282400D02*
X86600Y281400D01*
X85600Y283400D02*
Y316300D01*
Y282400D02*
Y283400D01*
X86500Y172500D02*
X88800Y170200D01*
X84100Y174900D02*
X86500Y172500D01*
X364500Y305500D02*
Y306400D01*
Y298900D02*
Y305500D01*
X392100Y324500D02*
X392800D01*
X382500D02*
X392100D01*
X356300Y356142D02*
Y356200D01*
X349035Y366200D02*
Y383635D01*
Y360079D02*
Y366200D01*
X286014Y393986D02*
X286500Y394471D01*
X284329Y392300D02*
X286014Y393986D01*
X207516Y302992D02*
X232177D01*
X199400Y374288D02*
Y378844D01*
X419500Y432500D02*
X425300D01*
X492150Y267450D02*
X492400Y267200D01*
X491300Y268300D02*
X492150Y267450D01*
X456400Y296800D02*
Y310800D01*
X527300Y57600D02*
X535000D01*
X526000D02*
X527300D01*
X535000Y56700D02*
X536800D01*
X527300D02*
X535000D01*
X351700Y165900D02*
Y185600D01*
Y165103D02*
Y165900D01*
X215113Y569200D02*
X220600D01*
X203278Y534078D02*
X207200Y538000D01*
X202956Y533756D02*
X203278Y534078D01*
X207694Y481406D02*
X210900Y478200D01*
X198457Y490643D02*
X207694Y481406D01*
X206244Y479956D02*
X208000Y478200D01*
X205000Y481200D02*
X206244Y479956D01*
X276500Y390800D02*
Y392100D01*
Y390700D02*
Y390800D01*
X275900Y390100D02*
X276500Y390700D01*
X272550Y386750D02*
X275900Y390100D01*
X162553Y569300D02*
X164253D01*
X196500Y418000D02*
Y422087D01*
X289187Y147087D02*
Y147710D01*
X266357Y113143D02*
X269600Y109900D01*
X249795Y257700D02*
Y268095D01*
Y256695D02*
Y257700D01*
X177000Y53556D02*
X183600D01*
X165600D02*
X177000D01*
X153200D02*
X165600D01*
X141600D02*
X153200D01*
X140000D02*
X141600D01*
X537000Y17200D02*
X556200D01*
X533500D02*
X537000D01*
Y15700D02*
X554700D01*
X533600D02*
X537000D01*
X521600Y38800D02*
X528300Y32100D01*
X493700Y66700D02*
X521600Y38800D01*
X168550Y276950D02*
X171856Y280256D01*
X166000Y274400D02*
X168550Y276950D01*
X206400Y353700D02*
Y356153D01*
X370100Y70300D02*
X371400Y71600D01*
X355524Y248880D02*
Y259685D01*
X62357Y445700D02*
X67600D01*
X230900Y360079D02*
Y383200D01*
X276100Y167200D02*
Y173647D01*
X276000Y167200D02*
Y173647D01*
Y164969D02*
Y167200D01*
X289774Y172326D02*
X290894Y173447D01*
X278168Y160721D02*
X289774Y172326D01*
X268326Y160000D02*
Y163374D01*
Y159174D02*
Y160000D01*
X250800Y164200D02*
Y174047D01*
X300800Y165105D02*
Y173494D01*
X283800Y169753D02*
Y173447D01*
X286487Y150900D02*
Y151387D01*
Y149787D02*
Y150900D01*
X261750Y68250D02*
X264900Y65100D01*
X260500Y69500D02*
X261750Y68250D01*
X226300Y137200D02*
X228553D01*
X143953Y556200D02*
X146900D01*
X314600Y169500D02*
Y173847D01*
X204700Y547600D02*
X204877D01*
X103154Y93800D02*
Y95254D01*
X507500Y114200D02*
X509800D01*
X412800Y339200D02*
X415000Y337000D01*
X494100Y232800D02*
Y233600D01*
Y210000D02*
Y232800D01*
X392600Y300000D02*
Y318800D01*
X493300Y233600D02*
X494100Y232800D01*
X261500Y434300D02*
X263700Y432100D01*
X261500Y429800D02*
Y434300D01*
X249800Y376900D02*
Y377086D01*
X197060Y557141D02*
X202318Y562400D01*
X249800Y377086D02*
Y409500D01*
X197060Y557141D02*
X197060Y557142D01*
X286487Y150900D02*
X286500D01*
X284074D02*
X286487D01*
X375000Y295600D02*
X376300D01*
X367200Y274048D02*
Y306300D01*
X368900Y278000D02*
Y304800D01*
X370600Y284200D02*
Y303100D01*
X372300Y287783D02*
Y301600D01*
X377700Y297000D02*
X382500D01*
X376300Y295600D02*
X377700Y297000D01*
X456800Y250400D02*
X463700D01*
X451200D02*
X456800D01*
X450600Y371900D02*
X451900Y373200D01*
X449100Y370400D02*
X450600Y371900D01*
X464800D01*
X450400D02*
X450600D01*
X449100Y370400D02*
Y370600D01*
X477751Y324000D02*
X490400D01*
X497500Y291400D02*
Y291800D01*
X499812Y285800D02*
X499900D01*
X498400Y283800D02*
X500000D01*
X495100D02*
X498400D01*
X493700Y278300D02*
X495600D01*
X487200D02*
X493700D01*
X497400Y271500D02*
Y272400D01*
Y214300D02*
Y271500D01*
Y207300D02*
Y214300D01*
X495600Y273300D02*
X496500D01*
X487200D02*
X495600D01*
X237113Y297087D02*
X239313D01*
X414900Y440000D02*
X415100D01*
X414300Y440600D02*
Y441830D01*
Y439200D02*
Y440600D01*
Y425900D02*
Y439200D01*
X374700Y498700D02*
X393400D01*
X414300Y440600D02*
X414900Y440000D01*
X415000Y337000D02*
X418500D01*
X396400Y491000D02*
Y494300D01*
Y472700D02*
Y491000D01*
X393400Y498700D02*
X394500Y499800D01*
X386000Y491300D02*
X393400Y498700D01*
X386000Y489400D02*
Y491300D01*
Y476000D02*
Y489400D01*
Y448500D02*
Y476000D01*
X370600Y498700D02*
X374700D01*
X375000Y471200D02*
X381200D01*
X389400Y322000D02*
X390600D01*
X382500D02*
X389400D01*
X343900Y306929D02*
X347071D01*
X343800Y307500D02*
X346000Y309700D01*
X487000Y250400D02*
X487200D01*
X486400D02*
X487000D01*
X446684Y303016D02*
X446967Y303300D01*
X443667Y300000D02*
X446684Y303016D01*
X445300Y275800D02*
X451200D01*
X445200D02*
X445300D01*
X445100Y275700D02*
X445200D01*
X439000D02*
X445100D01*
X424600D02*
X439000D01*
X330100Y71600D02*
X332000D01*
X296500Y423600D02*
Y434400D01*
X202260Y562458D02*
X202318Y562400D01*
X202259Y562459D02*
X202260Y562458D01*
X202318Y562518D01*
X296500Y408800D02*
Y420900D01*
X269150Y408950D02*
X271100Y410900D01*
X269000Y408800D02*
X269150Y408950D01*
X255438Y379400D02*
X257752Y377086D01*
X197059Y557141D02*
X199759Y554441D01*
X197000Y557200D02*
X197059Y557141D01*
X138047Y570100D02*
Y571000D01*
Y567147D02*
Y570100D01*
X47002Y456859D02*
Y462798D01*
X285090Y256139D02*
X285228Y256000D01*
X284000Y257228D02*
X285090Y256139D01*
X298100Y177200D02*
X298800Y176500D01*
X296834Y178466D02*
X298100Y177200D01*
X295947Y179353D02*
X296834Y178466D01*
X298100Y177200D02*
Y178400D01*
Y169900D02*
Y177200D01*
X296834Y178466D02*
X298100Y178400D01*
X259900Y164200D02*
X262420Y161680D01*
X256800Y167300D02*
X259900Y164200D01*
X266464Y139836D02*
X277600D01*
X262420Y143880D02*
Y154600D01*
Y127720D02*
Y143880D01*
X266464Y139836D01*
X261383Y144917D02*
X262420Y143880D01*
X232300Y180153D02*
X236800D01*
X223047Y124881D02*
Y127800D01*
Y123800D02*
Y124881D01*
X224800Y123128D01*
X222647Y125281D02*
X223047Y124881D01*
X100485Y166400D02*
X102293Y168208D01*
X145556Y49844D02*
X146852Y49793D01*
X147956Y48688D01*
X146800Y49844D02*
X146852Y49793D01*
X145556Y49844D02*
X146800D01*
X141600D02*
X145556D01*
X210600Y490643D02*
X215800D01*
X211701Y505901D02*
X211798Y505998D01*
X210600Y504800D02*
X211701Y505901D01*
X198200Y505998D02*
Y508900D01*
Y494400D02*
Y505998D01*
X524888Y52088D02*
X526086D01*
X523412D02*
X524888D01*
X525487Y52687D01*
X523200Y50400D02*
X524888Y52088D01*
X197859Y437441D02*
X211600Y423700D01*
X197859Y437441D02*
X212800D01*
X197559D02*
X197859D01*
X211600Y423700D02*
Y436241D01*
Y423200D02*
Y423700D01*
X198200Y505998D02*
X211605D01*
X192983D02*
X198200D01*
X173300Y489200D02*
X177198D01*
X171800D02*
X173300D01*
X107753Y92000D02*
Y93800D01*
Y81200D02*
Y92000D01*
X86600Y281400D02*
X88600Y283400D01*
X82600Y277400D02*
X86600Y281400D01*
X441296Y603896D02*
Y604300D01*
X441900Y537500D02*
X447300Y532100D01*
X370600Y280800D02*
Y284200D01*
X374600Y309500D02*
X376300D01*
X386900Y332000D02*
X392900D01*
X391700Y402500D02*
X392800D01*
X383500D02*
X391700D01*
X400351Y559051D02*
Y562300D01*
Y545400D02*
Y559051D01*
X419249Y554349D02*
Y558401D01*
Y545400D02*
Y554349D01*
X309000Y408800D02*
Y415400D01*
X288000Y378700D02*
X294000Y384700D01*
X287197Y377897D02*
X288000Y378700D01*
X285228Y380928D02*
X287800Y383500D01*
X286500Y393900D02*
Y394471D01*
X281500Y385200D02*
X282560Y386260D01*
X276991Y380691D02*
X281500Y385200D01*
X200800Y372888D02*
X204000D01*
X199400Y374288D02*
X200800Y372888D01*
X197600Y376088D02*
X199400Y374288D01*
Y340212D02*
X203168Y336444D01*
X196968Y342644D02*
X199400Y340212D01*
Y368288D02*
Y374288D01*
Y340212D02*
Y343644D01*
Y314400D02*
Y340212D01*
X196968Y342644D02*
X198400D01*
X196400D02*
X196968D01*
X415200Y405000D02*
X419500D01*
X413900D02*
X415200D01*
X423700Y329500D02*
X430100D01*
X423700Y314500D02*
X425700D01*
X364000Y491200D02*
X366200D01*
X359500Y478200D02*
X361802D01*
X362600Y463700D02*
X370600D01*
X360900D02*
X362600D01*
X370800Y399400D02*
X375107D01*
X366162Y337000D02*
X372700D01*
X375400Y326900D02*
X376400Y327900D01*
X342336Y341536D02*
Y342362D01*
X491300Y268300D02*
X493000D01*
X487200D02*
X491300D01*
X456400Y310800D02*
X457100D01*
X451200D02*
X456400D01*
X455950Y228350D02*
X456400Y228800D01*
X478700Y200400D02*
X487200D01*
X470100D02*
X478700D01*
X446000D02*
X451200D01*
X443200D02*
X446000D01*
X408900Y292300D02*
X411250Y289950D01*
X357202Y308898D02*
X358100D01*
X357193Y283307D02*
X358100D01*
X352059D02*
X357193D01*
X325300Y87600D02*
X327900D01*
X314400D02*
X325300D01*
X307312Y120803D02*
Y122600D01*
Y92000D02*
Y120803D01*
X311712Y87600D02*
X314400D01*
X210900Y478200D02*
X221900D01*
X202100Y484100D02*
X205000Y481200D01*
X221900Y478200D02*
X225000D01*
X208000D02*
X210900D01*
X202956Y533756D02*
Y534400D01*
Y525388D02*
Y533756D01*
X197356Y528156D02*
X202956Y533756D01*
X205000Y481200D02*
X207488D01*
X202600D02*
X205000D01*
X261500Y429800D02*
X263700Y432000D01*
X202318Y540682D02*
Y544575D01*
Y539738D02*
Y540682D01*
X194800Y490643D02*
X198457D01*
X192983D02*
X194800D01*
X197556Y484100D02*
Y487887D01*
Y481000D02*
Y484100D01*
X202100D01*
X187452D02*
X197556D01*
X177443Y466600D02*
X185752Y458291D01*
X164253Y569300D02*
X185100D01*
X41000Y459600D02*
X43900D01*
X90757Y438857D02*
Y443983D01*
Y434600D02*
Y438857D01*
X289165Y363800D02*
Y364800D01*
X279323Y364723D02*
Y364800D01*
X257669D02*
Y369823D01*
Y324831D02*
Y364800D01*
X269600Y109900D02*
X274231Y114531D01*
X269500Y109800D02*
X269600Y109900D01*
X252954Y62300D02*
X253000Y62346D01*
X234354Y43700D02*
X252954Y62300D01*
X237123Y322677D02*
X242177D01*
X232177D02*
X237123D01*
X238200Y308898D02*
X245600D01*
X232177D02*
X238200D01*
X239200Y281339D02*
X248939D01*
X249795Y249941D02*
Y256695D01*
X105915Y236600D02*
X110715Y231800D01*
X105600Y236915D02*
X105915Y236600D01*
X105300Y237215D02*
X105600Y236915D01*
X110715Y231800D02*
Y232600D01*
Y229600D02*
Y231800D01*
Y218400D02*
Y229600D01*
X105915Y236600D02*
X106715D01*
X105600D02*
X105915D01*
X105600Y236915D02*
Y242000D01*
Y236600D02*
Y236915D01*
X135400Y53800D02*
Y67300D01*
Y47200D02*
Y53800D01*
X136956Y55356D01*
X112200Y30600D02*
X135400Y53800D01*
X138900Y43700D02*
X142100D01*
X528300Y32100D02*
Y39300D01*
Y21000D02*
Y32100D01*
X554700Y15700D02*
X556200Y17200D01*
X528300Y32100D02*
X530700Y29700D01*
X171856Y280256D02*
X173756D01*
X361800Y399200D02*
Y408803D01*
X225400Y591200D02*
Y593000D01*
Y585354D02*
Y591200D01*
X342016Y274700D02*
X346686Y279370D01*
X340100Y272784D02*
X342016Y274700D01*
X401300Y435200D02*
X405200Y439100D01*
X400200Y434100D02*
X401300Y435200D01*
X429700Y510500D02*
Y538900D01*
Y437500D02*
Y510500D01*
X283800Y173447D02*
X284200D01*
X281200D02*
X283800D01*
X284074Y153800D02*
Y154600D01*
Y150900D02*
Y153800D01*
X253800Y76200D02*
X260500Y69500D01*
X286800Y117200D02*
Y127200D01*
Y103700D02*
Y117200D01*
X156400Y549553D02*
Y551200D01*
X143953Y552913D02*
Y556200D01*
X463700Y250400D02*
X468500Y255200D01*
Y334000D01*
X472800Y338300D01*
X481500D01*
X496500Y353300D01*
Y410500D01*
X499200Y413200D01*
X452800Y428200D02*
X457800Y423200D01*
X525000Y190600D02*
Y391000D01*
X379050Y208779D02*
X405829Y182000D01*
X379050Y208779D02*
Y253417D01*
X362700Y269767D02*
X379050Y253417D01*
X362700Y269767D02*
Y280600D01*
X360800Y282500D02*
X362700Y280600D01*
X345000Y293100D02*
X345050Y293150D01*
X352059D01*
X514500Y462400D02*
X521400D01*
X524600Y459200D01*
Y410000D02*
Y459200D01*
X512800Y398200D02*
X524600Y410000D01*
X496500Y451300D02*
X500400Y455200D01*
X496500Y414500D02*
Y451300D01*
X489200Y407200D02*
X496500Y414500D01*
X489200Y384200D02*
Y407200D01*
X414500Y467700D02*
Y477400D01*
X410700Y481200D02*
X414500Y477400D01*
X406600Y481200D02*
X410700D01*
X403500Y476200D02*
X406600D01*
X400194Y476406D02*
X403500D01*
X399100Y477500D02*
X400194Y476406D01*
X553500Y372500D02*
Y463500D01*
Y372500D02*
X557800Y368200D01*
X553500Y328200D02*
X557800D01*
X543900Y337800D02*
X553500Y328200D01*
X543900Y337800D02*
Y478200D01*
X538403Y483697D02*
X543900Y478200D01*
X400800Y473700D02*
X406600D01*
X397200Y468700D02*
X406600D01*
X393100Y472800D02*
X397200Y468700D01*
X393100Y472800D02*
Y479800D01*
X534600Y495300D02*
X546400Y483500D01*
Y341300D02*
Y483500D01*
Y341300D02*
X555200Y332500D01*
X560000D01*
X562100Y330400D01*
Y302500D02*
Y330400D01*
X557800Y298200D02*
X562100Y302500D01*
X392800Y466200D02*
X406600D01*
X390400Y468600D02*
X392800Y466200D01*
X390400Y468600D02*
Y484800D01*
X525900Y480055D02*
Y499200D01*
Y480055D02*
X541500Y464455D01*
Y325400D02*
Y464455D01*
Y325400D02*
X546300Y320600D01*
Y279700D02*
Y320600D01*
Y279700D02*
X557800Y268200D01*
X402400Y461200D02*
X406600D01*
X400350Y459150D02*
X402400Y461200D01*
X411300Y448200D02*
X413673D01*
X422300Y456827D01*
Y492700D01*
X422000Y493000D02*
X422300Y492700D01*
X500703Y488200D02*
X529300Y459603D01*
Y388606D02*
Y459603D01*
Y388606D02*
X530900Y387006D01*
Y255100D02*
Y387006D01*
Y255100D02*
X557800Y228200D01*
X449100Y318300D02*
X451200D01*
X449100Y370600D02*
X450400Y371900D01*
X464800D02*
X466500Y370200D01*
Y350200D02*
Y370200D01*
X465500Y349200D02*
X466500Y350200D01*
X465500Y264800D02*
Y349200D01*
X461500Y260800D02*
X465500Y264800D01*
X451200Y260800D02*
X461500D01*
X492200Y293300D02*
X494100Y295200D01*
X475400Y317437D02*
X478263Y320300D01*
X475400Y227700D02*
Y317437D01*
Y227700D02*
X477700Y225400D01*
X487200D01*
X493100Y321300D02*
X494100Y320300D01*
Y295200D02*
Y320300D01*
X487200Y293300D02*
X492200D01*
X477700Y222900D02*
X487200D01*
X473700Y226900D02*
X477700Y222900D01*
X473700Y226900D02*
Y319949D01*
X477751Y324000D01*
X495800Y293300D02*
Y323200D01*
X487200Y290800D02*
X493300D01*
X495800Y293300D01*
X495000Y324000D02*
X495800Y323200D01*
X490400Y324000D02*
X495000D01*
X482700Y220400D02*
X487200D01*
X482300Y220800D02*
X482700Y220400D01*
X477365Y220800D02*
X482300D01*
X471900Y226265D02*
X477365Y220800D01*
X471900Y226265D02*
Y327000D01*
X479200Y334300D01*
X492000D01*
X497500Y328800D01*
X494400Y288300D02*
X497500Y291400D01*
X487200Y288300D02*
X494400D01*
X498700Y291800D02*
Y297100D01*
X497500Y291800D02*
X498700D01*
X487200Y285800D02*
X499812D01*
X501489Y287477D01*
X492900Y336600D02*
X501489Y328011D01*
X478100Y336600D02*
X492900D01*
X470200Y328700D02*
X478100Y336600D01*
X470200Y223904D02*
Y328700D01*
Y223904D02*
X475004Y219100D01*
X481000D01*
X482200Y217900D01*
X487200D01*
X478400Y212900D02*
X487200D01*
X476600Y214700D02*
X478400Y212900D01*
X499500Y191100D02*
Y211046D01*
X502300Y213846D01*
Y279900D01*
X492100Y280800D02*
X495100Y283800D01*
X487200Y280800D02*
X492100D01*
X500000Y283800D02*
X501100Y282700D01*
X487200Y270800D02*
X490300D01*
X494400Y271000D02*
X495700Y269700D01*
Y258900D02*
Y269700D01*
X480800Y203700D02*
Y204500D01*
Y203700D02*
X481600Y202900D01*
X487200D01*
X481400Y266000D02*
X481600Y265800D01*
X480600Y260900D02*
X483000Y263300D01*
X487200D01*
X479300Y195400D02*
X487200D01*
X232177Y297087D02*
X237113D01*
X238800Y289213D02*
Y295400D01*
X224346Y324646D02*
X232177D01*
X220000Y320300D02*
X224346Y324646D01*
X281291Y369823D02*
Y377700D01*
X347061Y281339D02*
X352059D01*
X342300Y286100D02*
X347061Y281339D01*
X342300Y277600D02*
Y286100D01*
X341100Y276400D02*
X342300Y277600D01*
X336900Y276400D02*
X341100D01*
X333800Y279500D02*
X336900Y276400D01*
X333800Y279500D02*
Y343400D01*
X337160Y346760D01*
X357705Y352205D02*
X359000Y353500D01*
X352059Y352205D02*
X357705D01*
X222647Y132900D02*
Y137600D01*
Y132900D02*
X223047Y127800D01*
X224800Y123128D02*
X257828D01*
X262420Y127720D01*
Y154600D02*
Y161680D01*
X277600Y139836D02*
X290964D01*
X275700Y137936D02*
X277600Y139836D01*
X275700Y127837D02*
Y137936D01*
Y127837D02*
X280137Y123400D01*
Y119167D02*
Y123400D01*
X298800Y71600D02*
X310400D01*
X296700Y69500D02*
X298800Y71600D01*
X283000Y69500D02*
X296700D01*
X326000Y71800D02*
X330100Y71600D01*
X501000Y123000D02*
X509800Y114200D01*
X490300Y131400D02*
Y189800D01*
X487200Y192900D02*
X490300Y189800D01*
X487200Y207900D02*
X492000D01*
X493300Y233600D02*
Y234400D01*
X492300Y235400D02*
X493300Y234400D01*
X487200Y235400D02*
X492300D01*
X478300Y317900D02*
X480000Y317200D01*
X444900Y304800D02*
Y313300D01*
Y304800D02*
X446684Y303016D01*
X451200Y303300D01*
X478300Y307400D02*
X482000Y303300D01*
X418500Y279500D02*
X422000D01*
Y278300D02*
X424600Y275700D01*
X445100D02*
X445200Y275800D01*
X347071Y306929D02*
X352059D01*
X346000Y308000D02*
X347071Y306929D01*
X346000Y308000D02*
Y309700D01*
X347166Y310866D01*
X342800Y271500D02*
X342804Y271496D01*
X320661Y240561D02*
Y249941D01*
Y240561D02*
X320700Y240600D01*
X285090Y256139D02*
X285228Y249941D01*
X282528Y258978D02*
Y273400D01*
X285228Y276100D01*
X319900Y239800D02*
X320661Y240561D01*
X247827Y261173D02*
Y278418D01*
Y249941D02*
Y261173D01*
X244200Y264800D02*
X247827Y261173D01*
X223800Y280800D02*
X226307Y283307D01*
X216842Y310866D02*
X232177D01*
X216708Y311000D02*
X216842Y310866D01*
X226307Y283307D02*
X232177D01*
Y310866D02*
X234200Y311000D01*
X252238Y379400D02*
X255438D01*
X259638Y369823D02*
Y375200D01*
X257752Y377086D02*
X259638Y375200D01*
X232177Y348268D02*
X238668D01*
X238800Y348400D01*
X249800Y409500D02*
X252000Y411700D01*
X266400D01*
X269150Y408950D01*
X269000Y404500D02*
X269150Y408950D01*
X205900Y442100D02*
X206500Y442700D01*
X208800Y456043D02*
X215817D01*
X192044Y474895D02*
Y481000D01*
Y474895D02*
X192983Y473957D01*
X215800Y508557D02*
X215817D01*
X210400D02*
X215800D01*
X208556Y510401D02*
X210400Y508557D01*
X208556Y510401D02*
Y516400D01*
X199698Y460200D02*
Y461800D01*
X198100Y458602D02*
X199698Y460200D01*
X192983Y458602D02*
X198100D01*
X191700Y534400D02*
X197444D01*
X208556Y516400D02*
Y534400D01*
X202259Y562459D02*
X202318Y562518D01*
X153600Y542228D02*
X182146D01*
X153600D02*
Y556000D01*
X150000Y559600D02*
X153600Y556000D01*
X141300Y559600D02*
X150000D01*
X141300Y554000D02*
Y559600D01*
X140900Y553600D02*
X141300Y554000D01*
X136200Y553600D02*
X140900D01*
X135400Y554400D02*
X136200Y553600D01*
X135400Y554400D02*
Y567453D01*
X138047Y570100D01*
X202318Y562518D02*
Y568000D01*
X90757Y459857D02*
Y466817D01*
X88800Y457900D02*
X90757Y459857D01*
X79200Y457900D02*
X88800D01*
X75402Y461698D02*
X79200Y457900D01*
X75402Y461698D02*
Y466817D01*
Y472000D01*
X69000Y478402D02*
X75402Y472000D01*
X69000Y478402D02*
Y565600D01*
X64300Y570300D02*
X69000Y565600D01*
X44000Y570300D02*
X64300D01*
X42500Y568800D02*
X44000Y570300D01*
X42500Y524000D02*
Y568800D01*
Y524000D02*
X44800Y521700D01*
X52000D01*
X62357Y511343D01*
Y467017D02*
Y511343D01*
X88198Y443983D02*
Y448000D01*
X89398Y449200D01*
X111318D01*
X142118Y418400D01*
Y413600D02*
Y418400D01*
X137918Y409400D02*
X142118Y413600D01*
X135200Y409400D02*
X137918D01*
X133400Y407600D02*
X135200Y409400D01*
X133400Y247900D02*
Y407600D01*
Y247900D02*
X165047Y216253D01*
Y212600D02*
Y216253D01*
X457400Y207900D02*
X460600Y204100D01*
Y198900D02*
Y204100D01*
X103600Y178700D02*
Y182800D01*
Y178700D02*
X104400Y177900D01*
Y170315D02*
Y177900D01*
X102293Y168208D02*
X104400Y170315D01*
X102293Y168208D02*
X105000Y165500D01*
X451200Y207900D02*
X457400D01*
X419500Y380000D02*
Y382500D01*
Y380000D02*
X420300Y379200D01*
X429400Y388344D02*
Y392900D01*
X424800Y397500D02*
X429400Y392900D01*
X419500Y397500D02*
X424800D01*
X383500Y425000D02*
X392800D01*
X398000Y419495D01*
Y386400D02*
Y419495D01*
X392600Y386100D02*
X394400Y384300D01*
X388000Y397500D02*
X392600Y392900D01*
X396778Y385178D02*
X397656Y384300D01*
X394400D02*
X396778Y385178D01*
X392600Y386100D02*
Y392900D01*
X383500Y397500D02*
X388000D01*
X398100Y471000D02*
X403500D01*
X396400Y472700D02*
X398100Y471000D01*
X394400Y493000D02*
X396400Y491000D01*
X389600Y493000D02*
X394400D01*
X386000Y489400D02*
X389600Y493000D01*
X386000Y448500D02*
X390200Y444300D01*
X410900Y444000D02*
Y444300D01*
X403500Y471200D02*
X406600D01*
X396400Y494300D02*
X400800Y498700D01*
X406600D01*
X516200Y564600D02*
X519900Y560900D01*
Y511900D02*
Y560900D01*
X494600Y486600D02*
X519900Y511900D01*
X494600Y451000D02*
Y486600D01*
X486500Y442900D02*
X494600Y451000D01*
X486500Y402447D02*
Y442900D01*
X82600Y235800D02*
Y277400D01*
Y235800D02*
X88400Y230000D01*
X189600Y424646D02*
X194000D01*
X186954D02*
X189600D01*
X185200Y426400D02*
X186954Y424646D01*
X185200Y426400D02*
Y438400D01*
X186100Y439300D01*
X189663D01*
X190563Y438400D01*
Y437441D02*
X194000D01*
X187227Y422273D02*
X189600Y424646D01*
X78400Y323500D02*
X85600Y316300D01*
X97685Y279200D02*
Y282800D01*
X215817Y473957D02*
X220000D01*
X222700Y471257D01*
Y454050D02*
Y471257D01*
X219250Y450600D02*
X222700Y454050D01*
X195500Y450600D02*
X219250D01*
X211600Y423200D02*
X212713Y422087D01*
X211605Y505998D02*
X211701Y505901D01*
X215817Y505998D01*
X191844Y509695D02*
Y516400D01*
Y509695D02*
X192983Y508557D01*
X476200Y584600D02*
Y589100D01*
X472500Y592800D02*
X476200Y589100D01*
X472500Y592800D02*
Y599900D01*
X458200Y614200D02*
X472500Y599900D01*
X370300Y605200D02*
X372500Y603000D01*
X390252D01*
X394052Y599200D01*
Y594408D02*
Y599200D01*
X386400Y581000D02*
X390300Y584900D01*
X381300Y581000D02*
X386400D01*
X377500Y584800D02*
X381300Y581000D01*
X377500Y584800D02*
Y586664D01*
X374428Y589736D02*
X377500Y586664D01*
X371172Y589736D02*
X374428D01*
X369100Y587664D02*
X371172Y589736D01*
X369100Y547100D02*
Y587664D01*
Y547100D02*
X376000Y540200D01*
X390902D01*
Y545400D01*
X418500Y289500D02*
X422700D01*
X424700Y287500D01*
X539500Y287600D02*
X541700Y285400D01*
X539500Y287600D02*
Y455150D01*
X535250Y459400D02*
X539500Y455150D01*
X535250Y459400D02*
Y467053D01*
X522997Y479306D02*
X535250Y467053D01*
X522997Y479306D02*
Y500197D01*
X525700Y502900D01*
Y589052D01*
X516376Y598376D02*
X525700Y589052D01*
X484076Y598376D02*
X516376D01*
X482500Y596800D02*
X484076Y598376D01*
X482500Y588300D02*
Y596800D01*
Y588300D02*
X486200Y584600D01*
X384603Y545400D02*
Y559400D01*
X396600Y571397D01*
Y582900D01*
X397600Y583900D01*
X418500Y297000D02*
X431200D01*
X434800Y300600D01*
X378304Y545400D02*
Y551000D01*
X371800Y557504D02*
X378304Y551000D01*
X371800Y557504D02*
Y582200D01*
X418500Y299500D02*
X425800D01*
X429600Y303300D01*
X568900Y323200D02*
Y584100D01*
X561100Y591900D02*
X568900Y584100D01*
X381100Y584660D02*
X382700D01*
X379200Y586560D02*
X381100Y584660D01*
X379200Y586560D02*
Y588160D01*
X378304Y589056D02*
X379200Y588160D01*
X378304Y589056D02*
Y594408D01*
X411910Y304500D02*
X418500D01*
X398600Y317810D02*
X411910Y304500D01*
X398600Y317810D02*
Y370400D01*
X392000Y377000D02*
X398600Y370400D01*
X370800Y377000D02*
X392000D01*
X365500Y382300D02*
X370800Y377000D01*
X365500Y382300D02*
Y415800D01*
X347000Y434300D02*
X365500Y415800D01*
X347000Y434300D02*
Y572152D01*
X353148Y578300D01*
X381454Y589046D02*
Y594408D01*
Y589046D02*
X381900Y588600D01*
X506200Y594600D02*
X508276Y596676D01*
X515200D01*
X524000Y587876D01*
Y505944D02*
Y587876D01*
X521100Y503044D02*
X524000Y505944D01*
X521100Y478055D02*
Y503044D01*
Y478055D02*
X533550Y465605D01*
Y393850D02*
Y465605D01*
Y393850D02*
X535600Y391800D01*
X527700Y383900D02*
X528200Y384400D01*
X527700Y294700D02*
Y383900D01*
X424700Y308000D02*
Y309600D01*
X423700Y307000D02*
X424700Y308000D01*
X418500Y307000D02*
X423700D01*
X384603Y594408D02*
Y598400D01*
X383403Y599600D02*
X384603Y598400D01*
X372600Y599600D02*
X383403D01*
X367400Y594400D02*
X372600Y599600D01*
X367400Y540300D02*
Y594400D01*
Y540300D02*
X388400Y519300D01*
X407500D01*
X413800Y309500D02*
X418500D01*
X412500Y308200D02*
X413800Y309500D01*
X550800Y377600D02*
Y490000D01*
X470800Y550000D02*
X476200Y544600D01*
X463200Y550000D02*
X470800D01*
X461200Y552000D02*
X463200Y550000D01*
X461200Y552000D02*
Y556000D01*
X457600Y559600D02*
X461200Y556000D01*
X450400Y559600D02*
X457600D01*
X434997Y575003D02*
X450400Y559600D01*
X434997Y575003D02*
Y594408D01*
X412200Y319500D02*
X418500D01*
X411900Y319200D02*
X412200Y319500D01*
X409896Y319200D02*
X411900D01*
X406343Y322753D02*
X409896Y319200D01*
X406343Y322753D02*
Y361543D01*
X407600Y362800D01*
Y395700D01*
X444400Y402900D02*
X446500Y405000D01*
Y472900D01*
X486200Y512600D01*
X432296Y613300D02*
X441296Y604300D01*
X351200Y613300D02*
X432296D01*
X345300Y607400D02*
X351200Y613300D01*
X345300Y428457D02*
Y607400D01*
Y428457D02*
X363700Y410057D01*
Y373800D02*
Y410057D01*
Y373800D02*
X369200Y368300D01*
X408300Y349800D02*
X409100Y350600D01*
X408300Y325600D02*
Y349800D01*
Y325600D02*
X409200Y324700D01*
X412000D01*
X412200Y324500D01*
X418500D01*
X411500Y327000D02*
X418500D01*
X411000Y327500D02*
X411500Y327000D01*
X368900Y344500D02*
Y354300D01*
X359800Y363400D02*
X368900Y354300D01*
X359800Y363400D02*
Y373800D01*
X352300Y381300D02*
X359800Y373800D01*
X341900Y379100D02*
Y390550D01*
X354600Y403250D01*
Y410225D01*
X341600Y423225D02*
X354600Y410225D01*
X341600Y423225D02*
Y465000D01*
X307700Y498900D02*
X341600Y465000D01*
X442277Y540263D02*
X445600D01*
X441296Y545400D02*
X442277Y540263D01*
X448300Y542963D02*
Y546100D01*
X445600Y540263D02*
X448300Y542963D01*
X441296Y541244D02*
X442277Y540263D01*
X441296Y541244D02*
Y545400D01*
X438146Y541254D02*
X441900Y537500D01*
X499100D01*
X506200Y544600D01*
X434997Y545400D02*
Y554500D01*
X516200Y534502D02*
Y554600D01*
X456800Y475102D02*
X516200Y534502D01*
X456800Y432300D02*
Y475102D01*
X405300Y416300D02*
X410600Y421600D01*
X405300Y406777D02*
Y416300D01*
Y406777D02*
X409577Y402500D01*
X419500D01*
X432600Y440000D02*
Y521600D01*
Y440000D02*
X433400Y439200D01*
Y435200D02*
Y439200D01*
X429700Y431500D02*
X433400Y435200D01*
X429700Y412350D02*
Y431500D01*
X424850Y407500D02*
X429700Y412350D01*
X419500Y407500D02*
X424850D01*
X387100Y284500D02*
X388700Y286100D01*
X357800Y316772D02*
X360100Y314472D01*
X352059Y316772D02*
X357800D01*
X451200Y197900D02*
X456500D01*
Y200500D01*
X457600Y201600D01*
X390500Y229600D02*
Y272400D01*
X382500Y284500D02*
X387100D01*
X352059Y318740D02*
X360000D01*
X382500Y289500D02*
X391400D01*
X445600Y202900D02*
X451200D01*
X443700Y204800D02*
X445600Y202900D01*
X375000Y289400D02*
X377600Y292000D01*
X345000Y320600D02*
X345109Y320709D01*
X352059D01*
X377600Y292000D02*
X382500D01*
X443800Y208500D02*
X443900D01*
X447000Y205400D01*
X451200D01*
X352059Y322677D02*
X359189D01*
X459100Y224000D02*
X460000D01*
X461800Y222200D01*
Y212600D02*
Y222200D01*
X460000Y210800D02*
X461800Y212600D01*
X455500Y210800D02*
X460000D01*
X451200Y210400D02*
X455500Y210800D01*
X372000Y304500D02*
X382500D01*
X370600Y303100D02*
X372000Y304500D01*
X370600Y284200D02*
X380750Y274050D01*
Y223200D02*
Y274050D01*
Y223200D02*
X386050Y217900D01*
X451200D01*
X344800Y328583D02*
X352059D01*
X336300Y320083D02*
X344800Y328583D01*
X336300Y282400D02*
Y320083D01*
Y282400D02*
X339600Y279100D01*
X372900Y272694D02*
Y274000D01*
X368900Y278000D02*
X372900Y274000D01*
X368900Y304800D02*
X370579Y306479D01*
X377479D01*
X378000Y307000D01*
X426500Y220400D02*
X451200D01*
X424900Y222000D02*
X426500Y220400D01*
X378000Y307000D02*
X382500D01*
X375000Y312400D02*
X379000Y312000D01*
X364500Y306400D02*
X368400Y310300D01*
X363950Y305500D02*
X364500Y306400D01*
X345000Y333600D02*
X346080Y332520D01*
X352059D01*
X445000Y261800D02*
X446500Y263300D01*
X451200D01*
X376670Y320000D02*
X377170Y319500D01*
X359705Y338425D02*
X361800Y336330D01*
X352059Y338425D02*
X359705D01*
X422400Y270800D02*
X451200D01*
X419600Y268000D02*
X422400Y270800D01*
X416500Y268000D02*
X419600D01*
X409900Y274600D02*
X416500Y268000D01*
X409900Y274600D02*
Y278800D01*
X402700Y286000D02*
Y309800D01*
X396900Y315600D02*
X402700Y309800D01*
X396900Y315600D02*
Y320400D01*
X392800Y324500D02*
X396900Y320400D01*
X392100Y324300D02*
Y324500D01*
X359031Y344331D02*
X360100Y345400D01*
X352059Y344331D02*
X359031D01*
X345736Y350236D02*
X352059D01*
X345100Y349600D02*
X345736Y350236D01*
X387400Y339300D02*
Y339500D01*
Y339300D02*
X387700Y339000D01*
Y336000D02*
Y339000D01*
X386200Y334500D02*
X387700Y336000D01*
X382500Y334500D02*
X386200D01*
X352059Y356142D02*
X356300D01*
Y356200D02*
X361700D01*
X365600Y352300D01*
Y343400D02*
Y352300D01*
Y343400D02*
X367200Y341800D01*
X370300D01*
X388800Y360300D01*
Y366400D01*
X388074Y400000D02*
X395300Y392774D01*
X392800Y402500D02*
X394800Y404500D01*
Y413600D01*
X392900Y415500D02*
X394800Y413600D01*
X346648Y386048D02*
X358700Y398100D01*
X346648Y361762D02*
Y386048D01*
X346000Y361114D02*
X346648Y361762D01*
X346000Y359200D02*
Y361114D01*
Y359200D02*
X347090Y358110D01*
X352059D01*
X445500Y290800D02*
X451200D01*
X445400Y290900D02*
X445500Y290800D01*
X349600Y366200D02*
Y384200D01*
X341600Y362700D02*
X342315Y363415D01*
Y369823D01*
X376800Y410000D02*
X383500D01*
X374600Y407800D02*
X376800Y410000D01*
X459100Y296800D02*
Y306000D01*
X455600Y293300D02*
X459100Y296800D01*
X451200Y293300D02*
X455600D01*
X309000Y440500D02*
Y480846D01*
X302912Y486933D02*
X309000Y480846D01*
X302912Y486933D02*
Y501745D01*
X323468Y522300D01*
X338400D01*
X397000Y539100D02*
X397202Y539302D01*
Y545400D01*
Y562502D01*
X400041Y565341D01*
Y575741D01*
X403700Y579400D01*
X306500Y440500D02*
Y480942D01*
X301212Y486229D02*
X306500Y480942D01*
X301212Y486229D02*
Y502512D01*
X320800Y522100D01*
Y557000D01*
X402800Y564749D02*
Y568700D01*
X400351Y562300D02*
X402800Y564749D01*
X400351Y559051D02*
X410900Y569600D01*
Y574000D01*
X412500Y575600D01*
Y584600D01*
X448300Y565600D02*
Y573000D01*
X453600Y578300D01*
X459900D01*
X466200Y584600D01*
X406650Y545400D02*
Y551556D01*
X407047Y551953D01*
X297000Y507273D02*
X297727Y508000D01*
X297000Y482700D02*
Y507273D01*
Y482700D02*
X299000Y480700D01*
Y440500D02*
Y480700D01*
X461200Y569600D02*
X466200Y574600D01*
X461200Y564600D02*
Y569600D01*
X416099Y545400D02*
Y551600D01*
X291500Y440500D02*
Y487500D01*
X292800Y488800D01*
Y510700D01*
X284000Y519500D02*
X292800Y510700D01*
X284000Y519500D02*
Y525900D01*
X299600Y541500D01*
X419249Y554349D02*
X422400Y557500D01*
X286500Y440500D02*
Y487600D01*
X289900Y491000D01*
X422398Y538300D02*
Y545400D01*
X284000Y440500D02*
Y490600D01*
X285000Y491600D01*
X425548Y534600D02*
Y545400D01*
Y572800D02*
Y594408D01*
Y572800D02*
X425600Y572748D01*
Y567400D02*
Y572748D01*
X424200Y566000D02*
X425600Y567400D01*
X271200Y529800D02*
Y555500D01*
Y529800D02*
X281500Y519500D01*
Y440500D02*
Y519500D01*
X274000Y440500D02*
Y500000D01*
X261800Y512200D02*
X274000Y500000D01*
X261800Y512200D02*
Y576700D01*
X356100Y589300D02*
Y601800D01*
X363900Y609600D01*
X413800D01*
X419249Y604151D01*
Y594408D02*
Y604151D01*
X271500Y440500D02*
Y484700D01*
X256200Y500000D02*
X271500Y484700D01*
X256200Y500000D02*
Y565700D01*
X418800Y575700D02*
Y587399D01*
X416099Y590100D02*
X418800Y587399D01*
X416099Y590100D02*
Y594408D01*
X406650D02*
Y599550D01*
X401500Y604700D02*
X406650Y599550D01*
X374800Y604700D02*
X401500D01*
X371600Y607900D02*
X374800Y604700D01*
X369000Y607900D02*
X371600D01*
X361400Y600300D02*
X369000Y607900D01*
X361400Y581200D02*
Y600300D01*
X349700Y569500D02*
X361400Y581200D01*
X349700Y450700D02*
Y569500D01*
X266500Y440500D02*
Y451900D01*
X264000Y440500D02*
Y446100D01*
X263800Y446300D02*
X264000Y446100D01*
X248600Y455000D02*
Y500400D01*
X379936Y560900D02*
X394700Y575664D01*
Y585500D01*
X396200Y587000D01*
X400200D01*
X403501Y590301D01*
Y594408D01*
X256500Y434900D02*
Y440500D01*
Y434900D02*
X256700Y434700D01*
X377200Y563600D02*
X393000Y579400D01*
Y586400D01*
X397000Y590400D01*
X397202Y594408D01*
X299008Y369823D02*
Y374665D01*
X306000Y381657D01*
Y390100D01*
X313500Y397600D01*
Y409500D01*
X310600Y410400D02*
X313500Y409500D01*
X309000Y408800D02*
X310600Y410400D01*
X309000Y404500D02*
Y408800D01*
X370600Y458700D02*
X375200D01*
X376900Y460400D01*
Y462500D01*
X309000Y415400D02*
X319400Y425800D01*
X370600Y466200D02*
X378500D01*
X319300Y439100D02*
Y444800D01*
X301500Y421300D02*
X319300Y439100D01*
X301500Y404500D02*
Y421300D01*
X370600Y468700D02*
X377400D01*
X377600Y468900D01*
X380300D01*
X381200Y468000D01*
Y460250D02*
Y468000D01*
X299000Y404500D02*
Y422500D01*
X287197Y369823D02*
Y377897D01*
X365600Y473700D02*
X370600D01*
X364700Y472800D02*
X365600Y473700D01*
X360100Y472800D02*
X364700D01*
X356800Y476100D02*
X360100Y472800D01*
X319700Y466100D02*
X327500Y458300D01*
Y428300D02*
Y458300D01*
X325900Y426700D02*
X327500Y428300D01*
X325900Y404527D02*
Y426700D01*
X307700Y386327D02*
X325900Y404527D01*
X307700Y377100D02*
Y386327D01*
X294000Y384700D02*
Y404500D01*
X286500Y394471D02*
Y404500D01*
X284329Y383037D02*
Y392300D01*
X283260Y381969D02*
X284329Y383037D01*
X283260Y369823D02*
Y381969D01*
X286300Y393700D02*
X286500Y393900D01*
X316000Y412800D02*
X324200Y421000D01*
Y430867D01*
X325800Y432467D01*
Y443700D01*
X316600Y452900D02*
X325800Y443700D01*
X316600Y452900D02*
Y468000D01*
X319000Y470400D01*
X324100D01*
X364300Y481200D02*
X370600D01*
X269480Y369823D02*
Y380784D01*
X267946Y382319D02*
X269480Y380784D01*
X267946Y382319D02*
Y390246D01*
X268300Y390600D01*
Y392900D01*
X271500Y396100D01*
Y404500D01*
X266500Y391981D02*
Y404500D01*
X265719Y391200D02*
X266500Y391981D01*
X265719Y382116D02*
Y391200D01*
Y382116D02*
X267512Y380324D01*
Y369823D02*
Y380324D01*
X256500Y399900D02*
Y404500D01*
X254500Y397900D02*
X256500Y399900D01*
X254500Y394700D02*
Y397900D01*
Y394700D02*
X256500Y392700D01*
Y381006D02*
Y392700D01*
Y381006D02*
X261606Y375900D01*
Y369823D02*
Y375900D01*
X198400Y342644D02*
X199400Y343644D01*
Y368288D01*
X204000Y372888D01*
X206600D01*
X223776Y285276D02*
X232177D01*
X219800Y281300D02*
X223776Y285276D01*
X266357Y119167D02*
Y122400D01*
X265057Y123700D02*
X266357Y122400D01*
X261600Y123700D02*
X265057D01*
X260700Y122800D02*
X261600Y123700D01*
X260700Y103600D02*
Y122800D01*
Y103600D02*
X263200Y101100D01*
Y95900D02*
Y101100D01*
X252100Y84800D02*
X263200Y95900D01*
X252100Y70400D02*
Y84800D01*
Y70400D02*
X253000Y69500D01*
X266357Y113143D02*
Y119167D01*
X264200Y179553D02*
X267800D01*
X260200Y179953D02*
X264200Y179553D01*
X249795Y268095D02*
X253800Y272100D01*
X266256D01*
X267100Y271256D01*
X238200Y308898D02*
Y321600D01*
X237123Y322677D02*
X238200Y321600D01*
X242177Y322677D02*
X247700Y328200D01*
X358100Y283307D02*
Y308000D01*
X357202Y308898D02*
X358100Y308000D01*
X352059Y308898D02*
X357202D01*
X322630Y238130D02*
Y249941D01*
X321600Y237100D02*
X322630Y238130D01*
X294800Y237100D02*
X321600D01*
X287197Y244703D02*
X294800Y237100D01*
X287197Y244703D02*
Y249941D01*
X342336Y352773D02*
X343737Y354173D01*
X342336Y342362D02*
Y352773D01*
Y342362D02*
X352059D01*
X343737Y354173D02*
X352059D01*
X337100Y336300D02*
X342336Y341536D01*
X414200Y287000D02*
X418500D01*
X411250Y289950D02*
X414200Y287000D01*
X407000Y289700D02*
X411250Y289950D01*
X405500Y288200D02*
X407000Y289700D01*
X405500Y280800D02*
Y288200D01*
X404200Y279500D02*
X405500Y280800D01*
X382500Y279500D02*
X404200D01*
X451200Y295800D02*
X455400D01*
X456400Y296800D01*
X455500Y227900D02*
X455950Y228350D01*
X456400Y227900D01*
Y215400D02*
Y227900D01*
X451200Y215400D02*
X456400D01*
X487200Y242900D02*
X491500D01*
X492600Y244000D01*
Y251200D01*
X489700Y254100D02*
X492600Y251200D01*
X489700Y254100D02*
Y257600D01*
X490900Y258800D01*
X492400D01*
Y267200D01*
X482000Y295800D02*
X487200D01*
X482000Y283900D02*
Y295800D01*
Y283900D02*
X487200Y283300D01*
X481400D02*
X487200D01*
X482400Y310800D02*
X487200D01*
X481000Y312200D02*
X482400Y310800D01*
X482800Y378200D02*
Y418200D01*
X472800Y368200D02*
X482800Y378200D01*
X471000Y455600D02*
X476500Y450100D01*
Y424500D02*
Y450100D01*
Y424500D02*
X482800Y418200D01*
X419500Y417500D02*
X423800D01*
X425300Y419000D01*
Y432500D01*
Y432800D01*
X415200Y417500D02*
X419500D01*
X414300Y416600D02*
X415200Y417500D01*
X414300Y405900D02*
Y416600D01*
Y405900D02*
X415200Y405000D01*
X367800Y382500D02*
X383500D01*
X367200Y383100D02*
Y397800D01*
X368800Y399400D02*
X370800D01*
X372600Y397600D01*
Y395594D02*
Y397600D01*
Y395594D02*
X378194Y390000D01*
X383500D01*
X379107Y405000D02*
X383500D01*
X378107Y404000D02*
X379107Y405000D01*
X378107Y402400D02*
Y404000D01*
X375107Y399400D02*
X378107Y402400D01*
X367200Y397800D02*
X368800Y399400D01*
X367200Y383100D02*
X367800Y382500D01*
X377400Y432500D02*
X383500D01*
X374073Y429173D02*
X377400Y432500D01*
X374073Y422527D02*
Y429173D01*
Y422527D02*
X379100Y417500D01*
X383500D01*
X392800Y463700D02*
X406600D01*
X387700Y468800D02*
X392800Y463700D01*
X387700Y468800D02*
Y486200D01*
X391800Y490300D01*
X412950Y533650D02*
Y545400D01*
X408200Y571400D02*
Y574600D01*
X409800Y576200D01*
Y594408D01*
X289000Y434300D02*
Y440500D01*
X276500Y434300D02*
X289000D01*
X311500Y399600D02*
Y404500D01*
X304000Y395300D02*
Y404500D01*
X326567Y378517D02*
X352900Y404850D01*
Y408790D01*
X340800Y418820D02*
X342870D01*
X335500Y424120D02*
Y430500D01*
X215300Y352605D02*
X221606Y346299D01*
X232177D01*
X310600Y398700D02*
X311500Y399600D01*
X335500Y424120D02*
X340800Y418820D01*
X342870D02*
X352900Y408790D01*
X326567Y369823D02*
Y378517D01*
X210712Y447400D02*
X220000D01*
X221900Y478200D02*
X224400Y475700D01*
X206244Y479956D02*
X207488Y481200D01*
X194000Y422087D02*
X196500D01*
X199700Y441800D02*
X199712Y441812D01*
Y447400D01*
X188000Y456043D02*
X192983D01*
X185752Y458291D02*
X188000Y456043D01*
X185752Y458291D02*
Y482400D01*
X187452Y484100D01*
X224400Y451800D02*
Y475700D01*
X220000Y447400D02*
X224400Y451800D01*
X178800Y441800D02*
Y449600D01*
X176800Y451600D02*
X178800Y449600D01*
X167800Y451600D02*
X176800D01*
X166600Y452800D02*
X167800Y451600D01*
X166600Y452800D02*
Y465600D01*
X167600Y466600D01*
X177443D01*
X197356Y516400D02*
Y528156D01*
X207200Y538000D02*
X222500D01*
X227600Y532900D01*
Y480800D02*
Y532900D01*
X225000Y478200D02*
X227600Y480800D01*
X202318Y539738D02*
X202956Y534400D01*
X219800Y551082D02*
Y552900D01*
X216425Y547707D02*
X219800Y551082D01*
X215113Y544575D02*
X216425Y547707D01*
X215113Y568000D02*
Y569200D01*
X192400Y576600D02*
Y578500D01*
Y576600D02*
X197200Y571800D01*
X164253Y569300D02*
X170353Y563200D01*
X197200Y568000D02*
Y571800D01*
X162553Y569300D02*
Y571400D01*
X307312Y92000D02*
X311712Y87600D01*
X335200Y62300D02*
X342900Y70000D01*
X252954Y62300D02*
X335200D01*
X135400Y47200D02*
X138900Y43700D01*
X112115Y90585D02*
X135400Y67300D01*
X112115Y90585D02*
Y105400D01*
X301600Y179400D02*
Y182200D01*
X310800Y191400D01*
X319000D01*
X350700Y184600D02*
X351700Y185600D01*
X350700Y165900D02*
Y184600D01*
X523200Y60400D02*
X526000Y57600D01*
X538969Y31200D02*
Y54531D01*
X536800Y56700D02*
X538969Y54531D01*
X336000Y85200D02*
X371400D01*
X553400Y34400D02*
X564000Y45000D01*
X542169Y34400D02*
X553400D01*
X538969Y31200D02*
X542169Y34400D01*
X538969Y21454D02*
Y31200D01*
X557800Y258200D02*
X563800Y264200D01*
Y382200D01*
X557800Y388200D02*
X563800Y382200D01*
X44443Y463043D02*
Y467017D01*
X41000Y440100D02*
Y459600D01*
Y440100D02*
X45455Y435645D01*
X87545D01*
X90757Y438857D01*
X18660Y440800D02*
X37460Y459600D01*
X41000D01*
X44443Y463043D01*
X18660Y438874D02*
Y440800D01*
X556200Y17200D02*
X564000Y25000D01*
X530700Y20000D02*
X533500Y17200D01*
X530700Y20000D02*
Y29700D01*
X482400Y66700D02*
X493700D01*
X465200Y83900D02*
X482400Y66700D01*
X465200Y83900D02*
Y127200D01*
X452400Y140000D02*
X465200Y127200D01*
X432600Y140000D02*
X452400D01*
X431000Y138400D02*
X432600Y140000D01*
X431000Y123000D02*
Y138400D01*
X390902Y594408D02*
Y598598D01*
X389600Y599900D02*
X390902Y598598D01*
X385600Y599900D02*
X389600D01*
X384200Y601300D02*
X385600Y599900D01*
X368900Y601300D02*
X384200D01*
X365200Y597600D02*
X368900Y601300D01*
X365200Y572300D02*
Y597600D01*
X357300Y564400D02*
X365200Y572300D01*
X357300Y491200D02*
Y564400D01*
X352400Y486300D02*
X357300Y491200D01*
X352400Y442700D02*
Y486300D01*
Y442700D02*
X368400Y426700D01*
Y409700D02*
Y426700D01*
Y409700D02*
X374700Y403400D01*
X413600Y392500D02*
X419500D01*
X324598Y369823D02*
Y383983D01*
X371204Y414896D02*
Y427092D01*
Y414896D02*
X373600Y412500D01*
X383500D01*
X377300Y415000D02*
X383500D01*
X375100Y417200D02*
X377300Y415000D01*
X322630Y363670D02*
X323400Y362900D01*
X322630Y363670D02*
Y369823D01*
X383500Y420000D02*
X389193D01*
X389700Y420507D01*
X317498Y362800D02*
X319100D01*
X320661Y364361D01*
Y369823D01*
X378009Y422500D02*
X383500D01*
X377309Y423200D02*
X378009Y422500D01*
X343551Y407158D02*
X350200D01*
X318693Y382300D02*
X343551Y407158D01*
X318693Y369823D02*
Y382300D01*
X376800Y427500D02*
X383500D01*
X225200Y339600D02*
X225994Y340394D01*
X232177D01*
X370500Y435000D02*
X383500D01*
X358600Y446900D02*
X370500Y435000D01*
X246372Y440972D02*
X251700Y446300D01*
X234072Y440972D02*
X246372D01*
X229200Y436100D02*
X234072Y440972D01*
X229200Y399700D02*
Y436100D01*
X217300Y336457D02*
X232177D01*
X195453Y389553D02*
X199700D01*
X193400Y387500D02*
X195453Y389553D01*
X193400Y350127D02*
Y387500D01*
X191728Y348455D02*
X193400Y350127D01*
X191728Y313472D02*
Y348455D01*
Y313472D02*
X196400Y308800D01*
X207508D01*
X211508Y304800D01*
X227339D01*
X232177Y304961D01*
X199700Y389553D02*
X206600D01*
X197600Y387453D02*
X199700Y389553D01*
X197600Y384356D02*
Y387453D01*
X173756Y280256D02*
X183500D01*
X169500Y276000D02*
X173756Y280256D01*
X183500Y257000D02*
X188000D01*
X205172Y274172D01*
Y290300D01*
X203521Y291951D02*
X205172Y290300D01*
X203521Y291951D02*
Y300000D01*
X204544Y301024D01*
X232177D01*
X191944Y289756D02*
X198500D01*
X188500Y293200D02*
X191944Y289756D01*
X290964Y133931D02*
X361031D01*
X367100Y140000D01*
Y234900D01*
X340100Y261900D02*
X367100Y234900D01*
X340100Y261900D02*
Y272784D01*
X346686Y279370D02*
X352059D01*
X370100Y364900D02*
X374300Y369100D01*
X361800Y366300D02*
X363200Y364900D01*
X343300Y427303D02*
X361800Y408803D01*
X343300Y427303D02*
Y568400D01*
X318700Y593000D02*
X343300Y568400D01*
X227200Y593000D02*
X318700D01*
X225400Y591200D02*
X227200Y593000D01*
X212554Y572509D02*
X225400Y585354D01*
X335200Y274700D02*
X342016D01*
X330900Y279000D02*
X335200Y274700D01*
X330900Y279000D02*
Y347300D01*
X344300Y360700D01*
Y363100D01*
X344600Y363400D01*
Y388724D01*
X356676Y400800D01*
X360200D01*
X361800Y399200D01*
Y366300D02*
Y399200D01*
X363200Y364900D02*
X370100D01*
X374300Y369100D02*
X394700D01*
X493200Y50400D02*
X535400Y8200D01*
X571300D01*
X574300Y11200D01*
Y613600D01*
X568700Y619200D02*
X574300Y613600D01*
X251600Y619200D02*
X568700D01*
X225400Y593000D02*
X251600Y619200D01*
X212554Y568000D02*
Y572509D01*
X383500Y385000D02*
X387900D01*
X391300Y381600D02*
X398800D01*
X400400Y383200D01*
X400200Y399600D02*
Y434100D01*
X333600Y402783D02*
Y422200D01*
X316724Y385907D02*
X333600Y402783D01*
X316724Y369823D02*
Y385907D01*
X311500Y440500D02*
Y485712D01*
X304612Y492600D02*
X311500Y485712D01*
X304612Y492600D02*
Y501041D01*
X306400Y502828D01*
X320428D01*
X383800Y513700D02*
X406600D01*
X314756Y360344D02*
Y369823D01*
Y360344D02*
X315403Y359697D01*
X333697D01*
X336500Y362500D01*
X369900Y395859D02*
Y396300D01*
Y395859D02*
X378259Y387500D01*
X383500D01*
X379200Y392500D02*
X383500D01*
X375900Y395800D02*
X379200Y392500D01*
X375900Y395800D02*
Y396800D01*
X336200Y357900D02*
X336300Y358000D01*
X314400Y357900D02*
X336200D01*
X312787Y359513D02*
X314400Y357900D01*
X312787Y359513D02*
Y369823D01*
X387753Y588747D02*
Y594408D01*
Y588747D02*
X388200Y588300D01*
X447800Y592600D02*
X453500Y598300D01*
X468600D01*
X470751Y596149D01*
Y590949D02*
Y596149D01*
Y590949D02*
X472500Y589200D01*
Y558300D02*
Y589200D01*
Y558300D02*
X476200Y554600D01*
X419500Y385000D02*
X423600D01*
X424700Y383900D01*
Y380500D02*
Y383900D01*
X423200Y379000D02*
X424700Y380500D01*
X423200Y376600D02*
Y379000D01*
Y376600D02*
X425123Y374677D01*
X428677D01*
X433150Y379150D01*
Y429550D01*
X436800Y433200D01*
Y514900D01*
X437600Y515700D01*
X428698Y539902D02*
X429700Y538900D01*
Y437500D02*
X430700Y436500D01*
X371219Y175281D02*
X401900Y144600D01*
X371219Y175281D02*
Y235589D01*
X358148Y248661D02*
X371219Y235589D01*
X358148Y248661D02*
Y260532D01*
X357026Y261654D02*
X358148Y260532D01*
X352059Y261654D02*
X357026D01*
X352059Y267559D02*
X361793D01*
X364928Y264424D01*
Y250262D02*
Y264424D01*
Y250262D02*
X377350Y237840D01*
Y200126D02*
Y237840D01*
Y200126D02*
X390700Y186776D01*
Y180600D02*
Y186776D01*
Y180600D02*
X392000Y179300D01*
X421800D01*
X467900Y133200D01*
X67600Y458357D02*
X72843Y463600D01*
Y466817D01*
X95400Y251100D02*
X102294Y244206D01*
Y239600D02*
Y244206D01*
X222700Y391400D02*
X230900Y383200D01*
Y360079D02*
X232177D01*
X218259Y267559D02*
X232177D01*
X215500Y264800D02*
X218259Y267559D01*
X215500Y251400D02*
Y264800D01*
X211800Y247700D02*
X215500Y251400D01*
X43400Y473100D02*
X47700D01*
X49561Y471239D01*
Y467017D02*
Y471239D01*
X77961Y466817D02*
Y573561D01*
X100500Y574300D01*
X146400Y528400D01*
Y464400D02*
Y528400D01*
Y464400D02*
X151900Y458900D01*
Y385000D02*
Y458900D01*
Y385000D02*
X155800Y381100D01*
Y267600D02*
Y381100D01*
X232177Y275433D02*
X239500D01*
X224695Y352205D02*
X232177D01*
X220700Y356200D02*
X224695Y352205D01*
X220700Y356200D02*
Y381818D01*
X218000Y384518D02*
X220700Y381818D01*
X218000Y384518D02*
Y400800D01*
X216400Y402400D02*
X218000Y400800D01*
X190314Y402400D02*
X216400D01*
X159100Y433614D02*
X190314Y402400D01*
X159100Y433614D02*
Y499800D01*
X178000D02*
X179800Y498000D01*
X189280D01*
X192983Y498320D01*
X220707Y350236D02*
X232177D01*
X218000Y352943D02*
X220707Y350236D01*
X218000Y352943D02*
Y371000D01*
X185200Y377100D02*
Y403800D01*
X157400Y431600D02*
X185200Y403800D01*
X157400Y431600D02*
Y495200D01*
X155800Y496800D02*
X157400Y495200D01*
X220761Y495761D02*
X221800Y496800D01*
X215817Y495761D02*
X220761D01*
X215817Y500880D02*
X224080D01*
X224900Y501700D01*
X153100Y498200D02*
X163400Y508500D01*
X153100Y494100D02*
Y498200D01*
Y494100D02*
X155300Y491900D01*
Y401800D02*
Y491900D01*
Y401800D02*
X184600Y372500D01*
X190400Y376800D01*
Y388500D01*
X194400Y392500D01*
X210400D01*
X212600Y390300D01*
Y346931D02*
Y390300D01*
Y346931D02*
X215200Y344331D01*
X232177D01*
X189986Y432323D02*
X194000D01*
X187900Y430237D02*
X189986Y432323D01*
X187900Y427800D02*
Y430237D01*
X201700Y384500D02*
X203500Y386300D01*
X208800D01*
X210672Y384428D01*
Y346174D02*
Y384428D01*
Y346174D02*
X214484Y342362D01*
X232177D01*
X85639Y460600D02*
Y466817D01*
X95800Y427700D02*
X104400Y436300D01*
X79783Y427700D02*
X95800D01*
X68083Y416000D02*
X79783Y427700D01*
X52120Y467017D02*
Y472980D01*
X52000Y473100D02*
X52120Y472980D01*
X49561Y444183D02*
Y448700D01*
X51161Y450300D01*
X59400D01*
X46700Y586100D02*
X94700D01*
X169400Y511400D01*
Y501300D02*
Y511400D01*
X162500Y494400D02*
X169400Y501300D01*
X162500Y452292D02*
Y494400D01*
Y452292D02*
X165592Y449200D01*
X171800D01*
X46700Y576100D02*
X101300D01*
X166700Y510700D01*
Y503000D02*
Y510700D01*
X160800Y497100D02*
X166700Y503000D01*
X160800Y445600D02*
Y497100D01*
Y445600D02*
X162200Y444200D01*
X171800D01*
X114200Y454200D02*
X133800D01*
X95600Y472800D02*
X114200Y454200D01*
X95600Y472800D02*
Y569058D01*
X124000Y484200D02*
X133800D01*
X120800Y487400D02*
X124000Y484200D01*
X120800Y487400D02*
Y548901D01*
X107801Y561900D02*
X120800Y548901D01*
X99300Y561900D02*
X107801D01*
X119500Y479200D02*
X133800D01*
X115300Y474200D02*
X133800D01*
X115100Y474400D02*
X115300Y474200D01*
X279323Y249941D02*
Y260000D01*
X185100Y240100D02*
X189200Y244200D01*
X185100Y206100D02*
Y240100D01*
X181400Y202400D02*
X185100Y206100D01*
X171800Y474200D02*
X177400D01*
X180000Y476800D01*
X220698Y493202D02*
X221500Y492400D01*
X215817Y493202D02*
X220698D01*
X204877Y562163D02*
Y568000D01*
Y562163D02*
X207200Y559840D01*
X222984D01*
X230885Y567742D01*
Y588600D01*
X334441Y171141D02*
Y249941D01*
X333900Y170600D02*
X334441Y171141D01*
X276000Y173647D02*
X276100D01*
X288653Y173447D02*
X290894D01*
X241921Y243579D02*
X245000Y240500D01*
X241921Y243579D02*
Y249941D01*
X253732Y242823D02*
Y249941D01*
Y242823D02*
X256555Y240000D01*
X353700Y200600D02*
X354407Y199893D01*
Y182905D02*
Y199893D01*
X353700Y166503D02*
X354407Y182905D01*
X353700Y166503D02*
X355372Y164831D01*
Y142372D02*
Y164831D01*
X350868Y137868D02*
X355372Y142372D01*
X290964Y137868D02*
X350868D01*
X308600Y170100D02*
Y173247D01*
X308500Y170000D02*
X308600Y170100D01*
X263000Y243100D02*
X308500Y197600D01*
X256779Y243100D02*
X263000D01*
X255701Y244178D02*
X256779Y243100D01*
X255701Y244178D02*
Y249941D01*
X357100Y140400D02*
Y179700D01*
X352599Y135899D02*
X357100Y140400D01*
X290964Y135899D02*
X352599D01*
X245858Y249941D02*
Y256642D01*
X244600Y257900D02*
X245858Y256642D01*
X239200Y257900D02*
X244600D01*
X236600Y255300D02*
X239200Y257900D01*
X236600Y236476D02*
Y255300D01*
X222151Y222027D02*
X236600Y236476D01*
X214127Y222027D02*
X222151D01*
X207700Y215600D02*
X214127Y222027D01*
X207700Y178700D02*
Y215600D01*
Y178700D02*
X215100D01*
Y182200D01*
X217400Y184500D01*
X237600D01*
X242400Y179700D01*
Y178000D02*
Y179700D01*
Y178000D02*
X243200Y177200D01*
X255247D01*
X258400Y174047D01*
X260200D01*
X245600Y147800D02*
Y174247D01*
X266357Y150043D02*
X266950Y149450D01*
X266357Y150043D02*
Y154600D01*
X329400Y178200D02*
Y232496D01*
X330504Y233600D01*
Y249941D01*
X234888Y143773D02*
X255531D01*
X208230Y170430D02*
X234888Y143773D01*
X203218Y166182D02*
X203600Y165800D01*
X203218Y166182D02*
Y222538D01*
X221300Y240619D01*
Y258950D01*
X224004Y261654D01*
X232177D01*
X233298Y141805D02*
X255531D01*
X232831Y142272D02*
X233298Y141805D01*
X231028Y142272D02*
X232831D01*
X204918Y168382D02*
X231028Y142272D01*
X204918Y168382D02*
Y220000D01*
X209136Y224218D01*
X217772D01*
X223100Y229546D01*
Y256385D01*
X226400Y259685D01*
X232177D01*
X231836Y139836D02*
X255531D01*
X231100Y140572D02*
X231836Y139836D01*
X204000Y140572D02*
X231100D01*
X198200Y146372D02*
X204000Y140572D01*
X198200Y146372D02*
Y177400D01*
X198800Y178000D01*
X318000Y256900D02*
X318693Y256207D01*
Y249941D02*
Y256207D01*
X324598Y177798D02*
Y249941D01*
X324000Y177200D02*
X324598Y177798D01*
X248400Y137100D02*
X249168Y137868D01*
X255531D01*
X218806Y265591D02*
X232177D01*
X217900Y264685D02*
X218806Y265591D01*
X217900Y244019D02*
Y264685D01*
X195400Y221519D02*
X217900Y244019D01*
X195400Y155200D02*
Y221519D01*
X251500Y147710D02*
Y155200D01*
Y147710D02*
X255531D01*
Y145742D02*
X259683D01*
Y148717D01*
X257100Y151300D02*
X259683Y148717D01*
X257100Y151300D02*
Y158700D01*
X200900D02*
Y174710D01*
X201518Y175328D01*
Y225156D01*
X219600Y243238D01*
Y260444D01*
X222778Y263622D01*
X232177D01*
X156647Y571400D02*
Y577353D01*
X151400Y582600D02*
X156647Y577353D01*
X151400Y582600D02*
Y603800D01*
X156000Y608400D01*
X282105Y119167D02*
Y125550D01*
X278456Y129200D02*
X282105Y125550D01*
X271200Y124300D02*
X272263Y123237D01*
Y119167D02*
Y123237D01*
X301800Y120100D02*
Y122600D01*
X301085Y114800D02*
X301800Y120100D01*
X290500Y123200D02*
X293600Y120100D01*
X301800D01*
X269900Y114100D02*
X270294Y114494D01*
Y119167D01*
X262420Y109080D02*
Y119167D01*
X253800Y83700D02*
X264900Y94800D01*
X253800Y76200D02*
Y83700D01*
X260500Y69500D02*
X263000D01*
X228553Y137200D02*
Y137600D01*
X226300Y124828D02*
Y137200D01*
Y124828D02*
X234728D01*
X236000Y126100D01*
X286800Y127200D02*
X287625Y128025D01*
X290964D01*
X286800Y103700D02*
X292000Y98500D01*
X290964Y131962D02*
X313300D01*
X315100Y130162D01*
Y92200D02*
Y130162D01*
X290964Y129994D02*
X294400D01*
X295500Y128894D01*
Y124800D02*
Y128894D01*
Y124800D02*
X297100Y123200D01*
X228953Y130200D02*
X234400D01*
X228953Y127800D02*
Y130200D01*
X162153Y545200D02*
X165000D01*
X182600Y562800D01*
X193600D01*
X194641Y563841D01*
Y568000D01*
X278168Y119167D02*
Y122132D01*
X276980Y123320D02*
X278168Y122132D01*
X275200Y123320D02*
X276980D01*
X274000Y124520D02*
X275200Y123320D01*
X274000Y124520D02*
Y127000D01*
X273000Y128000D02*
X274000Y127000D01*
X222600Y174847D02*
X226600D01*
X142940Y551900D02*
X143953Y552913D01*
X138300Y551900D02*
X142940D01*
X137647Y551247D02*
X138300Y551900D01*
X137647Y548800D02*
Y551247D01*
X143953Y556200D02*
Y556600D01*
X146900Y556200D02*
X150300Y552800D01*
Y542197D02*
Y552800D01*
Y542197D02*
X151969Y540528D01*
X190810D01*
X192082Y541800D01*
Y544575D01*
X143553Y544747D02*
Y548800D01*
Y544747D02*
X149472Y538828D01*
X192669D01*
X194641Y540800D01*
Y544575D01*
X300976Y249941D02*
Y258924D01*
X293700Y266200D02*
X300976Y258924D01*
X293700Y266200D02*
Y313100D01*
X307900Y327300D01*
Y356600D01*
X304400Y357600D02*
X307900Y356600D01*
X267500Y320700D02*
X304400Y357600D01*
X256800Y320700D02*
X267500D01*
X255200Y322300D02*
X256800Y320700D01*
X255200Y322300D02*
Y347300D01*
X240100Y362400D02*
X255200Y347300D01*
X240100Y362400D02*
Y433000D01*
X244100Y437000D01*
X207400Y550300D02*
X207436Y550264D01*
Y544575D02*
Y550264D01*
X204877Y544575D02*
Y547600D01*
X204700D02*
Y554223D01*
X207777Y557300D01*
X233300D01*
X238200Y552400D01*
Y454600D02*
Y552400D01*
X226500Y437500D02*
X238200Y449200D01*
X226500Y395600D02*
Y437500D01*
Y395600D02*
X233600Y388500D01*
Y381700D02*
Y388500D01*
X281300Y324336D02*
X283364D01*
X289628Y318072D01*
Y267255D02*
Y318072D01*
Y267255D02*
X299008Y257875D01*
Y249941D02*
Y257875D01*
X209995Y544575D02*
Y549400D01*
X211950Y551355D01*
X213600Y553550D01*
X217100Y555600D01*
X226200D01*
X232200Y549600D01*
Y468100D02*
Y549600D01*
X205100Y454400D02*
Y466600D01*
X203000Y452300D02*
X205100Y454400D01*
X188000Y452300D02*
X203000D01*
X183500Y447800D02*
X188000Y452300D01*
X183500Y421500D02*
Y447800D01*
Y421500D02*
X183600Y421400D01*
X283900Y293000D02*
X287928Y288972D01*
Y266551D02*
Y288972D01*
Y266551D02*
X295071Y259408D01*
Y249941D02*
Y259408D01*
X297039Y243639D02*
Y249941D01*
X296700Y243300D02*
X297039Y243639D01*
X212554Y548354D02*
X214800Y550600D01*
X212554Y544575D02*
Y548354D01*
X227200Y312835D02*
X232177D01*
X225200Y314835D02*
X227200Y312835D01*
X225200Y314835D02*
Y315800D01*
X92400Y151600D02*
X102847D01*
X89000Y155000D02*
X92400Y151600D01*
X102447Y207000D02*
Y210400D01*
X105647Y213600D01*
X113300D01*
X114100Y214400D01*
Y234200D01*
X113200D02*
X114100D01*
X108200Y239200D02*
X113200Y234200D01*
X108200Y239200D02*
Y239600D01*
X127300Y464200D02*
X133800D01*
X275386Y249941D02*
Y324286D01*
X305200Y354100D01*
X199759Y568000D02*
Y577788D01*
X195118Y582429D02*
X199759Y577788D01*
X190330Y582429D02*
X195118D01*
X187100Y585659D02*
X190330Y582429D01*
X187100Y585659D02*
Y596000D01*
X199385Y608285D01*
X211200D01*
X496500Y273300D02*
X497400Y272400D01*
X495500Y205400D02*
X497400Y207300D01*
X487200Y205400D02*
X495500D01*
X481600Y265800D02*
X487200D01*
Y197900D02*
X496300D01*
X490300Y271000D02*
X494400D01*
X492400Y255600D02*
X495700Y258900D01*
X487200Y192900D02*
X492000D01*
X493400Y194300D01*
Y195200D01*
X492000Y207900D02*
X494100Y210000D01*
X115900Y469200D02*
X133800D01*
X112300Y472800D02*
X115900Y469200D01*
X112300Y472800D02*
Y535000D01*
X111400Y535900D02*
X112300Y535000D01*
X133800Y459200D02*
X141000D01*
X108353Y207000D02*
X112400D01*
X115800Y210400D01*
Y240600D01*
X113600Y242800D02*
X115800Y240600D01*
X106400Y242800D02*
X113600D01*
X105600Y242000D02*
X106400Y242800D01*
X106715Y236600D02*
X110715Y232600D01*
X108315Y257515D02*
Y272600D01*
X105300Y254500D02*
X108315Y257515D01*
X105300Y237215D02*
Y254500D01*
X204877Y568000D02*
Y575238D01*
X191515Y588600D02*
X204877Y575238D01*
X156400Y551200D02*
Y553800D01*
Y551200D02*
X159000Y548600D01*
X162400D01*
X165000Y551200D01*
Y566000D01*
X162400D02*
X165000D01*
X159900Y568500D02*
X162400Y566000D01*
X159900Y568500D02*
Y573800D01*
X160800Y574700D01*
X189582D01*
X192082Y572200D01*
Y568000D02*
Y572200D01*
X268326Y119167D02*
Y132700D01*
X229153Y106753D02*
Y109600D01*
X226100Y103700D02*
X229153Y106753D01*
X226100Y93300D02*
Y103700D01*
Y93300D02*
X245700Y73700D01*
X47002Y444183D02*
Y449602D01*
X50400Y453000D01*
X64900D01*
X67000Y450900D01*
X112500D01*
X116600Y446800D01*
X139500D01*
X139900Y447200D01*
X147300D01*
X147400Y447100D01*
Y256300D02*
Y447100D01*
Y256300D02*
X156800Y246900D01*
X204200D01*
X211000Y253700D01*
Y271200D01*
X213265Y273465D01*
X232177D01*
X221900Y287244D02*
X232177D01*
X209300Y274644D02*
X221900Y287244D01*
X209300Y262500D02*
Y274644D01*
X195400Y248600D02*
X209300Y262500D01*
X167700Y248600D02*
X195400D01*
X164300Y252000D02*
X167700Y248600D01*
X164300Y252000D02*
Y307200D01*
X203000Y345900D02*
Y355200D01*
X203953Y356153D01*
X206000D01*
X166000Y255200D02*
Y274400D01*
Y255200D02*
X170900Y250300D01*
X188294D01*
X206872Y268878D01*
Y292000D01*
X205300Y293572D02*
X206872Y292000D01*
X205300Y293572D02*
Y298400D01*
X205955Y299055D01*
X232177D01*
X57239Y467017D02*
Y476000D01*
X55239Y478000D02*
X57239Y476000D01*
X18400Y478000D02*
X55239D01*
X14100Y473700D02*
X18400Y478000D01*
X14100Y392800D02*
Y473700D01*
Y392800D02*
X120800Y286100D01*
Y234000D02*
Y286100D01*
Y234000D02*
X176100Y178700D01*
X185800D01*
X187700Y180600D01*
Y227700D01*
X213750Y253750D01*
Y268000D01*
X217246Y271496D01*
X232177D01*
X249795Y256695D02*
X250800Y257700D01*
X277354Y235000D02*
Y249941D01*
X26140Y437160D02*
Y438874D01*
Y437160D02*
X28400Y434900D01*
Y386600D02*
Y434900D01*
Y386600D02*
X100000Y315000D01*
X239200Y264700D02*
Y267928D01*
X237600Y269528D02*
X239200Y267928D01*
X232177Y269528D02*
X237600D01*
X194000Y429764D02*
X199100D01*
X219700Y409164D01*
Y389600D02*
Y409164D01*
Y389600D02*
X226100Y383200D01*
Y357242D02*
Y383200D01*
Y357242D02*
X227200Y356142D01*
X232177D01*
X116700Y449200D02*
X133800D01*
X111600Y454300D02*
X116700Y449200D01*
X67500Y454300D02*
X111600D01*
X64900Y456900D02*
X67500Y454300D01*
X64900Y456900D02*
Y547900D01*
X46700Y566100D02*
X64900Y547900D01*
X44443Y440000D02*
Y444183D01*
Y440000D02*
X45443Y439000D01*
X58798D01*
X59798Y440000D01*
X225403Y277402D02*
X232177D01*
X150200Y278600D02*
Y454500D01*
X140300Y464400D02*
X150200Y454500D01*
X140300Y464400D02*
Y531805D01*
X100148Y571957D02*
X140300Y531805D01*
X91157Y571957D02*
X100148D01*
X88000Y568800D02*
X91157Y571957D01*
X88000Y473898D02*
Y568800D01*
Y473898D02*
X88198Y473700D01*
Y466817D02*
Y473700D01*
X225327Y354173D02*
X232177D01*
X224400Y355100D02*
X225327Y354173D01*
X224400Y355100D02*
Y359500D01*
X223400Y360500D02*
X224400Y359500D01*
X153600Y393000D02*
X186100Y360500D01*
X153600Y393000D02*
Y490200D01*
X151400Y492400D02*
X153600Y490200D01*
X151400Y492400D02*
Y505100D01*
X159100Y512800D01*
X187200Y500700D02*
X187380Y500880D01*
X192983D01*
X174939Y503439D02*
X192983D01*
X164225Y492725D02*
X174939Y503439D01*
X164225Y480275D02*
Y492725D01*
Y480275D02*
X167700Y476800D01*
X176200D01*
X177000Y477600D01*
Y483200D01*
X176000Y484200D02*
X177000Y483200D01*
X171800Y484200D02*
X176000D01*
X188090Y458602D02*
X192983D01*
X187452Y459241D02*
X188090Y458602D01*
X187452Y459241D02*
Y480553D01*
X187899Y481000D01*
X192044D01*
X80520Y466817D02*
Y476920D01*
X81900Y478300D01*
X106153Y291400D02*
Y293600D01*
X102453Y297300D02*
X106153Y293600D01*
X90200Y297300D02*
X102453D01*
X62357Y444183D02*
Y445700D01*
X389800Y84000D02*
X392600D01*
X386000Y80200D02*
X389800Y84000D01*
X386000Y66400D02*
Y80200D01*
X384000Y64400D02*
X386000Y66400D01*
X380000Y64400D02*
X384000D01*
X376800Y67600D02*
X380000Y64400D01*
X376800Y67600D02*
Y86800D01*
X373600Y90000D02*
X376800Y86800D01*
X334400Y90000D02*
X373600D01*
X330000Y85600D02*
X334400Y90000D01*
X330000Y73600D02*
Y85600D01*
Y73600D02*
X332000Y71600D01*
X334000D01*
X515500Y60000D02*
X523412Y52088D01*
X515500Y60000D02*
Y278200D01*
X507800Y285900D02*
X515500Y278200D01*
X507800Y285900D02*
Y383200D01*
X502800Y388200D02*
X507800Y383200D01*
X56272Y416000D02*
Y421628D01*
X36000Y441900D02*
X56272Y421628D01*
X23300Y441900D02*
X36000D01*
X23300Y437300D02*
Y441900D01*
X21600Y435600D02*
X23300Y437300D01*
X16800Y435600D02*
X21600D01*
X15800Y436600D02*
X16800Y435600D01*
X15800Y436600D02*
Y456100D01*
X35600Y475900D01*
X53600D01*
X54700Y474800D01*
Y470320D02*
Y474800D01*
X54680Y470300D02*
X54700Y470320D01*
X54680Y467017D02*
Y470300D01*
X406600Y458700D02*
X412300D01*
X417200Y463600D01*
Y485900D01*
X415900Y487200D02*
X417200Y485900D01*
X415900Y487200D02*
Y505500D01*
X413300Y508100D02*
X415900Y505500D01*
X519400Y474208D02*
Y505500D01*
Y474208D02*
X531850Y461758D01*
Y389456D02*
Y461758D01*
Y389456D02*
X537000Y384306D01*
Y266100D02*
Y384306D01*
Y266100D02*
X550600Y252500D01*
X560000D01*
X562100Y250400D01*
Y202500D02*
Y250400D01*
X557800Y198200D02*
X562100Y202500D01*
X557800Y468200D02*
X566181Y459819D01*
Y186581D02*
Y459819D01*
X557800Y178200D02*
X566181Y186581D01*
X535032Y21454D02*
Y40800D01*
X530832Y45000D02*
X535032Y40800D01*
X518600Y45000D02*
X530832D01*
X493200Y70400D02*
X518600Y45000D01*
X311715Y90285D02*
Y114800D01*
Y90285D02*
X314400Y87600D01*
X327900D02*
X342900Y102600D01*
Y149056D02*
X350700D01*
X316200Y179753D02*
Y188600D01*
X319000Y191400D01*
X351700Y165103D02*
X353672Y163131D01*
Y157581D02*
Y163131D01*
X352881Y157581D02*
X353672D01*
X350700Y155400D02*
X352881Y157581D01*
X350700Y154844D02*
Y155400D01*
X334000Y77506D02*
X336000D01*
X337000Y76506D01*
Y69600D02*
Y76506D01*
X332500Y65100D02*
X337000Y69600D01*
X264900Y65100D02*
X332500D01*
X264900Y94800D02*
Y106600D01*
X262420Y109080D02*
X264900Y106600D01*
X133800Y444200D02*
X142200D01*
X285228Y249941D02*
Y256000D01*
X287000Y260397D02*
X287197Y260200D01*
Y249941D02*
Y260200D01*
X322630Y249941D02*
Y270500D01*
X261606Y249941D02*
Y256000D01*
X267100Y261494D01*
Y271256D01*
X138600Y52156D02*
X140000Y53556D01*
X138600Y47200D02*
Y52156D01*
Y47200D02*
X142100Y43700D01*
X234354D01*
X253000Y62346D02*
Y69500D01*
X136956Y55356D02*
X141600D01*
X64800Y30600D02*
X112200D01*
X418500Y292000D02*
X424300D01*
X425900Y293600D01*
X548100Y346400D02*
X551300Y343200D01*
X548100Y346400D02*
Y565217D01*
X530266Y583051D02*
X548100Y565217D01*
X530266Y583051D02*
Y590495D01*
X517261Y603500D02*
X530266Y590495D01*
X485600Y603500D02*
X517261D01*
X480800Y598700D02*
X485600Y603500D01*
X480800Y581300D02*
Y598700D01*
Y581300D02*
X481200Y580900D01*
X488800D01*
X489900Y582000D01*
Y590900D01*
X486200Y594600D02*
X489900Y590900D01*
X535400Y587500D02*
Y607300D01*
X525800Y616900D02*
X535400Y607300D01*
X454300Y616900D02*
X525800D01*
X441296Y603896D02*
X454300Y616900D01*
X441296Y594408D02*
Y603896D01*
X381454Y545400D02*
Y553340D01*
X374400Y560394D02*
X381454Y553340D01*
X374400Y560394D02*
Y564700D01*
X374536Y564836D01*
Y585436D01*
X373369Y586603D02*
X374536Y585436D01*
X493700Y278300D02*
X496500Y281100D01*
X418500Y284500D02*
X424800D01*
X426400Y282900D01*
Y281500D02*
Y282900D01*
X571600Y279700D02*
Y591200D01*
X567400Y595400D02*
X571600Y591200D01*
X559300Y595400D02*
X567400D01*
X548000Y584100D02*
X559300Y595400D01*
X534565Y584100D02*
X548000D01*
X532265Y586400D02*
X534565Y584100D01*
X532265Y586400D02*
Y594335D01*
X518900Y607700D02*
X532265Y594335D01*
X482200Y607700D02*
X518900D01*
X476200Y601700D02*
X482200Y607700D01*
X476200Y594600D02*
Y601700D01*
X391700Y402500D02*
X394100Y400100D01*
X459600Y351300D02*
X461800Y349100D01*
Y290100D02*
Y349100D01*
X460000Y288300D02*
X461800Y290100D01*
X451200Y288300D02*
X460000D01*
X383500Y400000D02*
X388074D01*
X395300Y387600D02*
Y392774D01*
X463500Y289300D02*
Y351900D01*
X460000Y285800D02*
X463500Y289300D01*
X451200Y285800D02*
X460000D01*
X419300Y511100D02*
X421400Y513200D01*
X419300Y490900D02*
Y511100D01*
Y490900D02*
X420600Y489600D01*
Y459638D02*
Y489600D01*
X413362Y452400D02*
X420600Y459638D01*
X409900Y452400D02*
X413362D01*
X407900Y450400D02*
X409900Y452400D01*
X407900Y432400D02*
Y450400D01*
X401900Y426400D02*
X407900Y432400D01*
X401900Y403700D02*
Y426400D01*
Y403700D02*
X404400Y401200D01*
Y381100D02*
Y401200D01*
X400700Y377400D02*
X404400Y381100D01*
X400700Y319200D02*
Y377400D01*
Y319200D02*
X407900Y312000D01*
X418500D01*
X394052Y535748D02*
Y545400D01*
Y535748D02*
X405200Y524600D01*
X422200D01*
X427700Y519100D01*
Y514800D02*
Y519100D01*
X426100Y513200D02*
X427700Y514800D01*
X426100Y507800D02*
Y513200D01*
Y507800D02*
X428000Y505900D01*
Y418750D02*
Y505900D01*
X424250Y415000D02*
X428000Y418750D01*
X419500Y415000D02*
X424250D01*
X424400Y504800D02*
Y518467D01*
Y504800D02*
X424700Y504500D01*
Y438400D02*
Y504500D01*
X423800Y437500D02*
X424700Y438400D01*
X419500Y437500D02*
X423800D01*
X428698Y539902D02*
Y545400D01*
X101847Y93800D02*
X103154D01*
Y95254D02*
X106800Y98900D01*
Y119100D01*
X101447Y124453D02*
X106800Y119100D01*
X101447Y124453D02*
Y127000D01*
X101485Y101000D02*
Y105400D01*
X85900Y101000D02*
X101485D01*
X84900Y100000D02*
X85900Y101000D01*
X84900Y92000D02*
Y100000D01*
Y92000D02*
X86100Y90800D01*
X106553D01*
X107753Y92000D01*
X133800Y437800D02*
Y444200D01*
Y437800D02*
X143818Y427782D01*
Y412000D02*
Y427782D01*
X137218Y405400D02*
X143818Y412000D01*
X136100Y405400D02*
X137218D01*
X495600Y273300D02*
X497400Y271500D01*
X494600Y134600D02*
Y178827D01*
X505400Y189627D01*
Y348200D01*
X499100Y354500D02*
X505400Y348200D01*
X499100Y354500D02*
Y401300D01*
X500000Y402200D01*
X504200D01*
X510200Y408200D01*
X512800D01*
X469200Y190900D02*
X478700Y200400D01*
X447100Y190900D02*
X469200D01*
X446000Y192000D02*
X447100Y190900D01*
X446000Y192000D02*
Y200400D01*
X481300Y215400D02*
X487200D01*
X479300Y217400D02*
X481300Y215400D01*
X470300Y217400D02*
X479300D01*
X466500Y213600D02*
X470300Y217400D01*
X466500Y204000D02*
Y213600D01*
Y204000D02*
X470100Y200400D01*
X495600Y278300D02*
X499600Y274300D01*
X469200Y210400D02*
X487200D01*
X352059Y263622D02*
X357954D01*
X360379Y261197D01*
Y248833D02*
Y261197D01*
Y248833D02*
X372919Y236293D01*
Y195526D02*
Y236293D01*
Y195526D02*
X383000Y185445D01*
Y168000D02*
Y185445D01*
Y168000D02*
X415400Y135600D01*
X384700Y181300D02*
X425900Y140100D01*
X384700Y181300D02*
Y187737D01*
X375650Y196787D02*
X384700Y187737D01*
X375650Y196787D02*
Y237136D01*
X363228Y249558D02*
X375650Y237136D01*
X363228Y249558D02*
Y262724D01*
X360361Y265591D02*
X363228Y262724D01*
X352059Y265591D02*
X360361D01*
X445200Y88400D02*
Y137153D01*
X440800Y84000D02*
X445200Y88400D01*
X392600Y84000D02*
X440800D01*
X222847Y53600D02*
Y101400D01*
X217291Y48044D02*
X222847Y53600D01*
X189000Y48044D02*
X217291D01*
X97685Y268585D02*
Y272600D01*
X96800Y267700D02*
X97685Y268585D01*
X84300Y267700D02*
X96800D01*
X84300Y259100D02*
Y267700D01*
Y259100D02*
X104553D01*
X104953Y259500D01*
Y263200D01*
X526800Y182900D02*
X534000D01*
X521700Y188000D02*
X526800Y182900D01*
X521700Y188000D02*
Y396600D01*
X526500Y401400D01*
Y459704D01*
X521104Y465100D02*
X526500Y459704D01*
X511200Y465100D02*
X521104D01*
X506200Y460100D02*
X511200Y465100D01*
X506200Y451800D02*
Y460100D01*
Y451800D02*
X506500Y451500D01*
Y421900D02*
Y451500D01*
X502800Y418200D02*
X506500Y421900D01*
X413365Y420000D02*
X419500D01*
X411200Y417835D02*
X413365Y420000D01*
X411200Y411900D02*
Y417835D01*
X269000Y434400D02*
Y440500D01*
Y434400D02*
X273800Y429600D01*
X291700D01*
X296500Y434400D01*
Y440500D01*
X279000D02*
Y497500D01*
X267300Y509200D02*
X279000Y497500D01*
X267300Y509200D02*
Y550000D01*
X422398Y570602D02*
X422900Y570100D01*
X422398Y570602D02*
Y594408D01*
X207516Y302992D02*
Y303944D01*
X248939Y281339D02*
X254800Y287200D01*
X171800Y454200D02*
X179696D01*
X181500Y452396D01*
Y439000D02*
Y452396D01*
X180900Y438400D02*
X181500Y439000D01*
X180900Y420000D02*
Y438400D01*
Y420000D02*
X184331Y416569D01*
Y413369D02*
Y416569D01*
Y413369D02*
X185600Y412100D01*
X197500D01*
X201500Y416100D01*
Y424105D01*
X198400Y427205D02*
X201500Y424105D01*
X194000Y427205D02*
X198400D01*
X192983Y466280D02*
X200800D01*
X202400Y464680D01*
Y458800D02*
Y464680D01*
X197600Y454000D02*
X202400Y458800D01*
X182300Y454000D02*
X197600D01*
X177100Y459200D02*
X182300Y454000D01*
X171800Y459200D02*
X177100D01*
X232177Y358110D02*
X237600D01*
X238400Y358910D01*
Y431300D01*
X234300Y435400D02*
X238400Y431300D01*
X208300Y461400D02*
Y468200D01*
X207200Y469300D02*
X208300Y468200D01*
X201683Y469300D02*
X207200D01*
X201222Y468839D02*
X201683Y469300D01*
X192983Y468839D02*
X201222D01*
X328535Y364765D02*
X330700Y362600D01*
X291134Y359700D02*
Y369823D01*
X279691Y379300D02*
X281291Y377700D01*
X383500Y407500D02*
X389900D01*
X349035Y383635D02*
X349600Y384200D01*
X349035Y360079D02*
X352059D01*
X239313Y297087D02*
X239700Y296700D01*
X225671Y306929D02*
X232177D01*
X269000Y440500D02*
Y450800D01*
X269200Y451000D01*
Y455200D01*
X268200Y456200D02*
X269200Y455200D01*
X263800Y456200D02*
X268200D01*
X259500Y451900D02*
X263800Y456200D01*
X236600Y451900D02*
X259500D01*
X224700Y440000D02*
X236600Y451900D01*
X216835Y440000D02*
X224700D01*
X383500Y437500D02*
X389900D01*
X392800Y434600D01*
X222100Y330488D02*
X226100Y334488D01*
X232177D01*
X383500Y430000D02*
X389100D01*
X389300Y429800D01*
X235700Y407900D02*
X236300Y407300D01*
Y363500D02*
Y407300D01*
X235700Y362900D02*
X236300Y363500D01*
X239700Y352100D02*
X241500Y350300D01*
Y340725D02*
Y350300D01*
X239200Y338425D02*
X241500Y340725D01*
X232177Y338425D02*
X239200D01*
X259000Y440500D02*
Y445300D01*
X255200Y449100D02*
X259000Y445300D01*
X247400Y449100D02*
X255200D01*
X244200Y445900D02*
X247400Y449100D01*
X243400Y462000D02*
Y569300D01*
X255200Y581100D01*
X316000D01*
X398500Y600500D02*
X400351Y598649D01*
Y594408D02*
Y598649D01*
X362600Y461200D02*
X370600D01*
X362000Y460600D02*
X362600Y461200D01*
X362000Y456400D02*
Y460600D01*
X306500Y419200D02*
X323100Y435800D01*
X306500Y404500D02*
Y419200D01*
X261500Y396600D02*
Y404500D01*
X261100Y396200D02*
X261500Y396600D01*
X243700Y412000D02*
X261500Y429800D01*
X419500Y390000D02*
X424800D01*
X426400Y388400D01*
Y378000D02*
Y388400D01*
X413400Y405500D02*
X413900Y405000D01*
X438146Y590254D02*
Y594408D01*
Y590254D02*
X439200Y589200D01*
X467300D01*
X470700Y585800D01*
Y552700D02*
Y585800D01*
Y552700D02*
X472500Y550900D01*
X479900D01*
X486200Y544600D01*
X512500Y568300D02*
X516200Y564600D01*
X512500Y568300D02*
Y592500D01*
X513900Y593900D01*
X412950Y601650D02*
X413900Y602600D01*
X412950Y594408D02*
Y601650D01*
X492100Y541200D02*
Y574800D01*
X490100Y539200D02*
X492100Y541200D01*
X473696Y539200D02*
X490100D01*
X472475Y540420D02*
X473696Y539200D01*
X459589Y540420D02*
X472475D01*
X441309Y558700D02*
X459589Y540420D01*
X434400Y558700D02*
X441309D01*
X431847Y556147D02*
X434400Y558700D01*
X431847Y545400D02*
Y556147D01*
X418500Y282000D02*
X423700D01*
Y279900D02*
Y282000D01*
Y279900D02*
X424800Y278800D01*
X428000D01*
X434800Y285600D01*
Y289408D01*
X438300Y292908D01*
Y426500D01*
X442700Y430900D01*
Y473700D01*
X509900Y540900D01*
Y566400D01*
X508000Y568300D02*
X509900Y566400D01*
X505355Y568300D02*
X508000D01*
X495755Y577900D02*
X505355Y568300D01*
X481700Y577900D02*
X495755D01*
X478000Y581600D02*
X481700Y577900D01*
X478000Y581600D02*
Y582800D01*
X476200Y584600D02*
X478000Y582800D01*
X412950Y564150D02*
X416100Y567300D01*
X412950Y545400D02*
Y564150D01*
X294500Y488000D02*
Y513100D01*
X294000Y487500D02*
X294500Y488000D01*
X294000Y440500D02*
Y487500D01*
X199759Y544575D02*
Y554441D01*
X296400Y271700D02*
Y309400D01*
X327000Y340000D01*
X342804Y271496D02*
X352059D01*
Y273465D02*
X357135D01*
X359100Y271500D01*
X270294Y154600D02*
Y166006D01*
X262253Y174047D02*
X270294Y166006D01*
X260200Y174047D02*
X262253D01*
X267800Y173647D02*
X269600D01*
X270800Y174847D01*
Y206500D01*
X239900Y237400D02*
X270800Y206500D01*
X239900Y237400D02*
Y255300D01*
X240800Y256200D01*
X242890D01*
X243890Y255200D01*
Y249941D02*
Y255200D01*
X414200Y387500D02*
X419500D01*
X410900Y390800D02*
X414200Y387500D01*
X410900Y390800D02*
Y398741D01*
X403600Y406041D02*
X410900Y398741D01*
X403600Y406041D02*
Y423400D01*
X404600Y424400D01*
X509100Y392600D02*
X509400Y392900D01*
X509100Y384500D02*
Y392600D01*
Y384500D02*
X511700Y381900D01*
X514400D01*
X518400Y377900D01*
Y173200D02*
Y377900D01*
X364400Y173200D02*
Y232200D01*
X348028Y257872D02*
X349600Y256300D01*
X346532Y257872D02*
X348028D01*
X346000Y258404D02*
X346532Y257872D01*
X346000Y258404D02*
Y268328D01*
X347200Y269528D01*
X352059D01*
X381800Y68600D02*
Y149200D01*
X368800Y162200D02*
X381800Y149200D01*
X368800Y162200D02*
Y235604D01*
X355524Y248880D02*
X368800Y235604D01*
X352059Y259685D02*
X355524D01*
X439600Y204000D02*
X443200Y200400D01*
X439600Y204000D02*
Y211000D01*
X444000Y215400D01*
X451200D01*
X378000Y329500D02*
X382500D01*
X372354Y326900D02*
X375400D01*
X368200Y322746D02*
X372354Y326900D01*
X368200Y315800D02*
Y322746D01*
Y315800D02*
X370400Y313600D01*
X371600D01*
X372500Y314500D01*
X382500D01*
X360800Y342362D02*
X366162Y337000D01*
X352059Y342362D02*
X360800D01*
X339335Y312835D02*
X352059D01*
X339000Y312500D02*
X339335Y312835D01*
X301500Y398700D02*
Y404500D01*
X298100Y395300D02*
X301500Y398700D01*
X298100Y380800D02*
Y395300D01*
X295071Y377771D02*
X298100Y380800D01*
X295071Y369823D02*
Y377771D01*
X377700Y334500D02*
X382500D01*
X373800Y330600D02*
X377700Y334500D01*
X442500Y280100D02*
X443200Y280800D01*
X451200D01*
X418500Y273300D02*
X451200D01*
X417100Y271900D02*
X418500Y273300D01*
X372300Y321300D02*
X378000Y327000D01*
X382500D01*
X442300Y225400D02*
X451200D01*
X424700Y243000D02*
X442300Y225400D01*
X368400Y310300D02*
X372900D01*
X375000Y312400D01*
X378600D01*
X379000Y312000D01*
X382500D01*
X435700Y222900D02*
X451200D01*
X427500Y231100D02*
X435700Y222900D01*
X407421Y231100D02*
X427500D01*
X367200Y306300D02*
X369500Y308600D01*
X373700D01*
X374600Y309500D01*
X370600Y280800D02*
X375700Y275700D01*
Y271000D02*
Y275700D01*
X374400Y269700D02*
X375700Y271000D01*
X367200Y269700D02*
X374400D01*
X364500Y272400D02*
X367200Y269700D01*
X364500Y272400D02*
Y282900D01*
X361000Y286400D02*
X364500Y282900D01*
X361000Y286400D02*
Y307900D01*
X362800Y309700D01*
Y323000D01*
X359186Y326614D02*
X362800Y323000D01*
X352059Y326614D02*
X359186D01*
X375200Y299500D02*
X382500D01*
X363700Y288000D02*
Y294300D01*
X457900Y212900D02*
X458500Y213500D01*
X451200Y212900D02*
X457900D01*
X382500Y282000D02*
X396000D01*
X399500Y285500D01*
X340700Y320500D02*
X346397Y314803D01*
X352059D01*
X406585Y317000D02*
X418500D01*
X404600Y318985D02*
X406585Y317000D01*
X404600Y318985D02*
Y372600D01*
X409800Y545400D02*
Y563587D01*
X413213Y567000D01*
Y573013D01*
X416035Y575835D01*
Y587165D01*
X412950Y590250D02*
X416035Y587165D01*
X412950Y590250D02*
Y594408D01*
X100485Y162400D02*
Y166400D01*
X499900Y285800D02*
X502700Y288600D01*
X212744Y292456D02*
Y296000D01*
X191656Y284244D02*
X198500D01*
X185600Y290300D02*
X191656Y284244D01*
X212744Y292456D02*
X212800Y292400D01*
X213000Y481200D02*
Y486000D01*
X203100Y476100D02*
X205243Y473957D01*
X215817D01*
X311500Y436700D02*
Y440500D01*
X303500Y428700D02*
X311500Y436700D01*
X254000Y427100D02*
Y440500D01*
X261500Y434300D02*
Y440500D01*
X276500Y434300D02*
Y440500D01*
X282560Y393760D02*
X284000Y395200D01*
X330900Y404552D02*
Y463300D01*
X363900Y485500D02*
X365700Y483700D01*
X370600D01*
X406600D02*
X412800D01*
X414400Y482100D01*
X301500Y440500D02*
Y480700D01*
X298700Y483500D02*
X301500Y480700D01*
X298700Y483500D02*
Y503440D01*
X300647Y505387D01*
Y517400D01*
X403501Y545400D02*
Y557600D01*
X398341Y579041D02*
X407000Y587700D01*
X398341Y568021D02*
Y579041D01*
X387753Y557433D02*
X398341Y568021D01*
X387753Y545400D02*
Y557433D01*
X381200Y471200D02*
X386000Y476000D01*
X409800Y529500D02*
X411500Y527800D01*
X409800Y529500D02*
Y545400D01*
X363400Y476200D02*
X370600D01*
X362700Y475500D02*
X363400Y476200D01*
X323800Y466400D02*
X329200Y461000D01*
Y426600D02*
Y461000D01*
X327600Y425000D02*
X329200Y426600D01*
X327600Y400100D02*
Y425000D01*
X311000Y383500D02*
X327600Y400100D01*
X287800Y383500D02*
X291500Y387200D01*
Y404500D01*
X284074Y104026D02*
Y119167D01*
Y104026D02*
X284100Y104000D01*
X320078Y167378D02*
X326700Y174000D01*
X316722Y167378D02*
X320078D01*
X314600Y169500D02*
X316722Y167378D01*
X314600Y173847D02*
X316200D01*
X215300Y352605D02*
Y399200D01*
X520400Y408800D02*
Y455200D01*
X516100Y404500D02*
X520400Y408800D01*
X509100Y404500D02*
X516100D01*
X502800Y398200D02*
X509100Y404500D01*
X203168Y336444D02*
X206400D01*
X206000Y356153D02*
X206400D01*
Y353700D02*
X207200Y352900D01*
X208972D01*
Y345100D02*
Y352900D01*
Y345100D02*
X209372Y344700D01*
Y314472D02*
Y344700D01*
X206600Y311700D02*
X209372Y314472D01*
X197600Y311700D02*
X206600D01*
X193428Y315872D02*
X197600Y311700D01*
X193428Y315872D02*
Y345419D01*
X195019D01*
X196400Y346800D01*
Y348156D01*
X225087Y293150D02*
X232177D01*
X223265Y291328D02*
X225087Y293150D01*
X220028Y291328D02*
X223265D01*
X218400Y289700D02*
X220028Y291328D01*
X210400Y289700D02*
X218400D01*
X209476Y290624D02*
X210400Y289700D01*
X209476Y290624D02*
Y293624D01*
X208350Y294750D02*
X209476Y293624D01*
X198500Y289756D02*
Y293900D01*
Y298244D02*
X201500D01*
Y288100D02*
Y298244D01*
Y288100D02*
X202400Y287200D01*
X210000Y285600D02*
X211600Y287200D01*
X218417D01*
X220845Y289628D01*
X224211D01*
X225764Y291181D01*
X232177D01*
X218256Y294156D02*
Y296000D01*
X104700Y267500D02*
X104953Y267247D01*
Y263200D02*
Y267247D01*
X197600Y378844D02*
X199400D01*
X216500Y292400D02*
X218256Y294156D01*
X198500Y277500D02*
Y284244D01*
X195744Y274744D02*
X198500Y277500D01*
X183500Y274744D02*
X195744D01*
X252800Y391600D02*
Y399800D01*
X254000Y401000D01*
Y404500D01*
X263575Y369823D02*
Y376400D01*
X259791Y380183D02*
X263575Y376400D01*
X259791Y380183D02*
Y391909D01*
X257231Y394469D02*
X259791Y391909D01*
X257231Y394469D02*
Y396131D01*
X259000Y397900D01*
Y404500D01*
X265543Y369823D02*
Y374799D01*
X265392Y374950D02*
X265543Y374799D01*
X265392Y374950D02*
Y377651D01*
X264000Y379043D02*
X265392Y377651D01*
X264000Y379043D02*
Y404500D01*
X274000Y396100D02*
Y404500D01*
X270000Y392100D02*
X274000Y396100D01*
X270000Y389200D02*
Y392100D01*
X269700Y388900D02*
X270000Y389200D01*
X269700Y385767D02*
Y388900D01*
Y385767D02*
X271449Y384019D01*
Y369823D02*
Y384019D01*
X261500Y404500D02*
Y408800D01*
X260600Y409700D02*
X261500Y408800D01*
X254900Y409700D02*
X260600D01*
X254000Y408800D02*
X254900Y409700D01*
X254000Y404500D02*
Y408800D01*
X371400Y317000D02*
X382500D01*
X358242Y334488D02*
X359630Y333100D01*
X352059Y334488D02*
X358242D01*
X376300Y309500D02*
X382500D01*
X362600Y328700D02*
X364100Y327200D01*
X359030Y328700D02*
X362600D01*
X357179Y330551D02*
X359030Y328700D01*
X352059Y330551D02*
X357179D01*
X372700Y337000D02*
X382500D01*
X370400Y334700D02*
X372700Y337000D01*
X370400Y329500D02*
Y334700D01*
Y329500D02*
X372000Y327900D01*
X376400D01*
X378000Y329500D01*
X352059Y348268D02*
X362632D01*
X362800Y348100D01*
Y342900D02*
Y348100D01*
Y342900D02*
X365600Y340100D01*
X382100D01*
X384700Y342700D01*
X389011D01*
X390111Y341600D01*
Y335211D02*
Y341600D01*
X386900Y332000D02*
X390111Y335211D01*
X382500Y332000D02*
X386900D01*
X382500Y327000D02*
X389700D01*
X390600Y327900D01*
X345100Y345500D02*
X345899Y346299D01*
X352059D01*
X387100Y294500D02*
X392600Y300000D01*
X267500Y164200D02*
X268326Y163374D01*
X250800Y174047D02*
X252800D01*
X308600Y177100D02*
Y179153D01*
Y177100D02*
X319214D01*
X319978Y176336D01*
Y171278D02*
Y176336D01*
X259900Y154435D02*
Y164200D01*
Y154435D02*
X261383Y152951D01*
Y144917D02*
Y152951D01*
X264389Y154600D02*
Y166211D01*
X260200Y170400D02*
X264389Y166211D01*
X445500Y278300D02*
X451200D01*
X444600Y277400D02*
X445500Y278300D01*
X440800Y277400D02*
X444600D01*
X439800Y278400D02*
X440800Y277400D01*
X439800Y278400D02*
Y287400D01*
X425700Y314500D02*
X427400Y312800D01*
Y306900D02*
Y312800D01*
X426900Y306400D02*
X427400Y306900D01*
X426900Y304100D02*
Y306400D01*
X424800Y302000D02*
X426900Y304100D01*
X418500Y302000D02*
X424800D01*
X236800Y174247D02*
X239200D01*
Y148500D02*
Y174247D01*
X273731Y107200D02*
Y107700D01*
X275931Y109900D01*
Y116432D01*
X276200Y116700D01*
Y119167D01*
X345094Y340394D02*
X352059D01*
X337100Y332400D02*
X345094Y340394D01*
X352059Y277402D02*
X357102D01*
X358100Y278400D01*
Y282400D01*
X357193Y283307D02*
X358100Y282400D01*
X399500Y285500D02*
Y308900D01*
X457900Y195400D02*
X458400Y195900D01*
X451200Y195400D02*
X457900D01*
X413600Y279500D02*
X418500D01*
X411800Y281300D02*
X413600Y279500D01*
X411800Y281300D02*
Y284500D01*
X415200Y382500D02*
X419500D01*
X412800Y380100D02*
X415200Y382500D01*
X412800Y339200D02*
Y380100D01*
X407200Y285400D02*
X408800Y287000D01*
X407200Y246600D02*
Y285400D01*
Y246600D02*
X418400Y235400D01*
X438275D02*
X451200D01*
X445200Y265800D02*
X451200D01*
X445000Y265600D02*
X445200Y265800D01*
X377170Y319500D02*
X382500D01*
X406600Y513700D02*
X415200D01*
X417600Y511300D01*
Y489300D02*
Y511300D01*
Y489300D02*
X418900Y488000D01*
Y462803D02*
Y488000D01*
X412297Y456200D02*
X418900Y462803D01*
X406600Y456200D02*
X412297D01*
X387900Y385000D02*
X391300Y381600D01*
X400400Y383200D02*
Y399400D01*
X400200Y399600D02*
X400400Y399400D01*
X401300Y435200D02*
Y455200D01*
X402300Y456200D01*
X406600D01*
X313447Y179753D02*
X316200D01*
X311200Y182000D02*
X313447Y179753D01*
X305974Y182000D02*
X311200D01*
X303374Y179400D02*
X305974Y182000D01*
X301600Y179400D02*
X303374D01*
X288750Y390800D02*
X289000Y391050D01*
X301600Y392300D02*
Y392900D01*
X304000Y395300D01*
X232177Y281339D02*
X239200D01*
X250241Y292380D01*
Y304257D01*
X245600Y308898D02*
X250241Y304257D01*
X306500Y395300D02*
Y404500D01*
X304300Y393100D02*
X306500Y395300D01*
X304300Y382361D02*
Y393100D01*
X297039Y375100D02*
X304300Y382361D01*
X297039Y369823D02*
Y375100D01*
X419500Y400000D02*
X428000D01*
X431450Y403450D01*
Y430750D01*
X435100Y434400D01*
Y440900D01*
X434800Y441200D02*
X435100Y440900D01*
X434800Y441200D02*
Y517200D01*
X435300Y517700D01*
Y528800D01*
X431847Y532253D02*
X435300Y528800D01*
X431847Y532253D02*
Y545400D01*
X434997Y540803D02*
Y545400D01*
Y540803D02*
X442000Y533800D01*
Y483376D02*
Y533800D01*
X438500Y479876D02*
X442000Y483376D01*
X438500Y432100D02*
Y479876D01*
X434900Y428500D02*
X438500Y432100D01*
X434900Y337600D02*
Y428500D01*
X431800Y334500D02*
X434900Y337600D01*
X418500Y334500D02*
X431800D01*
X177198Y489200D02*
X181200Y493202D01*
X192983D01*
X347166Y310866D02*
X352059D01*
X389400Y322000D02*
X392600Y318800D01*
X382500Y294500D02*
X387100D01*
X411800D02*
X418500D01*
X451200Y192900D02*
X463122D01*
X463500Y193278D01*
Y243700D01*
X456800Y250400D02*
X463500Y243700D01*
X376300Y287000D02*
X382500D01*
X376000Y281900D02*
Y286700D01*
Y281900D02*
X378400Y279500D01*
X382500D01*
X232177Y285276D02*
X240676D01*
X247200Y291800D01*
Y300192D01*
X244400Y302992D02*
X247200Y300192D01*
X232177Y302992D02*
X244400D01*
X412800Y302000D02*
X418500D01*
X408900Y298100D02*
X412800Y302000D01*
X408900Y292300D02*
Y298100D01*
X442800Y398200D02*
X447800Y393200D01*
X463200D01*
X466500Y396500D01*
Y458400D01*
X468600Y460500D01*
X485100D01*
X490400Y455200D01*
X418500Y332000D02*
X431800D01*
X436600Y336800D01*
Y427550D01*
X440608Y431558D01*
Y477609D01*
X447300Y484301D01*
Y532100D01*
X438146Y541254D02*
Y545400D01*
X232177Y289213D02*
X238800D01*
X301600Y172000D02*
Y173494D01*
Y172000D02*
X307922Y165678D01*
X324158D01*
X332100Y173620D01*
Y229600D01*
X332300Y229800D01*
Y236927D01*
X332473Y237100D01*
Y249941D01*
X274231Y114531D02*
Y119167D01*
X264389Y110811D02*
Y119167D01*
Y110811D02*
X266600Y108600D01*
Y88848D02*
Y108600D01*
X263557Y85805D02*
X266600Y88848D01*
X263557Y75743D02*
Y85805D01*
Y75743D02*
X269800Y69500D01*
X273000D01*
X268000Y79500D02*
X277631Y89131D01*
Y113494D01*
X280137Y116000D01*
Y119167D01*
X284074Y153800D02*
X286487Y151387D01*
X289187Y147710D02*
X290964D01*
X284127Y147087D02*
X289187D01*
X283787Y146747D02*
X284127Y147087D01*
X265494Y146747D02*
X283787D01*
X264241Y148000D02*
X265494Y146747D01*
X264241Y148000D02*
Y153117D01*
X264389Y153265D01*
Y154600D01*
X245600Y180153D02*
Y183000D01*
X242400Y186200D02*
X245600Y183000D01*
X215200Y186200D02*
X242400D01*
X211400Y182400D02*
X215200Y186200D01*
X290964Y145742D02*
X298600D01*
X300200Y147342D01*
X304795Y142100D02*
X332700D01*
X304500Y141805D02*
X304795Y142100D01*
X290964Y141805D02*
X304500D01*
X322200Y150800D02*
X332700Y161300D01*
X309927Y150800D02*
X322200D01*
X302900Y143773D02*
X309927Y150800D01*
X290964Y143773D02*
X302900D01*
X336410Y173343D02*
Y249941D01*
Y173343D02*
X336600Y173153D01*
Y168800D02*
Y173153D01*
X335388Y167588D02*
X336600Y168800D01*
X331384Y167588D02*
X335388D01*
X326662Y162866D02*
X331384Y167588D01*
X310300Y162866D02*
X326662D01*
X306839Y159405D02*
X310300Y162866D01*
X283911Y159405D02*
X306839D01*
X282105Y157600D02*
X283911Y159405D01*
X282105Y154600D02*
Y157600D01*
X278168Y154600D02*
Y160721D01*
X290894Y173447D02*
X293200D01*
X276200Y162153D02*
X283800Y169753D01*
X276200Y154600D02*
Y162153D01*
X280137Y154600D02*
Y158037D01*
X283205Y161105D01*
X296800D01*
X300800Y165105D01*
Y173494D02*
X301600D01*
X251764Y239436D02*
Y249941D01*
Y239436D02*
X273000Y218200D01*
Y176900D02*
Y218200D01*
Y176900D02*
X277747D01*
X281200Y173447D01*
X328535Y249941D02*
Y255200D01*
X329335Y256000D01*
X343400D01*
X344200Y255200D01*
Y171216D02*
Y255200D01*
X337841Y164857D02*
X344200Y171216D01*
X331057Y164857D02*
X337841D01*
X326200Y160000D02*
X331057Y164857D01*
X267500Y160000D02*
X268326Y159174D01*
Y154600D02*
Y159174D01*
X272263Y154600D02*
Y170984D01*
X269600Y173647D02*
X272263Y170984D01*
X274231Y163200D02*
X276000Y164969D01*
X274231Y154600D02*
Y163200D01*
X59798Y461800D02*
Y467017D01*
X48000Y461800D02*
X59798D01*
X47002Y462798D02*
X48000Y461800D01*
X47002Y462798D02*
Y467017D01*
X431847Y573500D02*
Y594408D01*
Y573500D02*
X457047Y548300D01*
X468000D01*
X469900Y546400D01*
Y545400D02*
Y546400D01*
Y545400D02*
X474400Y540900D01*
X487755D01*
X489900Y543045D01*
Y550900D01*
X486200Y554600D02*
X489900Y550900D01*
X383500Y390000D02*
X389500D01*
X389800Y390300D01*
X328535Y364765D02*
Y369823D01*
X415200Y425000D02*
X419500D01*
X414300Y425900D02*
X415200Y425000D01*
X398400Y430600D02*
Y441830D01*
X392800Y425000D02*
X398400Y430600D01*
X445200Y275700D02*
X445300Y275800D01*
X437100Y277600D02*
X439000Y275700D01*
X437100Y277600D02*
Y289304D01*
X443667Y295872D01*
Y300000D01*
X446967Y303300D02*
X451200D01*
X434000Y309100D02*
Y325600D01*
X430100Y329500D02*
X434000Y325600D01*
X375000Y299300D02*
X375200Y299500D01*
X345000Y324500D02*
X345146Y324646D01*
X352059D01*
X372700Y302000D02*
X382500D01*
X372300Y301600D02*
X372700Y302000D01*
X372300Y287783D02*
X373383Y286700D01*
X376000D01*
X376300Y287000D01*
X168300Y479200D02*
X171800D01*
X166600Y480900D02*
X168300Y479200D01*
X166600Y480900D02*
Y492161D01*
X170200Y495761D01*
X192983D01*
X189618Y434882D02*
X194000D01*
X187900Y436600D02*
X189618Y434882D01*
X178000Y461800D02*
Y463200D01*
X177000Y464200D02*
X178000Y463200D01*
X171800Y464200D02*
X177000D01*
X197356Y516400D02*
X203044D01*
X215817Y503439D02*
X221239D01*
X221600Y503800D01*
X183900Y472800D02*
Y489700D01*
X180300Y469200D02*
X183900Y472800D01*
X171800Y469200D02*
X180300D01*
X194000Y440000D02*
X194200D01*
Y440800D02*
Y447400D01*
X215817Y471398D02*
X220002D01*
X221000Y470400D01*
Y457600D02*
Y470400D01*
X219443Y456043D02*
X221000Y457600D01*
X215817Y456043D02*
X219443D01*
X194200Y303756D02*
X198500D01*
X222582Y295800D02*
X223264Y295118D01*
X232177D01*
X299000Y399500D02*
Y404500D01*
X296400Y396900D02*
X299000Y399500D01*
X296400Y384098D02*
Y396900D01*
X293102Y380800D02*
X296400Y384098D01*
X293102Y369823D02*
Y380800D01*
X285228Y369823D02*
Y380928D01*
X382500Y314500D02*
X389600D01*
X390900Y313200D01*
Y306100D02*
Y313200D01*
X386800Y302000D02*
X390900Y306100D01*
X382500Y302000D02*
X386800D01*
X257669Y324831D02*
X258500Y324000D01*
X289000Y391050D02*
Y404500D01*
X275200Y390800D02*
X276500Y392100D01*
Y404500D01*
X304000Y434300D02*
Y440500D01*
X273417Y369823D02*
Y383317D01*
X277609Y387509D01*
Y388109D01*
X279000Y389500D01*
Y404500D01*
X425548Y545400D02*
Y556000D01*
X430148Y560600D01*
X441813D01*
X457813Y544600D01*
X466200D01*
X296000Y421400D02*
X296500Y420900D01*
X296000Y421400D02*
Y423100D01*
X296500Y423600D01*
X383500Y432500D02*
X390800D01*
X392300Y431000D01*
X394500D01*
X396300Y432800D01*
Y436500D01*
X392800Y440000D02*
X396300Y436500D01*
X383500Y440000D02*
X392800D01*
X210600Y490643D02*
Y504800D01*
X211798Y505998D02*
X215817D01*
X193601Y298244D02*
X198500D01*
X192856Y297500D02*
X193601Y298244D01*
X188500Y297500D02*
X192856D01*
X284000Y395200D02*
Y404500D01*
X282560Y386260D02*
Y393760D01*
X276991Y378200D02*
Y380691D01*
Y378200D02*
X277354Y377837D01*
Y369823D02*
Y377837D01*
X275386Y369823D02*
Y376314D01*
X275200Y376500D02*
X275386Y376314D01*
X275200Y376500D02*
Y382696D01*
X279309Y386805D01*
Y387396D01*
X280700Y388787D01*
Y394400D01*
X281500Y395200D01*
Y404500D01*
X354100Y470500D02*
X360900Y463700D01*
X354100Y470500D02*
Y478000D01*
X355200Y479100D01*
X358600D01*
X359500Y478200D01*
X366500D02*
X367000Y478700D01*
X366400Y456200D02*
X370600D01*
X363870Y453670D02*
X366400Y456200D01*
X360778Y453670D02*
X363870D01*
X359248Y455200D02*
X360778Y453670D01*
X359248Y455200D02*
Y460348D01*
X362600Y463700D01*
X383500Y405000D02*
X388500D01*
X388700Y404800D01*
X392300D01*
X393100Y405600D01*
Y409500D01*
X390200Y412400D02*
X393100Y409500D01*
X390200Y412400D02*
Y415300D01*
X388000Y417500D02*
X390200Y415300D01*
X383500Y417500D02*
X388000D01*
X383500Y440000D02*
Y452700D01*
X380000Y456200D02*
X383500Y452700D01*
X370600Y456200D02*
X380000D01*
X411100Y322000D02*
X418500D01*
X370600Y513700D02*
X380200D01*
X381100Y512800D01*
Y511200D02*
Y512800D01*
Y511200D02*
X386100Y506200D01*
X406600D01*
X192983Y471398D02*
X215817D01*
X225100Y307500D02*
X225671Y306929D01*
X414300Y439200D02*
X415100Y440000D01*
X419500D01*
X194800Y490643D02*
X197556Y487887D01*
X367000Y478700D02*
X370600D01*
X361802Y478200D02*
X366500D01*
X360000Y480002D02*
X361802Y478200D01*
X360000Y480002D02*
Y487200D01*
X364000Y491200D01*
X446000Y283300D02*
X451200D01*
X442700Y286600D02*
X446000Y283300D01*
X442700Y286600D02*
Y292500D01*
X446000Y295800D01*
X451200D01*
X444000Y242900D02*
X451200D01*
X442300Y244600D02*
X444000Y242900D01*
X442300Y244600D02*
Y267400D01*
X443200Y268300D01*
X451200D01*
X451000Y450000D02*
Y455600D01*
X449100Y448100D02*
X451000Y450000D01*
X449100Y401900D02*
Y448100D01*
Y401900D02*
X452800Y398200D01*
X482400Y275800D02*
X487200D01*
X477200Y270600D02*
X482400Y275800D01*
X477200Y260000D02*
Y270600D01*
Y260000D02*
X479000Y258200D01*
X482400D01*
X483300Y259100D01*
Y260800D02*
X487200D01*
X469700Y376500D02*
Y409153D01*
X466400Y373200D02*
X469700Y376500D01*
X451900Y373200D02*
X466400D01*
X401657Y478700D02*
X406600D01*
X401400Y478957D02*
X401657Y478700D01*
X401400Y478957D02*
Y490400D01*
X402200Y491200D01*
X406600D01*
X457800Y416400D02*
Y423200D01*
X352059Y312835D02*
X357265D01*
X358100Y312000D01*
Y308898D02*
Y312000D01*
X487200Y260000D02*
Y260800D01*
X451200Y242900D02*
X456400D01*
Y228800D02*
Y242900D01*
X451200Y227900D02*
X455500D01*
X478700Y279500D02*
X482400Y275800D01*
X478700Y279500D02*
Y300000D01*
X482000Y303300D01*
X487200D01*
Y295800D02*
X491400D01*
X492400Y296800D01*
Y310800D01*
X487200D02*
X492400D01*
X482500Y227900D02*
X487200D01*
X482000Y228400D02*
X482500Y227900D01*
X482000Y228400D02*
Y242900D01*
X487200D01*
X207436Y568000D02*
Y576920D01*
X207356Y577000D02*
X207436Y576920D01*
X406600Y463700D02*
X410700D01*
X411800Y464800D01*
Y477600D01*
X410700Y478700D02*
X411800Y477600D01*
X406600Y478700D02*
X410700D01*
X406600Y506200D02*
X411200D01*
X412000Y505400D01*
Y492000D02*
Y505400D01*
X411200Y491200D02*
X412000Y492000D01*
X406600Y491200D02*
X411200D01*
X366200D02*
X370600D01*
X365400Y492000D02*
X366200Y491200D01*
X365400Y492000D02*
Y505200D01*
X366400Y506200D01*
X451200Y268300D02*
X456400D01*
Y282400D01*
X455500Y283300D02*
X456400Y282400D01*
X451200Y283300D02*
X455500D01*
X418500Y329500D02*
X423700D01*
Y314500D02*
Y329500D01*
X418500Y314500D02*
X423700D01*
X285400Y360035D02*
X289165Y363800D01*
X192983Y493202D02*
X197002D01*
X198200Y494400D01*
X194400Y512700D02*
X198200Y508900D01*
X194400Y512700D02*
Y515600D01*
X193600Y516400D02*
X194400Y515600D01*
X191844Y516400D02*
X193600D01*
X291134Y359700D02*
X295434Y355400D01*
X259638Y249941D02*
Y262576D01*
X264400Y267338D01*
X22400Y420895D02*
Y431000D01*
Y420895D02*
X23595Y419700D01*
Y408323D02*
Y419700D01*
X90757Y466817D02*
Y567147D01*
X269000Y404500D02*
Y408800D01*
X271100Y410900D02*
X294400D01*
X296500Y408800D01*
Y404500D02*
Y408800D01*
X370600Y471200D02*
X375000D01*
X375800Y472000D01*
Y497600D01*
X374700Y498700D02*
X375800Y497600D01*
X487200Y227900D02*
X492400D01*
Y215400D02*
Y227900D01*
X487200Y215400D02*
X492400D01*
X526086Y52088D02*
X535000D01*
X525487Y52687D02*
X526086Y52088D01*
X229600Y98500D02*
X249000D01*
X228753Y99347D02*
X229600Y98500D01*
X228753Y99347D02*
Y101400D01*
X254400Y103100D02*
X259000Y98500D01*
X242753Y103100D02*
X254400D01*
X228753Y117100D02*
X242753Y103100D01*
X228753Y117100D02*
Y119600D01*
X197600Y376088D02*
Y378844D01*
X209200Y440000D02*
X216835D01*
X205200Y444000D02*
Y447400D01*
X164847Y196353D02*
Y202600D01*
Y196353D02*
X168800Y192400D01*
X181400D01*
X523200Y40400D02*
X527200D01*
X528300Y39300D01*
Y21000D02*
X533600Y15700D01*
X535000Y57600D02*
X551400D01*
X564000Y45000D01*
X136315Y588715D02*
X143953Y581077D01*
Y571000D02*
Y581077D01*
X64800Y54100D02*
Y91400D01*
X89200Y115800D01*
X537000Y15700D02*
Y15746D01*
X213000Y481200D02*
X214600D01*
X215800Y482400D01*
Y490643D02*
X215817D01*
X111115Y158162D02*
Y162400D01*
X108753Y155800D02*
X111115Y158162D01*
X108753Y151600D02*
Y155800D01*
X109506Y180806D02*
Y182800D01*
X107700Y179000D02*
X109506Y180806D01*
X107700Y158600D02*
Y179000D01*
X102847Y153747D02*
X107700Y158600D01*
X102847Y151600D02*
Y153747D01*
X231700Y180753D02*
X232300Y180153D01*
X226600Y180753D02*
X231700D01*
X250472Y179953D02*
X252800D01*
X250272Y180153D02*
X250472Y179953D01*
X245600Y180153D02*
X250272D01*
X316206Y77706D02*
X318800D01*
X313400Y74900D02*
X316206Y77706D01*
X278400Y74900D02*
X313400D01*
X273000Y69500D02*
X278400Y74900D01*
X371400Y71600D02*
Y79294D01*
X370100Y70300D02*
X371800Y68600D01*
X99047Y263200D02*
X101100D01*
Y287847D01*
X100247Y288700D02*
X101100Y287847D01*
X100247Y288700D02*
Y291400D01*
X278000Y79500D02*
X282500D01*
X283800Y80800D01*
Y83700D01*
X319606D01*
X325600Y77706D01*
X326000D01*
X59798Y440000D02*
Y444183D01*
Y440000D02*
X60798Y439000D01*
X72000D01*
X72843Y439843D01*
Y443983D01*
X100685Y170200D02*
Y174400D01*
X88800Y170200D02*
X100685D01*
X84100Y174900D02*
Y224000D01*
X86185Y226085D01*
X100085D02*
Y229600D01*
X257669Y364800D02*
X258669Y363800D01*
X278400D01*
X279323Y364723D01*
X212800Y437441D02*
X216835D01*
X211600Y436241D02*
X212800Y437441D01*
X212713Y422087D02*
X216835D01*
X75402Y440000D02*
Y443983D01*
Y440000D02*
X76602Y438800D01*
X87200D01*
X88198Y439798D01*
Y443983D01*
X202318Y540682D02*
X203200Y539800D01*
X214113D01*
X215113Y540800D01*
Y544575D01*
X279323Y364800D02*
Y369823D01*
Y364800D02*
X280323Y363800D01*
X288165D01*
X289165Y364800D01*
Y369823D01*
X366400Y506200D02*
X370600D01*
X365400Y507200D02*
X366400Y506200D01*
X365400Y507200D02*
Y512800D01*
X366300Y513700D01*
X370600D01*
X209995Y564000D02*
Y568000D01*
Y564000D02*
X210795Y563200D01*
X214313D01*
X215113Y564000D01*
Y568000D01*
X93500Y272600D02*
X97685D01*
X92700Y273400D02*
X93500Y272600D01*
X88600Y273400D02*
X92700D01*
X147956Y48688D02*
X153200D01*
X171400Y49244D02*
X177000D01*
X171200Y49044D02*
X171400Y49244D01*
X165600Y49044D02*
X171200D01*
X183600Y48044D02*
X189000D01*
X182400Y49244D02*
X183600Y48044D01*
X177000Y49244D02*
X182400D01*
X223247Y105700D02*
Y109600D01*
X222847Y105300D02*
X223247Y105700D01*
X222847Y101400D02*
Y105300D01*
Y114800D02*
Y119600D01*
Y114800D02*
X223247Y114400D01*
Y109600D02*
Y114400D01*
X222847Y123600D02*
X223047Y123800D01*
X222847Y119600D02*
Y123600D01*
X280200Y179353D02*
X284200D01*
X280000Y179553D02*
X280200Y179353D01*
X276000Y179553D02*
X280000D01*
X284200Y179353D02*
X293200D01*
X295947D01*
X298800Y176500D02*
X303747D01*
X306400Y179153D01*
X308600D01*
X314700Y71800D02*
X318800D01*
X314500Y71600D02*
X314700Y71800D01*
X310400Y71600D02*
X314500D01*
X318800Y71800D02*
X326000D01*
X192983Y471398D02*
Y473957D01*
X197200Y539544D02*
Y544575D01*
Y539544D02*
X197444Y539300D01*
Y534400D02*
Y539300D01*
X197200Y544575D02*
X199759D01*
X59798Y467017D02*
X62357D01*
X44443Y454300D02*
X47002Y456859D01*
X44443Y444183D02*
Y454300D01*
X72843Y443983D02*
X75402D01*
X165047Y207700D02*
Y212600D01*
X164847Y207500D02*
X165047Y207700D01*
X164847Y202600D02*
Y207500D01*
X181400Y182400D02*
Y192400D01*
X96000Y162400D02*
X100485D01*
X93400Y165000D02*
X96000Y162400D01*
X89000Y165000D02*
X93400D01*
X95100Y174400D02*
X100685D01*
X94500Y175000D02*
X95100Y174400D01*
X89000Y175000D02*
X94500D01*
X94400Y229600D02*
X100085D01*
X94000Y230000D02*
X94400Y229600D01*
X88400Y230000D02*
X94000D01*
X93400Y282800D02*
X97685D01*
X92800Y283400D02*
X93400Y282800D01*
X88600Y283400D02*
X92800D01*
X194000Y437441D02*
Y440000D01*
X192983Y505998D02*
Y508557D01*
X95500Y105400D02*
X101485D01*
X95100Y105800D02*
X95500Y105400D01*
X89200Y105800D02*
X95100D01*
X183500Y262512D02*
Y274744D01*
X147956Y54200D02*
X153200D01*
X146800Y55356D02*
X147956Y54200D01*
X141600Y55356D02*
X146800D01*
X159556Y54556D02*
X165600D01*
X159200Y54200D02*
X159556Y54556D01*
X153200Y54200D02*
X159200D01*
X171400Y54756D02*
X177000D01*
X171200Y54556D02*
X171400Y54756D01*
X165600Y54556D02*
X171200D01*
X183600Y53556D02*
X189000D01*
X182400Y54756D02*
X183600Y53556D01*
X177000Y54756D02*
X182400D01*
X290964Y145742D02*
Y147710D01*
X252800Y179953D02*
X260200D01*
X211400Y182400D02*
Y192400D01*
Y202400D01*
Y212400D01*
X352059Y275433D02*
Y277402D01*
Y273465D02*
Y275433D01*
X202400Y481000D02*
X202600Y481200D01*
X197556Y481000D02*
X202400D01*
X202956Y525388D02*
X203044Y525300D01*
Y516400D02*
Y525300D01*
X207436Y568000D02*
X209995D01*
X106153Y288162D02*
Y291400D01*
Y288162D02*
X108315Y286000D01*
Y282800D02*
Y286000D01*
Y272600D02*
Y282800D01*
X108353Y196847D02*
Y207000D01*
Y196847D02*
X112400Y192800D01*
Y179085D02*
Y192800D01*
X111315Y178000D02*
X112400Y179085D01*
X111315Y174400D02*
Y178000D01*
Y168500D02*
Y174400D01*
X111115Y168300D02*
X111315Y168500D01*
X111115Y162400D02*
Y168300D01*
X108753Y140000D02*
Y151600D01*
X107353Y138600D02*
X108753Y140000D01*
X107353Y127000D02*
Y138600D01*
Y123862D02*
Y127000D01*
Y123862D02*
X112115Y119100D01*
Y116000D02*
Y119100D01*
Y105400D02*
Y116000D01*
X307312Y120803D02*
X311715Y116400D01*
Y114800D02*
Y116400D01*
X350700Y149056D02*
Y154844D01*
X206600Y378400D02*
Y383647D01*
X176600Y257000D02*
X183500D01*
X176400Y256800D02*
X176600Y257000D01*
X169500Y256800D02*
X176400D01*
X206000Y346300D02*
Y350247D01*
Y346300D02*
X206400Y345900D01*
Y341956D02*
Y345900D01*
X392600Y73700D02*
Y78094D01*
X391800Y72900D02*
X392600Y73700D01*
X391800Y68600D02*
Y72900D01*
X102294Y235306D02*
Y239600D01*
Y235306D02*
X103800Y233800D01*
Y225815D02*
Y233800D01*
X100085Y222100D02*
X103800Y225815D01*
X100085Y218400D02*
Y222100D01*
X95000Y218400D02*
X100085D01*
X93400Y220000D02*
X95000Y218400D01*
X88400Y220000D02*
X93400D01*
X176200Y212400D02*
X181400D01*
X176000Y212600D02*
X176200Y212400D01*
X170953Y212600D02*
X176000D01*
X176100Y202400D02*
X181400D01*
X175900Y202600D02*
X176100Y202400D01*
X170753Y202600D02*
X175900D01*
X143953Y567097D02*
Y571000D01*
X143756Y566900D02*
X143953Y567097D01*
X143756Y563000D02*
Y566900D01*
X156647Y567103D02*
Y571400D01*
X156644Y567100D02*
X156647Y567103D01*
X156644Y563000D02*
Y567100D01*
X342144Y160356D02*
X350700D01*
X341200Y161300D02*
X342144Y160356D01*
X332700Y161300D02*
X341200D01*
X342344Y143544D02*
X350700D01*
X340900Y142100D02*
X342344Y143544D01*
X332700Y142100D02*
X340900D01*
X138244Y559897D02*
Y563000D01*
X138047Y559700D02*
X138244Y559897D01*
X138047Y556600D02*
Y559700D01*
X162156Y558450D02*
Y563000D01*
Y558450D02*
X162306Y558300D01*
Y553800D02*
Y558300D01*
X300194Y77506D02*
X310400D01*
X298200Y79500D02*
X300194Y77506D01*
X288000Y79500D02*
X298200D01*
X156247Y549400D02*
X156400Y549553D01*
X156247Y545200D02*
Y549400D01*
X95400Y116000D02*
X101485D01*
X95200Y115800D02*
X95400Y116000D01*
X89200Y115800D02*
X95200D01*
X93900Y263200D02*
X99047D01*
X93700Y263400D02*
X93900Y263200D01*
X88600Y263400D02*
X93700D01*
X96500Y93800D02*
X101847D01*
X94500Y95800D02*
X96500Y93800D01*
X89200Y95800D02*
X94500D01*
X96900Y207000D02*
X102447D01*
X93900Y210000D02*
X96900Y207000D01*
X88400Y210000D02*
X93900D01*
D29*
X30000Y30000D02*
D03*
X640000D02*
D03*
Y620000D02*
D03*
X30000D02*
D03*
D30*
X371800Y68600D02*
D03*
X520400Y455200D02*
D03*
X451000Y455600D02*
D03*
X501000Y123000D02*
D03*
D31*
X381800Y68600D02*
D03*
X391800D02*
D03*
X490400Y455200D02*
D03*
X500400D02*
D03*
X510400D02*
D03*
X461000Y455600D02*
D03*
X471000D02*
D03*
X501000Y113000D02*
D03*
X491000Y123000D02*
D03*
Y113000D02*
D03*
X481000Y123000D02*
D03*
Y113000D02*
D03*
X471000Y123000D02*
D03*
Y113000D02*
D03*
X461000Y123000D02*
D03*
Y113000D02*
D03*
X451000Y123000D02*
D03*
Y113000D02*
D03*
X441000Y123000D02*
D03*
Y113000D02*
D03*
X431000Y123000D02*
D03*
Y113000D02*
D03*
X421000Y123000D02*
D03*
Y113000D02*
D03*
X411000Y123000D02*
D03*
Y113000D02*
D03*
D32*
X136315Y588715D02*
D03*
X156000D02*
D03*
Y608400D02*
D03*
X175685Y618242D02*
D03*
X136315D02*
D03*
X175685Y608400D02*
D03*
X136315D02*
D03*
X175685Y588715D02*
D03*
X165842D02*
D03*
X146157D02*
D03*
X191515Y588600D02*
D03*
X211200D02*
D03*
Y608285D02*
D03*
X230885Y618127D02*
D03*
X191515D02*
D03*
X230885Y608285D02*
D03*
X191515D02*
D03*
X230885Y588600D02*
D03*
X221043D02*
D03*
X201358D02*
D03*
D33*
X523200Y40400D02*
D03*
X211400Y182400D02*
D03*
D34*
X523200Y50400D02*
D03*
Y60400D02*
D03*
Y70400D02*
D03*
X493200D02*
D03*
Y60400D02*
D03*
Y50400D02*
D03*
Y40400D02*
D03*
X211400Y192400D02*
D03*
Y202400D02*
D03*
Y212400D02*
D03*
X181400D02*
D03*
Y202400D02*
D03*
Y192400D02*
D03*
Y182400D02*
D03*
X472800Y358200D02*
D03*
X462800Y368200D02*
D03*
Y358200D02*
D03*
X452800Y368200D02*
D03*
Y358200D02*
D03*
X442800Y368200D02*
D03*
X452800Y378200D02*
D03*
X442800D02*
D03*
X452800Y388200D02*
D03*
X442800D02*
D03*
X452800Y398200D02*
D03*
X442800D02*
D03*
X452800Y408200D02*
D03*
X442800D02*
D03*
X452800Y418200D02*
D03*
X442800D02*
D03*
X452800Y428200D02*
D03*
X462800Y418200D02*
D03*
Y428200D02*
D03*
X472800Y418200D02*
D03*
Y428200D02*
D03*
X482800Y418200D02*
D03*
Y428200D02*
D03*
X492800Y418200D02*
D03*
Y428200D02*
D03*
X502800Y418200D02*
D03*
Y428200D02*
D03*
X512800Y418200D02*
D03*
X502800Y408200D02*
D03*
X512800D02*
D03*
X502800Y398200D02*
D03*
X512800D02*
D03*
X502800Y388200D02*
D03*
X512800D02*
D03*
X502800Y378200D02*
D03*
X512800D02*
D03*
X502800Y368200D02*
D03*
X512800D02*
D03*
X502800Y358200D02*
D03*
X492800Y368200D02*
D03*
Y358200D02*
D03*
X482800Y368200D02*
D03*
Y358200D02*
D03*
X472800Y368200D02*
D03*
X456200Y554600D02*
D03*
Y564600D02*
D03*
Y574600D02*
D03*
X466200Y564600D02*
D03*
Y574600D02*
D03*
X456200Y584600D02*
D03*
X466200D02*
D03*
X476200D02*
D03*
X486200D02*
D03*
X496200D02*
D03*
X466200Y594600D02*
D03*
X476200D02*
D03*
X486200D02*
D03*
X496200D02*
D03*
X466200Y554600D02*
D03*
X476200D02*
D03*
X486200D02*
D03*
X496200D02*
D03*
X466200Y544600D02*
D03*
X476200D02*
D03*
X486200D02*
D03*
X496200D02*
D03*
X506200D02*
D03*
Y594600D02*
D03*
X516200Y584600D02*
D03*
X506200D02*
D03*
Y554600D02*
D03*
X516200D02*
D03*
Y564600D02*
D03*
X506200Y574600D02*
D03*
X516200D02*
D03*
X506200Y564600D02*
D03*
D35*
X564000Y45000D02*
D03*
Y25000D02*
D03*
X594000D02*
D03*
Y45000D02*
D03*
X249000Y98500D02*
D03*
X259000D02*
D03*
X282000D02*
D03*
X292000D02*
D03*
X253000Y69500D02*
D03*
X258000Y79500D02*
D03*
X263000Y69500D02*
D03*
X268000Y79500D02*
D03*
X273000Y69500D02*
D03*
X278000Y79500D02*
D03*
X283000Y69500D02*
D03*
X73500Y557700D02*
D03*
Y537700D02*
D03*
X103500D02*
D03*
Y557700D02*
D03*
X46700Y576100D02*
D03*
Y566100D02*
D03*
Y556100D02*
D03*
Y546100D02*
D03*
Y536100D02*
D03*
Y526100D02*
D03*
Y516100D02*
D03*
D36*
X594000Y75000D02*
D03*
X564000Y15000D02*
D03*
X103500Y587700D02*
D03*
X73500Y527700D02*
D03*
D37*
X188500Y293200D02*
D03*
Y297500D02*
D03*
D38*
X64800Y30600D02*
D03*
D39*
X82800Y43600D02*
D03*
D40*
X64800Y54100D02*
D03*
D41*
X18600Y273400D02*
D03*
X19200Y105800D02*
D03*
X19000Y165000D02*
D03*
X18400Y220000D02*
D03*
D42*
X88600Y283400D02*
D03*
Y273400D02*
D03*
Y263400D02*
D03*
X89200Y115800D02*
D03*
Y105800D02*
D03*
Y95800D02*
D03*
X89000Y175000D02*
D03*
Y165000D02*
D03*
Y155000D02*
D03*
X88400Y230000D02*
D03*
Y220000D02*
D03*
Y210000D02*
D03*
X557800Y178200D02*
D03*
D43*
X293000Y44500D02*
D03*
X248000D02*
D03*
D44*
X288000Y79500D02*
D03*
D45*
X239800Y56500D02*
D03*
X301200D02*
D03*
D46*
X169500Y256800D02*
D03*
Y276000D02*
D03*
X332700Y142100D02*
D03*
Y161300D02*
D03*
D47*
X557800Y505700D02*
D03*
D48*
Y140700D02*
D03*
D49*
Y188200D02*
D03*
Y198200D02*
D03*
Y208200D02*
D03*
Y218200D02*
D03*
Y228200D02*
D03*
Y238200D02*
D03*
Y248200D02*
D03*
Y258200D02*
D03*
Y268200D02*
D03*
Y278200D02*
D03*
Y288200D02*
D03*
Y298200D02*
D03*
Y308200D02*
D03*
Y318200D02*
D03*
Y328200D02*
D03*
Y338200D02*
D03*
Y348200D02*
D03*
Y358200D02*
D03*
Y368200D02*
D03*
Y378200D02*
D03*
Y388200D02*
D03*
Y398200D02*
D03*
Y408200D02*
D03*
Y418200D02*
D03*
Y428200D02*
D03*
Y438200D02*
D03*
Y448200D02*
D03*
Y458200D02*
D03*
Y468200D02*
D03*
D50*
X23595Y408323D02*
D03*
X159816D02*
D03*
D51*
X44461Y416000D02*
D03*
X50367D02*
D03*
X56272D02*
D03*
X62178D02*
D03*
X68083D02*
D03*
X73989D02*
D03*
X79894D02*
D03*
X85800D02*
D03*
X91706D02*
D03*
X97611D02*
D03*
X103517D02*
D03*
X109422D02*
D03*
X115328D02*
D03*
X121233D02*
D03*
X127139D02*
D03*
X133044D02*
D03*
X138950D02*
D03*
D52*
X46700Y586100D02*
D03*
D53*
X494100Y232800D02*
D03*
X263700Y432100D02*
D03*
X249800Y376900D02*
D03*
X375000Y295600D02*
D03*
X499200Y413200D02*
D03*
X525000Y391000D02*
D03*
Y190600D02*
D03*
X405829Y182000D02*
D03*
X360800Y282500D02*
D03*
X345000Y293100D02*
D03*
X514500Y462400D02*
D03*
X489200Y384200D02*
D03*
X414500Y467700D02*
D03*
X399100Y477500D02*
D03*
X553500Y463500D02*
D03*
X538403Y483697D02*
D03*
X400800Y473700D02*
D03*
X393100Y479800D02*
D03*
X534600Y495300D02*
D03*
X390400Y484800D02*
D03*
X525900Y499200D02*
D03*
X400350Y459150D02*
D03*
X411300Y448200D02*
D03*
X422000Y493000D02*
D03*
X500703Y488200D02*
D03*
X493100Y321300D02*
D03*
X490400Y324000D02*
D03*
X498700Y297100D02*
D03*
X476600Y214700D02*
D03*
X499500Y191100D02*
D03*
X501100Y282700D02*
D03*
X480800Y204500D02*
D03*
X480600Y260900D02*
D03*
X479300Y195400D02*
D03*
X220000Y320300D02*
D03*
X359000Y353500D02*
D03*
X342300Y286100D02*
D03*
X337160Y346760D02*
D03*
X298100Y169900D02*
D03*
X509800Y114200D02*
D03*
X480000Y317200D02*
D03*
X444900Y313300D02*
D03*
X337100Y332400D02*
D03*
X342800Y271500D02*
D03*
X285228Y276100D02*
D03*
X319900Y239800D02*
D03*
X247827Y278418D02*
D03*
X244200Y264800D02*
D03*
X216708Y311000D02*
D03*
X223800Y280800D02*
D03*
X252238Y379400D02*
D03*
X238800Y348400D02*
D03*
X205900Y442100D02*
D03*
X208800Y456043D02*
D03*
X215800Y523300D02*
D03*
X199698Y461800D02*
D03*
X191700Y534400D02*
D03*
X208556D02*
D03*
X138047Y567147D02*
D03*
X460600Y198900D02*
D03*
X105000Y165500D02*
D03*
X222453Y180153D02*
D03*
X457400Y207900D02*
D03*
X438275Y235400D02*
D03*
X420300Y379200D02*
D03*
X429400Y388344D02*
D03*
X397656Y384300D02*
D03*
X390200Y444300D02*
D03*
X410900D02*
D03*
X486500Y402447D02*
D03*
X187227Y422273D02*
D03*
X78400Y323500D02*
D03*
X107753Y81200D02*
D03*
X458200Y614200D02*
D03*
X370300Y605200D02*
D03*
X390300Y584900D02*
D03*
X424700Y287500D02*
D03*
X541700Y285400D02*
D03*
X397600Y583900D02*
D03*
X434800Y300600D02*
D03*
X371800Y582200D02*
D03*
X429600Y303300D02*
D03*
X568900Y323200D02*
D03*
X561100Y591900D02*
D03*
X382700Y584660D02*
D03*
X353148Y578300D02*
D03*
X381900Y588600D02*
D03*
X535600Y391800D02*
D03*
X528200Y384400D02*
D03*
X527700Y294700D02*
D03*
X424700Y309600D02*
D03*
X407500Y519300D02*
D03*
X412500Y308200D02*
D03*
X550800Y377600D02*
D03*
Y490000D02*
D03*
X407600Y395700D02*
D03*
X444400Y402900D02*
D03*
X486200Y512600D02*
D03*
X369200Y368300D02*
D03*
X409100Y350600D02*
D03*
X411000Y327500D02*
D03*
X368900Y344500D02*
D03*
X352300Y381300D02*
D03*
X341900Y379100D02*
D03*
X307700Y498900D02*
D03*
X448300Y546100D02*
D03*
X434997Y554500D02*
D03*
X456800Y432300D02*
D03*
X410600Y421600D02*
D03*
X432600Y521600D02*
D03*
X360100Y314472D02*
D03*
X457600Y201600D02*
D03*
X390500Y229600D02*
D03*
Y272400D02*
D03*
X388700Y286100D02*
D03*
X360000Y318740D02*
D03*
X391400Y289500D02*
D03*
X443700Y204800D02*
D03*
X345000Y320600D02*
D03*
X375000Y289400D02*
D03*
X443800Y208500D02*
D03*
X359189Y322677D02*
D03*
X459100Y224000D02*
D03*
X339600Y279100D02*
D03*
X372900Y272694D02*
D03*
X424900Y222000D02*
D03*
X363950Y305500D02*
D03*
X345000Y333600D02*
D03*
X445000Y261800D02*
D03*
X361800Y336330D02*
D03*
X409900Y278800D02*
D03*
X402700Y286000D02*
D03*
X392100Y324300D02*
D03*
X360100Y345400D02*
D03*
X345100Y349600D02*
D03*
X387400Y339500D02*
D03*
X388800Y366400D02*
D03*
X395300Y387600D02*
D03*
X392900Y415500D02*
D03*
X358700Y398100D02*
D03*
X445400Y290900D02*
D03*
X349600Y366200D02*
D03*
X389900Y407500D02*
D03*
X341600Y362700D02*
D03*
X374600Y407800D02*
D03*
X459100Y306000D02*
D03*
X338400Y522300D02*
D03*
X397000Y539100D02*
D03*
X403700Y579400D02*
D03*
X320800Y557000D02*
D03*
X402800Y568700D02*
D03*
X412500Y584600D02*
D03*
X448300Y565600D02*
D03*
X407047Y551953D02*
D03*
X297727Y508000D02*
D03*
X461200Y564600D02*
D03*
X299600Y541500D02*
D03*
X419249Y558401D02*
D03*
X422400Y557500D02*
D03*
X289900Y491000D02*
D03*
X422398Y538300D02*
D03*
X285000Y491600D02*
D03*
X425548Y534600D02*
D03*
X424200Y566000D02*
D03*
X271200Y555500D02*
D03*
X261800Y576700D02*
D03*
X356100Y589300D02*
D03*
X256200Y565700D02*
D03*
X418800Y575700D02*
D03*
X349700Y450700D02*
D03*
X266500Y451900D02*
D03*
X263800Y446300D02*
D03*
X248600Y455000D02*
D03*
Y500400D02*
D03*
X379936Y560900D02*
D03*
X256700Y434700D02*
D03*
X377200Y563600D02*
D03*
X376900Y462500D02*
D03*
X319400Y425800D02*
D03*
X378500Y466200D02*
D03*
X319300Y444800D02*
D03*
X381200Y460250D02*
D03*
X299000Y422500D02*
D03*
X356800Y476100D02*
D03*
X319700Y466100D02*
D03*
X307700Y377100D02*
D03*
X288000Y378700D02*
D03*
X286300Y393700D02*
D03*
X316000Y412800D02*
D03*
X324100Y470400D02*
D03*
X364300Y481200D02*
D03*
X219800Y281300D02*
D03*
X247700Y328200D02*
D03*
X337100Y336300D02*
D03*
X481400Y283300D02*
D03*
X493000Y268300D02*
D03*
X481000Y312200D02*
D03*
X425300Y432800D02*
D03*
X391800Y490300D02*
D03*
X412950Y533650D02*
D03*
X408200Y571400D02*
D03*
X304000Y434300D02*
D03*
X310600Y398700D02*
D03*
X335500Y430500D02*
D03*
X215300Y399200D02*
D03*
X243700Y412000D02*
D03*
X196500Y418000D02*
D03*
X199700Y441800D02*
D03*
X178800D02*
D03*
X219800Y552900D02*
D03*
X220600Y569200D02*
D03*
X170353Y563200D02*
D03*
X192400Y578500D02*
D03*
X185100Y569300D02*
D03*
X325300Y87600D02*
D03*
X342900Y70000D02*
D03*
X319000Y191400D02*
D03*
X350700Y165900D02*
D03*
X527300Y56700D02*
D03*
X90757Y434600D02*
D03*
X43900Y459600D02*
D03*
X374700Y403400D02*
D03*
X413600Y392500D02*
D03*
X324598Y383983D02*
D03*
X371204Y427092D02*
D03*
X375100Y417200D02*
D03*
X323400Y362900D02*
D03*
X389700Y420507D02*
D03*
X317498Y362800D02*
D03*
X377309Y423200D02*
D03*
X350200Y407158D02*
D03*
X376800Y427500D02*
D03*
X225200Y339600D02*
D03*
X358600Y446900D02*
D03*
X251700Y446300D02*
D03*
X229200Y399700D02*
D03*
X217300Y336457D02*
D03*
X394700Y369100D02*
D03*
X405200Y439100D02*
D03*
X333600Y422200D02*
D03*
X320428Y502828D02*
D03*
X383800Y513700D02*
D03*
X336500Y362500D02*
D03*
X369900Y396300D02*
D03*
X375900Y396800D02*
D03*
X336300Y358000D02*
D03*
X388200Y588300D02*
D03*
X447800Y592600D02*
D03*
X437600Y515700D02*
D03*
X430700Y436500D02*
D03*
X401900Y144600D02*
D03*
X467900Y133200D02*
D03*
X67600Y445700D02*
D03*
Y458357D02*
D03*
X95400Y251100D02*
D03*
X222700Y391400D02*
D03*
X211800Y247700D02*
D03*
X43400Y473100D02*
D03*
X155800Y267600D02*
D03*
X239500Y275433D02*
D03*
X159100Y499800D02*
D03*
X178000D02*
D03*
X218000Y371000D02*
D03*
X185200Y377100D02*
D03*
X155800Y496800D02*
D03*
X221800D02*
D03*
X224900Y501700D02*
D03*
X163400Y508500D02*
D03*
X187900Y427800D02*
D03*
X201700Y384500D02*
D03*
X85639Y460600D02*
D03*
X104400Y436300D02*
D03*
X52000Y473100D02*
D03*
X59400Y450300D02*
D03*
X95600Y569058D02*
D03*
X99300Y561900D02*
D03*
X119500Y479200D02*
D03*
X115100Y474400D02*
D03*
X279323Y260000D02*
D03*
X189200Y244200D02*
D03*
X180000Y476800D02*
D03*
X221500Y492400D02*
D03*
X333900Y170600D02*
D03*
X276100Y167200D02*
D03*
X288653Y173447D02*
D03*
X245000Y240500D02*
D03*
X256555Y240000D02*
D03*
X353700Y200600D02*
D03*
X308500Y197600D02*
D03*
Y170000D02*
D03*
X357100Y179700D02*
D03*
X245600Y147800D02*
D03*
X266950Y149450D02*
D03*
X329400Y178200D02*
D03*
X208230Y170430D02*
D03*
X203600Y165800D02*
D03*
X198800Y178000D02*
D03*
X318000Y256900D02*
D03*
X324000Y177200D02*
D03*
X248400Y137100D02*
D03*
X195400Y155200D02*
D03*
X251500D02*
D03*
X257100Y158700D02*
D03*
X200900D02*
D03*
X278456Y129200D02*
D03*
X271200Y124300D02*
D03*
X286500Y150900D02*
D03*
X290500Y123200D02*
D03*
X269900Y114100D02*
D03*
X236000Y126100D02*
D03*
X286800Y117200D02*
D03*
X315100Y92200D02*
D03*
X297100Y123200D02*
D03*
X234400Y130200D02*
D03*
X273000Y128000D02*
D03*
X222600Y174847D02*
D03*
X244100Y437000D02*
D03*
X207400Y550300D02*
D03*
X238200Y454600D02*
D03*
Y449200D02*
D03*
X233600Y381700D02*
D03*
X281300Y324336D02*
D03*
X232200Y468100D02*
D03*
X205100Y466600D02*
D03*
X183600Y421400D02*
D03*
X283900Y293000D02*
D03*
X296700Y243300D02*
D03*
X214800Y550600D02*
D03*
X225200Y315800D02*
D03*
X127300Y464200D02*
D03*
X305200Y354100D02*
D03*
X481400Y266000D02*
D03*
X496300Y197900D02*
D03*
X492400Y255600D02*
D03*
X493400Y195200D02*
D03*
X111400Y535900D02*
D03*
X141000Y459200D02*
D03*
X268326Y132700D02*
D03*
X245700Y73700D02*
D03*
X164300Y307200D02*
D03*
X203000Y345900D02*
D03*
X250800Y257700D02*
D03*
X277354Y235000D02*
D03*
X100000Y315000D02*
D03*
X239200Y264700D02*
D03*
X225403Y277402D02*
D03*
X150200Y278600D02*
D03*
X223400Y360500D02*
D03*
X186100D02*
D03*
X159100Y512800D02*
D03*
X187200Y500700D02*
D03*
X81900Y478300D02*
D03*
X90200Y297300D02*
D03*
X336000Y85200D02*
D03*
X413300Y508100D02*
D03*
X519400Y505500D02*
D03*
X342900Y102600D02*
D03*
Y149056D02*
D03*
X351700Y185600D02*
D03*
X142200Y444200D02*
D03*
X284000Y257228D02*
D03*
X287000Y260397D02*
D03*
X322630Y270500D02*
D03*
X267100Y271256D02*
D03*
X425900Y293600D02*
D03*
X551300Y343200D02*
D03*
X535400Y587500D02*
D03*
X373369Y586603D02*
D03*
X496500Y281100D02*
D03*
X426400Y281500D02*
D03*
X571600Y279700D02*
D03*
X394100Y400100D02*
D03*
X459600Y351300D02*
D03*
X463500Y351900D02*
D03*
X421400Y513200D02*
D03*
X424400Y518467D02*
D03*
X429700Y510500D02*
D03*
X136100Y405400D02*
D03*
X497400Y214300D02*
D03*
X494600Y134600D02*
D03*
X499600Y274300D02*
D03*
X469200Y210400D02*
D03*
X415400Y135600D02*
D03*
X425900Y140100D02*
D03*
X445200Y137153D02*
D03*
X534000Y182900D02*
D03*
X411200Y411900D02*
D03*
X267300Y550000D02*
D03*
X422900Y570100D02*
D03*
X207516Y303944D02*
D03*
X254800Y287200D02*
D03*
X234300Y435400D02*
D03*
X208300Y461400D02*
D03*
X279691Y379300D02*
D03*
X349600Y384200D02*
D03*
X239700Y296700D02*
D03*
X392800Y434600D02*
D03*
X222100Y330488D02*
D03*
X389300Y429800D02*
D03*
X235700Y407900D02*
D03*
Y362900D02*
D03*
X239700Y352100D02*
D03*
X244200Y445900D02*
D03*
X243400Y462000D02*
D03*
X316000Y581100D02*
D03*
X398500Y600500D02*
D03*
X362000Y456400D02*
D03*
X323100Y435800D02*
D03*
X261100Y396200D02*
D03*
X413400Y405500D02*
D03*
X426400Y378000D02*
D03*
X513900Y593900D02*
D03*
X413900Y602600D02*
D03*
X492100Y574800D02*
D03*
X416100Y567300D02*
D03*
X416099Y551600D02*
D03*
X294500Y513100D02*
D03*
X197000Y557200D02*
D03*
X296400Y271700D02*
D03*
X327000Y340000D02*
D03*
X359100Y271500D02*
D03*
X404600Y424400D02*
D03*
X509400Y392900D02*
D03*
X518400Y173200D02*
D03*
X364400D02*
D03*
Y232200D02*
D03*
X349600Y256300D02*
D03*
X339000Y312500D02*
D03*
X373800Y330600D02*
D03*
X442500Y280100D02*
D03*
X417100Y271900D02*
D03*
X372300Y321300D02*
D03*
X424700Y243000D02*
D03*
X364500Y298900D02*
D03*
X407421Y231100D02*
D03*
X367200Y274048D02*
D03*
X363700Y294300D02*
D03*
Y288000D02*
D03*
X458500Y213500D02*
D03*
X399500Y308900D02*
D03*
X340700Y320500D02*
D03*
X404600Y372600D02*
D03*
X502700Y288600D02*
D03*
X194200Y303756D02*
D03*
X185600Y290300D02*
D03*
X212800Y292400D02*
D03*
X213000Y486000D02*
D03*
X203100Y476100D02*
D03*
X303500Y428700D02*
D03*
X254000Y427100D02*
D03*
X276500Y434300D02*
D03*
X281500Y385200D02*
D03*
X330900Y404552D02*
D03*
Y463300D02*
D03*
X363900Y485500D02*
D03*
X414400Y482100D02*
D03*
X300647Y517400D02*
D03*
X403501Y557600D02*
D03*
X407000Y587700D02*
D03*
X394500Y499800D02*
D03*
X411500Y527800D02*
D03*
X362700Y475500D02*
D03*
X323800Y466400D02*
D03*
X311000Y383500D02*
D03*
X287800D02*
D03*
X284100Y104000D02*
D03*
X326700Y174000D02*
D03*
X208350Y294750D02*
D03*
X198500Y293900D02*
D03*
X202400Y287200D02*
D03*
X210000Y285600D02*
D03*
X104700Y267500D02*
D03*
X199400Y314400D02*
D03*
X216500Y292400D02*
D03*
X272550Y386750D02*
D03*
X252800Y391600D02*
D03*
X371400Y317000D02*
D03*
X359630Y333100D02*
D03*
X376300Y309500D02*
D03*
X364100Y327200D02*
D03*
X390600Y327900D02*
D03*
X345100Y345500D02*
D03*
X392600Y318800D02*
D03*
X267500Y164200D02*
D03*
X250800D02*
D03*
X319978Y171278D02*
D03*
X256800Y167300D02*
D03*
X260200Y170400D02*
D03*
X264200Y179553D02*
D03*
X439800Y287400D02*
D03*
X392900Y332000D02*
D03*
X239200Y148500D02*
D03*
X273731Y107200D02*
D03*
X458400Y195900D02*
D03*
X411800Y284500D02*
D03*
Y294500D02*
D03*
X412800Y339200D02*
D03*
X408800Y287000D02*
D03*
X418400Y235400D02*
D03*
X445000Y265600D02*
D03*
X376670Y320000D02*
D03*
X301600Y392300D02*
D03*
X343800Y307500D02*
D03*
X238800Y289213D02*
D03*
X269500Y109800D02*
D03*
X300200Y147342D02*
D03*
X326200Y160000D02*
D03*
X267500D02*
D03*
X389800Y390300D02*
D03*
X330700Y362600D02*
D03*
X414300Y441830D02*
D03*
X398400D02*
D03*
X457100Y310800D02*
D03*
X434000Y309100D02*
D03*
X375000Y299300D02*
D03*
X345000Y324500D02*
D03*
X187900Y436600D02*
D03*
X178000Y461800D02*
D03*
X173300Y492500D02*
D03*
X221600Y503800D02*
D03*
X183900Y489700D02*
D03*
X222582Y295800D02*
D03*
X258500Y324000D02*
D03*
X288750Y390800D02*
D03*
X275200D02*
D03*
X289000Y434300D02*
D03*
X411100Y322000D02*
D03*
X225100Y307500D02*
D03*
X469700Y409153D02*
D03*
X457800Y416400D02*
D03*
X487000Y255300D02*
D03*
X207356Y577000D02*
D03*
X285400Y360035D02*
D03*
X295434Y355400D02*
D03*
X264400Y267338D02*
D03*
X90757Y567147D02*
D03*
M02*
