G04 Layer_Physical_Order=2*
G04 Layer_Color=16711680*
%FSLAX25Y25*%
%MOIN*%
G70*
G01*
G75*
%ADD11R,0.03543X0.02756*%
%ADD12R,0.03543X0.03150*%
%ADD14R,0.03150X0.03543*%
%ADD16R,0.02756X0.03543*%
%ADD31C,0.01000*%
%ADD34C,0.06299*%
%ADD35C,0.05905*%
%ADD36R,0.05905X0.05905*%
%ADD37R,0.05000X0.05000*%
%ADD38C,0.05000*%
%ADD39C,0.06000*%
%ADD40C,0.03300*%
%ADD41O,0.13780X0.03937*%
%ADD42O,0.03937X0.13780*%
%ADD43O,0.15748X0.04921*%
%ADD44C,0.12500*%
%ADD45R,0.06200X0.06200*%
%ADD46C,0.15000*%
%ADD47R,0.06000X0.06000*%
%ADD48C,0.08000*%
%ADD49C,0.04500*%
%ADD50C,0.09200*%
%ADD51C,0.07000*%
%ADD52C,0.06200*%
%ADD53C,0.06299*%
%ADD54C,0.03937*%
%ADD55R,0.06000X0.06000*%
%ADD56C,0.03000*%
D11*
X512600Y55447D02*
D03*
Y61353D02*
D03*
X512800Y67047D02*
D03*
Y72953D02*
D03*
X476200Y409153D02*
D03*
Y403247D02*
D03*
X492800Y408353D02*
D03*
Y402447D02*
D03*
X75200Y608553D02*
D03*
Y602647D02*
D03*
X411000Y132647D02*
D03*
Y138553D02*
D03*
X421200Y132647D02*
D03*
Y138553D02*
D03*
X491000Y131447D02*
D03*
Y137353D02*
D03*
X480800Y131247D02*
D03*
Y137153D02*
D03*
X471400Y130847D02*
D03*
Y136753D02*
D03*
X461400Y131247D02*
D03*
Y137153D02*
D03*
X451200Y131047D02*
D03*
Y136953D02*
D03*
X441000Y131247D02*
D03*
Y137153D02*
D03*
D12*
X282400Y143356D02*
D03*
Y137844D02*
D03*
Y126444D02*
D03*
Y131956D02*
D03*
X145000Y457756D02*
D03*
Y452244D02*
D03*
X152000Y457756D02*
D03*
Y452244D02*
D03*
X113000Y404044D02*
D03*
Y409556D02*
D03*
X119200Y404444D02*
D03*
Y409956D02*
D03*
X125000Y403644D02*
D03*
Y409156D02*
D03*
X131600Y403444D02*
D03*
Y408956D02*
D03*
X141400Y403044D02*
D03*
Y408556D02*
D03*
X401800Y383244D02*
D03*
Y388756D02*
D03*
X318500Y264988D02*
D03*
Y270500D02*
D03*
X281000Y349744D02*
D03*
Y355256D02*
D03*
X259500Y271256D02*
D03*
Y265744D02*
D03*
X221500Y284744D02*
D03*
Y290256D02*
D03*
X290000Y355256D02*
D03*
Y349744D02*
D03*
X258500Y354256D02*
D03*
Y348744D02*
D03*
X249000Y265744D02*
D03*
Y271256D02*
D03*
X298000Y290500D02*
D03*
Y296012D02*
D03*
X321000Y290500D02*
D03*
Y296012D02*
D03*
X338500Y291244D02*
D03*
Y296756D02*
D03*
X284000Y265244D02*
D03*
Y270756D02*
D03*
X327500Y355256D02*
D03*
Y349744D02*
D03*
X221500Y302244D02*
D03*
Y307756D02*
D03*
X159400Y489156D02*
D03*
Y483644D02*
D03*
D14*
X66244Y354000D02*
D03*
X71756D02*
D03*
X201844Y557200D02*
D03*
X207356D02*
D03*
X193644Y182000D02*
D03*
X199156D02*
D03*
X66644Y404000D02*
D03*
X72156D02*
D03*
X83356D02*
D03*
X77844D02*
D03*
X95356Y406800D02*
D03*
X89844D02*
D03*
X107156Y406600D02*
D03*
X101644D02*
D03*
X250756Y323500D02*
D03*
X245244D02*
D03*
X340256Y307500D02*
D03*
X334744D02*
D03*
X253256Y306000D02*
D03*
X247744D02*
D03*
X302500Y330000D02*
D03*
X296988D02*
D03*
X339756Y340000D02*
D03*
X334244D02*
D03*
X253256Y297000D02*
D03*
X247744D02*
D03*
X246244Y347500D02*
D03*
X251756D02*
D03*
X249244Y283000D02*
D03*
X254756D02*
D03*
X247744Y311000D02*
D03*
X253256D02*
D03*
X340256Y316500D02*
D03*
X334744D02*
D03*
X338256Y271500D02*
D03*
X332744D02*
D03*
X66244Y385800D02*
D03*
X71756D02*
D03*
X71556Y368600D02*
D03*
X66044D02*
D03*
D16*
X540553Y437800D02*
D03*
X534647D02*
D03*
X539906Y195000D02*
D03*
X534000D02*
D03*
D31*
X247872Y297128D02*
X248000Y297000D01*
X247744Y297256D02*
X247872Y297128D01*
X221500Y306156D02*
X238977D01*
X219856D02*
X221500D01*
X221700Y290256D02*
Y296600D01*
X411800Y441700D02*
X413500Y440000D01*
X394400Y459100D02*
X411800Y441700D01*
X477374Y402074D02*
X477747Y402447D01*
X474776Y399476D02*
X477374Y402074D01*
X406600Y399100D02*
X424800D01*
X405000D02*
X406600D01*
X427400Y396500D02*
X428400Y395500D01*
X424800Y399100D02*
X427400Y396500D01*
X341628Y338128D02*
X343500Y340000D01*
X341600Y338100D02*
X341628Y338128D01*
X340450Y331950D02*
X341600Y333100D01*
X340300Y331800D02*
X340450Y331950D01*
X340600Y307500D02*
Y311300D01*
X340300Y316500D02*
Y325600D01*
Y311600D02*
Y316500D01*
X340256Y311300D02*
Y311900D01*
Y307500D02*
Y311300D01*
X434857Y282757D02*
X437300Y280315D01*
X432515Y285100D02*
X434857Y282757D01*
X344698Y274505D02*
X348010Y274511D01*
X341600Y274500D02*
X344698Y274505D01*
X338428Y271328D02*
X338600Y271500D01*
X338300Y271200D02*
X338428Y271328D01*
X286700Y354700D02*
X287256Y355256D01*
X286400Y354400D02*
X286700Y354700D01*
X252200Y358200D02*
X259895D01*
X245600Y281900D02*
X246700Y283000D01*
X244500Y280800D02*
X245600Y281900D01*
X245350Y265350D02*
X245744Y265744D01*
X244500Y264500D02*
X245350Y265350D01*
X223700Y489156D02*
X287644D01*
X171456D02*
X223700D01*
X501000Y592000D02*
X506200D01*
X363482Y289818D02*
X365100Y288200D01*
X413123Y572727D02*
X417338Y576942D01*
X412500Y572104D02*
X413123Y572727D01*
X405473Y568442D02*
X409135Y572104D01*
X405300Y568269D02*
X405473Y568442D01*
X405242Y568673D02*
X408673Y572104D01*
X404669Y568100D02*
X405242Y568673D01*
X401800Y390356D02*
X408892D01*
X336800Y316500D02*
Y321600D01*
X476700Y283900D02*
Y289800D01*
X475800Y283900D02*
Y289800D01*
Y283000D02*
Y283900D01*
X411376Y138176D02*
X411753Y138553D01*
X406800Y133600D02*
X411376Y138176D01*
X406800Y117600D02*
X411200Y113200D01*
X411400Y113000D01*
X329431Y180837D02*
X371715Y138553D01*
X325168Y185100D02*
X329431Y180837D01*
X207300Y557256D02*
X215445Y565400D01*
X170013Y519968D02*
X207300Y557256D01*
X277100Y359200D02*
Y380100D01*
Y351935D02*
Y359200D01*
X184873Y425100D02*
X187887Y422087D01*
X158000Y403044D02*
X163344D01*
X157956D02*
X158000D01*
X66222Y353978D02*
X68800Y351400D01*
X66044Y354156D02*
X66222Y353978D01*
X296944Y329956D02*
X296988Y329912D01*
X279078Y347822D02*
X296944Y329956D01*
X277100Y349800D02*
X279078Y347822D01*
X278000Y351935D02*
Y359200D01*
Y350944D02*
Y351935D01*
X258922Y348322D02*
X264195Y353595D01*
X258500Y347900D02*
X258922Y348322D01*
X259072Y348172D02*
X264195Y353295D01*
X258500Y347600D02*
X259072Y348172D01*
X250500Y339900D02*
X258500Y347900D01*
X247450Y336850D02*
X250500Y339900D01*
X247400Y336800D02*
X247450Y336850D01*
X251250Y339150D02*
X258500Y346400D01*
X248800Y336700D02*
X251250Y339150D01*
X254756Y277800D02*
Y283000D01*
Y274012D02*
Y277800D01*
X296200Y147710D02*
X300500D01*
X266990D02*
X296200D01*
X274666Y114434D02*
X275100Y114000D01*
X264800Y124300D02*
X274666Y114434D01*
X249694Y340705D02*
X251756Y342767D01*
X246644Y337655D02*
X249694Y340705D01*
X250756Y317200D02*
Y318800D01*
Y311000D02*
Y317200D01*
X212300Y191500D02*
X249400Y228600D01*
X202800Y182000D02*
X212300Y191500D01*
X269295Y333350D02*
Y333645D01*
Y333055D02*
Y333350D01*
X481200Y123000D02*
Y131247D01*
Y120800D02*
Y123000D01*
X71756Y368600D02*
Y370444D01*
Y361200D02*
Y368600D01*
X65800Y442500D02*
Y453500D01*
Y441000D02*
Y442500D01*
X66644Y385800D02*
Y404000D01*
Y379412D02*
Y385800D01*
X64700Y455000D02*
X66100Y456400D01*
X37800Y428100D02*
X64700Y455000D01*
X141100Y466800D02*
X141900Y466000D01*
X131200Y476700D02*
X141100Y466800D01*
X282400Y126800D02*
X300000D01*
X282320D02*
X282400D01*
X281078Y144678D02*
X282400Y146000D01*
X279400Y143000D02*
X281078Y144678D01*
X145400Y460700D02*
X151200D01*
X404352Y418800D02*
X442800D01*
X187900Y403000D02*
Y422100D01*
X66000Y442500D02*
Y453700D01*
X65800Y453500D02*
X66000Y453700D01*
X58393Y438200D02*
X68000D01*
X41293Y421100D02*
X58393Y438200D01*
X68000D02*
X70000Y440200D01*
Y441800D01*
X70700Y442500D01*
X71700Y440058D02*
X74900Y443258D01*
X71700Y419617D02*
Y440058D01*
X68083Y416000D02*
X71700Y419617D01*
X74900Y443258D02*
Y450900D01*
X70700Y442500D02*
Y453300D01*
X70300Y453700D02*
X70700Y453300D01*
X261600Y265744D02*
X262500Y266644D01*
X269000Y333350D02*
X269295Y333645D01*
X492785Y270385D02*
X495500Y273100D01*
X473100Y263900D02*
X475300Y266100D01*
X487685Y234015D02*
Y255344D01*
Y196715D02*
Y234015D01*
X281000Y358050D02*
Y362100D01*
X261600Y265744D02*
X263144D01*
X252000Y293000D02*
X255200Y289800D01*
X247744Y297000D02*
Y297256D01*
X248000Y297000D02*
X252000Y293000D01*
X221700Y290256D02*
X237944D01*
X403200Y440300D02*
X410400D01*
X428400Y395500D02*
Y397500D01*
Y387966D02*
Y395500D01*
X429700Y341450D02*
X429900D01*
X421550D02*
X427231D01*
X407100Y327000D02*
X421550Y341450D01*
X402100Y322000D02*
X407100Y327000D01*
Y341300D01*
Y321319D02*
Y327000D01*
Y301256D02*
Y321319D01*
X340256Y331756D02*
X340300Y331800D01*
X340256Y328356D02*
X340300Y328400D01*
X339200Y327300D02*
X340256Y328356D01*
X340300Y331800D02*
Y332100D01*
Y328400D02*
Y331800D01*
X338600Y327300D02*
X339200D01*
X335000D02*
X338600D01*
X331200D02*
X335000D01*
X340256Y325644D02*
X340300Y325600D01*
X338600Y327300D02*
X340256Y325644D01*
Y328356D02*
Y331756D01*
Y325644D02*
Y328356D01*
Y316500D02*
Y325644D01*
X479900Y298500D02*
X491700D01*
X463900Y288000D02*
Y291700D01*
X458400Y297200D02*
X462200Y293400D01*
X463900Y291700D01*
X462200Y293400D02*
X470000D01*
X458500D02*
X462200D01*
X458500Y280315D02*
X461015D01*
X435985D02*
X437300D01*
X457715D02*
X458500D01*
X428200Y294600D02*
X428300Y294500D01*
X423244Y299556D02*
X428200Y294600D01*
X331900Y291244D02*
Y324200D01*
Y290621D02*
Y291244D01*
X338500D01*
X330444D02*
X331900D01*
X328100Y290500D02*
X329700D01*
X338500Y284021D02*
X348010Y274511D01*
X331900Y290621D02*
X338500Y284021D01*
Y291244D01*
Y281444D02*
Y284021D01*
X338600Y271500D02*
X341600Y274500D01*
X343100Y271500D02*
X344700Y273100D01*
X338300Y266700D02*
X343100Y271500D01*
X336588Y264988D02*
X338300Y266700D01*
X407900Y197200D02*
X413500Y202800D01*
X338600Y271500D02*
X343100D01*
X338256D02*
X338600D01*
X338300Y266700D02*
Y271200D01*
Y224400D02*
Y266700D01*
X296500Y415100D02*
Y422000D01*
Y412100D02*
Y415100D01*
X325356Y355256D02*
X327500D01*
X298444D02*
X325356D01*
X290000D02*
X298444D01*
X287256D02*
X290000D01*
X286656D02*
X287256D01*
X242200Y345700D02*
Y348200D01*
Y331576D02*
Y345700D01*
Y318455D02*
Y331576D01*
X77600Y602647D02*
X111888D01*
X321000Y290500D02*
X328100D01*
X298000D02*
X321000D01*
X305300Y183500D02*
Y189200D01*
Y143800D02*
Y183500D01*
Y142100D02*
Y143800D01*
Y183500D02*
X306400Y182400D01*
X303200Y185600D02*
X305300Y183500D01*
X272944Y265244D02*
X277600D01*
X244500Y283000D02*
X246700D01*
X305300Y143800D02*
X308600Y147100D01*
X300200Y138700D02*
X305300Y143800D01*
Y133600D02*
Y142100D01*
Y101300D02*
Y133600D01*
Y95600D02*
Y101300D01*
X276200Y87700D02*
X277800D01*
X166300D02*
X276200D01*
X195044Y178600D02*
X221400D01*
X116100D02*
X195044D01*
X198344Y175300D01*
X193644Y180000D02*
X195044Y178600D01*
X475400Y503700D02*
X521600Y549900D01*
X472100Y500400D02*
X475400Y503700D01*
X399100Y261500D02*
X402300Y258300D01*
X387400Y273200D02*
X399100Y261500D01*
X299800Y386400D02*
Y386900D01*
X305400Y392100D02*
X308082Y389418D01*
X435500Y576942D02*
X453858D01*
X417338D02*
X435500D01*
X409135Y572104D02*
X412154D01*
X408789D02*
X409135D01*
X408673D02*
X408789D01*
X412154D02*
X412500D01*
X452700Y310800D02*
X461200D01*
X336829Y343700D02*
X345000D01*
X335200D02*
X336829D01*
Y349744D01*
Y330629D02*
Y343700D01*
X475800Y273500D02*
Y283000D01*
Y272500D02*
Y273500D01*
Y283000D02*
X476700Y283900D01*
X475500Y282700D02*
X475800Y283000D01*
Y273500D02*
X481100Y268200D01*
X475500Y273800D02*
X475800Y273500D01*
X483800Y212800D02*
Y229000D01*
Y202300D02*
Y212800D01*
X411000Y138553D02*
X411753D01*
X411200Y113200D02*
X414500Y116500D01*
X411000Y113000D02*
X411200Y113200D01*
X411000Y113000D02*
X411400D01*
X421000D01*
X322630Y270500D02*
X325100D01*
X209769Y557200D02*
X212700D01*
X215445Y565400D02*
X220900D01*
X198100D02*
X215445D01*
X218145Y568100D01*
X159400Y461100D02*
X231700Y388800D01*
X156200Y464300D02*
X159400Y461100D01*
X143200Y477300D02*
X156200Y464300D01*
X251728Y388800D02*
X280000D01*
X231700D02*
X251728D01*
X264195Y353295D02*
Y353595D01*
X251728Y388800D02*
X253428Y387100D01*
X250928Y389600D02*
X251728Y388800D01*
X167168Y519968D02*
X178100Y530900D01*
X156400Y509200D02*
X167168Y519968D01*
X170013D01*
X163500D02*
X167168D01*
X159400Y461100D02*
Y483644D01*
Y456644D02*
Y461100D01*
X155000Y452244D02*
X165456D01*
X145000D02*
X152000D01*
X157956Y403044D02*
X158000Y403000D01*
X140000Y421000D02*
X157956Y403044D01*
X141400D02*
X157956D01*
X141400Y400800D02*
X161100D01*
X132400D02*
X141400D01*
X114600D02*
X132400D01*
X296988Y329912D02*
X300800Y326100D01*
X296988Y329912D02*
Y330000D01*
Y324912D02*
Y329912D01*
Y322800D02*
Y324912D01*
X321000Y300900D01*
X293800Y328100D02*
X296988Y324912D01*
X277100Y335200D02*
Y349800D01*
X258500Y347900D02*
Y348744D01*
Y347600D02*
Y347900D01*
Y346400D02*
Y347600D01*
X250650Y339750D02*
X258500Y347600D01*
X270000Y328100D02*
X293800D01*
X255800D02*
X270000D01*
X254000D02*
X255800D01*
X253256Y297000D02*
X261745D01*
X252800Y329300D02*
X254600D01*
X248500D02*
X252800D01*
X254000Y328100D01*
X248800Y333300D02*
X252800Y329300D01*
X256800Y271256D02*
X259500D01*
X254200D02*
X256800D01*
X280366Y111314D02*
X282380Y109300D01*
X277680Y114000D02*
X280366Y111314D01*
X274231Y114000D02*
X275100D01*
X68800Y351400D02*
X69600Y350600D01*
X68800Y351400D02*
Y353200D01*
Y350200D02*
Y351400D01*
X491000Y123000D02*
Y129600D01*
X443300Y404500D02*
X453100D01*
X438000Y383400D02*
Y399200D01*
Y377071D02*
Y383400D01*
X442800Y388200D01*
X422300Y367700D02*
X438000Y383400D01*
X422300Y367700D02*
X428629D01*
X369216D02*
X370000D01*
X367716Y369200D02*
X369216Y367700D01*
X367700Y369216D02*
X367716Y369200D01*
X368500D01*
X344000D02*
X367716D01*
X344000D02*
X344016Y369216D01*
X337600Y362800D02*
X344000Y369200D01*
X418800Y429300D02*
X421600D01*
X77600Y440800D02*
Y448600D01*
X66100Y453800D02*
X68700Y456400D01*
X66000Y453700D02*
X66100Y453800D01*
X71556Y370644D02*
Y374500D01*
Y368600D02*
Y370644D01*
X66644Y379412D02*
X71556Y374500D01*
X66244Y379812D02*
X66644Y379412D01*
X71556Y370644D02*
X71756Y370444D01*
X66644Y375556D02*
X71556Y370644D01*
X66644Y375556D02*
Y379412D01*
X72800Y608553D02*
X75200D01*
X70500D02*
X72800D01*
X279400Y142400D02*
Y143000D01*
X280957Y128163D02*
X282320Y126800D01*
X282400Y126720D01*
X279400Y129720D02*
X280957Y128163D01*
X463900Y305329D02*
X472800D01*
X512471Y345000D01*
X527300D01*
X546300Y364000D01*
Y375900D01*
X544400Y377800D02*
X546300Y375900D01*
X541300Y377800D02*
X544400D01*
X538000Y374500D02*
X541300Y377800D01*
X509100Y374500D02*
X538000D01*
X506500Y377100D02*
X509100Y374500D01*
X506500Y377100D02*
Y410200D01*
X504800Y411900D02*
X506500Y410200D01*
X498147Y411900D02*
X504800D01*
X494600Y408353D02*
X498147Y411900D01*
X492800Y408353D02*
X494600D01*
X450700Y426100D02*
X452800Y428200D01*
X377500Y426100D02*
X450700D01*
X370300Y418900D02*
X377500Y426100D01*
X445100Y433600D02*
X468800D01*
X490400Y455200D01*
X490500Y435300D02*
X510400Y455200D01*
X477600Y435300D02*
X490500D01*
X475319Y433019D02*
X477600Y435300D01*
X475319Y430719D02*
Y433019D01*
X472800Y428200D02*
X475319Y430719D01*
X492800Y428200D02*
X497000D01*
X501600Y423600D01*
X514800D01*
X545900Y392500D01*
X560800D01*
X562100Y391200D01*
Y382500D02*
Y391200D01*
X557800Y378200D02*
X562100Y382500D01*
X541700Y434300D02*
X557800Y418200D01*
X538800Y434300D02*
X541700D01*
X537900Y435200D02*
X538800Y434300D01*
X537900Y435200D02*
Y466400D01*
X534400Y469900D02*
X537900Y466400D01*
X516300Y469900D02*
X534400D01*
X505600Y480600D02*
X516300Y469900D01*
X403900Y480600D02*
X505600D01*
X400800Y483700D02*
X403900Y480600D01*
X555200Y463200D02*
X562100D01*
X526100Y492300D02*
X555200Y463200D01*
X507100Y492300D02*
X526100D01*
X504834Y490034D02*
X507100Y492300D01*
X418734Y490034D02*
X504834D01*
X415100Y486400D02*
X418734Y490034D01*
X398900Y486400D02*
X415100D01*
X398100Y485600D02*
X398900Y486400D01*
X398100Y481100D02*
Y485600D01*
X394500Y488100D02*
X412758D01*
X416392Y491734D01*
X503774D01*
X506040Y494000D01*
X532600D01*
X547100Y479500D01*
X548800Y495700D02*
X553500Y491000D01*
X505200Y495700D02*
X548800D01*
X503800Y494300D02*
X505200Y495700D01*
X414700Y494300D02*
X503800D01*
X411200Y490800D02*
X414700Y494300D01*
X392451Y490800D02*
X411200D01*
X390200Y488549D02*
X392451Y490800D01*
X390200Y468200D02*
Y488549D01*
X385303Y463303D02*
X390200Y468200D01*
X385303Y460153D02*
Y463303D01*
X377200Y452050D02*
X385303Y460153D01*
X377200Y448800D02*
Y452050D01*
Y448800D02*
X378800Y447200D01*
X388000D01*
X391200Y450400D01*
Y461400D01*
X400300Y462800D02*
X413400Y449700D01*
X461453D01*
X465200Y453447D01*
Y456500D01*
X475100Y466400D01*
X507400D01*
X413500Y458700D02*
X420800Y451400D01*
X455700D01*
Y469800D01*
X458400Y472500D01*
X504600D01*
X439800Y261600D02*
Y269500D01*
X437100Y272200D02*
X439800Y269500D01*
X495500Y273100D02*
X496200Y273800D01*
X559900D01*
X562100Y276000D01*
Y313900D01*
X557800Y318200D02*
X562100Y313900D01*
X492785Y262065D02*
X501600Y253250D01*
X492785Y262065D02*
Y270385D01*
X480200Y288100D02*
X537700D01*
X557800Y308200D01*
X481400Y281300D02*
X550900D01*
X557800Y288200D01*
X499468Y189868D02*
X557800Y248200D01*
X480332Y189868D02*
X499468D01*
X475800Y194400D02*
X480332Y189868D01*
X263144Y265744D02*
X263200Y265800D01*
X281000Y358050D02*
X366550D01*
X281000Y355256D02*
Y358050D01*
Y362100D02*
X281900Y363000D01*
X298300Y94300D02*
X305300Y101300D01*
X303200Y191300D02*
X305300Y189200D01*
X306400Y182400D02*
X308600D01*
X303200Y185600D02*
Y191300D01*
X439347Y137153D02*
X441000D01*
X430400Y146100D02*
X439347Y137153D01*
X491000Y137353D02*
X493147D01*
X501000Y129500D01*
Y123000D02*
Y129500D01*
X470000Y275700D02*
Y293400D01*
X475100Y298500D02*
X479900D01*
X461015Y280315D02*
X463900Y283200D01*
Y288000D01*
X458500Y293400D02*
X463900Y288000D01*
X427231Y341450D02*
X429700D01*
X407100Y321319D02*
X427231Y341450D01*
X407100Y301256D02*
X408800Y299556D01*
X423244D01*
X438600Y235400D02*
X459700Y256500D01*
Y275200D01*
X458300Y276600D02*
X459700Y275200D01*
X431100Y276600D02*
X458300D01*
X427100Y280600D02*
X431100Y276600D01*
X427100Y280600D02*
Y284200D01*
X428000Y285100D01*
X432515D01*
X437300Y280315D02*
X457715D01*
X458500Y281100D01*
Y280315D02*
Y281100D01*
X440600Y297200D02*
X458400D01*
X428300Y294500D02*
X437900D01*
X407100Y341300D02*
X408800Y343000D01*
X434200Y282100D02*
X435985Y280315D01*
X437900Y294500D02*
X440600Y297200D01*
X370300Y321744D02*
X371236D01*
X372989Y319991D01*
Y295811D02*
Y319991D01*
X413500Y202800D02*
Y209200D01*
X350145Y245755D02*
X401500Y194400D01*
X348010Y274511D02*
X350145Y272376D01*
X338300Y224400D02*
X344800Y217900D01*
Y210100D02*
Y217900D01*
X318900Y184200D02*
X344800Y210100D01*
X318900Y155700D02*
Y184200D01*
X305300Y142100D02*
X318900Y155700D01*
X297400Y87700D02*
X305300Y95600D01*
X89000Y165000D02*
X166300Y87700D01*
X393900Y276800D02*
X399100D01*
X407900Y268000D01*
Y197200D02*
Y268000D01*
X405100Y194400D02*
X407900Y197200D01*
X401500Y194400D02*
X405100D01*
X350145Y245755D02*
Y272376D01*
X331900Y324200D02*
X335000Y327300D01*
X340300Y311600D02*
X340600Y311300D01*
X341600Y333100D02*
Y338100D01*
X339756Y340000D02*
X343500D01*
X289084Y265700D02*
X301898D01*
X243500Y292600D02*
X244500Y291600D01*
X243500Y292600D02*
Y311000D01*
X242200Y348200D02*
X252200Y358200D01*
X268950Y394450D02*
X289600Y415100D01*
X296500D01*
X245500Y417900D02*
X268950Y394450D01*
X220800Y417900D02*
X245500D01*
X269000Y433315D02*
X296500D01*
X205502Y458602D02*
X233000Y486100D01*
X196200Y554400D02*
X199000Y557200D01*
X144800Y575000D02*
X166500D01*
X184500Y557000D01*
X111888Y602647D02*
X138047Y576488D01*
X112900Y337700D02*
X166100Y390900D01*
Y409000D01*
X137300Y437800D02*
X166100Y409000D01*
X93200Y437800D02*
X137300D01*
X193644Y180000D02*
Y182000D01*
X198344Y175300D02*
X216500D01*
X106700Y188000D02*
X116100Y178600D01*
X398800Y399100D02*
X405000D01*
X406600Y400700D01*
X391800Y440300D02*
X403200D01*
X509900Y570900D02*
X516200Y564600D01*
X509900Y570900D02*
Y576400D01*
X508000Y578300D02*
X509900Y576400D01*
X504500Y578300D02*
X508000D01*
X502900Y576700D02*
X504500Y578300D01*
X493200Y576700D02*
X502900D01*
X485200Y568700D02*
X493200Y576700D01*
X430700Y568700D02*
X485200D01*
X427000Y572400D02*
X430700Y568700D01*
X420600Y572400D02*
X427000D01*
X417000Y568800D02*
X420600Y572400D01*
X409800Y568800D02*
X417000D01*
X476200Y403247D02*
X477374Y402074D01*
X492800Y402447D01*
X516300Y486500D02*
X517200Y485600D01*
X478300Y486500D02*
X516300D01*
X477500Y487300D02*
X478300Y486500D01*
X477747Y402447D02*
X492800D01*
X182200Y389800D02*
Y421500D01*
Y389800D02*
X204000Y368000D01*
X231300D01*
X232100Y367200D01*
Y357600D02*
Y367200D01*
X227700Y353200D02*
X232100Y357600D01*
X150200Y353200D02*
X227700D01*
X112900Y315900D02*
X150200Y353200D01*
X159400Y489156D02*
X171456D01*
X287644D02*
X312101Y464699D01*
X322513D01*
X323813Y463400D01*
X348200D01*
X349800Y465000D01*
X380108Y451048D02*
X387169Y458110D01*
Y461405D01*
X394164Y468400D01*
X438200D01*
X451000Y455600D01*
X171456Y489156D02*
X174900Y492600D01*
X476200Y584600D02*
X479500D01*
X397400Y602700D02*
X427900D01*
X411700Y228500D02*
Y278800D01*
Y228500D02*
X458163Y182037D01*
X513650D01*
X515514Y183900D01*
X569300D01*
X479500Y584600D02*
X482800Y581300D01*
X429800Y282400D02*
X433900Y278300D01*
X460900D01*
X466400Y272800D01*
X471100D01*
X472700Y274400D01*
Y292400D01*
X475400Y295100D01*
X492900D01*
X494200Y293800D01*
X506700D01*
X555400Y342500D01*
X572000D01*
X494200Y600000D02*
X528000D01*
X489900Y595700D02*
X494200Y600000D01*
X489900Y592800D02*
Y595700D01*
X488000Y590900D02*
X489900Y592800D01*
X483900Y590900D02*
X488000D01*
X480200Y594600D02*
X483900Y590900D01*
X476200Y594600D02*
X480200D01*
X390296Y577204D02*
X404604D01*
X415700Y588300D01*
X478300D01*
X482000Y584600D01*
X486200D01*
X484500Y504600D02*
X523300Y543400D01*
Y588000D01*
X521000Y590300D02*
X523300Y588000D01*
X502800Y590300D02*
X521000D01*
X501700Y589200D02*
X502800Y590300D01*
X495000Y589200D02*
X501700D01*
X490400Y584600D02*
X495000Y589200D01*
X486200Y584600D02*
X490400D01*
X373500Y585900D02*
Y594128D01*
X385583Y606211D01*
X474589D01*
X486200Y594600D01*
X432100Y297200D02*
X433800Y298900D01*
X471213D01*
X473754Y301442D01*
X480071D01*
X495230Y316600D01*
X521700D01*
X500200Y584600D02*
X503900Y588300D01*
X518000D02*
X521600Y584700D01*
X464700Y503700D02*
X475400D01*
X477589Y607911D02*
X486200Y599300D01*
X377911Y607911D02*
X477589D01*
X370800Y600800D02*
X377911Y607911D01*
X370800Y580400D02*
Y600800D01*
X431681Y306619D02*
X436700Y301600D01*
X470100D01*
X471642Y303142D01*
X478371D01*
X510030Y334800D01*
X533700D01*
X552800Y353900D01*
X561800D01*
X565500Y357600D01*
Y442200D01*
X563800Y443900D02*
X565500Y442200D01*
X548700Y443900D02*
X563800D01*
X545400Y447200D02*
X548700Y443900D01*
X545400Y447200D02*
Y467598D01*
X524634Y488364D02*
X545400Y467598D01*
X511136Y488364D02*
X524634D01*
X509900Y489600D02*
X511136Y488364D01*
X386700Y576287D02*
Y584200D01*
Y576287D02*
X393187Y569800D01*
X402000D01*
X406004Y573804D01*
X409269D01*
X414297Y578832D01*
X471932D01*
X473400Y580300D01*
X478800D01*
X481900Y577200D01*
X485500D01*
X489200Y580900D01*
X499460D01*
X503160Y584600D01*
X506200D01*
X412300Y304600D02*
X420400Y312700D01*
Y325696D01*
X422104Y327400D01*
X436400D01*
X460100Y351100D01*
X529200D01*
X543600Y365500D01*
X496200Y508100D02*
X533500Y545400D01*
Y601300D01*
X525189Y609611D02*
X533500Y601300D01*
X373711Y609611D02*
X525189D01*
X368100Y604000D02*
X373711Y609611D01*
X368100Y579200D02*
Y604000D01*
Y579200D02*
X369600Y577700D01*
X373600D01*
X377300Y581400D01*
Y592897D01*
X384603Y600200D01*
X424700Y311200D02*
X433500Y320000D01*
X481500D01*
X489100Y327600D01*
X432800Y574242D02*
X436142Y570900D01*
X481000D01*
X482800Y572700D01*
X466500Y348300D02*
X468200Y346600D01*
Y330800D02*
Y346600D01*
X459100Y321700D02*
X468200Y330800D01*
X429000Y321700D02*
X459100D01*
X424300Y317000D02*
X429000Y321700D01*
X468000Y550000D02*
X487996D01*
X492596Y554600D01*
X496200D01*
X414500Y497400D02*
X448700D01*
X409600Y492500D02*
X414500Y497400D01*
X390100Y492500D02*
X409600D01*
X385800Y488200D02*
X390100Y492500D01*
X385800Y468300D02*
Y488200D01*
X382700Y465200D02*
X385800Y468300D01*
X382700Y460100D02*
Y465200D01*
X375100Y452500D02*
X382700Y460100D01*
X375100Y433900D02*
Y452500D01*
X366700Y425500D02*
X375100Y433900D01*
X366700Y416800D02*
Y425500D01*
Y416800D02*
X368000Y415500D01*
X381100D01*
X384600Y412000D01*
Y379500D02*
Y412000D01*
Y379500D02*
X388500Y375600D01*
X435100Y551500D02*
X444500Y560900D01*
X483419D01*
X497119Y574600D01*
X506200D01*
X475600Y508500D02*
X516200Y549100D01*
X430400Y508500D02*
X475600D01*
X345100Y301800D02*
X354500Y292400D01*
X359000D01*
X345000Y322100D02*
X349913Y317187D01*
X359913D01*
X364600Y312500D01*
Y305500D02*
Y312500D01*
X362589Y303489D02*
X364600Y305500D01*
X362589Y296863D02*
Y303489D01*
Y296863D02*
X363482Y295970D01*
Y289818D02*
Y295970D01*
X365000Y265500D02*
X365200Y265300D01*
X365000Y265500D02*
Y288100D01*
X365300Y300000D02*
X366300Y301000D01*
Y313282D01*
X361961Y317621D02*
X366300Y313282D01*
X361961Y317621D02*
Y322677D01*
X376300Y240500D02*
X395500D01*
X353900Y262900D02*
X376300Y240500D01*
X353900Y262900D02*
Y289100D01*
X345100Y297900D02*
X353900Y289100D01*
X382879Y309621D02*
X388900Y303600D01*
X382879Y309621D02*
Y315921D01*
X363817Y334983D02*
X382879Y315921D01*
X357600Y334983D02*
X363817D01*
X350017Y327400D02*
X357600Y334983D01*
X345100Y327400D02*
X350017D01*
X388900Y292021D02*
Y303600D01*
Y292021D02*
X393621Y287300D01*
X411940D01*
X416443Y282796D01*
Y244157D02*
Y282796D01*
Y244157D02*
X442700Y217900D01*
X359261Y325600D02*
X363942D01*
X365900Y323642D01*
Y317728D02*
Y323642D01*
Y317728D02*
X368100Y315528D01*
Y293600D02*
Y315528D01*
Y293600D02*
X369600Y292100D01*
Y285228D02*
Y292100D01*
Y285228D02*
X371378Y283450D01*
Y269522D02*
Y283450D01*
Y269522D02*
X380000Y260900D01*
X395663D01*
X396291Y268500D02*
X399200D01*
X388891Y275900D02*
X396291Y268500D01*
X387000Y275900D02*
X388891D01*
X379700Y283200D02*
X387000Y275900D01*
X379700Y283200D02*
Y316696D01*
X364245Y332151D02*
X379700Y316696D01*
X359449Y332151D02*
X364245D01*
X345280Y333035D02*
X348775Y336530D01*
Y346275D01*
X358500Y356000D01*
X363700D01*
X364400Y355300D01*
X373917D01*
X394073Y335144D01*
Y315595D02*
Y335144D01*
Y315595D02*
X397668Y312000D01*
X388600Y325400D02*
X392373Y321627D01*
Y312200D02*
Y321627D01*
Y312200D02*
X401400Y303173D01*
Y296600D02*
Y303173D01*
Y296600D02*
X405600Y292400D01*
X417832D01*
X421732Y288500D01*
X439200D01*
X442800Y284900D01*
X461200D01*
X375625Y327000D02*
X375700Y327075D01*
Y331299D01*
X360700Y346299D02*
X375700Y331299D01*
X389900Y353800D02*
X404400Y339300D01*
Y329300D02*
Y339300D01*
X369200Y351195D02*
X378895Y341500D01*
X436300Y286800D02*
X440000Y283100D01*
X420700Y286800D02*
X436300D01*
X416800Y290700D02*
X420700Y286800D01*
X400000Y290700D02*
X416800D01*
X399600Y291100D02*
X400000Y290700D01*
X399600Y291100D02*
Y300804D01*
X390673Y309731D02*
X399600Y300804D01*
X390673Y309731D02*
Y314927D01*
X385900Y319700D02*
X390673Y314927D01*
X385900Y319700D02*
Y325400D01*
X371200Y340100D02*
X385900Y325400D01*
X442400Y290200D02*
X445000Y292800D01*
X422881Y290200D02*
X442400D01*
X418981Y294100D02*
X422881Y290200D01*
X407168Y294100D02*
X418981D01*
X403592Y297676D02*
X407168Y294100D01*
X403592Y297676D02*
Y312881D01*
X395950Y320522D02*
X403592Y312881D01*
X395950Y320522D02*
Y337450D01*
X374300Y359100D02*
X395950Y337450D01*
X370900Y359100D02*
X374300D01*
X367700Y394900D02*
Y400500D01*
X377200Y410000D01*
X402600Y583204D02*
Y588800D01*
X410287Y596487D01*
X455287D01*
X456200Y597400D01*
X301700Y533100D02*
X387400D01*
X264800Y528500D02*
Y551000D01*
X276600Y562800D01*
X418113D01*
X425013Y569700D01*
X425500D01*
X269100Y534600D02*
X295000Y560500D01*
X419600D01*
X250600Y565500D02*
X416099D01*
X249000Y563900D02*
X250600Y565500D01*
X268500Y449900D02*
X280500Y461900D01*
X319800D01*
X265500Y506200D02*
X282700Y523400D01*
X359400D01*
X309300Y410300D02*
X311200Y408400D01*
Y386900D02*
Y408400D01*
X376600Y460150D02*
Y461300D01*
X324325Y407875D02*
X376600Y460150D01*
X294800Y381900D02*
X299800Y386900D01*
Y397000D01*
X374600Y464000D02*
X379500D01*
X373800Y463200D02*
X374600Y464000D01*
X373800Y460000D02*
Y463200D01*
X330500Y416700D02*
X373800Y460000D01*
X322700Y416700D02*
X330500D01*
X314100Y408100D02*
X322700Y416700D01*
X314100Y385600D02*
Y408100D01*
X311800Y383300D02*
X314100Y385600D01*
X302900Y383300D02*
X311800D01*
X299800Y386400D02*
X302900Y383300D01*
X299800Y397000D02*
X301500Y398700D01*
X371146Y480600D02*
X376400D01*
X358100Y467554D02*
X371146Y480600D01*
X358100Y458246D02*
Y467554D01*
X352622Y452769D02*
X358100Y458246D01*
X333004Y452769D02*
X352622D01*
X299663Y419428D02*
X333004Y452769D01*
X299663Y410400D02*
Y419428D01*
X297986Y408723D02*
X299663Y410400D01*
X291123Y408723D02*
X297986D01*
X281200Y398800D02*
X291123Y408723D01*
X281200Y394400D02*
Y398800D01*
Y394400D02*
X283200Y392400D01*
X286500D01*
X221500Y302244D02*
X239200D01*
X241700Y304744D01*
Y308000D01*
X240800Y308900D02*
X241700Y308000D01*
X239200Y308900D02*
X240800D01*
X200800Y347300D02*
X239200Y308900D01*
X282400Y137844D02*
X286702D01*
X296200Y147342D01*
X264900Y168200D02*
X266000Y169300D01*
X264900Y149800D02*
Y168200D01*
X199156Y182000D02*
Y200156D01*
X211400Y212400D01*
X199156Y182000D02*
X202800D01*
X249000Y271256D02*
X254200Y271256D01*
X284000Y270756D02*
X288244D01*
X334900Y295000D02*
X336656Y296756D01*
X338500D01*
X334744Y316500D02*
X336800D01*
X406500Y279500D02*
X409700Y282700D01*
X388500Y279500D02*
X406500D01*
X277100Y349800D02*
Y351935D01*
X300800Y326100D02*
X325244D01*
X328144Y329000D01*
X335200D01*
X336829Y330629D01*
X327500Y349744D02*
X336829D01*
X321000Y296012D02*
Y300900D01*
X248800Y333300D02*
Y336700D01*
X209769Y557200D02*
X215113Y551856D01*
X207356Y557200D02*
X209769D01*
X178100Y551800D02*
X184500D01*
X192400Y559700D01*
X178100Y530900D02*
Y551800D01*
X156400Y484800D02*
Y509200D01*
Y484800D02*
X159400Y483644D01*
X164200Y425100D02*
X184873D01*
X85900Y421000D02*
X140000D01*
X85900D02*
Y434900D01*
X69600Y350600D02*
X73600D01*
X74600Y351600D01*
Y384800D01*
X73600Y385800D02*
X74600Y384800D01*
X71756Y385800D02*
X73600D01*
X66044Y354156D02*
Y368600D01*
Y354156D02*
X66244Y354000D01*
X275100Y114000D02*
X277680D01*
X282380Y109300D02*
X294900D01*
X340800Y154844D02*
Y167300D01*
X328347Y179753D02*
X340800Y167300D01*
X371715Y138553D02*
X411000D01*
X411753D02*
X421200D01*
X406800Y117600D02*
Y133600D01*
X427500Y116500D02*
X431000Y113000D01*
X414500Y116500D02*
X427500D01*
X512600Y55447D02*
X518247D01*
X523200Y60400D01*
X380500Y97100D02*
X507600D01*
X441100Y304300D02*
X446200D01*
X452700Y310800D01*
X469800Y266500D02*
X475800Y272500D01*
X469800Y247800D02*
Y266500D01*
X454400Y232400D02*
X469800Y247800D01*
X435900Y232400D02*
X454400D01*
X475500Y273800D02*
Y282700D01*
X398800Y389600D02*
Y392100D01*
Y389600D02*
X401800Y388756D01*
X383200Y506200D02*
X399900D01*
X394500Y495200D02*
Y500800D01*
X399900Y506200D01*
X405300Y568615D02*
X408789Y572104D01*
X412154D02*
X412950Y572900D01*
X453858Y576942D02*
X456200Y574600D01*
X437842D02*
X456200D01*
X435500Y576942D02*
X437842Y574600D01*
X218145Y568100D02*
X404669D01*
X143200Y499668D02*
X163500Y519968D01*
X143200Y477300D02*
Y499668D01*
X287200Y363300D02*
Y381600D01*
X349300Y366300D02*
X360000D01*
X362500Y363800D02*
X374500D01*
X374700Y364000D01*
X468600D02*
X472800Y368200D01*
X25760Y454300D02*
X41000D01*
X491000Y129600D02*
Y131447D01*
Y129600D02*
X492000Y128600D01*
X494200D01*
X314500Y422500D02*
X323700D01*
X306600Y414600D02*
X314500Y422500D01*
X306600Y408000D02*
Y414600D01*
X295821Y397221D02*
X306600Y408000D01*
X295821Y388321D02*
Y397221D01*
X292100Y384600D02*
X295821Y388321D01*
X292100Y379200D02*
Y384600D01*
Y379200D02*
X296600Y374700D01*
X318900D01*
X321875Y377675D01*
X380086D01*
X386661Y371100D01*
X391700D01*
X397700Y377100D01*
Y385700D01*
X396100Y387300D02*
X397700Y385700D01*
X396100Y387300D02*
Y394400D01*
X397100Y395400D01*
X422800D01*
X425700Y392500D01*
X422200Y516700D02*
X425400D01*
X420100Y518800D02*
X422200Y516700D01*
X420100Y518800D02*
Y528000D01*
X418400Y529700D02*
X420100Y528000D01*
X410200Y529700D02*
X418400D01*
X404700Y524200D02*
X410200Y529700D01*
X372000Y524200D02*
X404700D01*
X412900Y422900D02*
X413900Y421900D01*
X469100D01*
X472800Y418200D01*
X450700Y539100D02*
X466200Y554600D01*
X445900Y539100D02*
X450700D01*
X427500Y520700D02*
X445900Y539100D01*
X424600Y520700D02*
X427500D01*
X338600Y475300D02*
X346700Y467200D01*
X304328Y475300D02*
X338600D01*
X280128Y499500D02*
X304328Y475300D01*
X164969Y499500D02*
X280128D01*
X323460Y461500D02*
X351100D01*
X305660Y443700D02*
X323460Y461500D01*
X243600Y443700D02*
X305660D01*
X256112Y377688D02*
X265895Y367905D01*
Y348707D02*
Y367905D01*
X251588Y334400D02*
X265895Y348707D01*
X198500Y294000D02*
X203896D01*
X211596Y286300D01*
X195800Y316400D02*
X209372Y329972D01*
X195800Y290900D02*
Y316400D01*
Y290900D02*
X201100Y285600D01*
X203800D01*
X250500Y385400D02*
X267400D01*
X344016Y369216D02*
X367700D01*
X428629Y367700D02*
X438000Y377071D01*
Y399200D02*
X443300Y404500D01*
X484347Y404853D02*
X489253D01*
X250400Y385300D02*
X250500Y385400D01*
X267400D02*
X269295Y383505D01*
Y333645D02*
Y383505D01*
X369600Y102700D02*
X421900Y50400D01*
X493200D01*
X311500Y528800D02*
X404400D01*
X444000Y600000D02*
X444900Y600900D01*
X388600Y600000D02*
X444000D01*
X388500Y600100D02*
X388600Y600000D01*
X406800Y414300D02*
X409200Y411900D01*
X460300D01*
X461200Y411000D01*
X469100D01*
X512800Y418200D02*
X522400Y408600D01*
Y396800D02*
Y408600D01*
X402700Y179000D02*
X514100D01*
X348400Y233300D02*
X402700Y179000D01*
X348400Y233300D02*
Y263800D01*
X344700Y267500D02*
X348400Y263800D01*
X344700Y267500D02*
Y269100D01*
X502500Y550900D02*
X506200Y554600D01*
X491800Y550900D02*
X502500D01*
X489200Y548300D02*
X491800Y550900D01*
X482500Y548300D02*
X489200D01*
X481500Y543200D02*
X482500Y548300D01*
X477800Y539500D02*
X481500Y543200D01*
X464000Y539500D02*
X477800D01*
X461500Y537000D02*
X464000Y539500D01*
X449894Y537000D02*
X461500D01*
X426187Y513294D02*
X449894Y537000D01*
X417400Y513294D02*
X426187D01*
X512800Y67047D02*
X519847D01*
X523200Y70400D01*
X481000Y123000D02*
X481200D01*
X480800Y131247D02*
X481200D01*
Y120800D02*
X484800Y117200D01*
X503200D01*
X505200Y115200D01*
Y110800D02*
Y115200D01*
X503200Y108800D02*
X505200Y110800D01*
X388000Y108800D02*
X503200D01*
X379700Y117100D02*
X388000Y108800D01*
X467800Y130847D02*
X471400D01*
X73989Y416000D02*
Y437189D01*
X77600Y440800D01*
X75600Y456400D02*
X77600Y454400D01*
X68700Y456400D02*
X75600D01*
X77600Y448600D02*
Y454400D01*
X143639Y424500D02*
X159816Y408323D01*
X101700Y424500D02*
X143639D01*
X77600Y448600D02*
X101700Y424500D01*
X66100Y453800D02*
Y456400D01*
X37800Y293600D02*
Y428100D01*
Y293600D02*
X93300Y238100D01*
X195400Y363800D02*
X229400D01*
X170800Y388400D02*
X195400Y363800D01*
X170800Y388400D02*
Y408900D01*
X130750Y448950D02*
X170800Y408900D01*
X87350Y448950D02*
X130750D01*
X78200Y458100D02*
X87350Y448950D01*
X65300Y458100D02*
X78200D01*
X56600Y449400D02*
X65300Y458100D01*
X24800Y449400D02*
X56600D01*
X23000Y451200D02*
X24800Y449400D01*
X23000Y451200D02*
Y562400D01*
X27200Y566600D01*
X37600D01*
X42100Y571100D01*
Y580153D01*
X70500Y608553D01*
X220339Y274500D02*
X239200D01*
X215439Y269600D02*
X220339Y274500D01*
X141200Y269600D02*
X215439D01*
X135700Y264100D02*
X141200Y269600D01*
X103800Y264100D02*
X135700D01*
X97500Y270400D02*
X103800Y264100D01*
X97500Y270400D02*
Y295000D01*
X49300Y343200D02*
X97500Y295000D01*
X49300Y343200D02*
Y368000D01*
X39593Y377707D02*
X49300Y368000D01*
X39593Y377707D02*
Y423593D01*
X47002Y431002D01*
X36100Y435600D02*
X38300Y437800D01*
X36100Y265700D02*
Y435600D01*
Y265700D02*
X67000Y234800D01*
X94200D01*
X121700Y262300D01*
X220741D01*
X225041Y266600D01*
X198600Y458200D02*
X204900Y464500D01*
X198600Y424600D02*
Y458200D01*
Y424600D02*
X222100Y401100D01*
X228200D01*
X83356Y404000D02*
Y413556D01*
X85800Y416000D01*
X89844Y406800D02*
Y414138D01*
X91706Y416000D01*
X107156Y406600D02*
Y413734D01*
X109422Y416000D01*
X119200Y409956D02*
Y413967D01*
X121233Y416000D01*
X181400Y212400D02*
X204200Y235200D01*
X226800D01*
X237000Y245400D01*
X272900D01*
X277300Y241000D01*
X183700Y464500D02*
X200600D01*
X178400Y459200D02*
X183700Y464500D01*
X161900Y508700D02*
X227500D01*
X159800Y506600D02*
X161900Y508700D01*
X159800Y495300D02*
Y506600D01*
Y495300D02*
X162200Y492900D01*
X166500Y496100D02*
X206600D01*
X207700Y495000D01*
X191515Y588600D02*
X204877Y575238D01*
X303200Y200800D02*
X321000D01*
X300000Y197600D02*
X303200Y200800D01*
X300000Y160700D02*
Y197600D01*
X294800Y155500D02*
X300000Y160700D01*
X279100Y155500D02*
X294800D01*
X275400Y159200D02*
X279100Y155500D01*
X275400Y159200D02*
Y166900D01*
X276000Y167500D01*
X239600Y239921D02*
X242279D01*
X297300Y184900D01*
Y172200D02*
Y184900D01*
X284801Y205800D02*
X323000D01*
X323700Y205100D01*
Y191600D02*
Y205100D01*
X313400Y181300D02*
X323700Y191600D01*
X313400Y170300D02*
Y181300D01*
X259900Y170400D02*
X278600Y189100D01*
X280100Y191800D02*
X284000Y187900D01*
X267800Y191800D02*
X280100D01*
X247000Y171000D02*
X267800Y191800D01*
X302400Y236100D02*
X308300Y242000D01*
X286800Y236100D02*
X302400D01*
X273450Y249450D02*
X286800Y236100D01*
X234850Y249450D02*
X273450D01*
X224900Y239500D02*
X234850Y249450D01*
X202500Y239500D02*
X224900D01*
X196500Y233500D02*
X202500Y239500D01*
X232800Y196600D02*
X281398D01*
X229000Y192800D02*
X232800Y196600D01*
X229000Y171500D02*
Y192800D01*
Y171500D02*
X250400Y150100D01*
Y136700D02*
Y150100D01*
X205300Y246500D02*
X216900D01*
X239200Y268800D01*
X282400Y143356D02*
Y146000D01*
X242400Y130000D02*
X265800D01*
X240800Y128400D02*
X242400Y130000D01*
X240800Y124200D02*
Y128400D01*
Y124200D02*
X253700Y111300D01*
X277700D01*
X279400Y109600D01*
Y106400D02*
Y109600D01*
X278600Y105600D02*
X279400Y106400D01*
X250100Y105600D02*
X278600D01*
X244800Y100300D02*
X250100Y105600D01*
X244800Y96700D02*
Y100300D01*
Y96700D02*
X249900Y91600D01*
X284000D01*
X288000Y87600D01*
Y79500D02*
Y87600D01*
X272424Y133924D02*
X274300Y135800D01*
X240976Y133924D02*
X272424D01*
X235494Y139406D02*
X240976Y133924D01*
X207600Y150400D02*
X226600Y169400D01*
X207600Y140000D02*
Y150400D01*
Y140000D02*
X239300Y108300D01*
X276700D01*
X282462Y243300D02*
X300900D01*
X274612Y251150D02*
X282462Y243300D01*
X230550Y251150D02*
X274612D01*
X223100Y243700D02*
X230550Y251150D01*
X152400Y243700D02*
X223100D01*
X146500Y249600D02*
X152400Y243700D01*
X165495Y511995D02*
X203900Y550400D01*
X207436D01*
X275878Y257800D02*
X308700D01*
X273578Y260100D02*
X275878Y257800D01*
X242600Y260100D02*
X273578D01*
X240400Y262300D02*
X242600Y260100D01*
X240400Y262300D02*
Y265700D01*
X241900Y267200D01*
Y270700D01*
X240800Y271800D02*
X241900Y270700D01*
X222186Y271800D02*
X240800D01*
X217286Y266900D02*
X222186Y271800D01*
X143800Y266900D02*
X217286D01*
X183600Y524300D02*
X207600D01*
X208000Y524700D01*
X236048Y379400D02*
X249600D01*
X253900Y383700D01*
X264800D01*
X267595Y380905D01*
Y340795D02*
Y380905D01*
X257600Y330800D02*
X267595Y340795D01*
X459100Y414500D02*
X462800Y418200D01*
X441200Y414500D02*
X459100D01*
X438600Y417100D02*
X441200Y414500D01*
X405600Y417100D02*
X438600D01*
X403955Y415455D02*
X405600Y417100D01*
X403955Y410545D02*
Y415455D01*
Y410545D02*
X405500Y409000D01*
X423200D01*
X431100Y401100D01*
Y381900D02*
Y401100D01*
X418600Y369400D02*
X431100Y381900D01*
X381478Y369400D02*
X418600D01*
X378883Y371996D02*
X381478Y369400D01*
X378883Y371996D02*
Y375378D01*
X378285Y375975D02*
X378883Y375378D01*
X323575Y375975D02*
X378285D01*
X320600Y373000D02*
X323575Y375975D01*
X294580Y373000D02*
X320600D01*
X290400Y377180D02*
X294580Y373000D01*
X290400Y377180D02*
Y381800D01*
X280500Y391700D02*
X290400Y381800D01*
X261400Y391700D02*
X280500D01*
X255550Y381000D02*
X263000D01*
X239200Y364650D02*
X255550Y381000D01*
X239200Y313600D02*
Y364650D01*
X442800Y418200D02*
Y418800D01*
X393400Y407848D02*
X404352Y418800D01*
X393400Y384600D02*
Y407848D01*
Y384600D02*
X395000Y383000D01*
X339116Y370916D02*
X370616D01*
X331000Y362800D02*
X339116Y370916D01*
X301600Y261500D02*
X324400Y284300D01*
X277600Y261500D02*
X301600D01*
X375625Y327000D02*
X385200Y317425D01*
Y312800D02*
Y317425D01*
Y312800D02*
X393028Y304972D01*
Y295172D02*
Y304972D01*
Y295172D02*
X399200Y289000D01*
X413640D01*
X427740Y274900D01*
X441100D01*
X442700Y273300D01*
X442000Y309600D02*
X442800Y308800D01*
X429300Y309600D02*
X442000D01*
X420956Y301256D02*
X429300Y309600D01*
X410836Y301256D02*
X420956D01*
X408800Y303292D02*
X410836Y301256D01*
X408800Y303292D02*
Y320500D01*
X423800Y335500D01*
X428000D01*
X432600Y340100D01*
Y344800D01*
X430000Y347400D02*
X432600Y344800D01*
X401500Y347400D02*
X430000D01*
X445400Y287600D02*
X447700Y289900D01*
Y294400D01*
X446600Y295500D02*
X447700Y294400D01*
X441783Y295500D02*
X446600D01*
X438183Y291900D02*
X441783Y295500D01*
X424893Y291900D02*
X438183D01*
X418937Y297856D02*
X424893Y291900D01*
X406527Y297856D02*
X418937D01*
X405292Y299092D02*
X406527Y297856D01*
X405292Y299092D02*
Y313957D01*
X397650Y321599D02*
X405292Y313957D01*
X397650Y321599D02*
Y339500D01*
X375300Y361850D02*
X397650Y339500D01*
X360355Y361850D02*
X375300D01*
X358605Y363600D02*
X360355Y361850D01*
X274800Y128044D02*
X274919Y128163D01*
X280957D01*
X282400Y126444D02*
Y126720D01*
X113000Y409556D02*
Y413672D01*
X115328Y416000D01*
X125000Y409156D02*
Y413861D01*
X127139Y416000D01*
X131600Y408956D02*
Y414556D01*
X133044Y416000D01*
X141400Y408556D02*
Y413550D01*
X138950Y416000D02*
X141400Y413550D01*
X101644Y406600D02*
Y414127D01*
X103517Y416000D01*
X95356Y406800D02*
Y413745D01*
X97611Y416000D01*
X374600Y373700D02*
X375100Y373200D01*
X325544Y373700D02*
X374600D01*
X314700Y362856D02*
X325544Y373700D01*
X451700Y436300D02*
X471000Y455600D01*
X429100Y436300D02*
X451700D01*
X425300Y432500D02*
X429100Y436300D01*
X77844Y404000D02*
Y413950D01*
X79894Y416000D01*
X212700Y557200D02*
X220900Y565400D01*
X278000Y350944D02*
X279200Y349744D01*
X281000D01*
X374300Y276400D02*
Y286200D01*
X373900Y286600D02*
X374300Y286200D01*
X250756Y311000D02*
X253256D01*
X280366Y111314D02*
X292514D01*
X303600Y122400D01*
Y132300D01*
X301600Y134300D02*
X303600Y132300D01*
X297344Y134300D02*
X301600D01*
X295000Y131956D02*
X297344Y134300D01*
X282400Y131956D02*
X295000D01*
X309300Y410300D02*
X317700Y418700D01*
X330054D01*
X363200Y451846D01*
Y456266D01*
X375434Y468500D01*
X380800D01*
X425700Y534000D02*
Y538800D01*
X424600Y539900D02*
X425700Y538800D01*
X299900Y539900D02*
X424600D01*
X298300Y538300D02*
X299900Y539900D01*
X292939Y538300D02*
X298300D01*
X291339Y539900D02*
X292939Y538300D01*
X287222Y539900D02*
X291339D01*
X284000Y536678D02*
X287222Y539900D01*
X364100Y366500D02*
X364600Y366000D01*
X431700D01*
X437600Y371900D01*
X495200D01*
X498900Y368200D01*
Y359300D02*
Y368200D01*
X497800Y358200D02*
X498900Y359300D01*
X521500Y353900D02*
X542700Y375100D01*
X441800Y353900D02*
X521500D01*
X324500Y341600D02*
X334000Y332100D01*
X324500Y341600D02*
Y354400D01*
X325356Y355256D01*
X456100Y384900D02*
X497400D01*
X452800Y388200D02*
X456100Y384900D01*
X461000Y455600D02*
X474500Y469100D01*
X511300D01*
X514600Y465800D01*
Y450300D02*
Y465800D01*
Y450300D02*
X523400Y441500D01*
X485800Y409153D02*
X487400Y407553D01*
X476200Y409153D02*
X485800D01*
X388600Y325400D02*
Y327000D01*
X371800Y343800D02*
X388600Y327000D01*
X411500Y309500D02*
Y319200D01*
X425800Y333500D01*
X429400D01*
X434300Y338400D01*
Y352200D01*
X444400Y362300D01*
X494100D01*
X495200Y363400D01*
X347300Y511500D02*
X404200D01*
X415300Y500400D01*
X472100D01*
X521600Y549900D02*
Y584700D01*
X503900Y588300D02*
X518000D01*
X496200Y584600D02*
X500200D01*
X470400Y535200D02*
X472000Y536800D01*
X478400D01*
X486200Y544600D01*
X435000Y330800D02*
X447700Y343500D01*
X427000Y330800D02*
X435000D01*
X368500Y369200D02*
X370000Y367700D01*
X422300D01*
X475300Y266100D02*
X476600Y267400D01*
X475300Y205400D02*
Y266100D01*
Y205400D02*
X477800Y202900D01*
X473100Y190183D02*
Y263900D01*
Y190183D02*
X475115Y188168D01*
X507768D01*
X557800Y238200D01*
X41293Y412700D02*
Y421100D01*
Y412700D02*
X61000Y392993D01*
Y353500D02*
Y392993D01*
Y353500D02*
X132700Y281800D01*
X209800D01*
X214300Y277300D01*
X35200Y469600D02*
Y551600D01*
Y469600D02*
X38900Y465900D01*
X126600D01*
X168300Y441200D02*
Y441300D01*
X164200Y445400D02*
X168300Y441300D01*
X146400Y445400D02*
X164200D01*
X136353Y455447D02*
X146400Y445400D01*
X122753Y455447D02*
X136353D01*
X122100Y456100D02*
X122753Y455447D01*
X374700Y364000D02*
X468600D01*
X360000Y366300D02*
X362500Y363800D01*
X343100Y360100D02*
X349300Y366300D01*
X290400Y360100D02*
X343100D01*
X287200Y363300D02*
X290400Y360100D01*
X280000Y388800D02*
X287200Y381600D01*
X142700Y464300D02*
X156200D01*
X140400Y462000D02*
X142700Y464300D01*
X48000Y462000D02*
X140400D01*
X44400Y458400D02*
X48000Y462000D01*
X481400Y199900D02*
X483800Y202300D01*
X478700Y234100D02*
X483800Y229000D01*
X478700Y234100D02*
Y258800D01*
X482100Y262200D01*
X488885D01*
X491085Y260000D01*
Y252215D02*
Y260000D01*
Y252215D02*
X499900Y243400D01*
X519300D01*
X534100Y258200D01*
X557800D01*
X155000Y452244D02*
X159400Y456644D01*
X152000Y452244D02*
X155000D01*
X255200Y272856D02*
Y277800D01*
Y272856D02*
X256800Y271256D01*
X371756Y474600D02*
X376700D01*
X361500Y464344D02*
X371756Y474600D01*
X361500Y453546D02*
Y464344D01*
X333203Y425249D02*
X361500Y453546D01*
X312973Y425249D02*
X333203D01*
X303537Y415813D02*
X312973Y425249D01*
X303537Y407637D02*
Y415813D01*
X291000Y395100D02*
X303537Y407637D01*
X425400Y324600D02*
X449500D01*
X465500Y340600D01*
X318500Y264988D02*
X336588D01*
X470400Y189483D02*
Y194400D01*
Y189483D02*
X473415Y186468D01*
X509768D01*
X523900Y200600D01*
X548900D01*
X555600Y193900D01*
X568800D01*
X572000Y190700D01*
Y132153D02*
Y190700D01*
X512800Y72953D02*
X572000Y132153D01*
X300200Y138700D02*
X305300Y133600D01*
X277800Y94300D02*
X298300D01*
X477000Y215400D02*
X481100Y211300D01*
X477000Y215400D02*
Y259600D01*
X483800Y266400D01*
Y272900D01*
X478500Y278200D02*
X483800Y272900D01*
X44461Y416000D02*
X49561Y421100D01*
X141400Y440900D02*
X163000D01*
X131650Y450650D02*
X141400Y440900D01*
X121762Y450650D02*
X131650D01*
X116600Y455812D02*
X121762Y450650D01*
X116600Y455812D02*
Y459300D01*
X115400Y446200D02*
X121400D01*
X145400Y460700D02*
Y461600D01*
X151200Y460700D02*
X152000Y459900D01*
Y457756D02*
Y459900D01*
X141900Y466000D02*
Y467600D01*
X87700Y476700D02*
X131200D01*
X72228Y492172D02*
X87700Y476700D01*
X72228Y492172D02*
Y605225D01*
X77025D01*
X78200Y606400D01*
Y610400D01*
X76800Y611800D02*
X78200Y610400D01*
X55400Y611800D02*
X76800D01*
X35200Y591600D02*
X55400Y611800D01*
X355400Y459646D02*
Y474700D01*
X348400Y481700D02*
X355400Y474700D01*
X305600Y481700D02*
X348400D01*
X284000Y503300D02*
X305600Y481700D01*
X164100Y503300D02*
X284000D01*
X162554Y504846D02*
X164100Y503300D01*
X139600Y458200D02*
X140044Y457756D01*
X145000D01*
X123200Y467600D02*
X128245Y472645D01*
X74400Y467600D02*
X123200D01*
X53600Y488400D02*
X74400Y467600D01*
X53600Y488400D02*
Y543200D01*
X35200Y561600D02*
X53600Y543200D01*
X136315Y588715D02*
X138200Y586830D01*
X139834D01*
X142364Y584300D01*
X171270D01*
X175685Y588715D01*
X148700Y509200D02*
Y558000D01*
X140800Y565900D02*
X148700Y558000D01*
X140800Y565900D02*
Y582500D01*
X139000Y584300D02*
X140800Y582500D01*
X133600Y584300D02*
X139000D01*
X131900Y586000D02*
X133600Y584300D01*
X131900Y586000D02*
Y593800D01*
X111500Y614200D02*
X131900Y593800D01*
X51100Y614200D02*
X111500D01*
X44300Y607400D02*
X51100Y614200D01*
X34400Y607400D02*
X44300D01*
X31000Y604000D02*
X34400Y607400D01*
X31000Y575800D02*
Y604000D01*
Y575800D02*
X35200Y571600D01*
X129000Y490600D02*
X140500D01*
X84700Y534900D02*
X129000Y490600D01*
X62000Y597753D02*
X72800Y608553D01*
X62000Y593200D02*
Y597753D01*
X217000Y291900D02*
X221700Y296600D01*
X217000Y274561D02*
Y291900D01*
X214262Y271824D02*
X217000Y274561D01*
X108971Y271824D02*
X214262D01*
X104700Y267553D02*
X108971Y271824D01*
X79894Y416000D02*
Y428894D01*
X85900Y434900D01*
X237944Y290256D02*
X238800Y289400D01*
X481400Y235400D02*
Y250400D01*
X495500Y264900D02*
X496200Y265600D01*
X502600D01*
X479700Y194500D02*
X485470D01*
X487685Y196715D01*
X485230Y257800D02*
X487685Y255344D01*
Y234015D02*
X494200Y227500D01*
X532100D01*
X481600Y255900D02*
Y258400D01*
X483700Y260500D01*
X487285D01*
X489385Y258400D01*
Y251488D02*
Y258400D01*
Y251488D02*
X500500Y240374D01*
X531474D01*
X543600Y252500D01*
X560000D01*
X562100Y250400D01*
Y222500D02*
Y250400D01*
X557800Y218200D02*
X562100Y222500D01*
X445400Y200400D02*
X461032Y184768D01*
X511968D01*
X512000Y184800D01*
X510400Y55447D02*
X512600D01*
X509600Y56247D02*
X510400Y55447D01*
X509600Y56247D02*
Y94400D01*
X283100Y114100D02*
X289800D01*
X327100Y125800D02*
Y134600D01*
X316100Y145600D02*
X327100Y134600D01*
X340800Y131100D02*
Y149000D01*
X331900Y122200D02*
X340800Y131100D01*
X311715Y122200D02*
X331900D01*
X264800Y123431D02*
X274231Y114000D01*
X264800Y123431D02*
Y124300D01*
X270900Y122500D02*
X293900D01*
X266400Y127000D02*
X270900Y122500D01*
X243900Y127000D02*
X266400D01*
X243600Y127300D02*
X243900Y127000D01*
X259000Y98500D02*
X264400Y103900D01*
X296000D01*
X298100Y106000D01*
X483000Y10200D02*
X523200Y50400D01*
X128000Y10200D02*
X483000D01*
X68800Y350200D02*
X110700Y308300D01*
X68000Y354000D02*
X68800Y353200D01*
X66244Y354000D02*
X68000D01*
X66244Y379812D02*
Y385800D01*
X152300Y437400D02*
X169200D01*
X171000Y439200D01*
Y446700D01*
X165456Y452244D02*
X171000Y446700D01*
X131600Y401600D02*
X132400Y400800D01*
X131600Y401600D02*
Y403444D01*
X332744Y271500D02*
Y276669D01*
X338256Y281200D02*
X338500Y281444D01*
X338256Y271500D02*
Y281200D01*
X329900Y287200D02*
X330400Y286700D01*
X284438Y287200D02*
X329900D01*
X263200Y265962D02*
X284438Y287200D01*
X476100Y577600D02*
X478200Y575500D01*
X489400D01*
X492600Y578700D01*
X499860D01*
X501160Y580000D01*
X511600D01*
X516200Y584600D01*
X360869Y295163D02*
Y311969D01*
Y295163D02*
X361782Y294250D01*
Y264318D02*
Y294250D01*
Y264318D02*
X368000Y258100D01*
X398000D01*
X399100Y259200D01*
Y261500D01*
X402300Y197600D02*
Y258300D01*
X539906Y195000D02*
X551000D01*
X557800Y188200D01*
X526800Y197800D02*
X533000D01*
X534000Y196800D01*
Y195000D02*
Y196800D01*
X478500Y278200D02*
X557800D01*
X512800Y72953D02*
Y111200D01*
X501000Y123000D02*
X512800Y111200D01*
X456300Y131247D02*
X461400D01*
X453247Y134300D02*
X456300Y131247D01*
X435500Y134300D02*
X453247D01*
X343100Y226700D02*
X435500Y134300D01*
X343100Y226700D02*
Y265100D01*
X433100Y131247D02*
X441000D01*
X234200Y148800D02*
X241000Y142000D01*
X210300Y148800D02*
X234200D01*
X308500Y246000D02*
X341300Y213200D01*
X283300Y246000D02*
X308500D01*
X272400Y256900D02*
X283300Y246000D01*
X253732Y256900D02*
X272400D01*
X181400Y202400D02*
X210000Y231000D01*
X225500D01*
X237200Y242700D01*
X243900D01*
X251700Y234900D01*
X275700D01*
X376800Y404800D02*
X379900Y407900D01*
Y411200D01*
X378400Y412700D02*
X379900Y411200D01*
X365974Y412700D02*
X378400D01*
X364000Y414674D02*
X365974Y412700D01*
X364000Y414674D02*
Y439371D01*
X372329Y447700D01*
X269900Y268700D02*
X271956Y270756D01*
X284000D01*
X288100Y536600D02*
X421798D01*
X422398Y537200D01*
X432002Y530402D02*
X456200Y554600D01*
X424800Y530402D02*
X432002D01*
X422398Y532803D02*
X424800Y530402D01*
X422398Y532803D02*
Y537200D01*
X316000Y548600D02*
X390500D01*
X393700Y551800D01*
X370200Y294600D02*
X372700Y292100D01*
X370200Y294600D02*
Y316400D01*
X367600Y319000D02*
X370200Y316400D01*
X367600Y319000D02*
Y326392D01*
X364540Y329451D02*
X367600Y326392D01*
X356208Y329451D02*
X364540D01*
X354657Y327900D02*
X356208Y329451D01*
X354657Y324343D02*
Y327900D01*
Y324343D02*
X359100Y319900D01*
X506200Y564600D02*
X511600Y559200D01*
Y550900D02*
Y559200D01*
X509900Y549200D02*
X511600Y550900D01*
X493550Y549200D02*
X509900D01*
X492500Y548150D02*
X493550Y549200D01*
X492500Y538933D02*
Y548150D01*
X486067Y532500D02*
X492500Y538933D01*
X467700Y532500D02*
X486067D01*
X466100Y534100D02*
X467700Y532500D01*
X450145Y534100D02*
X466100D01*
X427636Y511591D02*
X450145Y534100D01*
X427636Y505807D02*
Y511591D01*
X516200Y574600D02*
X519900Y570900D01*
Y563067D02*
Y570900D01*
X517733Y560900D02*
X519900Y563067D01*
X514400Y560900D02*
X517733D01*
X512500Y562800D02*
X514400Y560900D01*
X512500Y562800D02*
Y564100D01*
X508000Y568600D02*
X512500Y564100D01*
X497200Y568600D02*
X508000D01*
X487800Y559200D02*
X497200Y568600D01*
X451400Y559200D02*
X487800D01*
X431800Y539600D02*
X451400Y559200D01*
X269600Y261900D02*
X272944Y265244D01*
X256544Y261900D02*
X269600D01*
X252700Y265744D02*
X256544Y261900D01*
X249000Y265744D02*
X252700D01*
X277600Y265244D02*
X284000D01*
X340256Y307500D02*
X340600D01*
X513600Y484600D02*
X524500Y473700D01*
X419400Y484600D02*
X513600D01*
X271000Y573300D02*
X381600D01*
X383500Y575200D01*
Y586524D01*
X385276Y588300D01*
X395976D01*
X273200Y125300D02*
X277800D01*
X272100Y126400D02*
X273200Y125300D01*
X272100Y126400D02*
Y129600D01*
X277600Y135100D01*
Y137400D01*
X276000Y139000D02*
X277600Y137400D01*
X266947Y139000D02*
X276000D01*
X231700Y174247D02*
X266947Y139000D01*
X221500Y290256D02*
X221700D01*
X376700Y279500D02*
Y292100D01*
Y279500D02*
X388500Y267700D01*
X365300Y300000D02*
X366200Y299100D01*
Y292500D02*
Y299100D01*
Y292500D02*
X367900Y290800D01*
Y271100D02*
Y290800D01*
Y271100D02*
X368500Y270500D01*
X318500D02*
X322630D01*
X481000Y292300D02*
X481900Y291400D01*
X511000D01*
X557800Y338200D01*
X501600Y296500D02*
X506100D01*
X557800Y348200D01*
X506200Y592000D02*
Y594600D01*
X499900Y590900D02*
X501000Y592000D01*
X493300Y590900D02*
X499900D01*
X491600Y589200D02*
X493300Y590900D01*
X482500Y589200D02*
X491600D01*
X480800Y590900D02*
X482500Y589200D01*
X414452Y590900D02*
X480800D01*
X403652Y580100D02*
X414452Y590900D01*
X395600Y580100D02*
X403652D01*
X390900Y584800D02*
X395600Y580100D01*
X380800Y576814D02*
Y586700D01*
X392287Y598187D01*
X447601D01*
X449514Y600100D01*
X470700D01*
X476200Y594600D01*
X450800Y530800D02*
X492400D01*
X506200Y544600D01*
X318500Y260700D02*
Y264988D01*
X211900Y453600D02*
X262300D01*
X210712Y452412D02*
X211900Y453600D01*
X405671Y587571D02*
X412700Y594600D01*
X466200D01*
X462132Y580532D02*
X466200Y584600D01*
X412597Y580532D02*
X462132D01*
X407569Y575504D02*
X412597Y580532D01*
X402904Y575504D02*
X407569D01*
X401500Y574100D02*
X402904Y575504D01*
X406650Y555200D02*
X408550Y557100D01*
X429500D01*
X350475Y343575D02*
X359983Y353083D01*
X350475Y332611D02*
Y343575D01*
X348000Y330136D02*
X350475Y332611D01*
X343200Y330136D02*
X348000D01*
X342300Y329236D02*
X343200Y330136D01*
X342300Y320085D02*
Y329236D01*
Y320085D02*
X344556Y317829D01*
Y306677D02*
Y317829D01*
X342400Y304521D02*
X344556Y306677D01*
X342400Y284600D02*
Y304521D01*
X389900Y383400D02*
X391500Y381800D01*
Y373600D02*
Y381800D01*
X390700Y372800D02*
X391500Y373600D01*
X387403Y372800D02*
X390700D01*
X380103Y380100D02*
X387403Y372800D01*
X318900Y380100D02*
X380103D01*
X316200Y377400D02*
X318900Y380100D01*
X192400Y559700D02*
X198100Y565400D01*
X470000Y293400D02*
X475100Y298500D01*
X491700D02*
X493400Y300200D01*
X244900Y319900D02*
X245244Y320244D01*
Y323500D01*
X276600Y98500D02*
X282000D01*
X272400Y94300D02*
X276600Y98500D01*
X253800Y94300D02*
X272400D01*
X201300Y429900D02*
X229050D01*
X232500Y370700D02*
X235200Y373400D01*
X218900Y370700D02*
X232500D01*
X452800Y428200D02*
X456500Y424500D01*
X474400D01*
X477400Y427500D01*
Y431800D01*
X479200Y433600D01*
X488200D01*
X489100Y432700D01*
Y426400D02*
Y432700D01*
Y426400D02*
X491900Y423600D01*
X496500D01*
X498200Y421900D01*
X504800D01*
X506500Y420200D01*
Y419200D02*
Y420200D01*
Y419200D02*
X513800Y411900D01*
X514400D01*
X519700Y406600D01*
Y395100D02*
Y406600D01*
X512800Y388200D02*
X519700Y395100D01*
X448400Y431900D02*
X459100D01*
X445800Y429300D02*
X448400Y431900D01*
X421600Y429300D02*
X445800D01*
X417300Y433600D02*
X421600Y429300D01*
X417300Y433600D02*
Y444900D01*
X327200Y456800D02*
X343000D01*
X292400Y422000D02*
X327200Y456800D01*
X220600Y422000D02*
X292400D01*
X214500Y415900D02*
X220600Y422000D01*
X206800Y440000D02*
Y450200D01*
X205200Y451800D02*
X206800Y450200D01*
X318500Y389400D02*
X320900Y387000D01*
X367300D01*
X372800Y392500D01*
X286400Y355000D02*
X286656Y355256D01*
X389900Y383400D02*
Y408900D01*
X397900Y416900D01*
X376800Y384100D02*
Y404800D01*
X302500Y330000D02*
X324600D01*
X326700Y332100D01*
X334000D01*
X330400Y326500D02*
X331200Y327300D01*
X330400Y292800D02*
Y326500D01*
X328100Y290500D02*
X330400Y292800D01*
X332000Y340000D02*
X334244D01*
X327500Y344500D02*
X332000Y340000D01*
X327500Y344500D02*
Y349744D01*
X302500Y330000D02*
Y351200D01*
X298444Y355256D02*
X302500Y351200D01*
X260900Y362700D02*
X264195Y359405D01*
X250928Y401528D02*
X251100Y401700D01*
X250928Y389600D02*
Y401528D01*
X253428Y387100D02*
X270100D01*
X277100Y380100D01*
X270000Y328100D02*
X277100Y335200D01*
X254600Y329300D02*
X255800Y328100D01*
X247400Y330400D02*
X248500Y329300D01*
X247400Y330400D02*
Y336800D01*
X264195Y353595D02*
Y359405D01*
X257400Y362700D02*
X260900D01*
X245244Y323500D02*
Y325600D01*
X246144Y326500D01*
X252765D01*
X252865Y326400D01*
X257300D01*
X258800Y324900D01*
X252000Y293000D02*
X258800D01*
X303100Y394400D02*
X305400Y392100D01*
Y386200D02*
Y392100D01*
X300100Y380700D02*
X313890D01*
X315800Y382610D01*
Y396000D01*
X317200Y397400D01*
X283900Y397000D02*
X291700Y404800D01*
X298168D01*
X301744Y408376D01*
Y416609D01*
X336041Y450906D01*
X353906D01*
X359800Y456800D01*
Y466424D01*
X371212Y477836D01*
X379100D01*
X380200Y478936D01*
X195300Y530900D02*
X211000D01*
X214700Y527200D01*
Y516400D02*
Y527200D01*
X216400Y474200D02*
X225700Y483500D01*
X180700Y474200D02*
X216400D01*
X216900Y481200D02*
X223700Y488000D01*
X291500Y544700D02*
X411649D01*
X419249Y552300D01*
X295600Y541000D02*
X297200Y542600D01*
X419500D01*
X423300Y546400D01*
Y553500D01*
X421600Y555200D02*
X423300Y553500D01*
X406650Y555200D02*
X421600D01*
X308600Y147100D02*
Y182400D01*
X258500Y356800D02*
X259895Y358195D01*
X258500Y354256D02*
Y356800D01*
X259500Y265744D02*
X261600D01*
X262500Y266644D02*
Y282500D01*
X247744Y297000D02*
X248000D01*
X254756Y283000D02*
Y283556D01*
X263545Y292345D01*
Y295200D01*
X261745Y297000D02*
X263545Y295200D01*
X251756Y342767D02*
Y347500D01*
X220100Y447200D02*
X271168D01*
X271193Y447226D01*
X199000Y557200D02*
X201844D01*
X461200Y310800D02*
X473100D01*
X279400Y129720D02*
Y142400D01*
X280356Y143356D01*
X282400D01*
X423678Y383244D02*
X428400Y387966D01*
X401800Y383244D02*
X423678D01*
X329700Y290500D02*
X330444Y291244D01*
X268000Y79500D02*
X276200Y87700D01*
X278168Y161000D02*
X286100D01*
X297300Y172200D01*
X244500Y266200D02*
Y280800D01*
X246700Y283000D02*
X249244D01*
X245744Y265744D02*
X249000D01*
X342315Y390115D02*
X362200Y410000D01*
X377200D01*
X459100Y431900D02*
X462800Y428200D01*
X412200Y435900D02*
X418800Y429300D01*
X407500Y435900D02*
X412200D01*
X334244Y342744D02*
X335200Y343700D01*
X334244Y340000D02*
Y342744D01*
X364800Y463700D02*
X372321Y471221D01*
X379821D01*
X383900Y475300D01*
Y483023D01*
X383294Y483629D02*
X383900Y483023D01*
X369729Y483629D02*
X383294D01*
X364800Y478700D02*
X369729Y483629D01*
X295300Y496500D02*
X313000Y514200D01*
X403299D01*
X416099Y527000D01*
X462800Y388200D02*
X502800D01*
X452800Y398200D02*
X462800Y388200D01*
X248800Y354256D02*
X258500D01*
X246244Y351700D02*
X248800Y354256D01*
X246244Y347500D02*
Y351700D01*
X253256Y297000D02*
X253256D01*
Y306000D01*
X247744Y311000D02*
Y312911D01*
X242200Y318455D02*
X247744Y312911D01*
X242200Y345700D02*
X244000Y347500D01*
X246244D01*
X298000Y296012D02*
Y321788D01*
X296988Y322800D02*
X298000Y321788D01*
X445400Y200400D02*
Y214900D01*
X250756Y318800D02*
Y323500D01*
X249156Y317200D02*
X250756Y318800D01*
X221500Y307756D02*
Y319200D01*
X400800Y476400D02*
X506800D01*
X523300Y459900D01*
X524000D01*
X528200Y455700D01*
Y423100D02*
Y455700D01*
Y423100D02*
X548100Y403200D01*
X559800D01*
X563800Y399200D01*
Y374200D02*
Y399200D01*
X557800Y368200D02*
X563800Y374200D01*
X534647Y424047D02*
Y437800D01*
X533200Y422600D02*
X534647Y424047D01*
X515800Y428200D02*
X531800Y412200D01*
X502800Y428200D02*
X515800D01*
X481350Y215250D02*
X483800Y212800D01*
X445400Y214900D02*
Y228600D01*
X218500Y299800D02*
X221700Y296600D01*
X218500Y299800D02*
Y304800D01*
X219856Y306156D01*
X401800Y388756D02*
Y390356D01*
X466200Y414500D02*
X474400D01*
X476500Y416600D01*
Y421900D01*
X479100Y424500D01*
Y430200D01*
X480800Y431900D01*
X485600D01*
X486500Y431000D01*
Y421900D02*
Y431000D01*
X243500Y311000D02*
X247744D01*
X221500Y306156D02*
Y307756D01*
X476200Y409153D02*
Y410700D01*
X478200Y412700D01*
Y420686D01*
X482800Y425286D01*
Y428200D01*
X554100Y384500D02*
X557800Y388200D01*
X511000Y384500D02*
X554100D01*
X509100Y386400D02*
X511000Y384500D01*
X509100Y386400D02*
Y413237D01*
X508571Y413766D02*
X509100Y413237D01*
X500434Y413766D02*
X508571D01*
X496500Y417700D02*
X500434Y413766D01*
X496500Y417700D02*
Y420000D01*
X494600Y421900D02*
X496500Y420000D01*
X486500Y421900D02*
X494600D01*
X482800Y418200D02*
X486500Y421900D01*
X442800Y388200D02*
X447800Y393200D01*
Y399200D01*
X453100Y404500D01*
X459700D01*
X461300Y406100D01*
X483100D01*
X484347Y404853D01*
X489253D02*
X490100Y405700D01*
X500300D01*
X502800Y408200D01*
X483800Y253700D02*
X485500Y252000D01*
Y198237D02*
Y252000D01*
X484463Y197200D02*
X485500Y198237D01*
X478200Y197200D02*
X484463D01*
X476200Y199200D02*
X478200Y197200D01*
X221500Y284744D02*
X225444D01*
X75200Y602647D02*
X77600D01*
Y498900D02*
Y602647D01*
X113000Y402400D02*
Y404044D01*
Y402400D02*
X114600Y400800D01*
X141400D02*
Y403044D01*
X278000Y74500D02*
X283000Y69500D01*
X273000Y74500D02*
X278000D01*
X268000Y79500D02*
X273000Y74500D01*
X66644Y408655D02*
X73989Y416000D01*
X66644Y404000D02*
Y408655D01*
X249000Y271256D02*
X252000D01*
X254756Y274012D01*
X290000Y349744D02*
X293600D01*
X296988Y346356D01*
Y330000D02*
Y346356D01*
X492800Y408353D02*
Y418200D01*
X247744Y297256D02*
Y306000D01*
X446200Y136953D02*
X451200D01*
X446000Y137153D02*
X446200Y136953D01*
X441000Y137153D02*
X446000D01*
X456400D02*
X461400D01*
X456200Y136953D02*
X456400Y137153D01*
X451200Y136953D02*
X456200D01*
X466600Y136753D02*
X471400D01*
X466200Y137153D02*
X466600Y136753D01*
X461400Y137153D02*
X466200D01*
X476300D02*
X480800D01*
X475900Y136753D02*
X476300Y137153D01*
X471400Y136753D02*
X475900D01*
X486000Y137353D02*
X491000D01*
X485800Y137153D02*
X486000Y137353D01*
X480800Y137153D02*
X485800D01*
X340256Y311900D02*
Y316500D01*
Y311900D02*
X340256Y311900D01*
X187700Y182000D02*
X193644D01*
X187300Y182400D02*
X187700Y182000D01*
X181400Y182400D02*
X187300D01*
X282400Y131956D02*
Y137844D01*
X253256Y306000D02*
Y311000D01*
X326100Y271500D02*
X332744D01*
X325100Y270500D02*
X326100Y271500D01*
X334744Y303956D02*
Y307500D01*
Y303956D02*
X338500Y300200D01*
Y296756D02*
Y300200D01*
X334744Y307500D02*
Y316500D01*
X285400Y349744D02*
X290000D01*
X285400Y349744D02*
X285400Y349744D01*
X281000Y349744D02*
X285400D01*
X298000Y296012D02*
X321000D01*
X255744Y348744D02*
X258500D01*
X254500Y347500D02*
X255744Y348744D01*
X251756Y347500D02*
X254500D01*
X128400Y403444D02*
X131600D01*
X128200Y403644D02*
X128400Y403444D01*
X125000Y403644D02*
X128200D01*
X122500D02*
X125000D01*
X121700Y404444D02*
X122500Y403644D01*
X119200Y404444D02*
X121700D01*
X116300D02*
X119200D01*
X115900Y404044D02*
X116300Y404444D01*
X113000Y404044D02*
X115900D01*
X72156Y404000D02*
X77844D01*
X72156Y395100D02*
Y404000D01*
X71756Y394700D02*
X72156Y395100D01*
X71756Y385800D02*
Y394700D01*
X431000Y113000D02*
X441000D01*
X451000D01*
X461000D01*
X471000D01*
X481000D01*
X491000D01*
X451200Y127100D02*
Y131047D01*
X451000Y126900D02*
X451200Y127100D01*
X451000Y123000D02*
Y126900D01*
X421200Y127900D02*
Y132647D01*
X421000Y127700D02*
X421200Y127900D01*
X421000Y123000D02*
Y127700D01*
X411000Y123000D02*
Y132647D01*
X512800Y64300D02*
Y67047D01*
X512600Y64100D02*
X512800Y64300D01*
X512600Y61353D02*
Y64100D01*
X461400Y127300D02*
Y131247D01*
X461000Y126900D02*
X461400Y127300D01*
X461000Y123000D02*
Y126900D01*
X441000Y123000D02*
Y131247D01*
X471400Y127100D02*
Y130847D01*
X471000Y126700D02*
X471400Y127100D01*
X471000Y123000D02*
Y126700D01*
X71556Y361400D02*
Y368600D01*
Y361400D02*
X71756Y361200D01*
Y354000D02*
Y361200D01*
X549300Y438200D02*
X557800D01*
X548900Y437800D02*
X549300Y438200D01*
X540553Y437800D02*
X548900D01*
D34*
X136315Y588715D02*
D03*
X156000D02*
D03*
Y608400D02*
D03*
X175685Y618242D02*
D03*
X136315D02*
D03*
X175685Y608400D02*
D03*
X136315D02*
D03*
X175685Y588715D02*
D03*
X165842D02*
D03*
X146157D02*
D03*
X191515Y588600D02*
D03*
X211200D02*
D03*
Y608285D02*
D03*
X230885Y618127D02*
D03*
X191515D02*
D03*
X230885Y608285D02*
D03*
X191515D02*
D03*
X230885Y588600D02*
D03*
X221043D02*
D03*
X201358D02*
D03*
D35*
X490400Y455200D02*
D03*
X500400D02*
D03*
X510400D02*
D03*
X461000Y455600D02*
D03*
X471000D02*
D03*
X381800Y68600D02*
D03*
X391800D02*
D03*
X501000Y113000D02*
D03*
X491000Y123000D02*
D03*
Y113000D02*
D03*
X481000Y123000D02*
D03*
Y113000D02*
D03*
X471000Y123000D02*
D03*
Y113000D02*
D03*
X461000Y123000D02*
D03*
Y113000D02*
D03*
X451000Y123000D02*
D03*
Y113000D02*
D03*
X441000Y123000D02*
D03*
Y113000D02*
D03*
X431000Y123000D02*
D03*
Y113000D02*
D03*
X421000Y123000D02*
D03*
Y113000D02*
D03*
X411000Y123000D02*
D03*
Y113000D02*
D03*
D36*
X520400Y455200D02*
D03*
X451000Y455600D02*
D03*
X371800Y68600D02*
D03*
X501000Y123000D02*
D03*
D37*
X523200Y40400D02*
D03*
X211400Y182400D02*
D03*
D38*
X523200Y50400D02*
D03*
Y60400D02*
D03*
Y70400D02*
D03*
X493200D02*
D03*
Y60400D02*
D03*
Y50400D02*
D03*
Y40400D02*
D03*
X211400Y192400D02*
D03*
Y202400D02*
D03*
Y212400D02*
D03*
X181400D02*
D03*
Y202400D02*
D03*
Y192400D02*
D03*
Y182400D02*
D03*
X472800Y358200D02*
D03*
X462800Y368200D02*
D03*
Y358200D02*
D03*
X452800Y368200D02*
D03*
Y358200D02*
D03*
X442800Y368200D02*
D03*
X452800Y378200D02*
D03*
X442800D02*
D03*
X452800Y388200D02*
D03*
X442800D02*
D03*
X452800Y398200D02*
D03*
X442800D02*
D03*
X452800Y408200D02*
D03*
X442800D02*
D03*
X452800Y418200D02*
D03*
X442800D02*
D03*
X452800Y428200D02*
D03*
X462800Y418200D02*
D03*
Y428200D02*
D03*
X472800Y418200D02*
D03*
Y428200D02*
D03*
X482800Y418200D02*
D03*
Y428200D02*
D03*
X492800Y418200D02*
D03*
Y428200D02*
D03*
X502800Y418200D02*
D03*
Y428200D02*
D03*
X512800Y418200D02*
D03*
X502800Y408200D02*
D03*
X512800D02*
D03*
X502800Y398200D02*
D03*
X512800D02*
D03*
X502800Y388200D02*
D03*
X512800D02*
D03*
X502800Y378200D02*
D03*
X512800D02*
D03*
X502800Y368200D02*
D03*
X512800D02*
D03*
X502800Y358200D02*
D03*
X492800Y368200D02*
D03*
Y358200D02*
D03*
X482800Y368200D02*
D03*
Y358200D02*
D03*
X472800Y368200D02*
D03*
X456200Y554600D02*
D03*
Y564600D02*
D03*
Y574600D02*
D03*
X466200Y564600D02*
D03*
Y574600D02*
D03*
X456200Y584600D02*
D03*
X466200D02*
D03*
X476200D02*
D03*
X486200D02*
D03*
X496200D02*
D03*
X466200Y594600D02*
D03*
X476200D02*
D03*
X486200D02*
D03*
X496200D02*
D03*
X466200Y554600D02*
D03*
X476200D02*
D03*
X486200D02*
D03*
X496200D02*
D03*
X466200Y544600D02*
D03*
X476200D02*
D03*
X486200D02*
D03*
X496200D02*
D03*
X506200D02*
D03*
Y594600D02*
D03*
X516200Y584600D02*
D03*
X506200D02*
D03*
Y554600D02*
D03*
X516200D02*
D03*
Y564600D02*
D03*
X506200Y574600D02*
D03*
X516200D02*
D03*
X506200Y564600D02*
D03*
D39*
X564000Y45000D02*
D03*
Y25000D02*
D03*
X594000D02*
D03*
Y45000D02*
D03*
Y75000D02*
D03*
X564000Y15000D02*
D03*
X249000Y98500D02*
D03*
X259000D02*
D03*
X282000D02*
D03*
X292000D02*
D03*
X253000Y69500D02*
D03*
X258000Y79500D02*
D03*
X263000Y69500D02*
D03*
X268000Y79500D02*
D03*
X273000Y69500D02*
D03*
X278000Y79500D02*
D03*
X283000Y69500D02*
D03*
X62000Y593200D02*
D03*
Y573200D02*
D03*
X92000D02*
D03*
Y593200D02*
D03*
Y623200D02*
D03*
X62000Y563200D02*
D03*
X35200Y611600D02*
D03*
Y601600D02*
D03*
Y591600D02*
D03*
Y581600D02*
D03*
Y571600D02*
D03*
Y561600D02*
D03*
Y551600D02*
D03*
D40*
X188500Y293200D02*
D03*
Y297500D02*
D03*
D41*
X64800Y30600D02*
D03*
D42*
X82800Y43600D02*
D03*
D43*
X64800Y54100D02*
D03*
D44*
X18600Y273400D02*
D03*
X19200Y105800D02*
D03*
X19000Y165000D02*
D03*
X18400Y220000D02*
D03*
D45*
X88600Y283400D02*
D03*
Y273400D02*
D03*
Y263400D02*
D03*
X89200Y115800D02*
D03*
Y105800D02*
D03*
Y95800D02*
D03*
X89000Y175000D02*
D03*
Y165000D02*
D03*
Y155000D02*
D03*
X88400Y230000D02*
D03*
Y220000D02*
D03*
Y210000D02*
D03*
X557800Y178200D02*
D03*
D46*
X293000Y44500D02*
D03*
X248000D02*
D03*
D47*
X288000Y79500D02*
D03*
D48*
X239800Y56500D02*
D03*
X301200D02*
D03*
D49*
X169500Y256800D02*
D03*
Y276000D02*
D03*
X332700Y142100D02*
D03*
Y161300D02*
D03*
D50*
X557800Y505700D02*
D03*
D51*
Y140700D02*
D03*
D52*
Y188200D02*
D03*
Y198200D02*
D03*
Y208200D02*
D03*
Y218200D02*
D03*
Y228200D02*
D03*
Y238200D02*
D03*
Y248200D02*
D03*
Y258200D02*
D03*
Y268200D02*
D03*
Y278200D02*
D03*
Y288200D02*
D03*
Y298200D02*
D03*
Y308200D02*
D03*
Y318200D02*
D03*
Y328200D02*
D03*
Y338200D02*
D03*
Y348200D02*
D03*
Y358200D02*
D03*
Y368200D02*
D03*
Y378200D02*
D03*
Y388200D02*
D03*
Y398200D02*
D03*
Y408200D02*
D03*
Y418200D02*
D03*
Y428200D02*
D03*
Y438200D02*
D03*
Y448200D02*
D03*
Y458200D02*
D03*
Y468200D02*
D03*
D53*
X23595Y408323D02*
D03*
X159816D02*
D03*
D54*
X44461Y416000D02*
D03*
X50367D02*
D03*
X56272D02*
D03*
X62178D02*
D03*
X68083D02*
D03*
X73989D02*
D03*
X79894D02*
D03*
X85800D02*
D03*
X91706D02*
D03*
X97611D02*
D03*
X103517D02*
D03*
X109422D02*
D03*
X115328D02*
D03*
X121233D02*
D03*
X127139D02*
D03*
X133044D02*
D03*
X138950D02*
D03*
D55*
X35200Y621600D02*
D03*
D56*
X66000Y442500D02*
D03*
X463900Y305329D02*
D03*
X370300Y418900D02*
D03*
X445100Y433600D02*
D03*
X400800Y483700D02*
D03*
X562100Y463200D02*
D03*
X398100Y481100D02*
D03*
X394500Y488100D02*
D03*
X547100Y479500D02*
D03*
X553500Y491000D02*
D03*
X391200Y461400D02*
D03*
X400300Y462800D02*
D03*
X507400Y466400D02*
D03*
X413500Y458700D02*
D03*
X504600Y472500D02*
D03*
X439800Y261600D02*
D03*
X437100Y272200D02*
D03*
X495500Y273100D02*
D03*
X501600Y253250D02*
D03*
X480200Y288100D02*
D03*
X481400Y281300D02*
D03*
X475800Y194400D02*
D03*
X366550Y358050D02*
D03*
X281900Y363000D02*
D03*
X308600Y182400D02*
D03*
X303200Y191300D02*
D03*
X430400Y146100D02*
D03*
X470000Y275700D02*
D03*
X479900Y298500D02*
D03*
X458500Y293400D02*
D03*
X429700Y341450D02*
D03*
X438600Y235400D02*
D03*
X408800Y343000D02*
D03*
X434200Y282100D02*
D03*
X428200Y294600D02*
D03*
X402100Y322000D02*
D03*
X370300Y321744D02*
D03*
X372989Y295811D02*
D03*
X413500Y209200D02*
D03*
X297400Y87700D02*
D03*
X393900Y276800D02*
D03*
X301898Y265700D02*
D03*
X289084D02*
D03*
X244500Y283000D02*
D03*
Y291600D02*
D03*
X243500Y311000D02*
D03*
X242200Y331576D02*
D03*
X296500Y415100D02*
D03*
X220800Y417900D02*
D03*
X269000Y433315D02*
D03*
X296500D02*
D03*
X205502Y458602D02*
D03*
X233000Y486100D02*
D03*
X144800Y575000D02*
D03*
X184500Y557000D02*
D03*
X138047Y576488D02*
D03*
X112900Y337700D02*
D03*
X93200Y437800D02*
D03*
X216500Y175300D02*
D03*
X106700Y188000D02*
D03*
X221400Y178600D02*
D03*
X398800Y399100D02*
D03*
X406600Y400700D02*
D03*
X403200Y440300D02*
D03*
X391800D02*
D03*
X410400D02*
D03*
X409800Y568800D02*
D03*
X517200Y485600D02*
D03*
X477500Y487300D02*
D03*
X474776Y399476D02*
D03*
X182200Y421500D02*
D03*
X112900Y315900D02*
D03*
X349800Y465000D02*
D03*
X380108Y451048D02*
D03*
X174900Y492600D02*
D03*
X427900Y602700D02*
D03*
X397400D02*
D03*
X411700Y278800D02*
D03*
X569300Y183900D02*
D03*
X482800Y581300D02*
D03*
X429800Y282400D02*
D03*
X572000Y342500D02*
D03*
X528000Y600000D02*
D03*
X390296Y577204D02*
D03*
X484500Y504600D02*
D03*
X373500Y585900D02*
D03*
X432100Y297200D02*
D03*
X521700Y316600D02*
D03*
X464700Y503700D02*
D03*
X486200Y599300D02*
D03*
X370800Y580400D02*
D03*
X431681Y306619D02*
D03*
X509900Y489600D02*
D03*
X386700Y584200D02*
D03*
X412300Y304600D02*
D03*
X543600Y365500D02*
D03*
X496200Y508100D02*
D03*
X384603Y600200D02*
D03*
X424700Y311200D02*
D03*
X489100Y327600D02*
D03*
X432800Y574242D02*
D03*
X482800Y572700D02*
D03*
X466500Y348300D02*
D03*
X424300Y317000D02*
D03*
X468000Y550000D02*
D03*
X448700Y497400D02*
D03*
X388500Y375600D02*
D03*
X435100Y551500D02*
D03*
X516200Y549100D02*
D03*
X430400Y508500D02*
D03*
X345100Y301800D02*
D03*
X359000Y292400D02*
D03*
X345000Y322100D02*
D03*
X365200Y265300D02*
D03*
X365000Y288100D02*
D03*
X365300Y300000D02*
D03*
X361961Y322677D02*
D03*
X395500Y240500D02*
D03*
X345100Y297900D02*
D03*
Y327400D02*
D03*
X388900Y303600D02*
D03*
X442700Y217900D02*
D03*
X359261Y325600D02*
D03*
X395663Y260900D02*
D03*
X399200Y268500D02*
D03*
X359449Y332151D02*
D03*
X345280Y333035D02*
D03*
X397668Y312000D02*
D03*
X388600Y325400D02*
D03*
X461200Y284900D02*
D03*
X375625Y327000D02*
D03*
X360700Y346299D02*
D03*
X389900Y353800D02*
D03*
X404400Y329300D02*
D03*
X369200Y351195D02*
D03*
X378895Y341500D02*
D03*
X440000Y283100D02*
D03*
X371200Y340100D02*
D03*
X445000Y292800D02*
D03*
X370900Y359100D02*
D03*
X367700Y394900D02*
D03*
X402600Y583204D02*
D03*
X456200Y597400D02*
D03*
X301700Y533100D02*
D03*
X387400D02*
D03*
X264800Y528500D02*
D03*
X425500Y569700D02*
D03*
X269100Y534600D02*
D03*
X419600Y560500D02*
D03*
X416099Y565500D02*
D03*
X249000Y563900D02*
D03*
X268500Y449900D02*
D03*
X319800Y461900D02*
D03*
X265500Y506200D02*
D03*
X359400Y523400D02*
D03*
X309300Y410300D02*
D03*
X311200Y386900D02*
D03*
X376600Y461300D02*
D03*
X324325Y407875D02*
D03*
X294800Y381900D02*
D03*
X301500Y398700D02*
D03*
X379500Y464000D02*
D03*
X308082Y389418D02*
D03*
X376400Y480600D02*
D03*
X286500Y392400D02*
D03*
X200800Y347300D02*
D03*
X296200Y147342D02*
D03*
X266990Y147710D02*
D03*
X300500D02*
D03*
X266000Y169300D02*
D03*
X264900Y149800D02*
D03*
X249400Y228600D02*
D03*
X288244Y270756D02*
D03*
X334900Y295000D02*
D03*
X336800Y321600D02*
D03*
X409700Y282700D02*
D03*
X388500Y279500D02*
D03*
X277100Y351935D02*
D03*
X215113Y551856D02*
D03*
X192400Y559700D02*
D03*
X178100Y551800D02*
D03*
X164200Y425100D02*
D03*
X163344Y403044D02*
D03*
X187900Y422100D02*
D03*
Y403000D02*
D03*
X158000D02*
D03*
X85900Y434900D02*
D03*
X264800Y124300D02*
D03*
X294900Y109300D02*
D03*
X340800Y154844D02*
D03*
X328347Y179753D02*
D03*
X325168Y185100D02*
D03*
X441100Y304300D02*
D03*
X473100Y310800D02*
D03*
X475800Y289800D02*
D03*
X435900Y232400D02*
D03*
X481100Y268200D02*
D03*
X398800Y392100D02*
D03*
X383200Y506200D02*
D03*
X399900D02*
D03*
X394500Y495200D02*
D03*
X405300Y568615D02*
D03*
X412950Y572900D02*
D03*
X41000Y454300D02*
D03*
X25760D02*
D03*
X494200Y128600D02*
D03*
X323700Y422500D02*
D03*
X425700Y392500D02*
D03*
X425400Y516700D02*
D03*
X372000Y524200D02*
D03*
X412900Y422900D02*
D03*
X424600Y520700D02*
D03*
X346700Y467200D02*
D03*
X164969Y499500D02*
D03*
X351100Y461500D02*
D03*
X243600Y443700D02*
D03*
X256112Y377688D02*
D03*
X251588Y334400D02*
D03*
X198500Y294000D02*
D03*
X211596Y286300D02*
D03*
X209372Y329972D02*
D03*
X203800Y285600D02*
D03*
X250400Y385300D02*
D03*
X269000Y333350D02*
D03*
X369600Y102700D02*
D03*
X404400Y528800D02*
D03*
X311500D02*
D03*
X444900Y600900D02*
D03*
X388500Y600100D02*
D03*
X406800Y414300D02*
D03*
X469100Y411000D02*
D03*
X522400Y396800D02*
D03*
X514100Y179000D02*
D03*
X344700Y269100D02*
D03*
X417400Y513294D02*
D03*
X379700Y117100D02*
D03*
X467800Y130847D02*
D03*
X66000Y453700D02*
D03*
X93300Y238100D02*
D03*
X229400Y363800D02*
D03*
X239200Y274500D02*
D03*
X47002Y431002D02*
D03*
X38300Y437800D02*
D03*
X225041Y266600D02*
D03*
X204900Y464500D02*
D03*
X228200Y401100D02*
D03*
X277300Y241000D02*
D03*
X200600Y464500D02*
D03*
X178400Y459200D02*
D03*
X227500Y508700D02*
D03*
X162200Y492900D02*
D03*
X166500Y496100D02*
D03*
X207700Y495000D02*
D03*
X204877Y575238D02*
D03*
X321000Y200800D02*
D03*
X276000Y167500D02*
D03*
X239600Y239921D02*
D03*
X284801Y205800D02*
D03*
X313400Y170300D02*
D03*
X259900Y170400D02*
D03*
X278600Y189100D02*
D03*
X284000Y187900D02*
D03*
X247000Y171000D02*
D03*
X308300Y242000D02*
D03*
X196500Y233500D02*
D03*
X281398Y196600D02*
D03*
X250400Y136700D02*
D03*
X205300Y246500D02*
D03*
X239200Y268800D02*
D03*
X300000Y126800D02*
D03*
X265800Y130000D02*
D03*
X274300Y135800D02*
D03*
X235494Y139406D02*
D03*
X226600Y169400D02*
D03*
X276700Y108300D02*
D03*
X300900Y243300D02*
D03*
X146500Y249600D02*
D03*
X165495Y511995D02*
D03*
X207436Y550400D02*
D03*
X308700Y257800D02*
D03*
X143800Y266900D02*
D03*
X183600Y524300D02*
D03*
X208000Y524700D02*
D03*
X236048Y379400D02*
D03*
X257600Y330800D02*
D03*
X261400Y391700D02*
D03*
X263000Y381000D02*
D03*
X239200Y313600D02*
D03*
X395000Y383000D02*
D03*
X370616Y370916D02*
D03*
X331000Y362800D02*
D03*
X324400Y284300D02*
D03*
X277600Y261500D02*
D03*
X442700Y273300D02*
D03*
X442800Y308800D02*
D03*
X401500Y347400D02*
D03*
X445400Y287600D02*
D03*
X358605Y363600D02*
D03*
X274800Y128044D02*
D03*
X375100Y373200D02*
D03*
X314700Y362856D02*
D03*
X425300Y432500D02*
D03*
X278000Y359200D02*
D03*
X374300Y276400D02*
D03*
X373900Y286600D02*
D03*
X380800Y468500D02*
D03*
X425700Y534000D02*
D03*
X284000Y536678D02*
D03*
X364100Y366500D02*
D03*
X497800Y358200D02*
D03*
X542700Y375100D02*
D03*
X441800Y353900D02*
D03*
X497400Y384900D02*
D03*
X523400Y441500D02*
D03*
X487400Y407553D02*
D03*
X371800Y343800D02*
D03*
X411500Y309500D02*
D03*
X495200Y363400D02*
D03*
X347300Y511500D02*
D03*
X470400Y535200D02*
D03*
X447700Y343500D02*
D03*
X427000Y330800D02*
D03*
X337600Y362800D02*
D03*
X477800Y202900D02*
D03*
X476600Y267400D02*
D03*
X74900Y450900D02*
D03*
X70300Y453700D02*
D03*
X214300Y277300D02*
D03*
X126600Y465900D02*
D03*
X168300Y441200D02*
D03*
X122100Y456100D02*
D03*
X44400Y458400D02*
D03*
X481400Y199900D02*
D03*
X255200Y277800D02*
D03*
X376700Y474600D02*
D03*
X291000Y395100D02*
D03*
X425400Y324600D02*
D03*
X465500Y340600D02*
D03*
X470400Y194400D02*
D03*
X300200Y138700D02*
D03*
X277800Y94300D02*
D03*
X481100Y211300D02*
D03*
X478500Y278200D02*
D03*
X49561Y421100D02*
D03*
X163000Y440900D02*
D03*
X116600Y459300D02*
D03*
X115400Y446200D02*
D03*
X121400D02*
D03*
X145400Y461600D02*
D03*
X141900Y467600D02*
D03*
X355400Y459646D02*
D03*
X162554Y504846D02*
D03*
X139600Y458200D02*
D03*
X128245Y472645D02*
D03*
X148700Y509200D02*
D03*
X140500Y490600D02*
D03*
X84700Y534900D02*
D03*
X104700Y267553D02*
D03*
X238800Y289400D02*
D03*
X481400Y250400D02*
D03*
Y235400D02*
D03*
X495500Y264900D02*
D03*
X502600Y265600D02*
D03*
X479700Y194500D02*
D03*
X485230Y257800D02*
D03*
X532100Y227500D02*
D03*
X481600Y255900D02*
D03*
X445400Y200400D02*
D03*
X512000Y184800D02*
D03*
X507600Y97100D02*
D03*
X380500D02*
D03*
X509600Y94400D02*
D03*
X283100Y114100D02*
D03*
X289800D02*
D03*
X327100Y125800D02*
D03*
X316100Y145600D02*
D03*
X340800Y149000D02*
D03*
X311715Y122200D02*
D03*
X274231Y114000D02*
D03*
X293900Y122500D02*
D03*
X243600Y127300D02*
D03*
X298100Y106000D02*
D03*
X128000Y10200D02*
D03*
X110700Y308300D02*
D03*
X152300Y437400D02*
D03*
X161100Y400800D02*
D03*
X332744Y276669D02*
D03*
X330400Y286700D02*
D03*
X263200Y265962D02*
D03*
X344700Y273100D02*
D03*
X476100Y577600D02*
D03*
X360869Y311969D02*
D03*
X387400Y273200D02*
D03*
X402300Y197600D02*
D03*
X526800Y197800D02*
D03*
X343100Y265100D02*
D03*
X433100Y131247D02*
D03*
X241000Y142000D02*
D03*
X210300Y148800D02*
D03*
X341300Y213200D02*
D03*
X253732Y256900D02*
D03*
X275700Y234900D02*
D03*
X372329Y447700D02*
D03*
X269900Y268700D02*
D03*
X288100Y536600D02*
D03*
X422398Y537200D02*
D03*
X316000Y548600D02*
D03*
X393700Y551800D02*
D03*
X372700Y292100D02*
D03*
X359100Y319900D02*
D03*
X427636Y505807D02*
D03*
X431800Y539600D02*
D03*
X277600Y265244D02*
D03*
X340600Y311300D02*
D03*
X524500Y473700D02*
D03*
X419400Y484600D02*
D03*
X271000Y573300D02*
D03*
X395976Y588300D02*
D03*
X277800Y125300D02*
D03*
X231700Y174247D02*
D03*
X221700Y296600D02*
D03*
X376700Y292100D02*
D03*
X388500Y267700D02*
D03*
X368500Y270500D02*
D03*
X322630D02*
D03*
X481000Y292300D02*
D03*
X501600Y296500D02*
D03*
X390900Y584800D02*
D03*
X380800Y576814D02*
D03*
X450800Y530800D02*
D03*
X318500Y260700D02*
D03*
X262300Y453600D02*
D03*
X210712Y452412D02*
D03*
X405671Y587571D02*
D03*
X401500Y574100D02*
D03*
X406650Y555200D02*
D03*
X429500Y557100D02*
D03*
X359983Y353083D02*
D03*
X342400Y284600D02*
D03*
X316200Y377400D02*
D03*
X220900Y565400D02*
D03*
X493400Y300200D02*
D03*
X244900Y319900D02*
D03*
X253800Y94300D02*
D03*
X201300Y429900D02*
D03*
X229050D02*
D03*
X235200Y373400D02*
D03*
X218900Y370700D02*
D03*
X417300Y444900D02*
D03*
X343000Y456800D02*
D03*
X214500Y415900D02*
D03*
X206800Y440000D02*
D03*
X205200Y451800D02*
D03*
X318500Y389400D02*
D03*
X372800Y392500D02*
D03*
X286400Y355000D02*
D03*
X389900Y383400D02*
D03*
X397900Y416900D02*
D03*
X376800Y404800D02*
D03*
Y384100D02*
D03*
X334000Y332100D02*
D03*
X340300D02*
D03*
X250650Y339750D02*
D03*
X251100Y401700D02*
D03*
X257400Y362700D02*
D03*
X258800Y324900D02*
D03*
Y293000D02*
D03*
X303100Y394400D02*
D03*
X305400Y386200D02*
D03*
X300100Y380700D02*
D03*
X317200Y397400D02*
D03*
X283900Y397000D02*
D03*
X380200Y478936D02*
D03*
X195300Y530900D02*
D03*
X214700Y516400D02*
D03*
X225700Y483500D02*
D03*
X180700Y474200D02*
D03*
X223700Y488000D02*
D03*
X216900Y481200D02*
D03*
X291500Y544700D02*
D03*
X419249Y552300D02*
D03*
X295600Y541000D02*
D03*
X259895Y358195D02*
D03*
X262500Y282500D02*
D03*
X255200Y289800D02*
D03*
X246644Y337655D02*
D03*
X220100Y447200D02*
D03*
X271193Y447226D02*
D03*
X196200Y554400D02*
D03*
X461200Y310800D02*
D03*
X394400Y459100D02*
D03*
X413500Y440000D02*
D03*
X277800Y87700D02*
D03*
X278168Y161000D02*
D03*
X297300Y172200D02*
D03*
X244500Y266200D02*
D03*
X342315Y390115D02*
D03*
X377200Y410000D02*
D03*
X407500Y435900D02*
D03*
X343500Y340000D02*
D03*
X345000Y343700D02*
D03*
X364800Y463700D02*
D03*
Y478700D02*
D03*
X295300Y496500D02*
D03*
X416099Y527000D02*
D03*
X476700Y283900D02*
D03*
X296500Y412100D02*
D03*
Y422000D02*
D03*
X445400Y214900D02*
D03*
X249156Y317200D02*
D03*
X221500Y319200D02*
D03*
X400800Y476400D02*
D03*
X533200Y422600D02*
D03*
X531800Y412200D02*
D03*
X481350Y215250D02*
D03*
X445400Y228600D02*
D03*
X428400Y397500D02*
D03*
X408892Y390356D02*
D03*
X466200Y414500D02*
D03*
X238977Y306156D02*
D03*
X239200Y302244D02*
D03*
X483800Y253700D02*
D03*
X476200Y199200D02*
D03*
X225444Y284744D02*
D03*
X77600Y498900D02*
D03*
M02*
