G04 Layer_Color=65535*
%FSLAX25Y25*%
%MOIN*%
G70*
G01*
G75*
%ADD28C,0.00800*%
%ADD31C,0.01000*%
%ADD32C,0.00787*%
%ADD57C,0.02362*%
%ADD58C,0.00984*%
%ADD59C,0.01200*%
%ADD60C,0.02400*%
D28*
X470700Y190400D02*
G03*
X467700Y190400I-1500J0D01*
G01*
X376304Y567388D02*
G03*
X376304Y572900I0J2756D01*
G01*
X402000Y277000D02*
G03*
X399000Y277000I-1500J0D01*
G01*
X314000Y424000D02*
G03*
X314000Y421000I0J-1500D01*
G01*
X403000Y380000D02*
G03*
X400000Y380000I-1500J0D01*
G01*
X470700Y258300D02*
G03*
X467700Y258300I-1500J0D01*
G01*
X390100Y453700D02*
G03*
X387100Y453700I-1500J0D01*
G01*
X437800Y433200D02*
X517800D01*
X437800Y353200D02*
X512800D01*
X517800Y358200D02*
Y433200D01*
X437800Y353200D02*
Y433200D01*
X512800Y353200D02*
X517800Y358200D01*
X482200Y190400D02*
Y252900D01*
X456200Y190400D02*
Y252900D01*
X482200D01*
X470700Y190400D02*
X482200D01*
X456200D02*
X467700D01*
X376304Y550900D02*
Y567388D01*
Y572900D02*
Y588900D01*
X446304Y550900D02*
Y588900D01*
X376304Y550900D02*
X446304D01*
X376335Y588896D02*
X446304Y588900D01*
X387500Y277000D02*
X399000D01*
X402000D02*
X413500D01*
X387500Y339500D02*
X413500D01*
X387500Y277000D02*
Y339500D01*
X413500Y277000D02*
Y339500D01*
X521200Y539600D02*
Y594600D01*
X451200Y539600D02*
Y599600D01*
X516200D01*
X451200Y539600D02*
X521200D01*
X516200Y599600D02*
X521200Y594600D01*
X314000Y409500D02*
Y421000D01*
Y424000D02*
Y435500D01*
X251500Y409500D02*
Y435500D01*
Y409500D02*
X314000D01*
X251500Y435500D02*
X314000D01*
X388500Y380000D02*
X400000D01*
X403000D02*
X414500D01*
X388500Y442500D02*
X414500D01*
X388500Y380000D02*
Y442500D01*
X414500Y380000D02*
Y442500D01*
X482200Y258300D02*
Y320800D01*
X456200Y258300D02*
Y320800D01*
X482200D01*
X470700Y258300D02*
X482200D01*
X456200D02*
X467700D01*
X401600Y453700D02*
Y516200D01*
X375600Y453700D02*
Y516200D01*
X401600D01*
X390100Y453700D02*
X401600D01*
X375600D02*
X387100D01*
X401668Y115000D02*
X405000D01*
X401668Y111668D01*
Y110835D01*
X402501Y110002D01*
X404167D01*
X405000Y110835D01*
X400002D02*
X399169Y110002D01*
X397502D01*
X396669Y110835D01*
Y114167D01*
X397502Y115000D01*
X399169D01*
X400002Y114167D01*
Y110835D01*
X405000Y125000D02*
X403334D01*
X404167D01*
Y120002D01*
X405000Y120835D01*
X400835Y124167D02*
X400002Y125000D01*
X398336D01*
X397502Y124167D01*
Y120835D01*
X398336Y120002D01*
X400002D01*
X400835Y120835D01*
Y121668D01*
X400002Y122501D01*
X397502D01*
X511000Y125000D02*
X509334D01*
X510167D01*
Y120002D01*
X511000Y120835D01*
X507668Y115000D02*
X511000D01*
X507668Y111668D01*
Y110835D01*
X508501Y110002D01*
X510167D01*
X511000Y110835D01*
D31*
X150300Y491700D02*
G03*
X155300Y491700I2500J0D01*
G01*
X214768Y558945D02*
G03*
X214768Y558945I-1623J0D01*
G01*
X510700Y35400D02*
G03*
X505700Y35400I-2500J0D01*
G01*
X198900Y177400D02*
G03*
X193900Y177400I-2500J0D01*
G01*
X194400Y295300D02*
G03*
X194400Y295300I-5900J0D01*
G01*
X266488Y145939D02*
G03*
X266488Y145939I-2296J0D01*
G01*
X252009Y354933D02*
G03*
X252009Y354933I-4068J0D01*
G01*
X160300Y253900D02*
G03*
X178700Y253900I9200J0D01*
G01*
Y279000D02*
G03*
X160300Y279000I-9200J0D01*
G01*
X323500Y139200D02*
G03*
X341900Y139200I9200J0D01*
G01*
Y164300D02*
G03*
X323500Y164300I-9200J0D01*
G01*
X139300Y491700D02*
X150300D01*
X139300Y441700D02*
X166300D01*
X155300Y491700D02*
X166300D01*
X139300Y441700D02*
Y491700D01*
X166300Y441700D02*
Y491700D01*
X190310Y562488D02*
X216688D01*
X190310Y549890D02*
X216688D01*
X190310D02*
Y562488D01*
X216688Y549890D02*
Y562488D01*
X510700Y35400D02*
X518200D01*
X498200D02*
X505700D01*
X498200Y75400D02*
X518200D01*
X498200Y35400D02*
Y75400D01*
X518200Y35400D02*
Y75400D01*
X198900Y177400D02*
X206400D01*
X186400D02*
X193900D01*
X186400Y217400D02*
X206400D01*
X186400Y177400D02*
Y217400D01*
X206400Y177400D02*
Y217400D01*
X47300Y1600D02*
Y56100D01*
X54800D01*
X57300Y58600D01*
X71300D01*
X74300Y55600D01*
X82300D01*
X86300Y51600D01*
Y37100D02*
Y51600D01*
X82300Y33100D02*
X86300Y37100D01*
X82300Y1600D02*
Y33100D01*
X47300Y1600D02*
X82300D01*
X239000Y2000D02*
X301500D01*
X239000Y105000D02*
X301500D01*
Y2000D02*
Y105000D01*
X239000Y2000D02*
Y105000D01*
X259468Y123104D02*
X287027D01*
X259468Y150663D02*
X287027D01*
X259468Y123104D02*
Y150663D01*
X287027Y123104D02*
Y150663D01*
X160300Y253900D02*
Y279000D01*
X178700Y253900D02*
Y279000D01*
X323500Y139200D02*
Y164300D01*
X341900Y139200D02*
Y164300D01*
X12572Y322693D02*
Y418362D01*
Y322693D02*
X170839D01*
Y418362D01*
X12572D02*
X170839D01*
X30200Y546600D02*
Y626600D01*
X40200Y546600D02*
Y626600D01*
X30200Y546600D02*
X40200D01*
X30200Y626600D02*
X40200D01*
X30200Y616600D02*
X40200D01*
X224617Y433641D02*
Y428643D01*
X225617Y427643D01*
X227616D01*
X228616Y428643D01*
Y433641D01*
X230615Y427643D02*
X232615D01*
X231615D01*
Y433641D01*
X230615Y432642D01*
X239613Y427643D02*
X235614D01*
X239613Y431642D01*
Y432642D01*
X238613Y433641D01*
X236613D01*
X235614Y432642D01*
X220643Y483398D02*
X219643Y484398D01*
X217644D01*
X216644Y483398D01*
Y479400D01*
X217644Y478400D01*
X219643D01*
X220643Y479400D01*
X222642Y483398D02*
X223642Y484398D01*
X225641D01*
X226641Y483398D01*
Y482399D01*
X225641Y481399D01*
X226641Y480399D01*
Y479400D01*
X225641Y478400D01*
X223642D01*
X222642Y479400D01*
Y480399D01*
X223642Y481399D01*
X222642Y482399D01*
Y483398D01*
X223642Y481399D02*
X225641D01*
X228640Y483398D02*
X229640Y484398D01*
X231639D01*
X232639Y483398D01*
Y479400D01*
X231639Y478400D01*
X229640D01*
X228640Y479400D01*
Y483398D01*
X17800Y449898D02*
Y444900D01*
X18800Y443900D01*
X20799D01*
X21799Y444900D01*
Y449898D01*
X27797Y443900D02*
X23798D01*
X27797Y447899D01*
Y448898D01*
X26797Y449898D01*
X24798D01*
X23798Y448898D01*
X33795Y443900D02*
X29796D01*
X33795Y447899D01*
Y448898D01*
X32795Y449898D01*
X30796D01*
X29796Y448898D01*
X179600Y226898D02*
Y221900D01*
X180600Y220900D01*
X182599D01*
X183599Y221900D01*
Y226898D01*
X185598Y220900D02*
X187597D01*
X186598D01*
Y226898D01*
X185598Y225898D01*
X194595Y226898D02*
X190596D01*
Y223899D01*
X192596Y224899D01*
X193596D01*
X194595Y223899D01*
Y221900D01*
X193596Y220900D01*
X191596D01*
X190596Y221900D01*
X225600Y501598D02*
Y496600D01*
X226600Y495600D01*
X228599D01*
X229599Y496600D01*
Y501598D01*
X231598Y495600D02*
X233597D01*
X232598D01*
Y501598D01*
X231598Y500598D01*
X239596Y495600D02*
Y501598D01*
X236596Y498599D01*
X240595D01*
X149602Y494000D02*
X154600D01*
X155600Y495000D01*
Y496999D01*
X154600Y497999D01*
X149602D01*
X155600Y499998D02*
Y501997D01*
Y500998D01*
X149602D01*
X150602Y499998D01*
Y504996D02*
X149602Y505996D01*
Y507996D01*
X150602Y508995D01*
X151601D01*
X152601Y507996D01*
Y506996D01*
Y507996D01*
X153601Y508995D01*
X154600D01*
X155600Y507996D01*
Y505996D01*
X154600Y504996D01*
X224000Y468398D02*
Y463400D01*
X225000Y462400D01*
X226999D01*
X227999Y463400D01*
Y468398D01*
X229998Y462400D02*
X231997D01*
X230998D01*
Y468398D01*
X229998Y467398D01*
X234996D02*
X235996Y468398D01*
X237996D01*
X238995Y467398D01*
Y463400D01*
X237996Y462400D01*
X235996D01*
X234996Y463400D01*
Y467398D01*
X491400Y84898D02*
Y79900D01*
X492400Y78900D01*
X494399D01*
X495399Y79900D01*
Y84898D01*
X497398Y83898D02*
X498398Y84898D01*
X500397D01*
X501397Y83898D01*
Y82899D01*
X500397Y81899D01*
X499397D01*
X500397D01*
X501397Y80899D01*
Y79900D01*
X500397Y78900D01*
X498398D01*
X497398Y79900D01*
X99801Y633002D02*
X100801Y632002D01*
X102800D01*
X103800Y633002D01*
Y634001D01*
X102800Y635001D01*
X100801D01*
X99801Y636001D01*
Y637000D01*
X100801Y638000D01*
X102800D01*
X103800Y637000D01*
X97802Y632002D02*
Y638000D01*
X95803Y636001D01*
X93803Y638000D01*
Y632002D01*
X91804Y639000D02*
X87805D01*
X85806Y632002D02*
Y638000D01*
Y635001D01*
X81807D01*
Y632002D01*
Y638000D01*
X78808Y634001D02*
X76809D01*
X75809Y635001D01*
Y638000D01*
X78808D01*
X79808Y637000D01*
X78808Y636001D01*
X75809D01*
X73810Y638000D02*
Y634001D01*
X70811D01*
X69811Y635001D01*
Y638000D01*
X65812Y639999D02*
X64813D01*
X63813Y639000D01*
Y634001D01*
X66812D01*
X67812Y635001D01*
Y637000D01*
X66812Y638000D01*
X63813D01*
X61814Y632002D02*
Y637000D01*
X60814Y638000D01*
X58815D01*
X57815Y637000D01*
Y632002D01*
X55816Y639999D02*
Y634001D01*
X52816D01*
X51817Y635001D01*
Y637000D01*
X52816Y638000D01*
X55816D01*
X558299Y89698D02*
X557299Y90698D01*
X555300D01*
X554300Y89698D01*
Y88699D01*
X555300Y87699D01*
X557299D01*
X558299Y86699D01*
Y85700D01*
X557299Y84700D01*
X555300D01*
X554300Y85700D01*
X560298Y90698D02*
Y84700D01*
X562297Y86699D01*
X564297Y84700D01*
Y90698D01*
X566296Y83700D02*
X570295D01*
X572294Y84700D02*
Y90698D01*
X575293D01*
X576293Y89698D01*
Y87699D01*
X575293Y86699D01*
X572294D01*
X574294D02*
X576293Y84700D01*
X582291Y90698D02*
X578292D01*
Y84700D01*
X582291D01*
X578292Y87699D02*
X580292D01*
X588289Y89698D02*
X587289Y90698D01*
X585290D01*
X584290Y89698D01*
Y88699D01*
X585290Y87699D01*
X587289D01*
X588289Y86699D01*
Y85700D01*
X587289Y84700D01*
X585290D01*
X584290Y85700D01*
X594287Y90698D02*
X590288D01*
Y84700D01*
X594287D01*
X590288Y87699D02*
X592288D01*
X596286Y90698D02*
X600285D01*
X598286D01*
Y84700D01*
X331000Y67553D02*
X336998D01*
Y64554D01*
X335998Y63554D01*
X333999D01*
X332999Y64554D01*
Y67553D01*
Y65553D02*
X331000Y63554D01*
Y58556D02*
X336998D01*
X333999Y61555D01*
Y57556D01*
X331000Y52558D02*
X336998D01*
X333999Y55557D01*
Y51558D01*
X315200Y66553D02*
X321198D01*
Y63554D01*
X320198Y62554D01*
X318199D01*
X317199Y63554D01*
Y66553D01*
Y64553D02*
X315200Y62554D01*
Y57556D02*
X321198D01*
X318199Y60555D01*
Y56556D01*
X320198Y54557D02*
X321198Y53557D01*
Y51558D01*
X320198Y50558D01*
X319199D01*
X318199Y51558D01*
Y52557D01*
Y51558D01*
X317199Y50558D01*
X316200D01*
X315200Y51558D01*
Y53557D01*
X316200Y54557D01*
X323600Y67353D02*
X329598D01*
Y64354D01*
X328598Y63354D01*
X326599D01*
X325599Y64354D01*
Y67353D01*
Y65353D02*
X323600Y63354D01*
Y58356D02*
X329598D01*
X326599Y61355D01*
Y57356D01*
X323600Y51358D02*
Y55357D01*
X327599Y51358D01*
X328598D01*
X329598Y52358D01*
Y54357D01*
X328598Y55357D01*
X307600Y66353D02*
X313598D01*
Y63354D01*
X312598Y62354D01*
X310599D01*
X309599Y63354D01*
Y66353D01*
Y64353D02*
X307600Y62354D01*
Y57356D02*
X313598D01*
X310599Y60355D01*
Y56356D01*
X307600Y54357D02*
Y52357D01*
Y53357D01*
X313598D01*
X312598Y54357D01*
X247200Y185400D02*
X241202D01*
Y188399D01*
X242202Y189399D01*
X244201D01*
X245201Y188399D01*
Y185400D01*
Y187399D02*
X247200Y189399D01*
X242202Y191398D02*
X241202Y192398D01*
Y194397D01*
X242202Y195397D01*
X243201D01*
X244201Y194397D01*
Y193397D01*
Y194397D01*
X245201Y195397D01*
X246200D01*
X247200Y194397D01*
Y192398D01*
X246200Y191398D01*
Y197396D02*
X247200Y198396D01*
Y200395D01*
X246200Y201395D01*
X242202D01*
X241202Y200395D01*
Y198396D01*
X242202Y197396D01*
X243201D01*
X244201Y198396D01*
Y201395D01*
X255400Y185600D02*
X249402D01*
Y188599D01*
X250402Y189599D01*
X252401D01*
X253401Y188599D01*
Y185600D01*
Y187599D02*
X255400Y189599D01*
X250402Y191598D02*
X249402Y192598D01*
Y194597D01*
X250402Y195597D01*
X251401D01*
X252401Y194597D01*
Y193597D01*
Y194597D01*
X253401Y195597D01*
X254400D01*
X255400Y194597D01*
Y192598D01*
X254400Y191598D01*
X250402Y197596D02*
X249402Y198596D01*
Y200595D01*
X250402Y201595D01*
X251401D01*
X252401Y200595D01*
X253401Y201595D01*
X254400D01*
X255400Y200595D01*
Y198596D01*
X254400Y197596D01*
X253401D01*
X252401Y198596D01*
X251401Y197596D01*
X250402D01*
X252401Y198596D02*
Y200595D01*
X263000Y184600D02*
X257002D01*
Y187599D01*
X258002Y188599D01*
X260001D01*
X261001Y187599D01*
Y184600D01*
Y186599D02*
X263000Y188599D01*
X258002Y190598D02*
X257002Y191598D01*
Y193597D01*
X258002Y194597D01*
X259001D01*
X260001Y193597D01*
Y192597D01*
Y193597D01*
X261001Y194597D01*
X262000D01*
X263000Y193597D01*
Y191598D01*
X262000Y190598D01*
X257002Y196596D02*
Y200595D01*
X258002D01*
X262000Y196596D01*
X263000D01*
X271200Y184000D02*
X265202D01*
Y186999D01*
X266202Y187999D01*
X268201D01*
X269201Y186999D01*
Y184000D01*
Y185999D02*
X271200Y187999D01*
X266202Y189998D02*
X265202Y190998D01*
Y192997D01*
X266202Y193997D01*
X267201D01*
X268201Y192997D01*
Y191997D01*
Y192997D01*
X269201Y193997D01*
X270200D01*
X271200Y192997D01*
Y190998D01*
X270200Y189998D01*
X265202Y199995D02*
X266202Y197995D01*
X268201Y195996D01*
X270200D01*
X271200Y196996D01*
Y198995D01*
X270200Y199995D01*
X269201D01*
X268201Y198995D01*
Y195996D01*
X305200Y183895D02*
X299202D01*
Y186893D01*
X300202Y187893D01*
X302201D01*
X303201Y186893D01*
Y183895D01*
Y185894D02*
X305200Y187893D01*
X300202Y189893D02*
X299202Y190892D01*
Y192892D01*
X300202Y193891D01*
X301201D01*
X302201Y192892D01*
Y191892D01*
Y192892D01*
X303201Y193891D01*
X304200D01*
X305200Y192892D01*
Y190892D01*
X304200Y189893D01*
X299202Y199889D02*
Y195891D01*
X302201D01*
X301201Y197890D01*
Y198890D01*
X302201Y199889D01*
X304200D01*
X305200Y198890D01*
Y196890D01*
X304200Y195891D01*
X287600Y183600D02*
X281602D01*
Y186599D01*
X282602Y187599D01*
X284601D01*
X285601Y186599D01*
Y183600D01*
Y185599D02*
X287600Y187599D01*
X282602Y189598D02*
X281602Y190598D01*
Y192597D01*
X282602Y193597D01*
X283601D01*
X284601Y192597D01*
Y191597D01*
Y192597D01*
X285601Y193597D01*
X286600D01*
X287600Y192597D01*
Y190598D01*
X286600Y189598D01*
X287600Y198595D02*
X281602D01*
X284601Y195596D01*
Y199595D01*
X167600Y570200D02*
Y576198D01*
X170599D01*
X171599Y575198D01*
Y573199D01*
X170599Y572199D01*
X167600D01*
X169599D02*
X171599Y570200D01*
X173598Y575198D02*
X174598Y576198D01*
X176597D01*
X177597Y575198D01*
Y574199D01*
X176597Y573199D01*
X175597D01*
X176597D01*
X177597Y572199D01*
Y571200D01*
X176597Y570200D01*
X174598D01*
X173598Y571200D01*
X179596Y575198D02*
X180596Y576198D01*
X182595D01*
X183595Y575198D01*
Y574199D01*
X182595Y573199D01*
X181596D01*
X182595D01*
X183595Y572199D01*
Y571200D01*
X182595Y570200D01*
X180596D01*
X179596Y571200D01*
X166200Y549800D02*
Y555798D01*
X169199D01*
X170199Y554798D01*
Y552799D01*
X169199Y551799D01*
X166200D01*
X168199D02*
X170199Y549800D01*
X172198Y554798D02*
X173198Y555798D01*
X175197D01*
X176197Y554798D01*
Y553799D01*
X175197Y552799D01*
X174197D01*
X175197D01*
X176197Y551799D01*
Y550800D01*
X175197Y549800D01*
X173198D01*
X172198Y550800D01*
X182195Y549800D02*
X178196D01*
X182195Y553799D01*
Y554798D01*
X181195Y555798D01*
X179196D01*
X178196Y554798D01*
X119200Y544200D02*
Y550198D01*
X122199D01*
X123199Y549198D01*
Y547199D01*
X122199Y546199D01*
X119200D01*
X121199D02*
X123199Y544200D01*
X125198Y549198D02*
X126198Y550198D01*
X128197D01*
X129197Y549198D01*
Y548199D01*
X128197Y547199D01*
X127197D01*
X128197D01*
X129197Y546199D01*
Y545200D01*
X128197Y544200D01*
X126198D01*
X125198Y545200D01*
X131196Y544200D02*
X133195D01*
X132196D01*
Y550198D01*
X131196Y549198D01*
X296400Y183200D02*
X290402D01*
Y186199D01*
X291402Y187199D01*
X293401D01*
X294401Y186199D01*
Y183200D01*
Y185199D02*
X296400Y187199D01*
X291402Y189198D02*
X290402Y190198D01*
Y192197D01*
X291402Y193197D01*
X292401D01*
X293401Y192197D01*
Y191197D01*
Y192197D01*
X294401Y193197D01*
X295400D01*
X296400Y192197D01*
Y190198D01*
X295400Y189198D01*
X291402Y195196D02*
X290402Y196196D01*
Y198195D01*
X291402Y199195D01*
X295400D01*
X296400Y198195D01*
Y196196D01*
X295400Y195196D01*
X291402D01*
X232800Y200200D02*
X238798D01*
Y197201D01*
X237798Y196201D01*
X235799D01*
X234799Y197201D01*
Y200200D01*
Y198201D02*
X232800Y196201D01*
Y190203D02*
Y194202D01*
X236799Y190203D01*
X237798D01*
X238798Y191203D01*
Y193202D01*
X237798Y194202D01*
X233800Y188204D02*
X232800Y187204D01*
Y185205D01*
X233800Y184205D01*
X237798D01*
X238798Y185205D01*
Y187204D01*
X237798Y188204D01*
X236799D01*
X235799Y187204D01*
Y184205D01*
X229400Y184800D02*
X223402D01*
Y187799D01*
X224402Y188799D01*
X226401D01*
X227401Y187799D01*
Y184800D01*
Y186799D02*
X229400Y188799D01*
Y194797D02*
Y190798D01*
X225401Y194797D01*
X224402D01*
X223402Y193797D01*
Y191798D01*
X224402Y190798D01*
Y196796D02*
X223402Y197796D01*
Y199795D01*
X224402Y200795D01*
X225401D01*
X226401Y199795D01*
X227401Y200795D01*
X228400D01*
X229400Y199795D01*
Y197796D01*
X228400Y196796D01*
X227401D01*
X226401Y197796D01*
X225401Y196796D01*
X224402D01*
X226401Y197796D02*
Y199795D01*
X117400Y552200D02*
Y558198D01*
X120399D01*
X121399Y557198D01*
Y555199D01*
X120399Y554199D01*
X117400D01*
X119399D02*
X121399Y552200D01*
X127397D02*
X123398D01*
X127397Y556199D01*
Y557198D01*
X126397Y558198D01*
X124398D01*
X123398Y557198D01*
X133395Y558198D02*
X131395Y557198D01*
X129396Y555199D01*
Y553200D01*
X130396Y552200D01*
X132395D01*
X133395Y553200D01*
Y554199D01*
X132395Y555199D01*
X129396D01*
X165800Y541000D02*
Y546998D01*
X168799D01*
X169799Y545998D01*
Y543999D01*
X168799Y542999D01*
X165800D01*
X167799D02*
X169799Y541000D01*
X175797D02*
X171798D01*
X175797Y544999D01*
Y545998D01*
X174797Y546998D01*
X172798D01*
X171798Y545998D01*
X181795Y546998D02*
X177796D01*
Y543999D01*
X179796Y544999D01*
X180795D01*
X181795Y543999D01*
Y542000D01*
X180795Y541000D01*
X178796D01*
X177796Y542000D01*
X118000Y569000D02*
Y574998D01*
X120999D01*
X121999Y573998D01*
Y571999D01*
X120999Y570999D01*
X118000D01*
X119999D02*
X121999Y569000D01*
X127997D02*
X123998D01*
X127997Y572999D01*
Y573998D01*
X126997Y574998D01*
X124998D01*
X123998Y573998D01*
X132995Y569000D02*
Y574998D01*
X129996Y571999D01*
X133995D01*
X306400Y198800D02*
X312398D01*
Y195801D01*
X311398Y194801D01*
X309399D01*
X308399Y195801D01*
Y198800D01*
Y196801D02*
X306400Y194801D01*
Y188803D02*
Y192802D01*
X310399Y188803D01*
X311398D01*
X312398Y189803D01*
Y191802D01*
X311398Y192802D01*
Y186804D02*
X312398Y185804D01*
Y183805D01*
X311398Y182805D01*
X310399D01*
X309399Y183805D01*
Y184804D01*
Y183805D01*
X308399Y182805D01*
X307400D01*
X306400Y183805D01*
Y185804D01*
X307400Y186804D01*
X219200Y104000D02*
Y98002D01*
X216201D01*
X215201Y99002D01*
Y101001D01*
X216201Y102001D01*
X219200D01*
X217201D02*
X215201Y104000D01*
X209203D02*
X213202D01*
X209203Y100001D01*
Y99002D01*
X210203Y98002D01*
X212202D01*
X213202Y99002D01*
X203205Y104000D02*
X207204D01*
X203205Y100001D01*
Y99002D01*
X204205Y98002D01*
X206204D01*
X207204Y99002D01*
X219200Y113200D02*
Y107202D01*
X216201D01*
X215201Y108202D01*
Y110201D01*
X216201Y111201D01*
X219200D01*
X217201D02*
X215201Y113200D01*
X209203D02*
X213202D01*
X209203Y109201D01*
Y108202D01*
X210203Y107202D01*
X212202D01*
X213202Y108202D01*
X207204Y113200D02*
X205205D01*
X206204D01*
Y107202D01*
X207204Y108202D01*
X219000Y140800D02*
Y134802D01*
X216001D01*
X215001Y135802D01*
Y137801D01*
X216001Y138801D01*
X219000D01*
X217001D02*
X215001Y140800D01*
X209003D02*
X213002D01*
X209003Y136801D01*
Y135802D01*
X210003Y134802D01*
X212002D01*
X213002Y135802D01*
X207004D02*
X206004Y134802D01*
X204005D01*
X203005Y135802D01*
Y139800D01*
X204005Y140800D01*
X206004D01*
X207004Y139800D01*
Y135802D01*
X219600Y131000D02*
Y125002D01*
X216601D01*
X215601Y126002D01*
Y128001D01*
X216601Y129001D01*
X219600D01*
X217601D02*
X215601Y131000D01*
X213602D02*
X211603D01*
X212602D01*
Y125002D01*
X213602Y126002D01*
X208604Y130000D02*
X207604Y131000D01*
X205605D01*
X204605Y130000D01*
Y126002D01*
X205605Y125002D01*
X207604D01*
X208604Y126002D01*
Y127001D01*
X207604Y128001D01*
X204605D01*
X219000Y122200D02*
Y116202D01*
X216001D01*
X215001Y117202D01*
Y119201D01*
X216001Y120201D01*
X219000D01*
X217001D02*
X215001Y122200D01*
X213002D02*
X211003D01*
X212002D01*
Y116202D01*
X213002Y117202D01*
X208004D02*
X207004Y116202D01*
X205005D01*
X204005Y117202D01*
Y118201D01*
X205005Y119201D01*
X204005Y120201D01*
Y121200D01*
X205005Y122200D01*
X207004D01*
X208004Y121200D01*
Y120201D01*
X207004Y119201D01*
X208004Y118201D01*
Y117202D01*
X207004Y119201D02*
X205005D01*
X146800Y200000D02*
Y205998D01*
X149799D01*
X150799Y204998D01*
Y202999D01*
X149799Y201999D01*
X146800D01*
X148799D02*
X150799Y200000D01*
X152798D02*
X154797D01*
X153798D01*
Y205998D01*
X152798Y204998D01*
X157796Y205998D02*
X161795D01*
Y204998D01*
X157796Y201000D01*
Y200000D01*
X369000Y98847D02*
X374998D01*
Y95848D01*
X373998Y94849D01*
X371999D01*
X370999Y95848D01*
Y98847D01*
Y96848D02*
X369000Y94849D01*
X374998Y88850D02*
X373998Y90850D01*
X371999Y92849D01*
X370000D01*
X369000Y91849D01*
Y89850D01*
X370000Y88850D01*
X370999D01*
X371999Y89850D01*
Y92849D01*
X389600Y99000D02*
X395598D01*
Y96001D01*
X394598Y95001D01*
X392599D01*
X391599Y96001D01*
Y99000D01*
Y97001D02*
X389600Y95001D01*
X395598Y89003D02*
Y93002D01*
X392599D01*
X393599Y91003D01*
Y90003D01*
X392599Y89003D01*
X390600D01*
X389600Y90003D01*
Y92002D01*
X390600Y93002D01*
X215400Y348200D02*
X209402D01*
Y351199D01*
X210402Y352199D01*
X212401D01*
X213401Y351199D01*
Y348200D01*
Y350199D02*
X215400Y352199D01*
Y358197D02*
Y354198D01*
X211401Y358197D01*
X210402D01*
X209402Y357197D01*
Y355198D01*
X210402Y354198D01*
X210800Y393400D02*
X204802D01*
Y396399D01*
X205802Y397399D01*
X207801D01*
X208801Y396399D01*
Y393400D01*
Y395399D02*
X210800Y397399D01*
Y399398D02*
Y401397D01*
Y400398D01*
X204802D01*
X205802Y399398D01*
X538699Y30100D02*
Y34098D01*
X537699Y35098D01*
X535700D01*
X534700Y34098D01*
Y30100D01*
X535700Y29100D01*
X537699D01*
X536699Y31099D02*
X538699Y29100D01*
X537699D02*
X538699Y30100D01*
X540698Y29100D02*
X542697D01*
X541698D01*
Y35098D01*
X540698Y34098D01*
X446600Y464000D02*
Y469998D01*
X449599D01*
X450599Y468998D01*
Y466999D01*
X449599Y465999D01*
X446600D01*
X452598Y468998D02*
X453598Y469998D01*
X455597D01*
X456597Y468998D01*
Y467999D01*
X455597Y466999D01*
X454597D01*
X455597D01*
X456597Y465999D01*
Y465000D01*
X455597Y464000D01*
X453598D01*
X452598Y465000D01*
X486000Y463600D02*
Y469598D01*
X488999D01*
X489999Y468598D01*
Y466599D01*
X488999Y465599D01*
X486000D01*
X495997Y463600D02*
X491998D01*
X495997Y467599D01*
Y468598D01*
X494997Y469598D01*
X492998D01*
X491998Y468598D01*
X396900Y131400D02*
Y137398D01*
X399899D01*
X400899Y136398D01*
Y134399D01*
X399899Y133399D01*
X396900D01*
X402898Y131400D02*
X404897D01*
X403898D01*
Y137398D01*
X402898Y136398D01*
X37600Y535802D02*
Y541800D01*
Y539801D01*
X33601Y535802D01*
X36600Y538801D01*
X33601Y541800D01*
X31602D02*
X29603D01*
X30602D01*
Y535802D01*
X31602Y536802D01*
X371399Y83998D02*
X369399D01*
X370399D01*
Y79000D01*
X369399Y78000D01*
X368400D01*
X367400Y79000D01*
X373398Y83998D02*
X377397D01*
X375397D01*
Y78000D01*
X379396D02*
Y81999D01*
X381396Y83998D01*
X383395Y81999D01*
Y78000D01*
Y80999D01*
X379396D01*
X389393Y82998D02*
X388393Y83998D01*
X386394D01*
X385394Y82998D01*
Y79000D01*
X386394Y78000D01*
X388393D01*
X389393Y79000D01*
Y80999D01*
X387393D01*
X391392Y77000D02*
X395391D01*
X401389Y82998D02*
X400389Y83998D01*
X398390D01*
X397390Y82998D01*
Y81999D01*
X398390Y80999D01*
X400389D01*
X401389Y79999D01*
Y79000D01*
X400389Y78000D01*
X398390D01*
X397390Y79000D01*
X407387Y83998D02*
X403388D01*
Y78000D01*
X407387D01*
X403388Y80999D02*
X405388D01*
X409386Y83998D02*
Y78000D01*
X413385D01*
X170599Y564198D02*
X169599Y565198D01*
X167600D01*
X166600Y564198D01*
Y560200D01*
X167600Y559200D01*
X169599D01*
X170599Y560200D01*
X176597Y565198D02*
X174597Y564198D01*
X172598Y562199D01*
Y560200D01*
X173598Y559200D01*
X175597D01*
X176597Y560200D01*
Y561199D01*
X175597Y562199D01*
X172598D01*
X181595Y559200D02*
Y565198D01*
X178596Y562199D01*
X182595D01*
X325557Y120402D02*
X326557Y119402D01*
X328556D01*
X329556Y120402D01*
Y124400D01*
X328556Y125400D01*
X326557D01*
X325557Y124400D01*
X319559Y119402D02*
X321558Y120402D01*
X323558Y122401D01*
Y124400D01*
X322558Y125400D01*
X320559D01*
X319559Y124400D01*
Y123401D01*
X320559Y122401D01*
X323558D01*
X317560Y120402D02*
X316560Y119402D01*
X314561D01*
X313561Y120402D01*
Y121401D01*
X314561Y122401D01*
X315560D01*
X314561D01*
X313561Y123401D01*
Y124400D01*
X314561Y125400D01*
X316560D01*
X317560Y124400D01*
X325801Y111402D02*
X326801Y110402D01*
X328800D01*
X329800Y111402D01*
Y115400D01*
X328800Y116400D01*
X326801D01*
X325801Y115400D01*
X319803Y110402D02*
X321803Y111402D01*
X323802Y113401D01*
Y115400D01*
X322802Y116400D01*
X320803D01*
X319803Y115400D01*
Y114401D01*
X320803Y113401D01*
X323802D01*
X317804Y116400D02*
X315805D01*
X316804D01*
Y110402D01*
X317804Y111402D01*
X187599Y524998D02*
X186599Y525998D01*
X184600D01*
X183600Y524998D01*
Y521000D01*
X184600Y520000D01*
X186599D01*
X187599Y521000D01*
X193597Y525998D02*
X189598D01*
Y522999D01*
X191597Y523999D01*
X192597D01*
X193597Y522999D01*
Y521000D01*
X192597Y520000D01*
X190598D01*
X189598Y521000D01*
X195596Y524998D02*
X196596Y525998D01*
X198595D01*
X199595Y524998D01*
Y523999D01*
X198595Y522999D01*
X199595Y521999D01*
Y521000D01*
X198595Y520000D01*
X196596D01*
X195596Y521000D01*
Y521999D01*
X196596Y522999D01*
X195596Y523999D01*
Y524998D01*
X196596Y522999D02*
X198595D01*
X181602Y445799D02*
X180602Y444799D01*
Y442800D01*
X181602Y441800D01*
X185600D01*
X186600Y442800D01*
Y444799D01*
X185600Y445799D01*
X180602Y451797D02*
Y447798D01*
X183601D01*
X182601Y449797D01*
Y450797D01*
X183601Y451797D01*
X185600D01*
X186600Y450797D01*
Y448798D01*
X185600Y447798D01*
X180602Y453796D02*
Y457795D01*
X181602D01*
X185600Y453796D01*
X186600D01*
X537798Y73201D02*
X538798Y74201D01*
Y76200D01*
X537798Y77200D01*
X533800D01*
X532800Y76200D01*
Y74201D01*
X533800Y73201D01*
X537798Y71202D02*
X538798Y70202D01*
Y68203D01*
X537798Y67203D01*
X536799D01*
X535799Y68203D01*
Y69203D01*
Y68203D01*
X534799Y67203D01*
X533800D01*
X532800Y68203D01*
Y70202D01*
X533800Y71202D01*
X532800Y61205D02*
Y65204D01*
X536799Y61205D01*
X537798D01*
X538798Y62205D01*
Y64204D01*
X537798Y65204D01*
X211602Y333999D02*
X210602Y332999D01*
Y331000D01*
X211602Y330000D01*
X215600D01*
X216600Y331000D01*
Y332999D01*
X215600Y333999D01*
X211602Y335998D02*
X210602Y336998D01*
Y338997D01*
X211602Y339997D01*
X212601D01*
X213601Y338997D01*
Y337997D01*
Y338997D01*
X214601Y339997D01*
X215600D01*
X216600Y338997D01*
Y336998D01*
X215600Y335998D01*
X216600Y341996D02*
Y343995D01*
Y342996D01*
X210602D01*
X211602Y341996D01*
X186802Y342599D02*
X185802Y341599D01*
Y339600D01*
X186802Y338600D01*
X190800D01*
X191800Y339600D01*
Y341599D01*
X190800Y342599D01*
X191800Y348597D02*
Y344598D01*
X187801Y348597D01*
X186802D01*
X185802Y347597D01*
Y345598D01*
X186802Y344598D01*
X190800Y350596D02*
X191800Y351596D01*
Y353595D01*
X190800Y354595D01*
X186802D01*
X185802Y353595D01*
Y351596D01*
X186802Y350596D01*
X187801D01*
X188801Y351596D01*
Y354595D01*
X211002Y367799D02*
X210002Y366799D01*
Y364800D01*
X211002Y363800D01*
X215000D01*
X216000Y364800D01*
Y366799D01*
X215000Y367799D01*
X216000Y373797D02*
Y369798D01*
X212001Y373797D01*
X211002D01*
X210002Y372797D01*
Y370798D01*
X211002Y369798D01*
X210002Y379795D02*
X211002Y377796D01*
X213001Y375796D01*
X215000D01*
X216000Y376796D01*
Y378795D01*
X215000Y379795D01*
X214001D01*
X213001Y378795D01*
Y375796D01*
X179802Y479599D02*
X178802Y478599D01*
Y476600D01*
X179802Y475600D01*
X183800D01*
X184800Y476600D01*
Y478599D01*
X183800Y479599D01*
X184800Y485597D02*
Y481598D01*
X180801Y485597D01*
X179802D01*
X178802Y484597D01*
Y482598D01*
X179802Y481598D01*
X184800Y490595D02*
X178802D01*
X181801Y487596D01*
Y491595D01*
X188602Y378599D02*
X187602Y377599D01*
Y375600D01*
X188602Y374600D01*
X192600D01*
X193600Y375600D01*
Y377599D01*
X192600Y378599D01*
X193600Y384597D02*
Y380598D01*
X189601Y384597D01*
X188602D01*
X187602Y383597D01*
Y381598D01*
X188602Y380598D01*
X193600Y390595D02*
Y386596D01*
X189601Y390595D01*
X188602D01*
X187602Y389595D01*
Y387596D01*
X188602Y386596D01*
X140202Y63599D02*
X139202Y62599D01*
Y60600D01*
X140202Y59600D01*
X144200D01*
X145200Y60600D01*
Y62599D01*
X144200Y63599D01*
X145200Y69597D02*
Y65598D01*
X141201Y69597D01*
X140202D01*
X139202Y68597D01*
Y66598D01*
X140202Y65598D01*
X145200Y71596D02*
Y73595D01*
Y72596D01*
X139202D01*
X140202Y71596D01*
X151402Y62443D02*
X150402Y61443D01*
Y59444D01*
X151402Y58444D01*
X155400D01*
X156400Y59444D01*
Y61443D01*
X155400Y62443D01*
X156400Y68441D02*
Y64442D01*
X152401Y68441D01*
X151402D01*
X150402Y67441D01*
Y65442D01*
X151402Y64442D01*
Y70440D02*
X150402Y71440D01*
Y73439D01*
X151402Y74439D01*
X155400D01*
X156400Y73439D01*
Y71440D01*
X155400Y70440D01*
X151402D01*
X163802Y62799D02*
X162802Y61799D01*
Y59800D01*
X163802Y58800D01*
X167800D01*
X168800Y59800D01*
Y61799D01*
X167800Y62799D01*
X168800Y64798D02*
Y66797D01*
Y65798D01*
X162802D01*
X163802Y64798D01*
Y69796D02*
X162802Y70796D01*
Y72795D01*
X163802Y73795D01*
X164801D01*
X165801Y72795D01*
X166801Y73795D01*
X167800D01*
X168800Y72795D01*
Y70796D01*
X167800Y69796D01*
X166801D01*
X165801Y70796D01*
X164801Y69796D01*
X163802D01*
X165801Y70796D02*
Y72795D01*
X175402Y62799D02*
X174402Y61799D01*
Y59800D01*
X175402Y58800D01*
X179400D01*
X180400Y59800D01*
Y61799D01*
X179400Y62799D01*
X180400Y64798D02*
Y66797D01*
Y65798D01*
X174402D01*
X175402Y64798D01*
X174402Y73795D02*
X175402Y71796D01*
X177401Y69796D01*
X179400D01*
X180400Y70796D01*
Y72795D01*
X179400Y73795D01*
X178401D01*
X177401Y72795D01*
Y69796D01*
X206799Y525398D02*
X205799Y526398D01*
X203800D01*
X202800Y525398D01*
Y521400D01*
X203800Y520400D01*
X205799D01*
X206799Y521400D01*
X208798Y520400D02*
X210797D01*
X209798D01*
Y526398D01*
X208798Y525398D01*
X217795Y520400D02*
X213796D01*
X217795Y524399D01*
Y525398D01*
X216795Y526398D01*
X214796D01*
X213796Y525398D01*
X187202Y62399D02*
X186202Y61399D01*
Y59400D01*
X187202Y58400D01*
X191200D01*
X192200Y59400D01*
Y61399D01*
X191200Y62399D01*
X192200Y64398D02*
Y66397D01*
Y65398D01*
X186202D01*
X187202Y64398D01*
Y69396D02*
X186202Y70396D01*
Y72395D01*
X187202Y73395D01*
X191200D01*
X192200Y72395D01*
Y70396D01*
X191200Y69396D01*
X187202D01*
X218755Y448398D02*
X217755Y449398D01*
X215756D01*
X214756Y448398D01*
Y444400D01*
X215756Y443400D01*
X217755D01*
X218755Y444400D01*
X220754Y448398D02*
X221754Y449398D01*
X223753D01*
X224753Y448398D01*
Y447399D01*
X223753Y446399D01*
X222753D01*
X223753D01*
X224753Y445399D01*
Y444400D01*
X223753Y443400D01*
X221754D01*
X220754Y444400D01*
X438400Y442598D02*
Y437600D01*
X439400Y436600D01*
X441399D01*
X442399Y437600D01*
Y442598D01*
X448397D02*
X444398D01*
Y439599D01*
X446397Y440599D01*
X447397D01*
X448397Y439599D01*
Y437600D01*
X447397Y436600D01*
X445398D01*
X444398Y437600D01*
X9600Y130400D02*
Y136398D01*
X12599D01*
X13599Y135398D01*
Y133399D01*
X12599Y132399D01*
X9600D01*
X11599D02*
X13599Y130400D01*
X19597Y136398D02*
X15598D01*
Y130400D01*
X19597D01*
X15598Y133399D02*
X17597D01*
X25595Y135398D02*
X24595Y136398D01*
X22596D01*
X21596Y135398D01*
Y131400D01*
X22596Y130400D01*
X24595D01*
X25595Y131400D01*
Y133399D01*
X23595D01*
X27594Y129400D02*
X31593D01*
X37591Y136398D02*
X33592D01*
Y133399D01*
X35592Y134399D01*
X36591D01*
X37591Y133399D01*
Y131400D01*
X36591Y130400D01*
X34592D01*
X33592Y131400D01*
X39590Y136398D02*
Y132399D01*
X41590Y130400D01*
X43589Y132399D01*
Y136398D01*
X8800Y244600D02*
Y250598D01*
X11799D01*
X12799Y249598D01*
Y247599D01*
X11799Y246599D01*
X8800D01*
X10799D02*
X12799Y244600D01*
X18797Y250598D02*
X14798D01*
Y244600D01*
X18797D01*
X14798Y247599D02*
X16797D01*
X24795Y249598D02*
X23795Y250598D01*
X21796D01*
X20796Y249598D01*
Y245600D01*
X21796Y244600D01*
X23795D01*
X24795Y245600D01*
Y247599D01*
X22795D01*
X26794Y243600D02*
X30793D01*
X32792Y249598D02*
X33792Y250598D01*
X35791D01*
X36791Y249598D01*
Y248599D01*
X35791Y247599D01*
X34792D01*
X35791D01*
X36791Y246599D01*
Y245600D01*
X35791Y244600D01*
X33792D01*
X32792Y245600D01*
X38790Y250598D02*
Y246599D01*
X40790Y244600D01*
X42789Y246599D01*
Y250598D01*
X9400Y189600D02*
Y195598D01*
X12399D01*
X13399Y194598D01*
Y192599D01*
X12399Y191599D01*
X9400D01*
X11399D02*
X13399Y189600D01*
X19397Y195598D02*
X15398D01*
Y189600D01*
X19397D01*
X15398Y192599D02*
X17397D01*
X25395Y194598D02*
X24395Y195598D01*
X22396D01*
X21396Y194598D01*
Y190600D01*
X22396Y189600D01*
X24395D01*
X25395Y190600D01*
Y192599D01*
X23395D01*
X27394Y188600D02*
X31393D01*
X33392Y194598D02*
X34392Y195598D01*
X36391D01*
X37391Y194598D01*
Y193599D01*
X36391Y192599D01*
X35392D01*
X36391D01*
X37391Y191599D01*
Y190600D01*
X36391Y189600D01*
X34392D01*
X33392Y190600D01*
X39390Y195598D02*
Y191599D01*
X41390Y189600D01*
X43389Y191599D01*
Y195598D01*
X45388Y194598D02*
X46388Y195598D01*
X48387D01*
X49387Y194598D01*
Y193599D01*
X48387Y192599D01*
X47388D01*
X48387D01*
X49387Y191599D01*
Y190600D01*
X48387Y189600D01*
X46388D01*
X45388Y190600D01*
X9000Y298000D02*
Y303998D01*
X11999D01*
X12999Y302998D01*
Y300999D01*
X11999Y299999D01*
X9000D01*
X10999D02*
X12999Y298000D01*
X18997Y303998D02*
X14998D01*
Y298000D01*
X18997D01*
X14998Y300999D02*
X16997D01*
X24995Y302998D02*
X23995Y303998D01*
X21996D01*
X20996Y302998D01*
Y299000D01*
X21996Y298000D01*
X23995D01*
X24995Y299000D01*
Y300999D01*
X22996D01*
X26994Y297000D02*
X30993D01*
X32992Y298000D02*
X34992D01*
X33992D01*
Y303998D01*
X32992Y302998D01*
X37991Y303998D02*
Y299999D01*
X39990Y298000D01*
X41989Y299999D01*
Y303998D01*
X43989Y302998D02*
X44988Y303998D01*
X46988D01*
X47987Y302998D01*
Y301999D01*
X46988Y300999D01*
X47987Y299999D01*
Y299000D01*
X46988Y298000D01*
X44988D01*
X43989Y299000D01*
Y299999D01*
X44988Y300999D01*
X43989Y301999D01*
Y302998D01*
X44988Y300999D02*
X46988D01*
X113900Y204500D02*
Y210498D01*
X116899D01*
X117899Y209498D01*
Y207499D01*
X116899Y206499D01*
X113900D01*
X115899D02*
X117899Y204500D01*
X123897Y210498D02*
X119898D01*
Y207499D01*
X121897Y208499D01*
X122897D01*
X123897Y207499D01*
Y205500D01*
X122897Y204500D01*
X120898D01*
X119898Y205500D01*
X128895Y204500D02*
Y210498D01*
X125896Y207499D01*
X129895D01*
X113047Y237400D02*
Y243398D01*
X116046D01*
X117046Y242398D01*
Y240399D01*
X116046Y239399D01*
X113047D01*
X115047D02*
X117046Y237400D01*
X123044Y243398D02*
X119045D01*
Y240399D01*
X121045Y241399D01*
X122044D01*
X123044Y240399D01*
Y238400D01*
X122044Y237400D01*
X120045D01*
X119045Y238400D01*
X125043Y242398D02*
X126043Y243398D01*
X128042D01*
X129042Y242398D01*
Y241399D01*
X128042Y240399D01*
X127043D01*
X128042D01*
X129042Y239399D01*
Y238400D01*
X128042Y237400D01*
X126043D01*
X125043Y238400D01*
X113400Y147600D02*
Y153598D01*
X116399D01*
X117399Y152598D01*
Y150599D01*
X116399Y149599D01*
X113400D01*
X115399D02*
X117399Y147600D01*
X123397Y153598D02*
X119398D01*
Y150599D01*
X121397Y151599D01*
X122397D01*
X123397Y150599D01*
Y148600D01*
X122397Y147600D01*
X120398D01*
X119398Y148600D01*
X129395Y147600D02*
X125396D01*
X129395Y151599D01*
Y152598D01*
X128395Y153598D01*
X126396D01*
X125396Y152598D01*
X115753Y181400D02*
Y187398D01*
X118752D01*
X119752Y186398D01*
Y184399D01*
X118752Y183399D01*
X115753D01*
X117752D02*
X119752Y181400D01*
X125750Y187398D02*
X121751D01*
Y184399D01*
X123750Y185399D01*
X124750D01*
X125750Y184399D01*
Y182400D01*
X124750Y181400D01*
X122750D01*
X121751Y182400D01*
X127749Y181400D02*
X129748D01*
X128749D01*
Y187398D01*
X127749Y186398D01*
X111100Y124600D02*
Y130598D01*
X114099D01*
X115099Y129598D01*
Y127599D01*
X114099Y126599D01*
X111100D01*
X113099D02*
X115099Y124600D01*
X121097Y130598D02*
X117098D01*
Y127599D01*
X119097Y128599D01*
X120097D01*
X121097Y127599D01*
Y125600D01*
X120097Y124600D01*
X118098D01*
X117098Y125600D01*
X123096Y129598D02*
X124096Y130598D01*
X126095D01*
X127095Y129598D01*
Y125600D01*
X126095Y124600D01*
X124096D01*
X123096Y125600D01*
Y129598D01*
X112600Y90200D02*
Y96198D01*
X115599D01*
X116599Y95198D01*
Y93199D01*
X115599Y92199D01*
X112600D01*
X114599D02*
X116599Y90200D01*
X121597D02*
Y96198D01*
X118598Y93199D01*
X122597D01*
X124596Y91200D02*
X125596Y90200D01*
X127595D01*
X128595Y91200D01*
Y95198D01*
X127595Y96198D01*
X125596D01*
X124596Y95198D01*
Y94199D01*
X125596Y93199D01*
X128595D01*
X113200Y289800D02*
Y295798D01*
X116199D01*
X117199Y294798D01*
Y292799D01*
X116199Y291799D01*
X113200D01*
X115199D02*
X117199Y289800D01*
X122197D02*
Y295798D01*
X119198Y292799D01*
X123197D01*
X125196Y294798D02*
X126196Y295798D01*
X128195D01*
X129195Y294798D01*
Y293799D01*
X128195Y292799D01*
X129195Y291799D01*
Y290800D01*
X128195Y289800D01*
X126196D01*
X125196Y290800D01*
Y291799D01*
X126196Y292799D01*
X125196Y293799D01*
Y294798D01*
X126196Y292799D02*
X128195D01*
X111000Y259800D02*
Y265798D01*
X113999D01*
X114999Y264798D01*
Y262799D01*
X113999Y261799D01*
X111000D01*
X112999D02*
X114999Y259800D01*
X119997D02*
Y265798D01*
X116998Y262799D01*
X120997D01*
X122996Y265798D02*
X126995D01*
Y264798D01*
X122996Y260800D01*
Y259800D01*
X51799Y68098D02*
X49799D01*
X50799D01*
Y63100D01*
X49799Y62100D01*
X48800D01*
X47800Y63100D01*
X56797Y62100D02*
Y68098D01*
X53798Y65099D01*
X57797D01*
X119799Y220598D02*
X118799Y221598D01*
X116800D01*
X115800Y220598D01*
Y216600D01*
X116800Y215600D01*
X118799D01*
X119799Y216600D01*
X121798Y221598D02*
X125797D01*
Y220598D01*
X121798Y216600D01*
Y215600D01*
X127796Y220598D02*
X128796Y221598D01*
X130795D01*
X131795Y220598D01*
Y219599D01*
X130795Y218599D01*
X131795Y217599D01*
Y216600D01*
X130795Y215600D01*
X128796D01*
X127796Y216600D01*
Y217599D01*
X128796Y218599D01*
X127796Y219599D01*
Y220598D01*
X128796Y218599D02*
X130795D01*
X119199Y231598D02*
X118199Y232598D01*
X116200D01*
X115200Y231598D01*
Y227600D01*
X116200Y226600D01*
X118199D01*
X119199Y227600D01*
X121198Y232598D02*
X125197D01*
Y231598D01*
X121198Y227600D01*
Y226600D01*
X127196Y232598D02*
X131195D01*
Y231598D01*
X127196Y227600D01*
Y226600D01*
X119999Y164398D02*
X118999Y165398D01*
X117000D01*
X116000Y164398D01*
Y160400D01*
X117000Y159400D01*
X118999D01*
X119999Y160400D01*
X121998Y165398D02*
X125997D01*
Y164398D01*
X121998Y160400D01*
Y159400D01*
X131995Y165398D02*
X129996Y164398D01*
X127996Y162399D01*
Y160400D01*
X128996Y159400D01*
X130995D01*
X131995Y160400D01*
Y161399D01*
X130995Y162399D01*
X127996D01*
X119999Y176598D02*
X118999Y177598D01*
X117000D01*
X116000Y176598D01*
Y172600D01*
X117000Y171600D01*
X118999D01*
X119999Y172600D01*
X121998Y177598D02*
X125997D01*
Y176598D01*
X121998Y172600D01*
Y171600D01*
X131995Y177598D02*
X127996D01*
Y174599D01*
X129996Y175599D01*
X130995D01*
X131995Y174599D01*
Y172600D01*
X130995Y171600D01*
X128996D01*
X127996Y172600D01*
X120599Y107398D02*
X119599Y108398D01*
X117600D01*
X116600Y107398D01*
Y103400D01*
X117600Y102400D01*
X119599D01*
X120599Y103400D01*
X122598Y108398D02*
X126597D01*
Y107398D01*
X122598Y103400D01*
Y102400D01*
X131595D02*
Y108398D01*
X128596Y105399D01*
X132595D01*
X120914Y117998D02*
X119914Y118998D01*
X117915D01*
X116915Y117998D01*
Y114000D01*
X117915Y113000D01*
X119914D01*
X120914Y114000D01*
X122913Y118998D02*
X126912D01*
Y117998D01*
X122913Y114000D01*
Y113000D01*
X128911Y117998D02*
X129911Y118998D01*
X131910D01*
X132910Y117998D01*
Y116999D01*
X131910Y115999D01*
X130910D01*
X131910D01*
X132910Y114999D01*
Y114000D01*
X131910Y113000D01*
X129911D01*
X128911Y114000D01*
X118199Y275398D02*
X117199Y276398D01*
X115200D01*
X114200Y275398D01*
Y271400D01*
X115200Y270400D01*
X117199D01*
X118199Y271400D01*
X120198Y276398D02*
X124197D01*
Y275398D01*
X120198Y271400D01*
Y270400D01*
X130195D02*
X126196D01*
X130195Y274399D01*
Y275398D01*
X129195Y276398D01*
X127196D01*
X126196Y275398D01*
X118199Y285198D02*
X117199Y286198D01*
X115200D01*
X114200Y285198D01*
Y281200D01*
X115200Y280200D01*
X117199D01*
X118199Y281200D01*
X120198Y286198D02*
X124197D01*
Y285198D01*
X120198Y281200D01*
Y280200D01*
X126196D02*
X128196D01*
X127196D01*
Y286198D01*
X126196Y285198D01*
X349198Y181200D02*
X343200Y177201D01*
X349198D02*
X343200Y181200D01*
X348198Y175202D02*
X349198Y174202D01*
Y172203D01*
X348198Y171203D01*
X347199D01*
X346199Y172203D01*
Y173203D01*
Y172203D01*
X345199Y171203D01*
X344200D01*
X343200Y172203D01*
Y174202D01*
X344200Y175202D01*
X183100Y310698D02*
X187099Y304700D01*
Y310698D02*
X183100Y304700D01*
X193097D02*
X189098D01*
X193097Y308699D01*
Y309698D01*
X192097Y310698D01*
X190098D01*
X189098Y309698D01*
X160750Y297648D02*
X164749Y291650D01*
Y297648D02*
X160750Y291650D01*
X166748D02*
X168747D01*
X167748D01*
Y297648D01*
X166748Y296648D01*
X221877Y560198D02*
Y555200D01*
X222877Y554200D01*
X224876D01*
X225876Y555200D01*
Y560198D01*
X227875Y554200D02*
X229875D01*
X228875D01*
Y560198D01*
X227875Y559198D01*
X232874Y560198D02*
X236872D01*
Y559198D01*
X232874Y555200D01*
Y554200D01*
X253300Y166798D02*
Y161800D01*
X254300Y160800D01*
X256299D01*
X257299Y161800D01*
Y166798D01*
X259298Y160800D02*
X261297D01*
X260298D01*
Y166798D01*
X259298Y165798D01*
X268295Y166798D02*
X266296Y165798D01*
X264296Y163799D01*
Y161800D01*
X265296Y160800D01*
X267296D01*
X268295Y161800D01*
Y162799D01*
X267296Y163799D01*
X264296D01*
X380200Y451898D02*
Y446900D01*
X381200Y445900D01*
X383199D01*
X384199Y446900D01*
Y451898D01*
X386198Y450898D02*
X387198Y451898D01*
X389197D01*
X390197Y450898D01*
Y449899D01*
X389197Y448899D01*
X390197Y447899D01*
Y446900D01*
X389197Y445900D01*
X387198D01*
X386198Y446900D01*
Y447899D01*
X387198Y448899D01*
X386198Y449899D01*
Y450898D01*
X387198Y448899D02*
X389197D01*
X451800Y608998D02*
Y604000D01*
X452800Y603000D01*
X454799D01*
X455799Y604000D01*
Y608998D01*
X457798D02*
X461797D01*
Y607998D01*
X457798Y604000D01*
Y603000D01*
X376950Y607606D02*
Y602607D01*
X377949Y601608D01*
X379949D01*
X380948Y602607D01*
Y607606D01*
X386946D02*
X384947Y606606D01*
X382948Y604607D01*
Y602607D01*
X383947Y601608D01*
X385947D01*
X386946Y602607D01*
Y603607D01*
X385947Y604607D01*
X382948D01*
X252100Y453698D02*
Y448700D01*
X253100Y447700D01*
X255099D01*
X256099Y448700D01*
Y453698D01*
X261097Y447700D02*
Y453698D01*
X258098Y450699D01*
X262097D01*
X379200Y348898D02*
Y343900D01*
X380200Y342900D01*
X382199D01*
X383199Y343900D01*
Y348898D01*
X389197Y342900D02*
X385198D01*
X389197Y346899D01*
Y347898D01*
X388197Y348898D01*
X386198D01*
X385198Y347898D01*
X227950Y384048D02*
Y379050D01*
X228950Y378050D01*
X230949D01*
X231949Y379050D01*
Y384048D01*
X233948Y378050D02*
X235947D01*
X234948D01*
Y384048D01*
X233948Y383048D01*
X315600Y199600D02*
X321598D01*
Y196601D01*
X320598Y195601D01*
X318599D01*
X317599Y196601D01*
Y199600D01*
Y197601D02*
X315600Y195601D01*
Y190603D02*
X321598D01*
X318599Y193602D01*
Y189603D01*
X320598Y187604D02*
X321598Y186604D01*
Y184605D01*
X320598Y183605D01*
X316600D01*
X315600Y184605D01*
Y186604D01*
X316600Y187604D01*
X320598D01*
X279000Y183800D02*
X273002D01*
Y186799D01*
X274002Y187799D01*
X276001D01*
X277001Y186799D01*
Y183800D01*
Y185799D02*
X279000Y187799D01*
Y193797D02*
Y189798D01*
X275001Y193797D01*
X274002D01*
X273002Y192797D01*
Y190798D01*
X274002Y189798D01*
X273002Y195796D02*
Y199795D01*
X274002D01*
X278000Y195796D01*
X279000D01*
X146400Y210200D02*
Y216198D01*
X149399D01*
X150399Y215198D01*
Y213199D01*
X149399Y212199D01*
X146400D01*
X148399D02*
X150399Y210200D01*
X152398D02*
X154397D01*
X153398D01*
Y216198D01*
X152398Y215198D01*
X161395Y216198D02*
X159396Y215198D01*
X157396Y213199D01*
Y211200D01*
X158396Y210200D01*
X160396D01*
X161395Y211200D01*
Y212199D01*
X160396Y213199D01*
X157396D01*
X242199Y609198D02*
X240199D01*
X241199D01*
Y604200D01*
X240199Y603200D01*
X239200D01*
X238200Y604200D01*
X244198Y608198D02*
X245198Y609198D01*
X247197D01*
X248197Y608198D01*
Y607199D01*
X247197Y606199D01*
X246197D01*
X247197D01*
X248197Y605199D01*
Y604200D01*
X247197Y603200D01*
X245198D01*
X244198Y604200D01*
X121199Y606598D02*
X119199D01*
X120199D01*
Y601600D01*
X119199Y600600D01*
X118200D01*
X117200Y601600D01*
X127197Y600600D02*
X123198D01*
X127197Y604599D01*
Y605598D01*
X126197Y606598D01*
X124198D01*
X123198Y605598D01*
X240599Y114498D02*
X238599D01*
X239599D01*
Y109500D01*
X238599Y108500D01*
X237600D01*
X236600Y109500D01*
X242598Y108500D02*
X244597D01*
X243598D01*
Y114498D01*
X242598Y113498D01*
X121199Y565198D02*
X120199Y566198D01*
X118200D01*
X117200Y565198D01*
Y561200D01*
X118200Y560200D01*
X120199D01*
X121199Y561200D01*
X127197Y566198D02*
X125197Y565198D01*
X123198Y563199D01*
Y561200D01*
X124198Y560200D01*
X126197D01*
X127197Y561200D01*
Y562199D01*
X126197Y563199D01*
X123198D01*
X133195Y560200D02*
X129196D01*
X133195Y564199D01*
Y565198D01*
X132195Y566198D01*
X130196D01*
X129196Y565198D01*
X366201Y143802D02*
X367201Y142802D01*
X369200D01*
X370200Y143802D01*
Y147800D01*
X369200Y148800D01*
X367201D01*
X366201Y147800D01*
X360203Y142802D02*
X362203Y143802D01*
X364202Y145801D01*
Y147800D01*
X363202Y148800D01*
X361203D01*
X360203Y147800D01*
Y146801D01*
X361203Y145801D01*
X364202D01*
X358204Y143802D02*
X357204Y142802D01*
X355205D01*
X354205Y143802D01*
Y147800D01*
X355205Y148800D01*
X357204D01*
X358204Y147800D01*
Y143802D01*
X366201Y155202D02*
X367201Y154202D01*
X369200D01*
X370200Y155202D01*
Y159200D01*
X369200Y160200D01*
X367201D01*
X366201Y159200D01*
X360203Y154202D02*
X364202D01*
Y157201D01*
X362203Y156201D01*
X361203D01*
X360203Y157201D01*
Y159200D01*
X361203Y160200D01*
X363202D01*
X364202Y159200D01*
X358204D02*
X357204Y160200D01*
X355205D01*
X354205Y159200D01*
Y155202D01*
X355205Y154202D01*
X357204D01*
X358204Y155202D01*
Y156201D01*
X357204Y157201D01*
X354205D01*
X196002Y269499D02*
X195002Y268499D01*
Y266500D01*
X196002Y265500D01*
X200000D01*
X201000Y266500D01*
Y268499D01*
X200000Y269499D01*
X196002Y271498D02*
X195002Y272498D01*
Y274497D01*
X196002Y275497D01*
X197001D01*
X198001Y274497D01*
Y273497D01*
Y274497D01*
X199001Y275497D01*
X200000D01*
X201000Y274497D01*
Y272498D01*
X200000Y271498D01*
X196002Y277496D02*
X195002Y278496D01*
Y280495D01*
X196002Y281495D01*
X200000D01*
X201000Y280495D01*
Y278496D01*
X200000Y277496D01*
X196002D01*
X196502Y311499D02*
X195502Y310499D01*
Y308500D01*
X196502Y307500D01*
X200500D01*
X201500Y308500D01*
Y310499D01*
X200500Y311499D01*
X201500Y317497D02*
Y313498D01*
X197501Y317497D01*
X196502D01*
X195502Y316497D01*
Y314498D01*
X196502Y313498D01*
Y319496D02*
X195502Y320496D01*
Y322495D01*
X196502Y323495D01*
X197501D01*
X198501Y322495D01*
X199501Y323495D01*
X200500D01*
X201500Y322495D01*
Y320496D01*
X200500Y319496D01*
X199501D01*
X198501Y320496D01*
X197501Y319496D01*
X196502D01*
X198501Y320496D02*
Y322495D01*
X188502Y255754D02*
X187502Y254755D01*
Y252755D01*
X188502Y251756D01*
X192500D01*
X193500Y252755D01*
Y254755D01*
X192500Y255754D01*
X193500Y261753D02*
Y257754D01*
X189501Y261753D01*
X188502D01*
X187502Y260753D01*
Y258753D01*
X188502Y257754D01*
X187502Y263752D02*
Y267751D01*
X188502D01*
X192500Y263752D01*
X193500D01*
X188502Y274999D02*
X187502Y273999D01*
Y272000D01*
X188502Y271000D01*
X192500D01*
X193500Y272000D01*
Y273999D01*
X192500Y274999D01*
X193500Y280997D02*
Y276998D01*
X189501Y280997D01*
X188502D01*
X187502Y279997D01*
Y277998D01*
X188502Y276998D01*
Y282996D02*
X187502Y283996D01*
Y285995D01*
X188502Y286995D01*
X189501D01*
X190501Y285995D01*
Y284996D01*
Y285995D01*
X191501Y286995D01*
X192500D01*
X193500Y285995D01*
Y283996D01*
X192500Y282996D01*
X215599Y306398D02*
X214599Y307398D01*
X212600D01*
X211600Y306398D01*
Y302400D01*
X212600Y301400D01*
X214599D01*
X215599Y302400D01*
X217598Y301400D02*
X219597D01*
X218598D01*
Y307398D01*
X217598Y306398D01*
X222596Y302400D02*
X223596Y301400D01*
X225595D01*
X226595Y302400D01*
Y306398D01*
X225595Y307398D01*
X223596D01*
X222596Y306398D01*
Y305399D01*
X223596Y304399D01*
X226595D01*
X182799Y534798D02*
X181799Y535798D01*
X179800D01*
X178800Y534798D01*
Y530800D01*
X179800Y529800D01*
X181799D01*
X182799Y530800D01*
X184798Y529800D02*
X186797D01*
X185798D01*
Y535798D01*
X184798Y534798D01*
X192796Y529800D02*
Y535798D01*
X189796Y532799D01*
X193795D01*
X367300Y525598D02*
Y520600D01*
X368300Y519600D01*
X370299D01*
X371299Y520600D01*
Y525598D01*
X373298Y519600D02*
X375297D01*
X374298D01*
Y525598D01*
X373298Y524598D01*
X378296D02*
X379296Y525598D01*
X381295D01*
X382295Y524598D01*
Y523599D01*
X381295Y522599D01*
X382295Y521599D01*
Y520600D01*
X381295Y519600D01*
X379296D01*
X378296Y520600D01*
Y521599D01*
X379296Y522599D01*
X378296Y523599D01*
Y524598D01*
X379296Y522599D02*
X381295D01*
X471200Y186398D02*
Y181400D01*
X472200Y180400D01*
X474199D01*
X475199Y181400D01*
Y186398D01*
X477198Y180400D02*
X479197D01*
X478198D01*
Y186398D01*
X477198Y185398D01*
X482196Y181400D02*
X483196Y180400D01*
X485195D01*
X486195Y181400D01*
Y185398D01*
X485195Y186398D01*
X483196D01*
X482196Y185398D01*
Y184399D01*
X483196Y183399D01*
X486195D01*
X543200Y522798D02*
Y517800D01*
X544200Y516800D01*
X546199D01*
X547199Y517800D01*
Y522798D01*
X553197Y516800D02*
X549198D01*
X553197Y520799D01*
Y521798D01*
X552197Y522798D01*
X550198D01*
X549198Y521798D01*
X555196D02*
X556196Y522798D01*
X558195D01*
X559195Y521798D01*
Y517800D01*
X558195Y516800D01*
X556196D01*
X555196Y517800D01*
Y521798D01*
X447900Y330198D02*
Y325200D01*
X448900Y324200D01*
X450899D01*
X451899Y325200D01*
Y330198D01*
X457897Y324200D02*
X453898D01*
X457897Y328199D01*
Y329198D01*
X456897Y330198D01*
X454898D01*
X453898Y329198D01*
X459896Y324200D02*
X461896D01*
X460896D01*
Y330198D01*
X459896Y329198D01*
X51002Y478400D02*
X56000D01*
X57000Y479400D01*
Y481399D01*
X56000Y482399D01*
X51002D01*
X56000Y484398D02*
X57000Y485398D01*
Y487397D01*
X56000Y488397D01*
X52002D01*
X51002Y487397D01*
Y485398D01*
X52002Y484398D01*
X53001D01*
X54001Y485398D01*
Y488397D01*
X79602Y476800D02*
X84600D01*
X85600Y477800D01*
Y479799D01*
X84600Y480799D01*
X79602D01*
X85600Y482798D02*
Y484797D01*
Y483798D01*
X79602D01*
X80602Y482798D01*
X85600Y487796D02*
Y489796D01*
Y488796D01*
X79602D01*
X80602Y487796D01*
X13100Y427898D02*
Y421900D01*
X16099D01*
X17099Y422900D01*
Y426898D01*
X16099Y427898D01*
X13100D01*
X19098D02*
X21097D01*
X20098D01*
Y421900D01*
X19098D01*
X21097D01*
X28095Y426898D02*
X27095Y427898D01*
X25096D01*
X24096Y426898D01*
Y425899D01*
X25096Y424899D01*
X27095D01*
X28095Y423899D01*
Y422900D01*
X27095Y421900D01*
X25096D01*
X24096Y422900D01*
X30095Y421900D02*
Y427898D01*
X33094D01*
X34093Y426898D01*
Y424899D01*
X33094Y423899D01*
X30095D01*
X36093Y421900D02*
X38092D01*
X37092D01*
Y427898D01*
X36093Y426898D01*
X60466Y9599D02*
X57800D01*
Y7599D01*
X59133D01*
X57800D01*
Y5600D01*
X62465Y8266D02*
X63798D01*
X64464Y7599D01*
Y5600D01*
X62465D01*
X61799Y6266D01*
X62465Y6933D01*
X64464D01*
X68463Y8266D02*
X66464D01*
X65797Y7599D01*
Y6266D01*
X66464Y5600D01*
X68463D01*
X71795D02*
X70463D01*
X69796Y6266D01*
Y7599D01*
X70463Y8266D01*
X71795D01*
X72462Y7599D01*
Y6933D01*
X69796D01*
D32*
X199512Y421004D02*
X211323D01*
X199512Y441083D02*
X211323D01*
Y421004D02*
Y441083D01*
X199512Y421004D02*
Y441083D01*
X205222Y385813D02*
Y387387D01*
X207978Y385813D02*
Y387387D01*
X204622Y352413D02*
Y353987D01*
X207378Y352413D02*
Y353987D01*
X198494Y489561D02*
X210306D01*
X198494Y509639D02*
X210306D01*
Y489561D02*
Y509639D01*
X198494Y489561D02*
Y509639D01*
Y454961D02*
X210306D01*
X198494Y475039D02*
X210306D01*
Y454961D02*
Y475039D01*
X198494Y454961D02*
Y475039D01*
X158413Y546578D02*
X159987D01*
X158413Y543822D02*
X159987D01*
X158565Y552422D02*
X160140D01*
X158565Y555178D02*
X160140D01*
X139813Y550178D02*
X141387D01*
X139813Y547422D02*
X141387D01*
X140213Y557978D02*
X141787D01*
X140213Y555222D02*
X141787D01*
X140213Y569622D02*
X141787D01*
X140213Y572378D02*
X141787D01*
X158813Y570022D02*
X160387D01*
X158813Y572778D02*
X160387D01*
X370022Y81460D02*
Y83035D01*
X372778Y81460D02*
Y83035D01*
X391222Y80260D02*
Y81835D01*
X393978Y80260D02*
Y81835D01*
X167013Y201222D02*
X168587D01*
X167013Y203978D02*
X168587D01*
X167213Y211222D02*
X168787D01*
X167213Y213978D02*
X168787D01*
X227978Y177013D02*
Y178587D01*
X225222Y177013D02*
Y178587D01*
X238178Y176413D02*
Y177987D01*
X235422Y176413D02*
Y177987D01*
X309978Y175413D02*
Y176987D01*
X307222Y175413D02*
Y176987D01*
X525400Y450200D02*
Y460200D01*
X485400Y450200D02*
X525400D01*
X485400Y460200D02*
X525400D01*
X485400Y450200D02*
Y460200D01*
X446000Y450600D02*
X476000D01*
Y460600D01*
X446000D02*
X476000D01*
X446000Y450600D02*
Y460600D01*
X534343Y15746D02*
Y18403D01*
X539662Y15746D02*
Y18403D01*
X366800Y63600D02*
X396800D01*
Y73600D01*
X366800D02*
X396800D01*
X366800Y63600D02*
Y73600D01*
X406000Y108000D02*
Y128000D01*
X498500D02*
X506000D01*
Y108000D02*
Y128000D01*
X498500Y108000D02*
X506000D01*
X406000D02*
X498500D01*
X406000Y128000D02*
X498500D01*
X91839Y449494D02*
Y461306D01*
X71761Y449494D02*
Y461306D01*
X91839D01*
X71761Y449494D02*
X91839D01*
X43361Y449694D02*
Y461506D01*
X63439Y449694D02*
Y461506D01*
X43361Y449694D02*
X63439D01*
X43361Y461506D02*
X63439D01*
X101425Y279847D02*
X104575D01*
X101425Y285753D02*
X104575D01*
X101425Y269647D02*
X104575D01*
X101425Y275553D02*
X104575D01*
X101213Y264578D02*
X102787D01*
X101213Y261822D02*
X102787D01*
X102413Y290022D02*
X103987D01*
X102413Y292778D02*
X103987D01*
X104613Y205622D02*
X106187D01*
X104613Y208378D02*
X106187D01*
X105013Y150222D02*
X106587D01*
X105013Y152978D02*
X106587D01*
X105225Y102447D02*
X108375D01*
X105225Y108353D02*
X108375D01*
X105225Y113047D02*
X108375D01*
X105225Y118953D02*
X108375D01*
X104460Y238222D02*
X106035D01*
X104460Y240978D02*
X106035D01*
X104425Y171447D02*
X107575D01*
X104425Y177353D02*
X107575D01*
X104225Y159447D02*
X107375D01*
X104225Y165353D02*
X107375D01*
X105765Y181422D02*
X107340D01*
X105765Y184178D02*
X107340D01*
X104013Y95178D02*
X105587D01*
X104013Y92422D02*
X105587D01*
X103613Y125622D02*
X105187D01*
X103613Y128378D02*
X105187D01*
X103825Y215447D02*
X106975D01*
X103825Y221353D02*
X106975D01*
X103825Y226647D02*
X106975D01*
X103825Y232553D02*
X106975D01*
X327378Y73965D02*
Y75540D01*
X324622Y73965D02*
Y75540D01*
X311778Y73765D02*
Y75340D01*
X309022Y73765D02*
Y75340D01*
X320178Y73965D02*
Y75540D01*
X317422Y73965D02*
Y75540D01*
X335378Y73765D02*
Y75340D01*
X332622Y73765D02*
Y75340D01*
X274622Y175813D02*
Y177387D01*
X277378Y175813D02*
Y177387D01*
X225413Y110978D02*
X226987D01*
X225413Y108222D02*
X226987D01*
X225013Y102778D02*
X226587D01*
X225013Y100022D02*
X226587D01*
X225013Y120978D02*
X226587D01*
X225013Y118222D02*
X226587D01*
X225213Y129178D02*
X226787D01*
X225213Y126422D02*
X226787D01*
X224813Y138978D02*
X226387D01*
X224813Y136222D02*
X226387D01*
X269178Y175813D02*
Y177387D01*
X266422Y175813D02*
Y177387D01*
X261578Y176213D02*
Y177787D01*
X258822Y176213D02*
Y177787D01*
X254178Y176213D02*
Y177787D01*
X251422Y176213D02*
Y177787D01*
X244222Y176413D02*
Y177987D01*
X246978Y176413D02*
Y177987D01*
X300222Y175660D02*
Y177235D01*
X302978Y175660D02*
Y177235D01*
X282822Y175613D02*
Y177187D01*
X285578Y175613D02*
Y177187D01*
X291822Y175613D02*
Y177187D01*
X294578Y175613D02*
Y177187D01*
X314822Y176013D02*
Y177587D01*
X317578Y176013D02*
Y177587D01*
X304825Y117753D02*
X307975D01*
X304825Y111847D02*
X307975D01*
D57*
X204630Y437146D02*
G03*
X204630Y437146I-1181J0D01*
G01*
X203613Y505702D02*
G03*
X203613Y505702I-1181J0D01*
G01*
Y471102D02*
G03*
X203613Y471102I-1181J0D01*
G01*
X76879Y453432D02*
G03*
X76879Y453432I-1181J0D01*
G01*
X60684Y457569D02*
G03*
X60684Y457569I-1181J0D01*
G01*
D58*
X194492Y442854D02*
G03*
X194492Y442854I-492J0D01*
G01*
X193475Y511411D02*
G03*
X193475Y511411I-492J0D01*
G01*
Y476811D02*
G03*
X193475Y476811I-492J0D01*
G01*
X539461Y25096D02*
G03*
X539461Y25096I-492J0D01*
G01*
X70481Y443983D02*
G03*
X70481Y443983I-492J0D01*
G01*
X65703Y467017D02*
G03*
X65703Y467017I-492J0D01*
G01*
D59*
X132378Y580841D02*
Y626116D01*
X179622Y580841D02*
Y626116D01*
X132378Y580841D02*
X179622D01*
X132378Y626116D02*
X179622D01*
X187578Y580726D02*
Y626001D01*
X234822Y580726D02*
Y626001D01*
X187578Y580726D02*
X234822D01*
X187578Y626001D02*
X234822D01*
X13600Y253400D02*
Y258400D01*
X23600Y253400D02*
Y258400D01*
X68600Y253400D02*
Y293400D01*
X23600Y288400D02*
Y293400D01*
X13600Y288400D02*
Y293400D01*
X8600Y253400D02*
Y293400D01*
X68600Y283400D02*
X82600D01*
X68600Y273400D02*
X82600D01*
X68600Y263400D02*
X82600D01*
X8600Y253400D02*
X13600D01*
Y258400D02*
X23600D01*
Y253400D02*
X68600D01*
X23600Y293400D02*
X68600D01*
X13600Y288400D02*
X23600D01*
X8600Y293400D02*
X13600D01*
X14200Y85800D02*
Y90800D01*
X24200Y85800D02*
Y90800D01*
X69200Y85800D02*
Y125800D01*
X24200Y120800D02*
Y125800D01*
X14200Y120800D02*
Y125800D01*
X9200Y85800D02*
Y125800D01*
X69200Y115800D02*
X83200D01*
X69200Y105800D02*
X83200D01*
X69200Y95800D02*
X83200D01*
X9200Y85800D02*
X14200D01*
Y90800D02*
X24200D01*
Y85800D02*
X69200D01*
X24200Y125800D02*
X69200D01*
X14200Y120800D02*
X24200D01*
X9200Y125800D02*
X14200D01*
X14000Y145000D02*
Y150000D01*
X24000Y145000D02*
Y150000D01*
X69000Y145000D02*
Y185000D01*
X24000Y180000D02*
Y185000D01*
X14000Y180000D02*
Y185000D01*
X9000Y145000D02*
Y185000D01*
X69000Y175000D02*
X83000D01*
X69000Y165000D02*
X83000D01*
X69000Y155000D02*
X83000D01*
X9000Y145000D02*
X14000D01*
Y150000D02*
X24000D01*
Y145000D02*
X69000D01*
X24000Y185000D02*
X69000D01*
X14000Y180000D02*
X24000D01*
X9000Y185000D02*
X14000D01*
X13400Y200000D02*
Y205000D01*
X23400Y200000D02*
Y205000D01*
X68400Y200000D02*
Y240000D01*
X23400Y235000D02*
Y240000D01*
X13400Y235000D02*
Y240000D01*
X8400Y200000D02*
Y240000D01*
X68400Y230000D02*
X82400D01*
X68400Y220000D02*
X82400D01*
X68400Y210000D02*
X82400D01*
X8400Y200000D02*
X13400D01*
Y205000D02*
X23400D01*
Y200000D02*
X68400D01*
X23400Y240000D02*
X68400D01*
X13400Y235000D02*
X23400D01*
X8400Y240000D02*
X13400D01*
X238969Y256634D02*
X345169D01*
X243693Y363130D02*
X345169D01*
Y256634D02*
Y363130D01*
X238969Y256634D02*
Y358307D01*
X243791Y363130D01*
X542800Y132700D02*
X572800D01*
X542800Y513200D02*
X572800D01*
X542800Y132700D02*
Y513200D01*
X572800Y132700D02*
Y513200D01*
D60*
X554500Y79500D02*
X603500D01*
X554500Y10500D02*
X603500D01*
Y79500D01*
X554500Y10500D02*
Y79500D01*
X52500Y627700D02*
X101500D01*
X52500Y558700D02*
X101500D01*
Y627700D01*
X52500Y558700D02*
Y627700D01*
M02*
