G04 Layer_Physical_Order=1*
G04 Layer_Color=255*
%FSLAX25Y25*%
%MOIN*%
G70*
G01*
G75*
%ADD10R,0.03150X0.03543*%
%ADD11O,0.01181X0.07480*%
%ADD12O,0.07480X0.01181*%
%ADD13R,0.02756X0.03543*%
%ADD14R,0.04331X0.06693*%
%ADD15R,0.03543X0.02756*%
%ADD16O,0.01378X0.07874*%
%ADD17R,0.03543X0.03150*%
%ADD18O,0.02165X0.07874*%
%ADD19O,0.09646X0.01181*%
%ADD20O,0.01181X0.09646*%
%ADD21O,0.05905X0.00984*%
%ADD22O,0.00984X0.05905*%
%ADD23R,0.02165X0.02953*%
%ADD24R,0.03150X0.03543*%
%ADD25O,0.01575X0.07087*%
%ADD26C,0.00800*%
%ADD27C,0.01000*%
%ADD28C,0.03000*%
%ADD29R,0.05905X0.05905*%
%ADD30C,0.05905*%
%ADD31R,0.05905X0.05905*%
%ADD32C,0.04000*%
%ADD33R,0.04000X0.04000*%
%ADD34R,0.05000X0.05000*%
%ADD35C,0.05000*%
%ADD36C,0.06000*%
%ADD37R,0.06000X0.06000*%
%ADD38C,0.06500*%
%ADD39C,0.03937*%
%ADD40C,0.06600*%
%ADD41C,0.04500*%
%ADD42C,0.06200*%
%ADD43R,0.06200X0.06200*%
%ADD44C,0.08500*%
%ADD45C,0.10600*%
%ADD46C,0.08000*%
%ADD47R,0.06000X0.06000*%
%ADD48C,0.15000*%
%ADD49C,0.12500*%
%ADD50O,0.16500X0.05500*%
%ADD51O,0.04500X0.14500*%
%ADD52O,0.14500X0.04500*%
%ADD53C,0.03400*%
%ADD54C,0.06299*%
%ADD55C,0.25000*%
%ADD56C,0.03000*%
D10*
X313756Y65000D02*
D03*
X308244D02*
D03*
Y72000D02*
D03*
X313756D02*
D03*
X307312Y122600D02*
D03*
X301800D02*
D03*
X202956Y534400D02*
D03*
X197444D02*
D03*
X199712Y447400D02*
D03*
X194200D02*
D03*
X162156Y563000D02*
D03*
X156644D02*
D03*
X138244D02*
D03*
X143756D02*
D03*
X203044Y516400D02*
D03*
X208556D02*
D03*
X197556Y481000D02*
D03*
X192044D02*
D03*
X210712Y447400D02*
D03*
X205200D02*
D03*
X197356Y516400D02*
D03*
X191844D02*
D03*
X207488Y481200D02*
D03*
X213000D02*
D03*
D11*
X304716Y401866D02*
D03*
X302748D02*
D03*
X300780D02*
D03*
X298811D02*
D03*
X296843D02*
D03*
X294874D02*
D03*
X292905D02*
D03*
X290937D02*
D03*
X288968D02*
D03*
X287000D02*
D03*
X285032D02*
D03*
X283063D02*
D03*
X281095D02*
D03*
X279126D02*
D03*
X277157D02*
D03*
X275189D02*
D03*
X273220D02*
D03*
X271252D02*
D03*
X269284D02*
D03*
X267315D02*
D03*
X265347D02*
D03*
X263378D02*
D03*
X261409D02*
D03*
X259441D02*
D03*
Y431000D02*
D03*
X302748D02*
D03*
X304716D02*
D03*
X261409D02*
D03*
X263378D02*
D03*
X265347D02*
D03*
X267315D02*
D03*
X269284D02*
D03*
X271252D02*
D03*
X273220D02*
D03*
X275189D02*
D03*
X277157D02*
D03*
X279126D02*
D03*
X281095D02*
D03*
X283063D02*
D03*
X285032D02*
D03*
X287000D02*
D03*
X288968D02*
D03*
X290937D02*
D03*
X292905D02*
D03*
X294874D02*
D03*
X296843D02*
D03*
X298811D02*
D03*
X300780D02*
D03*
X565433Y462500D02*
D03*
X563464D02*
D03*
X561496D02*
D03*
X559527D02*
D03*
X557559D02*
D03*
X555590D02*
D03*
X553622D02*
D03*
X551653D02*
D03*
X549685D02*
D03*
X547717D02*
D03*
X545748D02*
D03*
X543780D02*
D03*
X541811D02*
D03*
X539843D02*
D03*
X537874D02*
D03*
X535906D02*
D03*
X533937D02*
D03*
X531968D02*
D03*
X530000D02*
D03*
X528031D02*
D03*
X526063D02*
D03*
X524094D02*
D03*
X522126D02*
D03*
X520157D02*
D03*
Y491634D02*
D03*
X563464D02*
D03*
X565433D02*
D03*
X522126D02*
D03*
X524094D02*
D03*
X526063D02*
D03*
X528031D02*
D03*
X530000D02*
D03*
X531968D02*
D03*
X533937D02*
D03*
X535906D02*
D03*
X537874D02*
D03*
X539843D02*
D03*
X541811D02*
D03*
X543780D02*
D03*
X545748D02*
D03*
X547717D02*
D03*
X549685D02*
D03*
X551653D02*
D03*
X553622D02*
D03*
X555590D02*
D03*
X557559D02*
D03*
X559527D02*
D03*
X561496D02*
D03*
X366653Y402000D02*
D03*
X364685D02*
D03*
X362717D02*
D03*
X360748D02*
D03*
X358780D02*
D03*
X356811D02*
D03*
X354842D02*
D03*
X352874D02*
D03*
X350905D02*
D03*
X348937D02*
D03*
X346969D02*
D03*
X345000D02*
D03*
X343032D02*
D03*
X341063D02*
D03*
X339094D02*
D03*
X337126D02*
D03*
X335157D02*
D03*
X333189D02*
D03*
X331221D02*
D03*
X329252D02*
D03*
X327284D02*
D03*
X325315D02*
D03*
X323346D02*
D03*
X321378D02*
D03*
Y431134D02*
D03*
X364685D02*
D03*
X366653D02*
D03*
X323346D02*
D03*
X325315D02*
D03*
X327284D02*
D03*
X329252D02*
D03*
X331221D02*
D03*
X333189D02*
D03*
X335157D02*
D03*
X337126D02*
D03*
X339094D02*
D03*
X341063D02*
D03*
X343032D02*
D03*
X345000D02*
D03*
X346969D02*
D03*
X348937D02*
D03*
X350905D02*
D03*
X352874D02*
D03*
X354842D02*
D03*
X356811D02*
D03*
X358780D02*
D03*
X360748D02*
D03*
X362717D02*
D03*
X425496Y401866D02*
D03*
X423527D02*
D03*
X421559D02*
D03*
X419591D02*
D03*
X417622D02*
D03*
X415654D02*
D03*
X413685D02*
D03*
X411717D02*
D03*
X409748D02*
D03*
X407780D02*
D03*
X405811D02*
D03*
X403842D02*
D03*
X401874D02*
D03*
X399905D02*
D03*
X397937D02*
D03*
X395969D02*
D03*
X394000D02*
D03*
X392032D02*
D03*
X390063D02*
D03*
X388094D02*
D03*
X386126D02*
D03*
X384157D02*
D03*
X382189D02*
D03*
X380221D02*
D03*
Y431000D02*
D03*
X423527D02*
D03*
X425496D02*
D03*
X382189D02*
D03*
X384157D02*
D03*
X386126D02*
D03*
X388094D02*
D03*
X390063D02*
D03*
X392032D02*
D03*
X394000D02*
D03*
X395969D02*
D03*
X397937D02*
D03*
X399905D02*
D03*
X401874D02*
D03*
X403842D02*
D03*
X405811D02*
D03*
X407780D02*
D03*
X409748D02*
D03*
X411717D02*
D03*
X413685D02*
D03*
X415654D02*
D03*
X417622D02*
D03*
X419591D02*
D03*
X421559D02*
D03*
D12*
X447866Y281941D02*
D03*
Y283910D02*
D03*
Y285878D02*
D03*
Y287846D02*
D03*
Y289815D02*
D03*
Y291783D02*
D03*
Y293752D02*
D03*
Y295721D02*
D03*
Y297689D02*
D03*
Y299658D02*
D03*
Y301626D02*
D03*
Y303594D02*
D03*
Y305563D02*
D03*
Y307531D02*
D03*
Y309500D02*
D03*
Y311469D02*
D03*
Y313437D02*
D03*
Y315406D02*
D03*
Y317374D02*
D03*
Y319342D02*
D03*
Y321311D02*
D03*
Y323280D02*
D03*
Y325248D02*
D03*
Y327217D02*
D03*
X477000D02*
D03*
Y283910D02*
D03*
Y281941D02*
D03*
Y325248D02*
D03*
Y323280D02*
D03*
Y321311D02*
D03*
Y319342D02*
D03*
Y317374D02*
D03*
Y315406D02*
D03*
Y313437D02*
D03*
Y311469D02*
D03*
Y309500D02*
D03*
Y307531D02*
D03*
Y305563D02*
D03*
Y303594D02*
D03*
Y301626D02*
D03*
Y299658D02*
D03*
Y297689D02*
D03*
Y295721D02*
D03*
Y293752D02*
D03*
Y291783D02*
D03*
Y289815D02*
D03*
Y287846D02*
D03*
Y285878D02*
D03*
X448500Y343972D02*
D03*
Y345941D02*
D03*
Y347909D02*
D03*
Y349878D02*
D03*
Y351847D02*
D03*
Y353815D02*
D03*
Y355784D02*
D03*
Y357752D02*
D03*
Y359720D02*
D03*
Y361689D02*
D03*
Y363657D02*
D03*
Y365626D02*
D03*
Y367595D02*
D03*
Y369563D02*
D03*
Y371532D02*
D03*
Y373500D02*
D03*
Y375468D02*
D03*
Y377437D02*
D03*
Y379405D02*
D03*
Y381374D02*
D03*
Y383343D02*
D03*
Y385311D02*
D03*
Y387280D02*
D03*
Y389248D02*
D03*
X477634D02*
D03*
Y345941D02*
D03*
Y343972D02*
D03*
Y387280D02*
D03*
Y385311D02*
D03*
Y383343D02*
D03*
Y381374D02*
D03*
Y379405D02*
D03*
Y377437D02*
D03*
Y375468D02*
D03*
Y373500D02*
D03*
Y371532D02*
D03*
Y369563D02*
D03*
Y367595D02*
D03*
Y365626D02*
D03*
Y363657D02*
D03*
Y361689D02*
D03*
Y359720D02*
D03*
Y357752D02*
D03*
Y355784D02*
D03*
Y353815D02*
D03*
Y351847D02*
D03*
Y349878D02*
D03*
Y347909D02*
D03*
D13*
X500953Y89000D02*
D03*
X495047D02*
D03*
X228553Y137600D02*
D03*
X222647D02*
D03*
X228953Y127800D02*
D03*
X223047D02*
D03*
X228753Y119600D02*
D03*
X222847D02*
D03*
X228753Y101400D02*
D03*
X222847D02*
D03*
X229153Y109600D02*
D03*
X223247D02*
D03*
X313953Y77500D02*
D03*
X308047D02*
D03*
X313953Y83000D02*
D03*
X308047D02*
D03*
X101447Y127000D02*
D03*
X107353D02*
D03*
X107753Y93800D02*
D03*
X101847D02*
D03*
X103600Y182800D02*
D03*
X109506D02*
D03*
X102294Y239600D02*
D03*
X108200D02*
D03*
X102847Y151600D02*
D03*
X108753D02*
D03*
X102447Y207000D02*
D03*
X108353D02*
D03*
X100247Y291400D02*
D03*
X106153D02*
D03*
X104953Y263200D02*
D03*
X99047D02*
D03*
X165047Y212600D02*
D03*
X170953D02*
D03*
X164847Y202600D02*
D03*
X170753D02*
D03*
X156647Y571400D02*
D03*
X162553D02*
D03*
X138047Y571000D02*
D03*
X143953D02*
D03*
Y556600D02*
D03*
X138047D02*
D03*
X143553Y548800D02*
D03*
X137647D02*
D03*
X156400Y553800D02*
D03*
X162306D02*
D03*
X162153Y545200D02*
D03*
X156247D02*
D03*
D14*
X311715Y114800D02*
D03*
X301085D02*
D03*
X100085Y229600D02*
D03*
X110715D02*
D03*
X100085Y218400D02*
D03*
X110715D02*
D03*
X100485Y162400D02*
D03*
X111115D02*
D03*
X100685Y174400D02*
D03*
X111315D02*
D03*
X101485Y116000D02*
D03*
X112115D02*
D03*
X101485Y105400D02*
D03*
X112115D02*
D03*
X97685Y272600D02*
D03*
X108315D02*
D03*
X97685Y282800D02*
D03*
X108315D02*
D03*
D15*
X320700Y186753D02*
D03*
Y180847D02*
D03*
X297700Y186353D02*
D03*
Y180447D02*
D03*
X288700Y186353D02*
D03*
Y180447D02*
D03*
X306100Y186400D02*
D03*
Y180494D02*
D03*
X250100Y187153D02*
D03*
Y181247D02*
D03*
X257300Y181047D02*
D03*
Y186953D02*
D03*
X264700Y181047D02*
D03*
Y186953D02*
D03*
X272300Y180647D02*
D03*
Y186553D02*
D03*
X280500D02*
D03*
Y180647D02*
D03*
X313100Y180247D02*
D03*
Y186153D02*
D03*
X241300Y181247D02*
D03*
Y187153D02*
D03*
X231100Y181847D02*
D03*
Y187753D02*
D03*
X392600Y84000D02*
D03*
Y78094D02*
D03*
X371400Y85200D02*
D03*
Y79294D02*
D03*
X206000Y356153D02*
D03*
Y350247D02*
D03*
X206600Y389553D02*
D03*
Y383647D02*
D03*
D16*
X62357Y467017D02*
D03*
X59798D02*
D03*
X57239D02*
D03*
X54680D02*
D03*
X52120D02*
D03*
X49561D02*
D03*
X47002D02*
D03*
X44443D02*
D03*
X62357Y444183D02*
D03*
X59798D02*
D03*
X57239D02*
D03*
X54680D02*
D03*
X52120D02*
D03*
X49561D02*
D03*
X47002D02*
D03*
X44443D02*
D03*
X72843Y443983D02*
D03*
X75402D02*
D03*
X77961D02*
D03*
X80520D02*
D03*
X83080D02*
D03*
X85639D02*
D03*
X88198D02*
D03*
X90757D02*
D03*
X72843Y466817D02*
D03*
X75402D02*
D03*
X77961D02*
D03*
X80520D02*
D03*
X83080D02*
D03*
X85639D02*
D03*
X88198D02*
D03*
X90757D02*
D03*
D17*
X198500Y303756D02*
D03*
Y298244D02*
D03*
X215500Y298756D02*
D03*
Y293244D02*
D03*
X183500Y274744D02*
D03*
Y280256D02*
D03*
Y262512D02*
D03*
Y257000D02*
D03*
X198500Y289500D02*
D03*
Y283988D02*
D03*
X350700Y154844D02*
D03*
Y160356D02*
D03*
Y149056D02*
D03*
Y143544D02*
D03*
X535000Y57600D02*
D03*
Y52088D02*
D03*
X154500Y42556D02*
D03*
Y37044D02*
D03*
X142500Y43756D02*
D03*
Y38244D02*
D03*
X131100Y43556D02*
D03*
Y38044D02*
D03*
X118700Y43200D02*
D03*
Y37688D02*
D03*
X107100Y44356D02*
D03*
Y38844D02*
D03*
X206600Y372888D02*
D03*
Y378400D02*
D03*
X197600Y378844D02*
D03*
Y384356D02*
D03*
X206400Y336444D02*
D03*
Y341956D02*
D03*
X196400Y342644D02*
D03*
Y348156D02*
D03*
D18*
X378304Y545400D02*
D03*
X381454D02*
D03*
X384603D02*
D03*
X387753D02*
D03*
X390902D02*
D03*
X394052D02*
D03*
X397202D02*
D03*
X400351D02*
D03*
X403501D02*
D03*
X406650D02*
D03*
X409800D02*
D03*
X412950D02*
D03*
X416099D02*
D03*
X419249D02*
D03*
X422398D02*
D03*
X425548D02*
D03*
X428698D02*
D03*
X431847D02*
D03*
X441296Y594408D02*
D03*
X438146D02*
D03*
X434997D02*
D03*
X431847D02*
D03*
X428698D02*
D03*
X425548D02*
D03*
X422398D02*
D03*
X419249D02*
D03*
X416099D02*
D03*
X412950D02*
D03*
X409800D02*
D03*
X406650D02*
D03*
X403501D02*
D03*
X434997Y545400D02*
D03*
X438146D02*
D03*
X441296D02*
D03*
X444446D02*
D03*
Y594408D02*
D03*
X378304D02*
D03*
X381454D02*
D03*
X384603D02*
D03*
X387753D02*
D03*
X390902D02*
D03*
X394052D02*
D03*
X397202D02*
D03*
X400351D02*
D03*
D19*
X232177Y261654D02*
D03*
Y263622D02*
D03*
Y265591D02*
D03*
Y267559D02*
D03*
Y269528D02*
D03*
Y271496D02*
D03*
Y275433D02*
D03*
Y277402D02*
D03*
Y279370D02*
D03*
Y281339D02*
D03*
Y283307D02*
D03*
Y285276D02*
D03*
Y287244D02*
D03*
Y289213D02*
D03*
Y291181D02*
D03*
Y293150D02*
D03*
Y295118D02*
D03*
Y297087D02*
D03*
Y299055D02*
D03*
Y301024D02*
D03*
Y302992D02*
D03*
Y306929D02*
D03*
Y308898D02*
D03*
Y310866D02*
D03*
Y312835D02*
D03*
Y314803D02*
D03*
Y316772D02*
D03*
Y318740D02*
D03*
Y320709D02*
D03*
Y322677D02*
D03*
Y324646D02*
D03*
Y326614D02*
D03*
Y328583D02*
D03*
Y330551D02*
D03*
Y332520D02*
D03*
Y334488D02*
D03*
Y336457D02*
D03*
Y338425D02*
D03*
Y340394D02*
D03*
Y342362D02*
D03*
Y344331D02*
D03*
Y346299D02*
D03*
Y348268D02*
D03*
Y350236D02*
D03*
Y352205D02*
D03*
Y354173D02*
D03*
Y356142D02*
D03*
Y358110D02*
D03*
X352059Y261654D02*
D03*
Y263622D02*
D03*
Y265591D02*
D03*
Y267559D02*
D03*
Y269528D02*
D03*
Y271496D02*
D03*
Y273465D02*
D03*
Y275433D02*
D03*
Y277402D02*
D03*
Y279370D02*
D03*
Y281339D02*
D03*
Y285276D02*
D03*
Y287244D02*
D03*
Y291181D02*
D03*
Y293150D02*
D03*
Y295118D02*
D03*
Y297087D02*
D03*
Y299055D02*
D03*
Y301024D02*
D03*
Y302992D02*
D03*
Y304961D02*
D03*
Y306929D02*
D03*
Y308898D02*
D03*
Y310866D02*
D03*
Y312835D02*
D03*
Y314803D02*
D03*
Y316772D02*
D03*
Y318740D02*
D03*
Y320709D02*
D03*
Y322677D02*
D03*
Y324646D02*
D03*
Y326614D02*
D03*
Y328583D02*
D03*
Y330551D02*
D03*
Y332520D02*
D03*
Y334488D02*
D03*
Y336457D02*
D03*
Y338425D02*
D03*
Y340394D02*
D03*
Y342362D02*
D03*
Y344331D02*
D03*
Y346299D02*
D03*
Y348268D02*
D03*
Y350236D02*
D03*
Y352205D02*
D03*
Y354173D02*
D03*
Y356142D02*
D03*
Y358110D02*
D03*
Y360079D02*
D03*
X232177D02*
D03*
Y273465D02*
D03*
X352059Y283307D02*
D03*
Y289213D02*
D03*
Y259685D02*
D03*
X232177D02*
D03*
Y304961D02*
D03*
D20*
X243890Y249941D02*
D03*
X245858D02*
D03*
X247827D02*
D03*
X249795D02*
D03*
X251764D02*
D03*
X253732D02*
D03*
X255701D02*
D03*
X257669D02*
D03*
X259638D02*
D03*
X261606D02*
D03*
X263575D02*
D03*
X265543D02*
D03*
X267512D02*
D03*
X269480D02*
D03*
X271449D02*
D03*
X273417D02*
D03*
X275386D02*
D03*
X277354D02*
D03*
X279323D02*
D03*
X281291D02*
D03*
X283260D02*
D03*
X285228D02*
D03*
X287197D02*
D03*
X289165D02*
D03*
X291134D02*
D03*
X293102D02*
D03*
X295071D02*
D03*
X297039D02*
D03*
X299008D02*
D03*
X302945D02*
D03*
X304913D02*
D03*
X306882D02*
D03*
X308850D02*
D03*
X310819D02*
D03*
X312787D02*
D03*
X314756D02*
D03*
X316724D02*
D03*
X318693D02*
D03*
X320661D02*
D03*
X322630D02*
D03*
X324598D02*
D03*
X326567D02*
D03*
X328535D02*
D03*
X330504D02*
D03*
X332473D02*
D03*
X334441D02*
D03*
X336410D02*
D03*
X338378D02*
D03*
X340347D02*
D03*
X342315D02*
D03*
Y369823D02*
D03*
X340347D02*
D03*
X338378D02*
D03*
X336410D02*
D03*
X334441D02*
D03*
X332473D02*
D03*
X330504D02*
D03*
X328535D02*
D03*
X326567D02*
D03*
X324598D02*
D03*
X322630D02*
D03*
X320661D02*
D03*
X318693D02*
D03*
X316724D02*
D03*
X314756D02*
D03*
X312787D02*
D03*
X310819D02*
D03*
X308850D02*
D03*
X306882D02*
D03*
X304913D02*
D03*
X302945D02*
D03*
X300976D02*
D03*
X299008D02*
D03*
X297039D02*
D03*
X295071D02*
D03*
X293102D02*
D03*
X291134D02*
D03*
X289165D02*
D03*
X287197D02*
D03*
X285228D02*
D03*
X283260D02*
D03*
X281291D02*
D03*
X279323D02*
D03*
X277354D02*
D03*
X275386D02*
D03*
X273417D02*
D03*
X271449D02*
D03*
X269480D02*
D03*
X267512D02*
D03*
X265543D02*
D03*
X263575D02*
D03*
X261606D02*
D03*
X259638D02*
D03*
X257669D02*
D03*
X255701D02*
D03*
X253732D02*
D03*
X251764D02*
D03*
X249795D02*
D03*
X247827D02*
D03*
X245858D02*
D03*
X243890D02*
D03*
X300976Y249941D02*
D03*
X241921Y369823D02*
D03*
X241921Y249941D02*
D03*
D21*
X255531Y143773D02*
D03*
Y141805D02*
D03*
Y139836D02*
D03*
Y137868D02*
D03*
Y135899D02*
D03*
Y133931D02*
D03*
Y131962D02*
D03*
Y129994D02*
D03*
Y128025D02*
D03*
Y145742D02*
D03*
X290964Y126057D02*
D03*
Y128025D02*
D03*
Y129994D02*
D03*
Y131962D02*
D03*
Y133931D02*
D03*
Y135899D02*
D03*
Y137868D02*
D03*
Y139836D02*
D03*
Y141805D02*
D03*
Y143773D02*
D03*
Y147710D02*
D03*
Y145742D02*
D03*
X255531Y126057D02*
D03*
Y147710D02*
D03*
D22*
X264389Y119167D02*
D03*
X266357D02*
D03*
X268326D02*
D03*
X270294D02*
D03*
X272263D02*
D03*
X274231D02*
D03*
X276200D02*
D03*
X278168D02*
D03*
X280137D02*
D03*
X282105D02*
D03*
X284074D02*
D03*
Y154600D02*
D03*
X282105D02*
D03*
X280137D02*
D03*
X278168D02*
D03*
X276200D02*
D03*
X274231D02*
D03*
X272263D02*
D03*
X262420Y119167D02*
D03*
Y154600D02*
D03*
X264389D02*
D03*
X266357D02*
D03*
X268326D02*
D03*
X270294D02*
D03*
D23*
X538969Y21454D02*
D03*
X537000Y15746D02*
D03*
X535032Y21454D02*
D03*
D24*
X22400Y431000D02*
D03*
X18660Y438874D02*
D03*
X26140D02*
D03*
D25*
X209995Y568000D02*
D03*
X207436D02*
D03*
X204877D02*
D03*
X202318D02*
D03*
X199759D02*
D03*
X197200D02*
D03*
X192082Y544575D02*
D03*
X194641D02*
D03*
X197200D02*
D03*
X199759D02*
D03*
X202318D02*
D03*
X204877D02*
D03*
X194641Y568000D02*
D03*
X207436Y544575D02*
D03*
X209995D02*
D03*
X212554D02*
D03*
X215113D02*
D03*
X192082Y568000D02*
D03*
X212554D02*
D03*
X215113D02*
D03*
D26*
X282100Y83600D02*
X308047D01*
X396235Y590649D02*
Y594408D01*
X399384Y590649D02*
Y594408D01*
X263299Y434340D02*
X263656D01*
X402534Y590649D02*
Y594408D01*
X258616Y516494D02*
X258805Y516305D01*
X255195Y512695D02*
X255500Y512390D01*
X405683Y590649D02*
Y594408D01*
X415132Y590649D02*
Y594408D01*
X272942Y430722D02*
Y480543D01*
X418282Y590649D02*
Y594408D01*
X421431Y590649D02*
Y594408D01*
X424581Y590649D02*
Y594408D01*
Y545400D02*
Y553404D01*
X421431Y545400D02*
Y554432D01*
X418282Y545400D02*
Y555461D01*
X298616Y516494D02*
X299494Y515616D01*
X415132Y545400D02*
Y556489D01*
X402534Y545400D02*
Y551280D01*
X396235Y545400D02*
Y551265D01*
X381974Y434340D02*
X382189D01*
X491500Y550100D02*
X496100Y554700D01*
X381000Y468500D02*
Y480500D01*
X546577Y623900D02*
X548089Y625412D01*
X396247Y430500D02*
Y457223D01*
X404120Y431000D02*
Y453620D01*
X384603Y533897D02*
X386500Y532000D01*
X253000Y69500D02*
X257500Y65000D01*
X308244D01*
X313756D02*
Y72000D01*
X290000Y77500D02*
X308047D01*
X283372Y69128D02*
X310275D01*
X283000Y69500D02*
X283372Y69128D01*
X310275D02*
X313146Y72000D01*
X313756D01*
X253000Y69500D02*
X258000Y74500D01*
X305744D01*
X308244Y72000D01*
X278000Y79500D02*
X282100Y83600D01*
X308047Y83000D02*
Y83600D01*
X288000Y79500D02*
X290000Y77500D01*
X441296Y538204D02*
Y545400D01*
X496100Y554700D02*
X496200Y554600D01*
X491500Y542500D02*
Y550100D01*
X487204Y538204D02*
X491500Y542500D01*
X441296Y538204D02*
X487204D01*
X450121Y536500D02*
X498100D01*
X446121Y532500D02*
X450121Y536500D01*
X450743Y535000D02*
X501691D01*
X446743Y531000D02*
X450743Y535000D01*
X451364Y533500D02*
X502313D01*
X447364Y529500D02*
X451364Y533500D01*
X442796Y529500D02*
X447364D01*
X444257Y531000D02*
X446743D01*
X444879Y532500D02*
X446121D01*
X438829Y538550D02*
X444879Y532500D01*
X434997Y540261D02*
X444257Y531000D01*
X438829Y538550D02*
Y542463D01*
X434997Y540261D02*
Y545400D01*
X431847Y540449D02*
X442796Y529500D01*
X502313Y533500D02*
X511300Y542487D01*
X501691Y535000D02*
X509800Y543109D01*
X498100Y536500D02*
X506200Y544600D01*
X431847Y540449D02*
Y545400D01*
X438829Y542463D02*
X439113Y542747D01*
Y544433D01*
X438146Y545400D02*
X439113Y544433D01*
X511300Y542487D02*
Y554591D01*
X374000Y463379D02*
X375947Y461431D01*
Y457268D02*
Y461431D01*
X375500Y464000D02*
X380000Y459500D01*
X509800Y543109D02*
Y546091D01*
X499400Y567800D02*
X506200Y574600D01*
X499400Y561783D02*
Y567800D01*
Y561783D02*
X502600Y558583D01*
Y553109D02*
Y558583D01*
Y553109D02*
X504709Y551000D01*
X504891D01*
X509800Y546091D01*
X504005Y559300D02*
X506591D01*
X511300Y554591D01*
X500900Y566795D02*
X505105Y571000D01*
X500900Y562405D02*
X504005Y559300D01*
X500900Y562405D02*
Y566795D01*
X507691Y571000D02*
X511291Y574600D01*
X505105Y571000D02*
X507691D01*
X511291Y574600D02*
X516200D01*
X240500Y504500D02*
X261132Y483869D01*
Y431278D02*
Y483869D01*
X263100Y434239D02*
Y484021D01*
X247000Y500121D02*
X263100Y484021D01*
X267037Y431278D02*
Y482206D01*
X252947Y496295D02*
X267037Y482206D01*
X269284Y431000D02*
Y482081D01*
X260500Y490864D02*
X269284Y482081D01*
X262000Y491485D02*
X272942Y480543D01*
X262000Y491485D02*
Y509500D01*
X260500Y490864D02*
Y501000D01*
X252947Y496295D02*
Y508326D01*
X247000Y500121D02*
Y504500D01*
X262000Y509500D02*
X267000Y514500D01*
X257000Y504500D02*
X260500Y501000D01*
X294874Y495374D02*
X301500Y502000D01*
X288968Y499469D02*
X292000Y502500D01*
X288968Y431000D02*
Y499469D01*
X282947Y510447D02*
X287000Y514500D01*
X282947Y431116D02*
Y510447D01*
X272947D02*
X277000Y514500D01*
X272947Y502769D02*
Y510447D01*
X302748Y490248D02*
X317000Y504500D01*
X302748Y431000D02*
Y490248D01*
X300780Y431000D02*
Y490401D01*
X296843Y494343D02*
X307000Y504500D01*
X296843Y431000D02*
Y494343D01*
X294874Y431000D02*
Y495374D01*
X290937Y498437D02*
X297000Y504500D01*
X290937Y431000D02*
Y498437D01*
X285032Y431000D02*
Y502531D01*
X281095Y431000D02*
Y500406D01*
X277000Y504500D02*
X281095Y500406D01*
X285032Y502531D02*
X287000Y504500D01*
X282947Y431116D02*
X283063Y431000D01*
X273000Y496500D02*
X279126Y490374D01*
Y431000D02*
Y490374D01*
X273000Y496500D02*
Y502716D01*
X272947Y502769D02*
X273000Y502716D01*
X275189Y431000D02*
Y492190D01*
X271500Y495879D02*
X275189Y492190D01*
X271500Y495879D02*
Y500000D01*
X267000Y504500D02*
X271500Y500000D01*
X272942Y430722D02*
X273220Y431000D01*
X267037Y431278D02*
X267315Y431000D01*
X263100Y434239D02*
X263198D01*
X263656Y431278D02*
Y434340D01*
X263198Y434239D02*
X263299Y434340D01*
X263378Y431000D02*
X263656Y431278D01*
X261132D02*
X261409Y431000D01*
X366000Y463500D02*
X370000Y459500D01*
X366000Y463500D02*
Y467716D01*
X365947Y467768D02*
X366000Y467716D01*
X374000Y463379D02*
Y465500D01*
X370000Y469500D02*
X374000Y465500D01*
X381000Y468500D02*
X385947Y463553D01*
X380000Y469500D02*
X381000Y468500D01*
X423527Y431000D02*
Y438027D01*
X428500Y443000D01*
X432000D01*
X421559Y441059D02*
X440000Y459500D01*
X421559Y431000D02*
Y441059D01*
X432000Y443000D02*
X445000Y456000D01*
X417622Y440122D02*
X434500Y457000D01*
Y465000D01*
X417622Y431000D02*
Y440122D01*
X445000Y456000D02*
Y464500D01*
X440000Y469500D02*
X445000Y464500D01*
X430000Y469500D02*
X434500Y465000D01*
X415500Y431153D02*
X415654Y431000D01*
X415500Y431153D02*
Y445000D01*
X430000Y459500D01*
X411717Y443338D02*
X425000Y456621D01*
X411717Y431000D02*
Y443338D01*
X425000Y456621D02*
Y464500D01*
X420000Y469500D02*
X425000Y464500D01*
X409570Y431178D02*
X409748Y431000D01*
X409570Y431178D02*
Y449070D01*
X420000Y459500D01*
X405811Y447432D02*
X414500Y456121D01*
X405811Y431000D02*
Y447432D01*
X414500Y456121D02*
Y465000D01*
X410000Y469500D02*
X414500Y465000D01*
X404120Y453620D02*
X410000Y459500D01*
X403842Y431000D02*
X404120D01*
X401874Y453495D02*
X404053Y455674D01*
X401874Y431000D02*
Y453495D01*
X400000Y431095D02*
Y459500D01*
X395947Y457522D02*
Y463553D01*
Y457522D02*
X396247Y457223D01*
X390000Y459500D02*
X394278Y455222D01*
Y431278D02*
Y455222D01*
X390000Y469500D02*
X395947Y463553D01*
X399905Y431000D02*
X400000Y431095D01*
X395969Y430778D02*
Y431000D01*
Y430778D02*
X396247Y430500D01*
X385947Y455674D02*
X390063Y451558D01*
X385947Y455674D02*
Y463553D01*
X380000Y459500D02*
X388094Y451405D01*
Y431000D02*
Y451405D01*
X390063Y431000D02*
Y451558D01*
X394000Y431000D02*
X394278Y431278D01*
X384435D02*
Y448780D01*
X375947Y457268D02*
X384435Y448780D01*
X381911Y434403D02*
Y447589D01*
X370000Y459500D02*
X381911Y447589D01*
X382189Y431000D02*
Y434340D01*
X381911Y434403D02*
X381974Y434340D01*
X384157Y431000D02*
X384435Y431278D01*
X217374Y295118D02*
X232177D01*
X215500Y293244D02*
X217374Y295118D01*
X231899Y297365D02*
X232177Y297087D01*
X216891Y297365D02*
X231899D01*
X215500Y298756D02*
X216891Y297365D01*
X420000Y459500D02*
Y463768D01*
X414053Y469716D02*
X420000Y463768D01*
X414053Y469716D02*
Y471179D01*
X411679Y473553D02*
X414053Y471179D01*
X411447Y473553D02*
X411679D01*
X396000Y489000D02*
X411447Y473553D01*
X378304Y533196D02*
X378500Y533000D01*
X399000Y490500D02*
X420000Y469500D01*
X399000Y490500D02*
Y491500D01*
X381454Y533046D02*
X382500Y532000D01*
X430000Y459500D02*
Y463768D01*
X425947Y467821D02*
X430000Y463768D01*
X425947Y467821D02*
Y470053D01*
X401500Y494500D02*
X425947Y470053D01*
X386500Y532000D02*
Y532500D01*
X387753Y545400D02*
X388000Y545153D01*
Y536500D02*
Y545153D01*
X404000Y497500D02*
X430000Y471500D01*
Y469500D02*
Y471500D01*
X240500Y504500D02*
Y508000D01*
X247000Y514500D01*
X399384Y594408D02*
X400351D01*
X402534D02*
X403501D01*
X255195Y512695D02*
X257000Y514500D01*
X252947Y508326D02*
X255500Y510879D01*
Y512390D01*
X257000Y504500D02*
Y508769D01*
X261053Y512821D01*
X405683Y594408D02*
X406650D01*
X415132D02*
X416099D01*
X267000Y504500D02*
Y508769D01*
X271053Y512821D01*
X418282Y594408D02*
X419249D01*
X277000Y514500D02*
X277500D01*
X421431Y594408D02*
X422398D01*
X277000Y504500D02*
Y508769D01*
X424581Y594408D02*
X425548D01*
X287000Y514500D02*
X289500D01*
X424581Y545400D02*
X425548D01*
X421431D02*
X422398D01*
X418282D02*
X419249D01*
X292000Y502500D02*
Y507379D01*
X287000Y504500D02*
Y508000D01*
X292947Y513947D01*
X292000Y507379D02*
X295000Y510379D01*
Y512500D01*
X297000Y514500D01*
X301500Y502000D02*
Y509000D01*
X297000Y504500D02*
Y508769D01*
X415132Y545400D02*
X416099D01*
X297000Y514500D02*
X298500D01*
X299553Y515553D01*
Y515616D01*
X299494D02*
X299553D01*
X297000Y508769D02*
X301053Y512821D01*
X301500Y509000D02*
X307000Y514500D01*
X300780Y490401D02*
X311053Y500674D01*
Y506431D01*
X402534Y545400D02*
X403501D01*
X399384Y546367D02*
X400351Y545400D01*
X384603Y533897D02*
Y545400D01*
X381454Y533046D02*
Y545400D01*
X378304Y533196D02*
Y545400D01*
X396235D02*
X397202D01*
X247000Y504500D02*
Y508769D01*
X251053Y512821D01*
X314500Y509879D02*
Y511660D01*
X314447Y511713D02*
X314500Y511660D01*
X314447Y511713D02*
Y511947D01*
X317000Y514500D01*
X311053Y506431D02*
X314500Y509879D01*
X307000Y504500D02*
X312947Y510447D01*
Y517961D01*
X313000Y518014D01*
X307000Y514500D02*
X311500Y519000D01*
X247000Y514500D02*
Y521500D01*
X277000Y508769D02*
X281621Y513390D01*
X277500Y514500D02*
X280121Y517121D01*
X247000Y521500D02*
X261000Y535500D01*
X289500Y514500D02*
X290353Y515353D01*
X251053Y512821D02*
Y523431D01*
X257000Y514500D02*
Y527257D01*
X261053Y512821D02*
Y521053D01*
X317000Y504500D02*
X322500Y510000D01*
X271053Y512821D02*
Y514284D01*
X267000Y514500D02*
X268000D01*
X261000Y535500D02*
X285000D01*
X251053Y523431D02*
X261621Y534000D01*
X285621D01*
X257000Y527257D02*
X262243Y532500D01*
X286243D01*
X261053Y521053D02*
X271000Y531000D01*
X286864D01*
X290353Y515353D02*
Y523882D01*
X292947Y513947D02*
Y524355D01*
X298616Y516494D02*
Y527903D01*
X301053Y512821D02*
Y528218D01*
X322500Y510000D02*
Y541180D01*
X317000Y514500D02*
Y537802D01*
X281621Y513390D02*
Y517272D01*
X280121Y517121D02*
Y517893D01*
X284769Y528000D02*
X288107D01*
X283000Y529500D02*
X287485D01*
X268000Y514500D02*
X283000Y529500D01*
X271053Y514284D02*
X284769Y528000D01*
X311500Y519000D02*
Y536544D01*
X313000Y518014D02*
Y535923D01*
X365947Y467768D02*
Y473447D01*
X409600Y517100D01*
X364000Y606500D02*
X371163D01*
X375500Y464000D02*
Y477500D01*
X370000Y469500D02*
Y474500D01*
X410900Y515400D01*
X375500Y477500D02*
X411700Y513700D01*
X381000Y480500D02*
X412500Y512000D01*
X404053Y455674D02*
Y463326D01*
X405500Y464000D02*
X410000Y459500D01*
X404000Y463379D02*
X404053Y463326D01*
X404000Y463379D02*
Y465500D01*
X400000Y469500D02*
X404000Y465500D01*
X393000Y486500D02*
X410000Y469500D01*
X405500Y464000D02*
Y469732D01*
X401679Y473553D02*
X405500Y469732D01*
X399947Y473553D02*
X401679D01*
X390000Y483500D02*
X399947Y473553D01*
X359500Y605000D02*
Y605677D01*
X387500Y480500D02*
X389000D01*
X400000Y469500D01*
X406650Y545400D02*
Y550351D01*
X399384Y546367D02*
Y550237D01*
X431847Y594408D02*
X432814Y595375D01*
X434997Y594408D02*
Y609118D01*
X432814Y595375D02*
Y609057D01*
X438146Y594408D02*
Y607268D01*
X441296Y594408D02*
Y608296D01*
X434997Y609118D02*
X452879Y627000D01*
X432814Y609057D02*
X452257Y628500D01*
X438146Y607268D02*
X456379Y625500D01*
X441296Y608296D02*
X457000Y624000D01*
X533379D01*
X452257Y628500D02*
X538500D01*
X452879Y627000D02*
X536323D01*
X456379Y625500D02*
X535702D01*
X545000Y627000D02*
X545500Y626500D01*
X540677Y627000D02*
X545000D01*
X536323D02*
X537423Y625900D01*
X539577D01*
X540677Y627000D01*
X548089Y625412D02*
X549000Y624500D01*
X548089Y625412D02*
X548089D01*
X535702Y625500D02*
X537302Y623900D01*
X546577D01*
X533379Y624000D02*
X535479Y621900D01*
X550077D01*
X550177Y622000D01*
X552500D01*
X371163Y606500D02*
X378304Y599359D01*
Y594408D02*
Y599359D01*
X356000Y609500D02*
X357500Y611000D01*
X379000D01*
X359500Y605677D02*
X363323Y609500D01*
X376000D01*
X381454Y604046D01*
Y594408D02*
Y604046D01*
X384603Y594408D02*
Y605397D01*
X379000Y611000D02*
X384603Y605397D01*
X285621Y534000D02*
X332121Y580500D01*
X286243Y532500D02*
X332743Y579000D01*
X286864Y531000D02*
X333364Y577500D01*
X287485Y529500D02*
X333985Y576000D01*
X288107Y528000D02*
X334607Y574500D01*
X280121Y517893D02*
X335228Y573000D01*
X281621Y517272D02*
X335849Y571500D01*
X407985Y570000D02*
X424581Y553404D01*
X290353Y523882D02*
X336471Y570000D01*
X407364Y568500D02*
X421431Y554432D01*
X292947Y524355D02*
X337092Y568500D01*
X406743Y567000D02*
X418282Y555461D01*
X298616Y527903D02*
X337713Y567000D01*
X301053Y528218D02*
X338334Y565500D01*
X311500Y536544D02*
X338956Y564000D01*
X313000Y535923D02*
X339577Y562500D01*
X317000Y537802D02*
X340198Y561000D01*
X322500Y541180D02*
X340820Y559500D01*
X388000D01*
X396235Y551265D01*
X340198Y561000D02*
X388621D01*
X399384Y550237D01*
X339577Y562500D02*
X391314D01*
X402534Y551280D01*
X338956Y564000D02*
X393002D01*
X406650Y550351D01*
X338334Y565500D02*
X406121D01*
X415132Y556489D01*
X337713Y567000D02*
X406743D01*
X337092Y568500D02*
X407364D01*
X336471Y570000D02*
X407985D01*
X332121Y580500D02*
X388207D01*
X285000Y535500D02*
X331500Y582000D01*
X387585D01*
X332743Y579000D02*
X388828D01*
X333364Y577500D02*
X389449D01*
X407854Y583371D02*
X415132Y590649D01*
X333985Y576000D02*
X390071D01*
X409503Y581871D02*
X418282Y590649D01*
X334607Y574500D02*
X390692D01*
X411153Y580371D02*
X421431Y590649D01*
X335228Y573000D02*
X391313D01*
X412803Y578871D02*
X424581Y590649D01*
X335849Y571500D02*
X391934D01*
X399305Y578871D01*
X412803D01*
X391313Y573000D02*
X398684Y580371D01*
X411153D01*
X390692Y574500D02*
X398063Y581871D01*
X409503D01*
X390071Y576000D02*
X397441Y583371D01*
X407854D01*
X389449Y577500D02*
X396820Y584871D01*
X399905D01*
X405683Y590649D01*
X388828Y579000D02*
X396199Y586371D01*
X398255D01*
X402534Y590649D01*
X388207Y580500D02*
X395577Y587871D01*
X396606D01*
X399384Y590649D01*
X387585Y582000D02*
X396235Y590649D01*
Y594408D02*
X397202D01*
X394052D02*
Y604552D01*
D27*
X329074Y431134D02*
Y456426D01*
X340885Y402144D02*
X341241Y402500D01*
X340885Y397077D02*
Y402144D01*
X466216Y567412D02*
X468200Y565428D01*
Y564600D02*
Y565428D01*
X344822Y401822D02*
Y415322D01*
X351083Y367819D02*
Y402178D01*
X382011Y376158D02*
Y402000D01*
X384335Y377493D02*
Y402500D01*
X387917Y380447D02*
Y402044D01*
X389885Y380012D02*
Y402044D01*
X400083Y381220D02*
Y403500D01*
X392300Y373437D02*
X400083Y381220D01*
X389300Y362659D02*
X403842Y377202D01*
X385477Y351200D02*
X389389Y355111D01*
X415832Y373513D02*
Y402500D01*
X383341Y344159D02*
X384982Y345800D01*
X381300Y339700D02*
X382400Y340800D01*
X380304Y336300D02*
X383427D01*
X380002Y335998D02*
X380304Y336300D01*
X360954Y316950D02*
X380002Y335998D01*
X347147Y430956D02*
Y464890D01*
X353052Y431000D02*
Y465987D01*
X313756Y72000D02*
X313953Y72197D01*
Y77500D01*
Y83000D01*
X266357Y119167D02*
Y126113D01*
X271244Y131000D01*
X274231Y119167D02*
Y128013D01*
X271244Y131000D02*
X274231Y128013D01*
X280137Y119167D02*
Y127619D01*
X276756Y131000D02*
X280137Y127619D01*
X264389Y154600D02*
Y162111D01*
X263256Y163244D02*
X264389Y162111D01*
X258000Y159020D02*
Y163500D01*
Y159020D02*
X262420Y154600D01*
X290964Y145742D02*
Y147710D01*
X299836Y139836D02*
X301500Y141500D01*
X290964Y139836D02*
X299836D01*
X290964Y147710D02*
X300790D01*
X493204Y521300D02*
X496100Y524196D01*
X492500Y523000D02*
X494400Y524900D01*
Y526027D01*
X497973Y529600D01*
X496100Y524196D02*
Y525322D01*
X498677Y527900D01*
X466200Y549367D02*
X469900Y553067D01*
X466200Y544600D02*
Y549367D01*
X497973Y529600D02*
X500984D01*
X498677Y527900D02*
X508804D01*
X499382Y526200D02*
X509508D01*
X497800Y524618D02*
X499382Y526200D01*
X469900Y553067D02*
Y559400D01*
X491500Y581000D01*
X497800Y523492D02*
Y524618D01*
X409600Y517100D02*
X494100D01*
X410900Y515400D02*
X501113D01*
X411700Y513700D02*
X501817D01*
X502521Y512000D02*
X537000Y546479D01*
X501817Y513700D02*
X535300Y547183D01*
X501113Y515400D02*
X533600Y547888D01*
X494100Y517100D02*
X500500Y523500D01*
X493108Y518800D02*
X497800Y523492D01*
X500984Y529600D02*
X527000Y555616D01*
Y563500D01*
X497800Y571433D02*
X505367Y579000D01*
X497800Y561121D02*
Y571433D01*
X496100Y554700D02*
Y572596D01*
X504204Y580700D01*
X512900Y554600D02*
Y555254D01*
X507254Y560900D02*
X512900Y555254D01*
X504667Y560900D02*
X507254D01*
X502500Y563067D02*
X504667Y560900D01*
Y568300D02*
X507254D01*
X497800Y561121D02*
X500000Y558921D01*
Y550800D02*
Y558921D01*
X502500Y563067D02*
Y566133D01*
X504667Y568300D01*
X507254D02*
X509654Y570700D01*
X522204D01*
X510600Y569000D02*
X521500D01*
X500000Y550800D02*
X506200Y544600D01*
X425548Y535952D02*
X427700Y533800D01*
Y532000D02*
Y533800D01*
X425548Y535952D02*
Y545400D01*
X506200Y564600D02*
X510600Y569000D01*
X521500D02*
X527000Y563500D01*
X522204Y570700D02*
X528700Y564204D01*
X424000Y533000D02*
Y533318D01*
X419249Y534251D02*
X420000Y533500D01*
X416000Y534500D02*
Y545301D01*
Y534500D02*
X416043Y534457D01*
X400000Y538000D02*
Y545049D01*
X312453Y466143D02*
Y470453D01*
Y466143D02*
X323346Y455249D01*
X432575Y422106D02*
X442587Y412095D01*
X351606Y422106D02*
X432575D01*
X431871Y420406D02*
X440886Y411391D01*
X354406Y420406D02*
X431871D01*
X431167Y418706D02*
X439186Y410687D01*
X355706Y418706D02*
X431167D01*
X430463Y417006D02*
X437487Y409982D01*
X357006Y417006D02*
X430463D01*
X435786Y368721D02*
Y409278D01*
X429759Y415306D02*
X435786Y409278D01*
X387306Y415306D02*
X429759D01*
X434087Y360414D02*
Y408574D01*
X429054Y413606D02*
X434087Y408574D01*
X388011Y413606D02*
X429054D01*
X432386Y359709D02*
Y407870D01*
X428350Y411906D02*
X432386Y407870D01*
X393007Y411906D02*
X428350D01*
X430687Y358814D02*
Y407166D01*
X427646Y410206D02*
X430687Y407166D01*
X393711Y410206D02*
X427646D01*
X428987Y357609D02*
Y406462D01*
X426942Y408506D02*
X428987Y406462D01*
X395513Y408506D02*
X426942D01*
X427286Y356905D02*
Y405758D01*
X426238Y406806D02*
X427286Y405758D01*
X396217Y406806D02*
X426238D01*
X403842Y431000D02*
X404000Y431157D01*
X437487Y369651D02*
Y409982D01*
X417622Y372900D02*
Y401866D01*
X439186Y370355D02*
Y410687D01*
X382011Y410011D02*
X387306Y415306D01*
X384157Y409753D02*
X388011Y413606D01*
X387917Y406816D02*
X393007Y411906D01*
X390063Y406558D02*
X393711Y410206D01*
X390063Y401866D02*
Y406558D01*
X352874Y412874D02*
X357006Y417006D01*
X384157Y402322D02*
Y409753D01*
X387917Y402044D02*
Y406816D01*
X411717Y431000D02*
X411894Y431178D01*
X338847Y475153D02*
X343000Y471000D01*
X337147Y474449D02*
Y476853D01*
Y474449D02*
X337500Y474096D01*
X333000Y481000D02*
X337147Y476853D01*
X337500Y435221D02*
Y474096D01*
X323000Y481000D02*
X328847Y475153D01*
Y469127D02*
Y475153D01*
X343000Y481000D02*
X347153Y476847D01*
Y467300D02*
Y476847D01*
X343032Y463179D02*
X347153Y467300D01*
X341063Y431134D02*
Y469063D01*
X343000Y471000D01*
X343032Y431134D02*
Y463179D01*
X337126Y431134D02*
X337304Y431312D01*
Y435025D01*
X337500Y435221D01*
X333000Y437005D02*
X334980Y435025D01*
Y431312D02*
Y435025D01*
X350905Y431134D02*
Y466245D01*
X542515Y474794D02*
X549507Y467801D01*
X519295Y474794D02*
X542515D01*
X509867Y484222D02*
X519295Y474794D01*
X509867Y484222D02*
Y512134D01*
X511567Y484926D02*
Y511430D01*
Y484926D02*
X519999Y476494D01*
X543219D01*
X551476Y468237D01*
X543923Y478194D02*
X554676Y467440D01*
X520703Y478194D02*
X543923D01*
X513267Y485630D02*
X520703Y478194D01*
X513267Y485630D02*
Y510725D01*
X514967Y486334D02*
Y510021D01*
Y486334D02*
X521408Y479894D01*
X544627D01*
X555381Y469140D01*
X545331Y481594D02*
X556085Y470840D01*
X522112Y481594D02*
X545331D01*
X516667Y487038D02*
X522112Y481594D01*
X516667Y487038D02*
Y509317D01*
X518367Y487743D02*
Y508613D01*
Y487743D02*
X522816Y483294D01*
X546035D01*
X556789Y472540D01*
X549863Y487307D02*
X559170Y478000D01*
X549863Y487307D02*
Y491456D01*
X551831Y487743D02*
Y491456D01*
Y487743D02*
X559874Y479700D01*
X555768Y487019D02*
X561387Y481400D01*
X555768Y487019D02*
Y491456D01*
X562092Y483100D02*
X625421D01*
X557737Y487455D02*
X562092Y483100D01*
X557737Y487455D02*
Y491456D01*
X333000Y437005D02*
Y471000D01*
X328847Y469127D02*
X330800Y467174D01*
Y448796D02*
Y467174D01*
X323000Y462500D02*
X329074Y456426D01*
X330800Y448796D02*
X331043Y448553D01*
Y431312D02*
Y448553D01*
X323000Y462500D02*
Y471000D01*
X334980Y431312D02*
X335157Y431134D01*
X331043Y431312D02*
X331221Y431134D01*
X329074D02*
X329252D01*
X325315D02*
Y455685D01*
X317153Y463847D02*
X325315Y455685D01*
X317153Y463847D02*
Y472720D01*
X313000Y476873D02*
X317153Y472720D01*
X313000Y476873D02*
Y481000D01*
X312453Y470453D02*
X313000Y471000D01*
X323346Y431134D02*
Y455249D01*
X93585Y268500D02*
X97685Y272600D01*
X85000Y268500D02*
X93585D01*
X84300Y267800D02*
X85000Y268500D01*
X84300Y259803D02*
Y267800D01*
Y259803D02*
X86103Y258000D01*
X99753D01*
X104953Y263200D01*
X99047D02*
X101050Y265203D01*
Y286644D01*
X100247Y287447D02*
X101050Y286644D01*
X100247Y287447D02*
Y291400D01*
X107950Y166444D02*
Y178244D01*
X107750Y166244D02*
X107950Y166444D01*
X107750Y156502D02*
Y166244D01*
X102447Y207000D02*
X107350Y211902D01*
Y233443D01*
X108200Y234294D01*
Y239600D01*
X103450Y221765D02*
Y233443D01*
X100085Y218400D02*
X103450Y221765D01*
X102294Y234599D02*
X103450Y233443D01*
X102294Y234599D02*
Y239600D01*
X102847Y151600D02*
X107750Y156502D01*
X107950Y178244D02*
X109506Y179799D01*
Y182800D01*
X512900Y554600D02*
X516200D01*
X508804Y527900D02*
X528700Y547796D01*
Y564204D01*
X352918Y431134D02*
X353052Y431000D01*
X352874Y431134D02*
X352918D01*
X509508Y526200D02*
X531900Y548592D01*
Y564408D01*
X516200Y574600D02*
X521708D01*
X531900Y564408D01*
X346969Y431134D02*
X347147Y430956D01*
X382189Y431000D02*
X382367D01*
X384157D02*
X384335Y430822D01*
X533600Y547888D02*
Y565112D01*
X519712Y579000D02*
X533600Y565112D01*
X505367Y579000D02*
X519712D01*
X535300Y547183D02*
Y565817D01*
X520417Y580700D02*
X535300Y565817D01*
X504204Y580700D02*
X520417D01*
X537000Y546479D02*
Y566521D01*
X518921Y584600D02*
X537000Y566521D01*
X516200Y584600D02*
X518921D01*
X261409Y401866D02*
X261428Y401847D01*
Y370001D02*
Y401847D01*
Y370001D02*
X261606Y369823D01*
X263378Y401866D02*
X263397Y401847D01*
Y370001D02*
Y401847D01*
Y370001D02*
X263575Y369823D01*
X265543D02*
X265721Y370001D01*
X267512Y369823D02*
X267690Y370001D01*
X269480Y369823D02*
X269658Y370001D01*
X271449Y369823D02*
X271627Y370001D01*
X273417Y369823D02*
X273595Y370001D01*
X267315Y378569D02*
Y401866D01*
X265721Y370001D02*
Y376975D01*
X267315Y378569D01*
X267690Y370001D02*
Y376539D01*
X269658Y370001D02*
Y376104D01*
X271627Y370001D02*
Y375668D01*
X273595Y370001D02*
Y375232D01*
X275564Y370001D02*
Y374797D01*
X275386Y369823D02*
X275564Y370001D01*
Y374797D02*
X275832Y375065D01*
Y375501D01*
X274132Y375769D02*
Y376205D01*
X272432Y376473D02*
Y376909D01*
X275189Y379666D01*
Y401866D01*
X270732Y377178D02*
Y377613D01*
X273220Y380102D01*
Y401866D01*
X269032Y377882D02*
Y378317D01*
X269284Y378569D01*
Y401866D01*
X273595Y375232D02*
X274132Y375769D01*
X271627Y375668D02*
X272432Y376473D01*
X269658Y376104D02*
X270732Y377178D01*
X267690Y376539D02*
X269032Y377882D01*
X274132Y376205D02*
X279126Y381199D01*
X275832Y375501D02*
X281095Y380763D01*
X277532Y374797D02*
X283063Y380328D01*
X277532Y370001D02*
Y374797D01*
X277354Y369823D02*
X277532Y370001D01*
X283260Y369823D02*
X283438Y370001D01*
X285228Y369823D02*
X285406Y370001D01*
X285032Y377262D02*
Y401866D01*
X283438Y370001D02*
Y375668D01*
X285032Y377262D01*
X285406Y370001D02*
Y375233D01*
X288968Y378795D01*
X287375Y374797D02*
X290937Y378359D01*
X287375Y370001D02*
Y374797D01*
X287197Y369823D02*
X287375Y370001D01*
X293102Y369823D02*
X293281Y370001D01*
X295071Y369823D02*
X295249Y370001D01*
X297039Y369823D02*
X297217Y370001D01*
X293281D02*
Y376104D01*
X294874Y377697D01*
X295249Y370001D02*
Y375668D01*
X296843Y377262D01*
X300780Y378795D02*
Y401866D01*
X297217Y370001D02*
Y375233D01*
X300780Y378795D01*
X302748Y378359D02*
Y401866D01*
X299186Y374797D02*
X302748Y378359D01*
X299186Y370001D02*
Y374797D01*
X299008Y369823D02*
X299186Y370001D01*
X400000Y545049D02*
X400351Y545400D01*
X403501Y537499D02*
X404000Y537000D01*
X403501Y537499D02*
Y545400D01*
X406650Y538850D02*
X408500Y537000D01*
X406650Y538850D02*
Y545400D01*
X416000Y545301D02*
X416099Y545400D01*
X302748Y401866D02*
X302926D01*
X300780D02*
X300957D01*
X296843D02*
X297020D01*
X294874D02*
X295052D01*
X296843Y377262D02*
Y401866D01*
X290937D02*
X291115D01*
X279126Y381199D02*
Y401866D01*
X281095Y380763D02*
Y401866D01*
X283063Y380328D02*
Y401866D01*
X288968Y378795D02*
Y401866D01*
X294874Y377697D02*
Y401866D01*
X290937Y378359D02*
Y401866D01*
X288968D02*
X289146Y402044D01*
X285032Y401866D02*
X285209Y402044D01*
X477634Y369563D02*
X477812Y369385D01*
X477634Y367595D02*
X477812Y367417D01*
X477634Y365626D02*
X477812Y365448D01*
X477634Y363657D02*
X477812Y363480D01*
X477634Y359720D02*
X477812Y359542D01*
X477634Y357752D02*
X477812Y357574D01*
X477634Y353815D02*
X477812Y353637D01*
Y363480D02*
X481525D01*
X477812Y365448D02*
X481961D01*
X477812Y367417D02*
X482396D01*
X477812Y369385D02*
X482832D01*
X477812Y357574D02*
X481525D01*
X477812Y359542D02*
X481961D01*
X561399Y277700D02*
X611300D01*
X553803Y287700D02*
X611300D01*
X481525Y363480D02*
X537305Y307700D01*
X611300D01*
X481961Y359542D02*
X553803Y287700D01*
X481525Y357574D02*
X561399Y277700D01*
X477634Y351847D02*
X477812Y351669D01*
X477634Y347909D02*
X477812Y347732D01*
Y351669D02*
X481525D01*
X477812Y353637D02*
X481961D01*
X587898Y247700D01*
X611300D01*
X595494Y237700D02*
X611300D01*
X481525Y351669D02*
X595494Y237700D01*
X607843Y217700D02*
X611300D01*
X477812Y347732D02*
X481961D01*
X477634Y345941D02*
X477812Y345763D01*
X481525D01*
X588500Y238788D01*
Y230500D02*
Y238788D01*
Y230500D02*
X611300Y207700D01*
X481961Y347732D02*
X590200Y239492D01*
Y235343D02*
Y239492D01*
Y235343D02*
X607843Y217700D01*
X477000Y283910D02*
X481485D01*
X481485Y283910D01*
X471260Y285878D02*
X477000D01*
X471260Y289815D02*
X477000D01*
Y291783D02*
X481485D01*
X481485Y291784D01*
X471260Y297689D02*
X477000D01*
X471260Y301626D02*
X477000D01*
Y307531D02*
X481485D01*
X471260Y305563D02*
X477000D01*
X481485Y283910D02*
X482740D01*
X481485Y291784D02*
X482740D01*
X477000Y303594D02*
X481485D01*
X481485Y303595D01*
X477000Y295721D02*
X481485D01*
X481485Y295721D01*
X482740D01*
X481485Y303595D02*
X482740D01*
X482940Y308986D02*
Y310017D01*
X481485Y307531D02*
X482940Y308986D01*
X352059Y314803D02*
X352237Y314981D01*
X352059Y316772D02*
X352237Y316950D01*
X352059Y318740D02*
X352237Y318918D01*
X352059Y320709D02*
X352237Y320887D01*
X415654Y402322D02*
X415832Y402500D01*
X415654Y401866D02*
Y402322D01*
X352059Y322677D02*
X352237Y322855D01*
X352059Y324646D02*
X352237Y324824D01*
X352059Y326614D02*
X352237Y326792D01*
X352059Y328583D02*
X352237Y328761D01*
X352059Y330551D02*
X352237Y330729D01*
X352059Y332520D02*
X352237Y332698D01*
X399905Y403322D02*
X400083Y403500D01*
X399905Y401866D02*
Y403322D01*
X352237Y314981D02*
X361389D01*
X352059Y334488D02*
X352237Y334666D01*
X352059Y338425D02*
X352237Y338603D01*
X357033D01*
X352059Y344331D02*
X352237Y344509D01*
X389885Y402044D02*
X390063Y401866D01*
X352059Y346299D02*
X352237Y346477D01*
X352059Y348268D02*
X352237Y348446D01*
X384157Y402322D02*
X384335Y402500D01*
X352237Y344509D02*
X358340D01*
X352059Y350236D02*
X352237Y350414D01*
X346969Y365169D02*
Y402000D01*
Y365169D02*
X352059Y360079D01*
Y358110D02*
X352237Y358288D01*
X350905Y402000D02*
X351083Y402178D01*
X357033Y358288D02*
X358082Y359337D01*
Y360821D01*
X352237Y358288D02*
X357033D01*
X351083Y367819D02*
X358082Y360821D01*
X352059Y356142D02*
X352237Y356320D01*
X357469D01*
X359782Y358633D01*
Y361525D01*
X352874Y368432D02*
X359782Y361525D01*
X352874Y368432D02*
Y402000D01*
X342315Y369823D02*
X344822Y372330D01*
Y401822D01*
X341241Y402178D02*
Y402500D01*
X341063Y402000D02*
X341241Y402178D01*
X320661Y369823D02*
Y379257D01*
X322630Y369823D02*
Y378822D01*
X343032Y396819D02*
Y402000D01*
X324598Y369823D02*
Y378386D01*
X343032Y396819D01*
X322630Y378822D02*
X340885Y397077D01*
X320661Y379257D02*
X337126Y395722D01*
Y402000D01*
X318693Y369823D02*
Y381822D01*
X334980Y398109D01*
Y401822D01*
X335157Y402000D01*
X447688Y283732D02*
X447866Y283910D01*
X352237Y320887D02*
X360082D01*
X352237Y334666D02*
X357033D01*
X352237Y332698D02*
X357469D01*
X352237Y330729D02*
X357904D01*
X352237Y328761D02*
X358340D01*
X352237Y326792D02*
X358776D01*
X352237Y324824D02*
X359211D01*
X352237Y322855D02*
X359647D01*
X352237Y318918D02*
X360518D01*
X352237Y316950D02*
X360954D01*
X361389Y314981D02*
X379295Y332887D01*
X428882Y283300D02*
X431118D01*
X431550Y283732D01*
X447688D01*
X361389Y314981D02*
X397200D01*
X428882Y283300D01*
X430000Y286000D02*
X447744D01*
X447866Y285878D01*
X379295Y332887D02*
Y332887D01*
Y332887D02*
X379882Y332300D01*
X352237Y346477D02*
X357904D01*
X352237Y350414D02*
X357033D01*
X352237Y348446D02*
X357469D01*
X360518Y318918D02*
X380600Y339000D01*
X430685Y289815D02*
X447866D01*
X447688Y291962D02*
X447866Y291783D01*
X443975Y291962D02*
X447688D01*
X442936Y293000D02*
X443975Y291962D01*
X433500Y293000D02*
X442936D01*
X380002Y335998D02*
X381000Y335000D01*
X382682Y343500D02*
X384000D01*
X430780Y295721D02*
X447866D01*
X447688Y297867D02*
X447866Y297689D01*
X434133Y297867D02*
X447688D01*
X433500Y298500D02*
X434133Y297867D01*
X357033Y334666D02*
X367400Y345033D01*
X357469Y332698D02*
X369100Y344329D01*
X357904Y330729D02*
X370800Y343625D01*
X358340Y328761D02*
X372500Y342921D01*
X358776Y326792D02*
X374200Y342217D01*
X359211Y324824D02*
X375900Y341512D01*
X359647Y322855D02*
X377600Y340808D01*
Y340918D01*
X360082Y320887D02*
X379300Y340104D01*
Y340118D01*
X382682Y343500D01*
X380600Y339000D02*
X382000D01*
X379882Y332300D02*
X382118D01*
X367400Y345033D02*
Y346557D01*
X369100Y344329D02*
Y345853D01*
X370800Y343625D02*
Y345149D01*
X372500Y342921D02*
Y344445D01*
X374200Y342217D02*
Y343741D01*
X375900Y341512D02*
Y343037D01*
X447688Y301804D02*
X447866Y301626D01*
X433696Y301804D02*
X447688D01*
X433000Y302500D02*
X433696Y301804D01*
X447688Y303772D02*
X447866Y303594D01*
X392300Y368063D02*
Y369618D01*
X436500Y305000D02*
X438096D01*
X439323Y303772D01*
X447688D01*
X439937Y305563D02*
X447866D01*
X435091Y307409D02*
X435382Y307700D01*
X435091Y307409D02*
X435091D01*
X433500Y309000D02*
X435091Y307409D01*
X374200Y343741D02*
X392000Y361541D01*
X375900Y343037D02*
X384063Y351200D01*
X377600Y340918D02*
X385182Y348500D01*
X388982Y352300D01*
X395000Y372318D02*
Y372500D01*
X392300Y369618D02*
X395000Y372318D01*
X435382Y307700D02*
X437800D01*
X439937Y305563D01*
X440373Y307531D02*
X447866D01*
X438504Y309400D02*
X440373Y307531D01*
X437600Y309400D02*
X438504D01*
X436000Y311000D02*
X437600Y309400D01*
X436000Y311000D02*
Y312000D01*
X357033Y350414D02*
X380400Y373781D01*
Y374548D01*
X382011Y376158D01*
X357469Y348446D02*
X382100Y373077D01*
Y373843D01*
X383800Y375543D01*
Y376958D01*
X384335Y377493D01*
X357904Y346477D02*
X383800Y372373D01*
Y373139D01*
X385500Y374839D01*
Y376253D01*
X358340Y344509D02*
X385500Y371669D01*
Y372435D01*
X387200Y374135D01*
Y375549D01*
Y370176D02*
Y371731D01*
X388900Y373431D01*
Y374845D01*
Y369472D02*
Y371027D01*
X390600Y372727D01*
Y374141D01*
Y368768D02*
Y370322D01*
X392300Y372023D01*
Y373437D01*
X389500Y355000D02*
X391000Y356500D01*
Y356722D01*
X390600Y374141D02*
X392300Y375841D01*
Y377618D01*
X388900Y374845D02*
X390600Y376545D01*
Y378323D01*
X387200Y375549D02*
X388900Y377249D01*
Y379027D01*
X389885Y380012D01*
X385500Y376253D02*
X387200Y377953D01*
Y379731D01*
X387917Y380447D01*
X394000Y381722D02*
Y401866D01*
X395969Y381287D02*
Y401866D01*
X392300Y377618D02*
X395969Y381287D01*
X390600Y378323D02*
X394000Y381722D01*
X388982Y352300D02*
X390618D01*
X357033Y338603D02*
X382500Y364070D01*
Y365476D01*
X387200Y370176D01*
X367400Y346557D02*
X384200Y363357D01*
Y364772D01*
X388900Y369472D01*
X369100Y345853D02*
X385900Y362653D01*
Y364068D01*
X390600Y368768D01*
X370800Y345149D02*
X387600Y361949D01*
Y363363D01*
X392300Y368063D01*
X372500Y344445D02*
X389300Y361245D01*
Y362659D01*
X384063Y351200D02*
X385477D01*
X382400Y340800D02*
X385523D01*
X384982Y345800D02*
X388118D01*
X395000Y372318D02*
X401874Y379192D01*
Y401866D01*
X403842Y377202D02*
Y401866D01*
X392000Y361541D02*
X405811Y375352D01*
Y401866D01*
X423527Y373709D02*
Y401866D01*
X448322Y346119D02*
X448500Y345941D01*
X448322Y348087D02*
X448500Y347909D01*
X438073Y346119D02*
X448322D01*
X438508Y348087D02*
X448322D01*
Y353993D02*
X448500Y353815D01*
X387917Y402044D02*
X388094Y401866D01*
X437653Y351847D02*
X448500D01*
X438103Y353993D02*
X448322D01*
X384157Y401866D02*
Y402322D01*
X448322Y359898D02*
X448500Y359720D01*
X382011Y402000D02*
X382145Y401866D01*
X382189D01*
X444609Y359898D02*
X448322D01*
Y363835D02*
X448500Y363657D01*
X448322Y365804D02*
X448500Y365626D01*
X448322Y367772D02*
X448500Y367595D01*
X390618Y352300D02*
X411717Y373398D01*
Y401866D01*
X391000Y356722D02*
X409748Y375470D01*
Y401866D01*
X388118Y345800D02*
X415832Y373513D01*
X385523Y340800D02*
X417622Y372900D01*
X383427Y336300D02*
X421559Y374432D01*
Y401866D01*
X382118Y332300D02*
X423527Y373709D01*
X394000Y401866D02*
Y406994D01*
X395969Y401866D02*
Y406558D01*
X436748Y357752D02*
X448500D01*
X434087Y360414D02*
X436748Y357752D01*
X432386Y359709D02*
X438103Y353993D01*
X430687Y358814D02*
X437653Y351847D01*
X428987Y357609D02*
X438508Y348087D01*
X427286Y356905D02*
X438073Y346119D01*
X443302Y363835D02*
X448322D01*
X435786Y368721D02*
X444609Y359898D01*
X437487Y369651D02*
X443302Y363835D01*
X439186Y370355D02*
X443737Y365804D01*
X448322D01*
X440886Y371059D02*
Y411391D01*
Y371059D02*
X444173Y367772D01*
X448322D01*
Y369741D02*
X448500Y369563D01*
X444609Y369741D02*
X448322D01*
X442587Y371763D02*
X444609Y369741D01*
X442587Y371763D02*
Y412095D01*
X395969Y406558D02*
X396217Y406806D01*
X394000Y406994D02*
X395513Y408506D01*
X382011Y402000D02*
Y410011D01*
X350905Y402000D02*
Y413905D01*
X355706Y418706D01*
X352874Y402000D02*
Y412874D01*
X346969Y402000D02*
Y412968D01*
X354406Y420406D01*
X344822Y415322D02*
X351606Y422106D01*
X344822Y401822D02*
X345000Y402000D01*
X563464Y491634D02*
X563643D01*
X481961Y365448D02*
X529709Y317700D01*
X611300D01*
X482832Y369385D02*
X504517Y347700D01*
X611300Y197700D02*
X616391D01*
X482396Y367417D02*
X512113Y337700D01*
X611300D01*
X557559Y491634D02*
X557737Y491456D01*
X555590Y491634D02*
X555768Y491456D01*
X504517Y347700D02*
X611300D01*
Y297700D02*
X616391D01*
X551653Y491634D02*
X551831Y491456D01*
X549685Y491634D02*
X549863Y491456D01*
X545748Y491634D02*
X545926Y491456D01*
X543780Y491634D02*
X543957Y491456D01*
X561496Y491634D02*
X561674Y491456D01*
X563464Y491634D02*
X563643Y491456D01*
X611300Y417700D02*
X622500Y428900D01*
Y471400D01*
X619300Y474600D02*
X622500Y471400D01*
X620004Y476300D02*
X624200Y472104D01*
X616391Y197700D02*
X634400Y215709D01*
Y478929D01*
X626829Y486500D02*
X634400Y478929D01*
X611300Y227700D02*
X632700Y249100D01*
Y478225D01*
X626125Y484800D02*
X632700Y478225D01*
X611300Y267700D02*
X631000Y287400D01*
Y477521D01*
X625421Y483100D02*
X631000Y477521D01*
X616391Y297700D02*
X629300Y310609D01*
Y476817D01*
X624717Y481400D02*
X629300Y476817D01*
X611300Y327700D02*
X627600Y344000D01*
Y474113D01*
X622013Y479700D02*
X627600Y474113D01*
X611300Y367700D02*
X625900Y382300D01*
Y473408D01*
X621308Y478000D02*
X625900Y473408D01*
X611300Y397700D02*
X624200Y410600D01*
Y472104D01*
X563286Y462678D02*
X563464Y462500D01*
X561318Y462678D02*
X561496Y462500D01*
X464667Y588300D02*
X465133D01*
X466200Y584600D02*
Y586963D01*
X561318Y462678D02*
Y467370D01*
X557848Y470840D02*
X561318Y467370D01*
X555413Y462678D02*
X555590Y462500D01*
X551476Y462678D02*
X551653Y462500D01*
X549507Y462678D02*
X549685Y462500D01*
X456200Y584600D02*
X460967D01*
X464667Y588300D01*
X466200Y564600D02*
X468200D01*
X563286Y462678D02*
Y467805D01*
X558552Y472540D02*
X563286Y467805D01*
X563643Y487743D02*
Y491456D01*
Y487743D02*
X564885Y486500D01*
X626829D01*
X561674Y488078D02*
Y491456D01*
X561300Y487704D02*
X561674Y488078D01*
X543957Y487307D02*
Y491456D01*
X561300Y487138D02*
Y487704D01*
Y487138D02*
X563638Y484800D01*
X626125D01*
X545926Y487743D02*
Y491456D01*
X555413Y462678D02*
Y467370D01*
X555342Y467440D02*
X555413Y467370D01*
X557559Y462500D02*
Y467627D01*
X556046Y469140D02*
X557559Y467627D01*
X561387Y481400D02*
X624717D01*
X559874Y479700D02*
X622013D01*
X559170Y478000D02*
X621308D01*
X557837Y476300D02*
X620004D01*
X546975Y486694D02*
X547444D01*
X557837Y476300D01*
X546271Y484994D02*
X546740D01*
X545926Y487743D02*
X546975Y486694D01*
X543957Y487307D02*
X546271Y484994D01*
X508167Y483518D02*
X518591Y473094D01*
X541811D01*
X557133Y474600D02*
X619300D01*
X546740Y484994D02*
X557133Y474600D01*
X556789Y472540D02*
X558552D01*
X556085Y470840D02*
X557848D01*
X555381Y469140D02*
X556046D01*
X554676Y467440D02*
X555342D01*
X551476Y462678D02*
Y468237D01*
X549507Y462678D02*
Y467801D01*
X541811Y473094D02*
X545748Y469156D01*
Y462500D02*
Y469156D01*
X506467Y482813D02*
X517887Y471394D01*
X541106D01*
X543780Y468720D01*
Y462500D02*
Y468720D01*
X456200Y564600D02*
X459553D01*
X465853Y570900D01*
X466200Y574600D02*
X469363D01*
X465853Y570900D02*
X468067D01*
X472500Y575333D01*
X469363Y574600D02*
X470800Y576037D01*
X466216Y567412D02*
Y568859D01*
X466557Y569200D01*
X468772D01*
X484102Y577270D02*
Y581465D01*
X482500Y583067D02*
X484102Y581465D01*
X470800Y576037D02*
Y586837D01*
X465133Y558300D02*
X484102Y577270D01*
X464667Y558300D02*
X465133D01*
X460967Y554600D02*
X464667Y558300D01*
X456200Y554600D02*
X460967D01*
X526129Y610200D02*
X550600Y585729D01*
X525425Y608500D02*
X548900Y585025D01*
X524721Y606800D02*
X547200Y584321D01*
X524017Y605100D02*
X545500Y583617D01*
X523313Y603400D02*
X543800Y582912D01*
X522608Y601700D02*
X542100Y582208D01*
X521904Y600000D02*
X540400Y581504D01*
X521200Y598300D02*
X538700Y580800D01*
Y545775D02*
Y580800D01*
X506467Y482813D02*
Y513542D01*
X540400Y545071D02*
Y581504D01*
X508167Y483518D02*
Y512838D01*
X542100Y544367D02*
Y582208D01*
X543800Y543663D02*
Y582912D01*
X545500Y542958D02*
Y583617D01*
X547200Y542254D02*
Y584321D01*
X548900Y541550D02*
Y585025D01*
X550600Y540846D02*
Y585729D01*
X518367Y508613D02*
X550600Y540846D01*
X516667Y509317D02*
X548900Y541550D01*
X514967Y510021D02*
X547200Y542254D01*
X513267Y510725D02*
X545500Y542958D01*
X511567Y511430D02*
X543800Y543663D01*
X509867Y512134D02*
X542100Y544367D01*
X508167Y512838D02*
X540400Y545071D01*
X506467Y513542D02*
X538700Y545775D01*
X395969Y431000D02*
X396000Y431032D01*
X338847Y475153D02*
Y484450D01*
X422398Y534920D02*
X424000Y533318D01*
X422398Y534920D02*
Y545400D01*
X419249Y534251D02*
Y545400D01*
X394052Y536234D02*
Y545400D01*
X491500Y587500D02*
X494900Y590900D01*
X497733D01*
X488437Y589200D02*
X491600Y592363D01*
X497733Y590900D02*
X499900Y593067D01*
Y595900D01*
X502300Y598300D01*
X521200D01*
X491600Y592363D02*
Y595233D01*
X496367Y600000D01*
X521904D01*
X495663Y601700D02*
X522608D01*
X412500Y512000D02*
X502521D01*
X408800Y518800D02*
X493108D01*
X408300Y521300D02*
X493204D01*
X407596Y523000D02*
X492500D01*
X347147Y464890D02*
X390657Y508400D01*
X392996D01*
X407596Y523000D01*
X350905Y466245D02*
X391361Y506700D01*
X393700D01*
X408300Y521300D01*
X353052Y465987D02*
X392065Y505000D01*
X395000D01*
X408800Y518800D01*
X387618Y529800D02*
X394052Y536234D01*
X384197Y529800D02*
X387618D01*
X338847Y484450D02*
X384197Y529800D01*
X468772Y569200D02*
X480800Y581228D01*
X487733Y590900D02*
X489900Y593067D01*
Y595937D01*
X495663Y601700D01*
X472500Y575333D02*
Y586133D01*
X491500Y581000D02*
Y587500D01*
X482500Y583067D02*
Y586133D01*
X485567Y589200D01*
X488437D01*
X480800Y581228D02*
Y586837D01*
X484863Y590900D01*
X487733D01*
X472500Y586133D02*
X474667Y588300D01*
X477537D01*
X481657Y592420D01*
X470800Y586837D02*
X473963Y590000D01*
X476833D01*
X479900Y593067D01*
X465133Y588300D02*
X469900Y593067D01*
X479355Y610200D02*
X526129D01*
X486792Y605100D02*
X524017D01*
X481657Y592420D02*
Y597561D01*
X487496Y603400D01*
X523313D01*
X479900Y593067D02*
Y598208D01*
X486792Y605100D01*
X466200Y586963D02*
X471600Y592363D01*
Y595233D01*
X483167Y606800D01*
X524721D01*
X469900Y593067D02*
Y595937D01*
X482463Y608500D01*
X525425D01*
X466200Y594600D02*
Y597045D01*
X479355Y610200D01*
D28*
X108531Y256469D02*
Y272600D01*
X81500Y223100D02*
X88400Y230000D01*
X81500Y182500D02*
Y223100D01*
Y182500D02*
X89000Y175000D01*
X80500Y237900D02*
Y275300D01*
Y237900D02*
X88400Y230000D01*
X80500Y275300D02*
X88600Y283400D01*
X106153Y284962D02*
X108315Y282800D01*
X106153Y284962D02*
Y291400D01*
X88600Y283400D02*
X89200Y282800D01*
X97685D01*
X98847Y263400D02*
X99047Y263200D01*
X88600Y263400D02*
X98847D01*
X111115Y172063D02*
Y174200D01*
Y172063D02*
X112206Y170972D01*
Y165828D02*
Y170972D01*
X111115Y164737D02*
X112206Y165828D01*
X111115Y162400D02*
Y164737D01*
X111778Y230663D02*
Y253222D01*
X110715Y229600D02*
X111778Y230663D01*
X110900Y218585D02*
Y229415D01*
X110715Y229600D02*
X110900Y229415D01*
X110715Y218400D02*
X110900Y218585D01*
Y209547D02*
Y218215D01*
X110715Y218400D02*
X110900Y218215D01*
X108353Y207000D02*
X110900Y209547D01*
X88400Y230000D02*
X99685D01*
X100085Y229600D01*
X91400Y207000D02*
X102447D01*
X88400Y210000D02*
X91400Y207000D01*
X90000Y218400D02*
X100085D01*
X88400Y220000D02*
X90000Y218400D01*
X113500Y176585D02*
Y192500D01*
X111315Y174400D02*
X113500Y176585D01*
X108353Y197647D02*
X113500Y192500D01*
X100485Y162797D02*
X105250Y167562D01*
X100485Y162400D02*
Y162797D01*
X105250Y167562D02*
Y179362D01*
X111801Y154648D02*
Y161714D01*
X111115Y162400D02*
X111801Y161714D01*
X108753Y151600D02*
X111801Y154648D01*
X105250Y179362D02*
X105500Y179612D01*
Y180900D01*
X111115Y174200D02*
X111315Y174400D01*
X103600Y182800D02*
X105500Y180900D01*
X89000Y175000D02*
X89600Y174400D01*
X100685D01*
X108315Y272600D02*
Y282800D01*
Y272600D02*
X108531D01*
Y256469D02*
X111778Y253222D01*
X108353Y197647D02*
Y207000D01*
X107353Y127000D02*
Y150200D01*
X108753Y151600D01*
X92400D02*
X102847D01*
X89000Y155000D02*
X92400Y151600D01*
X91600Y162400D02*
X100485D01*
X89000Y165000D02*
X91600Y162400D01*
X64800Y97800D02*
X82800Y115800D01*
X64800Y54100D02*
Y97800D01*
X82800Y115800D02*
X89200D01*
X112115Y105400D02*
X115153Y102362D01*
Y90735D02*
Y102362D01*
X115031Y90613D02*
X115153Y90735D01*
X115031Y89584D02*
Y90613D01*
X105850Y102150D02*
X111453Y96547D01*
X111331Y91117D02*
Y92145D01*
X111453Y92267D02*
Y96547D01*
X111331Y92145D02*
X111453Y92267D01*
X104946Y79500D02*
X115031Y89584D01*
X95500Y79500D02*
X104946D01*
X105464Y89828D02*
X110042D01*
X101847Y93445D02*
X105464Y89828D01*
X110042D02*
X111331Y91117D01*
X76000Y60000D02*
X95500Y79500D01*
X76000Y41800D02*
Y60000D01*
X64800Y30600D02*
X76000Y41800D01*
X101847Y93445D02*
Y93800D01*
X105850Y102150D02*
Y120258D01*
X104562Y121546D02*
X105850Y120258D01*
X101630Y121546D02*
X104562D01*
X101447Y121729D02*
X101630Y121546D01*
X101447Y121729D02*
Y127000D01*
X107753Y93800D02*
Y95015D01*
X102150Y100617D02*
X107753Y95015D01*
X102150Y100617D02*
Y104735D01*
X101485Y105400D02*
X102150Y104735D01*
X107353Y123988D02*
Y127000D01*
Y123988D02*
X109550Y121790D01*
Y118565D02*
Y121790D01*
Y118565D02*
X112115Y116000D01*
X89200Y115800D02*
X101285D01*
X99847Y95800D02*
X101847Y93800D01*
X89200Y95800D02*
X99847D01*
X112115Y105400D02*
Y116000D01*
X101085Y105800D02*
X101485Y105400D01*
X89200Y105800D02*
X101085D01*
X101285Y115800D02*
X101485Y116000D01*
D29*
X440000Y469500D02*
D03*
X317000Y514500D02*
D03*
X343000Y481000D02*
D03*
X501000Y123000D02*
D03*
X371800Y68600D02*
D03*
D30*
X440000Y459500D02*
D03*
X430000Y469500D02*
D03*
Y459500D02*
D03*
X420000Y469500D02*
D03*
Y459500D02*
D03*
X410000Y469500D02*
D03*
Y459500D02*
D03*
X400000Y469500D02*
D03*
Y459500D02*
D03*
X390000Y469500D02*
D03*
Y459500D02*
D03*
X380000Y469500D02*
D03*
Y459500D02*
D03*
X370000Y469500D02*
D03*
Y459500D02*
D03*
X317000Y504500D02*
D03*
X307000Y514500D02*
D03*
Y504500D02*
D03*
X297000Y514500D02*
D03*
Y504500D02*
D03*
X287000Y514500D02*
D03*
Y504500D02*
D03*
X277000Y514500D02*
D03*
Y504500D02*
D03*
X267000Y514500D02*
D03*
Y504500D02*
D03*
X257000Y514500D02*
D03*
Y504500D02*
D03*
X247000Y514500D02*
D03*
Y504500D02*
D03*
X313000Y471000D02*
D03*
Y481000D02*
D03*
X323000Y471000D02*
D03*
Y481000D02*
D03*
X333000Y471000D02*
D03*
Y481000D02*
D03*
X343000Y471000D02*
D03*
X549500Y129000D02*
D03*
X559500Y139000D02*
D03*
X549500D02*
D03*
X559500Y149000D02*
D03*
X549500D02*
D03*
X559500Y159000D02*
D03*
X549500D02*
D03*
X559500Y169000D02*
D03*
X549500D02*
D03*
X559500Y179000D02*
D03*
X549500D02*
D03*
X559500Y189000D02*
D03*
X549500D02*
D03*
X559500Y199000D02*
D03*
X549500D02*
D03*
X532000D02*
D03*
X522000Y189000D02*
D03*
X532000D02*
D03*
X522000Y179000D02*
D03*
X532000D02*
D03*
X522000Y169000D02*
D03*
X532000D02*
D03*
X522000Y159000D02*
D03*
X532000D02*
D03*
X522000Y149000D02*
D03*
X532000D02*
D03*
X522000Y139000D02*
D03*
X532000D02*
D03*
X522000Y129000D02*
D03*
X532000D02*
D03*
X411000Y113000D02*
D03*
Y123000D02*
D03*
X421000Y113000D02*
D03*
Y123000D02*
D03*
X431000Y113000D02*
D03*
Y123000D02*
D03*
X441000Y113000D02*
D03*
Y123000D02*
D03*
X451000Y113000D02*
D03*
Y123000D02*
D03*
X461000Y113000D02*
D03*
Y123000D02*
D03*
X471000Y113000D02*
D03*
Y123000D02*
D03*
X481000Y113000D02*
D03*
Y123000D02*
D03*
X491000Y113000D02*
D03*
Y123000D02*
D03*
X501000Y113000D02*
D03*
X378500Y179000D02*
D03*
Y189000D02*
D03*
X395500Y198000D02*
D03*
Y188000D02*
D03*
Y178000D02*
D03*
X391800Y68600D02*
D03*
X381800D02*
D03*
D31*
X559500Y129000D02*
D03*
X522000Y199000D02*
D03*
X378500D02*
D03*
X395500Y208000D02*
D03*
D32*
X181400Y182400D02*
D03*
Y192400D02*
D03*
Y202400D02*
D03*
Y212400D02*
D03*
X211400D02*
D03*
Y202400D02*
D03*
Y192400D02*
D03*
D33*
Y182400D02*
D03*
D34*
X138000Y521000D02*
D03*
X523200Y40400D02*
D03*
D35*
X138000Y511000D02*
D03*
Y501000D02*
D03*
Y491000D02*
D03*
Y481000D02*
D03*
Y471000D02*
D03*
Y461000D02*
D03*
Y451000D02*
D03*
Y441000D02*
D03*
Y431000D02*
D03*
X168000D02*
D03*
Y441000D02*
D03*
Y451000D02*
D03*
Y461000D02*
D03*
Y471000D02*
D03*
Y481000D02*
D03*
Y491000D02*
D03*
Y501000D02*
D03*
Y511000D02*
D03*
Y521000D02*
D03*
X506200Y564600D02*
D03*
X516200Y574600D02*
D03*
X506200D02*
D03*
X516200Y564600D02*
D03*
Y554600D02*
D03*
X506200D02*
D03*
Y584600D02*
D03*
X516200D02*
D03*
X506200Y594600D02*
D03*
Y544600D02*
D03*
X496200D02*
D03*
X486200D02*
D03*
X476200D02*
D03*
X466200D02*
D03*
X496200Y554600D02*
D03*
X486200D02*
D03*
X476200D02*
D03*
X466200D02*
D03*
X496200Y594600D02*
D03*
X486200D02*
D03*
X476200D02*
D03*
X466200D02*
D03*
X496200Y584600D02*
D03*
X486200D02*
D03*
X476200D02*
D03*
X466200D02*
D03*
X456200D02*
D03*
X466200Y574600D02*
D03*
Y564600D02*
D03*
X456200Y574600D02*
D03*
Y564600D02*
D03*
Y554600D02*
D03*
X443800Y188700D02*
D03*
X453800Y178700D02*
D03*
Y188700D02*
D03*
X463800Y178700D02*
D03*
Y188700D02*
D03*
X473800Y178700D02*
D03*
X483800Y188700D02*
D03*
X473800D02*
D03*
X483800Y198700D02*
D03*
X473800D02*
D03*
X483800Y208700D02*
D03*
X473800D02*
D03*
X483800Y218700D02*
D03*
X473800D02*
D03*
X483800Y228700D02*
D03*
X473800D02*
D03*
X483800Y238700D02*
D03*
X473800Y248700D02*
D03*
Y238700D02*
D03*
X463800Y248700D02*
D03*
Y238700D02*
D03*
X453800Y248700D02*
D03*
Y238700D02*
D03*
X443800Y248700D02*
D03*
Y238700D02*
D03*
X433800Y248700D02*
D03*
Y238700D02*
D03*
X423800Y248700D02*
D03*
X413800Y238700D02*
D03*
X423800D02*
D03*
X413800Y228700D02*
D03*
X423800D02*
D03*
X413800Y218700D02*
D03*
X423800D02*
D03*
X413800Y208700D02*
D03*
X423800D02*
D03*
X413800Y198700D02*
D03*
X423800D02*
D03*
X413800Y188700D02*
D03*
X423800Y178700D02*
D03*
Y188700D02*
D03*
X433800Y178700D02*
D03*
Y188700D02*
D03*
X443800Y178700D02*
D03*
X493200Y40400D02*
D03*
Y50400D02*
D03*
Y60400D02*
D03*
Y70400D02*
D03*
X523200D02*
D03*
Y60400D02*
D03*
Y50400D02*
D03*
D36*
X46700Y516100D02*
D03*
Y526100D02*
D03*
Y536100D02*
D03*
Y546100D02*
D03*
Y556100D02*
D03*
Y566100D02*
D03*
Y576100D02*
D03*
X103500Y557700D02*
D03*
Y537700D02*
D03*
X73500D02*
D03*
Y557700D02*
D03*
X283000Y69500D02*
D03*
X278000Y79500D02*
D03*
X273000Y69500D02*
D03*
X268000Y79500D02*
D03*
X263000Y69500D02*
D03*
X258000Y79500D02*
D03*
X253000Y69500D02*
D03*
X292000Y98500D02*
D03*
X282000D02*
D03*
X259000D02*
D03*
X249000D02*
D03*
X594000Y45000D02*
D03*
Y25000D02*
D03*
X564000D02*
D03*
Y45000D02*
D03*
D37*
X46700Y586100D02*
D03*
D38*
X73500Y527700D02*
D03*
X103500Y587700D02*
D03*
X564000Y15000D02*
D03*
X594000Y75000D02*
D03*
D39*
X138950Y416000D02*
D03*
X133044D02*
D03*
X127139D02*
D03*
X121233D02*
D03*
X115328D02*
D03*
X109422D02*
D03*
X103517D02*
D03*
X97611D02*
D03*
X91706D02*
D03*
X85800D02*
D03*
X79894D02*
D03*
X73989D02*
D03*
X68083D02*
D03*
X62178D02*
D03*
X56272D02*
D03*
X50367D02*
D03*
X44461D02*
D03*
D40*
X159816Y408323D02*
D03*
X23595D02*
D03*
D41*
X332700Y161300D02*
D03*
Y142100D02*
D03*
X169500Y276000D02*
D03*
Y256800D02*
D03*
D42*
X611300Y467700D02*
D03*
Y457700D02*
D03*
Y447700D02*
D03*
Y437700D02*
D03*
Y427700D02*
D03*
Y417700D02*
D03*
Y407700D02*
D03*
Y397700D02*
D03*
Y387700D02*
D03*
Y377700D02*
D03*
Y367700D02*
D03*
Y357700D02*
D03*
Y347700D02*
D03*
Y337700D02*
D03*
Y327700D02*
D03*
Y317700D02*
D03*
Y307700D02*
D03*
Y297700D02*
D03*
Y287700D02*
D03*
Y277700D02*
D03*
Y267700D02*
D03*
Y257700D02*
D03*
Y247700D02*
D03*
Y237700D02*
D03*
Y227700D02*
D03*
Y217700D02*
D03*
Y207700D02*
D03*
Y197700D02*
D03*
Y187700D02*
D03*
D43*
Y177700D02*
D03*
X88400Y210000D02*
D03*
Y220000D02*
D03*
Y230000D02*
D03*
X89000Y155000D02*
D03*
Y165000D02*
D03*
Y175000D02*
D03*
X89200Y95800D02*
D03*
Y105800D02*
D03*
Y115800D02*
D03*
X88600Y263400D02*
D03*
Y273400D02*
D03*
Y283400D02*
D03*
D44*
X611300Y140200D02*
D03*
D45*
Y505200D02*
D03*
D46*
X301200Y56500D02*
D03*
X239800D02*
D03*
D47*
X288000Y79500D02*
D03*
D48*
X248000Y44500D02*
D03*
X293000D02*
D03*
D49*
X18400Y220000D02*
D03*
X19000Y165000D02*
D03*
X19200Y105800D02*
D03*
X18600Y273400D02*
D03*
D50*
X64800Y54100D02*
D03*
D51*
X82800Y43600D02*
D03*
D52*
X64800Y30600D02*
D03*
D53*
X188500Y293500D02*
D03*
Y297800D02*
D03*
D54*
X201358Y588600D02*
D03*
X221043D02*
D03*
X230885D02*
D03*
X191515Y608285D02*
D03*
X230885D02*
D03*
X191515Y618127D02*
D03*
X230885D02*
D03*
X211200Y608285D02*
D03*
Y588600D02*
D03*
X191515D02*
D03*
X146157Y588715D02*
D03*
X165842D02*
D03*
X175685D02*
D03*
X136315Y608400D02*
D03*
X175685D02*
D03*
X136315Y618242D02*
D03*
X175685D02*
D03*
X156000Y608400D02*
D03*
Y588715D02*
D03*
X136315D02*
D03*
D55*
X30000Y620000D02*
D03*
X640000D02*
D03*
Y30000D02*
D03*
X30000D02*
D03*
D56*
X271244Y131000D02*
D03*
X276756Y131000D02*
D03*
X263256Y163244D02*
D03*
X258000Y163500D02*
D03*
X301500Y141500D02*
D03*
X300790Y147710D02*
D03*
X424000Y533000D02*
D03*
X420000Y533500D02*
D03*
X416000Y534500D02*
D03*
X427700Y532000D02*
D03*
X400000Y538000D02*
D03*
X500500Y523500D02*
D03*
X404000Y537000D02*
D03*
X408500D02*
D03*
X471260Y285878D02*
D03*
Y289815D02*
D03*
Y297689D02*
D03*
Y301626D02*
D03*
Y305563D02*
D03*
X482740Y283910D02*
D03*
Y291784D02*
D03*
Y295721D02*
D03*
Y303595D02*
D03*
X482940Y310017D02*
D03*
X430000Y286000D02*
D03*
X430685Y289815D02*
D03*
X433500Y293000D02*
D03*
X381000Y335000D02*
D03*
X384000Y343500D02*
D03*
X430780Y295721D02*
D03*
X433500Y298500D02*
D03*
X382000Y339000D02*
D03*
X389500Y355000D02*
D03*
X433000Y302500D02*
D03*
X392000Y361541D02*
D03*
X436500Y305000D02*
D03*
X395000Y368500D02*
D03*
X433500Y309000D02*
D03*
X385182Y348500D02*
D03*
X395000Y372318D02*
D03*
X436000Y312000D02*
D03*
X395000Y376500D02*
D03*
X396000Y489000D02*
D03*
X378500Y533000D02*
D03*
X399000Y491500D02*
D03*
X382500Y532000D02*
D03*
X401500Y494500D02*
D03*
X386500Y532500D02*
D03*
X388000Y536500D02*
D03*
X404000Y497500D02*
D03*
X393000Y486500D02*
D03*
X364000Y606500D02*
D03*
X390000Y483500D02*
D03*
X359500Y605000D02*
D03*
X356000Y609500D02*
D03*
X387500Y480500D02*
D03*
X538500Y628500D02*
D03*
X545500Y626500D02*
D03*
X549000Y624500D02*
D03*
X552500Y622000D02*
D03*
X394052Y604552D02*
D03*
M02*
