G04 Layer_Color=128*
%FSLAX25Y25*%
%MOIN*%
G70*
G01*
G75*
%ADD10R,0.03150X0.03543*%
%ADD13R,0.02756X0.03543*%
%ADD15R,0.03543X0.02756*%
%ADD17R,0.03543X0.03150*%
D10*
X263256Y88000D02*
D03*
X257744D02*
D03*
X258244Y176500D02*
D03*
X263756D02*
D03*
X276756Y131000D02*
D03*
X271244D02*
D03*
X276756Y136500D02*
D03*
X271244D02*
D03*
X257744Y163500D02*
D03*
X263256D02*
D03*
X257744Y170000D02*
D03*
X263256D02*
D03*
X72256Y407500D02*
D03*
X66744D02*
D03*
X66244Y368500D02*
D03*
X71756D02*
D03*
X71756Y377500D02*
D03*
X66244D02*
D03*
X71756Y385800D02*
D03*
X66244D02*
D03*
X79744Y410000D02*
D03*
X85256D02*
D03*
X91244Y409500D02*
D03*
X96756D02*
D03*
X101744Y407500D02*
D03*
X107256D02*
D03*
X338356Y286100D02*
D03*
X332844D02*
D03*
X334744Y316500D02*
D03*
X340256D02*
D03*
X253256Y311000D02*
D03*
X247744D02*
D03*
X254756Y283000D02*
D03*
X249244D02*
D03*
X334244Y340000D02*
D03*
X339756D02*
D03*
X296988Y330000D02*
D03*
X302500D02*
D03*
X340756Y352300D02*
D03*
X335244D02*
D03*
X334744Y307500D02*
D03*
X340256D02*
D03*
X245244Y323500D02*
D03*
X250756D02*
D03*
X122244Y468000D02*
D03*
X127756D02*
D03*
X199156Y182000D02*
D03*
X193644D02*
D03*
X207356Y557200D02*
D03*
X201844D02*
D03*
X251756Y347500D02*
D03*
X246244D02*
D03*
X332744Y271500D02*
D03*
X338256D02*
D03*
D13*
X587500Y194500D02*
D03*
X593406D02*
D03*
X588147Y437300D02*
D03*
X594053D02*
D03*
D15*
X278500Y47547D02*
D03*
Y53453D02*
D03*
X265500Y47547D02*
D03*
Y53453D02*
D03*
X441000Y137153D02*
D03*
Y131247D02*
D03*
X451200Y136953D02*
D03*
Y131047D02*
D03*
X461400Y137153D02*
D03*
Y131247D02*
D03*
X471400Y136753D02*
D03*
Y130847D02*
D03*
X480800Y137153D02*
D03*
Y131247D02*
D03*
X491000Y137353D02*
D03*
Y131447D02*
D03*
X421200Y138553D02*
D03*
Y132647D02*
D03*
X411000Y138553D02*
D03*
Y132647D02*
D03*
X86700Y567147D02*
D03*
Y573053D02*
D03*
X463800Y222947D02*
D03*
Y228853D02*
D03*
X447200Y223747D02*
D03*
Y229653D02*
D03*
X512800Y72953D02*
D03*
Y67047D02*
D03*
X512600Y61353D02*
D03*
Y55447D02*
D03*
D17*
X272000Y53256D02*
D03*
Y47744D02*
D03*
X631500Y182744D02*
D03*
Y188256D02*
D03*
X301500Y147000D02*
D03*
Y141488D02*
D03*
X307500Y147000D02*
D03*
Y141488D02*
D03*
X113500Y409256D02*
D03*
Y403744D02*
D03*
X120000Y409256D02*
D03*
Y403744D02*
D03*
X127000Y478244D02*
D03*
Y483756D02*
D03*
X221500Y307756D02*
D03*
Y302244D02*
D03*
X327500Y349744D02*
D03*
Y355256D02*
D03*
X284000Y270756D02*
D03*
Y265244D02*
D03*
X338500Y296756D02*
D03*
Y291244D02*
D03*
X321000Y296012D02*
D03*
Y290500D02*
D03*
X298000Y296012D02*
D03*
Y290500D02*
D03*
X221500Y290256D02*
D03*
Y284744D02*
D03*
X318500Y270500D02*
D03*
Y264988D02*
D03*
X467500Y320000D02*
D03*
Y314488D02*
D03*
X141500Y408756D02*
D03*
Y403244D02*
D03*
X133000Y408756D02*
D03*
Y403244D02*
D03*
X126000Y408756D02*
D03*
Y403244D02*
D03*
X125000Y453244D02*
D03*
Y458756D02*
D03*
X282400Y131956D02*
D03*
Y126444D02*
D03*
Y137844D02*
D03*
Y143356D02*
D03*
X258500Y348744D02*
D03*
Y354256D02*
D03*
X290000Y349744D02*
D03*
Y355256D02*
D03*
X281000D02*
D03*
Y349744D02*
D03*
X259500Y265744D02*
D03*
Y271256D02*
D03*
X249000Y271256D02*
D03*
Y265744D02*
D03*
X631000Y461488D02*
D03*
Y467000D02*
D03*
M02*
