G04 Layer_Physical_Order=1*
G04 Layer_Color=255*
%FSLAX25Y25*%
%MOIN*%
G70*
G01*
G75*
%ADD10O,0.09646X0.01181*%
%ADD11O,0.01181X0.09646*%
%ADD12R,0.05315X0.04724*%
%ADD13R,0.04331X0.06693*%
%ADD14R,0.02756X0.03543*%
%ADD15R,0.03543X0.02756*%
%ADD16R,0.03150X0.03543*%
%ADD17O,0.01181X0.07480*%
%ADD18O,0.07480X0.01181*%
%ADD19O,0.01378X0.07874*%
%ADD20R,0.03543X0.03150*%
%ADD21O,0.02165X0.07874*%
%ADD22O,0.05905X0.00984*%
%ADD23O,0.00984X0.05905*%
%ADD24R,0.03150X0.03543*%
%ADD25O,0.01575X0.07087*%
%ADD26R,0.06693X0.04331*%
%ADD27R,0.04724X0.05315*%
%ADD28C,0.01200*%
%ADD29C,0.01000*%
%ADD30C,0.00800*%
%ADD31C,0.03000*%
%ADD32C,0.02000*%
%ADD33R,0.05905X0.05905*%
%ADD34C,0.05905*%
%ADD35R,0.05905X0.05905*%
%ADD36C,0.04000*%
%ADD37R,0.04000X0.04000*%
%ADD38C,0.06000*%
%ADD39R,0.06000X0.06000*%
%ADD40C,0.03937*%
%ADD41C,0.06600*%
%ADD42C,0.04500*%
%ADD43C,0.06200*%
%ADD44R,0.06200X0.06200*%
%ADD45C,0.08500*%
%ADD46C,0.10600*%
%ADD47C,0.05000*%
%ADD48C,0.08000*%
%ADD49R,0.06000X0.06000*%
%ADD50C,0.15000*%
%ADD51O,0.16500X0.05500*%
%ADD52O,0.04500X0.14500*%
%ADD53O,0.14500X0.04500*%
%ADD54C,0.03400*%
%ADD55R,0.05000X0.05000*%
%ADD56C,0.06299*%
%ADD57C,0.25000*%
%ADD58C,0.12500*%
%ADD59C,0.03000*%
D10*
X232177Y261654D02*
D03*
Y263622D02*
D03*
Y265591D02*
D03*
Y279370D02*
D03*
Y281339D02*
D03*
Y283307D02*
D03*
Y285276D02*
D03*
Y287244D02*
D03*
Y289213D02*
D03*
Y291181D02*
D03*
Y293150D02*
D03*
Y295118D02*
D03*
Y297087D02*
D03*
Y299055D02*
D03*
Y301024D02*
D03*
Y302992D02*
D03*
Y306929D02*
D03*
Y308898D02*
D03*
Y310866D02*
D03*
Y312835D02*
D03*
Y314803D02*
D03*
Y316772D02*
D03*
Y318740D02*
D03*
Y320709D02*
D03*
Y322677D02*
D03*
Y324646D02*
D03*
Y326614D02*
D03*
Y328583D02*
D03*
Y330551D02*
D03*
Y332520D02*
D03*
Y334488D02*
D03*
Y336457D02*
D03*
Y338425D02*
D03*
Y340394D02*
D03*
Y342362D02*
D03*
Y344331D02*
D03*
Y346299D02*
D03*
Y348268D02*
D03*
Y350236D02*
D03*
Y352205D02*
D03*
Y354173D02*
D03*
Y356142D02*
D03*
Y358110D02*
D03*
X352059Y261654D02*
D03*
Y263622D02*
D03*
Y265591D02*
D03*
Y267559D02*
D03*
Y269528D02*
D03*
Y271496D02*
D03*
Y273465D02*
D03*
Y275433D02*
D03*
Y277402D02*
D03*
Y279370D02*
D03*
Y281339D02*
D03*
Y285276D02*
D03*
Y287244D02*
D03*
Y291181D02*
D03*
Y293150D02*
D03*
Y295118D02*
D03*
Y297087D02*
D03*
Y299055D02*
D03*
Y301024D02*
D03*
Y302992D02*
D03*
Y304961D02*
D03*
Y306929D02*
D03*
Y308898D02*
D03*
Y310866D02*
D03*
Y312835D02*
D03*
Y314803D02*
D03*
Y316772D02*
D03*
Y318740D02*
D03*
Y320709D02*
D03*
Y322677D02*
D03*
Y324646D02*
D03*
Y326614D02*
D03*
Y328583D02*
D03*
Y330551D02*
D03*
Y332520D02*
D03*
Y334488D02*
D03*
Y336457D02*
D03*
Y338425D02*
D03*
Y340394D02*
D03*
Y342362D02*
D03*
Y344331D02*
D03*
Y346299D02*
D03*
Y348268D02*
D03*
Y350236D02*
D03*
Y352205D02*
D03*
Y354173D02*
D03*
Y356142D02*
D03*
Y358110D02*
D03*
Y360079D02*
D03*
X232177D02*
D03*
X352059Y283307D02*
D03*
Y289213D02*
D03*
Y259685D02*
D03*
X232177D02*
D03*
Y304961D02*
D03*
Y275433D02*
D03*
Y271496D02*
D03*
Y269528D02*
D03*
Y267559D02*
D03*
Y273465D02*
D03*
Y277402D02*
D03*
D11*
X243890Y249941D02*
D03*
X245858D02*
D03*
X247827D02*
D03*
X249795D02*
D03*
X251764D02*
D03*
X253732D02*
D03*
X255701D02*
D03*
X257669D02*
D03*
X259638D02*
D03*
X261606D02*
D03*
X263575D02*
D03*
X265543D02*
D03*
X267512D02*
D03*
X269480D02*
D03*
X271449D02*
D03*
X273417D02*
D03*
X275386D02*
D03*
X277354D02*
D03*
X279323D02*
D03*
X281291D02*
D03*
X283260D02*
D03*
X285228D02*
D03*
X287197D02*
D03*
X289165D02*
D03*
X291134D02*
D03*
X293102D02*
D03*
X295071D02*
D03*
X297039D02*
D03*
X299008D02*
D03*
X302945D02*
D03*
X304913D02*
D03*
X306882D02*
D03*
X308850D02*
D03*
X310819D02*
D03*
X312787D02*
D03*
X314756D02*
D03*
X316724D02*
D03*
X318693D02*
D03*
X320661D02*
D03*
X322630D02*
D03*
X324598D02*
D03*
X326567D02*
D03*
X328535D02*
D03*
X330504D02*
D03*
X332473D02*
D03*
X334441D02*
D03*
X336410D02*
D03*
X338378D02*
D03*
X340347D02*
D03*
X342315D02*
D03*
Y369823D02*
D03*
X340347D02*
D03*
X338378D02*
D03*
X336410D02*
D03*
X334441D02*
D03*
X332473D02*
D03*
X330504D02*
D03*
X328535D02*
D03*
X326567D02*
D03*
X324598D02*
D03*
X322630D02*
D03*
X320661D02*
D03*
X318693D02*
D03*
X316724D02*
D03*
X314756D02*
D03*
X312787D02*
D03*
X310819D02*
D03*
X308850D02*
D03*
X306882D02*
D03*
X304913D02*
D03*
X302945D02*
D03*
X300976D02*
D03*
X299008D02*
D03*
X297039D02*
D03*
X295071D02*
D03*
X293102D02*
D03*
X291134D02*
D03*
X289165D02*
D03*
X287197D02*
D03*
X285228D02*
D03*
X283260D02*
D03*
X281291D02*
D03*
X279323D02*
D03*
X277354D02*
D03*
X275386D02*
D03*
X273417D02*
D03*
X271449D02*
D03*
X269480D02*
D03*
X267512D02*
D03*
X265543D02*
D03*
X263575D02*
D03*
X261606D02*
D03*
X259638D02*
D03*
X257669D02*
D03*
X255701D02*
D03*
X253732D02*
D03*
X251764D02*
D03*
X249795D02*
D03*
X247827D02*
D03*
X245858D02*
D03*
X243890D02*
D03*
X300976Y249941D02*
D03*
X241921Y369823D02*
D03*
X241921Y249941D02*
D03*
D12*
X127906Y281500D02*
D03*
X141094D02*
D03*
X286094Y583500D02*
D03*
X272906D02*
D03*
X286094Y566500D02*
D03*
X272906D02*
D03*
D13*
X103815Y293500D02*
D03*
X93185D02*
D03*
X105215Y235400D02*
D03*
X94585D02*
D03*
X105415Y174300D02*
D03*
X94785D02*
D03*
X104415Y107900D02*
D03*
X93785D02*
D03*
X311715Y114800D02*
D03*
X301085D02*
D03*
X82815Y69000D02*
D03*
X72185D02*
D03*
D14*
X95447Y157200D02*
D03*
X101353D02*
D03*
Y164000D02*
D03*
X95447D02*
D03*
X95847Y218200D02*
D03*
X101753D02*
D03*
X101853Y225400D02*
D03*
X95947D02*
D03*
X100553Y283400D02*
D03*
X94647D02*
D03*
Y276800D02*
D03*
X100553D02*
D03*
X222094Y145000D02*
D03*
X228000D02*
D03*
X94647Y91900D02*
D03*
X100553D02*
D03*
X100506Y99400D02*
D03*
X94600D02*
D03*
X228553Y137600D02*
D03*
X222647D02*
D03*
X228953Y127800D02*
D03*
X223047D02*
D03*
X228553Y109900D02*
D03*
X222647D02*
D03*
X228753Y101400D02*
D03*
X222847D02*
D03*
X229053Y119300D02*
D03*
X223147D02*
D03*
X313953Y77500D02*
D03*
X308047D02*
D03*
X313953Y83000D02*
D03*
X308047D02*
D03*
X336447Y108800D02*
D03*
X342353D02*
D03*
X336547Y114200D02*
D03*
X342453D02*
D03*
X165047Y212600D02*
D03*
X170953D02*
D03*
X164847Y202600D02*
D03*
X170753D02*
D03*
X156647Y571400D02*
D03*
X162553D02*
D03*
X138047Y571000D02*
D03*
X143953D02*
D03*
Y556600D02*
D03*
X138047D02*
D03*
X143553Y548800D02*
D03*
X137647D02*
D03*
X156400Y553800D02*
D03*
X162306D02*
D03*
X162153Y545200D02*
D03*
X156247D02*
D03*
D15*
X298500Y566047D02*
D03*
Y571953D02*
D03*
X299000Y579547D02*
D03*
Y585453D02*
D03*
X297700Y186353D02*
D03*
Y180447D02*
D03*
X288700Y186353D02*
D03*
Y180447D02*
D03*
X313600Y186153D02*
D03*
Y180247D02*
D03*
X250100Y187153D02*
D03*
Y181247D02*
D03*
X257300Y181047D02*
D03*
Y186953D02*
D03*
X264700Y181047D02*
D03*
Y186953D02*
D03*
X272300Y180647D02*
D03*
Y186553D02*
D03*
X280500D02*
D03*
Y180647D02*
D03*
X304400Y180047D02*
D03*
Y185953D02*
D03*
X392600Y84000D02*
D03*
Y78094D02*
D03*
X371400Y85200D02*
D03*
Y79294D02*
D03*
D16*
X313756Y65000D02*
D03*
X308244D02*
D03*
Y72000D02*
D03*
X313756D02*
D03*
X307312Y122600D02*
D03*
X301800D02*
D03*
X193844Y281100D02*
D03*
X199356D02*
D03*
X162156Y563000D02*
D03*
X156644D02*
D03*
X138244D02*
D03*
X143756D02*
D03*
X413556Y528300D02*
D03*
X408044D02*
D03*
X408944Y611200D02*
D03*
X414456D02*
D03*
X81544Y425600D02*
D03*
X87056D02*
D03*
D17*
X304717Y401866D02*
D03*
X302748D02*
D03*
X300780D02*
D03*
X298811D02*
D03*
X296843D02*
D03*
X294874D02*
D03*
X292906D02*
D03*
X290937D02*
D03*
X288969D02*
D03*
X287000D02*
D03*
X285032D02*
D03*
X283063D02*
D03*
X281095D02*
D03*
X279126D02*
D03*
X277158D02*
D03*
X275189D02*
D03*
X273221D02*
D03*
X271252D02*
D03*
X269284D02*
D03*
X267315D02*
D03*
X265347D02*
D03*
X263378D02*
D03*
X261410D02*
D03*
X259441D02*
D03*
Y431000D02*
D03*
X302748D02*
D03*
X304717D02*
D03*
X261410D02*
D03*
X263378D02*
D03*
X265347D02*
D03*
X267315D02*
D03*
X269284D02*
D03*
X271252D02*
D03*
X273221D02*
D03*
X275189D02*
D03*
X277158D02*
D03*
X279126D02*
D03*
X281095D02*
D03*
X283063D02*
D03*
X285032D02*
D03*
X287000D02*
D03*
X288969D02*
D03*
X290937D02*
D03*
X292906D02*
D03*
X294874D02*
D03*
X296843D02*
D03*
X298811D02*
D03*
X300780D02*
D03*
X565433Y462500D02*
D03*
X563465D02*
D03*
X561496D02*
D03*
X559528D02*
D03*
X557559D02*
D03*
X555591D02*
D03*
X553622D02*
D03*
X551654D02*
D03*
X549685D02*
D03*
X547717D02*
D03*
X545748D02*
D03*
X543780D02*
D03*
X541811D02*
D03*
X539843D02*
D03*
X537874D02*
D03*
X535906D02*
D03*
X533937D02*
D03*
X531969D02*
D03*
X530000D02*
D03*
X528032D02*
D03*
X526063D02*
D03*
X524095D02*
D03*
X522126D02*
D03*
X520158D02*
D03*
Y491634D02*
D03*
X563465D02*
D03*
X565433D02*
D03*
X522126D02*
D03*
X524095D02*
D03*
X526063D02*
D03*
X528032D02*
D03*
X530000D02*
D03*
X531969D02*
D03*
X533937D02*
D03*
X535906D02*
D03*
X537874D02*
D03*
X539843D02*
D03*
X541811D02*
D03*
X543780D02*
D03*
X545748D02*
D03*
X547717D02*
D03*
X549685D02*
D03*
X551654D02*
D03*
X553622D02*
D03*
X555591D02*
D03*
X557559D02*
D03*
X559528D02*
D03*
X561496D02*
D03*
X366654Y402000D02*
D03*
X364685D02*
D03*
X362717D02*
D03*
X360748D02*
D03*
X358780D02*
D03*
X356811D02*
D03*
X354843D02*
D03*
X352874D02*
D03*
X350906D02*
D03*
X348937D02*
D03*
X346969D02*
D03*
X345000D02*
D03*
X343032D02*
D03*
X341063D02*
D03*
X339095D02*
D03*
X337126D02*
D03*
X335158D02*
D03*
X333189D02*
D03*
X331221D02*
D03*
X329252D02*
D03*
X327284D02*
D03*
X325315D02*
D03*
X323347D02*
D03*
X321378D02*
D03*
Y431134D02*
D03*
X364685D02*
D03*
X366654D02*
D03*
X323347D02*
D03*
X325315D02*
D03*
X327284D02*
D03*
X329252D02*
D03*
X331221D02*
D03*
X333189D02*
D03*
X335158D02*
D03*
X337126D02*
D03*
X339095D02*
D03*
X341063D02*
D03*
X343032D02*
D03*
X345000D02*
D03*
X346969D02*
D03*
X348937D02*
D03*
X350906D02*
D03*
X352874D02*
D03*
X354843D02*
D03*
X356811D02*
D03*
X358780D02*
D03*
X360748D02*
D03*
X362717D02*
D03*
X425496Y401866D02*
D03*
X423528D02*
D03*
X421559D02*
D03*
X419591D02*
D03*
X417622D02*
D03*
X415654D02*
D03*
X413685D02*
D03*
X411717D02*
D03*
X409748D02*
D03*
X407780D02*
D03*
X405811D02*
D03*
X403843D02*
D03*
X401874D02*
D03*
X399906D02*
D03*
X397937D02*
D03*
X395969D02*
D03*
X394000D02*
D03*
X392032D02*
D03*
X390063D02*
D03*
X388095D02*
D03*
X386126D02*
D03*
X384158D02*
D03*
X382189D02*
D03*
X380221D02*
D03*
Y431000D02*
D03*
X423528D02*
D03*
X425496D02*
D03*
X382189D02*
D03*
X384158D02*
D03*
X386126D02*
D03*
X388095D02*
D03*
X390063D02*
D03*
X392032D02*
D03*
X394000D02*
D03*
X395969D02*
D03*
X397937D02*
D03*
X399906D02*
D03*
X401874D02*
D03*
X403843D02*
D03*
X405811D02*
D03*
X407780D02*
D03*
X409748D02*
D03*
X411717D02*
D03*
X413685D02*
D03*
X415654D02*
D03*
X417622D02*
D03*
X419591D02*
D03*
X421559D02*
D03*
D18*
X447866Y281941D02*
D03*
Y283910D02*
D03*
Y285878D02*
D03*
Y287847D02*
D03*
Y289815D02*
D03*
Y291784D02*
D03*
Y293752D02*
D03*
Y295721D02*
D03*
Y297689D02*
D03*
Y299658D02*
D03*
Y301626D02*
D03*
Y303595D02*
D03*
Y305563D02*
D03*
Y307532D02*
D03*
Y309500D02*
D03*
Y311469D02*
D03*
Y313437D02*
D03*
Y315406D02*
D03*
Y317374D02*
D03*
Y319343D02*
D03*
Y321311D02*
D03*
Y323280D02*
D03*
Y325248D02*
D03*
Y327217D02*
D03*
X477000D02*
D03*
Y283910D02*
D03*
Y281941D02*
D03*
Y325248D02*
D03*
Y323280D02*
D03*
Y321311D02*
D03*
Y319343D02*
D03*
Y317374D02*
D03*
Y315406D02*
D03*
Y313437D02*
D03*
Y311469D02*
D03*
Y309500D02*
D03*
Y307532D02*
D03*
Y305563D02*
D03*
Y303595D02*
D03*
Y301626D02*
D03*
Y299658D02*
D03*
Y297689D02*
D03*
Y295721D02*
D03*
Y293752D02*
D03*
Y291784D02*
D03*
Y289815D02*
D03*
Y287847D02*
D03*
Y285878D02*
D03*
X448500Y343973D02*
D03*
Y345941D02*
D03*
Y347910D02*
D03*
Y349878D02*
D03*
Y351847D02*
D03*
Y353815D02*
D03*
Y355784D02*
D03*
Y357752D02*
D03*
Y359721D02*
D03*
Y361689D02*
D03*
Y363658D02*
D03*
Y365626D02*
D03*
Y367595D02*
D03*
Y369563D02*
D03*
Y371532D02*
D03*
Y373500D02*
D03*
Y375469D02*
D03*
Y377437D02*
D03*
Y379406D02*
D03*
Y381374D02*
D03*
Y383343D02*
D03*
Y385311D02*
D03*
Y387280D02*
D03*
Y389248D02*
D03*
X477634D02*
D03*
Y345941D02*
D03*
Y343973D02*
D03*
Y387280D02*
D03*
Y385311D02*
D03*
Y383343D02*
D03*
Y381374D02*
D03*
Y379406D02*
D03*
Y377437D02*
D03*
Y375469D02*
D03*
Y373500D02*
D03*
Y371532D02*
D03*
Y369563D02*
D03*
Y367595D02*
D03*
Y365626D02*
D03*
Y363658D02*
D03*
Y361689D02*
D03*
Y359721D02*
D03*
Y357752D02*
D03*
Y355784D02*
D03*
Y353815D02*
D03*
Y351847D02*
D03*
Y349878D02*
D03*
Y347910D02*
D03*
D19*
X62357Y467017D02*
D03*
X59798D02*
D03*
X57239D02*
D03*
X54680D02*
D03*
X52120D02*
D03*
X49561D02*
D03*
X47002D02*
D03*
X44443D02*
D03*
X62357Y444183D02*
D03*
X59798D02*
D03*
X57239D02*
D03*
X54680D02*
D03*
X52120D02*
D03*
X49561D02*
D03*
X47002D02*
D03*
X44443D02*
D03*
X72843Y443983D02*
D03*
X75402D02*
D03*
X77961D02*
D03*
X80520D02*
D03*
X83080D02*
D03*
X85639D02*
D03*
X88198D02*
D03*
X90757D02*
D03*
X72843Y466817D02*
D03*
X75402D02*
D03*
X77961D02*
D03*
X80520D02*
D03*
X83080D02*
D03*
X85639D02*
D03*
X88198D02*
D03*
X90757D02*
D03*
D20*
X208600Y297944D02*
D03*
Y303456D02*
D03*
X185100Y293244D02*
D03*
Y298756D02*
D03*
X208600Y293156D02*
D03*
Y287644D02*
D03*
X36200Y459056D02*
D03*
Y453544D02*
D03*
X99000Y455644D02*
D03*
Y461156D02*
D03*
X215500Y298756D02*
D03*
Y293244D02*
D03*
D21*
X378304Y545400D02*
D03*
X381454D02*
D03*
X384603D02*
D03*
X387753D02*
D03*
X390902D02*
D03*
X394052D02*
D03*
X397202D02*
D03*
X400351D02*
D03*
X403501D02*
D03*
X406650D02*
D03*
X409800D02*
D03*
X412950D02*
D03*
X416099D02*
D03*
X419249D02*
D03*
X422398D02*
D03*
X425548D02*
D03*
X428698D02*
D03*
X431847D02*
D03*
X441296Y594408D02*
D03*
X438146D02*
D03*
X434997D02*
D03*
X431847D02*
D03*
X428698D02*
D03*
X425548D02*
D03*
X422398D02*
D03*
X419249D02*
D03*
X416099D02*
D03*
X412950D02*
D03*
X409800D02*
D03*
X406650D02*
D03*
X403501D02*
D03*
X434997Y545400D02*
D03*
X438146D02*
D03*
X441296D02*
D03*
X444446D02*
D03*
Y594408D02*
D03*
X378304D02*
D03*
X381454D02*
D03*
X384603D02*
D03*
X387753D02*
D03*
X390902D02*
D03*
X394052D02*
D03*
X397202D02*
D03*
X400351D02*
D03*
D22*
X255531Y143773D02*
D03*
Y141805D02*
D03*
Y139836D02*
D03*
Y137868D02*
D03*
Y135899D02*
D03*
Y133931D02*
D03*
Y131962D02*
D03*
Y129994D02*
D03*
Y128025D02*
D03*
Y145742D02*
D03*
X290964Y126057D02*
D03*
Y128025D02*
D03*
Y129994D02*
D03*
Y131962D02*
D03*
Y133931D02*
D03*
Y135899D02*
D03*
Y137868D02*
D03*
Y139836D02*
D03*
Y141805D02*
D03*
Y143773D02*
D03*
Y147710D02*
D03*
Y145742D02*
D03*
X255531Y126057D02*
D03*
Y147710D02*
D03*
D23*
X264389Y119167D02*
D03*
X266357D02*
D03*
X268326D02*
D03*
X270294D02*
D03*
X272263D02*
D03*
X274231D02*
D03*
X276200D02*
D03*
X278168D02*
D03*
X280137D02*
D03*
X282105D02*
D03*
X284074D02*
D03*
Y154600D02*
D03*
X282105D02*
D03*
X280137D02*
D03*
X278168D02*
D03*
X276200D02*
D03*
X274231D02*
D03*
X272263D02*
D03*
X262420Y119167D02*
D03*
Y154600D02*
D03*
X264389D02*
D03*
X266357D02*
D03*
X268326D02*
D03*
X270294D02*
D03*
D24*
X22400Y431000D02*
D03*
X18660Y438874D02*
D03*
X26140D02*
D03*
D25*
X209995Y568000D02*
D03*
X207436D02*
D03*
X204877D02*
D03*
X202318D02*
D03*
X199759D02*
D03*
X197200D02*
D03*
X192082Y544575D02*
D03*
X194641D02*
D03*
X197200D02*
D03*
X199759D02*
D03*
X202318D02*
D03*
X204877D02*
D03*
X194641Y568000D02*
D03*
X207436Y544575D02*
D03*
X209995D02*
D03*
X212554D02*
D03*
X215113D02*
D03*
X192082Y568000D02*
D03*
X212554D02*
D03*
X215113D02*
D03*
D26*
X245700Y578615D02*
D03*
Y567985D02*
D03*
D27*
X180900Y352594D02*
D03*
Y339406D02*
D03*
D28*
X214700Y579700D02*
X245700D01*
X547900Y505363D02*
X551137D01*
X553000Y448937D02*
X559437Y455374D01*
X547700Y448937D02*
X553000D01*
X200425Y577100D02*
X200913Y576613D01*
X202318Y575207D01*
X391800Y68600D02*
X392600Y69400D01*
Y78094D01*
X371400Y69000D02*
X371800Y68600D01*
X371400Y69000D02*
Y79294D01*
X146600Y439600D02*
X168000Y461000D01*
X245700Y578615D02*
Y579700D01*
X188800Y577100D02*
X200425D01*
X136500Y597900D02*
X148900D01*
X125600Y587000D02*
X136500Y597900D01*
X125600Y583447D02*
Y587000D01*
Y583447D02*
X138047Y571000D01*
X207100Y562100D02*
X209800D01*
X209995Y562295D01*
Y568000D01*
X197200Y562600D02*
Y568000D01*
Y562600D02*
X197700Y562100D01*
X207100D01*
X207436Y562436D01*
Y568000D01*
X202318D02*
Y575207D01*
X205300Y574815D02*
Y576560D01*
X202260Y579600D02*
X205300Y576560D01*
X200515Y579600D02*
X202260D01*
X191515Y588600D02*
X200515Y579600D01*
X199000Y573600D02*
X199759Y572841D01*
Y568000D02*
Y572841D01*
X526063Y505363D02*
X537800D01*
X526063Y491634D02*
Y505363D01*
X559437Y455374D02*
Y458555D01*
X526063Y448937D02*
X538000D01*
X526063D02*
Y462500D01*
X146600Y439600D02*
Y503700D01*
X138000Y431000D02*
X146600Y439600D01*
X144800Y505500D02*
X154644Y515344D01*
X144800Y505500D02*
X146600Y503700D01*
X558937Y505363D02*
X559528Y504773D01*
Y491634D02*
Y504773D01*
X537874Y491634D02*
Y505289D01*
X537800Y505363D02*
X537874Y505289D01*
X559437Y458555D02*
X559450Y458567D01*
Y462422D01*
X559528Y462500D01*
X537874Y449063D02*
X538000Y448937D01*
X547700D02*
X547717Y448954D01*
X532046Y499746D02*
X532300Y500000D01*
X532046Y491712D02*
Y499746D01*
X531969Y491634D02*
X532046Y491712D01*
X547717Y505180D02*
X547900Y505363D01*
X547717Y491634D02*
Y505180D01*
X552800Y500800D02*
X553700Y499900D01*
Y491712D02*
Y499900D01*
X553622Y491634D02*
X553700Y491712D01*
X550500Y506000D02*
X551137Y505363D01*
X551400Y505100D01*
X551137Y505363D02*
X558937D01*
X538000Y448937D02*
X547700D01*
X537874Y449063D02*
Y462500D01*
X531969Y455132D02*
Y462500D01*
X547717Y448954D02*
Y462500D01*
X552700Y453200D02*
X553622Y454122D01*
Y462500D01*
X552837Y449100D02*
X553000Y448937D01*
X537800Y505363D02*
X547900D01*
X168000Y521000D02*
X174700Y514300D01*
X216900D01*
X191515Y588600D02*
X198115Y595200D01*
X224285D01*
X230885Y588600D01*
X462000Y328300D02*
X468900Y321400D01*
X462000Y328300D02*
Y379300D01*
X209995Y574995D02*
X214700Y579700D01*
X209995Y568000D02*
Y574995D01*
X87056Y423162D02*
Y425600D01*
X79894Y416000D02*
X87056Y423162D01*
D29*
X212554Y528146D02*
X213500Y527200D01*
X272300Y180647D02*
X275953D01*
X88198Y472998D02*
X89100Y473900D01*
X74500Y415489D02*
Y418556D01*
X352059Y269350D02*
X398450D01*
X350300D02*
X352059D01*
X350300Y269350D02*
X398450D01*
X399500Y268300D01*
X357382Y168618D02*
Y259685D01*
X329074Y431134D02*
Y436403D01*
X336644Y445738D02*
X337589Y444793D01*
X340885Y402144D02*
X340902Y402161D01*
X340885Y397077D02*
Y402144D01*
X466216Y567412D02*
X468200Y565428D01*
Y564600D02*
Y565428D01*
X400000Y545049D02*
X400300Y544749D01*
X344822Y401822D02*
Y407655D01*
X351083Y367819D02*
Y402178D01*
X382011Y397707D02*
Y402000D01*
X383980Y401982D02*
X384158Y402160D01*
X383980Y398143D02*
Y401982D01*
X387917Y396939D02*
Y402044D01*
X389885Y396503D02*
Y402044D01*
X443975Y307709D02*
X447866D01*
X385477Y351200D02*
X389389Y355111D01*
X347146Y430956D02*
Y464890D01*
X353052Y431000D02*
Y436430D01*
X259638Y358862D02*
Y369823D01*
X313953Y82622D02*
X342400D01*
X490600Y123400D02*
Y175718D01*
Y123400D02*
X491000Y123000D01*
Y176118D02*
Y221500D01*
X490600Y175718D02*
X491000Y176118D01*
X480100Y212400D02*
Y229000D01*
Y212400D02*
X483800Y208700D01*
Y228700D02*
X491000Y221500D01*
X476300Y232800D02*
X480100Y229000D01*
X431000Y232800D02*
X476300D01*
X340902Y402161D02*
X341241Y402500D01*
X282900Y114800D02*
X301085D01*
X282105Y115595D02*
X282900Y114800D01*
X276200Y112000D02*
Y119167D01*
X282105Y115595D02*
Y119167D01*
X284074Y154600D02*
X284900Y153774D01*
X290964Y139836D02*
X299636D01*
X269969Y126331D02*
X271631D01*
X265300Y131500D02*
Y142300D01*
X270700Y143600D02*
X273700Y146600D01*
X284900D01*
X259638Y358862D02*
X259863D01*
X255663Y357074D02*
X260400Y352337D01*
X255663Y357074D02*
Y358661D01*
X251662Y362662D02*
X255663Y358661D01*
X256600Y351377D02*
Y353627D01*
X253027Y357200D02*
X256600Y353627D01*
X254900Y348959D02*
Y352923D01*
X252323Y355500D02*
X254900Y352923D01*
X253200Y345427D02*
Y352218D01*
X251618Y353800D02*
X253200Y352218D01*
X244827Y353800D02*
X251618D01*
X260400Y349982D02*
Y352337D01*
Y349982D02*
X261982Y348400D01*
X291134Y360766D02*
X295800Y356100D01*
X291134Y360766D02*
Y369823D01*
X330500Y355700D02*
X330600D01*
X328535Y357665D02*
X330500Y355700D01*
X328535Y357665D02*
Y369823D01*
X86700Y554900D02*
X117500Y524100D01*
X422398Y534920D02*
Y545400D01*
Y534920D02*
X424000Y533318D01*
Y533000D02*
Y533318D01*
X427700Y532000D02*
Y533800D01*
X419249Y534251D02*
X420000Y533500D01*
X416000Y534500D02*
Y545301D01*
Y534500D02*
X416043Y534457D01*
X406650Y538850D02*
X408500Y537000D01*
X338847Y487666D02*
X372682Y521500D01*
X338847Y475153D02*
Y487666D01*
X377218Y529200D02*
X383597D01*
X376118Y530300D02*
X377218Y529200D01*
X373882Y530300D02*
X376118D01*
X372300Y528718D02*
X373882Y530300D01*
X372300Y526482D02*
Y528718D01*
Y526482D02*
X373882Y524900D01*
X375437D01*
X375897Y524440D01*
Y521500D02*
Y524440D01*
X383597Y529200D02*
X384197Y529800D01*
X388118D01*
X425548Y535952D02*
X427700Y533800D01*
X425548Y535952D02*
Y545400D01*
X407596Y523000D02*
X492500D01*
X408300Y521300D02*
X493204D01*
X492500Y523000D02*
X494400Y524900D01*
X493204Y521300D02*
X496100Y524196D01*
X408800Y518800D02*
X493108D01*
X409600Y517100D02*
X494100D01*
X410900Y515400D02*
X501112D01*
X411700Y513700D02*
X501817D01*
X412500Y512000D02*
X502521D01*
X493108Y518800D02*
X497800Y523492D01*
X494100Y517100D02*
X500500Y523500D01*
X501112Y515400D02*
X533600Y547888D01*
X501817Y513700D02*
X535300Y547183D01*
X502521Y512000D02*
X537000Y546479D01*
X460967Y554600D02*
X464667Y558300D01*
X456200Y554600D02*
X460967D01*
X464667Y558300D02*
X465133D01*
X400300Y538000D02*
Y544749D01*
X394700Y536382D02*
Y538618D01*
X394502Y536183D02*
X394700Y536382D01*
X388118Y529800D02*
X394502Y536183D01*
X469900Y559400D02*
X491500Y581000D01*
X469900Y553067D02*
Y559400D01*
X465133Y558300D02*
X484102Y577269D01*
X468772Y569200D02*
X480800Y581228D01*
X472500Y575333D02*
Y586133D01*
X468067Y570900D02*
X472500Y575333D01*
X470800Y576037D02*
Y586837D01*
X469363Y574600D02*
X470800Y576037D01*
X466200Y574600D02*
X469363D01*
X466557Y569200D02*
X468772D01*
X465853Y570900D02*
X468067D01*
X459553Y564600D02*
X465853Y570900D01*
X472500Y586133D02*
X474667Y588300D01*
X470800Y586837D02*
X473963Y590000D01*
X443500Y383044D02*
Y411181D01*
X441800Y383748D02*
Y410477D01*
X440100Y384453D02*
Y409773D01*
X438400Y385157D02*
Y409069D01*
X436700Y385861D02*
Y408365D01*
X435000Y386565D02*
Y407661D01*
X433300Y387269D02*
Y406957D01*
X431600Y387973D02*
Y406252D01*
X429900Y388813D02*
Y405548D01*
X428200Y390513D02*
Y404844D01*
X426238Y406806D02*
X428200Y404844D01*
X390229Y420406D02*
X431871D01*
X441800Y410477D01*
X389318Y421900D02*
X389525Y422106D01*
X387082Y421900D02*
X389318D01*
X440887Y382835D02*
X441800Y383748D01*
X440887Y371059D02*
Y382835D01*
X442587Y382131D02*
X443500Y383044D01*
X442587Y371763D02*
Y382131D01*
X437487Y384243D02*
X438400Y385157D01*
X437487Y369651D02*
Y384243D01*
X435787Y384947D02*
X436700Y385861D01*
X435787Y368721D02*
Y384947D01*
X434087Y385652D02*
X435000Y386565D01*
X434087Y360413D02*
Y385652D01*
X432387Y386356D02*
X433300Y387269D01*
X432387Y359709D02*
Y386356D01*
X395083Y411906D02*
X428350D01*
X433300Y406957D01*
X393675Y415306D02*
X429758D01*
X436700Y408365D01*
X392970Y417006D02*
X430463D01*
X438400Y409069D01*
X392266Y418706D02*
X431167D01*
X440100Y409773D01*
X428987Y357609D02*
Y387900D01*
X427287Y356905D02*
X438073Y346119D01*
X427287Y356905D02*
Y389600D01*
X428987Y357609D02*
X438508Y348087D01*
X448322D01*
X385673Y418500D02*
X390727D01*
X390927Y418700D01*
X392260D01*
X384969Y416800D02*
X391431D01*
X391631Y417000D01*
X392964D01*
X387100Y415100D02*
X392135D01*
X392335Y415300D01*
X393668D01*
X355477Y418700D02*
X385473D01*
X385673Y418500D01*
X356182Y417000D02*
X384769D01*
X384969Y416800D01*
X382011Y410011D02*
X387100Y415100D01*
X393668Y415300D02*
X393675Y415306D01*
X392964Y417000D02*
X392970Y417006D01*
X392260Y418700D02*
X392266Y418706D01*
X421559Y394299D02*
Y401866D01*
X421300Y394040D02*
X421559Y394299D01*
X421300Y390560D02*
Y394040D01*
X412200Y396918D02*
Y397669D01*
X411300Y396018D02*
X412200Y396918D01*
X411300Y393782D02*
Y396018D01*
Y393782D02*
X412800Y392282D01*
Y390023D02*
Y392282D01*
X410194Y397317D02*
Y397706D01*
X409600Y396723D02*
X410194Y397317D01*
X409600Y393077D02*
Y396723D01*
Y393077D02*
X411100Y391577D01*
Y389318D02*
Y391577D01*
X394247Y410000D02*
X394447Y410200D01*
X395781D01*
X395787Y410206D01*
X427646D01*
X394000Y406994D02*
X395506Y408500D01*
X396485D01*
X396491Y408506D01*
X426942D01*
X389525Y422106D02*
X432575D01*
X426942Y408506D02*
X429900Y405548D01*
X427646Y410206D02*
X431600Y406252D01*
X428987Y387900D02*
X429900Y388813D01*
X427287Y389600D02*
X428200Y390513D01*
X421300Y390560D02*
X422500Y389360D01*
Y377600D02*
Y389360D01*
X424754Y406806D02*
X426238D01*
X424748Y406800D02*
X424754Y406806D01*
X424276Y406800D02*
X424748D01*
X424269Y406806D02*
X424276Y406800D01*
X430687Y358813D02*
Y387060D01*
X411894Y397975D02*
Y401688D01*
Y397975D02*
X412200Y397669D01*
X412800Y390023D02*
X413300Y389523D01*
Y385877D02*
Y389523D01*
X413200Y385777D02*
X413300Y385877D01*
X413200Y374947D02*
Y385777D01*
X563642Y487743D02*
Y491456D01*
Y487743D02*
X564885Y486500D01*
X372682Y521500D02*
X375897D01*
X392065Y505000D02*
X395127D01*
X391361Y506700D02*
X394423D01*
X390657Y508400D02*
X393718D01*
X403000Y517682D01*
X394423Y506700D02*
X404700Y516977D01*
X395127Y505000D02*
X406400Y516273D01*
Y516400D02*
X408800Y518800D01*
X406400Y516273D02*
Y516400D01*
X404700Y517700D02*
X408300Y521300D01*
X404700Y516977D02*
Y517700D01*
X403000Y518404D02*
X407596Y523000D01*
X403000Y517682D02*
Y518404D01*
X284900Y146600D02*
Y153774D01*
X280500Y180000D02*
Y180647D01*
X274231Y173731D02*
X280500Y180000D01*
X274231Y154600D02*
Y173731D01*
X278400Y123789D02*
Y124400D01*
Y123789D02*
X279861Y122328D01*
Y119443D02*
Y122328D01*
Y119443D02*
X280137Y119167D01*
X252900Y234000D02*
X261182D01*
X252800Y234100D02*
X252900Y234000D01*
X250896Y234100D02*
X252800D01*
X243890Y241106D02*
X250896Y234100D01*
X243890Y241106D02*
Y249941D01*
X245858Y241542D02*
Y249941D01*
Y241542D02*
X251600Y235800D01*
X263200D01*
X268300Y230700D01*
X261182Y234000D02*
X267182Y228000D01*
X319200Y260600D02*
X320661Y259139D01*
Y249941D02*
Y259139D01*
X268700Y228000D02*
X272300Y224400D01*
X267182Y228000D02*
X268700D01*
X279446Y108754D02*
X336401D01*
X355840Y82622D02*
X391222D01*
X354718Y81500D02*
X355840Y82622D01*
X352482Y81500D02*
X354718D01*
X351360Y82622D02*
X352482Y81500D01*
X342400Y82622D02*
X351360D01*
X383616Y90116D02*
Y142384D01*
X391222Y82622D02*
X392600Y84000D01*
X264700Y181047D02*
X270294Y175453D01*
Y154600D02*
Y175453D01*
X257300Y181047D02*
X268326Y170021D01*
Y154600D02*
Y170021D01*
X336401Y108754D02*
X336447Y108800D01*
X276200Y112000D02*
X279446Y108754D01*
X342353Y82669D02*
Y108800D01*
Y82669D02*
X342400Y82622D01*
X342353Y108800D02*
X342453Y108900D01*
Y114200D01*
X471260Y297689D02*
X477000D01*
X471260Y301626D02*
X477000D01*
X471260Y305563D02*
X477000D01*
X439323Y303772D02*
X447688D01*
X438096Y305000D02*
X439323Y303772D01*
X441084Y310600D02*
X443975Y307709D01*
X256982Y389219D02*
X257100D01*
X352059Y293150D02*
X379350D01*
X616391Y197700D02*
X634400Y215709D01*
X611300Y197700D02*
X616391D01*
X625900Y382300D02*
Y473408D01*
X622012Y479700D02*
X627600Y474112D01*
Y344000D02*
Y474112D01*
X629300Y310609D02*
Y476817D01*
X631000Y287400D02*
Y477521D01*
X632700Y249100D02*
Y478225D01*
X634400Y215709D02*
Y478929D01*
X559170Y478000D02*
X621308D01*
X625900Y473408D01*
X611300Y367700D02*
X625900Y382300D01*
X504517Y347700D02*
X611300D01*
X512113Y337700D02*
X611300D01*
X529709Y317700D02*
X611300D01*
X482396Y367417D02*
X512113Y337700D01*
X313953Y77500D02*
Y82622D01*
Y83000D01*
X309956Y61200D02*
X313756Y65000D01*
X305600Y61200D02*
X309956D01*
X300100Y66700D02*
X305600Y61200D01*
X285800Y66700D02*
X300100D01*
X268000Y66500D02*
Y79500D01*
Y66500D02*
X270600Y63900D01*
X275400D01*
X281000Y69500D01*
X283000D01*
X285800Y66700D01*
Y53200D02*
Y66700D01*
X282105Y119167D02*
Y126295D01*
X282100Y126300D02*
X282105Y126295D01*
X272263Y154600D02*
Y180610D01*
X301800Y115515D02*
Y122600D01*
X88198Y466817D02*
Y472998D01*
X89100Y473300D02*
Y473900D01*
X86700Y455300D02*
X88500Y457100D01*
X77800Y455300D02*
X86700D01*
X66200Y455200D02*
X72200D01*
X65900Y454900D02*
X66200Y455200D01*
X68500Y462474D02*
X72843Y466817D01*
X47002Y439098D02*
Y444183D01*
Y439098D02*
X47400Y438700D01*
X43961D02*
X47400D01*
X21332Y461329D02*
X43961Y438700D01*
X21332Y461329D02*
Y462100D01*
X57100Y467156D02*
Y473600D01*
Y467156D02*
X57239Y467017D01*
X80520Y466817D02*
Y473680D01*
X49561Y467017D02*
Y477761D01*
X49900Y478100D01*
X7700Y445000D02*
X20014D01*
X26140Y438874D01*
X36700Y412700D02*
X45700Y403700D01*
X36700Y412700D02*
Y421744D01*
X45700Y403700D02*
X72500D01*
X19570Y438874D02*
X36700Y421744D01*
X44461Y433161D02*
X49561Y438261D01*
X44461Y416000D02*
Y433161D01*
X49561Y438261D02*
Y444183D01*
X62357D02*
X68500Y450326D01*
X85639Y466817D02*
Y473661D01*
X85400Y473900D02*
X85639Y473661D01*
X62357Y427632D02*
X73989Y416000D01*
X62357Y427632D02*
Y444183D01*
X477000Y303595D02*
X482740D01*
X481485Y307532D02*
X483054Y309100D01*
X483900D01*
X477000Y307532D02*
X481485D01*
X18660Y438874D02*
X19570D01*
X22400Y431000D02*
X23595Y429805D01*
Y408323D02*
Y429805D01*
X78400Y353200D02*
Y411589D01*
X91600Y96400D02*
X94600Y99400D01*
X337126Y431134D02*
X337304Y431312D01*
X333000Y444707D02*
Y471000D01*
X330800Y448796D02*
Y467174D01*
Y448796D02*
X331043Y448553D01*
Y443661D02*
Y448553D01*
X328144Y443167D02*
X329074Y444097D01*
X337147Y474449D02*
X337500Y474096D01*
X329844Y442463D02*
X331043Y443661D01*
X275189Y401866D02*
X275256Y401799D01*
X273221Y396798D02*
Y401866D01*
Y396798D02*
X273556Y396462D01*
X295249Y375668D02*
X297306Y377725D01*
X293280Y376104D02*
X295606Y378429D01*
Y393824D01*
X297306Y377725D02*
Y394528D01*
X288969Y394991D02*
Y401866D01*
X288506Y394528D02*
X288969Y394991D01*
X288506Y390883D02*
Y394528D01*
Y390883D02*
X288969Y390420D01*
X290937Y394555D02*
Y401866D01*
X290206Y393824D02*
X290937Y394555D01*
X290206Y391587D02*
Y393824D01*
Y391587D02*
X290937Y390856D01*
Y378359D02*
Y390856D01*
X296843Y394991D02*
Y401866D01*
Y394991D02*
X297306Y394528D01*
X294874Y394555D02*
Y401866D01*
Y394555D02*
X295606Y393824D01*
X95947Y218300D02*
Y225400D01*
X95847Y218200D02*
X95947Y218300D01*
X84300Y218700D02*
X84800Y218200D01*
X95847D01*
X93185Y290768D02*
Y293500D01*
Y290768D02*
X100553Y283400D01*
X480800Y581228D02*
Y586837D01*
X394052Y539266D02*
Y545400D01*
Y539266D02*
X394700Y538618D01*
X91600Y96400D02*
X94647Y93353D01*
Y91900D02*
Y93353D01*
X84100Y96400D02*
X91600D01*
X313756Y72000D02*
X313953Y72197D01*
Y77500D01*
X494400Y524900D02*
Y526027D01*
X497800Y524618D02*
X499382Y526200D01*
X497800Y523492D02*
Y524618D01*
X527000Y555616D02*
Y563500D01*
X510600Y569000D02*
X521500D01*
X527000Y563500D01*
X312453Y466143D02*
Y470453D01*
X403843Y431000D02*
X404000Y431158D01*
X390063Y401866D02*
Y406558D01*
X384158Y402322D02*
Y409753D01*
X387917Y402044D02*
Y406816D01*
X411717Y431000D02*
X411894Y431178D01*
X338847Y475153D02*
X343000Y471000D01*
X337147Y474449D02*
Y476853D01*
X333000Y481000D02*
X337147Y476853D01*
X323000Y481000D02*
X328847Y475153D01*
Y469127D02*
Y475153D01*
X519295Y474794D02*
X542515D01*
X519999Y476494D02*
X543219D01*
X551476Y468237D01*
X543923Y478194D02*
X554676Y467440D01*
X520703Y478194D02*
X543923D01*
X521408Y479894D02*
X544627D01*
X555381Y469140D01*
X545331Y481594D02*
X556085Y470840D01*
X522112Y481594D02*
X545331D01*
X522816Y483294D02*
X546035D01*
X556789Y472540D01*
X549863Y487307D02*
X559170Y478000D01*
X549863Y487307D02*
Y491456D01*
X555768Y487019D02*
X561388Y481400D01*
X555768Y487019D02*
Y491456D01*
X562092Y483100D02*
X625421D01*
X328847Y469127D02*
X330800Y467174D01*
X323000Y462500D02*
X329074Y456426D01*
X323000Y462500D02*
Y471000D01*
X331043Y431312D02*
X331221Y431134D01*
X329074D02*
X329252D01*
X317153Y463847D02*
Y472720D01*
X313000Y476873D02*
X317153Y472720D01*
X313000Y476873D02*
Y481000D01*
X352918Y431134D02*
X353052Y431000D01*
X352874Y431134D02*
X352918D01*
X516200Y574600D02*
X521708D01*
X346969Y431134D02*
X347146Y430956D01*
X382189Y431000D02*
X382367D01*
X384158D02*
X384335Y430822D01*
X516200Y584600D02*
X518921D01*
X261410Y401866D02*
X261428Y401847D01*
Y370001D02*
X261606Y369823D01*
X263378Y401866D02*
X263397Y401847D01*
Y370001D02*
Y401847D01*
Y370001D02*
X263575Y369823D01*
X265543D02*
X265721Y370001D01*
Y376975D01*
X267315Y378569D01*
X277532Y374797D02*
X283063Y380327D01*
X277532Y370001D02*
Y374797D01*
X277354Y369823D02*
X277532Y370001D01*
X283260Y369823D02*
X283438Y370001D01*
X285228Y369823D02*
X285406Y370001D01*
X285032Y377262D02*
Y401866D01*
X283438Y370001D02*
Y375668D01*
X285032Y377262D01*
X287375Y374797D02*
X290937Y378359D01*
X287375Y370001D02*
Y374797D01*
X287197Y369823D02*
X287375Y370001D01*
X293102Y369823D02*
X293280Y370001D01*
X295071Y369823D02*
X295249Y370001D01*
X297039Y369823D02*
X297217Y370001D01*
X293280D02*
Y376104D01*
X295249Y370001D02*
Y375668D01*
X299186Y374797D02*
X302748Y378359D01*
X299186Y370001D02*
Y374797D01*
X299008Y369823D02*
X299186Y370001D01*
X400000Y545049D02*
X400351Y545400D01*
X403501Y537499D02*
X404000Y537000D01*
X403501Y537499D02*
Y545400D01*
X406650Y538850D02*
Y545400D01*
X416000Y545301D02*
X416099Y545400D01*
X302748Y401866D02*
X302926D01*
X300780D02*
X300957D01*
X296843D02*
X297020D01*
X294874D02*
X295052D01*
X290937D02*
X291115D01*
X288969D02*
X289146Y402044D01*
X285032Y401866D02*
X285209Y402044D01*
X477634Y369563D02*
X477812Y369385D01*
X477634Y367595D02*
X477812Y367417D01*
X477634Y365626D02*
X477812Y365448D01*
X477634Y359721D02*
X477812Y359543D01*
X477634Y357752D02*
X477812Y357574D01*
X477634Y353815D02*
X477812Y353637D01*
Y365448D02*
X481961D01*
X477812Y367417D02*
X482396D01*
X477812Y369385D02*
X482832D01*
X477812Y357574D02*
X481525D01*
X477812Y359543D02*
X481961D01*
X561399Y277700D02*
X611300D01*
X553803Y287700D02*
X611300D01*
X477634Y347910D02*
X477812Y347732D01*
Y353637D02*
X481961D01*
X587898Y247700D02*
X611300D01*
X595494Y237700D02*
X611300D01*
X607843Y217700D02*
X611300D01*
X477634Y345941D02*
X477812Y345763D01*
X588500Y230500D02*
Y238788D01*
Y230500D02*
X611300Y207700D01*
X590200Y235343D02*
Y239492D01*
Y235343D02*
X607843Y217700D01*
X471260Y285878D02*
X477000D01*
X471260Y289815D02*
X477000D01*
Y291784D02*
X482740D01*
X352059Y322677D02*
X352237Y322855D01*
X352059Y324646D02*
X352237Y324824D01*
X352059Y338425D02*
X352237Y338603D01*
X352059Y344331D02*
X352237Y344509D01*
X389885Y402044D02*
X390063Y401866D01*
X352059Y346299D02*
X352237Y346477D01*
X352059Y348268D02*
X352237Y348446D01*
X384158Y402322D02*
X384335Y402500D01*
X352059Y350236D02*
X352237Y350414D01*
X346969Y365169D02*
X352059Y360079D01*
Y358110D02*
X352237Y358288D01*
X350906Y402000D02*
X351083Y402178D01*
X352059Y356142D02*
X352237Y356320D01*
X341241Y402178D02*
Y402500D01*
X341063Y402000D02*
X341241Y402178D01*
X343032Y396819D02*
Y402000D01*
X324598Y369823D02*
Y378386D01*
X343032Y396819D01*
X334980Y401822D02*
X335158Y402000D01*
X447688Y297867D02*
X447866Y297689D01*
X447688Y303772D02*
X447866Y303595D01*
X448322Y346119D02*
X448500Y345941D01*
X448322Y348087D02*
X448500Y347910D01*
X448322Y353993D02*
X448500Y353815D01*
X387917Y402044D02*
X388095Y401866D01*
X437654Y351847D02*
X448500D01*
X438103Y353993D02*
X448322D01*
Y359898D02*
X448500Y359721D01*
X382011Y402000D02*
X382145Y401866D01*
X382189D01*
X444609Y359898D02*
X448322D01*
Y363835D02*
X448500Y363658D01*
X448322Y365804D02*
X448500Y365626D01*
X448322Y367772D02*
X448500Y367595D01*
X436748Y357752D02*
X448500D01*
X443302Y363835D02*
X448322D01*
X435787Y368721D02*
X444609Y359898D01*
X437487Y369651D02*
X443302Y363835D01*
X439187Y370355D02*
X443737Y365804D01*
X448322D01*
X440887Y371059D02*
X444173Y367772D01*
X448322D01*
Y369741D02*
X448500Y369563D01*
X444609Y369741D02*
X448322D01*
X442587Y371763D02*
X444609Y369741D01*
X382011Y402000D02*
Y410011D01*
X344822Y401822D02*
X345000Y402000D01*
X563465Y491634D02*
X563642D01*
X555591D02*
X555768Y491456D01*
X611300Y297700D02*
X616391D01*
X549685Y491634D02*
X549863Y491456D01*
X543780Y491634D02*
X543957Y491456D01*
X561496Y491634D02*
X561674Y491456D01*
X563465Y491634D02*
X563642Y491456D01*
X611300Y417700D02*
X622500Y428900D01*
Y471400D01*
X619300Y474600D02*
X622500Y471400D01*
X620004Y476300D02*
X624200Y472104D01*
X626829Y486500D02*
X634400Y478929D01*
X611300Y227700D02*
X632700Y249100D01*
X626125Y484800D02*
X632700Y478225D01*
X611300Y267700D02*
X631000Y287400D01*
X625421Y483100D02*
X631000Y477521D01*
X616391Y297700D02*
X629300Y310609D01*
X624717Y481400D02*
X629300Y476817D01*
X611300Y327700D02*
X627600Y344000D01*
X611300Y397700D02*
X624200Y410600D01*
Y472104D01*
X563287Y462678D02*
X563465Y462500D01*
X551476Y462678D02*
X551654Y462500D01*
X563287Y462678D02*
Y467805D01*
X558552Y472540D02*
X563287Y467805D01*
X564885Y486500D02*
X626829D01*
X561674Y488078D02*
Y491456D01*
X561300Y487704D02*
X561674Y488078D01*
X543957Y487307D02*
Y491456D01*
X561300Y487138D02*
Y487704D01*
Y487138D02*
X563638Y484800D01*
X626125D01*
X557559Y462500D02*
Y467628D01*
X556046Y469140D02*
X557559Y467628D01*
X561388Y481400D02*
X624717D01*
X559874Y479700D02*
X622012D01*
X557837Y476300D02*
X620004D01*
X546975Y486694D02*
X547444D01*
X557837Y476300D01*
X546271Y484994D02*
X546740D01*
X543957Y487307D02*
X546271Y484994D01*
X518591Y473094D02*
X541811D01*
X557133Y474600D02*
X619300D01*
X546740Y484994D02*
X557133Y474600D01*
X556789Y472540D02*
X558552D01*
X556085Y470840D02*
X557848D01*
X555381Y469140D02*
X556046D01*
X554676Y467440D02*
X555342D01*
X551476Y462678D02*
Y468237D01*
X541811Y473094D02*
X545748Y469156D01*
Y462500D02*
Y469156D01*
X517887Y471394D02*
X541106D01*
X543780Y468721D01*
Y462500D02*
Y468721D01*
X484102Y577269D02*
Y581465D01*
X482500Y583067D02*
X484102Y581465D01*
X526129Y610200D02*
X550600Y585729D01*
X521904Y600000D02*
X540400Y581504D01*
X521200Y598300D02*
X538700Y580800D01*
X395969Y431000D02*
X396000Y431032D01*
X491500Y587500D02*
X494900Y590900D01*
X497733D01*
X488437Y589200D02*
X491600Y592363D01*
X497733Y590900D02*
X499900Y593067D01*
Y595900D01*
X502300Y598300D01*
X521200D01*
X491600Y592363D02*
Y595233D01*
X496367Y600000D01*
X521904D01*
X487733Y590900D02*
X489900Y593067D01*
Y595937D01*
X495663Y601700D01*
X491500Y581000D02*
Y587500D01*
X482500Y583067D02*
Y586133D01*
X485567Y589200D01*
X488437D01*
X480800Y586837D02*
X484863Y590900D01*
X487733D01*
X477537Y588300D02*
X481657Y592420D01*
X473963Y590000D02*
X476833D01*
X479900Y593067D01*
X479355Y610200D02*
X526129D01*
X486792Y605100D02*
X524017D01*
X481657Y592420D02*
Y597561D01*
X487496Y603400D01*
X523312D01*
X479900Y593067D02*
Y598208D01*
X486792Y605100D01*
X483167Y606800D02*
X524721D01*
X482463Y608500D02*
X525425D01*
X415654Y402322D02*
X415831Y402500D01*
X399906Y403322D02*
X400083Y403500D01*
X394000Y401866D02*
Y406994D01*
X395969Y401866D02*
Y406558D01*
X361163Y422100D02*
X361169Y422106D01*
X361867Y420400D02*
X361873Y420406D01*
X395969Y406558D02*
X396210Y406800D01*
X410968D02*
X410975Y406806D01*
X412458D01*
X412465Y406800D01*
X403094D02*
X403101Y406806D01*
X404584D01*
X404591Y406800D01*
X412465D02*
X412937D01*
X412943Y406806D01*
X409000Y406800D02*
X409006Y406806D01*
X410490D01*
X410496Y406800D01*
X410968D01*
X407031D02*
X407038Y406806D01*
X408521D01*
X408528Y406800D01*
X409000D01*
X404591D02*
X405063D01*
X405069Y406806D01*
X406553D01*
X406559Y406800D01*
X407031D01*
X401126D02*
X401132Y406806D01*
X402616D01*
X402622Y406800D01*
X403094D01*
X399157D02*
X399164Y406806D01*
X400647D01*
X400654Y406800D01*
X401126D01*
X396210D02*
X397189D01*
X397195Y406806D01*
X398679D01*
X398685Y406800D01*
X399157D01*
X386171Y420406D02*
X386377Y420200D01*
X390023D01*
X394000Y396618D02*
Y401866D01*
X395969Y397054D02*
Y401866D01*
Y397054D02*
X396400Y396623D01*
X384335Y402338D02*
Y402500D01*
X384158Y401866D02*
Y402160D01*
Y402322D01*
Y402160D02*
X384335Y402338D01*
X383980Y398143D02*
X384200Y397923D01*
X387600Y392977D02*
Y396623D01*
X387917Y396939D01*
X389300Y393682D02*
X389900Y393082D01*
X389300Y393682D02*
Y395918D01*
X389885Y396503D01*
X387600Y392977D02*
X388200Y392377D01*
X409748Y401866D02*
X409926Y401688D01*
X411717Y401866D02*
X411894Y401688D01*
X382011Y397707D02*
X382500Y397218D01*
X384200Y393718D02*
Y397923D01*
X381100Y389377D02*
X382011Y388466D01*
X381100Y389377D02*
Y393023D01*
X382500Y394423D01*
Y397218D01*
X382800Y390082D02*
X384335Y388546D01*
X382800Y390082D02*
Y392318D01*
X384200Y393718D01*
X394000Y396618D02*
X394700Y395918D01*
X434087Y360413D02*
X436748Y357752D01*
X432387Y359709D02*
X438103Y353993D01*
X430687Y358813D02*
X437654Y351847D01*
X418370Y406800D02*
X418842D01*
X418364Y406806D02*
X418370Y406800D01*
X416880Y406806D02*
X418364D01*
X416874Y406800D02*
X416880Y406806D01*
X416402Y406800D02*
X416874D01*
X416395Y406806D02*
X416402Y406800D01*
X414912Y406806D02*
X416395D01*
X414905Y406800D02*
X414912Y406806D01*
X414433Y406800D02*
X414905D01*
X414427Y406806D02*
X414433Y406800D01*
X412943Y406806D02*
X414427D01*
X352237Y350414D02*
X357033D01*
X358082Y351463D01*
X352237Y344509D02*
X358340D01*
X352059Y334488D02*
X352237Y334666D01*
X359782Y338948D02*
Y339009D01*
X352237Y358288D02*
X357033D01*
X358082Y359337D01*
Y360820D01*
X351083Y367819D02*
X358082Y360820D01*
X409926Y397975D02*
X410194Y397706D01*
X409926Y397975D02*
Y401688D01*
X358082Y339652D02*
Y339713D01*
X352237Y338603D02*
X357033D01*
X358082Y339652D01*
Y337248D02*
X359782Y338948D01*
X352237Y334666D02*
X357033D01*
X358082Y335715D01*
Y337248D01*
X352237Y322855D02*
X359647D01*
X352237Y324824D02*
X359211D01*
X411500Y386482D02*
X411600Y386582D01*
Y388818D01*
X411100Y389318D02*
X411600Y388818D01*
X432575Y422106D02*
X443500Y411181D01*
X390023Y420200D02*
X390229Y420406D01*
X394372Y413600D02*
X394379Y413606D01*
X429054D02*
X435000Y407661D01*
X395077Y411900D02*
X395083Y411906D01*
X418842Y406800D02*
X418849Y406806D01*
X394379Y413606D02*
X429054D01*
X422786Y406806D02*
X424269D01*
X422779Y406800D02*
X422786Y406806D01*
X422307Y406800D02*
X422779D01*
X422301Y406806D02*
X422307Y406800D01*
X420817Y406806D02*
X422301D01*
X420811Y406800D02*
X420817Y406806D01*
X420339Y406800D02*
X420811D01*
X420332Y406806D02*
X420339Y406800D01*
X418849Y406806D02*
X420332D01*
X439187Y370355D02*
Y383539D01*
X440100Y384453D01*
X430687Y387060D02*
X431600Y387973D01*
X359211Y324824D02*
X375900Y341513D01*
Y343037D01*
X352059Y316772D02*
X365190D01*
X443931Y286056D02*
Y286100D01*
X447688Y286056D02*
X447866Y285878D01*
X447846Y295700D02*
X447866Y295721D01*
X434033Y297867D02*
X447688D01*
X447866Y307532D02*
Y307709D01*
X436000Y311000D02*
X436400Y310600D01*
X441084D01*
X384063Y351200D02*
X385477D01*
X385182Y348500D02*
X388982Y352300D01*
X389500Y355000D02*
X391000Y356500D01*
Y356723D01*
X387200Y379731D02*
X388200Y380731D01*
Y392377D01*
X388900Y379027D02*
X389900Y380027D01*
Y393082D01*
X390600Y378323D02*
X394700Y382423D01*
Y395918D01*
X392300Y376063D02*
Y377618D01*
X396400Y381718D01*
Y396623D01*
X388982Y352300D02*
X390618D01*
X392200Y353882D01*
Y353947D01*
X396900Y348482D02*
Y352000D01*
X358082Y351463D02*
Y353865D01*
X388300Y372063D02*
Y373140D01*
X390760Y375600D01*
X391837D01*
X392300Y376063D01*
X386600Y372767D02*
Y373844D01*
X384900Y374548D02*
X388900Y378548D01*
Y379027D01*
X383200Y375252D02*
X387200Y379252D01*
Y379731D01*
X381500Y375956D02*
X384335Y378792D01*
Y388546D01*
X358082Y353865D02*
X379800Y375584D01*
Y376660D01*
X382011Y378872D01*
Y388466D01*
X390600Y377844D02*
Y378323D01*
X386600Y373844D02*
X390600Y377844D01*
X411500Y377223D02*
Y386482D01*
X396900Y352000D02*
X422500Y377600D01*
X392200Y353947D02*
X413200Y374947D01*
X391000Y356723D02*
X411500Y377223D01*
X334789Y435216D02*
X334980Y435025D01*
Y431312D02*
X335158Y431134D01*
X334980Y431312D02*
Y435025D01*
X323347Y431134D02*
Y436672D01*
X324078Y437404D01*
X352143Y437339D02*
X353052Y436430D01*
X350443Y465782D02*
X391361Y506700D01*
X331043Y431312D02*
Y436839D01*
X329844Y438037D02*
X331043Y436839D01*
X337304Y435025D02*
X337589Y435310D01*
X329844Y438037D02*
Y442463D01*
X350906Y402000D02*
Y407787D01*
X352874Y402000D02*
Y407351D01*
X350906Y407787D02*
X351700Y408582D01*
X352874Y407351D02*
X353400Y407877D01*
X344600D02*
X344822Y407655D01*
X346969Y402000D02*
Y407913D01*
X346300Y408582D02*
X346969Y407913D01*
X322630Y378822D02*
X340885Y397077D01*
X477634Y363658D02*
X481347D01*
X477634Y351847D02*
X481347D01*
X419249Y534251D02*
Y545400D01*
X466216Y568859D02*
X466557Y569200D01*
X466216Y567412D02*
Y568859D01*
X506467Y482813D02*
X517887Y471394D01*
X508167Y483518D02*
X518591Y473094D01*
X509867Y512134D02*
X542100Y544367D01*
X509867Y484222D02*
X519295Y474794D01*
X511567Y484926D02*
X519999Y476494D01*
X513267Y485630D02*
X520703Y478194D01*
X514967Y486334D02*
X521408Y479894D01*
X516667Y487038D02*
X522112Y481594D01*
X518367Y508613D02*
X550600Y540846D01*
X518367Y487743D02*
X522816Y483294D01*
X557559Y487633D02*
Y491634D01*
Y487633D02*
X562092Y483100D01*
X545748Y487920D02*
Y491634D01*
Y487920D02*
X546975Y486694D01*
X561496Y462500D02*
Y467192D01*
X557848Y470840D02*
X561496Y467192D01*
X549685Y462500D02*
Y467623D01*
X542515Y474794D02*
X549685Y467623D01*
X551654Y487920D02*
Y491634D01*
Y487920D02*
X559874Y479700D01*
X555591Y462500D02*
Y467192D01*
X555342Y467440D02*
X555591Y467192D01*
X537305Y307700D02*
X611300D01*
X477812Y345763D02*
X481525D01*
X588500Y238788D01*
X477812Y347732D02*
X481961D01*
X590200Y239492D01*
X481347Y351847D02*
X595494Y237700D01*
X481961Y353637D02*
X587898Y247700D01*
X481525Y357574D02*
X561399Y277700D01*
X481961Y359543D02*
X553803Y287700D01*
X481347Y363658D02*
X537305Y307700D01*
X481961Y365448D02*
X529709Y317700D01*
X482832Y369385D02*
X504517Y347700D01*
X272263Y180610D02*
X272300Y180647D01*
X266357Y154600D02*
Y164990D01*
X301085Y114800D02*
X301800Y115515D01*
X275900Y180594D02*
X275953Y180647D01*
X275900Y180500D02*
Y180594D01*
X264700Y181047D02*
X267653Y184000D01*
X268100D01*
X250100Y181247D02*
X266357Y164990D01*
X477000Y295721D02*
X482740D01*
X477000Y283910D02*
X482740D01*
X297039Y249941D02*
Y273634D01*
X296174Y274500D02*
X297039Y273634D01*
X292474Y274382D02*
Y274500D01*
X295071Y249941D02*
Y271784D01*
X292474Y274382D02*
X295071Y271784D01*
X299008Y249941D02*
Y273634D01*
X299874Y274500D01*
X300976Y249941D02*
Y271784D01*
X303574Y274382D01*
X254900Y348959D02*
X266330Y337530D01*
X246430Y357430D02*
X248359Y355500D01*
X243813Y354813D02*
X244827Y353800D01*
X251892Y357200D02*
X253027D01*
X249046Y360046D02*
X251892Y357200D01*
X248359Y355500D02*
X252323D01*
X262392Y346700D02*
X268946Y340146D01*
X261277Y346700D02*
X262392D01*
X265925Y348400D02*
X271562Y342762D01*
X256600Y351377D02*
X261277Y346700D01*
X213200Y526900D02*
X213500Y527200D01*
X209995Y544575D02*
X210100Y544470D01*
X209500Y527200D02*
X210100Y527800D01*
X392600Y84000D02*
X411600D01*
X426400Y98800D01*
Y101000D01*
X334980Y398109D02*
Y401822D01*
X323347Y397760D02*
Y402000D01*
X325315Y397324D02*
Y402000D01*
X329252Y397760D02*
Y402000D01*
X331221Y397324D02*
Y402000D01*
X261428Y370001D02*
Y401847D01*
X252287Y380706D02*
X257100Y385519D01*
X255567Y381582D02*
X257100D01*
X252991Y379006D02*
X255567Y381582D01*
X241936Y379006D02*
X252991D01*
X239699Y376769D02*
X241936Y379006D01*
X240134Y374800D02*
X242640Y377306D01*
X256524D02*
X257100Y377882D01*
X242640Y377306D02*
X256524D01*
X254400Y386519D02*
Y386637D01*
X250556Y382674D02*
X254400Y386519D01*
Y386637D02*
X256982Y389219D01*
X352874Y368432D02*
X359782Y361525D01*
X352874Y368432D02*
Y402000D01*
X342315Y369823D02*
X344822Y372330D01*
Y401822D01*
X346969Y365169D02*
Y402000D01*
X344094Y340394D02*
X352059D01*
X221244Y269528D02*
X232177D01*
X222059Y267559D02*
X232177D01*
X146802Y241135D02*
X149631D01*
X146719Y241219D02*
X146802Y241135D01*
X219613Y273465D02*
X232177D01*
X154567Y249067D02*
X159272Y244363D01*
X149631Y241135D02*
X152308Y238457D01*
X149335Y243835D02*
X152744Y240426D01*
X159272Y244363D02*
X162612D01*
X165475Y241500D01*
X152744Y240426D02*
X162023D01*
X164149Y238300D01*
X152308Y238457D02*
X161587D01*
X163445Y236600D01*
X159884Y251616D02*
X166800Y244700D01*
X159800Y254300D02*
X159884Y254216D01*
Y251616D02*
Y254216D01*
X217982Y277402D02*
X232177D01*
X230464Y382674D02*
X250556D01*
X230900Y380706D02*
X252287D01*
X230464Y376769D02*
X239699D01*
X230196Y376500D02*
X230464Y376769D01*
X228394Y378200D02*
X230900Y380706D01*
X227690Y379900D02*
X230464Y382674D01*
X223371Y338425D02*
X232177D01*
X223102Y338694D02*
X223371Y338425D01*
X221402Y334488D02*
X232177D01*
X221838Y336457D02*
X232177D01*
X220596Y335294D02*
X221402Y334488D01*
X221301Y336994D02*
X221838Y336457D01*
X219888Y379900D02*
X227690D01*
X220592Y378200D02*
X228394D01*
X221296Y376500D02*
X230196D01*
X222000Y374800D02*
X240134D01*
X198575Y343744D02*
Y358588D01*
Y343744D02*
X207026Y335294D01*
X200275Y344448D02*
Y357883D01*
Y344448D02*
X207730Y336994D01*
X201975Y345153D02*
X208434Y338694D01*
X201975Y345153D02*
Y357179D01*
X203675Y345857D02*
X209138Y340394D01*
X203675Y345857D02*
Y356475D01*
X209138Y340394D02*
X232177D01*
X203675Y356475D02*
X222000Y374800D01*
X208434Y338694D02*
X223102D01*
X201975Y357179D02*
X221296Y376500D01*
X200275Y357883D02*
X220592Y378200D01*
X207730Y336994D02*
X221301D01*
X198575Y358588D02*
X219888Y379900D01*
X207026Y335294D02*
X220596D01*
X518367Y487743D02*
Y508613D01*
X516667Y487038D02*
Y509317D01*
X514967Y486334D02*
Y510021D01*
X513267Y485630D02*
Y510725D01*
X511567Y484926D02*
Y511430D01*
X509867Y484222D02*
Y512134D01*
X351500Y414723D02*
X355477Y418700D01*
X324078Y437404D02*
Y454518D01*
X312453Y466143D02*
X324078Y454518D01*
X329074Y444097D02*
Y456426D01*
X336644Y445738D02*
Y447974D01*
X337500Y448830D01*
Y474096D01*
X346300Y412300D02*
X354400Y420400D01*
X361867D01*
X344600Y415100D02*
X351600Y422100D01*
X361163D01*
X390063Y406558D02*
X393505Y410000D01*
X394247D01*
X387917Y406816D02*
X392801Y411700D01*
X393543D01*
X393743Y411900D01*
X395077D01*
X392839Y413400D02*
X393039Y413600D01*
X394372D01*
X384158Y409753D02*
X387804Y413400D01*
X392839D01*
X361169Y422106D02*
X386875D01*
X387082Y421900D01*
X361873Y420406D02*
X386171D01*
X341063Y469063D02*
X343000Y471000D01*
X328144Y437333D02*
X329074Y436403D01*
X328144Y437333D02*
Y443167D01*
X334789Y435216D02*
Y436293D01*
X335889Y437393D01*
Y441818D01*
X333000Y444707D02*
X335889Y441818D01*
X337589Y435310D02*
Y444793D01*
X337304Y431312D02*
Y435025D01*
X341063Y431134D02*
Y444757D01*
X342044Y445738D01*
Y447974D01*
X341063Y448955D02*
X342044Y447974D01*
X341063Y448955D02*
Y469063D01*
X343032Y431134D02*
Y444321D01*
X343744Y445033D01*
Y448679D01*
X343032Y449391D02*
X343744Y448679D01*
X343032Y449391D02*
Y463179D01*
X347146Y464890D02*
X390657Y508400D01*
X350906Y431134D02*
Y436172D01*
X350443Y436635D02*
X350906Y436172D01*
X350443Y436635D02*
Y465782D01*
X343032Y463179D02*
X347153Y467300D01*
Y476847D01*
X343000Y481000D02*
X347153Y476847D01*
X352143Y437339D02*
Y465078D01*
X392065Y505000D01*
X344600Y407877D02*
Y415100D01*
X346300Y408582D02*
Y412300D01*
X351700Y408582D02*
Y410818D01*
X351500Y411018D02*
X351700Y410818D01*
X351500Y411018D02*
Y414723D01*
X353400Y407877D02*
Y411523D01*
X353200Y411723D02*
X353400Y411523D01*
X353200Y411723D02*
Y414018D01*
X356182Y417000D01*
X512900Y554600D02*
Y555254D01*
Y554600D02*
X516200D01*
X466200Y544600D02*
Y549367D01*
X469900Y553067D01*
X506200Y564600D02*
X510600Y569000D01*
X502500Y563067D02*
X504667Y560900D01*
X507254D01*
X512900Y555254D01*
X522608Y601700D02*
X542100Y582208D01*
X495663Y601700D02*
X522608D01*
X550600Y540846D02*
Y585729D01*
X548900Y541550D02*
Y585025D01*
X525425Y608500D02*
X548900Y585025D01*
X547200Y542254D02*
Y584321D01*
X524721Y606800D02*
X547200Y584321D01*
X545500Y542958D02*
Y583617D01*
X524017Y605100D02*
X545500Y583617D01*
X543800Y543663D02*
Y582912D01*
X523312Y603400D02*
X543800Y582912D01*
X542100Y544367D02*
Y582208D01*
X518921Y584600D02*
X537000Y566521D01*
X521708Y574600D02*
X531900Y564408D01*
X522204Y570700D02*
X528700Y564204D01*
X509654Y570700D02*
X522204D01*
X507254Y568300D02*
X509654Y570700D01*
X504667Y568300D02*
X507254D01*
X502500Y566133D02*
X504667Y568300D01*
X502500Y563067D02*
Y566133D01*
X533600Y547888D02*
Y565112D01*
X519712Y579000D02*
X533600Y565112D01*
X505367Y579000D02*
X519712D01*
X497800Y571433D02*
X505367Y579000D01*
X520417Y580700D02*
X535300Y565817D01*
X504204Y580700D02*
X520417D01*
X496100Y572596D02*
X504204Y580700D01*
X516667Y509317D02*
X548900Y541550D01*
X514967Y510021D02*
X547200Y542254D01*
X513267Y510725D02*
X545500Y542958D01*
X511567Y511430D02*
X543800Y543663D01*
X496100Y524196D02*
Y525323D01*
X498677Y527900D01*
X494400Y526027D02*
X497973Y529600D01*
X500984D01*
X498677Y527900D02*
X508804D01*
X528700Y547796D02*
Y564204D01*
X499382Y526200D02*
X509508D01*
X531900Y548592D02*
Y564408D01*
X535300Y547183D02*
Y565817D01*
X537000Y546479D02*
Y566521D01*
X538700Y545775D02*
Y580800D01*
X506467Y482813D02*
Y513542D01*
X508167Y483518D02*
Y512838D01*
X540400Y545071D02*
Y581504D01*
X508167Y512838D02*
X540400Y545071D01*
X506467Y513542D02*
X538700Y545775D01*
X509508Y526200D02*
X531900Y548592D01*
X508804Y527900D02*
X528700Y547796D01*
X500984Y529600D02*
X527000Y555616D01*
X497800Y561121D02*
X500000Y558921D01*
Y550800D02*
Y558921D01*
Y550800D02*
X506200Y544600D01*
X497800Y561121D02*
Y571433D01*
X496100Y554700D02*
Y572596D01*
X466200Y584600D02*
Y586963D01*
X456200Y564600D02*
X459553D01*
X471600Y595233D02*
X483167Y606800D01*
X466200Y597045D02*
X479355Y610200D01*
X466200Y594600D02*
Y597045D01*
X469900Y595937D02*
X482463Y608500D01*
X469900Y593067D02*
Y595937D01*
X465133Y588300D02*
X469900Y593067D01*
X464667Y588300D02*
X465133D01*
X460967Y584600D02*
X464667Y588300D01*
X456200Y584600D02*
X460967D01*
X471600Y592363D02*
Y595233D01*
X466200Y586963D02*
X471600Y592363D01*
X474667Y588300D02*
X477537D01*
X466200Y564600D02*
X468200D01*
X318693Y381822D02*
X334980Y398109D01*
X285406Y370001D02*
Y375232D01*
X297217Y370001D02*
Y375232D01*
X300780Y378795D01*
X283063Y380327D02*
Y401866D01*
X285406Y375232D02*
X288969Y378795D01*
Y390420D01*
X300780Y378795D02*
Y401866D01*
X302748Y378359D02*
Y401866D01*
X309600Y377763D02*
X311659D01*
X309600Y389100D02*
X314687D01*
X323347Y397760D01*
X309600Y385400D02*
X313391D01*
X325315Y397324D01*
X322630Y369823D02*
Y378822D01*
X320661Y379257D02*
X337126Y395722D01*
Y402000D01*
X320661Y369823D02*
Y379257D01*
X318693Y369823D02*
Y381822D01*
X311659Y377763D02*
X312000Y378104D01*
Y379018D01*
X313582Y380600D01*
X314496D01*
X331221Y397324D01*
X309600Y381463D02*
X312040D01*
X312877Y382300D01*
X313792D01*
X329252Y397760D01*
X164149Y238300D02*
X187931D01*
X163445Y236600D02*
X188636D01*
X190493Y238457D01*
X165475Y241500D02*
X186606D01*
X187931Y238300D02*
X190057Y240426D01*
X166800Y244700D02*
X185280D01*
X186606Y241500D02*
X189469Y244363D01*
X190057Y240426D02*
X192142D01*
X190493Y238457D02*
X192957D01*
X185280Y244700D02*
X217982Y277402D01*
X189469Y244363D02*
X190511D01*
X219613Y273465D01*
X192142Y240426D02*
X221244Y269528D01*
X192957Y238457D02*
X222059Y267559D01*
X266456Y397167D02*
X267315Y398026D01*
Y401866D01*
X266456Y393522D02*
Y397167D01*
Y393522D02*
X267315Y392662D01*
X269480Y369823D02*
X269658Y370001D01*
X267315Y378569D02*
Y392662D01*
X269658Y370001D02*
Y374146D01*
X275625Y375294D02*
X281095Y380763D01*
Y401866D01*
X273925Y375998D02*
X279126Y381199D01*
Y401866D01*
X270525Y377406D02*
X273556Y380437D01*
Y396462D01*
X275564Y374797D02*
X275625Y374858D01*
Y375294D01*
X273925Y375562D02*
Y375998D01*
X272225Y376266D02*
Y376702D01*
X270525Y376970D02*
Y377406D01*
X275256Y397167D02*
X275463Y396960D01*
X275256Y397167D02*
Y401799D01*
X272225Y376702D02*
X275463Y379940D01*
Y396960D01*
X269658Y374146D02*
Y376104D01*
X270525Y376970D01*
X275564Y370001D02*
Y374797D01*
X271627Y370001D02*
Y375668D01*
X272225Y376266D01*
X273595Y370001D02*
Y375232D01*
X273925Y375562D01*
X275386Y369823D02*
X275564Y370001D01*
X273417Y369823D02*
X273595Y370001D01*
X271449Y369823D02*
X271627Y370001D01*
X438073Y346119D02*
X448322D01*
X443931Y286056D02*
X447688D01*
X303574Y274382D02*
Y274500D01*
X436000Y311000D02*
Y312000D01*
X380972Y332891D02*
X381309D01*
X436500Y305000D02*
X438096D01*
X433500Y298400D02*
X434033Y297867D01*
X430800Y295700D02*
X447846D01*
X430780Y295721D02*
X430800Y295700D01*
X325315Y431134D02*
Y436236D01*
X325778Y436699D01*
Y455222D01*
X317153Y463847D02*
X325778Y455222D01*
X275208Y249763D02*
X275386Y249941D01*
X429200Y243300D02*
X433800Y238700D01*
X341200Y300900D02*
X344600Y297500D01*
X328900Y300900D02*
X341200D01*
X253200Y345427D02*
X263713Y334913D01*
X261982Y348400D02*
X265925D01*
X278100Y329500D02*
X306700Y300900D01*
X247600Y329500D02*
X278100D01*
X239200Y331900D02*
X243100Y335800D01*
X239200Y331300D02*
Y331900D01*
X225100Y314137D02*
Y325200D01*
Y314137D02*
X226225Y313013D01*
X231999D01*
X232177Y312835D01*
X379350Y293150D02*
X423800Y248700D01*
X381309Y332891D02*
X396900Y348482D01*
X352237Y356320D02*
X357468D01*
X359782Y358633D01*
Y361525D01*
X381500Y374879D02*
Y375956D01*
X383200Y374175D02*
Y375252D01*
X384900Y373471D02*
Y374548D01*
X366582Y350345D02*
X388300Y372063D01*
X375900Y343037D02*
X384063Y351200D01*
X364882Y351049D02*
X386600Y372767D01*
X352237Y348446D02*
X357468D01*
X359782Y350759D01*
Y353161D01*
X381500Y374879D01*
X352237Y346477D02*
X357904D01*
X361482Y350055D01*
Y352457D01*
X383200Y374175D01*
X358340Y344509D02*
X363182Y349351D01*
Y351753D01*
X384900Y373471D01*
X358082Y339713D02*
X364882Y346513D01*
Y351049D01*
X359782Y339009D02*
X366582Y345809D01*
Y350345D01*
X359647Y322855D02*
X377600Y340808D01*
Y340918D01*
X385182Y348500D01*
X365190Y316772D02*
X377200Y328782D01*
Y329118D01*
X380972Y332891D01*
X427400Y286100D02*
X443931D01*
X439400Y268300D02*
X447800Y259900D01*
X350300Y269350D02*
X350478Y269528D01*
X352059D01*
X418300Y268300D02*
X439400D01*
X405000Y243300D02*
X429200D01*
X275208Y241492D02*
Y249763D01*
Y241492D02*
X275700Y241000D01*
X204600Y544298D02*
X204877Y544575D01*
X206700Y524500D02*
X211700Y519500D01*
X204600Y520232D02*
X206900Y517932D01*
X204600Y520232D02*
Y544298D01*
X206700Y524500D02*
Y535500D01*
X207436Y536236D01*
Y544575D01*
X210100Y527800D02*
Y544470D01*
X212554Y528146D02*
Y544575D01*
X352059Y259685D02*
X357382D01*
X352059Y261654D02*
X357817D01*
X359082Y260389D01*
Y169702D02*
Y260389D01*
X352059Y263622D02*
X358253D01*
X360782Y261093D01*
Y170786D02*
Y261093D01*
X364182Y172954D02*
Y262502D01*
X352059Y265591D02*
X358689D01*
X362482Y261797D01*
Y171870D02*
Y261797D01*
X352059Y267559D02*
X359124D01*
X364182Y262502D01*
Y172954D02*
X386287Y150849D01*
X362482Y171870D02*
X386119Y148233D01*
X360782Y170786D02*
X385952Y145616D01*
X359082Y169702D02*
X385868Y142916D01*
X357382Y168618D02*
X383616Y142384D01*
X74500Y418556D02*
X81544Y425600D01*
X73989Y416000D02*
X74500Y415489D01*
X78400Y411589D01*
D30*
X230400Y94400D02*
X250698D01*
X271631Y124054D02*
Y126331D01*
X328258Y244581D02*
Y249941D01*
X242199Y244162D02*
Y250219D01*
X387753Y594408D02*
Y605847D01*
X406500Y203900D02*
X409000D01*
X485800Y57800D02*
Y144600D01*
X390600Y203900D02*
X406500D01*
X209972Y286607D02*
Y287644D01*
X439500Y530200D02*
X453000D01*
X308600Y474306D02*
X312453Y470453D01*
X425496Y392396D02*
X425592Y392300D01*
X409444Y610700D02*
Y617656D01*
X386126Y426274D02*
X388000Y424400D01*
X476911Y321400D02*
X481800D01*
X112487Y476500D02*
X112943Y476043D01*
X259207Y285907D02*
X261584D01*
X263299Y434340D02*
X263656D01*
X272943Y430722D02*
Y437366D01*
X352059Y332798D02*
X357427D01*
X369682Y348174D02*
X395408Y373900D01*
X390779Y363500D02*
X396100Y368821D01*
X364182Y334005D02*
X406200Y376023D01*
X381158Y336900D02*
X395300Y351042D01*
X367177Y315081D02*
X424100Y372005D01*
X352059Y315081D02*
X367177D01*
X381974Y434340D02*
X382189D01*
X491500Y550100D02*
X496100Y554700D01*
X381000Y468500D02*
Y480500D01*
X548088Y625412D02*
X548088Y625412D01*
X546577Y623900D02*
X548088Y625412D01*
X396246Y430500D02*
Y457223D01*
X404120Y431000D02*
Y453620D01*
X384603Y533897D02*
X386500Y532000D01*
X448500Y385311D02*
X454989D01*
X413963Y394863D02*
Y401588D01*
X452600Y204500D02*
Y210400D01*
X454698Y214100D02*
X457177D01*
X454298Y214500D02*
X454698Y214100D01*
X450902Y214500D02*
X454298D01*
X450502Y214100D02*
X450902Y214500D01*
X435167Y214100D02*
X450502D01*
X454077Y212600D02*
X455000D01*
X453677Y213000D02*
X454077Y212600D01*
X451523Y213000D02*
X453677D01*
X451123Y212600D02*
X451523Y213000D01*
X434546Y212600D02*
X451123D01*
X452600Y204500D02*
X460900Y196200D01*
X455000Y212600D02*
X457100Y210500D01*
X457177Y214100D02*
X458577Y212700D01*
X493300Y174600D02*
X498600D01*
X488100Y174500D02*
Y214400D01*
X478300Y164700D02*
X488100Y174500D01*
X498600Y174600D02*
X506400Y166800D01*
X507477Y164200D02*
X509077Y165800D01*
X503723D02*
X505323Y164200D01*
X494300Y165800D02*
X503723D01*
X509077D02*
X517000D01*
X505323Y164200D02*
X507477D01*
X517000Y165800D02*
X521900Y160900D01*
X551600Y124900D02*
Y181200D01*
X531900Y200900D02*
X551600Y181200D01*
X547800Y97300D02*
Y175000D01*
X531900Y190900D02*
X547800Y175000D01*
X501500Y186700D02*
X506100D01*
X498200Y190000D02*
X501500Y186700D01*
X506100D02*
X521900Y170900D01*
X495100Y194100D02*
X508700D01*
X521900Y180900D01*
X413800Y238700D02*
X418900Y233600D01*
Y223100D02*
Y233600D01*
X419100Y204577D02*
X423223Y208700D01*
X419100Y204000D02*
Y204577D01*
X418500Y213400D02*
X427723D01*
X413800Y208700D02*
X418500Y213400D01*
X412077Y214900D02*
X427102D01*
X417500Y202400D02*
X419100Y204000D01*
X421700Y203500D02*
X427200D01*
X423223Y208700D02*
X423800D01*
X427200Y203500D02*
X438400Y192300D01*
X427723Y213400D02*
X428023Y213700D01*
X427402Y215200D02*
X430798D01*
X427102Y214900D02*
X427402Y215200D01*
X429100Y211100D02*
X445600Y194600D01*
X430477Y213400D02*
X433746D01*
X430177Y213700D02*
X430477Y213400D01*
X428023Y213700D02*
X430177D01*
X431098Y214900D02*
X434367D01*
X430798Y215200D02*
X431098Y214900D01*
X428400Y218900D02*
X428900Y218400D01*
X438400Y192300D02*
X445291D01*
X446691Y190900D01*
X448247D01*
X478500Y170500D02*
Y224000D01*
X488200Y234600D02*
X521900Y200900D01*
X447900Y234600D02*
X488200D01*
X428400Y242500D02*
X429200Y243300D01*
X428400Y218900D02*
Y242500D01*
X434367Y214900D02*
X435167Y214100D01*
X407977Y210800D02*
X412077Y214900D01*
X445600Y194600D02*
X449300D01*
X391800Y164700D02*
X478300D01*
X433800Y248700D02*
X439600Y254500D01*
X442400D01*
X459600Y246500D02*
Y254600D01*
X457000Y255677D02*
X459300Y257977D01*
Y270507D01*
X457000Y253523D02*
Y255677D01*
Y253523D02*
X457500Y253023D01*
Y245000D02*
Y253023D01*
X459600Y246500D02*
X462900Y243200D01*
X457500Y245000D02*
X463800Y238700D01*
X462900Y243200D02*
X511400D01*
X467800Y244700D02*
X512021D01*
X463800Y248700D02*
X467800Y244700D01*
X512021D02*
X512721Y244000D01*
X473800Y248700D02*
X508400D01*
X447866Y281941D02*
X459300Y270507D01*
X473800Y248700D02*
X492300Y267200D01*
X511400Y243200D02*
X512800Y241800D01*
Y240623D02*
Y241800D01*
Y240623D02*
X514323Y239100D01*
X515500D01*
X525953Y228647D01*
X512721Y244000D02*
X514023D01*
X525953Y197492D02*
Y228647D01*
X525308Y196847D02*
X525953Y197492D01*
X523106Y196847D02*
X525308D01*
X521900Y195642D02*
X523106Y196847D01*
X521900Y190900D02*
Y195642D01*
X515400Y241700D02*
X527600Y229500D01*
Y175200D02*
Y229500D01*
X483800Y218700D02*
X488100Y214400D01*
X483800Y238700D02*
X504000D01*
X511300Y231400D01*
X443800Y238700D02*
X447900Y234600D01*
X473800Y228700D02*
X478500Y224000D01*
X462100Y217000D02*
X473800Y228700D01*
X527600Y175200D02*
X531900Y170900D01*
X593100Y183800D02*
X605300Y196000D01*
X527800Y77300D02*
X547800Y97300D01*
X557100Y244300D02*
X608600Y192800D01*
X514323Y244300D02*
X557100D01*
X514023Y244000D02*
X514323Y244300D01*
X485800Y77300D02*
X527800D01*
X284074Y119167D02*
X287367D01*
X290964Y128025D02*
X296425D01*
X290964Y131962D02*
X291326Y131600D01*
X264389Y151511D02*
Y154600D01*
X290964Y145742D02*
X295442D01*
X290964Y147710D02*
X295190D01*
X262420Y148203D02*
Y154600D01*
X270294Y97206D02*
Y119167D01*
X290964Y137868D02*
X291340Y137491D01*
X268326Y110274D02*
Y119167D01*
X290964Y135899D02*
X293707D01*
X264389Y110311D02*
Y119167D01*
X262420Y110080D02*
Y119167D01*
X290964Y143773D02*
X291137Y143600D01*
X278168Y114232D02*
Y119167D01*
X274300Y119235D02*
Y125100D01*
X274231Y119167D02*
X274300Y119235D01*
X267471Y129994D02*
X290964D01*
X260777Y123300D02*
X267471Y129994D01*
X249300Y123300D02*
X260777D01*
X271631Y124054D02*
X272263Y123423D01*
Y119167D02*
Y123423D01*
X271631Y126331D02*
X273100Y127800D01*
X278677D01*
X266357Y119167D02*
Y124643D01*
X267900Y142723D02*
X270123Y140500D01*
X267900Y142723D02*
Y143377D01*
X266377Y144900D02*
X267900Y143377D01*
X265723Y144900D02*
X266377D01*
X262420Y148203D02*
X265723Y144900D01*
X264389Y151511D02*
X267700Y148200D01*
X270123Y140500D02*
X277600D01*
X452547Y287847D02*
X454000Y289300D01*
X447866Y287847D02*
X452547D01*
X108500Y288815D02*
X115815Y281500D01*
X127906D01*
X257263Y357737D02*
X263100Y351900D01*
X257263Y357737D02*
Y359939D01*
X257669Y360345D01*
Y369823D01*
X289165Y357135D02*
X294200Y352100D01*
X289165Y357135D02*
Y369823D01*
X446800Y342273D02*
X448500Y343973D01*
X416900Y312373D02*
X446800Y342273D01*
Y338700D02*
Y342273D01*
X446900Y392100D02*
X448500Y390500D01*
Y389248D02*
Y390500D01*
X151600Y576447D02*
X156647Y571400D01*
X151600Y576447D02*
Y604000D01*
X205300Y568423D02*
Y574815D01*
X412950Y528906D02*
Y545400D01*
X411100Y531356D02*
Y538077D01*
X312453Y470453D02*
X313000Y471000D01*
X308600Y474306D02*
Y482400D01*
X358700Y532500D01*
X370100D01*
X361700Y523300D02*
X369300D01*
X333000Y494600D02*
X361700Y523300D01*
X333000Y481000D02*
Y494600D01*
X302748Y490248D02*
X317000Y504500D01*
X311053Y500674D02*
Y506431D01*
X300780Y490401D02*
X311053Y500674D01*
X317000Y504500D02*
X323400Y510900D01*
X314500Y509879D02*
Y511660D01*
X311053Y506431D02*
X314500Y509879D01*
X312200Y509700D02*
Y527500D01*
X307000Y504500D02*
X312200Y509700D01*
X375000Y527600D02*
X379500Y523100D01*
X397800D01*
X428698Y536502D02*
Y545400D01*
Y536502D02*
X438500Y526700D01*
X439600Y530300D02*
Y530400D01*
X439500Y530200D02*
X439600Y530300D01*
X440879Y536500D02*
X460936D01*
X440257Y535000D02*
X460315D01*
X438796Y533500D02*
X459693D01*
X431847Y540449D02*
X438796Y533500D01*
X434997Y540261D02*
X440257Y535000D01*
X438829Y538550D02*
X440879Y536500D01*
X438829Y538550D02*
Y542463D01*
X438900Y526300D02*
X487700D01*
X438500Y526700D02*
X438900Y526300D01*
X443300Y558379D02*
X463079Y538600D01*
X444800Y559000D02*
X463700Y540100D01*
X443300Y558379D02*
Y559100D01*
X441296Y538204D02*
X461353D01*
X410700Y555300D02*
X412950Y553050D01*
X407377Y557900D02*
X411777D01*
X412398Y559400D02*
X419249Y552549D01*
X408040Y559400D02*
X412398D01*
X413020Y560900D02*
X422398Y551521D01*
X409690Y560900D02*
X413020D01*
X403390Y567200D02*
X409690Y560900D01*
X411123Y562500D02*
X413541D01*
X409600Y564023D02*
X411123Y562500D01*
X412200Y565100D02*
X421700Y574600D01*
X408000Y552700D02*
X409800Y550900D01*
X405400Y551623D02*
Y552664D01*
X393664Y564400D02*
X405400Y552664D01*
X411777Y557900D02*
X416700Y552977D01*
X419249Y545400D02*
Y552549D01*
X422398Y545400D02*
Y551521D01*
X413541Y562500D02*
X425548Y550493D01*
X405400Y551623D02*
X406300Y550723D01*
X397400Y535367D02*
Y545202D01*
X397202Y545400D02*
X397400Y545202D01*
X387800Y601700D02*
X387900Y601800D01*
X405800Y600900D02*
Y608056D01*
X408944Y611200D01*
X447500Y576600D02*
Y599800D01*
X441296Y608296D02*
X457000Y624000D01*
X438146Y607268D02*
X456379Y625500D01*
X452879Y627000D02*
X536323D01*
X434997Y609118D02*
X452879Y627000D01*
X452257Y628500D02*
X538500D01*
X432814Y609057D02*
X452257Y628500D01*
X457000Y624000D02*
X533379D01*
X432814Y595375D02*
Y609057D01*
X456379Y625500D02*
X535702D01*
X536323Y627000D02*
X537423Y625900D01*
X434997Y594408D02*
Y609118D01*
X535702Y625500D02*
X537302Y623900D01*
X441296Y594408D02*
Y608296D01*
X438146Y594408D02*
Y607268D01*
X422300Y574000D02*
X455600D01*
X456200Y574600D01*
X421700D02*
X422300Y574000D01*
X444800Y559000D02*
Y569700D01*
X432300Y570100D02*
X443300Y559100D01*
X463700Y540100D02*
X469500D01*
X460593Y532600D02*
X501413D01*
X461215Y534100D02*
X500791D01*
X461836Y535600D02*
X497200D01*
X462457Y537100D02*
X486100D01*
X463079Y538600D02*
X470121D01*
X459693Y533500D02*
X460593Y532600D01*
X460315Y535000D02*
X461215Y534100D01*
X460936Y536500D02*
X461836Y535600D01*
X461353Y538204D02*
X462457Y537100D01*
X469500Y540100D02*
X470900Y541500D01*
X511300Y542487D02*
Y554591D01*
X500791Y534100D02*
X509800Y543109D01*
X497200Y535600D02*
X506200Y544600D01*
X486100Y537100D02*
X491500Y542500D01*
X470121Y538600D02*
X472400Y540879D01*
X501413Y532600D02*
X511300Y542487D01*
X470900Y541500D02*
Y549300D01*
X472400Y545891D02*
X477509Y551000D01*
X472400Y540879D02*
Y545891D01*
X470900Y549300D02*
X476200Y554600D01*
X477691Y551000D02*
X482600Y555909D01*
X477509Y551000D02*
X477691D01*
X482600Y555909D02*
Y556091D01*
X490118Y563609D01*
X520158Y498300D02*
Y503758D01*
Y491634D02*
Y498300D01*
X365800Y380100D02*
X366400Y379500D01*
X376500D01*
X391200Y360900D02*
X391300D01*
X388700Y361977D02*
X390223Y363500D01*
X388700Y361421D02*
Y361977D01*
X364382Y337103D02*
X388700Y361421D01*
X446500Y398100D02*
X454800D01*
X425500Y392300D02*
X425592D01*
X419700Y385600D02*
Y394702D01*
X419800Y394802D01*
Y401657D01*
X418100Y393202D02*
Y396598D01*
X416400Y391502D02*
X418100Y393202D01*
X416600Y393823D02*
Y395977D01*
X414552Y391775D02*
X416600Y393823D01*
X413963Y394863D02*
X414000Y394900D01*
X408900Y387700D02*
Y391515D01*
X408000Y392415D02*
X408900Y391515D01*
X408000Y392415D02*
Y397385D01*
X408326Y397711D01*
Y397748D01*
X408057Y398016D02*
X408326Y397748D01*
X360500Y423700D02*
Y427774D01*
X348900Y423700D02*
X360500D01*
X388200Y424600D02*
X397800D01*
X388000Y424400D02*
X388200Y424600D01*
X422900Y391223D02*
X424100Y390023D01*
Y372005D02*
Y390023D01*
X415654Y396923D02*
X416600Y395977D01*
X417622Y397076D02*
Y401866D01*
Y397076D02*
X418100Y396598D01*
X415654Y396923D02*
Y401866D01*
X416400Y373763D02*
Y391502D01*
X414552Y390533D02*
Y391775D01*
Y390533D02*
X414900Y390185D01*
Y374384D02*
Y390185D01*
X454989Y385011D02*
Y385311D01*
X453326Y379637D02*
Y380911D01*
X448963D02*
X453326D01*
X520158Y498300D02*
X522300D01*
X565400Y495500D02*
Y505300D01*
X561500Y509200D02*
X565400Y505300D01*
X525600Y509200D02*
X561500D01*
X520158Y503758D02*
X525600Y509200D01*
X373800Y518800D02*
X400300D01*
X413000Y506100D02*
X456600Y462500D01*
X520158D01*
X445000Y456000D02*
Y464500D01*
X432000Y443000D02*
X445000Y456000D01*
X421559Y441059D02*
X440000Y459500D01*
X430000Y469500D02*
X434500Y465000D01*
Y457000D02*
Y465000D01*
X417900Y440400D02*
X434500Y457000D01*
X420000Y469500D02*
X425000Y464500D01*
Y456621D02*
Y464500D01*
X411200Y442821D02*
X425000Y456621D01*
X409570Y449070D02*
X420000Y459500D01*
X409570Y431178D02*
Y449070D01*
X414500Y456121D02*
Y465000D01*
X405811Y447432D02*
X414500Y456121D01*
X358780Y431134D02*
Y463220D01*
X565433Y455333D02*
Y462500D01*
X557100Y447000D02*
X565433Y455333D01*
X554414Y447000D02*
X557100D01*
X553914Y446500D02*
X554414Y447000D01*
X551760Y446500D02*
X553914D01*
X551260Y447000D02*
X551760Y446500D01*
X524000Y447000D02*
X551260D01*
X520158Y450842D02*
X524000Y447000D01*
X520158Y450842D02*
Y462500D01*
X333800Y423700D02*
X338700D01*
X327200D02*
X333800D01*
Y421812D02*
Y423700D01*
Y421812D02*
X334756Y420856D01*
X258700Y430259D02*
X259441Y431000D01*
X258700Y423500D02*
Y430259D01*
X261132Y431278D02*
Y483868D01*
Y431278D02*
X261410Y431000D01*
X267900Y421100D02*
X294200D01*
X265300Y422700D02*
X266300Y423700D01*
X265300Y417100D02*
Y422700D01*
Y417100D02*
X265347Y417054D01*
X294200Y421100D02*
X295200Y420100D01*
X315900D01*
X133523Y454600D02*
X133600D01*
X116200Y468323D02*
X133523Y451000D01*
X112200Y468400D02*
X138000Y442600D01*
X124100Y467700D02*
X132400Y459400D01*
X119900Y468223D02*
Y468800D01*
Y468223D02*
X133523Y454600D01*
X124100Y467700D02*
Y469800D01*
X133523Y451000D02*
X138000D01*
X112943Y476043D02*
X113800Y476900D01*
X116200Y468323D02*
Y468900D01*
X62000Y476100D02*
Y481600D01*
X138000Y441000D02*
Y442600D01*
X89900Y481000D02*
X138000D01*
X99600Y491000D02*
X138000D01*
X107400Y501000D02*
X138000D01*
X72300Y536100D02*
X107400Y501000D01*
X46700Y536100D02*
X72300D01*
X106800Y511000D02*
X138000D01*
X71700Y546100D02*
X106800Y511000D01*
X46700Y546100D02*
X71700D01*
X104600Y456388D02*
X105344Y455644D01*
X336410Y227610D02*
Y249941D01*
X333300Y224500D02*
X336410Y227610D01*
X334441Y230841D02*
Y249941D01*
X329000Y225400D02*
X334441Y230841D01*
X332473Y239773D02*
Y249941D01*
X310300Y217600D02*
X332473Y239773D01*
X330782Y244984D02*
Y249663D01*
X323098Y237300D02*
X330782Y244984D01*
X322477Y238800D02*
X328258Y244581D01*
X333300Y192600D02*
Y224500D01*
X322147Y188200D02*
X348100D01*
X320100Y186153D02*
X322147Y188200D01*
X348100D02*
X353100Y183200D01*
X326700Y181300D02*
Y185600D01*
X316100Y170700D02*
X326700Y181300D01*
X316100Y160400D02*
Y170700D01*
X314600Y162577D02*
Y167500D01*
X313500Y161477D02*
X314600Y162577D01*
X313500Y159323D02*
Y161477D01*
Y159323D02*
X314600Y158223D01*
Y147200D02*
Y158223D01*
X311500Y149700D02*
Y165500D01*
X311300Y165700D02*
X311500Y165500D01*
X309300Y172800D02*
X314600Y167500D01*
X307858Y158653D02*
X308005Y158505D01*
X282253Y158653D02*
X307858D01*
X282105Y158505D02*
X282253Y158653D01*
X301100Y168400D02*
X312947Y180247D01*
X282500Y168400D02*
X301100D01*
X280137Y166037D02*
X282500Y168400D01*
X301671Y143600D02*
X315000D01*
X301334Y143936D02*
X301671Y143600D01*
X297938Y143936D02*
X301334D01*
X297602Y143600D02*
X297938Y143936D01*
X291137Y143600D02*
X297602D01*
X301049Y142100D02*
X332700D01*
X300713Y142436D02*
X301049Y142100D01*
X298559Y142436D02*
X300713D01*
X298223Y142100D02*
X298559Y142436D01*
X291259Y142100D02*
X298223D01*
X315000Y143600D02*
X332700Y161300D01*
X295442Y145742D02*
X296300Y146600D01*
X295190Y147710D02*
X296300Y146600D01*
X293353Y176100D02*
X297700Y180447D01*
X307400Y183048D02*
Y187200D01*
X306752Y182400D02*
X307400Y183048D01*
X306627Y182525D02*
X306752Y182400D01*
X299778Y182525D02*
X306627D01*
X297700Y180447D02*
X299778Y182525D01*
X306627Y188431D02*
X307272Y187786D01*
Y187328D02*
Y187786D01*
Y187328D02*
X307400Y187200D01*
X310300Y188543D02*
Y217600D01*
Y188543D02*
X310400Y188443D01*
Y183447D02*
Y188443D01*
X277800Y215223D02*
X304592Y188431D01*
X306627D01*
X278168Y169568D02*
X284700Y176100D01*
X278168Y154600D02*
Y169568D01*
X284700Y176100D02*
X293353D01*
X285853Y177600D02*
X288700Y180447D01*
X281100Y177600D02*
X285853D01*
X276200Y172700D02*
X281100Y177600D01*
X280137Y154600D02*
Y166037D01*
X278273Y184075D02*
X285072D01*
X288700Y180447D01*
X282105Y154600D02*
Y158505D01*
X276200Y154600D02*
Y172700D01*
X278677Y127800D02*
X280177Y126300D01*
X282100D01*
X308600Y233200D02*
Y239848D01*
X313849Y230600D02*
X322049Y238800D01*
X307523Y230600D02*
X313849D01*
X306000Y232123D02*
X307523Y230600D01*
X306000Y232123D02*
Y233679D01*
X301679Y238000D02*
X306000Y233679D01*
X308600Y239848D02*
X312770Y244018D01*
X318403D01*
X318415Y244030D01*
Y249663D01*
X318693Y249941D01*
X295023Y238000D02*
X301679D01*
X324321Y249663D02*
X324598Y249941D01*
X324321Y245009D02*
Y249663D01*
X321400Y242088D02*
X324321Y245009D01*
X321400Y241400D02*
Y242088D01*
X322670Y237300D02*
X323098D01*
X314900Y229530D02*
X322670Y237300D01*
X322049Y238800D02*
X322477D01*
X241300Y196077D02*
X241700Y195677D01*
X240177Y197200D02*
X241300Y196077D01*
X280300Y241200D02*
X280500D01*
X277354Y244146D02*
X280300Y241200D01*
X250800Y209300D02*
Y228900D01*
X242000Y240733D02*
X250233Y232500D01*
X252137D01*
X258237Y226400D01*
X255700Y239400D02*
Y239877D01*
X258300Y239600D02*
X260500Y237400D01*
X258300Y239600D02*
Y240477D01*
X256777Y242000D02*
X258300Y240477D01*
X255900Y242000D02*
X256777D01*
X255701Y242199D02*
X255900Y242000D01*
X255701Y242199D02*
Y249941D01*
X251764Y240136D02*
X252000Y239900D01*
X253732Y241845D02*
X255700Y239877D01*
X253732Y241845D02*
Y249941D01*
X248200Y226100D02*
Y226267D01*
X245000Y232933D02*
Y233800D01*
X236084Y224016D02*
X245000Y232933D01*
X247700Y230400D02*
Y231100D01*
X238700Y221400D02*
X247700Y230400D01*
X260500Y237400D02*
X264723D01*
X266323Y235800D01*
X229900Y222000D02*
X241100Y233200D01*
X242000Y240733D02*
Y243963D01*
X216600Y214900D02*
X238300Y236600D01*
X242000Y243963D02*
X242199Y244162D01*
X234323Y197200D02*
X240177D01*
X241300Y187153D02*
X241700Y187553D01*
Y195677D01*
X241300Y196077D02*
Y211200D01*
X239100Y157500D02*
Y194600D01*
X232500Y150900D02*
X239100Y157500D01*
X232800Y188253D02*
Y195677D01*
X231700Y187153D02*
X232800Y188253D01*
Y195677D02*
X234323Y197200D01*
X235400Y156584D02*
Y194600D01*
X231000Y152184D02*
X235400Y156584D01*
X244600Y185826D02*
Y192200D01*
X247228Y185319D02*
Y193249D01*
X244600Y185826D02*
X247251Y183175D01*
X247228Y185319D02*
X247873Y184675D01*
X247228Y179414D02*
X262420Y164222D01*
X247228Y179414D02*
Y181224D01*
X246778Y181675D02*
X247228Y181224D01*
X246630Y181675D02*
X246778D01*
X246000Y194477D02*
Y215100D01*
Y194477D02*
X247228Y193249D01*
X247873Y184675D02*
X253672D01*
X248172Y183175D02*
X250100Y181247D01*
X247251Y183175D02*
X248172D01*
X231100Y187753D02*
X231700Y187153D01*
X262420Y154600D02*
Y164222D01*
X231000Y146016D02*
Y152184D01*
X232500Y147300D02*
Y150900D01*
Y147300D02*
X240595Y139205D01*
X248682D01*
X231000Y146016D02*
X239311Y137705D01*
X249303D01*
X248682Y139205D02*
X249313Y139836D01*
X249303Y137705D02*
X249466Y137868D01*
X255531D01*
X249313Y139836D02*
X255531D01*
X247605Y141805D02*
X255531D01*
X249313Y143773D02*
X255531D01*
X248682Y144405D02*
X249313Y143773D01*
X246528Y144405D02*
X248682D01*
X282523Y221900D02*
X284677D01*
X281000Y223423D02*
X282523Y221900D01*
X283600Y224500D02*
Y226577D01*
X310400Y183447D02*
X313600Y180247D01*
X243500Y143900D02*
X243627Y143773D01*
X241223Y145300D02*
X243523Y147600D01*
X239500Y145300D02*
X241223D01*
X245896Y143773D02*
X246528Y144405D01*
X243627Y143773D02*
X245896D01*
X243523Y147600D02*
X250077D01*
X237101Y135899D02*
X255531D01*
X228000Y145000D02*
X237101Y135899D01*
X237980Y149100D02*
X254141D01*
X322630Y249941D02*
Y267130D01*
X292300Y231600D02*
X296700Y227200D01*
X283600Y226577D02*
X295023Y238000D01*
X296700Y227200D02*
X297100D01*
X313600Y186153D02*
X320100D01*
X304400Y176400D02*
X304800Y176000D01*
X312947Y180247D02*
X313600D01*
X308900Y181979D02*
Y187821D01*
X307821Y180900D02*
X308900Y181979D01*
X306131Y180900D02*
X307821D01*
X306006Y181025D02*
X306131Y180900D01*
X305378Y181025D02*
X306006D01*
X304400Y180047D02*
X305378Y181025D01*
X304400Y176400D02*
Y180047D01*
X276277Y218700D02*
X277800Y217177D01*
X274323Y218700D02*
X276277D01*
X266623Y226400D02*
X274323Y218700D01*
X256200Y216100D02*
X275200D01*
X277800Y215223D02*
Y217177D01*
X258237Y226400D02*
X266623D01*
X274002Y212500D02*
X277398D01*
X273102Y211600D02*
X274002Y212500D01*
X254000Y211600D02*
X273102D01*
X274623Y211000D02*
X276777D01*
X271023Y207400D02*
X274623Y211000D01*
X275700Y184526D02*
Y208400D01*
X277628Y184719D02*
X278273Y184075D01*
X277628Y184719D02*
Y206651D01*
X278300Y207323D01*
Y209477D01*
X280500Y186553D02*
Y209398D01*
X277398Y212500D02*
X280500Y209398D01*
X276777Y211000D02*
X278300Y209477D01*
X252700Y207400D02*
X271023D01*
X291326Y131600D02*
X298900D01*
X282046Y110354D02*
X332701D01*
X292185Y98685D02*
X328215D01*
X299200Y29800D02*
X348200Y78800D01*
X332701Y110354D02*
X336547Y114200D01*
X329200Y100500D02*
X332800Y96900D01*
X298400Y100500D02*
X329200D01*
X328215Y98685D02*
X335700Y91200D01*
X346900Y94600D02*
Y119300D01*
X353600Y84200D02*
Y118600D01*
X340600Y131600D02*
X353600Y118600D01*
X338300Y127900D02*
X346900Y119300D01*
X231100Y29800D02*
X299200D01*
X222200Y38700D02*
X231100Y29800D01*
X222200Y38700D02*
Y94500D01*
X222847Y98353D02*
X229300Y91900D01*
X222847Y98353D02*
Y101400D01*
X229300Y91900D02*
X257700D01*
X257800Y92000D01*
X230400Y94400D02*
Y94500D01*
X250698Y94400D02*
X254798Y98500D01*
X259000D01*
X246100Y101400D02*
X249000Y98500D01*
X228753Y101400D02*
X246100D01*
X264500Y96100D02*
Y108000D01*
X267294Y95963D02*
Y107406D01*
X264389Y110311D02*
X267294Y107406D01*
X268794Y96584D02*
Y109806D01*
X268326Y110274D02*
X268794Y109806D01*
X244800Y127800D02*
X249300Y123300D01*
X251935Y145742D02*
X255531D01*
X250077Y147600D02*
X251935Y145742D01*
X308244Y72000D02*
X311475Y75231D01*
Y95845D01*
X311715Y96085D01*
X292000Y98500D02*
X292185Y98685D01*
X295500Y103400D02*
X298400Y100500D01*
X278168Y114232D02*
X282046Y110354D01*
X311715Y114285D02*
Y114800D01*
X303847Y87200D02*
X308047Y83000D01*
X286200Y87200D02*
X303847D01*
X270294Y97206D02*
X288000Y79500D01*
X268794Y96584D02*
X276400Y88979D01*
X273000Y69500D02*
Y90257D01*
X267294Y95963D02*
X273000Y90257D01*
X276400Y81100D02*
Y88979D01*
X228953Y127800D02*
X244800D01*
X407299Y127053D02*
X452679D01*
X456731Y123000D01*
X435600Y117600D02*
X441000Y123000D01*
X410669Y117600D02*
X435600D01*
X406947Y121321D02*
X410669Y117600D01*
X427477Y103600D02*
X427877Y103200D01*
X454400Y299500D02*
Y309700D01*
X448024Y299500D02*
X454400D01*
X468660Y296612D02*
Y306640D01*
X470688Y308668D02*
Y314488D01*
X468660Y306640D02*
X470688Y308668D01*
X433439Y292061D02*
X447588D01*
X443581Y305841D02*
X447588D01*
X440422Y309000D02*
X443581Y305841D01*
X395500Y188000D02*
Y191200D01*
Y208000D02*
X400200Y212700D01*
X436600Y217056D02*
Y228500D01*
X436244Y216700D02*
X436600Y217056D01*
X492300Y267200D02*
Y326800D01*
X608600Y192800D02*
X623000D01*
X641000Y210800D01*
Y385100D01*
X421700Y574600D02*
Y585000D01*
X421532Y587600D02*
X425548Y591616D01*
X420623Y587600D02*
X421532D01*
X419100Y586077D02*
X420623Y587600D01*
X419100Y585168D02*
Y586077D01*
X407632Y573700D02*
X419100Y585168D01*
X412950Y594408D02*
Y609694D01*
X414456Y611200D01*
X236590Y147710D02*
X237980Y149100D01*
X241300Y187005D02*
X246630Y181675D01*
X253672Y184675D02*
X257300Y181047D01*
X208500Y158594D02*
Y171800D01*
Y158594D02*
X222094Y145000D01*
X170953Y212600D02*
X181200D01*
X170753Y202600D02*
X181200D01*
X308244Y65000D02*
Y72000D01*
X303200D02*
X308244D01*
X306047Y79500D02*
X308047Y77500D01*
X288000Y79500D02*
X306047D01*
X276400Y81100D02*
X278000Y79500D01*
X262420Y110080D02*
X264500Y108000D01*
X263000Y94600D02*
X264500Y96100D01*
X263000Y69500D02*
Y94600D01*
X282000Y98500D02*
X286900Y103400D01*
X295500D01*
X332800Y96900D02*
X335400D01*
X339100Y93200D01*
X228553Y132653D02*
Y137600D01*
X224853Y115100D02*
X229053Y119300D01*
X247600Y109900D02*
X259000Y98500D01*
X228553Y109900D02*
X247600D01*
X223047Y127800D02*
X223147Y127700D01*
Y119300D02*
Y127700D01*
X217500Y117253D02*
X219000Y115753D01*
Y109800D02*
Y115753D01*
Y105247D02*
Y109800D01*
X219100Y109900D01*
X222647D01*
Y132853D02*
X223047Y132453D01*
Y127800D02*
Y132453D01*
X222647Y132853D02*
Y137600D01*
X217500Y140406D02*
X222094Y145000D01*
X217500Y117253D02*
Y140406D01*
X219000Y105247D02*
X222847Y101400D01*
X75444Y461156D02*
X96418D01*
X75200Y452102D02*
Y457398D01*
X75402Y457600D01*
X75200Y452102D02*
X75402Y451900D01*
X71123Y457800D02*
X75202D01*
X75402Y457600D01*
X70923D02*
X71123Y457800D01*
X64816Y457600D02*
X70923D01*
X27600Y464200D02*
X38400Y475000D01*
X75800Y474400D02*
X77961Y472239D01*
Y466817D02*
Y472239D01*
X62000Y481600D02*
X74123D01*
X44443D02*
X62000D01*
X74123D02*
X79443Y476280D01*
X44443Y467017D02*
Y481600D01*
X38344Y453544D02*
X44443Y447445D01*
X81834Y476043D02*
X83866D01*
X81597Y476280D02*
X81834Y476043D01*
X79443Y476280D02*
X81597D01*
X84323Y476500D02*
X112487D01*
X83866Y476043D02*
X84323Y476500D01*
X297700Y186353D02*
X298100Y185953D01*
X304400D01*
X250100Y187153D02*
X250300Y186953D01*
X280500Y186553D02*
X280700Y186353D01*
X240768Y348268D02*
X243300Y350800D01*
X232177Y348268D02*
X240768D01*
X232177Y310866D02*
X232455Y311144D01*
X232177Y306929D02*
X232340Y306766D01*
X232177Y308898D02*
X236832D01*
X232177Y322677D02*
X232455Y322399D01*
X245300Y310600D02*
Y313123D01*
X245423Y279000D02*
X250300D01*
X243084Y281339D02*
X245423Y279000D01*
X249795Y264295D02*
X252900Y267400D01*
X261606Y258106D02*
X271900Y268400D01*
X261606Y249941D02*
Y258106D01*
X285228Y249941D02*
Y260172D01*
X287475Y261602D02*
Y268075D01*
Y261602D02*
X287828Y261249D01*
Y259095D02*
Y261249D01*
X287475Y258741D02*
X287828Y259095D01*
X287475Y250219D02*
Y258741D01*
Y268075D02*
X287600Y268200D01*
X287197Y249941D02*
X287475Y250219D01*
X351427Y274096D02*
X352059Y273465D01*
X339639D02*
X340788D01*
X337670Y275433D02*
X339639Y273465D01*
X351781Y283585D02*
X352059Y283307D01*
X342543Y286200D02*
X344636Y284107D01*
X351781Y306651D02*
X352059Y306929D01*
X343766Y310866D02*
X352059D01*
X334800Y312700D02*
X335566Y313466D01*
X334800Y312700D02*
X339234Y308266D01*
X344843D01*
X335566Y313466D02*
X344843D01*
X345475Y312835D02*
X352059D01*
X344843Y313466D02*
X345475Y312835D01*
Y308898D02*
X352059D01*
X344843Y308266D02*
X345475Y308898D01*
X330800Y352000D02*
Y352200D01*
X333405Y354805D01*
X341972D01*
X342604Y354173D01*
X352059D01*
X279323Y359223D02*
Y369823D01*
X181200Y212600D02*
X181400Y212400D01*
X181200Y202600D02*
X181400Y202400D01*
X164847Y202600D02*
X165047Y202800D01*
X485447Y287847D02*
X486800Y289200D01*
X477000Y287847D02*
X485447D01*
X482500Y316600D02*
Y320700D01*
Y311428D02*
Y316600D01*
X486800Y312300D01*
Y303977D02*
Y312300D01*
X477000Y299658D02*
X477278Y299935D01*
X468660Y296612D02*
X471242Y294030D01*
X481800Y321400D02*
X482500Y320700D01*
X480850Y309778D02*
X482500Y311428D01*
X477278Y309778D02*
X480850D01*
X477000Y309500D02*
X477278Y309778D01*
X470688Y314488D02*
X471606Y315406D01*
X259700Y250003D02*
Y265800D01*
X259638Y249941D02*
X259700Y250003D01*
X351781Y281617D02*
X352059Y281339D01*
X340895Y352205D02*
X352059D01*
X339095Y431134D02*
X339344Y431383D01*
X271252Y395740D02*
Y401866D01*
X292906Y392706D02*
Y401866D01*
X287100Y410600D02*
X298700D01*
X292906Y431000D02*
X293183Y431278D01*
Y438817D01*
X292600Y439400D02*
X293183Y438817D01*
X290000Y497500D02*
X297000Y504500D01*
X294874Y440803D02*
X295200Y440477D01*
Y438323D02*
Y440477D01*
X294874Y437997D02*
X295200Y438323D01*
X294874Y431000D02*
Y437997D01*
X290000Y438323D02*
X290937Y437386D01*
Y431000D02*
Y437386D01*
X271252Y431000D02*
X271300Y431048D01*
Y439400D01*
X275189Y431000D02*
X275400Y431211D01*
X268700Y440477D02*
X269284Y441060D01*
X268700Y438323D02*
Y440477D01*
Y438323D02*
X269284Y437740D01*
Y431000D02*
Y437740D01*
X272943Y437366D02*
X273900Y438323D01*
X266300Y423700D02*
X277000D01*
X107800Y218200D02*
X108200Y218600D01*
X101753Y218200D02*
X107800D01*
X94585Y232668D02*
Y235400D01*
Y232668D02*
X101853Y225400D01*
X106800Y157200D02*
X106900Y157300D01*
X101353Y157200D02*
X106800D01*
X94785Y170568D02*
X101353Y164000D01*
X93785Y107900D02*
X100506Y101180D01*
Y99400D02*
Y101180D01*
X90447Y159000D02*
X92247Y157200D01*
X95447D01*
X84200Y159000D02*
X90447D01*
X95447Y164000D01*
X94785Y170568D02*
Y174300D01*
X83900Y278300D02*
X93147D01*
X94647Y276800D01*
X103815Y280062D02*
Y293500D01*
X100553Y276800D02*
X103815Y280062D01*
X94647Y276800D02*
Y283400D01*
X54800Y516100D02*
X89900Y481000D01*
X46700Y516100D02*
X54800D01*
X397202Y591616D02*
Y594408D01*
X387985Y582400D02*
X397202Y591616D01*
X400351D02*
Y594408D01*
X391435Y582700D02*
X400351Y591616D01*
X403501D02*
Y594408D01*
X393084Y581200D02*
X403501Y591616D01*
X406650D02*
Y594408D01*
X394734Y579700D02*
X406650Y591616D01*
X425548D02*
Y594408D01*
X416099Y545400D02*
X416700Y546001D01*
X396149Y570400D02*
X397849Y568700D01*
X395528Y568900D02*
X397228Y567200D01*
X394907Y567400D02*
X396607Y565700D01*
X394285Y565900D02*
X395985Y564200D01*
X312400Y557000D02*
X337800Y582400D01*
X313021Y555500D02*
X338421Y580900D01*
X313643Y554000D02*
X339043Y579400D01*
X314264Y552500D02*
X339664Y577900D01*
X314885Y551000D02*
X340285Y576400D01*
X315507Y549500D02*
X340907Y574900D01*
X316128Y548000D02*
X341528Y573400D01*
X316749Y546500D02*
X342149Y571900D01*
X392335D02*
X394135Y573700D01*
X388607Y580900D02*
X390407Y582700D01*
X389228Y579400D02*
X391028Y581200D01*
X318700Y534000D02*
Y535723D01*
X312200Y527500D02*
X318700Y534000D01*
X298600Y527421D02*
X313179Y542000D01*
X298600Y516100D02*
Y527421D01*
X297000Y514500D02*
X298600Y516100D01*
X293900Y527000D02*
X310400Y543500D01*
X293900Y520400D02*
Y527000D01*
X291400Y517900D02*
X293900Y520400D01*
X313800Y540500D02*
X319235D01*
X301500Y528200D02*
X313800Y540500D01*
X301500Y512400D02*
Y528200D01*
X301336Y545000D02*
X317371D01*
X300715Y546500D02*
X316749D01*
X300093Y548000D02*
X316128D01*
X299472Y549500D02*
X315507D01*
X298851Y551000D02*
X314885D01*
X294000Y552500D02*
X314264D01*
X292900Y554000D02*
X313643D01*
X290121Y555500D02*
X313021D01*
X317000Y527300D02*
X321900Y532200D01*
X307000Y527600D02*
X318400Y539000D01*
X287000Y530664D02*
X301336Y545000D01*
X281053Y526838D02*
X300715Y546500D01*
X277000Y524907D02*
X300093Y548000D01*
X271053Y521081D02*
X299472Y549500D01*
X268366Y520515D02*
X298851Y551000D01*
X261053Y519553D02*
X294000Y552500D01*
X257000Y518100D02*
X292900Y554000D01*
X251053Y516431D02*
X290121Y555500D01*
X307000Y514500D02*
Y527600D01*
X317000Y514500D02*
Y527300D01*
X247000Y514500D02*
Y516100D01*
X251053Y512821D02*
Y516431D01*
X257000Y514500D02*
Y518100D01*
X261053Y512821D02*
Y519553D01*
X247000Y508769D02*
X251053Y512821D01*
X391649Y579700D02*
X394734D01*
X391028Y581200D02*
X393084D01*
X390407Y582700D02*
X391435D01*
X314447Y511713D02*
X314500Y511660D01*
X297000Y507900D02*
X301500Y512400D01*
X268366Y516744D02*
Y520515D01*
X271053Y512821D02*
Y521081D01*
X277000Y514500D02*
Y524907D01*
X281053Y512821D02*
Y526838D01*
X287000Y514500D02*
Y530664D01*
X291400Y508900D02*
Y517900D01*
X297000Y504500D02*
Y507900D01*
X287000Y504500D02*
X291400Y508900D01*
X277000Y508769D02*
X281053Y512821D01*
X277000Y504500D02*
Y508769D01*
X267000D02*
X271053Y512821D01*
X267000Y504500D02*
Y508769D01*
Y514500D02*
X268805Y516305D01*
X257000Y508769D02*
X261053Y512821D01*
X272947Y510447D02*
X277000Y514500D01*
X314447Y511713D02*
Y511947D01*
X257000Y504500D02*
Y508769D01*
X255500Y510879D02*
Y512390D01*
X252947Y508326D02*
X255500Y510879D01*
X255195Y512695D02*
X257000Y514500D01*
X247000Y504500D02*
Y508769D01*
X390902Y538598D02*
Y545400D01*
Y538598D02*
X392000Y537500D01*
X407500Y499000D02*
Y500000D01*
X435947Y466092D02*
X436592Y465447D01*
X438794D01*
X440000Y464242D01*
Y459500D02*
Y464242D01*
X313756Y65000D02*
Y72000D01*
X496100Y554700D02*
X496200Y554600D01*
X438146Y545400D02*
X439113Y544433D01*
X374000Y463379D02*
X375947Y461431D01*
Y457269D02*
Y461431D01*
X375500Y464000D02*
X380000Y459500D01*
X507691Y571000D02*
X511291Y574600D01*
X505105Y571000D02*
X507691D01*
X511291Y574600D02*
X516200D01*
X247000Y500121D02*
X263100Y484021D01*
X260500Y490864D02*
Y501000D01*
X247000Y500121D02*
Y504500D01*
X257000D02*
X260500Y501000D01*
X296843Y494343D02*
X307000Y504500D01*
X277000D02*
X281095Y500406D01*
X285032Y502532D02*
X287000Y504500D01*
X282947Y431116D02*
X283063Y431000D01*
X272943Y430722D02*
X273221Y431000D01*
X263100Y434239D02*
X263198D01*
X263656Y431278D02*
Y434340D01*
X263198Y434239D02*
X263299Y434340D01*
X263378Y431000D02*
X263656Y431278D01*
X366000Y463500D02*
X370000Y459500D01*
X366000Y463500D02*
Y467716D01*
X365947Y467769D02*
X366000Y467716D01*
X374000Y463379D02*
Y465500D01*
X370000Y469500D02*
X374000Y465500D01*
X381000Y468500D02*
X385947Y463553D01*
X380000Y469500D02*
X381000Y468500D01*
X415500Y431154D02*
X415654Y431000D01*
X409570Y431178D02*
X409748Y431000D01*
X403843D02*
X404120D01*
X401874Y453495D02*
X404053Y455674D01*
X390000Y469500D02*
X395947Y463553D01*
X399906Y431000D02*
X400000Y431095D01*
X395969Y430778D02*
Y431000D01*
X385947Y455674D02*
X390063Y451558D01*
X385947Y455674D02*
Y463553D01*
X380000Y459500D02*
X388095Y451406D01*
X394000Y431000D02*
X394278Y431278D01*
X382189Y431000D02*
Y434340D01*
X381911Y434403D02*
X381974Y434340D01*
X384158Y431000D02*
X384435Y431278D01*
X231899Y297365D02*
X232177Y297087D01*
X420000Y459500D02*
Y463769D01*
X414053Y469716D02*
X420000Y463769D01*
X414053Y469716D02*
Y471179D01*
X411679Y473553D02*
X414053Y471179D01*
X411447Y473553D02*
X411679D01*
X396000Y489000D02*
X411447Y473553D01*
X399000Y490500D02*
Y491500D01*
X387753Y545400D02*
X388000Y545153D01*
Y536500D02*
Y545153D01*
X430000Y469500D02*
Y471500D01*
X240500Y504500D02*
Y508000D01*
X247000Y514500D01*
X384603Y533897D02*
Y545400D01*
X381454Y533046D02*
Y545400D01*
X378304Y533196D02*
Y545400D01*
X314447Y511947D02*
X317000Y514500D01*
X404053Y455674D02*
Y463326D01*
X404000Y463379D02*
X404053Y463326D01*
X404000Y463379D02*
Y465500D01*
X400000Y469500D02*
X404000Y465500D01*
X393000Y486500D02*
X410000Y469500D01*
X401679Y473553D02*
X405500Y469731D01*
X399947Y473553D02*
X401679D01*
X389000Y480500D02*
X400000Y469500D01*
X545000Y627000D02*
X545500Y626500D01*
X540677Y627000D02*
X545000D01*
X537423Y625900D02*
X539577D01*
X540677Y627000D01*
X548088Y625412D02*
X549000Y624500D01*
X537302Y623900D02*
X546577D01*
X533379Y624000D02*
X535479Y621900D01*
X550077D01*
X550177Y622000D01*
X552500D01*
X394052Y594408D02*
Y604552D01*
X267037Y431278D02*
X267315Y431000D01*
X265347Y424654D02*
Y431000D01*
Y424654D02*
X266300Y423700D01*
X277000D02*
X277158Y423858D01*
Y431000D01*
X277000Y423700D02*
X285800D01*
X287000Y424900D01*
Y431000D01*
X285800Y423700D02*
X297700D01*
X298811Y424811D01*
Y431000D01*
X259441Y401866D02*
Y409941D01*
X260100Y410600D01*
X304700D02*
X304717Y410584D01*
Y401866D02*
Y410584D01*
X298811Y401866D02*
Y410489D01*
X298700Y410600D02*
X298811Y410489D01*
X298700Y410600D02*
X304700D01*
X287000Y401866D02*
Y410500D01*
X287100Y410600D01*
X277158Y401866D02*
Y410558D01*
X277200Y410600D01*
X287100D01*
X52000Y466897D02*
X52120Y467017D01*
X54680D02*
X54700Y466997D01*
X36200Y459056D02*
X36482D01*
X44443Y467017D01*
X36200Y453544D02*
X38344D01*
X44443Y444183D02*
Y447445D01*
X56844Y453544D02*
X59798Y456498D01*
Y457500D02*
X62357Y460059D01*
Y467017D01*
X59798Y456498D02*
Y457500D01*
Y467017D01*
Y444183D02*
Y450591D01*
X56844Y453544D02*
X59798Y450591D01*
X96418Y461156D02*
X99000D01*
X90757Y447401D02*
X99000Y455644D01*
X90757Y443983D02*
Y447401D01*
X75402Y461198D02*
X75444Y461156D01*
X75402Y461198D02*
Y466817D01*
X72843Y443983D02*
Y449341D01*
X75402Y451900D01*
Y443983D02*
Y451900D01*
X88198D01*
Y443983D02*
Y451900D01*
X202318Y544575D02*
Y550418D01*
X215300Y562800D02*
Y567813D01*
X215113Y568000D02*
X215300Y567813D01*
X215113Y544575D02*
Y551287D01*
X90757Y466817D02*
X96418Y461156D01*
X361026Y428300D02*
Y430856D01*
X360748Y431134D02*
X361026Y430856D01*
X327284Y423784D02*
Y431134D01*
X327200Y423700D02*
X327284Y423784D01*
X339095Y424095D02*
Y431134D01*
X338700Y423700D02*
X339095Y424095D01*
X348937Y423737D02*
Y431134D01*
X348900Y423700D02*
X348937Y423737D01*
X338700Y423700D02*
X348900D01*
X321378Y423578D02*
X321500Y423700D01*
X327200D01*
X366600Y409600D02*
X366654Y409547D01*
X321378Y402000D02*
Y409700D01*
X360700Y409600D02*
X360748Y409552D01*
X381911Y434403D02*
Y435934D01*
X382700Y436723D01*
X380100Y431121D02*
Y437800D01*
Y431121D02*
X380221Y431000D01*
X421559D02*
Y441059D01*
X423528Y431000D02*
Y436296D01*
X423100Y436723D02*
X423528Y436296D01*
X423100Y436723D02*
Y438877D01*
X427223Y443000D01*
X425700Y431204D02*
Y437800D01*
X425496Y431000D02*
X425700Y431204D01*
X415500Y431154D02*
Y436323D01*
X416400Y437223D01*
Y439377D01*
X417622Y431000D02*
Y436324D01*
X417900Y436602D01*
Y440400D01*
X411200Y437223D02*
X411717Y436707D01*
Y431000D02*
Y436707D01*
X413800Y438300D02*
X413963Y438137D01*
Y431278D02*
Y438137D01*
X413685Y431000D02*
X413963Y431278D01*
X389400Y436723D02*
Y438877D01*
X390063Y439540D01*
Y451558D01*
X387900Y439498D02*
X388095Y439693D01*
X394278Y431278D02*
Y436401D01*
X394600Y436723D01*
X387900Y431195D02*
X388095Y431000D01*
X387900Y431195D02*
Y439498D01*
X390063Y431000D02*
Y436060D01*
X389400Y436723D02*
X390063Y436060D01*
X392000Y431032D02*
X392032Y431000D01*
X413685Y401866D02*
X413963Y401588D01*
X386126Y426274D02*
Y431000D01*
X419600Y424600D02*
Y429332D01*
X419868Y429600D01*
Y430722D01*
X419591Y431000D02*
X419868Y430722D01*
X395969Y430778D02*
X396246Y430500D01*
X397937Y424737D02*
Y431000D01*
X397800Y424600D02*
X397937Y424737D01*
X407780Y424621D02*
Y431000D01*
Y424621D02*
X407800Y424600D01*
X397800D02*
X407800D01*
X419600D01*
X397937Y401866D02*
X398215Y401588D01*
X385848D02*
X386126Y401866D01*
X380411Y396711D02*
Y401676D01*
X380221Y401866D02*
X380411Y401676D01*
X398215Y397631D02*
Y401588D01*
Y397631D02*
X399100Y396746D01*
X399906Y398062D02*
Y401866D01*
X352059Y332520D02*
Y332798D01*
Y330551D02*
X352337Y330829D01*
X352059Y328583D02*
X352337Y328861D01*
X403843Y401866D02*
X404120Y401588D01*
X359682Y336585D02*
X361382Y338285D01*
Y338346D01*
X352059Y326614D02*
X352337Y326892D01*
X379800Y396100D02*
X380411Y396711D01*
X385500Y391200D02*
X385848Y391548D01*
X405811Y401866D02*
X406089Y401588D01*
X407780Y401866D02*
X408057Y401588D01*
X385848Y391548D02*
Y401588D01*
X361182Y335964D02*
X362882Y337664D01*
Y337724D01*
X362682Y333810D02*
Y335343D01*
X364382Y337043D01*
Y337103D01*
X408057Y398016D02*
Y401588D01*
X401120Y396621D02*
X401700Y396041D01*
X401120Y396621D02*
Y396847D01*
X399906Y398062D02*
X401120Y396847D01*
X402620Y397242D02*
X403200Y396663D01*
X402620Y397242D02*
Y397468D01*
X401874Y398215D02*
X402620Y397468D01*
X401874Y398215D02*
Y401866D01*
X404120Y397864D02*
X404700Y397284D01*
X404120Y397864D02*
Y401588D01*
X406089Y398016D02*
X406200Y397905D01*
X406089Y398016D02*
Y401588D01*
X359682Y335052D02*
Y336585D01*
X361182Y334431D02*
Y335964D01*
X357427Y332798D02*
X359682Y335052D01*
X352337Y330829D02*
X357580D01*
X361182Y334431D01*
X352337Y328861D02*
X357733D01*
X362682Y333810D01*
X352337Y326892D02*
X357886D01*
X364182Y333188D01*
X352059Y318740D02*
X352337Y318462D01*
X352059Y320709D02*
X361290D01*
X419591Y401866D02*
X419800Y401657D01*
X392000Y401835D02*
X392032Y401866D01*
X392000Y394800D02*
Y401835D01*
X399100Y392100D02*
Y396746D01*
X401700Y383200D02*
Y396041D01*
X425496Y392396D02*
Y401866D01*
X419700Y385600D02*
X419800Y385500D01*
X423528Y394004D02*
Y401866D01*
X422900Y393377D02*
X423528Y394004D01*
X422900Y391223D02*
Y393377D01*
X352059Y314803D02*
Y315081D01*
X352337Y318462D02*
X362720D01*
X447588Y292061D02*
X447866Y291784D01*
X364182Y333188D02*
Y334005D01*
X381000Y336900D02*
X381158D01*
X428477Y283500D02*
X428886Y283910D01*
X447977Y321200D02*
X454400D01*
X447866Y321311D02*
X447977Y321200D01*
X476911Y321400D02*
X477000Y321311D01*
X447866Y299658D02*
X448024Y299500D01*
X447588Y301904D02*
X447866Y301626D01*
X447588Y305841D02*
X447866Y305563D01*
X403200Y381023D02*
Y396663D01*
X369682Y344524D02*
Y348174D01*
X395000Y376500D02*
X401700Y383200D01*
X393800Y353219D02*
Y353284D01*
X395300Y351042D02*
Y352663D01*
X395408Y373900D02*
X396077D01*
X403200Y381023D01*
X389900Y371400D02*
Y372477D01*
X391423Y374000D01*
X392500D01*
X395000Y376500D01*
X404700Y380402D02*
Y397284D01*
X406200Y376023D02*
Y397905D01*
X396100Y371802D02*
X404700Y380402D01*
X395300Y352663D02*
X416400Y373763D01*
X393800Y353284D02*
X414900Y374384D01*
X396100Y368821D02*
Y371802D01*
X447866Y319343D02*
X452358D01*
X454200Y309500D02*
X454400Y309700D01*
X447866Y309500D02*
X454200D01*
X452223Y311469D02*
X452358Y311334D01*
X447866Y311469D02*
X452223D01*
X447866Y313437D02*
X452295D01*
X452358Y313500D01*
Y311334D02*
Y313500D01*
X447866Y315406D02*
X452152D01*
X452358Y315200D01*
Y313500D02*
Y315200D01*
X447866Y317374D02*
X452232D01*
X452358Y317500D01*
Y319343D01*
X457000Y320123D02*
Y322277D01*
X454177Y325100D02*
X457000Y322277D01*
X447866Y325248D02*
X448014Y325100D01*
X452358Y315481D02*
Y317500D01*
X452282Y315406D02*
X452358Y315481D01*
X457000Y320123D01*
X452356Y323280D02*
X454177Y325100D01*
X447866Y323280D02*
X452356D01*
X452152Y315406D02*
X452282D01*
X452358D01*
X456695D01*
X452358Y315200D02*
Y315406D01*
Y315481D01*
X471606Y315406D02*
X477000D01*
X470688Y327188D02*
X470717Y327217D01*
X477000D01*
X471242Y294030D02*
X476722D01*
X477000Y293752D01*
X468608D02*
X468660Y293700D01*
Y283340D02*
Y293700D01*
Y296612D01*
X321378Y409700D02*
Y423578D01*
Y409700D02*
X321967Y410289D01*
X339111D02*
X339700Y409700D01*
X321378Y431134D02*
Y438522D01*
X366478Y431309D02*
Y438522D01*
Y431309D02*
X366654Y431134D01*
X354843D02*
Y438458D01*
Y402000D02*
X355000Y402158D01*
X348659Y402278D02*
Y409359D01*
Y402278D02*
X348937Y402000D01*
X339095Y409095D02*
X339700Y409700D01*
X339095Y402000D02*
Y409095D01*
X327000Y410289D02*
X327284Y410006D01*
X321967Y410289D02*
X327000D01*
X471043Y383343D02*
X477634D01*
X471054Y371532D02*
X477634D01*
X471043Y361558D02*
X475691D01*
X476100Y361967D01*
X477356D01*
X477634Y361689D01*
X448500Y383343D02*
X448778Y383065D01*
X471043Y379300D02*
Y383343D01*
X448500Y371532D02*
X455132D01*
X448500Y349878D02*
X455078D01*
Y371478D02*
X455132Y371532D01*
X448500Y361689D02*
X454989D01*
X455078Y361600D01*
Y371478D01*
X477356Y350156D02*
X477634Y349878D01*
X455900Y379300D02*
X462000D01*
X472200Y389200D02*
X472248Y389248D01*
X477634D01*
X471043Y371543D02*
X471054Y371532D01*
X470723Y379300D02*
X471043D01*
X468500Y377077D02*
X470723Y379300D01*
X471100Y376000D02*
X472537Y377437D01*
X477634D01*
X471043Y361558D02*
Y371543D01*
Y358819D02*
Y361558D01*
X469400Y357177D02*
X471043Y358819D01*
X472000Y356100D02*
X472317Y355784D01*
X477634D01*
X455900Y377977D02*
Y379300D01*
Y377977D02*
X457556Y376321D01*
X455132Y371532D02*
X457556Y373956D01*
Y376321D01*
X453212Y373500D02*
X454956Y375244D01*
X448500Y373500D02*
X453212D01*
X448500Y375469D02*
X454732D01*
X448500Y377437D02*
X452763D01*
X454732Y375469D01*
X454956Y375244D01*
X448500Y379406D02*
X453095D01*
Y377769D02*
Y379406D01*
X452763Y377437D02*
X453095Y377769D01*
X455300Y379900D02*
X455900Y379300D01*
X448500Y387280D02*
X453021D01*
X454989Y385311D01*
X455300Y379900D02*
Y381521D01*
X448778Y383065D02*
X453259D01*
X453912Y382411D01*
X454410D01*
X455300Y381521D01*
X448500Y381374D02*
X448963Y380911D01*
X455078Y349878D02*
Y353468D01*
X456317Y354707D01*
X448500Y355784D02*
X453717D01*
X469400Y354540D02*
Y357177D01*
Y354540D02*
X473784Y350156D01*
X477356D01*
X265347Y401866D02*
Y410600D01*
X277200D01*
X260100D02*
X265347D01*
Y417054D01*
X261200Y413800D02*
X261300Y413700D01*
X247000Y516100D02*
X287900Y557000D01*
X312400D01*
X409800Y594408D02*
Y610344D01*
Y539377D02*
Y545400D01*
Y539377D02*
X411100Y538077D01*
X408044Y528300D02*
X411100Y531356D01*
X394135Y573700D02*
X407632D01*
X397849Y568700D02*
X405039D01*
X412950Y528906D02*
X413556Y528300D01*
X407400Y619700D02*
X409444Y617656D01*
X408944Y611200D02*
X409444Y610700D01*
X409800Y610344D01*
X439113Y542747D02*
Y544433D01*
X438829Y542463D02*
X439113Y542747D01*
X391800Y559900D02*
X397202Y554498D01*
Y545400D02*
Y554498D01*
X392421Y561400D02*
X400351Y553470D01*
Y545400D02*
Y553470D01*
X409600Y564023D02*
Y564139D01*
X405039Y568700D02*
X409600Y564139D01*
X406300Y545750D02*
X406650Y545400D01*
X403501D02*
Y552442D01*
X393043Y562900D02*
X403501Y552442D01*
X397228Y567200D02*
X403390D01*
X396607Y565700D02*
X401740D01*
X395985Y564200D02*
X401077D01*
X401740Y565700D02*
X408040Y559400D01*
X401077Y564200D02*
X407377Y557900D01*
X425548Y545400D02*
Y550493D01*
X412950Y545400D02*
Y553050D01*
X409800Y545400D02*
Y550900D01*
X406300Y545750D02*
Y550723D01*
X392271Y578200D02*
X402683D01*
X409000Y588200D02*
X409533D01*
X412950Y591616D01*
Y594408D01*
X490118Y563609D02*
X490300D01*
X46700Y526100D02*
X64500D01*
X99600Y491000D01*
X99000Y455644D02*
X105344D01*
X52000Y459500D02*
Y466897D01*
X38344Y453544D02*
X47002Y462202D01*
Y467017D01*
X54700Y456900D02*
Y466997D01*
X62357Y460059D02*
X64816Y457600D01*
X75402D02*
Y461198D01*
X99000Y461156D02*
Y465300D01*
X366600Y409600D02*
X372487D01*
X380221Y401866D01*
X462000Y379300D02*
X470723D01*
X468500Y374085D02*
Y377077D01*
Y374085D02*
X471043Y371543D01*
X228388Y554400D02*
X229044Y555056D01*
X198300Y554400D02*
X228388D01*
X198300Y548900D02*
Y554400D01*
X199759Y544575D02*
Y547441D01*
X198300Y548900D02*
X199759Y547441D01*
X288700Y186353D02*
X297700D01*
X307312Y119203D02*
Y122600D01*
Y119203D02*
X311715Y114800D01*
X308772Y187950D02*
X308900Y187821D01*
X241921Y249941D02*
X242199Y250219D01*
X280700Y186353D02*
X288700D01*
X249795Y261082D02*
X250427Y260450D01*
X249795Y261082D02*
Y264295D01*
Y249941D02*
Y257665D01*
X250427Y258296D01*
Y260450D01*
X252900Y267400D02*
X253000D01*
X247827Y249941D02*
Y259373D01*
X279579Y180647D02*
X280500D01*
X278600Y181626D02*
X279579Y180647D01*
X278600Y181626D02*
Y181677D01*
X277702Y182575D02*
X278600Y181677D01*
X277651Y182575D02*
X277702D01*
X275700Y184526D02*
X277651Y182575D01*
X264700Y186953D02*
X265100Y186553D01*
X257300Y186953D02*
X264700D01*
X265100Y186553D02*
X266529D01*
X266776Y186800D01*
X272053D02*
X272300Y186553D01*
X266776Y186800D02*
X272053D01*
X243500Y214721D02*
Y216277D01*
X245023Y217800D01*
X308772Y187950D02*
Y193905D01*
X250300Y186953D02*
X257300D01*
X250800Y209300D02*
X252700Y207400D01*
X241300Y187005D02*
Y187153D01*
X246000Y215100D02*
X246100Y215200D01*
X279500Y222802D02*
Y223177D01*
Y222802D02*
X281902Y220400D01*
X282277D01*
X308772Y193905D01*
X281000Y223423D02*
Y224800D01*
X284677Y221900D02*
X287377Y224600D01*
X328258Y249941D02*
X328535D01*
X330504D02*
X330782Y249663D01*
X250100Y187153D02*
Y206677D01*
X242879Y214100D02*
X243500Y214721D01*
X240523Y214100D02*
X242879D01*
X245023Y217800D02*
X247177D01*
X248700Y216277D01*
Y214123D02*
Y216277D01*
X247600Y213023D02*
X248700Y214123D01*
X247600Y209177D02*
Y213023D01*
Y209177D02*
X250100Y206677D01*
X231777Y259285D02*
X232177Y259685D01*
X225685Y259285D02*
X231777D01*
X225270Y261654D02*
X232177D01*
X201200Y237584D02*
X225270Y261654D01*
X224454Y263622D02*
X232177D01*
X223639Y265591D02*
X232177D01*
X254141Y149100D02*
X255531Y147710D01*
X290964Y141805D02*
X291259Y142100D01*
X255195Y512695D02*
X255500Y512390D01*
X258616Y516494D02*
X258805Y516305D01*
X268366Y516744D02*
X268805Y516305D01*
X262000Y491485D02*
Y509500D01*
X267000Y514500D01*
X281291Y355309D02*
Y369823D01*
X275300Y355200D02*
X279323Y359223D01*
X232177Y346299D02*
X244729D01*
X249530Y351100D02*
X250500D01*
X244729Y346299D02*
X249530Y351100D01*
X481000Y118731D02*
Y123000D01*
X395200Y112000D02*
X404000Y103200D01*
X395200Y112000D02*
Y133584D01*
X406947Y121321D02*
Y124621D01*
X456731Y123000D02*
X461000D01*
X404000Y103200D02*
X424923D01*
X425323Y103600D01*
X427477D01*
X327000Y410289D02*
X339111D01*
X333189Y402000D02*
Y407689D01*
X327284Y402000D02*
Y410006D01*
X312787Y361613D02*
Y369823D01*
X358780Y402000D02*
X358900Y401880D01*
X355000Y402158D02*
Y412000D01*
X360748Y402000D02*
Y409552D01*
X358200Y409600D02*
X360700D01*
X358900Y394300D02*
Y401880D01*
X362600Y393700D02*
X362994Y394094D01*
X316724Y369823D02*
X317002Y369545D01*
Y363912D02*
Y369545D01*
Y363912D02*
X317014Y363900D01*
X318877D01*
X323100Y359677D01*
X319000Y351500D02*
X321777D01*
X326567Y356290D01*
Y369823D01*
X323100Y356500D02*
Y359677D01*
X362717Y402000D02*
X362994Y401722D01*
Y394094D02*
Y401722D01*
X360700Y409600D02*
X366600D01*
X366654Y402000D02*
Y409547D01*
X364685Y395715D02*
X365800Y394600D01*
X364685Y395715D02*
Y402000D01*
X345171Y342994D02*
X345802Y342362D01*
X352059D01*
X342394Y342994D02*
X345171D01*
X334600Y335200D02*
X342394Y342994D01*
X38344Y453544D02*
X56844D01*
X157184Y251684D02*
X162536Y246331D01*
X220428Y271496D02*
X232177D01*
X151951Y246451D02*
X156008Y242394D01*
X193800Y235752D02*
X194300Y235252D01*
X162536Y246331D02*
X162906D01*
X166137Y243100D01*
X156008Y242394D02*
X162317D01*
X164812Y239900D01*
X208688Y293244D02*
X215500D01*
X208600Y293156D02*
X208688Y293244D01*
X208600Y293156D02*
Y297944D01*
X141094Y281500D02*
X153900D01*
X218797Y275433D02*
X232177D01*
X214900Y292644D02*
X215500Y293244D01*
X204600Y292254D02*
X206535Y290319D01*
X199000Y294000D02*
X205356Y287644D01*
X208600D01*
X213823Y286200D02*
X215977D01*
X213179Y283400D02*
X214421D01*
X215721Y284700D01*
X216598D01*
X215500Y293244D02*
X217374Y295118D01*
X204600Y292254D02*
Y299456D01*
X208600Y303456D01*
X199000Y298300D02*
X204156Y303456D01*
X208600D01*
X232154Y301000D02*
X232177Y301024D01*
X185100Y298756D02*
X194544Y308200D01*
X192500Y301400D02*
X197800Y306700D01*
X192500Y287956D02*
Y301400D01*
Y287956D02*
X199356Y281100D01*
X193844D02*
Y281256D01*
X188400Y286700D02*
X193844Y281256D01*
X185100Y290000D02*
Y293244D01*
Y290000D02*
X188400Y286700D01*
X164200Y279400D02*
X183556Y298756D01*
X185100D01*
X208600Y287644D02*
X209972D01*
Y286607D02*
X213179Y283400D01*
X206535Y290319D02*
X210827D01*
X211472Y289675D01*
Y287228D02*
Y289675D01*
Y287228D02*
X212795D01*
X213823Y286200D01*
X214900Y288800D02*
Y292644D01*
X215500Y298756D02*
X216891Y297365D01*
X232177Y281339D02*
X243084D01*
X232177Y283307D02*
X244793D01*
X216891Y297365D02*
X219524D01*
X219559Y297400D01*
X217374Y295118D02*
X219399D01*
X220180Y295900D01*
X215977Y286200D02*
X218372Y288595D01*
Y292782D01*
X218739Y293150D01*
X232177Y289213D02*
X232455Y288935D01*
X216598Y284700D02*
X219872Y287973D01*
Y291349D01*
X232177Y287244D02*
X232340Y287407D01*
X236832Y308898D02*
X237321Y308408D01*
X232340Y306766D02*
X241466D01*
X232455Y288935D02*
X239835D01*
X245300Y294400D01*
X243085Y285276D02*
X243716Y285907D01*
X259207D01*
X232177Y285276D02*
X243085D01*
X258100Y289400D02*
X261400D01*
X197800Y306700D02*
X213000D01*
X194544Y308200D02*
X213621D01*
X220821Y301000D01*
X213000Y306700D02*
X220645Y299055D01*
X225296Y291181D02*
X232177D01*
X218739Y293150D02*
X219551D01*
X220802Y294400D01*
X225449Y293150D02*
X232177D01*
X225601Y295118D02*
X232177D01*
X225476Y297365D02*
X231899D01*
X219872Y291349D02*
X221423Y292900D01*
X223577D01*
X225296Y291181D01*
X220802Y294400D02*
X224198D01*
X225449Y293150D01*
X220180Y295900D02*
X224820D01*
X225601Y295118D01*
X219559Y297400D02*
X225441D01*
X225476Y297365D01*
X220645Y299055D02*
X232177D01*
X220821Y301000D02*
X232154D01*
X224308Y302992D02*
X232177D01*
X224639Y304961D02*
X232177D01*
X226471Y306929D02*
X232177D01*
X180900Y333200D02*
Y339406D01*
X245300Y294400D02*
Y301700D01*
X232177Y297087D02*
X240687D01*
X245300Y301700D01*
X232177Y302992D02*
X242008D01*
X247900Y302700D02*
X260900D01*
X232340Y287407D02*
X256107D01*
X258100Y289400D01*
X259207Y285907D02*
X259400Y286100D01*
X264300Y294400D02*
X264500Y294600D01*
X245300Y294400D02*
X264300D01*
X260900Y302700D02*
X267300Y296300D01*
Y291623D02*
Y296300D01*
X231777Y360479D02*
X232177Y360079D01*
X227721Y360479D02*
X231777D01*
X223800Y364400D02*
X227721Y360479D01*
X226490Y356142D02*
X232177D01*
X221016Y361616D02*
X226490Y356142D01*
X223226Y354173D02*
X232177D01*
X218400Y359000D02*
X223226Y354173D01*
X226954Y344331D02*
X232177D01*
X221694Y349591D02*
X226954Y344331D01*
X208991Y349591D02*
X221694D01*
X223170Y350236D02*
X232177D01*
X222315Y351091D02*
X223170Y350236D01*
X215843Y351091D02*
X222315D01*
X213167Y353767D02*
X215843Y351091D01*
X223323Y352205D02*
X232177D01*
X222936Y352591D02*
X223323Y352205D01*
X219576Y352591D02*
X222936D01*
X215784Y356384D02*
X219576Y352591D01*
X206375Y346975D02*
X222189D01*
X226802Y342362D02*
X232177D01*
X222189Y346975D02*
X226802Y342362D01*
X168000Y449500D02*
X187463Y430037D01*
X168000Y449500D02*
Y451000D01*
X137647Y548800D02*
Y550294D01*
X143953Y556600D01*
X138047D02*
Y562803D01*
X138244Y563000D01*
X136315Y578638D02*
X143953Y571000D01*
X136315Y578638D02*
Y588715D01*
X151600Y604000D02*
X156000Y608400D01*
X156647Y563003D02*
Y571400D01*
X156644Y563000D02*
X156647Y563003D01*
X202318Y568000D02*
X202700Y568382D01*
X204877Y568000D02*
X205300Y568423D01*
X162156Y553950D02*
Y563000D01*
Y553950D02*
X162306Y553800D01*
X156247Y545200D02*
X156400Y545353D01*
X162153Y545200D02*
X175600D01*
X194641Y564241D01*
Y568000D01*
X184100D02*
X192082D01*
X165676Y549576D02*
X184100Y568000D01*
X156400Y549576D02*
X165676D01*
X156400Y545353D02*
Y549576D01*
Y553800D01*
X143953Y556600D02*
X150200Y550353D01*
Y545200D02*
Y550353D01*
X143553Y545347D02*
Y548800D01*
X175400Y536900D02*
X188400Y523900D01*
X139285Y536900D02*
X175400D01*
X95500Y580685D02*
X139285Y536900D01*
X143553Y545347D02*
X150500Y538400D01*
X150200Y545200D02*
X154500Y540900D01*
X188407D01*
X192082Y544575D01*
X143756Y563000D02*
Y570803D01*
X143953Y571000D01*
X435947Y466092D02*
Y470553D01*
X440000Y469500D02*
X445000Y464500D01*
X394600Y436723D02*
Y454900D01*
X390000Y459500D02*
X394600Y454900D01*
X405500Y464000D02*
Y469731D01*
Y464000D02*
X410000Y459500D01*
Y469500D02*
X414500Y465000D01*
X399000Y490500D02*
X420000Y469500D01*
X430000Y459500D02*
Y463769D01*
X404000Y497500D02*
X430000Y471500D01*
X407500Y499000D02*
X435947Y470553D01*
X431847Y594408D02*
X432814Y595375D01*
X427400Y570100D02*
X432300D01*
X402683Y578200D02*
X416099Y591616D01*
Y594408D01*
X404332Y576700D02*
X419249Y591616D01*
Y594408D01*
X405982Y575200D02*
X422398Y591616D01*
Y594408D01*
X441296Y538204D02*
Y545400D01*
X434997Y540261D02*
Y545400D01*
X431847Y540449D02*
Y545400D01*
X387500Y480500D02*
X389000D01*
X375500Y464000D02*
Y477500D01*
X390000Y483500D02*
X399947Y473553D01*
X362717Y431134D02*
X362994Y431412D01*
X269284Y441060D02*
Y482080D01*
X260500Y490864D02*
X269284Y482080D01*
X273900Y438323D02*
Y479585D01*
X262000Y491485D02*
X273900Y479585D01*
X271500Y495879D02*
X275400Y491979D01*
X271500Y495879D02*
Y500000D01*
X267000Y504500D02*
X271500Y500000D01*
X279126Y431000D02*
Y490374D01*
X273000Y496500D02*
X279126Y490374D01*
X273000Y496500D02*
Y502716D01*
X272947Y502769D02*
X273000Y502716D01*
X272947Y502769D02*
Y510447D01*
X295000Y510379D02*
Y512500D01*
X297000Y514500D01*
X301500Y509000D02*
X307000Y514500D01*
X296843Y431000D02*
Y494343D01*
X240500Y504500D02*
X261132Y483868D01*
X263100Y434239D02*
Y484021D01*
X267037Y431278D02*
Y482206D01*
X252947Y496295D02*
X267037Y482206D01*
X252947Y496295D02*
Y508326D01*
X275400Y431211D02*
Y491979D01*
X281095Y431000D02*
Y500406D01*
X282947Y431116D02*
Y510447D01*
X287000Y514500D01*
X285032Y431000D02*
Y502532D01*
X288969Y431000D02*
Y437233D01*
X288500Y437702D02*
X288969Y437233D01*
X288500Y437702D02*
Y499000D01*
X292000Y502500D01*
Y507379D01*
X295000Y510379D01*
X290000Y438323D02*
Y497500D01*
X294874Y440803D02*
Y495374D01*
X301500Y502000D01*
Y509000D01*
X300780Y431000D02*
Y490401D01*
X302748Y431000D02*
Y490248D01*
X388095Y439693D02*
Y451406D01*
X401500Y494500D02*
X425947Y470053D01*
Y467821D02*
Y470053D01*
Y467821D02*
X430000Y463769D01*
X375947Y457269D02*
X384435Y448780D01*
Y431278D02*
Y448780D01*
X370000Y459500D02*
X382700Y446800D01*
Y436723D02*
Y446800D01*
X365800Y380100D02*
Y394600D01*
X333189Y431134D02*
Y438511D01*
X381000Y480500D02*
X412500Y512000D01*
X375500Y477500D02*
X411700Y513700D01*
X370000Y469500D02*
Y474500D01*
X410900Y515400D01*
X365947Y467769D02*
Y473447D01*
X409600Y517100D01*
X348659Y409359D02*
X349000Y409700D01*
X355000Y412000D02*
X355900Y412900D01*
X360500Y427774D02*
X361026Y428300D01*
X362300Y469100D02*
X362994Y468406D01*
X491500Y542500D02*
Y550100D01*
X261584Y285907D02*
X267300Y291623D01*
X346136Y284575D02*
Y286364D01*
Y284575D02*
X347127Y283585D01*
X351781D01*
X344636Y283954D02*
Y284107D01*
Y283954D02*
X346974Y281617D01*
X351781D01*
X337670Y275433D02*
X352059D01*
X344175Y303700D02*
X347127Y306651D01*
X351781D01*
X340788Y273465D02*
X341419Y274096D01*
X351427D01*
X468660Y283340D02*
X470059Y281941D01*
X477000D01*
X500900Y566795D02*
X505105Y571000D01*
X506591Y559300D02*
X511300Y554591D01*
X504005Y559300D02*
X506591D01*
X500900Y562405D02*
X504005Y559300D01*
X500900Y562405D02*
Y566795D01*
X499400Y561783D02*
X502600Y558583D01*
Y553109D02*
Y558583D01*
Y553109D02*
X504709Y551000D01*
X504891D01*
X509800Y546091D01*
Y543109D02*
Y546091D01*
X499400Y567800D02*
X506200Y574600D01*
X499400Y561783D02*
Y567800D01*
X416700Y546001D02*
Y552977D01*
X378304Y594408D02*
Y599359D01*
X359500Y605677D02*
X363323Y609500D01*
X364000Y606500D02*
X371163D01*
X378304Y599359D01*
X363323Y609500D02*
X376000D01*
X381454Y604046D01*
Y594408D02*
Y604046D01*
X379000Y611000D02*
X384603Y605397D01*
Y594408D02*
Y605397D01*
X390902Y594408D02*
Y606798D01*
X381000Y612600D02*
X387753Y605847D01*
X357500Y611000D02*
X379000D01*
X357100Y610600D02*
X357500Y611000D01*
X354500Y607323D02*
Y610577D01*
Y607323D02*
X354700Y607123D01*
X356523Y612600D02*
X381000D01*
X354500Y610577D02*
X356523Y612600D01*
X357100Y609500D02*
Y610600D01*
X386500Y532000D02*
Y532500D01*
X381454Y533046D02*
X382500Y532000D01*
X378304Y533196D02*
X378500Y533000D01*
X313179Y542000D02*
X318613D01*
X310400Y543500D02*
X317992D01*
X343392Y568900D01*
X317371Y545000D02*
X342771Y570400D01*
X318400Y539000D02*
X319856D01*
X345256Y564400D01*
X393664D01*
X323400Y510900D02*
Y536180D01*
X321900Y532200D02*
Y536802D01*
X346498Y561400D01*
X392421D01*
X323400Y536180D02*
X347120Y559900D01*
X391800D01*
X318700Y535723D02*
X345877Y562900D01*
X393043D01*
X319235Y540500D02*
X344635Y565900D01*
X394285D01*
X318613Y542000D02*
X344013Y567400D01*
X394907D01*
X343392Y568900D02*
X395528D01*
X342771Y570400D02*
X396149D01*
X342149Y571900D02*
X392335D01*
X341528Y573400D02*
X391713D01*
X393513Y575200D01*
X405982D01*
X340907Y574900D02*
X391092D01*
X392892Y576700D01*
X404332D01*
X340285Y576400D02*
X390471D01*
X392271Y578200D01*
X339664Y577900D02*
X389849D01*
X391649Y579700D01*
X339043Y579400D02*
X389228D01*
X338421Y580900D02*
X388607D01*
X337800Y582400D02*
X387985D01*
X383600Y614100D02*
X390902Y606798D01*
X351900Y610700D02*
X355300Y614100D01*
X383600D01*
X359500Y605677D02*
X359700Y605477D01*
Y605000D02*
Y605477D01*
X354700Y602400D02*
Y607123D01*
X362300Y449977D02*
X362994Y450671D01*
Y468406D01*
X362300Y447823D02*
Y449977D01*
Y447823D02*
X362994Y447129D01*
Y431412D02*
Y434984D01*
X363185Y435174D01*
Y436017D01*
X362378Y436824D02*
X363185Y436017D01*
X362378Y436824D02*
Y440220D01*
X362994Y440837D01*
Y447129D01*
X364685Y448685D02*
X364900Y448900D01*
X364685Y440406D02*
Y448685D01*
X363878Y439599D02*
X364685Y440406D01*
X363878Y437445D02*
Y439599D01*
Y437445D02*
X364685Y436638D01*
Y431134D02*
Y436638D01*
X319493Y359300D02*
X319800D01*
X315034Y363759D02*
X319493Y359300D01*
X315034Y363759D02*
Y369545D01*
X314756Y369823D02*
X315034Y369545D01*
X316724Y369823D02*
Y375876D01*
X314700Y377900D02*
X316724Y375876D01*
X297700Y423700D02*
X321500D01*
X304717Y431000D02*
X307917Y427800D01*
X311300D01*
X315900Y414100D02*
Y420100D01*
X314700Y412900D02*
X315900Y414100D01*
X314700Y407500D02*
Y412900D01*
X267400Y238400D02*
X281000Y224800D01*
X266323Y235800D02*
X266877D01*
X279500Y223177D01*
X164812Y239900D02*
X187269D01*
X177776Y265824D02*
X184079D01*
X199356Y281100D01*
X194300Y229433D02*
Y235252D01*
X201200Y227400D02*
Y237584D01*
X166137Y243100D02*
X185943D01*
X187269Y239900D02*
X189763Y242394D01*
X204900Y238500D02*
X225685Y259285D01*
X185943Y243100D02*
X189175Y246331D01*
X189696D01*
X218797Y275433D01*
X189763Y242394D02*
X191327D01*
X220428Y271496D01*
X193800Y235752D02*
X223639Y265591D01*
X197500Y236668D02*
X224454Y263622D01*
X204900Y227400D02*
Y238500D01*
X197500Y227400D02*
Y236668D01*
X270812Y395300D02*
X271252Y395740D01*
X270800Y395300D02*
X270812D01*
X267790Y370101D02*
Y376498D01*
X268925Y377633D01*
Y378069D01*
X269300Y378444D01*
Y393123D01*
X268200Y394223D02*
X269300Y393123D01*
X268200Y394223D02*
Y396377D01*
X269300Y397477D01*
Y401850D01*
X269284Y401866D02*
X269300Y401850D01*
X267512Y369823D02*
X267790Y370101D01*
X371400Y85200D02*
X374700D01*
X377400Y87900D01*
X480200Y50400D02*
X493200D01*
X470400Y40600D02*
X480200Y50400D01*
X472000Y344400D02*
X472428Y343973D01*
X477634D01*
X453095Y379406D02*
X453326Y379637D01*
X468900Y321400D02*
X476911D01*
X477278Y299935D02*
X482758D01*
X486800Y303977D01*
Y289200D02*
Y303977D01*
X440117Y327217D02*
X447866D01*
X447235Y281310D02*
X447866Y281941D01*
X438800Y243700D02*
X443800Y248700D01*
X336500Y296000D02*
X346136Y286364D01*
X342496Y271496D02*
X352059D01*
X335702Y277402D02*
X352059D01*
X335702D02*
X337670Y275433D01*
X338456Y286200D02*
X342543D01*
X384800Y344219D02*
X393800Y353219D01*
X379900Y328000D02*
Y328100D01*
X390223Y363500D02*
X390779D01*
X433767Y309000D02*
X440422D01*
X424400Y283500D02*
X428477D01*
X381158Y336900D02*
X381500D01*
X434067Y302200D02*
X434363Y301904D01*
X447588D01*
X433000Y292500D02*
X433439Y292061D01*
X456317Y354707D02*
Y356860D01*
X455078Y358099D02*
Y361600D01*
Y358099D02*
X456317Y356860D01*
X400000Y431095D02*
Y459500D01*
X392000Y431032D02*
Y437800D01*
X427223Y443000D02*
X432000D01*
X395947Y457522D02*
X396246Y457223D01*
X395947Y457522D02*
Y463553D01*
X401874Y431000D02*
Y453495D01*
X404120Y453620D02*
X410000Y459500D01*
X405811Y431000D02*
Y447432D01*
X411200Y437223D02*
Y442821D01*
X415500Y440277D02*
X416400Y439377D01*
X415500Y440277D02*
Y445000D01*
X430000Y459500D01*
X429863Y244900D02*
X431063Y243700D01*
X438800D01*
X403923Y245900D02*
X406077D01*
X407077Y244900D01*
X342800Y303700D02*
X344175D01*
X232455Y311144D02*
X237110D01*
X238100Y312134D01*
Y313300D01*
X241466Y306766D02*
X245300Y310600D01*
Y301700D02*
Y310600D01*
X243800Y314887D02*
Y315300D01*
X206800Y320500D02*
X224308Y302992D01*
X211600Y318000D02*
X224639Y304961D01*
X211600Y318000D02*
Y324200D01*
X215000Y318400D02*
X215300Y318700D01*
X215000Y318400D02*
X226471Y306929D01*
X215300Y318700D02*
Y325400D01*
X237321Y308408D02*
X243800Y314887D01*
X238100Y313300D02*
X239200Y314400D01*
X245300Y313123D02*
X246400Y314223D01*
X232455Y322399D02*
X237110D01*
X244354Y324646D02*
X245300Y323700D01*
X232177Y324646D02*
X244354D01*
X243800Y315300D02*
Y315709D01*
X237110Y322399D02*
X243800Y315709D01*
X246400Y314223D02*
Y316377D01*
X245300Y317477D02*
X246400Y316377D01*
X245300Y317477D02*
Y323700D01*
X263100Y351100D02*
Y351900D01*
X362882Y337724D02*
X369682Y344524D01*
X368182Y349682D02*
X389900Y371400D01*
X361382Y338346D02*
X368182Y345146D01*
Y349682D01*
X361290Y320709D02*
X384800Y344219D01*
X362720Y318462D02*
X381158Y336900D01*
X428886Y283910D02*
X447866D01*
X423991D02*
X424400Y283500D01*
X428585Y289815D02*
X447866D01*
X419700Y306800D02*
X440117Y327217D01*
X368600Y424700D02*
X373600Y429700D01*
X363800Y424700D02*
X368600D01*
X362717Y425783D02*
X363800Y424700D01*
X362717Y425783D02*
Y431134D01*
X435400Y278700D02*
X453800Y260300D01*
Y248700D02*
Y260300D01*
X412200Y218700D02*
X413800D01*
X406900Y213400D02*
X412200Y218700D01*
X422914Y281310D02*
X447235D01*
X422623Y281600D02*
X422914Y281310D01*
X419700Y281600D02*
X422623D01*
X419700D02*
Y306800D01*
X416900Y279900D02*
Y312373D01*
Y279900D02*
X418100Y278700D01*
X435400D01*
X373600Y308900D02*
X433800Y248700D01*
X407077Y244900D02*
X429863D01*
X448014Y325100D02*
X454177D01*
X447866Y293752D02*
X468608D01*
X241300Y211200D02*
X241600Y211500D01*
X238000Y215900D02*
X248200Y226100D01*
X181400Y212400D02*
X184800Y209000D01*
X229900D01*
X251764Y240136D02*
Y249941D01*
X277354Y244146D02*
Y249941D01*
X279323D02*
X279601Y249663D01*
Y244030D02*
Y249663D01*
Y244030D02*
X279613Y244018D01*
X283282D01*
X285900Y241400D01*
X211400Y220600D02*
X230500Y239700D01*
X211400Y212400D02*
Y220600D01*
Y212400D02*
X211500Y212300D01*
X238723D01*
X240523Y214100D01*
X314900Y224600D02*
Y229530D01*
X287377Y224600D02*
X314900D01*
X299000Y572453D02*
Y579547D01*
X298500Y571953D02*
X299000Y572453D01*
X269647Y579547D02*
X299000D01*
X229044Y555056D02*
X243350Y540750D01*
X217900Y537700D02*
X227800D01*
X150500Y538400D02*
X194600D01*
X194641Y538441D01*
Y544575D01*
X197200Y539200D02*
X198900Y537500D01*
X197200Y539200D02*
Y544575D01*
X467800Y212700D02*
X473800Y218700D01*
X457100Y217000D02*
X462100D01*
X458577Y212700D02*
X467800D01*
X433746Y213400D02*
X434546Y212600D01*
X520000Y80153D02*
Y104000D01*
X501000Y123000D02*
X520000Y104000D01*
X485800Y57800D02*
X493200Y50400D01*
X436400Y52300D02*
X448500Y40200D01*
X436400Y52300D02*
Y100500D01*
X476947Y112947D02*
Y114679D01*
X481000Y118731D01*
X467200Y103200D02*
X476947Y112947D01*
X427877Y103200D02*
X467200D01*
X463600Y130400D02*
X471000Y123000D01*
X478500Y151900D02*
X485800Y144600D01*
X478500Y151900D02*
Y159600D01*
X352059Y279370D02*
X365030D01*
X400200Y212700D02*
X403923D01*
X405823Y210800D01*
X407977D01*
X401700Y240000D02*
X404800Y236900D01*
Y228700D02*
Y236900D01*
X387600Y229577D02*
X403923Y245900D01*
X389100Y213000D02*
X404800Y228700D01*
X389100Y205400D02*
Y213000D01*
X387600Y204779D02*
Y229577D01*
Y204779D02*
X390679Y201700D01*
X391800D02*
X395500Y198000D01*
X390679Y201700D02*
X391800D01*
X389100Y205400D02*
X390600Y203900D01*
X395500Y191200D02*
X406700Y202400D01*
X417500D01*
X409000Y203900D02*
X413800Y208700D01*
X485600Y42800D02*
X493200Y50400D01*
X485600Y42800D02*
X494800Y33600D01*
X578700D01*
X646200Y101100D01*
Y548200D01*
X558300Y636100D02*
X646200Y548200D01*
X308500Y636100D02*
X558300D01*
X260900Y588500D02*
X308500Y636100D01*
X260100Y575600D02*
Y576100D01*
X258600Y561579D02*
Y568500D01*
X269647Y579547D01*
X257100Y572600D02*
X260100Y575600D01*
X257100Y565500D02*
Y572600D01*
X256621Y559600D02*
X258600Y561579D01*
X240600Y550500D02*
X249700Y559600D01*
X256621D01*
X253000Y561400D02*
X257100Y565500D01*
X240000Y561400D02*
X253000D01*
X226200Y575200D02*
X240000Y561400D01*
X214400Y575200D02*
X226200D01*
X212554Y573354D02*
X214400Y575200D01*
X212554Y568000D02*
Y573354D01*
X291340Y137491D02*
X294236D01*
X294728Y137000D01*
X293707Y135899D02*
X294176Y135431D01*
X296932D01*
X297202Y135700D01*
X294728Y137000D02*
X296380D01*
X296580Y137200D01*
X309600D02*
X309900Y137500D01*
X296580Y137200D02*
X309600D01*
X307898Y135700D02*
X308698Y134900D01*
X297202Y135700D02*
X307898D01*
X308698Y134900D02*
X311200D01*
X314600Y138300D01*
X290964Y133931D02*
X297554D01*
X297823Y134200D01*
X307277D01*
X308377Y133100D01*
X371800D01*
X306000Y127900D02*
X338300D01*
X306200Y131600D02*
X340600D01*
X406736Y130400D02*
X463600D01*
X367700Y183200D02*
X371900Y179000D01*
X378500D01*
Y189000D02*
X386700Y180800D01*
Y169800D02*
Y180800D01*
X385868Y142916D02*
X395200Y133584D01*
X371800Y133100D02*
X379300Y140600D01*
X386287Y150849D02*
X406736Y130400D01*
X386119Y148233D02*
X407299Y127053D01*
X385952Y145616D02*
X406947Y124621D01*
X389500Y154200D02*
X395500Y160200D01*
X398000D01*
X386700Y169800D02*
X391800Y164700D01*
X406500Y168700D02*
Y195800D01*
Y203900D02*
Y205600D01*
D31*
X82815Y73115D02*
X101600Y91900D01*
X104600Y466033D02*
X110667Y472100D01*
X104600Y456388D02*
Y466033D01*
X110667Y472100D02*
X111100D01*
X112943Y473943D01*
X105500Y453200D02*
X127700Y431000D01*
X105500Y453200D02*
Y455800D01*
X127700Y431000D02*
X138000D01*
X139200D02*
X155900Y414300D01*
X167700D01*
X112943Y473943D02*
Y476043D01*
X154950Y396650D02*
X159400Y401100D01*
X103815Y345515D02*
X154950Y396650D01*
X64800Y54100D02*
Y61615D01*
Y30600D02*
X76500Y42300D01*
X141700Y195300D02*
Y200100D01*
Y204600D01*
Y208400D01*
X82815Y69000D02*
Y73115D01*
X106900Y110385D02*
Y157300D01*
X104415Y107900D02*
X106900Y110385D01*
X108200Y218600D02*
Y232415D01*
Y177085D02*
Y218600D01*
X105415Y174300D02*
X108200Y177085D01*
X105215Y235400D02*
X108200Y232415D01*
X106900Y157300D02*
Y172815D01*
X105415Y174300D02*
X106900Y172815D01*
X89500Y174300D02*
X94785D01*
X84200Y169000D02*
X89500Y174300D01*
X91000Y235400D02*
X94585D01*
X84300Y228700D02*
X91000Y235400D01*
X89100Y293500D02*
X93185D01*
X83900Y288300D02*
X89100Y293500D01*
X108500Y238685D02*
Y288815D01*
X105215Y235400D02*
X108500Y238685D01*
X103815Y293500D02*
X108500Y288815D01*
X100553Y91900D02*
X101600D01*
X84100Y106400D02*
X92285D01*
X93785Y107900D01*
X104415Y94715D02*
Y107900D01*
X101600Y91900D02*
X104415Y94715D01*
X82815Y61815D02*
Y69000D01*
X76500Y55500D02*
X82815Y61815D01*
X76500Y42300D02*
Y55500D01*
X64800Y61615D02*
X72185Y69000D01*
X103815Y293500D02*
Y345515D01*
X78400Y353200D02*
X104693D01*
X138000Y431000D02*
X139200D01*
X27100Y226100D02*
Y345300D01*
Y226100D02*
X84200Y169000D01*
X57200Y288300D02*
X83900D01*
X27100Y345300D02*
X35000Y353200D01*
X78400D01*
X50500Y281600D02*
X57200Y288300D01*
X54200Y278200D02*
Y284500D01*
X141700Y208400D02*
X167200Y233900D01*
X186100D01*
X154950Y388550D02*
Y396650D01*
X176400Y367100D02*
X180900Y362600D01*
Y352594D02*
Y362600D01*
X104693Y353200D02*
X159816Y408323D01*
X159400Y401100D02*
X169700D01*
Y412300D01*
X167700Y414300D02*
X169700Y412300D01*
X286094Y583500D02*
X288047Y585453D01*
X299000D01*
X305253D02*
X305300Y585500D01*
X299000Y585453D02*
X305253D01*
X186100Y233900D02*
X190600Y229400D01*
D32*
X194700Y414000D02*
X262100D01*
X245700Y579700D02*
Y581800D01*
X200913Y576613D02*
X201100Y576800D01*
X237185Y576500D02*
X245700Y567985D01*
X251115D01*
X252600Y566500D01*
X261800D02*
X272906D01*
X272994Y553400D02*
X286094Y566500D01*
X256000Y553400D02*
X272994D01*
X162553Y571400D02*
X170300D01*
X182500Y583600D01*
Y607900D01*
X187878Y613278D01*
X193524D01*
X193846Y613600D01*
X213900D01*
X419725Y633900D02*
X552100D01*
X408725Y622900D02*
X419725Y633900D01*
X552100D02*
X565200Y620800D01*
X224453Y187753D02*
X231100D01*
X208500Y171800D02*
X224453Y187753D01*
X365300Y89600D02*
Y103700D01*
X414456Y611200D02*
Y617170D01*
X216900Y514300D02*
X243350Y540750D01*
X194700Y492100D02*
X216900Y514300D01*
X181900Y171800D02*
X208500D01*
X175047Y178653D02*
X181900Y171800D01*
X175047Y178653D02*
Y192400D01*
X181400D01*
X164847Y202600D02*
X175047Y192400D01*
X165047Y202800D02*
Y212600D01*
Y221947D02*
X168600Y225500D01*
X165047Y212600D02*
Y221947D01*
X265200Y265800D02*
X268700Y269300D01*
X259700Y265800D02*
X265200D01*
X291900Y344700D02*
X333390D01*
X340895Y352205D01*
X220000Y248325D02*
X221875Y250200D01*
X135800Y237000D02*
X136000Y236800D01*
X110385D02*
X136000D01*
X108500Y238685D02*
X110385Y236800D01*
X340895Y347395D02*
Y352205D01*
X194700Y414000D02*
Y492100D01*
X286094Y566500D02*
X298047D01*
X298500Y566047D01*
X408725Y622900D02*
X414456Y617170D01*
X243350Y540750D02*
X256000Y553400D01*
X565200Y533400D02*
Y620800D01*
X562100Y533400D02*
X565200D01*
X540700Y512000D02*
X562100Y533400D01*
X513700Y444200D02*
X547200D01*
X462000Y392500D02*
X513700Y444200D01*
X462000Y379300D02*
Y392500D01*
X238700Y265000D02*
X244300Y270600D01*
X254900D01*
X259700Y265800D01*
X238700Y258736D02*
Y265000D01*
X221875Y250200D02*
X230164D01*
X238700Y258736D01*
X220000Y239600D02*
Y248325D01*
X281291Y355309D02*
X291900Y344700D01*
X281291Y346491D02*
Y355309D01*
X268700Y269300D02*
Y269725D01*
X245300Y343900D02*
X257500Y331700D01*
X140400Y236900D02*
X140500Y236800D01*
X136000D02*
X140500D01*
X143519Y239893D02*
Y242544D01*
X140500Y236800D02*
X142500Y234800D01*
X145200D01*
X150500Y236300D02*
X154300Y232500D01*
Y231600D02*
Y232500D01*
X150500Y231600D02*
Y236300D01*
X141100Y244962D02*
X143519Y242544D01*
X141100Y244962D02*
Y274082D01*
X143519Y239893D02*
X145412Y238000D01*
X146525D01*
X148225Y236300D01*
X150500D01*
X141089Y288918D02*
X141100D01*
X135800Y283629D02*
X141089Y288918D01*
X135800Y279371D02*
Y283629D01*
Y279371D02*
X137733Y277438D01*
X137744D01*
X141100Y274082D01*
Y288918D02*
Y360400D01*
X194700Y414000D01*
X268700Y269725D02*
X279875Y280900D01*
X297999D01*
X301299Y277600D01*
X302148D01*
X302248Y277700D01*
X304899D01*
X304999Y277600D01*
X317100D01*
X320100Y280600D01*
X327700D01*
X333300Y286200D01*
X355353Y622900D02*
X408725D01*
X298500Y566047D02*
X355353Y622900D01*
X206225Y224200D02*
X208100Y226075D01*
Y227700D01*
X220000Y239600D01*
X190600Y226075D02*
Y229400D01*
Y226075D02*
X192475Y224200D01*
X206225D01*
X333300Y286200D02*
X338456D01*
X325700Y298956D02*
Y332200D01*
Y298956D02*
X338456Y286200D01*
X325700Y332200D02*
X340895Y347395D01*
X257500Y331700D02*
X266500D01*
X281291Y346491D01*
X245300Y323700D02*
Y327275D01*
X244400Y328175D02*
X245300Y327275D01*
X244400Y328175D02*
Y330825D01*
X245300Y338125D02*
X246300Y337125D01*
X245300Y338125D02*
Y343900D01*
X246300Y332725D02*
Y337125D01*
X244400Y330825D02*
X246300Y332725D01*
X223200Y247000D02*
X230500Y239700D01*
X213900Y613600D02*
X245700Y581800D01*
Y578615D02*
X254815D01*
X259700Y583500D01*
X272906D01*
X523200Y50400D02*
X542800D01*
X605100Y112700D01*
Y171500D01*
X611300Y177700D01*
D33*
X521900Y200900D02*
D03*
X378500Y199000D02*
D03*
X395500Y208000D02*
D03*
D34*
X531900Y200900D02*
D03*
X521900Y190900D02*
D03*
X531900D02*
D03*
X521900Y180900D02*
D03*
X531900D02*
D03*
X521900Y170900D02*
D03*
X531900D02*
D03*
X521900Y160900D02*
D03*
X531900D02*
D03*
X521900Y150900D02*
D03*
X531900D02*
D03*
X521900Y140900D02*
D03*
X531900D02*
D03*
X521900Y130900D02*
D03*
X531900D02*
D03*
X440000Y459500D02*
D03*
X430000Y469500D02*
D03*
Y459500D02*
D03*
X420000Y469500D02*
D03*
Y459500D02*
D03*
X410000Y469500D02*
D03*
Y459500D02*
D03*
X400000Y469500D02*
D03*
Y459500D02*
D03*
X390000Y469500D02*
D03*
Y459500D02*
D03*
X380000Y469500D02*
D03*
Y459500D02*
D03*
X370000Y469500D02*
D03*
Y459500D02*
D03*
X317000Y504500D02*
D03*
X307000Y514500D02*
D03*
Y504500D02*
D03*
X297000Y514500D02*
D03*
Y504500D02*
D03*
X287000Y514500D02*
D03*
Y504500D02*
D03*
X277000Y514500D02*
D03*
Y504500D02*
D03*
X267000Y514500D02*
D03*
Y504500D02*
D03*
X257000Y514500D02*
D03*
Y504500D02*
D03*
X247000Y514500D02*
D03*
Y504500D02*
D03*
X313000Y471000D02*
D03*
Y481000D02*
D03*
X323000Y471000D02*
D03*
Y481000D02*
D03*
X333000Y471000D02*
D03*
Y481000D02*
D03*
X343000Y471000D02*
D03*
X411000Y113000D02*
D03*
Y123000D02*
D03*
X421000Y113000D02*
D03*
Y123000D02*
D03*
X431000Y113000D02*
D03*
Y123000D02*
D03*
X441000Y113000D02*
D03*
Y123000D02*
D03*
X451000Y113000D02*
D03*
Y123000D02*
D03*
X461000Y113000D02*
D03*
Y123000D02*
D03*
X471000Y113000D02*
D03*
Y123000D02*
D03*
X481000Y113000D02*
D03*
Y123000D02*
D03*
X491000Y113000D02*
D03*
Y123000D02*
D03*
X501000Y113000D02*
D03*
X378500Y179000D02*
D03*
Y189000D02*
D03*
X395500Y198000D02*
D03*
Y188000D02*
D03*
Y178000D02*
D03*
X391800Y68600D02*
D03*
X381800D02*
D03*
X95500Y580685D02*
D03*
X75815D02*
D03*
X95500Y561000D02*
D03*
X75815D02*
D03*
X572000Y42000D02*
D03*
X552315D02*
D03*
X572000Y22315D02*
D03*
X552315D02*
D03*
D35*
X440000Y469500D02*
D03*
X317000Y514500D02*
D03*
X343000Y481000D02*
D03*
X501000Y123000D02*
D03*
X371800Y68600D02*
D03*
D36*
X181400Y182400D02*
D03*
Y192400D02*
D03*
Y202400D02*
D03*
Y212400D02*
D03*
X211400D02*
D03*
Y202400D02*
D03*
Y192400D02*
D03*
D37*
Y182400D02*
D03*
D38*
X46700Y516100D02*
D03*
Y526100D02*
D03*
Y536100D02*
D03*
Y546100D02*
D03*
Y556100D02*
D03*
Y566100D02*
D03*
Y576100D02*
D03*
X283000Y69500D02*
D03*
X278000Y79500D02*
D03*
X273000Y69500D02*
D03*
X268000Y79500D02*
D03*
X263000Y69500D02*
D03*
X258000Y79500D02*
D03*
X253000Y69500D02*
D03*
X292000Y98500D02*
D03*
X282000D02*
D03*
X259000D02*
D03*
X249000D02*
D03*
D39*
X46700Y586100D02*
D03*
D40*
X138950Y416000D02*
D03*
X133044D02*
D03*
X127139D02*
D03*
X121233D02*
D03*
X115328D02*
D03*
X109422D02*
D03*
X103517D02*
D03*
X97611D02*
D03*
X91706D02*
D03*
X85800D02*
D03*
X79894D02*
D03*
X73989D02*
D03*
X68083D02*
D03*
X62178D02*
D03*
X56272D02*
D03*
X50367D02*
D03*
X44461D02*
D03*
D41*
X159816Y408323D02*
D03*
X23595D02*
D03*
D42*
X332700Y161300D02*
D03*
Y142100D02*
D03*
X177776Y265824D02*
D03*
X164200Y279400D02*
D03*
D43*
X611300Y467700D02*
D03*
Y457700D02*
D03*
Y447700D02*
D03*
Y437700D02*
D03*
Y427700D02*
D03*
Y417700D02*
D03*
Y407700D02*
D03*
Y397700D02*
D03*
Y387700D02*
D03*
Y377700D02*
D03*
Y367700D02*
D03*
Y357700D02*
D03*
Y347700D02*
D03*
Y337700D02*
D03*
Y327700D02*
D03*
Y317700D02*
D03*
Y307700D02*
D03*
Y297700D02*
D03*
Y287700D02*
D03*
Y277700D02*
D03*
Y267700D02*
D03*
Y257700D02*
D03*
Y247700D02*
D03*
Y237700D02*
D03*
Y227700D02*
D03*
Y217700D02*
D03*
Y207700D02*
D03*
Y197700D02*
D03*
Y187700D02*
D03*
D44*
Y177700D02*
D03*
X84200Y159000D02*
D03*
Y169000D02*
D03*
Y179000D02*
D03*
X84300Y218700D02*
D03*
Y228700D02*
D03*
Y238700D02*
D03*
X83900Y278300D02*
D03*
Y288300D02*
D03*
Y298300D02*
D03*
X84100Y96400D02*
D03*
Y106400D02*
D03*
Y116400D02*
D03*
D45*
X611300Y140200D02*
D03*
D46*
Y505200D02*
D03*
D47*
X506200Y564600D02*
D03*
X516200Y574600D02*
D03*
X506200D02*
D03*
X516200Y564600D02*
D03*
Y554600D02*
D03*
X506200D02*
D03*
Y584600D02*
D03*
X516200D02*
D03*
X506200Y594600D02*
D03*
Y544600D02*
D03*
X496200D02*
D03*
X486200D02*
D03*
X476200D02*
D03*
X466200D02*
D03*
X496200Y554600D02*
D03*
X486200D02*
D03*
X476200D02*
D03*
X466200D02*
D03*
X496200Y594600D02*
D03*
X486200D02*
D03*
X476200D02*
D03*
X466200D02*
D03*
X496200Y584600D02*
D03*
X486200D02*
D03*
X476200D02*
D03*
X466200D02*
D03*
X456200D02*
D03*
X466200Y574600D02*
D03*
Y564600D02*
D03*
X456200Y574600D02*
D03*
Y564600D02*
D03*
Y554600D02*
D03*
X443800Y188700D02*
D03*
X453800Y178700D02*
D03*
Y188700D02*
D03*
X463800Y178700D02*
D03*
Y188700D02*
D03*
X473800Y178700D02*
D03*
X483800Y188700D02*
D03*
X473800D02*
D03*
X483800Y198700D02*
D03*
X473800D02*
D03*
X483800Y208700D02*
D03*
X473800D02*
D03*
X483800Y218700D02*
D03*
X473800D02*
D03*
X483800Y228700D02*
D03*
X473800D02*
D03*
X483800Y238700D02*
D03*
X473800Y248700D02*
D03*
Y238700D02*
D03*
X463800Y248700D02*
D03*
Y238700D02*
D03*
X453800Y248700D02*
D03*
Y238700D02*
D03*
X443800Y248700D02*
D03*
Y238700D02*
D03*
X433800Y248700D02*
D03*
Y238700D02*
D03*
X423800Y248700D02*
D03*
X413800Y238700D02*
D03*
X423800D02*
D03*
X413800Y228700D02*
D03*
X423800D02*
D03*
X413800Y218700D02*
D03*
X423800D02*
D03*
X413800Y208700D02*
D03*
X423800D02*
D03*
X413800Y198700D02*
D03*
X423800D02*
D03*
X413800Y188700D02*
D03*
X423800Y178700D02*
D03*
Y188700D02*
D03*
X433800Y178700D02*
D03*
Y188700D02*
D03*
X443800Y178700D02*
D03*
X493200Y40400D02*
D03*
Y50400D02*
D03*
Y60400D02*
D03*
Y70400D02*
D03*
X523200D02*
D03*
Y60400D02*
D03*
Y50400D02*
D03*
X168000Y521000D02*
D03*
Y511000D02*
D03*
Y501000D02*
D03*
Y491000D02*
D03*
Y481000D02*
D03*
Y471000D02*
D03*
Y461000D02*
D03*
Y451000D02*
D03*
Y441000D02*
D03*
Y431000D02*
D03*
X138000D02*
D03*
Y441000D02*
D03*
Y451000D02*
D03*
Y461000D02*
D03*
Y471000D02*
D03*
Y481000D02*
D03*
Y491000D02*
D03*
Y501000D02*
D03*
Y511000D02*
D03*
D48*
X301200Y56500D02*
D03*
X239800D02*
D03*
D49*
X288000Y79500D02*
D03*
D50*
X248000Y44500D02*
D03*
X293000D02*
D03*
D51*
X64800Y54100D02*
D03*
D52*
X82800Y43600D02*
D03*
D53*
X64800Y30600D02*
D03*
D54*
X199000Y294000D02*
D03*
Y298300D02*
D03*
D55*
X523200Y40400D02*
D03*
X138000Y521000D02*
D03*
D56*
X201358Y588600D02*
D03*
X221043D02*
D03*
X230885D02*
D03*
X191515Y608285D02*
D03*
X230885D02*
D03*
X191515Y618127D02*
D03*
X230885D02*
D03*
X211200Y608285D02*
D03*
Y588600D02*
D03*
X191515D02*
D03*
X146157Y588715D02*
D03*
X165842D02*
D03*
X175685D02*
D03*
X136315Y608400D02*
D03*
X175685D02*
D03*
X136315Y618242D02*
D03*
X175685D02*
D03*
X156000Y608400D02*
D03*
Y588715D02*
D03*
X136315D02*
D03*
D57*
X30000Y620000D02*
D03*
X640000D02*
D03*
Y30000D02*
D03*
X30000D02*
D03*
D58*
X14200Y169000D02*
D03*
X14300Y228700D02*
D03*
X13900Y288300D02*
D03*
X14100Y106400D02*
D03*
D59*
X452600Y210400D02*
D03*
X457100Y210500D02*
D03*
X460900Y196200D02*
D03*
X493300Y174600D02*
D03*
X506400Y166800D02*
D03*
X551600Y124900D02*
D03*
X418900Y223100D02*
D03*
X421700Y203500D02*
D03*
X429100Y211100D02*
D03*
X428900Y218400D02*
D03*
X448247Y190900D02*
D03*
X494300Y165800D02*
D03*
X478500Y170500D02*
D03*
X498200Y190000D02*
D03*
X449300Y194600D02*
D03*
X495100Y194100D02*
D03*
X442400Y254500D02*
D03*
X459600Y254600D02*
D03*
X593100Y183800D02*
D03*
X508400Y248700D02*
D03*
X515400Y241700D02*
D03*
X511300Y231400D02*
D03*
X287367Y119167D02*
D03*
X274300Y125100D02*
D03*
X269969Y126331D02*
D03*
X266357Y124643D02*
D03*
X267700Y148200D02*
D03*
X265300Y131500D02*
D03*
Y142300D02*
D03*
X270700Y143600D02*
D03*
X454000Y289300D02*
D03*
X259863Y358862D02*
D03*
X295800Y356100D02*
D03*
X330600Y355700D02*
D03*
X446800Y338700D02*
D03*
X446900Y392100D02*
D03*
X188800Y577100D02*
D03*
X148900Y597900D02*
D03*
X201100Y576800D02*
D03*
X199000Y573600D02*
D03*
X237185Y576500D02*
D03*
X252600Y566500D02*
D03*
X261800D02*
D03*
X117500Y524100D02*
D03*
X86700Y554900D02*
D03*
X424000Y533000D02*
D03*
X427700Y532000D02*
D03*
X420000Y533500D02*
D03*
X416000Y534500D02*
D03*
X408500Y537000D02*
D03*
X370100Y532500D02*
D03*
X375000Y527600D02*
D03*
X397800Y523100D02*
D03*
X439600Y530400D02*
D03*
X453000Y530200D02*
D03*
X400300Y538000D02*
D03*
X410700Y555300D02*
D03*
X412200Y565100D02*
D03*
X408000Y552700D02*
D03*
X397400Y535367D02*
D03*
X387900Y601800D02*
D03*
X405800Y600900D02*
D03*
X447500Y599800D02*
D03*
Y576600D02*
D03*
X444800Y569700D02*
D03*
X376500Y379500D02*
D03*
X395000Y368500D02*
D03*
X391300Y360900D02*
D03*
X446500Y398100D02*
D03*
X425500Y392300D02*
D03*
X414000Y394900D02*
D03*
X388200Y424600D02*
D03*
X454800Y398100D02*
D03*
X454989Y385011D02*
D03*
X522300Y498300D02*
D03*
X369300Y523300D02*
D03*
X373800Y518800D02*
D03*
X400300D02*
D03*
X413000Y506100D02*
D03*
X334756Y420856D02*
D03*
X258700Y423500D02*
D03*
X267900Y421100D02*
D03*
X133600Y454600D02*
D03*
X132400Y459400D02*
D03*
X124100Y469800D02*
D03*
X112200Y468400D02*
D03*
X113800Y476900D02*
D03*
X119900Y468800D02*
D03*
X116200Y468900D02*
D03*
X62000Y476100D02*
D03*
X333300Y192600D02*
D03*
X326700Y185600D02*
D03*
X316100Y160400D02*
D03*
X308005Y158505D02*
D03*
X296300Y146600D02*
D03*
X284900D02*
D03*
X299636Y139836D02*
D03*
X278400Y124400D02*
D03*
X308600Y233200D02*
D03*
X321400Y241400D02*
D03*
X280500Y241200D02*
D03*
X250800Y228900D02*
D03*
X255700Y239400D02*
D03*
X252000Y239900D02*
D03*
X248200Y226267D02*
D03*
X245000Y233800D02*
D03*
X247700Y231100D02*
D03*
X241100Y233200D02*
D03*
X238300Y236600D02*
D03*
X236084Y224016D02*
D03*
X238700Y221400D02*
D03*
X239100Y194600D02*
D03*
X235400D02*
D03*
X244600Y192200D02*
D03*
X283600Y224500D02*
D03*
X319200Y260600D02*
D03*
X243500Y143900D02*
D03*
X247605Y141805D02*
D03*
X322630Y267130D02*
D03*
X292300Y231600D02*
D03*
X297100Y227200D02*
D03*
X311300Y165700D02*
D03*
X304800Y176000D02*
D03*
X309300Y172800D02*
D03*
X311500Y149700D02*
D03*
X314600Y147200D02*
D03*
Y138300D02*
D03*
X306000Y127900D02*
D03*
X275700Y208400D02*
D03*
X275200Y216100D02*
D03*
X272300Y224400D02*
D03*
X298900Y131600D02*
D03*
X296425Y128025D02*
D03*
X353600Y84200D02*
D03*
X348200Y78800D02*
D03*
X222200Y94500D02*
D03*
X230400D02*
D03*
X311715Y96085D02*
D03*
Y114285D02*
D03*
X346900Y94600D02*
D03*
X448500Y40200D02*
D03*
X436400Y100500D02*
D03*
X471260Y297689D02*
D03*
Y301626D02*
D03*
Y305563D02*
D03*
X406900Y213400D02*
D03*
X257100Y389219D02*
D03*
X492300Y326800D02*
D03*
X641000Y385100D02*
D03*
X421700Y585000D02*
D03*
X236590Y147710D02*
D03*
X239500Y145300D02*
D03*
X168600Y225500D02*
D03*
X285800Y53200D02*
D03*
X303200Y72000D02*
D03*
X286200Y87200D02*
D03*
X282100Y126300D02*
D03*
X339100Y93200D02*
D03*
X228553Y132653D02*
D03*
X335700Y91200D02*
D03*
X224853Y115100D02*
D03*
X222647Y132853D02*
D03*
X257800Y92000D02*
D03*
X89100Y473300D02*
D03*
X88500Y457100D02*
D03*
X77800Y455300D02*
D03*
X72200Y455200D02*
D03*
X65900Y454900D02*
D03*
X68500Y462474D02*
D03*
X21332Y462100D02*
D03*
X27600Y464200D02*
D03*
X38400Y475000D02*
D03*
X57100Y473600D02*
D03*
X75800Y474400D02*
D03*
X49900Y478100D02*
D03*
X7700Y445000D02*
D03*
X68500Y450326D02*
D03*
X80520Y473680D02*
D03*
X85400Y473900D02*
D03*
X243300Y350800D02*
D03*
X243800Y315300D02*
D03*
X244793Y283307D02*
D03*
X250300Y279000D02*
D03*
X271900Y268400D02*
D03*
X285228Y260172D02*
D03*
X287600Y268200D02*
D03*
X343766Y310866D02*
D03*
X334800Y312700D02*
D03*
X334600Y335200D02*
D03*
X330800Y352000D02*
D03*
X223200Y247000D02*
D03*
X365300Y89600D02*
D03*
Y103700D02*
D03*
X436600Y228500D02*
D03*
X436244Y216700D02*
D03*
X482740Y295721D02*
D03*
Y303595D02*
D03*
X483900Y309100D02*
D03*
X470688Y314488D02*
D03*
X72500Y403700D02*
D03*
X136000Y236800D02*
D03*
X141700Y195300D02*
D03*
Y200100D02*
D03*
Y204600D02*
D03*
X245300Y323700D02*
D03*
X259700Y265800D02*
D03*
X340895Y352205D02*
D03*
X292906Y392706D02*
D03*
X292600Y439400D02*
D03*
X271300D02*
D03*
X265347Y417054D02*
D03*
X392000Y537500D02*
D03*
X407500Y500000D02*
D03*
X500500Y523500D02*
D03*
X404000Y537000D02*
D03*
X471260Y285878D02*
D03*
Y289815D02*
D03*
X396000Y489000D02*
D03*
X399000Y491500D02*
D03*
X401500Y494500D02*
D03*
X388000Y536500D02*
D03*
X404000Y497500D02*
D03*
X393000Y486500D02*
D03*
X364000Y606500D02*
D03*
X538500Y628500D02*
D03*
X545500Y626500D02*
D03*
X549000Y624500D02*
D03*
X552500Y622000D02*
D03*
X394052Y604552D02*
D03*
X202318Y550418D02*
D03*
X215300Y562800D02*
D03*
X215113Y551287D02*
D03*
X339700Y409700D02*
D03*
X380100Y437800D02*
D03*
X425700D02*
D03*
X413800Y438300D02*
D03*
X392000Y437800D02*
D03*
X389500Y355000D02*
D03*
X379800Y396100D02*
D03*
X385500Y391200D02*
D03*
X392000Y394800D02*
D03*
X399100Y392100D02*
D03*
X408900Y387700D02*
D03*
X419800Y385500D02*
D03*
X454400Y321200D02*
D03*
Y309700D02*
D03*
X385182Y348500D02*
D03*
X395000Y376500D02*
D03*
X392500Y371400D02*
D03*
X456695Y315406D02*
D03*
X470688Y327188D02*
D03*
X482740Y283910D02*
D03*
Y291784D02*
D03*
X321378Y438522D02*
D03*
X366478D02*
D03*
X354843Y438458D02*
D03*
X462000Y379300D02*
D03*
X472200Y389200D02*
D03*
X471100Y376000D02*
D03*
X472000Y356100D02*
D03*
X454956Y375244D02*
D03*
X453717Y355784D02*
D03*
X261300Y413700D02*
D03*
X407400Y619700D02*
D03*
X409000Y588200D02*
D03*
X490300Y563609D02*
D03*
X52000Y459500D02*
D03*
X54700Y456900D02*
D03*
X99000Y465300D02*
D03*
X154644Y515344D02*
D03*
X50500Y281600D02*
D03*
X54200Y278200D02*
D03*
X532300Y500000D02*
D03*
X552800Y500800D02*
D03*
X550500Y506000D02*
D03*
X531969Y455132D02*
D03*
X552700Y453200D02*
D03*
X552837Y449100D02*
D03*
X540700Y512000D02*
D03*
X547200Y444200D02*
D03*
X198300Y554400D02*
D03*
X277600Y140500D02*
D03*
X253000Y267400D02*
D03*
X247827Y259373D02*
D03*
X329000Y225400D02*
D03*
X275900Y180500D02*
D03*
X268100Y184000D02*
D03*
X268300Y230700D02*
D03*
X256200Y216100D02*
D03*
X254000Y211600D02*
D03*
X246100Y215200D02*
D03*
X267400Y238400D02*
D03*
X294200Y352100D02*
D03*
X281291Y355309D02*
D03*
X275300Y355200D02*
D03*
X250500Y351100D02*
D03*
X296174Y274500D02*
D03*
X292474D02*
D03*
X299874D02*
D03*
X266330Y337530D02*
D03*
X268946Y340146D02*
D03*
X271562Y342762D02*
D03*
X246430Y357430D02*
D03*
X243813Y354813D02*
D03*
X249046Y360046D02*
D03*
X251662Y362662D02*
D03*
X206900Y517932D02*
D03*
X211700Y519500D02*
D03*
X209500Y527200D02*
D03*
X213200Y526900D02*
D03*
X353100Y183200D02*
D03*
X367700D02*
D03*
X383616Y90116D02*
D03*
X426400Y101000D02*
D03*
X333189Y407689D02*
D03*
X309600Y389100D02*
D03*
X257100Y381582D02*
D03*
Y377882D02*
D03*
Y385519D02*
D03*
X312787Y361613D02*
D03*
X358200Y409600D02*
D03*
X358900Y394300D02*
D03*
X362600Y393700D02*
D03*
X319800Y359300D02*
D03*
X323100Y356500D02*
D03*
X319000Y351500D02*
D03*
X365800Y380100D02*
D03*
X344094Y340394D02*
D03*
X140500Y236800D02*
D03*
X145200Y234800D02*
D03*
X154300Y231600D02*
D03*
X150500D02*
D03*
X157184Y251684D02*
D03*
X151951Y246451D02*
D03*
X149335Y243835D02*
D03*
X146719Y241219D02*
D03*
X154567Y249067D02*
D03*
X159800Y254300D02*
D03*
X188400Y286700D02*
D03*
X153900Y281500D02*
D03*
X214900Y288800D02*
D03*
X261400Y289400D02*
D03*
X206800Y320500D02*
D03*
X211600Y324200D02*
D03*
X154950Y388550D02*
D03*
X176400Y367100D02*
D03*
X180900Y333200D02*
D03*
X242008Y302992D02*
D03*
X247900Y302700D02*
D03*
X259400Y286100D02*
D03*
X264500Y294600D02*
D03*
X223800Y364400D02*
D03*
X221016Y361616D02*
D03*
X218400Y359000D02*
D03*
X215784Y356384D02*
D03*
X213167Y353767D02*
D03*
X208991Y349591D02*
D03*
X206375Y346975D02*
D03*
X187463Y430037D02*
D03*
X188400Y523900D02*
D03*
X305300Y585500D02*
D03*
X427400Y570100D02*
D03*
X438500Y526700D02*
D03*
X387500Y480500D02*
D03*
X390000Y483500D02*
D03*
X362300Y469100D02*
D03*
X333189Y438511D02*
D03*
X349000Y409700D02*
D03*
X355900Y412900D02*
D03*
X358780Y463220D02*
D03*
X487700Y526300D02*
D03*
X351900Y610700D02*
D03*
X357100Y609500D02*
D03*
X386500Y532500D02*
D03*
X382500Y532000D02*
D03*
X378500Y533000D02*
D03*
X359700Y605000D02*
D03*
X354700Y602400D02*
D03*
X364900Y448900D02*
D03*
X309600Y377763D02*
D03*
Y385400D02*
D03*
Y381463D02*
D03*
X314700Y377900D02*
D03*
Y407500D02*
D03*
X311300Y427800D02*
D03*
X315900Y420100D02*
D03*
X194300Y229433D02*
D03*
X201200Y227400D02*
D03*
X204900D02*
D03*
X197500D02*
D03*
X270800Y395300D02*
D03*
X377400Y87900D02*
D03*
X470400Y40600D02*
D03*
X520000Y80153D02*
D03*
X472000Y344400D02*
D03*
X468900Y321400D02*
D03*
X336500Y296000D02*
D03*
X303574Y274500D02*
D03*
X342496Y271496D02*
D03*
X335702Y277402D02*
D03*
X338456Y286200D02*
D03*
X384800Y344219D02*
D03*
X379900Y328000D02*
D03*
X436000Y312000D02*
D03*
X433767Y309000D02*
D03*
X381309Y332891D02*
D03*
X381500Y336900D02*
D03*
X436500Y305000D02*
D03*
X434067Y302200D02*
D03*
X433500Y298400D02*
D03*
X433000Y292500D02*
D03*
X430780Y295721D02*
D03*
X336600Y445600D02*
D03*
X405000Y243300D02*
D03*
X342800Y303700D02*
D03*
X344600Y297500D02*
D03*
X328900Y300900D02*
D03*
X306700D02*
D03*
X215300Y325400D02*
D03*
X239200Y314400D02*
D03*
X263713Y334913D02*
D03*
X263100Y351100D02*
D03*
X247600Y329500D02*
D03*
X243100Y335800D02*
D03*
X239200Y331300D02*
D03*
X225100Y325200D02*
D03*
X423991Y283910D02*
D03*
X428585Y289815D02*
D03*
X427400Y286100D02*
D03*
X373600Y308900D02*
D03*
Y429700D02*
D03*
X447800Y259900D02*
D03*
X418300Y268300D02*
D03*
X399500D02*
D03*
X431000Y232800D02*
D03*
X241600Y211500D02*
D03*
X238000Y215900D02*
D03*
X229900Y209000D02*
D03*
Y222000D02*
D03*
X285900Y241400D02*
D03*
X275700Y241000D02*
D03*
X230500Y239700D02*
D03*
X216600Y214900D02*
D03*
X240600Y550500D02*
D03*
X227800Y537700D02*
D03*
X217900D02*
D03*
X198900Y537500D02*
D03*
X457100Y217000D02*
D03*
X478500Y159600D02*
D03*
X365030Y279370D02*
D03*
X401700Y240000D02*
D03*
X260900Y588500D02*
D03*
X260100Y576100D02*
D03*
X306200Y131600D02*
D03*
X309900Y137500D02*
D03*
X379300Y140600D02*
D03*
X389500Y154200D02*
D03*
X398000Y160200D02*
D03*
X406500Y168700D02*
D03*
Y195800D02*
D03*
Y205600D02*
D03*
M02*
