G04 Layer_Physical_Order=2*
G04 Layer_Color=16711680*
%FSLAX25Y25*%
%MOIN*%
G70*
G01*
G75*
%ADD10R,0.03150X0.03543*%
%ADD21R,0.03543X0.02756*%
%ADD22R,0.02756X0.03543*%
%ADD23R,0.03150X0.03543*%
%ADD24R,0.03543X0.03150*%
%ADD30C,0.02000*%
%ADD31C,0.01200*%
%ADD32C,0.01000*%
%ADD33C,0.00800*%
%ADD35C,0.03000*%
%ADD36C,0.05000*%
%ADD37C,0.06000*%
%ADD38R,0.05905X0.05905*%
%ADD39C,0.05905*%
%ADD40C,0.03937*%
%ADD41C,0.06600*%
%ADD42R,0.05905X0.05905*%
%ADD43C,0.03400*%
%ADD44C,0.04500*%
%ADD45C,0.13780*%
%ADD46C,0.15748*%
%ADD47R,0.06000X0.06000*%
%ADD48C,0.08000*%
%ADD49C,0.15000*%
%ADD50C,0.04000*%
%ADD51R,0.04000X0.04000*%
%ADD52C,0.05000*%
%ADD53C,0.06200*%
%ADD54C,0.11000*%
%ADD55C,0.09000*%
%ADD56R,0.06200X0.06200*%
%ADD57C,0.22000*%
%ADD58C,0.07000*%
%ADD59R,0.07000X0.07000*%
%ADD60R,0.06000X0.06000*%
%ADD61C,0.06299*%
%ADD62C,0.03000*%
%ADD63R,0.04331X0.12992*%
G36*
X178368Y334698D02*
X178589Y334241D01*
X178545Y334175D01*
X178451Y333700D01*
X183350D01*
X183267Y334114D01*
X183355Y334355D01*
X183495Y334607D01*
X226400Y333200D01*
Y328230D01*
X225508Y327339D01*
X225158Y327572D01*
X224300Y327743D01*
X223442Y327572D01*
X222714Y327086D01*
X222228Y326358D01*
X222057Y325500D01*
X222228Y324642D01*
X222714Y323914D01*
X223442Y323428D01*
X224300Y323257D01*
X225158Y323428D01*
X225886Y323914D01*
X225900Y323935D01*
X226400Y323783D01*
Y302013D01*
X226002Y301711D01*
X177500Y315200D01*
Y334338D01*
X177957Y334749D01*
X178368Y334698D01*
D02*
G37*
G36*
X290200Y300500D02*
X291250D01*
Y287805D01*
X290750Y287653D01*
X290693Y287740D01*
X290362Y287961D01*
X289972Y288038D01*
X288700D01*
Y285444D01*
Y282850D01*
X289972D01*
X290362Y282927D01*
X290693Y283148D01*
X290750Y283235D01*
X291250Y283083D01*
Y277070D01*
X251900Y276300D01*
X251849Y277389D01*
X251886Y277414D01*
X252197Y277878D01*
X252600D01*
X252600Y277878D01*
X253029Y277964D01*
X253393Y278207D01*
X255549Y280363D01*
X255549Y280363D01*
X255650Y280515D01*
X256331D01*
X256604Y280569D01*
X256836Y280724D01*
X256990Y280955D01*
X257045Y281228D01*
Y284225D01*
X257544Y284377D01*
X257598Y284298D01*
X258424Y283745D01*
X258900Y283650D01*
Y286100D01*
X259900D01*
Y283650D01*
X260375Y283745D01*
X260941Y284123D01*
X269109D01*
Y283669D01*
X269186Y283279D01*
X269407Y282948D01*
X269738Y282727D01*
X270128Y282650D01*
X271400D01*
Y285244D01*
X272400D01*
Y282650D01*
X273672D01*
X274062Y282727D01*
X274393Y282948D01*
X274614Y283279D01*
X274656Y283491D01*
X275156Y283441D01*
Y283028D01*
X275210Y282755D01*
X275365Y282524D01*
X275596Y282369D01*
X275869Y282315D01*
X279019D01*
X279292Y282369D01*
X279524Y282524D01*
X279678Y282755D01*
X279733Y283028D01*
Y286572D01*
X279678Y286845D01*
X279524Y287076D01*
X279292Y287231D01*
X279019Y287285D01*
X278269D01*
Y288300D01*
X278269Y288300D01*
X278269Y288300D01*
Y289015D01*
X278525D01*
X278798Y289069D01*
X279030Y289224D01*
X279185Y289455D01*
X279239Y289728D01*
Y293272D01*
X279185Y293545D01*
X279030Y293776D01*
X278798Y293931D01*
X278525Y293985D01*
X275769D01*
X275496Y293931D01*
X275265Y293776D01*
X275110Y293545D01*
X275056Y293272D01*
Y289902D01*
X274673Y289546D01*
X274625Y289523D01*
X274385Y289596D01*
Y292331D01*
X274331Y292604D01*
X274176Y292835D01*
X273945Y292990D01*
X273672Y293044D01*
X271198D01*
X268849Y295393D01*
X268485Y295636D01*
X268056Y295722D01*
X268056Y295722D01*
X266396D01*
X266086Y296186D01*
X265358Y296672D01*
X264500Y296843D01*
X263642Y296672D01*
X262914Y296186D01*
X262428Y295458D01*
X262257Y294600D01*
X262428Y293742D01*
X262914Y293014D01*
X263642Y292528D01*
X264500Y292357D01*
X265358Y292528D01*
X266086Y293014D01*
X266396Y293478D01*
X267591D01*
X269415Y291655D01*
Y289203D01*
X263805D01*
X263643Y289400D01*
X263472Y290258D01*
X262986Y290986D01*
X262258Y291472D01*
X261400Y291643D01*
X260542Y291472D01*
X259814Y290986D01*
X259328Y290258D01*
X259157Y289400D01*
X259310Y288631D01*
X258424Y288455D01*
X257598Y287902D01*
X257045Y287075D01*
X256989Y286795D01*
X256489Y286844D01*
Y300067D01*
X288300Y301000D01*
X290200Y300500D01*
D02*
G37*
G36*
X334244Y195256D02*
X334226Y195160D01*
X333653Y194773D01*
X333300Y194843D01*
X332442Y194672D01*
X331714Y194186D01*
X331228Y193458D01*
X331057Y192600D01*
X331166Y192052D01*
X326914Y187801D01*
X326700Y187843D01*
X325842Y187672D01*
X325114Y187186D01*
X324628Y186458D01*
X324457Y185600D01*
X324628Y184742D01*
X325114Y184014D01*
X325842Y183528D01*
X326700Y183357D01*
X327558Y183528D01*
X328286Y184014D01*
X328772Y184742D01*
X328943Y185600D01*
X328772Y186458D01*
X328761Y186475D01*
X332752Y190466D01*
X333300Y190357D01*
X334158Y190528D01*
X334886Y191014D01*
X335372Y191742D01*
X335543Y192600D01*
X335473Y192953D01*
X335860Y193526D01*
X335956Y193544D01*
X351200Y178300D01*
X361300D01*
Y174726D01*
X359974Y173400D01*
X359599Y172838D01*
X359467Y172175D01*
Y137567D01*
X336200Y114300D01*
X332800D01*
Y55000D01*
X298000Y20200D01*
Y19900D01*
X218986D01*
X216100Y22786D01*
Y113978D01*
X222956D01*
X223267Y113514D01*
X223994Y113028D01*
X224853Y112857D01*
X225711Y113028D01*
X226439Y113514D01*
X226925Y114242D01*
X227096Y115100D01*
X226925Y115958D01*
X226439Y116686D01*
X225711Y117172D01*
X224853Y117343D01*
X223994Y117172D01*
X223267Y116686D01*
X222956Y116222D01*
X216100D01*
Y128578D01*
X225600D01*
X225600Y128578D01*
X226029Y128664D01*
X226393Y128907D01*
X228005Y130519D01*
X228553Y130410D01*
X229411Y130580D01*
X230139Y131067D01*
X230625Y131794D01*
X230796Y132653D01*
X230625Y133511D01*
X230139Y134239D01*
X229411Y134725D01*
X228553Y134896D01*
X227694Y134725D01*
X226967Y134239D01*
X226481Y133511D01*
X226310Y132653D01*
X226419Y132105D01*
X225342Y131028D01*
X225059Y131062D01*
X224813Y131594D01*
X225002Y131877D01*
X225097Y132353D01*
X220198D01*
X220292Y131877D01*
X220664Y131322D01*
X220396Y130822D01*
X216100D01*
Y136000D01*
X218300Y145700D01*
Y165855D01*
X218800Y166062D01*
X221203Y163660D01*
Y161976D01*
X221203Y161976D01*
X221288Y161547D01*
X221531Y161183D01*
X234456Y148258D01*
X234347Y147710D01*
X234518Y146852D01*
X235004Y146124D01*
X235731Y145638D01*
X236590Y145467D01*
X236829Y145515D01*
X237297Y145098D01*
X237428Y144442D01*
X237914Y143714D01*
X238642Y143228D01*
X239500Y143057D01*
X240358Y143228D01*
X240820Y143536D01*
X241374Y143313D01*
X241428Y143042D01*
X241914Y142314D01*
X242642Y141828D01*
X243500Y141657D01*
X244358Y141828D01*
X244933Y142211D01*
X245387Y141933D01*
X245361Y141805D01*
X245532Y140946D01*
X246019Y140218D01*
X246746Y139732D01*
X247605Y139561D01*
X248463Y139732D01*
X249191Y140218D01*
X249677Y140946D01*
X249848Y141805D01*
X249677Y142663D01*
X249191Y143391D01*
X248726Y143701D01*
Y147195D01*
X248726Y147195D01*
X248641Y147625D01*
X248398Y147988D01*
X225713Y170673D01*
Y192629D01*
X226213Y192836D01*
X255456Y163593D01*
Y161728D01*
X255510Y161455D01*
X255665Y161224D01*
X255896Y161069D01*
X256169Y161015D01*
X259319D01*
X259592Y161069D01*
X259824Y161224D01*
X259978Y161455D01*
X260033Y161728D01*
Y165272D01*
X259978Y165545D01*
X259824Y165776D01*
X259592Y165931D01*
X259319Y165985D01*
X258968D01*
Y167515D01*
X259319D01*
X259592Y167569D01*
X259824Y167724D01*
X259978Y167955D01*
X260033Y168228D01*
Y171772D01*
X259978Y172045D01*
X259824Y172276D01*
X259592Y172431D01*
X259319Y172485D01*
X258968D01*
Y173715D01*
X259319D01*
X259592Y173769D01*
X259824Y173924D01*
X259978Y174155D01*
X260033Y174428D01*
Y177972D01*
X259978Y178245D01*
X259824Y178476D01*
X259592Y178631D01*
X259319Y178685D01*
X256169D01*
X255896Y178631D01*
X255665Y178476D01*
X255510Y178245D01*
X255456Y177972D01*
Y174428D01*
X255510Y174155D01*
X255665Y173924D01*
X255896Y173769D01*
X256169Y173715D01*
X256521D01*
Y172485D01*
X256169D01*
X255896Y172431D01*
X255665Y172276D01*
X255510Y172045D01*
X255456Y171772D01*
Y169149D01*
X254994Y168958D01*
X228433Y195518D01*
Y203133D01*
X231679Y206379D01*
X232178Y206171D01*
Y196700D01*
X232178Y196700D01*
X232264Y196271D01*
X232507Y195907D01*
X233266Y195148D01*
X233157Y194600D01*
X233328Y193742D01*
X233814Y193014D01*
X234542Y192528D01*
X235400Y192357D01*
X236258Y192528D01*
X236986Y193014D01*
X237000Y193035D01*
X237500D01*
X237514Y193014D01*
X238242Y192528D01*
X239100Y192357D01*
X239958Y192528D01*
X240686Y193014D01*
X241172Y193742D01*
X241214Y193953D01*
X241693Y194098D01*
X242610Y193181D01*
X242528Y193058D01*
X242357Y192200D01*
X242528Y191342D01*
X243014Y190614D01*
X243742Y190128D01*
X244600Y189957D01*
X245458Y190128D01*
X246186Y190614D01*
X246672Y191342D01*
X246843Y192200D01*
X246672Y193058D01*
X246186Y193786D01*
X245458Y194272D01*
X244600Y194443D01*
X244533Y194430D01*
X240970Y197993D01*
X240606Y198236D01*
X240177Y198322D01*
X240177Y198322D01*
X240065D01*
X239122Y199265D01*
Y206600D01*
X261523D01*
Y178960D01*
X261291Y178914D01*
X260960Y178693D01*
X260739Y178362D01*
X260662Y177972D01*
Y176700D01*
X263256D01*
X265850D01*
Y177972D01*
X265773Y178362D01*
X265552Y178693D01*
X265221Y178914D01*
X264989Y178960D01*
Y206600D01*
X267076D01*
Y185962D01*
X266514Y185586D01*
X266028Y184858D01*
X265857Y184000D01*
X266028Y183142D01*
X266514Y182414D01*
X267242Y181928D01*
X268100Y181757D01*
X268958Y181928D01*
X269686Y182414D01*
X270172Y183142D01*
X270343Y184000D01*
X270172Y184858D01*
X269686Y185586D01*
X269524Y185695D01*
Y206600D01*
X271076D01*
Y184100D01*
X271170Y183632D01*
X271435Y183235D01*
X273742Y180928D01*
X273657Y180500D01*
X273828Y179642D01*
X274314Y178914D01*
X275042Y178428D01*
X275900Y178257D01*
X276758Y178428D01*
X277486Y178914D01*
X277972Y179642D01*
X278143Y180500D01*
X277972Y181358D01*
X277486Y182086D01*
X276758Y182572D01*
X275900Y182743D01*
X275472Y182658D01*
X273523Y184607D01*
Y206600D01*
X274434D01*
X274842Y206328D01*
X275700Y206157D01*
X276558Y206328D01*
X276966Y206600D01*
X316114D01*
X316579Y206135D01*
Y175865D01*
X310507Y169793D01*
X310264Y169429D01*
X310178Y169000D01*
X310178Y169000D01*
Y167596D01*
X309714Y167286D01*
X309228Y166558D01*
X309057Y165700D01*
X309228Y164842D01*
X309714Y164114D01*
X310442Y163628D01*
X311300Y163457D01*
X312158Y163628D01*
X312886Y164114D01*
X313372Y164842D01*
X313543Y165700D01*
X313372Y166558D01*
X312886Y167286D01*
X312421Y167596D01*
Y168535D01*
X318493Y174607D01*
X318493Y174607D01*
X318736Y174971D01*
X318822Y175400D01*
X318822Y175400D01*
Y206600D01*
X318822Y206600D01*
X322900D01*
X334244Y195256D01*
D02*
G37*
%LPC*%
G36*
X204491Y323800D02*
X202200D01*
Y321706D01*
X202708D01*
X204335Y320079D01*
X204445Y319525D01*
X204998Y318698D01*
X205824Y318145D01*
X206300Y318051D01*
Y320500D01*
Y322950D01*
X205824Y322855D01*
X205169Y322417D01*
X204491Y323095D01*
Y323800D01*
D02*
G37*
G36*
X209249Y320000D02*
X207300D01*
Y318051D01*
X207775Y318145D01*
X208602Y318698D01*
X209155Y319525D01*
X209249Y320000D01*
D02*
G37*
G36*
X207300Y322950D02*
Y321000D01*
X209249D01*
X209155Y321476D01*
X208602Y322302D01*
X207775Y322855D01*
X207300Y322950D01*
D02*
G37*
G36*
X186672Y326233D02*
X183128D01*
X182855Y326178D01*
X182624Y326024D01*
X182469Y325792D01*
X182415Y325519D01*
Y322369D01*
X182469Y322096D01*
X182624Y321865D01*
X182855Y321710D01*
X183128Y321656D01*
X186672D01*
X186945Y321710D01*
X187176Y321865D01*
X187331Y322096D01*
X187385Y322369D01*
Y322823D01*
X187955D01*
Y321128D01*
X188010Y320855D01*
X188165Y320624D01*
X188396Y320469D01*
X188669Y320415D01*
X191425D01*
X191698Y320469D01*
X191930Y320624D01*
X192085Y320855D01*
X192139Y321128D01*
Y324672D01*
X192085Y324945D01*
X191930Y325176D01*
X191698Y325331D01*
X191425Y325385D01*
X188669D01*
X188396Y325331D01*
X188165Y325176D01*
X188091Y325066D01*
X187385D01*
Y325519D01*
X187331Y325792D01*
X187176Y326024D01*
X186945Y326178D01*
X186672Y326233D01*
D02*
G37*
G36*
Y332050D02*
X185400D01*
Y329956D01*
X187691D01*
Y331031D01*
X187614Y331421D01*
X187393Y331752D01*
X187062Y331973D01*
X186672Y332050D01*
D02*
G37*
G36*
X183350Y332700D02*
X181400D01*
Y330750D01*
X181609Y330792D01*
X182109Y330445D01*
Y329956D01*
X184400D01*
Y332050D01*
X183694D01*
X183320Y332550D01*
X183350Y332700D01*
D02*
G37*
G36*
X190311Y332491D02*
X189237D01*
X188846Y332414D01*
X188516Y332193D01*
X188295Y331862D01*
X188217Y331472D01*
Y330200D01*
X190311D01*
Y332491D01*
D02*
G37*
G36*
X180400Y332700D02*
X178451D01*
X178545Y332224D01*
X179098Y331398D01*
X179924Y330845D01*
X180400Y330750D01*
Y332700D01*
D02*
G37*
G36*
X192386Y332491D02*
X191311D01*
Y330200D01*
X193406D01*
Y331472D01*
X193328Y331862D01*
X193107Y332193D01*
X192776Y332414D01*
X192386Y332491D01*
D02*
G37*
G36*
X193406Y329200D02*
X191311D01*
Y326909D01*
X192386D01*
X192776Y326986D01*
X193107Y327207D01*
X193328Y327538D01*
X193406Y327928D01*
Y329200D01*
D02*
G37*
G36*
X197898Y332185D02*
X194749D01*
X194475Y332131D01*
X194244Y331976D01*
X194089Y331745D01*
X194035Y331472D01*
Y327928D01*
X194089Y327655D01*
X194244Y327424D01*
X194475Y327269D01*
X194749Y327215D01*
X195202D01*
Y326200D01*
X195202Y326200D01*
X195202Y326200D01*
Y325385D01*
X194575D01*
X194302Y325331D01*
X194070Y325176D01*
X193915Y324945D01*
X193861Y324672D01*
Y321128D01*
X193915Y320855D01*
X194070Y320624D01*
X194302Y320469D01*
X194575Y320415D01*
X197331D01*
X197604Y320469D01*
X197835Y320624D01*
X197990Y320855D01*
X198045Y321128D01*
Y324672D01*
X197990Y324945D01*
X197835Y325176D01*
X197784Y325211D01*
X197886Y325733D01*
X198061Y325853D01*
X198909D01*
Y324800D01*
X204491D01*
Y325853D01*
X208361D01*
X209466Y324748D01*
X209357Y324200D01*
X209528Y323342D01*
X210014Y322614D01*
X210742Y322128D01*
X211600Y321957D01*
X212458Y322128D01*
X213186Y322614D01*
X213626Y323272D01*
X213818Y323402D01*
X214134Y323533D01*
X214442Y323328D01*
X215300Y323157D01*
X216158Y323328D01*
X216886Y323814D01*
X217372Y324542D01*
X217543Y325400D01*
X217372Y326258D01*
X216886Y326986D01*
X216158Y327472D01*
X215300Y327643D01*
X214669Y327518D01*
X211581Y330605D01*
X211217Y330848D01*
X210788Y330933D01*
X210788Y330933D01*
X204185D01*
Y331387D01*
X204131Y331660D01*
X203976Y331891D01*
X203745Y332046D01*
X203472Y332100D01*
X199928D01*
X199655Y332046D01*
X199424Y331891D01*
X199269Y331660D01*
X199215Y331387D01*
Y328237D01*
X199099Y328096D01*
X198612D01*
Y331472D01*
X198558Y331745D01*
X198403Y331976D01*
X198171Y332131D01*
X197898Y332185D01*
D02*
G37*
G36*
X201200Y323800D02*
X198909D01*
Y322725D01*
X198986Y322335D01*
X199207Y322004D01*
X199538Y321783D01*
X199928Y321706D01*
X201200D01*
Y323800D01*
D02*
G37*
G36*
X184400Y328956D02*
X182109D01*
Y327881D01*
X182186Y327491D01*
X182407Y327160D01*
X182738Y326939D01*
X183128Y326862D01*
X184400D01*
Y328956D01*
D02*
G37*
G36*
X190311Y329200D02*
X188217D01*
Y327928D01*
X188295Y327538D01*
X188516Y327207D01*
X188846Y326986D01*
X189237Y326909D01*
X190311D01*
Y329200D01*
D02*
G37*
G36*
X187691Y328956D02*
X185400D01*
Y326862D01*
X186672D01*
X187062Y326939D01*
X187393Y327160D01*
X187614Y327491D01*
X187691Y327881D01*
Y328956D01*
D02*
G37*
G36*
X284431Y293985D02*
X281675D01*
X281402Y293931D01*
X281170Y293776D01*
X281015Y293545D01*
X280961Y293272D01*
Y289728D01*
X281015Y289455D01*
X281170Y289224D01*
X281402Y289069D01*
X281675Y289015D01*
X284431D01*
X284704Y289069D01*
X284935Y289224D01*
X285090Y289455D01*
X285144Y289728D01*
Y290378D01*
X285715D01*
Y289381D01*
X285769Y289108D01*
X285924Y288877D01*
X286155Y288722D01*
X286428Y288667D01*
X289972D01*
X290245Y288722D01*
X290476Y288877D01*
X290631Y289108D01*
X290685Y289381D01*
Y292531D01*
X290631Y292804D01*
X290476Y293036D01*
X290245Y293190D01*
X289972Y293245D01*
X286428D01*
X286155Y293190D01*
X285924Y293036D01*
X285769Y292804D01*
X285733Y292621D01*
X285144D01*
Y293272D01*
X285090Y293545D01*
X284935Y293776D01*
X284704Y293931D01*
X284431Y293985D01*
D02*
G37*
G36*
X287700Y288038D02*
X286428D01*
X286038Y287961D01*
X285707Y287740D01*
X285617Y287604D01*
X285400Y287419D01*
X284988Y287469D01*
X284921Y287514D01*
X284531Y287591D01*
X283456D01*
Y284800D01*
Y282009D01*
X284531D01*
X284921Y282086D01*
X285252Y282307D01*
X285473Y282638D01*
X285484Y282696D01*
X286038Y282927D01*
X286428Y282850D01*
X287700D01*
Y285444D01*
Y288038D01*
D02*
G37*
G36*
X282456Y287591D02*
X281381D01*
X280991Y287514D01*
X280660Y287293D01*
X280439Y286962D01*
X280362Y286572D01*
Y285300D01*
X282456D01*
Y287591D01*
D02*
G37*
G36*
Y284300D02*
X280362D01*
Y283028D01*
X280439Y282638D01*
X280660Y282307D01*
X280991Y282086D01*
X281381Y282009D01*
X282456D01*
Y284300D01*
D02*
G37*
G36*
X282000Y102232D02*
X281034Y102105D01*
X280134Y101732D01*
X279361Y101139D01*
X278768Y100366D01*
X278395Y99466D01*
X278268Y98500D01*
X278395Y97534D01*
X278768Y96634D01*
X279361Y95861D01*
X280134Y95268D01*
X281034Y94895D01*
X282000Y94768D01*
X282966Y94895D01*
X283866Y95268D01*
X284639Y95861D01*
X285232Y96634D01*
X285605Y97534D01*
X285732Y98500D01*
X285605Y99466D01*
X285232Y100366D01*
X284639Y101139D01*
X283866Y101732D01*
X282966Y102105D01*
X282000Y102232D01*
D02*
G37*
G36*
X259000D02*
X258034Y102105D01*
X257134Y101732D01*
X256361Y101139D01*
X255768Y100366D01*
X255395Y99466D01*
X255268Y98500D01*
X255395Y97534D01*
X255768Y96634D01*
X256361Y95861D01*
X257134Y95268D01*
X258034Y94895D01*
X259000Y94768D01*
X259966Y94895D01*
X260866Y95268D01*
X261639Y95861D01*
X262232Y96634D01*
X262605Y97534D01*
X262732Y98500D01*
X262605Y99466D01*
X262232Y100366D01*
X261639Y101139D01*
X260866Y101732D01*
X259966Y102105D01*
X259000Y102232D01*
D02*
G37*
G36*
X292000D02*
X291034Y102105D01*
X290134Y101732D01*
X289361Y101139D01*
X288768Y100366D01*
X288395Y99466D01*
X288268Y98500D01*
X288395Y97534D01*
X288768Y96634D01*
X289361Y95861D01*
X290134Y95268D01*
X291034Y94895D01*
X292000Y94768D01*
X292966Y94895D01*
X293866Y95268D01*
X294639Y95861D01*
X295232Y96634D01*
X295605Y97534D01*
X295732Y98500D01*
X295605Y99466D01*
X295232Y100366D01*
X294639Y101139D01*
X293866Y101732D01*
X292966Y102105D01*
X292000Y102232D01*
D02*
G37*
G36*
X314164Y113785D02*
X309265D01*
X309360Y113310D01*
X309913Y112483D01*
X310593Y112028D01*
Y98342D01*
X309913Y97887D01*
X309360Y97061D01*
X309265Y96585D01*
X314164D01*
X314070Y97061D01*
X313517Y97887D01*
X312837Y98342D01*
Y112028D01*
X313517Y112483D01*
X314070Y113310D01*
X314164Y113785D01*
D02*
G37*
G36*
X230400Y96743D02*
X229542Y96572D01*
X228814Y96086D01*
X228503Y95622D01*
X224096D01*
X223786Y96086D01*
X223058Y96572D01*
X222200Y96743D01*
X221342Y96572D01*
X220614Y96086D01*
X220128Y95358D01*
X219957Y94500D01*
X220128Y93642D01*
X220614Y92914D01*
X221342Y92428D01*
X222200Y92257D01*
X223058Y92428D01*
X223786Y92914D01*
X224096Y93378D01*
X228503D01*
X228814Y92914D01*
X229542Y92428D01*
X230400Y92257D01*
X231258Y92428D01*
X231986Y92914D01*
X232472Y93642D01*
X232643Y94500D01*
X232472Y95358D01*
X231986Y96086D01*
X231258Y96572D01*
X230400Y96743D01*
D02*
G37*
G36*
X249000Y102232D02*
X248034Y102105D01*
X247134Y101732D01*
X246361Y101139D01*
X245768Y100366D01*
X245395Y99466D01*
X245268Y98500D01*
X245395Y97534D01*
X245768Y96634D01*
X246361Y95861D01*
X247134Y95268D01*
X248034Y94895D01*
X249000Y94768D01*
X249966Y94895D01*
X250866Y95268D01*
X251639Y95861D01*
X252232Y96634D01*
X252605Y97534D01*
X252732Y98500D01*
X252605Y99466D01*
X252232Y100366D01*
X251639Y101139D01*
X250866Y101732D01*
X249966Y102105D01*
X249000Y102232D01*
D02*
G37*
G36*
X286200Y89443D02*
X285342Y89272D01*
X284614Y88786D01*
X284128Y88058D01*
X283957Y87200D01*
X283983Y87069D01*
X279710Y82796D01*
X278966Y83105D01*
X278000Y83232D01*
X277034Y83105D01*
X276134Y82732D01*
X275361Y82139D01*
X274768Y81366D01*
X274395Y80466D01*
X274268Y79500D01*
X274395Y78534D01*
X274768Y77634D01*
X275361Y76861D01*
X276134Y76268D01*
X277034Y75895D01*
X278000Y75768D01*
X278966Y75895D01*
X279866Y76268D01*
X280639Y76861D01*
X281232Y77634D01*
X281605Y78534D01*
X281732Y79500D01*
X281605Y80466D01*
X281296Y81210D01*
X285265Y85179D01*
X285342Y85128D01*
X286200Y84957D01*
X287058Y85128D01*
X287786Y85614D01*
X288272Y86342D01*
X288443Y87200D01*
X288272Y88058D01*
X287786Y88786D01*
X287058Y89272D01*
X286200Y89443D01*
D02*
G37*
G36*
X291000Y83214D02*
X285000D01*
X284727Y83159D01*
X284495Y83005D01*
X284341Y82773D01*
X284286Y82500D01*
Y76500D01*
X284341Y76227D01*
X284495Y75995D01*
X284727Y75841D01*
X285000Y75786D01*
X291000D01*
X291273Y75841D01*
X291505Y75995D01*
X291659Y76227D01*
X291714Y76500D01*
Y82500D01*
X291659Y82773D01*
X291505Y83005D01*
X291273Y83159D01*
X291000Y83214D01*
D02*
G37*
G36*
X257244Y87500D02*
X255150D01*
Y86228D01*
X255227Y85838D01*
X255448Y85507D01*
X255779Y85286D01*
X256169Y85209D01*
X257244D01*
Y87500D01*
D02*
G37*
G36*
X314164Y95585D02*
X312215D01*
Y93635D01*
X312690Y93730D01*
X313517Y94283D01*
X314070Y95110D01*
X314164Y95585D01*
D02*
G37*
G36*
X311215D02*
X309265D01*
X309360Y95110D01*
X309913Y94283D01*
X310740Y93730D01*
X311215Y93635D01*
Y95585D01*
D02*
G37*
G36*
X265857Y124143D02*
X263908D01*
X264002Y123667D01*
X264555Y122840D01*
X265382Y122288D01*
X265857Y122193D01*
Y124143D01*
D02*
G37*
G36*
X296631Y122891D02*
X295753D01*
Y120600D01*
X297650D01*
Y121872D01*
X297573Y122262D01*
X297352Y122593D01*
X297021Y122814D01*
X296631Y122891D01*
D02*
G37*
G36*
X265857Y127092D02*
X265382Y126998D01*
X264555Y126445D01*
X264002Y125618D01*
X263908Y125143D01*
X265857D01*
Y127092D01*
D02*
G37*
G36*
X285191Y131456D02*
X282900D01*
Y129362D01*
X284172D01*
X284562Y129439D01*
X284893Y129660D01*
X285114Y129991D01*
X285191Y130381D01*
Y131456D01*
D02*
G37*
G36*
X281900D02*
X279609D01*
Y130381D01*
X279686Y129991D01*
X279907Y129660D01*
X280238Y129439D01*
X280628Y129362D01*
X281900D01*
Y131456D01*
D02*
G37*
G36*
X294753Y122891D02*
X293875D01*
X293485Y122814D01*
X293154Y122593D01*
X292933Y122262D01*
X292855Y121872D01*
Y120600D01*
X294753D01*
Y122891D01*
D02*
G37*
G36*
X312215Y116735D02*
Y114785D01*
X314164D01*
X314070Y115260D01*
X313517Y116087D01*
X312690Y116640D01*
X312215Y116735D01*
D02*
G37*
G36*
X311215D02*
X310740Y116640D01*
X309913Y116087D01*
X309360Y115260D01*
X309265Y114785D01*
X311215D01*
Y116735D01*
D02*
G37*
G36*
X290725Y122585D02*
X287969D01*
X287696Y122531D01*
X287465Y122376D01*
X287310Y122145D01*
X287256Y121872D01*
Y121388D01*
X286508Y121239D01*
X285781Y120753D01*
X285295Y120025D01*
X285124Y119167D01*
X285295Y118308D01*
X285781Y117581D01*
X286508Y117095D01*
X287367Y116924D01*
X288225Y117095D01*
X288953Y117581D01*
X288976Y117615D01*
X290725D01*
X290998Y117669D01*
X291230Y117824D01*
X291385Y118055D01*
X291439Y118328D01*
Y121872D01*
X291385Y122145D01*
X291230Y122376D01*
X290998Y122531D01*
X290725Y122585D01*
D02*
G37*
G36*
X297650Y119600D02*
X295753D01*
Y117309D01*
X296631D01*
X297021Y117386D01*
X297352Y117607D01*
X297573Y117938D01*
X297650Y118328D01*
Y119600D01*
D02*
G37*
G36*
X294753D02*
X292855D01*
Y118328D01*
X292933Y117938D01*
X293154Y117607D01*
X293485Y117386D01*
X293875Y117309D01*
X294753D01*
Y119600D01*
D02*
G37*
G36*
X271500Y55850D02*
X270228D01*
X269838Y55773D01*
X269507Y55552D01*
X269286Y55221D01*
X269209Y54831D01*
Y53756D01*
X271500D01*
Y55850D01*
D02*
G37*
G36*
X301200Y61241D02*
X299973Y61079D01*
X298830Y60605D01*
X297848Y59852D01*
X297094Y58870D01*
X296621Y57727D01*
X296459Y56500D01*
X296621Y55273D01*
X297094Y54130D01*
X297848Y53148D01*
X298830Y52395D01*
X299973Y51921D01*
X301200Y51759D01*
X302427Y51921D01*
X303570Y52395D01*
X304552Y53148D01*
X305306Y54130D01*
X305779Y55273D01*
X305941Y56500D01*
X305779Y57727D01*
X305306Y58870D01*
X304552Y59852D01*
X303570Y60605D01*
X302427Y61079D01*
X301200Y61241D01*
D02*
G37*
G36*
X273772Y55850D02*
X272500D01*
Y53756D01*
X274791D01*
Y54831D01*
X274714Y55221D01*
X274493Y55552D01*
X274162Y55773D01*
X273772Y55850D01*
D02*
G37*
G36*
X256969Y69000D02*
X253500D01*
Y65531D01*
X254044Y65603D01*
X255017Y66006D01*
X255853Y66647D01*
X256494Y67483D01*
X256897Y68456D01*
X256969Y69000D01*
D02*
G37*
G36*
X252500D02*
X249031D01*
X249103Y68456D01*
X249506Y67483D01*
X250147Y66647D01*
X250983Y66006D01*
X251956Y65603D01*
X252500Y65531D01*
Y69000D01*
D02*
G37*
G36*
X239800Y61241D02*
X238573Y61079D01*
X237430Y60605D01*
X236448Y59852D01*
X235695Y58870D01*
X235221Y57727D01*
X235059Y56500D01*
X235221Y55273D01*
X235695Y54130D01*
X236448Y53148D01*
X237430Y52395D01*
X238573Y51921D01*
X239800Y51759D01*
X241027Y51921D01*
X242170Y52395D01*
X243152Y53148D01*
X243905Y54130D01*
X244379Y55273D01*
X244541Y56500D01*
X244379Y57727D01*
X243905Y58870D01*
X243152Y59852D01*
X242170Y60605D01*
X241027Y61079D01*
X239800Y61241D01*
D02*
G37*
G36*
X285800Y55443D02*
X284942Y55272D01*
X284214Y54786D01*
X283728Y54058D01*
X283557Y53200D01*
X283642Y52772D01*
X280469Y49599D01*
X280272Y49639D01*
X276728D01*
X276455Y49584D01*
X276224Y49430D01*
X276069Y49198D01*
X276015Y48925D01*
Y48771D01*
X274485D01*
Y49319D01*
X274431Y49592D01*
X274276Y49824D01*
X274045Y49978D01*
X273772Y50033D01*
X270228D01*
X269955Y49978D01*
X269724Y49824D01*
X269569Y49592D01*
X269515Y49319D01*
Y48771D01*
X267985D01*
Y48925D01*
X267931Y49198D01*
X267776Y49430D01*
X267545Y49584D01*
X267272Y49639D01*
X263728D01*
X263455Y49584D01*
X263224Y49430D01*
X263069Y49198D01*
X263015Y48925D01*
Y46169D01*
X263069Y45896D01*
X263224Y45665D01*
X263455Y45510D01*
X263728Y45456D01*
X267272D01*
X267545Y45510D01*
X267776Y45665D01*
X267931Y45896D01*
X267985Y46169D01*
Y46324D01*
X269515D01*
Y46169D01*
X269569Y45896D01*
X269724Y45665D01*
X269955Y45510D01*
X270228Y45456D01*
X273772D01*
X274045Y45510D01*
X274276Y45665D01*
X274431Y45896D01*
X274485Y46169D01*
Y46324D01*
X276015D01*
Y46169D01*
X276069Y45896D01*
X276224Y45665D01*
X276455Y45510D01*
X276728Y45456D01*
X280272D01*
X280545Y45510D01*
X280776Y45665D01*
X280931Y45896D01*
X280985Y46169D01*
Y46664D01*
X281012Y46682D01*
X285372Y51042D01*
X285800Y50957D01*
X286658Y51128D01*
X287386Y51614D01*
X287872Y52342D01*
X288043Y53200D01*
X287872Y54058D01*
X287386Y54786D01*
X286658Y55272D01*
X285800Y55443D01*
D02*
G37*
G36*
X274791Y52756D02*
X272500D01*
Y50662D01*
X273772D01*
X274162Y50739D01*
X274493Y50960D01*
X274714Y51291D01*
X274791Y51681D01*
Y52756D01*
D02*
G37*
G36*
X271500D02*
X269209D01*
Y51681D01*
X269286Y51291D01*
X269507Y50960D01*
X269838Y50739D01*
X270228Y50662D01*
X271500D01*
Y52756D01*
D02*
G37*
G36*
X273000Y73232D02*
X272034Y73105D01*
X271134Y72732D01*
X270361Y72139D01*
X269768Y71366D01*
X269395Y70466D01*
X269268Y69500D01*
X269395Y68534D01*
X269768Y67634D01*
X270361Y66861D01*
X271134Y66268D01*
X272034Y65895D01*
X273000Y65768D01*
X273966Y65895D01*
X274710Y66204D01*
X277379Y63535D01*
Y55545D01*
X276728D01*
X276455Y55490D01*
X276224Y55335D01*
X276069Y55104D01*
X276015Y54831D01*
Y52075D01*
X276069Y51802D01*
X276224Y51570D01*
X276455Y51415D01*
X276728Y51361D01*
X280272D01*
X280545Y51415D01*
X280776Y51570D01*
X280931Y51802D01*
X280985Y52075D01*
Y54831D01*
X280931Y55104D01*
X280776Y55335D01*
X280545Y55490D01*
X280272Y55545D01*
X279622D01*
Y64000D01*
X279536Y64429D01*
X279293Y64793D01*
X279293Y64793D01*
X276296Y67790D01*
X276605Y68534D01*
X276732Y69500D01*
X276605Y70466D01*
X276232Y71366D01*
X275639Y72139D01*
X274866Y72732D01*
X273966Y73105D01*
X273000Y73232D01*
D02*
G37*
G36*
X263000D02*
X262034Y73105D01*
X261134Y72732D01*
X260361Y72139D01*
X259768Y71366D01*
X259395Y70466D01*
X259268Y69500D01*
X259395Y68534D01*
X259768Y67634D01*
X260361Y66861D01*
X261134Y66268D01*
X262034Y65895D01*
X263000Y65768D01*
X263878Y65884D01*
X264226Y65721D01*
X264378Y65620D01*
Y55545D01*
X263728D01*
X263455Y55490D01*
X263224Y55335D01*
X263069Y55104D01*
X263015Y54831D01*
Y52075D01*
X263069Y51802D01*
X263224Y51570D01*
X263455Y51415D01*
X263728Y51361D01*
X267272D01*
X267545Y51415D01*
X267776Y51570D01*
X267931Y51802D01*
X267985Y52075D01*
Y54831D01*
X267931Y55104D01*
X267776Y55335D01*
X267545Y55490D01*
X267272Y55545D01*
X266621D01*
Y67000D01*
X266536Y67429D01*
X266296Y67789D01*
X266605Y68534D01*
X266732Y69500D01*
X266605Y70466D01*
X266232Y71366D01*
X265639Y72139D01*
X264866Y72732D01*
X263966Y73105D01*
X263000Y73232D01*
D02*
G37*
G36*
X303700Y74449D02*
Y72500D01*
X305649D01*
X305555Y72975D01*
X305002Y73802D01*
X304175Y74355D01*
X303700Y74449D01*
D02*
G37*
G36*
X302700D02*
X302224Y74355D01*
X301398Y73802D01*
X300845Y72975D01*
X300750Y72500D01*
X302700D01*
Y74449D01*
D02*
G37*
G36*
X258000Y83232D02*
X257034Y83105D01*
X256134Y82732D01*
X255361Y82139D01*
X254768Y81366D01*
X254395Y80466D01*
X254268Y79500D01*
X254395Y78534D01*
X254768Y77634D01*
X255361Y76861D01*
X256134Y76268D01*
X257034Y75895D01*
X258000Y75768D01*
X258966Y75895D01*
X259866Y76268D01*
X260639Y76861D01*
X261232Y77634D01*
X261605Y78534D01*
X261732Y79500D01*
X261605Y80466D01*
X261232Y81366D01*
X260639Y82139D01*
X259866Y82732D01*
X258966Y83105D01*
X258000Y83232D01*
D02*
G37*
G36*
X257800Y94243D02*
X256942Y94072D01*
X256214Y93586D01*
X255728Y92858D01*
X255557Y92000D01*
X255714Y91211D01*
X255724Y91132D01*
X255525Y90544D01*
X255448Y90493D01*
X255227Y90162D01*
X255150Y89772D01*
Y88500D01*
X257744D01*
Y88000D01*
X258244D01*
Y85209D01*
X259319D01*
X259709Y85286D01*
X260040Y85507D01*
X260261Y85838D01*
X260338Y86228D01*
Y88228D01*
X260838Y88488D01*
X260967Y88398D01*
Y86228D01*
X261022Y85955D01*
X261176Y85724D01*
X261408Y85569D01*
X261681Y85515D01*
X262135D01*
Y84244D01*
X262134Y84244D01*
X262220Y83815D01*
X262463Y83451D01*
X262463Y83451D01*
X264704Y81210D01*
X264395Y80466D01*
X264268Y79500D01*
X264395Y78534D01*
X264768Y77634D01*
X265361Y76861D01*
X266134Y76268D01*
X267034Y75895D01*
X268000Y75768D01*
X268966Y75895D01*
X269866Y76268D01*
X270639Y76861D01*
X271232Y77634D01*
X271605Y78534D01*
X271732Y79500D01*
X271605Y80466D01*
X271232Y81366D01*
X270639Y82139D01*
X269866Y82732D01*
X268966Y83105D01*
X268000Y83232D01*
X267034Y83105D01*
X266290Y82797D01*
X264378Y84709D01*
Y85515D01*
X264831D01*
X265104Y85569D01*
X265335Y85724D01*
X265490Y85955D01*
X265545Y86228D01*
Y89772D01*
X265490Y90045D01*
X265335Y90276D01*
X265104Y90431D01*
X264831Y90485D01*
X262357D01*
X260049Y92793D01*
X259809Y92954D01*
X259386Y93586D01*
X258658Y94072D01*
X257800Y94243D01*
D02*
G37*
G36*
X248000Y52740D02*
X246392Y52581D01*
X244847Y52113D01*
X243422Y51351D01*
X242174Y50326D01*
X241149Y49078D01*
X240388Y47653D01*
X239919Y46108D01*
X239760Y44500D01*
X239919Y42893D01*
X240388Y41347D01*
X241149Y39922D01*
X242174Y38674D01*
X243422Y37649D01*
X244847Y36887D01*
X246392Y36419D01*
X248000Y36260D01*
X249607Y36419D01*
X251153Y36887D01*
X252578Y37649D01*
X253826Y38674D01*
X254851Y39922D01*
X255612Y41347D01*
X256081Y42893D01*
X256240Y44500D01*
X256081Y46108D01*
X255612Y47653D01*
X254851Y49078D01*
X253826Y50326D01*
X252578Y51351D01*
X251153Y52113D01*
X249607Y52581D01*
X248000Y52740D01*
D02*
G37*
G36*
X253500Y73469D02*
Y70000D01*
X256969D01*
X256897Y70544D01*
X256494Y71517D01*
X255853Y72353D01*
X255017Y72994D01*
X254044Y73397D01*
X253500Y73469D01*
D02*
G37*
G36*
X302700Y71500D02*
X300750D01*
X300845Y71025D01*
X301398Y70198D01*
X302224Y69645D01*
X302700Y69551D01*
Y71500D01*
D02*
G37*
G36*
X283000Y73232D02*
X282034Y73105D01*
X281134Y72732D01*
X280361Y72139D01*
X279768Y71366D01*
X279395Y70466D01*
X279268Y69500D01*
X279395Y68534D01*
X279768Y67634D01*
X280361Y66861D01*
X281134Y66268D01*
X282034Y65895D01*
X283000Y65768D01*
X283966Y65895D01*
X284866Y66268D01*
X285639Y66861D01*
X286232Y67634D01*
X286605Y68534D01*
X286732Y69500D01*
X286605Y70466D01*
X286232Y71366D01*
X285639Y72139D01*
X284866Y72732D01*
X283966Y73105D01*
X283000Y73232D01*
D02*
G37*
G36*
X305649Y71500D02*
X303700D01*
Y69551D01*
X304175Y69645D01*
X305002Y70198D01*
X305555Y71025D01*
X305649Y71500D01*
D02*
G37*
G36*
X252500Y73469D02*
X251956Y73397D01*
X250983Y72994D01*
X250147Y72353D01*
X249506Y71517D01*
X249103Y70544D01*
X249031Y70000D01*
X252500D01*
Y73469D01*
D02*
G37*
G36*
X293000Y52740D02*
X291392Y52581D01*
X289847Y52113D01*
X288422Y51351D01*
X287174Y50326D01*
X286149Y49078D01*
X285387Y47653D01*
X284919Y46108D01*
X284760Y44500D01*
X284919Y42893D01*
X285387Y41347D01*
X286149Y39922D01*
X287174Y38674D01*
X288422Y37649D01*
X289847Y36887D01*
X291392Y36419D01*
X293000Y36260D01*
X294607Y36419D01*
X296153Y36887D01*
X297578Y37649D01*
X298826Y38674D01*
X299851Y39922D01*
X300612Y41347D01*
X301081Y42893D01*
X301240Y44500D01*
X301081Y46108D01*
X300612Y47653D01*
X299851Y49078D01*
X298826Y50326D01*
X297578Y51351D01*
X296153Y52113D01*
X294607Y52581D01*
X293000Y52740D01*
D02*
G37*
G36*
X306200Y133843D02*
X305342Y133672D01*
X304614Y133186D01*
X304304Y132722D01*
X300797D01*
X300486Y133186D01*
X299758Y133672D01*
X298900Y133843D01*
X298042Y133672D01*
X297314Y133186D01*
X296828Y132458D01*
X296657Y131600D01*
X296828Y130742D01*
X296891Y130647D01*
X296613Y130231D01*
X296425Y130268D01*
X295567Y130098D01*
X294839Y129611D01*
X294353Y128884D01*
X294182Y128025D01*
X294353Y127167D01*
X294839Y126439D01*
X295567Y125953D01*
X296425Y125782D01*
X297284Y125953D01*
X298011Y126439D01*
X298238Y126778D01*
X304103D01*
X304414Y126314D01*
X305142Y125828D01*
X306000Y125657D01*
X306858Y125828D01*
X307586Y126314D01*
X308072Y127042D01*
X308243Y127900D01*
X308072Y128758D01*
X307682Y129343D01*
X307707Y129961D01*
X307786Y130014D01*
X308272Y130742D01*
X308443Y131600D01*
X308272Y132458D01*
X307786Y133186D01*
X307058Y133672D01*
X306200Y133843D01*
D02*
G37*
G36*
X265850Y175700D02*
X263256D01*
X260662D01*
Y174428D01*
X260739Y174038D01*
X260960Y173707D01*
X261291Y173486D01*
X261681Y173409D01*
X262135D01*
Y172791D01*
X261681D01*
X261291Y172714D01*
X260960Y172493D01*
X260739Y172162D01*
X260662Y171772D01*
Y170500D01*
X263256D01*
X265850D01*
Y171772D01*
X265773Y172162D01*
X265552Y172493D01*
X265221Y172714D01*
X264831Y172791D01*
X264378D01*
Y173409D01*
X264831D01*
X265221Y173486D01*
X265552Y173707D01*
X265773Y174038D01*
X265850Y174428D01*
Y175700D01*
D02*
G37*
G36*
X316100Y162643D02*
X315242Y162472D01*
X314514Y161986D01*
X314204Y161522D01*
X309900D01*
X309900Y161522D01*
X309471Y161436D01*
X309107Y161193D01*
X309107Y161193D01*
X308553Y160640D01*
X308005Y160749D01*
X307147Y160578D01*
X306419Y160091D01*
X305933Y159364D01*
X305762Y158505D01*
X305933Y157647D01*
X306419Y156919D01*
X307147Y156433D01*
X308005Y156262D01*
X308864Y156433D01*
X309592Y156919D01*
X310078Y157647D01*
X310248Y158505D01*
X310179Y158855D01*
X310545Y159278D01*
X314204D01*
X314514Y158814D01*
X315242Y158328D01*
X316100Y158157D01*
X316958Y158328D01*
X317686Y158814D01*
X318172Y159542D01*
X318343Y160400D01*
X318172Y161258D01*
X317686Y161986D01*
X316958Y162472D01*
X316100Y162643D01*
D02*
G37*
G36*
X304800Y178243D02*
X303942Y178072D01*
X303214Y177586D01*
X302728Y176858D01*
X302557Y176000D01*
X302728Y175142D01*
X303214Y174414D01*
X303942Y173928D01*
X304800Y173757D01*
X305348Y173866D01*
X307207Y172007D01*
X307207Y172007D01*
X307216Y172001D01*
X307228Y171942D01*
X307714Y171214D01*
X308442Y170728D01*
X309300Y170557D01*
X310158Y170728D01*
X310886Y171214D01*
X311372Y171942D01*
X311543Y172800D01*
X311372Y173658D01*
X310886Y174386D01*
X310158Y174872D01*
X309300Y175043D01*
X308442Y174872D01*
X307885Y174501D01*
X306934Y175452D01*
X307043Y176000D01*
X306872Y176858D01*
X306386Y177586D01*
X305658Y178072D01*
X304800Y178243D01*
D02*
G37*
G36*
X267200Y147700D02*
X265250D01*
X265345Y147224D01*
X265898Y146398D01*
X266724Y145845D01*
X267200Y145750D01*
Y147700D01*
D02*
G37*
G36*
X295800Y146100D02*
X293850D01*
X293945Y145624D01*
X294498Y144798D01*
X295324Y144245D01*
X295800Y144150D01*
Y146100D01*
D02*
G37*
G36*
X270149Y147700D02*
X268200D01*
Y145750D01*
X268675Y145845D01*
X269502Y146398D01*
X270055Y147224D01*
X270149Y147700D01*
D02*
G37*
G36*
X348691Y148856D02*
X346400D01*
Y146762D01*
X347672D01*
X348062Y146839D01*
X348393Y147060D01*
X348614Y147391D01*
X348691Y147781D01*
Y148856D01*
D02*
G37*
G36*
X345400D02*
X343109D01*
Y147781D01*
X343186Y147391D01*
X343407Y147060D01*
X343738Y146839D01*
X344128Y146762D01*
X345400D01*
Y148856D01*
D02*
G37*
G36*
X270700Y145843D02*
X269842Y145672D01*
X269114Y145186D01*
X268628Y144458D01*
X268457Y143600D01*
X268394Y143524D01*
X267128D01*
X266886Y143886D01*
X266158Y144372D01*
X265300Y144543D01*
X264442Y144372D01*
X263714Y143886D01*
X263228Y143158D01*
X263057Y142300D01*
X263228Y141442D01*
X263714Y140714D01*
X264442Y140228D01*
X265300Y140057D01*
X266158Y140228D01*
X266886Y140714D01*
X267128Y141077D01*
X269400D01*
X269868Y141170D01*
X270265Y141435D01*
X270272Y141442D01*
X270700Y141357D01*
X271558Y141528D01*
X272286Y142014D01*
X272772Y142742D01*
X272943Y143600D01*
X272772Y144458D01*
X272286Y145186D01*
X271558Y145672D01*
X270700Y145843D01*
D02*
G37*
G36*
X223147Y135302D02*
Y133353D01*
X225097D01*
X225002Y133828D01*
X224450Y134655D01*
X223623Y135208D01*
X223147Y135302D01*
D02*
G37*
G36*
X222147D02*
X221672Y135208D01*
X220845Y134655D01*
X220292Y133828D01*
X220198Y133353D01*
X222147D01*
Y135302D01*
D02*
G37*
G36*
X265850Y169500D02*
X263256D01*
X260662D01*
Y168228D01*
X260739Y167838D01*
X260960Y167507D01*
X261291Y167286D01*
X261681Y167209D01*
X262033D01*
Y166291D01*
X261681D01*
X261291Y166214D01*
X260960Y165993D01*
X260739Y165662D01*
X260662Y165272D01*
Y164000D01*
X263256D01*
Y163500D01*
X263756D01*
Y160709D01*
X264831D01*
X265221Y160786D01*
X265552Y161007D01*
X265773Y161338D01*
X265850Y161728D01*
Y162021D01*
X284749D01*
X294584Y152185D01*
X294393Y151724D01*
X283300D01*
X282832Y151630D01*
X282435Y151365D01*
X270379Y139309D01*
X270367Y139291D01*
X269669D01*
X269279Y139214D01*
X268948Y138993D01*
X268727Y138662D01*
X268650Y138272D01*
Y137000D01*
X271244D01*
Y136000D01*
X268650D01*
Y134728D01*
X268727Y134338D01*
X268948Y134007D01*
Y133493D01*
X268727Y133162D01*
X268650Y132772D01*
Y131500D01*
X271244D01*
Y130500D01*
X268650D01*
Y130034D01*
X268188Y129843D01*
X267375Y130655D01*
X267543Y131500D01*
X267372Y132358D01*
X266886Y133086D01*
X266158Y133572D01*
X265300Y133743D01*
X264442Y133572D01*
X263714Y133086D01*
X263228Y132358D01*
X263057Y131500D01*
X263228Y130642D01*
X263714Y129914D01*
X264442Y129428D01*
X265300Y129257D01*
X265311Y129259D01*
X266995Y127575D01*
X266857Y127317D01*
Y124643D01*
Y122193D01*
X267333Y122288D01*
X268160Y122840D01*
X268712Y123667D01*
X268765Y123934D01*
X269331Y124215D01*
X269969Y124088D01*
X270827Y124259D01*
X271340Y124602D01*
X271888Y124412D01*
X271945Y124125D01*
X272498Y123298D01*
X273324Y122745D01*
X273800Y122651D01*
Y125100D01*
X274800D01*
Y122651D01*
X275275Y122745D01*
X276102Y123298D01*
X276597Y123138D01*
X276814Y122814D01*
X277542Y122328D01*
X278400Y122157D01*
X279258Y122328D01*
X279986Y122814D01*
X280472Y123542D01*
X280589Y124130D01*
X280628Y124156D01*
X281603D01*
X282100Y124057D01*
X282597Y124156D01*
X284172D01*
X284445Y124210D01*
X284676Y124365D01*
X284831Y124596D01*
X284885Y124869D01*
Y128019D01*
X284831Y128292D01*
X284676Y128524D01*
X284445Y128678D01*
X284172Y128733D01*
X280628D01*
X280355Y128678D01*
X280124Y128524D01*
X279969Y128292D01*
X279915Y128019D01*
Y126635D01*
X279839Y126564D01*
X279367Y126400D01*
X279258Y126472D01*
X278400Y126643D01*
X278321Y126627D01*
X277979Y126969D01*
Y128515D01*
X278331D01*
X278604Y128569D01*
X278836Y128724D01*
X278990Y128955D01*
X279045Y129228D01*
Y132772D01*
X278990Y133045D01*
X278836Y133276D01*
X278604Y133431D01*
X278331Y133485D01*
X277979D01*
Y134015D01*
X278331D01*
X278604Y134069D01*
X278836Y134224D01*
X279375Y134131D01*
X279454Y134079D01*
X279663Y133939D01*
X279663Y133939D01*
X279609Y133531D01*
Y132456D01*
X285191D01*
Y133531D01*
X285450Y133846D01*
X295069D01*
X295537Y133939D01*
X295934Y134204D01*
X299375Y137645D01*
X299636Y137593D01*
X300495Y137764D01*
X301222Y138250D01*
X301709Y138978D01*
X301753Y139200D01*
X303272D01*
X303545Y139254D01*
X303776Y139409D01*
X303931Y139640D01*
X303985Y139913D01*
Y140277D01*
X305015D01*
Y139913D01*
X305069Y139640D01*
X305224Y139409D01*
X305455Y139254D01*
X305728Y139200D01*
X307788D01*
X308056Y138700D01*
X307828Y138358D01*
X307657Y137500D01*
X307828Y136642D01*
X308314Y135914D01*
X309042Y135428D01*
X309900Y135257D01*
X310758Y135428D01*
X311486Y135914D01*
X311972Y136642D01*
X312094Y137253D01*
X312615Y137311D01*
X313014Y136714D01*
X313742Y136228D01*
X314600Y136057D01*
X315458Y136228D01*
X316186Y136714D01*
X316672Y137442D01*
X316843Y138300D01*
X316672Y139158D01*
X316186Y139886D01*
X315722Y140197D01*
Y145303D01*
X316186Y145614D01*
X316672Y146342D01*
X316843Y147200D01*
X316672Y148058D01*
X316186Y148786D01*
X315458Y149272D01*
X314600Y149443D01*
X314185Y149361D01*
X313743Y149700D01*
X313572Y150558D01*
X313086Y151286D01*
X312358Y151772D01*
X311500Y151943D01*
X310642Y151772D01*
X309914Y151286D01*
X309428Y150558D01*
X309257Y149700D01*
X308768Y149594D01*
X308000D01*
Y147000D01*
Y144406D01*
X309272D01*
X309662Y144483D01*
X309878Y144628D01*
X310273Y144488D01*
X310379Y144406D01*
Y143498D01*
X310225Y143442D01*
X309878Y143415D01*
X309776Y143568D01*
X309545Y143722D01*
X309272Y143777D01*
X305728D01*
X305455Y143722D01*
X305224Y143568D01*
X305069Y143336D01*
X305015Y143063D01*
Y142724D01*
X303985D01*
Y143063D01*
X303931Y143336D01*
X303776Y143568D01*
X303545Y143722D01*
X303272Y143777D01*
X299728D01*
X299455Y143722D01*
X299224Y143568D01*
X299069Y143336D01*
X299015Y143063D01*
Y141956D01*
X298778Y141909D01*
X298050Y141422D01*
X297564Y140695D01*
X297393Y139836D01*
X297511Y139242D01*
X294562Y136293D01*
X285191D01*
Y137344D01*
X282400D01*
Y137844D01*
X281900D01*
Y140438D01*
X280628D01*
X280409Y140395D01*
X279951Y140682D01*
X279930Y140807D01*
X280032Y140924D01*
X280119Y140978D01*
X280438Y141105D01*
X280628Y141068D01*
X284172D01*
X284445Y141122D01*
X284676Y141277D01*
X284831Y141508D01*
X284885Y141781D01*
Y144111D01*
X285189Y144414D01*
X285758Y144528D01*
X286486Y145014D01*
X286972Y145742D01*
X287143Y146600D01*
X286972Y147458D01*
X286486Y148186D01*
X285758Y148672D01*
X285235Y148776D01*
X285284Y149276D01*
X294906D01*
X295058Y148776D01*
X294498Y148402D01*
X293945Y147575D01*
X293850Y147100D01*
X296300D01*
Y146600D01*
X296800D01*
Y144150D01*
X297275Y144245D01*
X298102Y144798D01*
X298273Y145053D01*
X298538Y145044D01*
X298824Y144978D01*
X299007Y144704D01*
X299338Y144483D01*
X299728Y144406D01*
X301000D01*
Y147000D01*
Y149594D01*
X300636D01*
X298865Y151365D01*
X286121Y164109D01*
X285724Y164374D01*
X285256Y164468D01*
X265850D01*
Y165272D01*
X265773Y165662D01*
X265552Y165993D01*
X265221Y166214D01*
X264831Y166291D01*
X264479D01*
Y167209D01*
X264831D01*
X265221Y167286D01*
X265552Y167507D01*
X265773Y167838D01*
X265850Y168228D01*
Y169500D01*
D02*
G37*
G36*
X347672Y146133D02*
X344128D01*
X343855Y146078D01*
X343624Y145924D01*
X343469Y145692D01*
X343415Y145419D01*
Y143222D01*
X335429D01*
X335277Y143588D01*
X334804Y144204D01*
X334188Y144677D01*
X333470Y144974D01*
X332700Y145076D01*
X331930Y144974D01*
X331212Y144677D01*
X330596Y144204D01*
X330123Y143588D01*
X329826Y142870D01*
X329725Y142100D01*
X329826Y141330D01*
X330123Y140612D01*
X330596Y139996D01*
X331212Y139523D01*
X331930Y139226D01*
X332700Y139125D01*
X333470Y139226D01*
X334188Y139523D01*
X334804Y139996D01*
X335277Y140612D01*
X335429Y140978D01*
X344156D01*
X344156Y140978D01*
X344585Y141064D01*
X344949Y141307D01*
X345198Y141556D01*
X347672D01*
X347945Y141610D01*
X348176Y141765D01*
X348331Y141996D01*
X348385Y142269D01*
Y145419D01*
X348331Y145692D01*
X348176Y145924D01*
X347945Y146078D01*
X347672Y146133D01*
D02*
G37*
G36*
X284172Y140438D02*
X282900D01*
Y138344D01*
X285191D01*
Y139419D01*
X285114Y139809D01*
X284893Y140140D01*
X284562Y140361D01*
X284172Y140438D01*
D02*
G37*
G36*
X345700Y158238D02*
X344428D01*
X344038Y158161D01*
X343707Y157940D01*
X343486Y157609D01*
X343409Y157219D01*
Y156144D01*
X345700D01*
Y158238D01*
D02*
G37*
G36*
X348991Y155144D02*
X346700D01*
Y153050D01*
X347972D01*
X348362Y153127D01*
X348693Y153348D01*
X348914Y153679D01*
X348991Y154069D01*
Y155144D01*
D02*
G37*
G36*
X347972Y158238D02*
X346700D01*
Y156144D01*
X348991D01*
Y157219D01*
X348914Y157609D01*
X348693Y157940D01*
X348362Y158161D01*
X347972Y158238D01*
D02*
G37*
G36*
X262756Y163000D02*
X260662D01*
Y161728D01*
X260739Y161338D01*
X260960Y161007D01*
X261291Y160786D01*
X261681Y160709D01*
X262756D01*
Y163000D01*
D02*
G37*
G36*
X332700Y164276D02*
X331930Y164174D01*
X331212Y163877D01*
X330596Y163404D01*
X330123Y162788D01*
X329826Y162070D01*
X329725Y161300D01*
X329826Y160530D01*
X330123Y159812D01*
X330596Y159196D01*
X331212Y158723D01*
X331930Y158426D01*
X332700Y158325D01*
X333470Y158426D01*
X334188Y158723D01*
X334804Y159196D01*
X335277Y159812D01*
X335369Y160034D01*
X343715D01*
Y159581D01*
X343769Y159308D01*
X343924Y159076D01*
X344155Y158922D01*
X344428Y158868D01*
X347972D01*
X348245Y158922D01*
X348476Y159076D01*
X348631Y159308D01*
X348685Y159581D01*
Y162731D01*
X348631Y163004D01*
X348476Y163235D01*
X348245Y163390D01*
X347972Y163444D01*
X344428D01*
X344155Y163390D01*
X343924Y163235D01*
X343769Y163004D01*
X343715Y162731D01*
Y162277D01*
X335488D01*
X335277Y162788D01*
X334804Y163404D01*
X334188Y163877D01*
X333470Y164174D01*
X332700Y164276D01*
D02*
G37*
G36*
X345700Y155144D02*
X343409D01*
Y154069D01*
X343486Y153679D01*
X343707Y153348D01*
X344038Y153127D01*
X344428Y153050D01*
X345700D01*
Y155144D01*
D02*
G37*
G36*
X268200Y150649D02*
Y148700D01*
X270149D01*
X270055Y149176D01*
X269502Y150002D01*
X268675Y150555D01*
X268200Y150649D01*
D02*
G37*
G36*
X267200D02*
X266724Y150555D01*
X265898Y150002D01*
X265345Y149176D01*
X265250Y148700D01*
X267200D01*
Y150649D01*
D02*
G37*
G36*
X307000Y149594D02*
X305728D01*
X305338Y149517D01*
X305007Y149296D01*
X304786Y148965D01*
X304755Y148807D01*
X304245D01*
X304214Y148965D01*
X303993Y149296D01*
X303662Y149517D01*
X303272Y149594D01*
X302000D01*
Y147000D01*
Y144406D01*
X303272D01*
X303662Y144483D01*
X303993Y144704D01*
X304214Y145035D01*
X304245Y145193D01*
X304755D01*
X304786Y145035D01*
X305007Y144704D01*
X305338Y144483D01*
X305728Y144406D01*
X307000D01*
Y147000D01*
Y149594D01*
D02*
G37*
G36*
X347672Y151950D02*
X346400D01*
Y149856D01*
X348691D01*
Y150931D01*
X348614Y151321D01*
X348393Y151652D01*
X348062Y151873D01*
X347672Y151950D01*
D02*
G37*
G36*
X345400D02*
X344128D01*
X343738Y151873D01*
X343407Y151652D01*
X343186Y151321D01*
X343109Y150931D01*
Y149856D01*
X345400D01*
Y151950D01*
D02*
G37*
%LPD*%
D10*
X457240Y52563D02*
D03*
X449760D02*
D03*
X453500Y60437D02*
D03*
D21*
X457000Y40047D02*
D03*
Y45953D02*
D03*
X465000Y40047D02*
D03*
Y45953D02*
D03*
X454000Y74953D02*
D03*
Y69047D02*
D03*
X450900Y227853D02*
D03*
Y221947D02*
D03*
X463800Y228853D02*
D03*
Y222947D02*
D03*
X265500Y53453D02*
D03*
Y47547D02*
D03*
X278500Y53453D02*
D03*
Y47547D02*
D03*
X86700Y573053D02*
D03*
Y567147D02*
D03*
X411000Y132647D02*
D03*
Y138553D02*
D03*
X421200Y132647D02*
D03*
Y138553D02*
D03*
X491000Y131447D02*
D03*
Y137353D02*
D03*
X480800Y131247D02*
D03*
Y137153D02*
D03*
X471400Y130847D02*
D03*
Y136753D02*
D03*
X461400Y131247D02*
D03*
Y137153D02*
D03*
X451200Y131047D02*
D03*
Y136953D02*
D03*
X441000Y131247D02*
D03*
Y137153D02*
D03*
X512600Y55447D02*
D03*
Y61353D02*
D03*
X512800Y67047D02*
D03*
Y72953D02*
D03*
D22*
X547953Y59300D02*
D03*
X542047D02*
D03*
X593406Y194500D02*
D03*
X587500D02*
D03*
X289347Y120100D02*
D03*
X295253D02*
D03*
X283053Y291500D02*
D03*
X277147D02*
D03*
X190047Y322900D02*
D03*
X195953D02*
D03*
X588147Y437300D02*
D03*
X594053D02*
D03*
D23*
X335244Y352300D02*
D03*
X340756D02*
D03*
X250756Y323500D02*
D03*
X245244D02*
D03*
X253256Y311000D02*
D03*
X247744D02*
D03*
X340256Y307500D02*
D03*
X334744D02*
D03*
Y316500D02*
D03*
X340256D02*
D03*
X339756Y340000D02*
D03*
X334244D02*
D03*
X254756Y283000D02*
D03*
X249244D02*
D03*
X257744Y176200D02*
D03*
X263256D02*
D03*
X276756Y131000D02*
D03*
X271244D02*
D03*
X276756Y136500D02*
D03*
X271244D02*
D03*
X257744Y170000D02*
D03*
X263256D02*
D03*
X257744Y163500D02*
D03*
X263256D02*
D03*
Y88000D02*
D03*
X257744D02*
D03*
X66744Y407500D02*
D03*
X72256D02*
D03*
X107256D02*
D03*
X101744D02*
D03*
X96756Y409500D02*
D03*
X91244D02*
D03*
X85256Y410000D02*
D03*
X79744D02*
D03*
X277444Y284800D02*
D03*
X282956D02*
D03*
X332844Y286100D02*
D03*
X338356D02*
D03*
X327456Y389900D02*
D03*
X321944D02*
D03*
X193644Y182000D02*
D03*
X199156D02*
D03*
X201844Y557200D02*
D03*
X207356D02*
D03*
X332844Y291700D02*
D03*
X338356D02*
D03*
X265444Y447600D02*
D03*
X270956D02*
D03*
X251756Y347500D02*
D03*
X246244D02*
D03*
X332744Y271500D02*
D03*
X338256D02*
D03*
X190811Y329700D02*
D03*
X196323D02*
D03*
X287044Y446300D02*
D03*
X292556D02*
D03*
X287444Y391900D02*
D03*
X292956D02*
D03*
X276756Y391600D02*
D03*
X271244D02*
D03*
X349444Y390600D02*
D03*
X354956D02*
D03*
X326744Y446900D02*
D03*
X332256D02*
D03*
X349000Y442300D02*
D03*
X354512D02*
D03*
X386344Y441900D02*
D03*
X391856D02*
D03*
X419756Y441500D02*
D03*
X414244D02*
D03*
D24*
X327500Y349744D02*
D03*
Y355256D02*
D03*
X465500Y290944D02*
D03*
Y296456D02*
D03*
X415000Y385244D02*
D03*
Y390756D02*
D03*
X459000Y288344D02*
D03*
Y293856D02*
D03*
X461200Y320456D02*
D03*
Y314944D02*
D03*
X318500Y270500D02*
D03*
Y264988D02*
D03*
X467500Y320000D02*
D03*
Y314488D02*
D03*
X301500Y141488D02*
D03*
Y147000D02*
D03*
X307500Y141488D02*
D03*
Y147000D02*
D03*
X631500Y182744D02*
D03*
Y188256D02*
D03*
X630500Y465756D02*
D03*
Y460244D02*
D03*
X272000Y47744D02*
D03*
Y53256D02*
D03*
X642500Y182744D02*
D03*
Y188256D02*
D03*
X640500Y465756D02*
D03*
Y460244D02*
D03*
X282400Y126444D02*
D03*
Y131956D02*
D03*
Y143356D02*
D03*
Y137844D02*
D03*
X345900Y143844D02*
D03*
Y149356D02*
D03*
X346200Y161156D02*
D03*
Y155644D02*
D03*
X440100Y220044D02*
D03*
Y225556D02*
D03*
X67500Y469144D02*
D03*
Y474656D02*
D03*
X113500Y403744D02*
D03*
Y409256D02*
D03*
X120000Y403744D02*
D03*
Y409256D02*
D03*
X126000Y403244D02*
D03*
Y408756D02*
D03*
X133000Y403244D02*
D03*
Y408756D02*
D03*
X141500Y403244D02*
D03*
Y408756D02*
D03*
X157100Y460656D02*
D03*
Y455144D02*
D03*
X150800Y460656D02*
D03*
Y455144D02*
D03*
X288200Y290956D02*
D03*
Y285444D02*
D03*
X156600Y520856D02*
D03*
Y515344D02*
D03*
X465800Y355844D02*
D03*
Y361356D02*
D03*
X259500Y271256D02*
D03*
Y265744D02*
D03*
X490700Y567088D02*
D03*
Y572600D02*
D03*
X281000Y349744D02*
D03*
Y355256D02*
D03*
X258500Y348744D02*
D03*
Y354256D02*
D03*
X290000Y349744D02*
D03*
Y355256D02*
D03*
X249000Y271256D02*
D03*
Y265744D02*
D03*
X392200Y385188D02*
D03*
Y390700D02*
D03*
X432900Y220044D02*
D03*
Y225556D02*
D03*
X271900Y290756D02*
D03*
Y285244D02*
D03*
X201700Y329812D02*
D03*
Y324300D02*
D03*
X184900Y329456D02*
D03*
Y323944D02*
D03*
X532700Y58756D02*
D03*
Y53244D02*
D03*
X458500Y380356D02*
D03*
Y374844D02*
D03*
X459500Y361256D02*
D03*
Y355744D02*
D03*
D30*
X201100Y576500D02*
X237185D01*
X200800D02*
X201100D01*
X330800Y351981D02*
X335244D01*
X329737D02*
X330800D01*
X290000Y349744D02*
X294200D01*
X330600Y355772D02*
X344028D01*
X327500D02*
X330600D01*
X326300Y355256D02*
Y356100D01*
Y355175D02*
Y355256D01*
X258500Y348744D02*
X259500Y349744D01*
X272100Y355300D02*
Y356525D01*
X275175Y359600D01*
X362800Y87100D02*
X365300Y89600D01*
X362800Y80274D02*
Y87100D01*
X353900Y71374D02*
X362800Y80274D01*
X353900Y5400D02*
Y71374D01*
X168000Y228700D02*
X168600Y228100D01*
Y225500D02*
Y228100D01*
X250756Y323500D02*
X251756Y324500D01*
X737000Y601000D02*
X741000D01*
X696000D02*
X737000D01*
X576000Y610000D02*
X592000D01*
X675500Y621500D02*
X696000Y601000D01*
X568000Y621500D02*
X675500D01*
X249000Y265744D02*
X253844Y260900D01*
X600100Y175900D02*
X606800Y182600D01*
X614837D01*
X620493Y188256D01*
X631500D01*
X627232Y180169D02*
X629807Y182744D01*
X621789Y180169D02*
X627232D01*
X619214Y182744D02*
X621789Y180169D01*
X613500Y179900D02*
X615956D01*
X616256Y180200D01*
X611300Y177700D02*
X613500Y179900D01*
X629807Y182744D02*
X631500D01*
X618800D02*
X619214D01*
X648600Y183700D02*
Y457895D01*
X647644Y182744D02*
X648600Y183700D01*
X640739Y465756D02*
X648600Y457895D01*
X640500Y465756D02*
X640739D01*
X630500D02*
X640500D01*
X631500Y182744D02*
X642500D01*
X361200Y172175D02*
X370900Y181875D01*
X361200Y107800D02*
Y172175D01*
Y107800D02*
X365300Y103700D01*
X295800Y356100D02*
X318975D01*
X290844D02*
X295800D01*
X200800Y576500D02*
X201100Y576800D01*
X252600Y566500D02*
X261800D01*
X332430Y263930D02*
X338256Y269756D01*
X321305Y263930D02*
X332430D01*
X320246Y264988D02*
X321305Y263930D01*
X318500Y264988D02*
X320246D01*
X270575Y265200D02*
X283956D01*
X284000Y265244D01*
X270530D02*
X270575Y265200D01*
X268844Y265244D02*
X270530D01*
X284256Y264988D02*
X318500D01*
X284000Y265244D02*
X284256Y264988D01*
X338256Y271500D02*
X342900Y276144D01*
X332844Y291700D02*
Y296600D01*
X340256Y303600D02*
Y307500D01*
X340256Y310700D02*
Y316500D01*
Y307500D02*
Y310700D01*
X258500Y354256D02*
X258544Y354300D01*
X365300Y193600D02*
X370700Y199000D01*
X378500D01*
X616256Y180200D02*
X618800Y182744D01*
X253844Y260900D02*
X264500D01*
X339756Y340000D02*
X345800Y346044D01*
X327500Y355256D02*
Y355772D01*
X289761Y355256D02*
X290000D01*
X285417Y359600D02*
X289761Y355256D01*
X327500Y349744D02*
X329737Y351981D01*
X335244D02*
Y352300D01*
X334244Y340000D02*
X334744Y339500D01*
X332744Y271500D02*
X332844Y271600D01*
X332844Y286100D02*
X332844Y286100D01*
X332844Y286100D02*
Y291700D01*
X331744Y270500D02*
X332744Y271500D01*
X259500Y271256D02*
X259500Y271256D01*
X264500Y260900D02*
X268844Y265244D01*
X338256Y269756D02*
Y271500D01*
X340256Y307500D02*
X340256Y307500D01*
X339756Y317000D02*
X340256Y316500D01*
X339756Y317000D02*
Y340000D01*
X270856Y417100D02*
X292600D01*
X611300Y467700D02*
X628556D01*
X630500Y465756D01*
X642500Y182744D02*
X647644D01*
X261300Y413700D02*
X270856D01*
Y417100D01*
X540700Y506056D02*
Y512000D01*
X540644Y506000D02*
X540700Y506056D01*
X546156Y506000D02*
Y510956D01*
X568000Y532800D02*
Y621500D01*
X552700Y636800D02*
X568000Y621500D01*
X424500Y636800D02*
X552700D01*
X407400Y619700D02*
X424500Y636800D01*
X557950Y522750D02*
X575500Y505200D01*
Y457500D02*
Y505200D01*
X562200Y444200D02*
X575500Y457500D01*
X546156Y510956D02*
X557950Y522750D01*
X568000Y532800D01*
X472200Y389200D02*
Y395800D01*
X489300Y337100D02*
Y412900D01*
X483300Y331100D02*
X489300Y337100D01*
X474600Y331100D02*
X483300D01*
X470688Y327188D02*
X474600Y331100D01*
X472200Y395800D02*
X489300Y412900D01*
X547200Y444200D02*
X562200D01*
X253775Y218200D02*
X254875Y219300D01*
X257525D01*
X263256Y213570D01*
Y176200D02*
Y213570D01*
X220438Y225731D02*
X220897D01*
X216856Y229314D02*
X220438Y225731D01*
X220897D02*
X227106Y219523D01*
Y194394D02*
X257744Y163756D01*
X290000Y355256D02*
X290844Y356100D01*
X275175Y359600D02*
X285417D01*
X275400Y349744D02*
X281000D01*
X271056Y354256D02*
X272100Y355300D01*
X281000Y349744D02*
X281000Y349744D01*
X370900Y181875D02*
Y184525D01*
X365300Y190125D02*
Y193600D01*
Y190125D02*
X370900Y184525D01*
X324425Y353300D02*
X326300Y355175D01*
X321775Y353300D02*
X324425D01*
X318975Y356100D02*
X321775Y353300D01*
X326300Y356100D02*
X326656D01*
X327500Y355256D01*
X142500Y234800D02*
X145200D01*
X154300Y228700D02*
Y231600D01*
X247744Y284500D02*
X249244Y283000D01*
X253256Y311000D02*
X254756Y309500D01*
Y283000D02*
Y309500D01*
X251100Y301375D02*
Y304025D01*
X247744Y307381D02*
Y311000D01*
Y307381D02*
X251100Y304025D01*
X201785Y608285D02*
X211200D01*
X186000Y592500D02*
X201785Y608285D01*
X186000Y586800D02*
Y592500D01*
X526044Y53244D02*
X532700D01*
X523200Y50400D02*
X526044Y53244D01*
X338356Y291700D02*
X340256Y293600D01*
X247744Y284500D02*
Y298019D01*
X251100Y301375D01*
X338356Y291700D02*
X340484Y289572D01*
X341631D01*
Y288425D02*
Y289572D01*
Y288425D02*
X342900Y287156D01*
Y276144D02*
Y287156D01*
X345800Y346044D02*
Y354000D01*
X344028Y355772D02*
X345800Y354000D01*
X247756Y271256D02*
X249000D01*
X332844Y305600D02*
X334744Y307500D01*
X340256Y293600D02*
Y303600D01*
X250756Y323500D02*
X253256Y321000D01*
X258544Y354300D02*
X264425D01*
X264469Y354256D02*
X271056D01*
X226700Y210325D02*
X227106Y210731D01*
Y219523D01*
X226700Y194800D02*
X227106Y194394D01*
X226700Y194800D02*
Y210325D01*
X251575Y218200D02*
X253775D01*
X222900Y247000D02*
X223200Y246700D01*
X223400Y246500D01*
X230500Y239275D02*
Y239700D01*
Y239275D02*
X251575Y218200D01*
X223400Y246500D02*
X223407D01*
X150500Y228700D02*
Y231600D01*
X140500Y236800D02*
X142500Y234800D01*
X136000Y236800D02*
X140500D01*
X318500Y416500D02*
X319100Y417100D01*
Y436244D01*
X293200Y416500D02*
X318500D01*
X329244D01*
X319100Y436244D02*
X321378Y438522D01*
X489300Y412900D02*
X526000Y449600D01*
X513700Y447500D02*
X519600Y453400D01*
X522300D01*
X526000Y449600D02*
X536000D01*
X540644D01*
Y500600D01*
Y506000D01*
D31*
X156600Y515344D02*
X170244D01*
X154644D02*
X156600D01*
X157100Y455144D02*
X162144D01*
X150800D02*
X157100D01*
X183400Y582500D02*
X188800Y577100D01*
X183400Y582500D02*
Y591000D01*
X175900Y598500D02*
X183400Y591000D01*
X149500Y598500D02*
X175900D01*
X148900Y597900D02*
X149500Y598500D01*
X199000Y573600D02*
Y573800D01*
X138344Y460656D02*
X150800D01*
X99000Y465300D02*
X124800D01*
X127400Y467900D01*
Y524100D01*
X130600Y527300D01*
X246244Y347500D02*
Y350804D01*
X244140Y311000D02*
X247744D01*
X241000Y314140D02*
X244140Y311000D01*
X130600Y527300D02*
X150156D01*
X156600Y520856D01*
X162144Y455144D02*
X168000Y461000D01*
X138000D02*
X138344Y460656D01*
X546156Y506000D02*
X550500D01*
X246244Y350804D02*
X249696Y354256D01*
X258500D01*
X170244Y515344D02*
X186100Y531200D01*
X186000Y586800D02*
X199000Y573800D01*
X240300Y341556D02*
X246244Y347500D01*
X242000Y330140D02*
Y332460D01*
X240300Y334160D02*
Y341556D01*
Y314840D02*
Y328440D01*
X242000Y330140D01*
X240300Y334160D02*
X242000Y332460D01*
X240300Y314840D02*
X240740Y314400D01*
D32*
X212200Y526082D02*
Y526900D01*
X309482Y381581D02*
X309482Y381582D01*
X309200Y381300D02*
X309482Y381581D01*
Y377882D02*
X309482Y377882D01*
X309481Y377881D02*
X309482Y377882D01*
X263256Y163244D02*
X285256D01*
X387000Y345837D02*
Y348500D01*
X301500Y141500D02*
X307488D01*
X301494Y141494D02*
X301500Y141500D01*
X301488Y141488D02*
X301494Y141494D01*
X299736Y139736D02*
X301488Y141488D01*
X295069Y135069D02*
X299736Y139736D01*
X257744Y163756D02*
X257872Y163628D01*
X257872Y163628D02*
X257873Y163628D01*
X257872Y163628D02*
X257872Y163628D01*
X257873Y163628D02*
X258000Y163500D01*
X224300Y325500D02*
X225400D01*
X230600Y330700D01*
X306800Y301000D02*
X329000D01*
X306700Y300900D02*
X306800Y301000D01*
X304000Y274100D02*
Y306652D01*
X303574Y307078D02*
X304000Y306652D01*
X502300Y287700D02*
X611300D01*
X491579Y298421D02*
X502300Y287700D01*
X606200Y282800D02*
X611300Y277700D01*
X495661Y282800D02*
X606200D01*
X482740Y295721D02*
X495661Y282800D01*
X237200Y471900D02*
X237300Y472000D01*
X242600D01*
X133000Y403244D02*
X141500D01*
X126000D02*
X133000D01*
X120500D02*
X126000D01*
X113500Y403744D02*
X120000D01*
X86000D02*
X113500D01*
X271244Y136500D02*
Y138444D01*
Y131000D02*
Y136500D01*
X257744Y170000D02*
Y176200D01*
Y163756D02*
Y170000D01*
X276756Y131000D02*
Y136500D01*
Y126462D02*
Y131000D01*
X278500Y47547D02*
X280147D01*
X272197D02*
X278500D01*
X501000Y127353D02*
Y218500D01*
X496553Y222947D02*
X501000Y218500D01*
X463800Y222947D02*
X496553D01*
X483800Y238700D02*
Y250400D01*
X474300Y259900D02*
X483800Y250400D01*
X265300Y131000D02*
X269969Y126331D01*
X278400Y124400D02*
Y124818D01*
X276756Y126462D02*
X278400Y124818D01*
X265300Y131000D02*
Y131500D01*
Y142300D02*
X269400D01*
X270700Y143600D01*
X280131Y135069D02*
X295069D01*
X264425Y354300D02*
X264469Y354256D01*
X259863Y358862D02*
X264425Y354300D01*
X295800Y355900D02*
Y356100D01*
X117500Y524100D02*
X127400D01*
X86700Y554900D02*
Y567147D01*
X424000Y533000D02*
X424596D01*
X427700Y532000D02*
X437382D01*
X423582Y536400D02*
X432767D01*
X420682Y533500D02*
X423582Y536400D01*
X420696Y538100D02*
X429700D01*
X426167Y539800D02*
X454667Y568300D01*
X411300Y539800D02*
X426167D01*
X420000Y533500D02*
X420682D01*
X416000Y534500D02*
X417096D01*
X408500Y537000D02*
X411300Y539800D01*
X404682Y537000D02*
X444800Y577118D01*
X426296Y534700D02*
X436300D01*
X429700Y538100D02*
X456200Y564600D01*
X424596Y533000D02*
X426296Y534700D01*
X417096Y534500D02*
X420696Y538100D01*
X447837Y533100D02*
X450300Y530637D01*
X438482Y533100D02*
X447837D01*
X437382Y532000D02*
X438482Y533100D01*
X454600Y532418D02*
Y533000D01*
Y532418D02*
X455700Y531318D01*
Y529082D02*
Y531318D01*
X454118Y527500D02*
X455700Y529082D01*
X451882Y527500D02*
X454118D01*
X450300Y529082D02*
X451882Y527500D01*
X450300Y529082D02*
Y530637D01*
X454600Y533000D02*
X466200Y544600D01*
X453000Y511500D02*
X472000Y530500D01*
X455300Y509800D02*
X476200Y530700D01*
X456004Y508100D02*
X468404Y520500D01*
X456708Y506400D02*
X468808Y518500D01*
X469512Y516800D02*
X498300D01*
X457412Y504700D02*
X469512Y516800D01*
X470217Y515100D02*
X499004D01*
X458117Y503000D02*
X470217Y515100D01*
X470921Y513400D02*
X499708D01*
X458821Y501300D02*
X470921Y513400D01*
X500412Y511700D02*
X532400Y543688D01*
X471625Y511700D02*
X500412D01*
X459525Y499600D02*
X471625Y511700D01*
X501117Y510000D02*
X534100Y542983D01*
X472329Y510000D02*
X501117D01*
X460229Y497900D02*
X472329Y510000D01*
X501821Y508300D02*
X535800Y542279D01*
X473033Y508300D02*
X501821D01*
X460933Y496200D02*
X473033Y508300D01*
X502525Y506600D02*
X537500Y541575D01*
X473737Y506600D02*
X502525D01*
X461637Y494500D02*
X473737Y506600D01*
X462342Y492800D02*
X474442Y504900D01*
X503229D01*
X530700Y544392D02*
Y592204D01*
X499708Y513400D02*
X530700Y544392D01*
X459900Y558300D02*
X466200Y564600D01*
X459900Y568300D02*
X466200Y574600D01*
X454667Y568300D02*
X459900D01*
Y578300D02*
X466200Y584600D01*
X449618Y578300D02*
X459900D01*
X448063Y584600D02*
X456200D01*
X471500Y589300D02*
Y595133D01*
Y589300D02*
X476200Y584600D01*
X454667Y558300D02*
X459900D01*
X409963Y546500D02*
X448063Y584600D01*
X444800Y577118D02*
Y577718D01*
X408500Y546500D02*
X409963D01*
X400300Y538300D02*
X408500Y546500D01*
X400300Y538000D02*
Y538300D01*
X448618Y579300D02*
X449618Y578300D01*
X446382Y579300D02*
X448618D01*
X444800Y577718D02*
X446382Y579300D01*
X399500Y348500D02*
Y372000D01*
Y348500D02*
X436000Y312000D01*
X395000Y376500D02*
X399500Y372000D01*
X395000Y343682D02*
Y368500D01*
X284900Y145856D02*
Y146600D01*
X299636Y139836D02*
X301288Y141488D01*
X324100Y241163D02*
Y242518D01*
X322518Y244100D02*
X324100Y242518D01*
X320282Y244100D02*
X322518D01*
X318700Y242518D02*
X320282Y244100D01*
X318700Y240963D02*
Y242518D01*
X316037Y238300D02*
X318700Y240963D01*
X289984Y238300D02*
X316037D01*
X289784Y238500D02*
X289984Y238300D01*
X278200Y238500D02*
X289784D01*
X275700Y241000D02*
X278200Y238500D01*
X318500Y261300D02*
X319200Y260600D01*
X318500Y261300D02*
Y264988D01*
X272300Y184100D02*
Y224400D01*
Y184100D02*
X275900Y180500D01*
X268300Y184200D02*
Y230700D01*
X301488Y141488D02*
X301500D01*
X301288D02*
X301488D01*
X471260Y301626D02*
X480890D01*
X471260Y305563D02*
X480890D01*
X491000Y137353D02*
X501000Y127353D01*
Y123000D02*
Y127353D01*
X593406Y194500D02*
X604500D01*
X611300Y187700D01*
X558950Y207700D02*
X611300D01*
X482740Y283910D02*
X558950Y207700D01*
X552768Y217700D02*
X611300D01*
X483859Y286610D02*
X552768Y217700D01*
X535172Y237700D02*
X611300D01*
X484563Y288310D02*
X535172Y237700D01*
X527576Y247700D02*
X611300D01*
X483493Y291784D02*
X527576Y247700D01*
X482740Y291784D02*
X483493D01*
X483900Y310977D02*
X520623Y347700D01*
X486600Y309859D02*
X514441Y337700D01*
X496846Y317700D02*
X611300D01*
X488300Y309154D02*
X496846Y317700D01*
X520623Y347700D02*
X611300D01*
X92415Y371769D02*
X131926Y332258D01*
X480800Y123200D02*
X481000Y123000D01*
X480800Y123200D02*
Y131247D01*
X471000Y123000D02*
X471400Y123400D01*
Y130847D01*
X461000Y123000D02*
X461400Y123400D01*
Y131247D01*
X451200Y123200D02*
Y131047D01*
X451000Y123000D02*
X451200Y123200D01*
X441000Y123000D02*
Y131247D01*
Y137153D02*
X441200Y136953D01*
X451200D01*
X451400Y137153D01*
X461400D01*
X461800Y136753D01*
X471400D01*
X471800Y137153D01*
X480800D01*
X481000Y137353D01*
X491000D01*
X280147Y47547D02*
X285800Y53200D01*
X87868Y573053D02*
X95500Y580685D01*
X86700Y573053D02*
X87868D01*
X89100Y457700D02*
Y473300D01*
X88500Y457100D02*
X89100Y457700D01*
X77700Y455200D02*
X77800Y455300D01*
X72200Y455200D02*
X77700D01*
X68600Y450426D02*
Y462374D01*
X68500Y450326D02*
X68600Y450426D01*
X68500Y462474D02*
X68600Y462374D01*
X65900Y454900D02*
Y459800D01*
X63500Y462200D02*
X65900Y459800D01*
X50882Y462200D02*
X63500D01*
X50182Y461500D02*
X50882Y462200D01*
X67500Y463474D02*
X68500Y462474D01*
X25532Y460732D02*
X26300Y461500D01*
X25532Y460360D02*
Y460732D01*
X20572Y455400D02*
X25532Y460360D01*
X20200Y455400D02*
X20572D01*
X9594Y454181D02*
X26814Y471400D01*
X5000Y454120D02*
X28980Y478100D01*
X9594Y446924D02*
Y454181D01*
X5000Y393280D02*
Y454120D01*
X11563Y452331D02*
X21332Y462100D01*
X13531Y451515D02*
X18808Y456792D01*
X50418Y471400D02*
X52780Y473761D01*
X52941Y473600D02*
X57100D01*
X52780Y473761D02*
X52941Y473600D01*
X7626Y444926D02*
X7700Y445000D01*
X7626Y393438D02*
Y444926D01*
X9594Y443076D02*
X10400Y443882D01*
X9594Y394254D02*
Y443076D01*
X11563Y442640D02*
X12100Y443177D01*
X11563Y395069D02*
Y442640D01*
X13800Y442473D02*
Y447527D01*
X13531Y442205D02*
X13800Y442473D01*
X13531Y395885D02*
Y442205D01*
X15500Y396700D02*
Y450700D01*
X12100Y443177D02*
Y446823D01*
X13531Y447795D02*
Y451515D01*
Y447795D02*
X13800Y447527D01*
X11563Y447360D02*
Y452331D01*
Y447360D02*
X12100Y446823D01*
X9594Y446924D02*
X10400Y446118D01*
Y443882D02*
Y446118D01*
X15500Y450700D02*
X20200Y455400D01*
X67500Y463474D02*
Y469144D01*
X68083Y416000D02*
Y419283D01*
X285256Y163244D02*
X298000Y150500D01*
X300790Y147710D01*
X263256Y163500D02*
Y170000D01*
X279428Y135772D02*
X280131Y135069D01*
X279428Y135772D02*
Y136500D01*
X276756D02*
X279428D01*
X481622Y298421D02*
X491579D01*
X484590Y301626D02*
X533374D01*
X483859Y300895D02*
X484590Y301626D01*
X485723Y304700D02*
X488300Y307277D01*
X483846Y304700D02*
X485723D01*
X486600Y307982D02*
Y309859D01*
X485018Y306400D02*
X486600Y307982D01*
X483141Y306400D02*
X485018D01*
X488300Y307277D02*
Y309154D01*
X481622Y300895D02*
X483859D01*
X480890Y297689D02*
X481622Y298421D01*
X482740Y303595D02*
X483846Y304700D01*
X483036Y306295D02*
X483141Y306400D01*
X481622Y306295D02*
X483036D01*
X480890Y305563D02*
X481622Y306295D01*
X480890Y301626D02*
X481622Y300895D01*
X483900Y309100D02*
Y310977D01*
X72256Y407500D02*
X72500Y407256D01*
Y403700D02*
Y407256D01*
X66744Y407500D02*
X73989Y414745D01*
X77244Y407500D02*
X79744Y410000D01*
X72256Y407500D02*
X77244D01*
X73989Y414745D02*
Y416000D01*
X133000Y415956D02*
X133044Y416000D01*
X133000Y408756D02*
Y415956D01*
X126000Y414861D02*
X127139Y416000D01*
X126000Y408756D02*
Y414861D01*
X120000Y414767D02*
X121233Y416000D01*
X120000Y409256D02*
Y414767D01*
X113500Y414172D02*
X115328Y416000D01*
X113500Y409256D02*
Y414172D01*
X107256Y413834D02*
X109422Y416000D01*
X107256Y407500D02*
Y413834D01*
X101744Y414227D02*
X103517Y416000D01*
X101744Y407500D02*
Y414227D01*
X96756Y415145D02*
X97611Y416000D01*
X96756Y409500D02*
Y415145D01*
X91244Y415538D02*
X91706Y416000D01*
X91244Y409500D02*
Y415538D01*
X79744Y415850D02*
X79894Y416000D01*
X79744Y410000D02*
Y415850D01*
X85256Y415456D02*
X85800Y416000D01*
X85256Y410000D02*
Y415456D01*
X79744Y410000D02*
X86000Y403744D01*
X120000D02*
X120500Y403244D01*
X272000Y47744D02*
X272197Y47547D01*
X271803D02*
X272000Y47744D01*
X265500Y47547D02*
X271803D01*
X257744Y163500D02*
X258000D01*
X301500Y147000D02*
X307500D01*
X307488Y141500D02*
X307500Y141488D01*
X610900Y437300D02*
X611300Y437700D01*
X594053Y437300D02*
X610900D01*
X506200Y574600D02*
X510600Y579000D01*
X518000D01*
X404000Y537000D02*
X404682D01*
X539448Y307700D02*
X611300D01*
X533374Y301626D02*
X539448Y307700D01*
X514441Y337700D02*
X611300D01*
X480500Y590300D02*
X486200Y584600D01*
X480500Y590300D02*
Y594133D01*
X486200Y594600D02*
Y594604D01*
X491000Y589800D02*
X496200Y584600D01*
X491000Y589800D02*
Y596500D01*
X501500Y589300D02*
X506200Y584600D01*
X471500Y595133D02*
X488067Y611700D01*
X476200Y594600D02*
X491600Y610000D01*
X480500Y594133D02*
X494667Y608300D01*
X486200Y594604D02*
X498196Y606600D01*
X491000Y596500D02*
X499400Y604900D01*
X496200Y594600D02*
X504800Y603200D01*
X501500Y589300D02*
Y597000D01*
X506000Y601500D01*
X506200Y594600D02*
X507100Y595500D01*
X516000D01*
X432767Y536400D02*
X454667Y558300D01*
X482300Y548500D02*
X486200Y544600D01*
X474000Y548500D02*
X482300D01*
X500500Y523500D02*
X523000Y546000D01*
X436300Y534700D02*
X456200Y554600D01*
X486200D02*
X492500Y548300D01*
X488067Y611700D02*
X523225D01*
X491600Y610000D02*
X522521D01*
X494667Y608300D02*
X521817D01*
X498196Y606600D02*
X521112D01*
X499400Y604900D02*
X520408D01*
X504800Y603200D02*
X519704D01*
X506000Y601500D02*
X519000D01*
X518000Y579000D02*
X523000Y574000D01*
X468404Y520500D02*
X469000D01*
X523000Y546000D02*
Y574000D01*
X523225Y611700D02*
X539200Y595725D01*
X522521Y610000D02*
X537500Y595021D01*
X521817Y608300D02*
X535800Y594317D01*
X521112Y606600D02*
X534100Y593612D01*
X520408Y604900D02*
X532400Y592908D01*
X516000Y595500D02*
X526500Y585000D01*
X519000Y601500D02*
X528700Y591800D01*
X519704Y603200D02*
X530700Y592204D01*
X498300Y516800D02*
X526500Y545000D01*
Y585000D01*
X499004Y515100D02*
X528700Y544796D01*
Y591800D01*
X532400Y543688D02*
Y592908D01*
X534100Y542983D02*
Y593612D01*
X535800Y542279D02*
Y594317D01*
X537500Y541575D02*
Y595021D01*
X503229Y504900D02*
X539200Y540871D01*
Y595725D01*
X138950Y416000D02*
X141500Y413450D01*
X387000Y345837D02*
X387500Y345337D01*
Y343101D02*
Y345337D01*
X387000Y342601D02*
X387500Y343101D01*
X387000Y339500D02*
Y342601D01*
X385182Y348500D02*
X387000D01*
X481622Y286610D02*
X483859D01*
X482396Y288310D02*
X484563D01*
X271244Y138444D02*
X283300Y150500D01*
X298000D01*
X282400Y143356D02*
X284900Y145856D01*
X268100Y184000D02*
X268300Y184200D01*
X491000Y123000D02*
Y131447D01*
X266330Y337530D02*
X267554D01*
X263797Y334830D02*
X267470D01*
X268946Y338922D02*
Y340146D01*
X271562Y342762D02*
X271646Y342679D01*
Y339005D02*
Y342679D01*
X248962Y363781D02*
X249046Y363864D01*
X248962Y360130D02*
X249046Y360046D01*
X248962Y360130D02*
Y363781D01*
X246346Y361164D02*
X246430Y361248D01*
X246346Y357513D02*
X246430Y357430D01*
X246346Y357513D02*
Y361164D01*
X243730Y358548D02*
X243813Y358632D01*
X243730Y354897D02*
X243813Y354813D01*
X243730Y354897D02*
Y358548D01*
X204200Y519050D02*
X205782Y520632D01*
X206750D01*
X212200Y526082D01*
X210000Y517800D02*
X211700Y519500D01*
X202500Y520200D02*
X209500Y527200D01*
X212200Y526900D02*
X213200D01*
X381800Y88300D02*
X383616Y90116D01*
X381800Y68600D02*
Y88300D01*
X426400Y101000D02*
Y132100D01*
X431453Y137153D01*
X441000D01*
X343700Y340000D02*
X344094Y340394D01*
X339756Y340000D02*
X343700D01*
X28980Y478100D02*
X49900D01*
X26814Y471400D02*
X50418D01*
X131926Y261244D02*
Y332258D01*
X129957Y257980D02*
Y331443D01*
X135863Y267772D02*
Y333889D01*
X139800Y274300D02*
X159800Y254300D01*
X15500Y396700D02*
X32557Y379643D01*
X13531Y395885D02*
X31742Y377674D01*
X11563Y395069D02*
X30927Y375706D01*
X9594Y394254D02*
X30111Y373737D01*
X7626Y393438D02*
X29296Y371769D01*
X5000Y393280D02*
X28480Y369800D01*
X26300Y461500D02*
X50182D01*
X62178Y416000D02*
X80520Y434342D01*
Y473680D01*
X68083Y419283D02*
X85400Y436600D01*
Y473900D01*
X32557Y379643D02*
X95677D01*
X31742Y377674D02*
X94862D01*
X30927Y375706D02*
X94046D01*
X91600Y369800D02*
X129957Y331443D01*
X139800Y274300D02*
Y335520D01*
X30111Y373737D02*
X93231D01*
X29296Y371769D02*
X92415D01*
X28480Y369800D02*
X91600D01*
X93231Y373737D02*
X103584Y363384D01*
X94046Y375706D02*
X135863Y333889D01*
X94862Y377674D02*
X106368Y366168D01*
X95677Y379643D02*
X139800Y335520D01*
X206900Y517932D02*
X208032Y516800D01*
X202500Y443849D02*
Y520200D01*
X251662Y362662D02*
Y403038D01*
X249046Y363864D02*
Y402870D01*
X246430Y361248D02*
Y402703D01*
X243813Y358632D02*
Y402535D01*
X210000Y444700D02*
Y517800D01*
Y444700D02*
X251662Y403038D01*
X208032Y443885D02*
X249046Y402870D01*
X208032Y443885D02*
Y516800D01*
X204200Y444932D02*
Y519050D01*
Y444932D02*
X246430Y402703D01*
X202500Y443849D02*
X243813Y402535D01*
X141500Y408756D02*
Y413450D01*
X468808Y518500D02*
X470100D01*
X492500Y544000D02*
Y548300D01*
X472000Y546500D02*
X474000Y548500D01*
X472000Y530500D02*
Y546500D01*
X476200Y530700D02*
Y544600D01*
X469000Y520500D02*
X492500Y544000D01*
X470100Y518500D02*
X496200Y544600D01*
X309482Y377882D02*
X309600Y377763D01*
X309482Y381582D02*
X309600Y381463D01*
X432382Y306300D02*
X433200D01*
X395000Y343682D02*
X432382Y306300D01*
X389700Y340800D02*
X432100Y298400D01*
X389500Y349818D02*
Y355000D01*
Y349818D02*
X389700Y349618D01*
Y340800D02*
Y349618D01*
X381309Y332891D02*
X427400Y286800D01*
X433200Y306300D02*
X434500Y305000D01*
X436500D01*
X432100Y298400D02*
X433500D01*
X387000Y339500D02*
X430780Y295721D01*
X429200Y234600D02*
Y243300D01*
X423800Y248700D02*
X429200Y243300D01*
X405000D02*
Y262500D01*
X292474Y274500D02*
Y309826D01*
X296174Y274500D02*
Y308910D01*
X344600Y297500D02*
X370000D01*
X299874Y274500D02*
Y307994D01*
X267470Y334830D02*
X292474Y309826D01*
X267554Y337530D02*
X296174Y308910D01*
X271646Y339005D02*
X303574Y307078D01*
X268946Y338922D02*
X299874Y307994D01*
X263713Y334913D02*
X263797Y334830D01*
X243100Y334000D02*
X247600Y329500D01*
X243100Y334000D02*
Y335800D01*
X238600Y330700D02*
X239200Y331300D01*
X230600Y330700D02*
X238600D01*
X427400Y286100D02*
Y286800D01*
X447800Y259900D02*
X474300D01*
X396800Y267182D02*
X398382Y265600D01*
X370000Y297500D02*
X396800Y270700D01*
X401900Y265600D02*
X405000Y262500D01*
X396800Y267182D02*
Y270700D01*
X398382Y265600D02*
X401900D01*
X399500Y268300D02*
X418300D01*
X429200Y234600D02*
X431000Y232800D01*
X327963Y237300D02*
X412400D01*
X324100Y241163D02*
X327963Y237300D01*
X412400D02*
X413800Y238700D01*
X135863Y267772D02*
X154567Y249067D01*
X129957Y257980D02*
X146719Y241219D01*
X131926Y261244D02*
X149270Y243900D01*
X149400D01*
X257100Y389219D02*
X257919Y388400D01*
X257100Y377881D02*
X309481D01*
X308900Y388400D02*
X309600Y389100D01*
X288682Y384700D02*
X290918D01*
X291622Y383000D02*
X294022Y385400D01*
X309600D01*
X257100Y381582D02*
X257382Y381300D01*
X309200D01*
X259619Y383000D02*
X291622D01*
X294618Y388400D02*
X308900D01*
X257919D02*
X284982D01*
X288682Y384700D01*
X290918D02*
X294618Y388400D01*
X257100Y385519D02*
X259619Y383000D01*
X480890Y285878D02*
X481622Y286610D01*
X480890Y289815D02*
X482396Y288310D01*
X471260Y297689D02*
X480890D01*
X471260Y289815D02*
X480890D01*
X471260Y285878D02*
X480890D01*
D33*
X198900Y537700D02*
X217900D01*
X288824Y120624D02*
X289000Y120800D01*
X287367Y119167D02*
X288824Y120624D01*
X326500Y185800D02*
X333300Y192600D01*
X345100Y359200D02*
X365900Y380000D01*
X399100Y391956D02*
X407700D01*
X440378Y225834D02*
X440656Y225556D01*
X437712Y228500D02*
X440378Y225834D01*
X265369Y417076D02*
X265400Y417044D01*
X265347Y417098D02*
X265369Y417076D01*
X214900Y562400D02*
X215000Y562300D01*
Y551287D02*
Y551400D01*
Y550700D02*
Y551287D01*
X250644Y351100D02*
X253000Y348744D01*
X397667Y535367D02*
Y541467D01*
Y535100D02*
Y535367D01*
X433534Y301666D02*
X434067Y301133D01*
X392800Y342400D02*
X433534Y301666D01*
X490300Y567088D02*
Y567100D01*
Y563609D02*
Y567088D01*
X413800Y437800D02*
X425700D01*
X413300D02*
X413800D01*
X333400Y438522D02*
X354843D01*
X333378D02*
X333400D01*
X354843D02*
X366478D01*
X458500Y373644D02*
X468744D01*
X454956D02*
X458500D01*
X281291Y355256D02*
X281344D01*
X281000D02*
X281291D01*
X245300Y323500D02*
Y323700D01*
X245244Y323500D02*
X245300D01*
X275300Y349844D02*
X275400Y349744D01*
X263100Y351100D02*
X263500Y350700D01*
X275300Y349844D02*
Y355200D01*
X247827Y264571D02*
Y265687D01*
Y259373D02*
Y264571D01*
X247884Y265744D02*
X249000D01*
X247827Y265687D02*
X247884Y265744D01*
X301200Y16300D02*
X339100Y54200D01*
X217700Y16300D02*
X301200D01*
X299500Y17800D02*
X335700Y54000D01*
X219500Y17800D02*
X299500D01*
X198900Y164400D02*
X211400Y176900D01*
Y182400D01*
X188400Y286700D02*
X190500Y288800D01*
X214900D01*
X456695Y315406D02*
X457156Y314944D01*
X461200D01*
X460456Y321200D02*
X461200Y320456D01*
X454400Y321200D02*
X460456D01*
X454095Y310006D02*
Y320895D01*
X454400Y309700D02*
X455600Y308500D01*
X454095Y310006D02*
X454400Y309700D01*
X467044Y314944D02*
X467500Y314488D01*
X461200Y314944D02*
X467044D01*
X461200Y320456D02*
X461656Y320000D01*
X467500D01*
X459000Y293856D02*
Y296700D01*
X455600Y290900D02*
Y308500D01*
X454000Y289300D02*
X454956Y288344D01*
X459000D01*
X272400Y268400D02*
Y268900D01*
X272700Y269200D01*
X251400Y269000D02*
X253000Y267400D01*
X201266Y227334D02*
Y231399D01*
Y227334D02*
X206469Y222131D01*
X198000Y226900D02*
Y229433D01*
Y226900D02*
X204737Y220163D01*
X204500Y227800D02*
Y229400D01*
Y227800D02*
X208200Y224100D01*
X555800Y92100D02*
X556100Y91800D01*
X555800Y92100D02*
Y95500D01*
X538497Y99197D02*
X575497D01*
X537993Y99700D02*
X538497Y99197D01*
X575497D02*
X577900Y101600D01*
X552300Y101800D02*
X558100Y107600D01*
X569700D01*
X590900Y189700D02*
Y197600D01*
Y189700D02*
X595700Y184900D01*
Y175400D02*
Y184900D01*
X618700Y385100D02*
X641000D01*
X611300Y377700D02*
X618700Y385100D01*
X498800Y99700D02*
X537993D01*
X495100Y103400D02*
X498800Y99700D01*
X472000Y344400D02*
Y356100D01*
X263256Y84244D02*
X268000Y79500D01*
X452000Y172200D02*
X462600Y161600D01*
Y149600D02*
Y161600D01*
Y149600D02*
X463550Y148650D01*
X464750D01*
X466200Y147200D01*
X497000D01*
X499400Y149600D01*
Y157300D01*
X498300Y158400D02*
X499400Y157300D01*
X577900Y101600D02*
Y109400D01*
X573800Y113500D02*
X577900Y109400D01*
X457700Y182300D02*
X466400D01*
X467400Y181300D01*
Y178400D02*
Y181300D01*
Y178400D02*
X471300Y174500D01*
X480079D01*
X492979Y161600D01*
X496300D01*
X540600Y101800D02*
X552300D01*
X569700Y107600D02*
X573800Y103500D01*
X460600Y175000D02*
X464100Y171500D01*
Y153721D02*
Y171500D01*
Y153721D02*
X466721Y151100D01*
X496800D01*
X510100Y104263D02*
X524663D01*
X525200Y104800D01*
X546900D01*
X559700Y117600D01*
X574700D01*
X577900Y120800D01*
Y139400D01*
X573800Y143500D02*
X577900Y139400D01*
X569700Y119400D02*
X573800Y123500D01*
X559200Y119400D02*
X569700D01*
X546663Y106863D02*
X559200Y119400D01*
X522600Y106863D02*
X546663D01*
X463750Y144500D02*
X495600D01*
X461100Y147150D02*
X463750Y144500D01*
X461100Y147150D02*
Y149900D01*
X442900Y168100D02*
X461100Y149900D01*
X411700Y226600D02*
X413800Y228700D01*
X378700Y226600D02*
X411700D01*
X435200Y134200D02*
X436947Y132453D01*
Y121321D02*
Y132453D01*
Y121321D02*
X440268Y118000D01*
X481000D01*
X481947Y117053D01*
X492679D01*
X495600Y114132D01*
Y111200D02*
Y114132D01*
Y111200D02*
X497900Y108900D01*
X516560D01*
X524513Y116853D01*
X550253D01*
X554200Y120800D01*
Y162600D01*
X559200Y167600D01*
X569700D01*
X573800Y163500D01*
X467400Y203800D02*
X475400D01*
X478800Y207200D01*
Y209100D01*
X482400Y212700D01*
X496417D01*
X512417Y181600D02*
Y196700D01*
Y181600D02*
X517244Y176773D01*
X540407D01*
X551734Y188100D01*
X573800Y153500D02*
X595700Y175400D01*
X587400Y201100D02*
X590900Y197600D01*
X562500Y201100D02*
X587400D01*
X500300Y263300D02*
X562500Y201100D01*
X455100Y263300D02*
X500300D01*
X439500Y269300D02*
X444300Y274100D01*
X430500Y269300D02*
X439500D01*
X420200Y259000D02*
X430500Y269300D01*
X420200Y232300D02*
Y259000D01*
Y232300D02*
X423800Y228700D01*
Y238700D02*
X427200Y235300D01*
Y232600D02*
Y235300D01*
Y232600D02*
X429600Y230200D01*
X432500D01*
X433800Y231500D01*
X443800D01*
X447400Y235100D01*
Y248800D01*
X450900Y252300D01*
X456100D01*
X458600Y249800D01*
Y246700D02*
Y249800D01*
Y246700D02*
X460200Y245100D01*
X463200D01*
X467400Y240900D01*
Y232500D02*
Y240900D01*
Y232500D02*
X467600Y232300D01*
X505500D01*
X530200Y207600D01*
X512800Y67047D02*
X516153Y70400D01*
X512600Y66847D02*
X512800Y67047D01*
X277147Y291500D02*
Y292753D01*
Y288300D02*
Y291500D01*
X457000Y40047D02*
X462447Y34600D01*
X456847Y40200D02*
X457000Y40047D01*
X512600Y55447D02*
X517553Y60400D01*
X503106Y45953D02*
X512600Y55447D01*
X467500Y314488D02*
X470688D01*
X450900Y227853D02*
X457600Y234553D01*
X445700Y222653D02*
X450900Y227853D01*
X353000Y604377D02*
Y609600D01*
X352100Y603477D02*
X353000Y604377D01*
X352100Y601323D02*
Y603477D01*
Y601323D02*
X353000Y600423D01*
Y469000D02*
Y600423D01*
X351900Y610700D02*
X353000Y609600D01*
Y469000D02*
X358780Y463220D01*
X445700Y217300D02*
Y222653D01*
Y217300D02*
X452600Y210400D01*
X458077Y207800D02*
X458977Y208700D01*
X451523Y207800D02*
X458077D01*
X440100Y219223D02*
X451523Y207800D01*
X440100Y219223D02*
Y220044D01*
X457100Y210500D02*
Y217000D01*
X458977Y208700D02*
X473800D01*
X460900Y196200D02*
X469088D01*
X468609Y198800D02*
X472309Y195100D01*
X459823Y198800D02*
X468609D01*
X458300Y197277D02*
X459823Y198800D01*
X458300Y195721D02*
Y197277D01*
X456679Y194100D02*
X458300Y195721D01*
X469088Y196200D02*
X471688Y193600D01*
X473991D01*
X480200Y187391D01*
Y187209D02*
Y187391D01*
Y187209D02*
X492809Y174600D01*
X493300D01*
X449800Y194100D02*
X456679D01*
X474921Y195100D02*
X475921Y194100D01*
X472309Y195100D02*
X474921D01*
X475921Y194100D02*
X495100D01*
X506400Y150669D02*
Y166800D01*
Y150669D02*
X520221Y136847D01*
X525953D01*
X531900Y130900D01*
X472491Y185100D02*
X477400Y180191D01*
X452309Y185100D02*
X472491D01*
X450200Y187209D02*
X452309Y185100D01*
X502600Y184469D02*
Y219163D01*
X497216Y224547D02*
X502600Y219163D01*
Y184469D02*
X520221Y166847D01*
X531900Y140900D02*
Y145169D01*
X527847Y149221D02*
X531900Y145169D01*
X527847Y149221D02*
Y160684D01*
X440656Y225556D02*
X453800Y238700D01*
X463800Y228853D02*
X468106Y224547D01*
X497216D01*
X520221Y166847D02*
X521684D01*
X527847Y160684D01*
X531900Y150900D02*
X564800Y183800D01*
X491000Y123000D02*
X496300Y117700D01*
X509900D01*
X511700Y119500D01*
X546200D01*
X551600Y124900D01*
X418900Y206300D02*
Y223100D01*
X420400Y216000D02*
Y220923D01*
X417400Y217209D02*
Y220923D01*
X420400D02*
X421500Y222023D01*
Y224177D01*
X419977Y225700D02*
X421500Y224177D01*
X417823Y225700D02*
X419977D01*
X416300Y224177D02*
X417823Y225700D01*
X416300Y222023D02*
Y224177D01*
Y222023D02*
X417400Y220923D01*
X414391Y214200D02*
X417400Y217209D01*
X418900Y206300D02*
X421700Y203500D01*
X410221Y214200D02*
X414391D01*
X420400Y216000D02*
X423100Y218700D01*
X423800D01*
X428900Y211300D02*
X429100Y211100D01*
X428900Y211300D02*
Y218400D01*
X426300Y219477D02*
X432379Y225556D01*
X448247Y190253D02*
Y190900D01*
Y190253D02*
X450200Y188300D01*
Y187209D02*
Y188300D01*
X477400Y179300D02*
Y180191D01*
Y179300D02*
X490900Y165800D01*
X494300D01*
X478500Y159600D02*
Y170500D01*
X483800Y208700D02*
X484177D01*
X498200Y194677D01*
Y190000D02*
Y194677D01*
X432379Y225556D02*
X432900D01*
X426300Y218956D02*
Y219477D01*
X426044Y218700D02*
X426300Y218956D01*
X449300Y194600D02*
X449800Y194100D01*
X443800Y188700D02*
Y209144D01*
X442400Y254500D02*
X459500D01*
X438900Y255000D02*
X449900Y266000D01*
X438900Y243600D02*
Y255000D01*
Y243600D02*
X443800Y238700D01*
X459500Y254500D02*
X459600Y254600D01*
X564800Y183800D02*
X593100D01*
X556500Y185500D02*
Y194500D01*
X531900Y160900D02*
X556500Y185500D01*
X508400Y248700D02*
X515400Y241700D01*
X511300Y231400D02*
X540400Y202300D01*
X477900Y234600D02*
X516400D01*
X556500Y194500D01*
X540400Y189400D02*
Y202300D01*
X531900Y180900D02*
X540400Y189400D01*
X289000Y120447D02*
X289347Y120100D01*
X289000Y120447D02*
Y120800D01*
X142300Y457400D02*
X158700Y441000D01*
X142979Y454600D02*
X158079Y439500D01*
X158700Y441000D02*
X168000D01*
X158079Y439500D02*
X159500D01*
X454000Y289300D02*
X455600Y290900D01*
X446800Y338700D02*
X446900Y338800D01*
X171300Y593100D02*
X175685Y588715D01*
X140700Y593100D02*
X171300D01*
X67900Y559100D02*
X103300Y523700D01*
X67900Y559100D02*
Y572770D01*
X103300Y523700D02*
X113800D01*
X67900Y572770D02*
X75815Y580685D01*
X58000Y529023D02*
Y574800D01*
X55700Y529202D02*
Y567100D01*
X41500Y555502D02*
Y560900D01*
Y555502D02*
X45002Y552000D01*
X47900D01*
X51700Y548200D01*
Y528900D02*
Y548200D01*
X370100Y532500D02*
X375000Y527600D01*
X364000Y515500D02*
Y606500D01*
Y515500D02*
X393000Y486500D01*
X359700Y514200D02*
Y605000D01*
X357300Y510700D02*
Y603477D01*
Y510700D02*
X387500Y480500D01*
X354700Y471900D02*
Y602400D01*
X359500Y514000D02*
X390000Y483500D01*
X397800Y523100D02*
X432079D01*
X435900Y526921D01*
Y527777D01*
X437423Y529300D01*
X438500D01*
X439600Y530400D01*
X400300Y518800D02*
X413000Y506100D01*
X453000Y530200D02*
Y541400D01*
X466200Y554600D01*
X425500Y511500D02*
X453000D01*
X430300Y509800D02*
X455300D01*
X432600Y508100D02*
X456004D01*
X436900Y506400D02*
X456708D01*
X439469Y504700D02*
X457412D01*
X443500Y503000D02*
X458117D01*
X410000Y469500D02*
X443500Y503000D01*
X445800Y501300D02*
X458821D01*
X415947Y471447D02*
X445800Y501300D01*
X450100Y499600D02*
X459525D01*
X420000Y469500D02*
X450100Y499600D01*
X451900Y497900D02*
X460229D01*
X425500Y471500D02*
X451900Y497900D01*
X456700Y496200D02*
X460933D01*
X430000Y469500D02*
X456700Y496200D01*
X457539Y494500D02*
X461637D01*
X435500Y472461D02*
X457539Y494500D01*
X440000Y469500D02*
X462342Y491842D01*
Y492800D01*
X464709Y578200D02*
X467691D01*
X461109Y574600D02*
X464709Y578200D01*
X456200Y574600D02*
X461109D01*
X467991Y577900D02*
X485400D01*
X467691Y578200D02*
X467991Y577900D01*
X455800Y594600D02*
X466200D01*
X469900Y584600D02*
X476200D01*
X469900D02*
Y595991D01*
X460891Y605000D02*
X469900Y595991D01*
X409300Y548100D02*
X455800Y594600D01*
X394500Y605000D02*
X460891D01*
X404300Y548100D02*
X409300D01*
X408000Y570100D02*
X427400D01*
X397667Y541467D02*
X404300Y548100D01*
X410700Y555300D02*
X411500D01*
X412200Y556000D02*
Y565100D01*
X408000Y552700D02*
Y570100D01*
X411500Y555300D02*
X412200Y556000D01*
X397400Y535367D02*
X397667Y535100D01*
X387900Y601800D02*
X403023D01*
X404723Y603500D01*
X443800D01*
X447500Y599800D01*
X394052Y604552D02*
X394500Y605000D01*
X405800Y600900D02*
X421700Y585000D01*
X444800Y573900D02*
X447500Y576600D01*
X444800Y569700D02*
Y573900D01*
X376500Y379500D02*
X427900D01*
X373600Y308900D02*
Y429700D01*
X391300Y360900D02*
X392800Y359400D01*
X395777Y371400D02*
X397600Y369577D01*
Y345167D02*
Y369577D01*
X454800Y398100D02*
X464800Y408100D01*
Y440800D01*
X454989Y375277D02*
Y385011D01*
X454956Y375244D02*
X454989Y375277D01*
X464800Y440800D02*
X522300Y498300D01*
X461500Y449000D02*
X552500Y540000D01*
X460879Y450500D02*
X549000Y538621D01*
X459000Y452000D02*
X545500Y538500D01*
X369300Y523300D02*
X373800Y518800D01*
X359500Y514000D02*
X359700Y514200D01*
X354700Y471900D02*
X364900Y461700D01*
X391500Y516000D02*
X407500Y500000D01*
X389500Y512000D02*
X404000Y497500D01*
X389500Y512000D02*
Y534000D01*
X159500Y439500D02*
X168000Y431000D01*
X136509Y457400D02*
X142300D01*
X134509Y459400D02*
X136509Y457400D01*
X132400Y459400D02*
X134509D01*
X133600Y454600D02*
X142979D01*
X119600Y474300D02*
X124100Y469800D01*
X112723Y474300D02*
X119600D01*
X58000Y529023D02*
X112723Y474300D01*
X111780Y471000D02*
X114100D01*
X53200Y529580D02*
Y549600D01*
X112402Y472500D02*
X116277D01*
X55700Y529202D02*
X112402Y472500D01*
X53200Y529580D02*
X111780Y471000D01*
X116277Y472500D02*
X118800Y469977D01*
X114100Y471000D02*
X116200Y468900D01*
X118800Y469900D02*
Y469977D01*
X51700Y528900D02*
X112200Y468400D01*
X46700Y586100D02*
X58000Y574800D01*
X46700Y576100D02*
X55700Y567100D01*
X118800Y469900D02*
X119900Y468800D01*
X46700Y556100D02*
X53200Y549600D01*
X41500Y560900D02*
X46700Y566100D01*
X59400Y475023D02*
X62442Y471981D01*
X59400Y475023D02*
Y475900D01*
X58477D02*
X59400D01*
X58177Y476200D02*
X58477Y475900D01*
X51677Y476200D02*
X58177D01*
X62000Y476100D02*
X66056D01*
X67500Y474656D01*
X62442Y471981D02*
X69727D01*
X326500Y185800D02*
X326700Y185600D01*
X309900Y160400D02*
X316100D01*
X308005Y158505D02*
X309900Y160400D01*
X293977Y233600D02*
X308200D01*
X308600Y233200D01*
X309908Y235569D02*
X315569D01*
X309677Y235800D02*
X309908Y235569D01*
X307523Y235800D02*
X309677D01*
X307292Y235569D02*
X307523Y235800D01*
X294130Y235569D02*
X307292D01*
X315569D02*
X321400Y241400D01*
X276323Y236700D02*
X292998D01*
X273100Y239923D02*
X276323Y236700D01*
X273100Y239923D02*
Y243421D01*
X270753Y245769D02*
X273100Y243421D01*
X275702Y235200D02*
X292377D01*
X271600Y239302D02*
X275702Y235200D01*
X292377D02*
X293977Y233600D01*
X271600Y239302D02*
Y242800D01*
X270600Y243800D02*
X271600Y242800D01*
X275080Y233700D02*
X290200D01*
X270100Y238680D02*
X275080Y233700D01*
X292998Y236700D02*
X294130Y235569D01*
X251669Y245769D02*
X270753D01*
X290200Y233700D02*
X292300Y231600D01*
X270100Y238680D02*
Y239377D01*
X268477Y241000D02*
X270100Y239377D01*
X280300Y241200D02*
X280500D01*
X274231Y247269D02*
X280300Y241200D01*
X278531Y248769D02*
X285900Y241400D01*
X238300D02*
X245669Y248769D01*
X241100Y240500D02*
X247869Y247269D01*
X274231D01*
X245669Y248769D02*
X278531D01*
X245000Y239100D02*
X251669Y245769D01*
X252223Y243800D02*
X270600D01*
X249392Y240969D02*
X252223Y243800D01*
X249392Y240708D02*
Y240969D01*
X247700Y239016D02*
X249392Y240708D01*
X247700Y231100D02*
Y239016D01*
X245000Y233800D02*
Y239100D01*
X252000Y230100D02*
Y239900D01*
X250800Y228900D02*
X252000Y230100D01*
X255700Y239400D02*
X264723D01*
X248200Y226267D02*
X248233Y226300D01*
X255300D02*
X267400Y238400D01*
X248233Y226300D02*
X255300D01*
X241100Y233200D02*
Y240500D01*
X238300Y236600D02*
Y241400D01*
X233300Y221233D02*
X236084Y224016D01*
X233300Y196700D02*
Y221233D01*
X235269Y217969D02*
X238700Y221400D01*
X235269Y198431D02*
Y217969D01*
Y198431D02*
X239100Y194600D01*
X233300Y196700D02*
X235400Y194600D01*
X240177Y197200D02*
X244600Y192777D01*
X239600Y197200D02*
X240177D01*
X238000Y198800D02*
X239600Y197200D01*
X238000Y198800D02*
Y215900D01*
X244600Y192200D02*
Y192777D01*
X275200Y216100D02*
X283600Y224500D01*
X243500Y143900D02*
Y148516D01*
X247605Y141805D02*
Y147195D01*
X323100Y267600D02*
Y270500D01*
X322630Y267130D02*
X323100Y267600D01*
X264723Y239400D02*
X266323Y241000D01*
X268477D01*
X294500Y228277D02*
X296023Y229800D01*
X294500Y227200D02*
Y228277D01*
X275700Y208400D02*
X294500Y227200D01*
X296023Y229800D02*
X298177D01*
X299700Y228277D01*
X297100Y227200D02*
X317700Y206600D01*
X299700Y226721D02*
X301021Y225400D01*
X299700Y226721D02*
Y228277D01*
X317700Y175400D02*
Y206600D01*
X301021Y225400D02*
X329000D01*
X311300Y169000D02*
X317700Y175400D01*
X311300Y165700D02*
Y169000D01*
X304800Y176000D02*
X308000Y172800D01*
X309300D01*
X311500Y139100D02*
Y149700D01*
X314600Y138300D02*
Y147200D01*
X296550Y127900D02*
X306000D01*
X296425Y128025D02*
X296550Y127900D01*
X348200Y78800D02*
X353600Y84200D01*
X222200Y94500D02*
X230400D01*
X311715Y96085D02*
Y114285D01*
X339100Y93200D02*
X345500D01*
X346900Y94600D01*
X448500Y40200D02*
X456847D01*
X436400Y100500D02*
Y117600D01*
X431000Y123000D02*
X436400Y117600D01*
X403300Y209800D02*
X406900Y213400D01*
X408421Y216000D02*
X410221Y214200D01*
X378500Y204100D02*
X390400Y216000D01*
X408421D01*
X403300Y185800D02*
Y209800D01*
X395500Y178000D02*
X403300Y185800D01*
X556500Y194500D02*
X587500D01*
X492300Y341453D02*
X588147Y437300D01*
X492300Y326800D02*
Y341453D01*
X222324Y161976D02*
X236590Y147710D01*
X239500Y145300D02*
Y150000D01*
X214700Y22600D02*
X219500Y17800D01*
X212200Y21800D02*
X217700Y16300D01*
X263000Y69500D02*
X265500Y67000D01*
Y53453D02*
Y67000D01*
X273000Y69500D02*
X278500Y64000D01*
Y53453D02*
Y64000D01*
X285700Y87200D02*
X286200D01*
X278000Y79500D02*
X285700Y87200D01*
X339100Y54200D02*
Y93200D01*
X335700Y54000D02*
Y91200D01*
X212200Y21800D02*
Y129700D01*
X225600D01*
X228553Y132653D01*
X214700Y22600D02*
Y115100D01*
X224853D01*
X257800Y92000D02*
X259256D01*
X263256Y88000D01*
Y84244D02*
Y88000D01*
X23932Y461023D02*
Y461916D01*
X21516Y459500D02*
X22409D01*
X23932Y461023D01*
Y461916D02*
X26216Y464200D01*
X18808Y456792D02*
X21516Y459500D01*
X26216Y464200D02*
X27600D01*
X38400Y475000D02*
X39300Y475900D01*
X48423D01*
X48823Y475500D01*
X50977D01*
X51677Y476200D01*
X69727Y471981D02*
X72146Y474400D01*
X75800D01*
X246240Y350800D02*
X246244Y350804D01*
X243300Y350800D02*
X246240D01*
X251756Y347500D02*
X253000Y348744D01*
X240740Y314400D02*
X241000Y314140D01*
X243800Y315300D02*
X253256D01*
X245100Y283000D02*
X249244D01*
X244793Y283307D02*
X245100Y283000D01*
X254756Y281156D02*
Y283000D01*
X252600Y279000D02*
X254756Y281156D01*
X250300Y279000D02*
X252600D01*
X247827Y264571D02*
X249000Y265744D01*
X251400Y269000D02*
Y271256D01*
X272700Y269200D02*
Y271256D01*
X284000Y261400D02*
Y265244D01*
Y261400D02*
X285228Y260172D01*
X288900Y268200D02*
X289900Y269200D01*
X287600Y268200D02*
X288900D01*
X338256Y271500D02*
X338260Y271496D01*
X332844Y277600D02*
X333043Y277402D01*
X332844Y296600D02*
X333444Y296000D01*
X340256Y303600D02*
X342700D01*
X340256Y310700D02*
X343600D01*
X343766Y310866D01*
X199156Y182000D02*
X199556Y182400D01*
X211400D02*
Y192400D01*
Y202400D01*
X181400Y182400D02*
Y192400D01*
X378500Y171053D02*
Y179000D01*
X411000Y138553D02*
X432747Y160300D01*
X439600D01*
X421200Y128821D02*
Y132647D01*
Y128821D02*
X422347Y127674D01*
Y126431D02*
Y127674D01*
X411000Y123000D02*
Y132647D01*
X405400Y118600D02*
Y132953D01*
Y118600D02*
X411000Y113000D01*
X405400Y132953D02*
X411000Y138553D01*
X439600Y160300D02*
Y184500D01*
X443800Y188700D01*
X436244Y216700D02*
X443800Y209144D01*
X378500Y199000D02*
Y204100D01*
X436600Y228500D02*
X437712D01*
X434588Y225556D02*
X440100Y220044D01*
X432900Y225556D02*
X434588D01*
X432900Y220044D02*
X436244Y216700D01*
X423800Y218700D02*
X426044D01*
X440100Y225556D02*
X440656D01*
X491000Y97300D02*
Y113000D01*
X481000Y97100D02*
Y113000D01*
X416947Y134300D02*
X421200Y138553D01*
X416947Y121321D02*
Y134300D01*
Y121321D02*
X421000Y117269D01*
Y113000D02*
Y117269D01*
X421469Y125553D02*
X422347Y126431D01*
X421200Y125553D02*
X421469D01*
X421200Y123200D02*
Y125553D01*
X421000Y123000D02*
X421200Y123200D01*
X470900Y97100D02*
X471000Y97200D01*
Y113000D01*
X460700Y97100D02*
X461000Y97400D01*
Y113000D01*
X450700Y97100D02*
X451000Y97400D01*
Y113000D01*
X441000Y93600D02*
Y113000D01*
X431000Y97100D02*
Y113000D01*
X421000Y97100D02*
Y113000D01*
X410900Y97100D02*
X411000Y97200D01*
Y113000D01*
X470688Y314488D02*
Y319511D01*
X340756Y352300D02*
X340800D01*
X340895Y352205D01*
X292600Y417100D02*
X292906Y416795D01*
X265400Y417000D02*
Y417044D01*
X265347Y417054D02*
X265400Y417000D01*
X167856Y520856D02*
X168000Y521000D01*
X156600Y520856D02*
X167856D01*
X392000Y516500D02*
Y537500D01*
X391500Y516000D02*
X392000Y516500D01*
X425500Y464000D02*
Y471500D01*
Y464000D02*
X430000Y459500D01*
X415947Y467769D02*
Y471447D01*
Y467769D02*
X416000Y467716D01*
Y463500D02*
Y467716D01*
Y463500D02*
X420000Y459500D01*
X382000Y508500D02*
X399000Y491500D01*
X382000Y508500D02*
X382500Y509000D01*
X386500Y509500D02*
X401500Y494500D01*
X388000Y535500D02*
Y536500D01*
X410000Y459500D02*
Y461716D01*
X405947Y465769D02*
X410000Y461716D01*
X405947Y465769D02*
Y471179D01*
X439469Y504700D01*
X378500Y506500D02*
X396000Y489000D01*
X390000Y469500D02*
X430300Y509800D01*
X435500Y464000D02*
X440000Y459500D01*
X435500Y464000D02*
Y472461D01*
X538500Y628500D02*
X542500Y624500D01*
X400000Y459500D02*
X401805Y457695D01*
X542500Y539000D02*
Y624500D01*
X545500Y538500D02*
Y626500D01*
X552500Y540000D02*
Y622000D01*
X549000Y538621D02*
Y624500D01*
X402244Y458134D02*
X403487D01*
X408121Y453500D01*
X457000D02*
X542500Y539000D01*
X398195Y461305D02*
X400000Y459500D01*
X398634Y461744D02*
Y462987D01*
X395947Y465674D02*
X398634Y462987D01*
X395947Y465674D02*
Y471447D01*
X390000Y469500D02*
X395947Y463553D01*
Y457821D02*
Y463553D01*
X390000Y459500D02*
X391805Y457695D01*
X392244Y458134D02*
X393487D01*
X401121Y450500D01*
X388634Y461744D02*
Y462987D01*
X388195Y461305D02*
X390000Y459500D01*
X385947Y465674D02*
Y471947D01*
Y465674D02*
X388634Y462987D01*
X385947Y457821D02*
Y463553D01*
X54700Y423900D02*
X56272Y422328D01*
Y416000D02*
Y422328D01*
X50367Y416000D02*
X52000Y417633D01*
X202318Y550418D02*
X202600Y550700D01*
X214900Y562400D02*
X215300Y562800D01*
X215000Y551400D02*
X215113Y551287D01*
X215000Y551400D02*
Y562300D01*
X207900Y550700D02*
Y556656D01*
X207356Y557200D02*
X207900Y556656D01*
X202600Y550700D02*
X207900D01*
X215000D01*
X265344Y417100D02*
X265347Y417098D01*
X393656Y396456D02*
Y437744D01*
X393600Y437800D02*
X393656Y437744D01*
X413300Y437800D02*
X413800Y438300D01*
X393600Y437800D02*
X413300D01*
X425356Y391956D02*
X425500Y392100D01*
X392100Y394900D02*
X393656Y396456D01*
X419500Y391956D02*
X419681D01*
X425356D01*
X419591Y392046D02*
X419681Y391956D01*
X392500Y371400D02*
X395777D01*
X454095Y320895D02*
X454400Y321200D01*
X292906Y416795D02*
X293200Y416500D01*
X329244Y411634D02*
Y416500D01*
X333100Y438600D02*
X333178Y438522D01*
X329244Y411634D02*
X329910Y412300D01*
X472200Y377100D02*
Y389200D01*
X468744Y373644D02*
X471100Y376000D01*
X472200Y377100D01*
X454956Y373644D02*
Y375244D01*
X453717Y355784D02*
X454956Y357023D01*
X512000Y568800D02*
X516200Y564600D01*
X492412Y568800D02*
X512000D01*
X490700Y567088D02*
X492412Y568800D01*
X485400Y577900D02*
X490700Y572600D01*
X408000Y587200D02*
X409000Y588200D01*
X490300Y567100D02*
X490312Y567088D01*
X490700D01*
X408000Y570100D02*
Y587200D01*
X215113Y551287D02*
X224300Y542100D01*
X146756Y471000D02*
X157100Y460656D01*
X138000Y471000D02*
X146756D01*
X470688Y319511D02*
X471500Y320323D01*
Y322477D01*
X470688Y323289D02*
X471500Y322477D01*
X470688Y323289D02*
Y327188D01*
X466300Y321200D02*
X467500Y320000D01*
X263256Y170000D02*
Y176200D01*
X199044Y554400D02*
X201844Y557200D01*
X198300Y554400D02*
X199044D01*
X277600Y137344D02*
Y140500D01*
X276756Y136500D02*
X277600Y137344D01*
X247000Y216100D02*
X256200D01*
X246100Y215200D02*
X247000Y216100D01*
X249100Y211600D02*
X254000D01*
X249100D02*
X249200Y211500D01*
X181400Y182400D02*
X193244D01*
X193644Y182000D01*
X199556Y182400D02*
X211400D01*
X208200Y224100D02*
X219100D01*
X204737Y220163D02*
X219253D01*
X206469Y222131D02*
X219406D01*
X219100Y224100D02*
X219569Y223631D01*
X221069Y168164D02*
X223716Y165516D01*
X219100Y167348D02*
X222324Y164124D01*
Y161976D02*
Y164124D01*
X223716Y165516D02*
X223984D01*
X239500Y150000D01*
X223037Y168979D02*
X243500Y148516D01*
X332844Y161156D02*
X346200D01*
X332700Y161300D02*
X332844Y161156D01*
X344156Y142100D02*
X345900Y143844D01*
X332700Y142100D02*
X344156D01*
X388195Y461305D02*
X388634Y461744D01*
X391805Y457695D02*
X392244Y458134D01*
X398195Y461305D02*
X398634Y461744D01*
X401805Y457695D02*
X402244Y458134D01*
X294200Y349744D02*
Y352100D01*
X281291Y355309D02*
X281344Y355256D01*
X250500Y351100D02*
X250644D01*
X353100Y183200D02*
X367700D01*
X329244Y411634D02*
X333189Y407689D01*
X349100Y409600D02*
X358200D01*
X312787Y361613D02*
X313075Y361900D01*
X320877D01*
X321164Y361613D01*
X319800Y359300D02*
X320000Y359100D01*
X319000Y351144D02*
X320400Y349744D01*
X319000Y351144D02*
Y351500D01*
X322179Y359100D02*
X322579Y359500D01*
X320000Y359100D02*
X322179D01*
X321164Y361613D02*
X323970D01*
X324557Y362200D01*
X323979Y359500D02*
X325179Y360700D01*
X322579Y359500D02*
X323979D01*
X323100Y356500D02*
X325800Y359200D01*
X325179Y360700D02*
X335500D01*
X362600Y387800D02*
Y393700D01*
X365800Y380100D02*
X365900Y380000D01*
X133894Y264508D02*
Y333073D01*
X52000Y417633D02*
Y459500D01*
X54700Y423900D02*
Y456900D01*
X103584Y363384D02*
X133894Y333073D01*
X137831Y271036D02*
Y334704D01*
X106368Y366168D02*
X137831Y334704D01*
X283053Y291500D02*
X287656D01*
X288200Y290956D01*
X277147Y285097D02*
X277444Y284800D01*
X276928Y288081D02*
X277147Y288300D01*
X262719Y288081D02*
X276928D01*
X261400Y289400D02*
X262719Y288081D01*
X277147Y285097D02*
Y288300D01*
X268056Y294600D02*
X271900Y290756D01*
X205500Y320500D02*
X206800D01*
X201700Y324300D02*
X205500Y320500D01*
X195953Y322900D02*
X196323Y323271D01*
Y326200D02*
X197098Y326975D01*
X196323Y323271D02*
Y326200D01*
Y329700D01*
X197098Y326975D02*
X208825D01*
X211600Y324200D01*
X210788Y329812D02*
X215200Y325400D01*
X201700Y329812D02*
X210788D01*
X184900Y323944D02*
X189003D01*
X190047Y322900D01*
X242008Y302992D02*
X242300Y302700D01*
X247900D01*
X259400Y286100D02*
X260256Y285244D01*
X264500Y294600D02*
X268056D01*
X191400Y396800D02*
X223800Y364400D01*
X191400Y396800D02*
Y520900D01*
X187463Y395169D02*
X221016Y361616D01*
X175652Y382931D02*
X208991Y349591D01*
X175652Y382931D02*
Y473348D01*
X173683Y379667D02*
X206375Y346975D01*
X173683Y379667D02*
Y465317D01*
X187463Y395169D02*
Y430037D01*
X168000Y511000D02*
X185494Y493506D01*
X168000Y501000D02*
X183526Y485474D01*
X168000Y491000D02*
X181557Y477443D01*
X168000Y481000D02*
X175652Y473348D01*
X168000Y471000D02*
X173683Y465317D01*
X184863Y431114D02*
X185494Y431745D01*
X183363Y431735D02*
X183526Y431898D01*
X183363Y388804D02*
Y431735D01*
X184863Y392537D02*
Y431114D01*
Y392537D02*
X218400Y359000D01*
X183363Y388804D02*
X215784Y356384D01*
X181557Y385377D02*
X213167Y353767D01*
X181557Y385377D02*
Y477443D01*
X183526Y431898D02*
Y485474D01*
X185494Y431745D02*
Y493506D01*
X188400Y523900D02*
X191400Y520900D01*
X136315Y588715D02*
X140700Y593100D01*
X400000Y469500D02*
X436900Y506400D01*
X395947Y471447D02*
X432600Y508100D01*
X385947Y471947D02*
X425500Y511500D01*
X437800Y526700D02*
X438500D01*
X410100Y499000D02*
X437800Y526700D01*
X410100Y498923D02*
Y499000D01*
X386277Y475100D02*
X410100Y498923D01*
X380000Y469500D02*
X385947Y463553D01*
X368300Y475100D02*
X386277D01*
X362300Y469100D02*
X368300Y475100D01*
X329910Y412300D02*
X350077D01*
X350743Y411634D01*
X354634D01*
X339700Y409700D02*
X349000D01*
X349100Y409600D01*
X354634Y411634D02*
X355900Y412900D01*
X500500Y548900D02*
X506200Y554600D01*
X500500Y539100D02*
Y548900D01*
X487700Y526300D02*
X500500Y539100D01*
X388000Y535500D02*
X389500Y534000D01*
X386500Y509500D02*
Y532500D01*
X382500Y509000D02*
Y532000D01*
X378500Y506500D02*
Y533000D01*
X357100Y603677D02*
Y609500D01*
Y603677D02*
X357300Y603477D01*
X364900Y448900D02*
Y461700D01*
X314700Y377900D02*
Y407500D01*
X311300Y422600D02*
Y427800D01*
Y422600D02*
X313800Y420100D01*
X315900D01*
X194300Y226900D02*
X203006Y218194D01*
X194300Y226900D02*
Y229433D01*
X270400Y413244D02*
X270856Y413700D01*
X377400Y87900D02*
Y97000D01*
X377500Y97100D01*
X441000Y61323D02*
X449760Y52563D01*
X463753Y45953D02*
X465000D01*
X457240Y46193D02*
Y52563D01*
X457000Y45953D02*
X457240Y46193D01*
X454000Y60937D02*
Y69047D01*
X453500Y60437D02*
X454000Y60937D01*
Y74953D02*
X488647D01*
X493200Y70400D01*
X517553Y60400D02*
X523200D01*
X547953Y59300D02*
X554700D01*
X572000Y42000D01*
X533244Y59300D02*
X542047D01*
X532700Y58756D02*
X533244Y59300D01*
X524844Y58756D02*
X532700D01*
X523200Y60400D02*
X524844Y58756D01*
X550715Y40400D02*
X552315Y42000D01*
X523200Y40400D02*
X550715D01*
X449760Y52563D02*
X453897Y56700D01*
X461900D01*
X465000Y53600D01*
Y45953D02*
Y53600D01*
Y45953D02*
X503106D01*
X465553Y40600D02*
X470400D01*
X465000Y40047D02*
X465553Y40600D01*
X462447Y34600D02*
X517400D01*
X523200Y40400D01*
X512600Y61353D02*
Y66847D01*
X516153Y70400D02*
X523200D01*
X512800Y72953D02*
X520000Y80153D01*
X467500Y320000D02*
X468900Y321400D01*
X333444Y296000D02*
X336500D01*
X260256Y285244D02*
X271900D01*
X338260Y271496D02*
X342496D01*
X333043Y277402D02*
X335702D01*
X338356Y286100D02*
X338456Y286200D01*
X384800Y338023D02*
Y344219D01*
X397600Y345167D02*
X433767Y309000D01*
X392800Y342400D02*
Y359400D01*
X434067Y301133D02*
Y302200D01*
X430323Y292500D02*
X433000D01*
X384800Y338023D02*
X430323Y292500D01*
X335500Y360700D02*
X362600Y387800D01*
X325800Y359200D02*
X345100D01*
X395947Y457821D02*
X401769Y452000D01*
X453800Y248700D02*
X457600Y244900D01*
Y234553D02*
Y244900D01*
X463800Y228853D02*
Y238700D01*
X450900Y221947D02*
X462800D01*
X463800Y222947D01*
X473800Y238700D02*
X477900Y234600D01*
X342700Y303600D02*
X342800Y303700D01*
X215200Y325400D02*
X215300D01*
X239200Y314400D02*
X240740D01*
X379900Y328000D02*
X423991Y283910D01*
X381500Y336900D02*
X428585Y289815D01*
X366478Y438522D02*
X379378D01*
X203006Y218194D02*
X219100D01*
X219253Y220163D02*
X221069Y218347D01*
X219569Y223631D02*
X220027D01*
X211400Y202400D02*
Y212400D01*
X220027Y223631D02*
X225006Y218653D01*
X223037Y168979D02*
Y218500D01*
X219406Y222131D02*
X223037Y218500D01*
X221069Y168164D02*
Y218347D01*
X241600Y211500D02*
X249200D01*
X225006Y211601D02*
Y218653D01*
X224591Y170209D02*
Y211187D01*
X225006Y211601D01*
X224591Y170209D02*
X247605Y147195D01*
X229900Y209000D02*
Y222000D01*
X219100Y216077D02*
X219200Y215977D01*
X219100Y216077D02*
Y218194D01*
Y167348D02*
X219200Y167448D01*
Y215977D01*
X216000Y215500D02*
X216600Y214900D01*
X207000Y215500D02*
X216000D01*
X193900Y202400D02*
X207000Y215500D01*
X181400Y202400D02*
X193900D01*
X224300Y531200D02*
Y542100D01*
X227800Y537700D02*
X240600Y550500D01*
X198900Y537500D02*
Y537700D01*
X365030Y279370D02*
X401700Y242700D01*
Y240000D02*
Y242700D01*
X260100Y587700D02*
X260900Y588500D01*
X260100Y576100D02*
Y587700D01*
X298900Y131600D02*
X306200D01*
X309900Y137500D02*
X311500Y139100D01*
X379300Y140600D02*
Y144000D01*
X378500Y171053D02*
X411000Y138553D01*
X379300Y144000D02*
X389500Y154200D01*
X398000Y160200D02*
X406500Y168700D01*
Y195800D02*
Y205600D01*
X490800Y97100D02*
X491000Y97300D01*
X441000Y61323D02*
Y93600D01*
X137831Y271036D02*
X157184Y251684D01*
X133894Y264508D02*
X153100Y245302D01*
Y245300D02*
Y245302D01*
X289900Y269200D02*
Y270500D01*
X292556Y446300D02*
X292600Y446256D01*
Y439400D02*
Y446256D01*
Y417100D02*
Y439400D01*
X287044Y441844D02*
Y446300D01*
X286100Y440900D02*
X287044Y441844D01*
X285900Y440900D02*
X286100D01*
X265444Y439144D02*
Y447600D01*
X271400Y439400D02*
Y447156D01*
Y417644D02*
Y439400D01*
X270856Y417100D02*
X271400Y417644D01*
X270956Y447600D02*
X271400Y447156D01*
X264700Y438400D02*
X265444Y439144D01*
X264400Y438400D02*
X264700D01*
X271244Y391600D02*
Y394856D01*
X270800Y395300D02*
X271244Y394856D01*
X270700Y395200D02*
X270800Y395300D01*
X270400Y413244D02*
X270500Y413144D01*
X292956Y391900D02*
Y395744D01*
X292906Y395794D02*
X292956Y395744D01*
X289800Y406700D02*
X290937Y407837D01*
X289800Y387400D02*
X290119Y387719D01*
Y394127D01*
X289800Y394446D02*
X290119Y394127D01*
X289800Y394446D02*
Y406700D01*
X276756Y391600D02*
Y394656D01*
X270500Y395200D02*
Y413144D01*
Y395200D02*
X270700D01*
X276756Y394656D02*
X277200Y395100D01*
X287100Y394300D02*
X287444Y393956D01*
Y391900D02*
Y393956D01*
X292906Y395794D02*
X293537Y396426D01*
Y408914D01*
X293200Y409251D02*
X293537Y408914D01*
X293200Y409251D02*
Y416500D01*
X261600Y420600D02*
X268500D01*
X258700Y423500D02*
X261600Y420600D01*
X324557Y362200D02*
X334100D01*
X358900Y387000D01*
Y394300D01*
X326744Y446900D02*
X326900Y446744D01*
X333178Y438522D02*
X333200Y438500D01*
X333400D01*
X321378Y438522D02*
X333178D01*
X326900Y443100D02*
Y446744D01*
X332256Y439644D02*
Y446900D01*
Y439644D02*
X333378Y438522D01*
X333400Y438500D01*
X333178Y438522D02*
X333378D01*
X354800Y438500D02*
X354843Y438458D01*
X347400Y442300D02*
X349000D01*
X354512D02*
X354843Y441969D01*
Y438458D02*
Y438522D01*
Y441969D01*
X349000Y391044D02*
Y409700D01*
Y391044D02*
X349444Y390600D01*
X354843Y390713D02*
Y395157D01*
Y390713D02*
X354956Y390600D01*
X321944Y390544D02*
X325700Y394300D01*
X321944Y389900D02*
Y390544D01*
X333189Y393389D02*
Y407689D01*
X329700Y389900D02*
X333189Y393389D01*
X327456Y389900D02*
X329700D01*
X399100Y387800D02*
Y391600D01*
X386256Y391956D02*
X388144D01*
Y388956D02*
Y391956D01*
Y388956D02*
X389300Y387800D01*
X392000Y390900D02*
X392200Y390700D01*
X392100Y385288D02*
Y387800D01*
Y385288D02*
X392200Y385188D01*
X389300Y387800D02*
X392100D01*
X399100D01*
X388144Y424544D02*
X388200Y424600D01*
X449900Y266000D02*
Y431700D01*
X446900Y338800D02*
Y392100D01*
X419681Y391956D02*
X419800Y391837D01*
X419500Y391956D02*
X419591Y392046D01*
X427900Y379500D02*
X446500Y398100D01*
X379800Y391200D02*
X385500D01*
X386256Y391956D01*
X388144D02*
Y424544D01*
X379800Y391200D02*
Y396100D01*
X419800Y385500D02*
Y391837D01*
X415000Y390756D02*
Y393900D01*
Y385244D02*
X419544D01*
X419800Y385500D01*
X425500Y392100D02*
Y392300D01*
X392100Y394900D02*
X414000D01*
X415000Y393900D01*
X392000Y394800D02*
X392100Y394900D01*
X392000Y390900D02*
Y394800D01*
X399100Y391956D02*
Y392100D01*
X407644Y391900D02*
X407700Y391956D01*
X407644Y385244D02*
Y391900D01*
Y385244D02*
X415000D01*
X392000Y437800D02*
X393600D01*
X336600Y445600D02*
X339600Y448600D01*
X385947Y457821D02*
X393669Y450100D01*
X363823Y446300D02*
X365977D01*
X393669Y450100D02*
X399400D01*
X400666Y448834D01*
X401577D01*
X398779Y448600D02*
X400044Y447334D01*
X402198D01*
X401577Y448834D02*
X401743Y449000D01*
X402198Y447334D02*
X402364Y447500D01*
X434100D02*
X449900Y431700D01*
X339600Y448600D02*
X361523D01*
X363823Y446300D01*
X380100Y437800D02*
X392000D01*
X379378Y438522D02*
X380100Y437800D01*
X384777Y448800D02*
X384977Y448600D01*
X398779D01*
X368477Y448800D02*
X384777D01*
X365977Y446300D02*
X368477Y448800D01*
X383700Y446200D02*
X386344Y443556D01*
Y441900D02*
Y443556D01*
X391856Y437944D02*
Y441900D01*
Y437944D02*
X392000Y437800D01*
X421323Y448400D02*
X423477D01*
X424377Y447500D01*
X434100D01*
X420702Y449900D02*
X424098D01*
X424998Y449000D01*
X420080Y451400D02*
X424720D01*
X425620Y450500D01*
X460879D01*
X419459Y452900D02*
X425341D01*
X426241Y452000D01*
X459000D01*
X408121Y453500D02*
X417938D01*
X418838Y454400D01*
X425962D01*
X426862Y453500D01*
X457000D01*
X402364Y447500D02*
X405636D01*
X424998Y449000D02*
X461500D01*
X419756Y443156D02*
X422400Y445800D01*
X419756Y441500D02*
Y443156D01*
X414244Y438744D02*
Y441500D01*
X413800Y438300D02*
X414244Y438744D01*
X401743Y449000D02*
X405015D01*
X401121Y450500D02*
X404393D01*
X405293Y451400D01*
X401769Y452000D02*
X403772D01*
X404672Y452900D01*
X406600D01*
X407666Y451834D01*
X408577D01*
X405293Y451400D02*
X405978D01*
X407044Y450334D01*
X409198D01*
X405015Y449000D02*
X405636Y449621D01*
X406423Y448834D01*
X409820D01*
X405636Y447500D02*
X405802Y447334D01*
X410441D01*
X408577Y451834D02*
X408743Y452000D01*
X418559D01*
X419459Y452900D01*
X409198Y450334D02*
X409364Y450500D01*
X419180D01*
X420080Y451400D01*
X409820Y448834D02*
X409985Y449000D01*
X419802D01*
X420702Y449900D01*
X410441Y447334D02*
X410607Y447500D01*
X420423D01*
X421323Y448400D01*
X536100Y449700D02*
Y452400D01*
X536000Y449600D02*
X536100Y449700D01*
X540644Y449600D02*
X551700D01*
X540944Y500900D02*
X549900D01*
X540644Y500600D02*
X540944Y500900D01*
X531644Y504744D02*
X532900Y506000D01*
X540644D01*
X466056Y356100D02*
X472000D01*
X465800Y355844D02*
X466056Y356100D01*
X472000D02*
Y358838D01*
X473643Y360481D01*
Y373457D01*
X471100Y376000D02*
X473643Y373457D01*
X470841Y361356D02*
X471043Y361558D01*
X465800Y361356D02*
X470841D01*
X454956Y375244D02*
X458100D01*
X458500Y374844D01*
X459556Y379300D02*
X462000D01*
X458500Y380356D02*
X459556Y379300D01*
X459500Y361256D02*
X459600Y361356D01*
X453756Y355744D02*
X459500D01*
X453717Y355784D02*
X453756Y355744D01*
X454956Y357023D02*
Y363267D01*
X454700Y363523D02*
X454956Y363267D01*
X454700Y373388D02*
X454956Y373644D01*
X454700Y363523D02*
Y373388D01*
X457300Y364600D02*
X459500Y362400D01*
Y361256D02*
Y362400D01*
X465500Y298828D02*
X465972Y299300D01*
X465500Y296456D02*
Y298828D01*
Y290944D02*
X465500Y290944D01*
Y287300D02*
Y290944D01*
D35*
X334744Y335200D02*
Y339500D01*
Y316500D02*
Y335200D01*
Y312700D02*
Y316500D01*
Y307500D02*
Y312700D01*
X332844Y277402D02*
Y277600D01*
Y271600D02*
Y277402D01*
X319000Y349744D02*
X320400D01*
X294200D02*
X319000D01*
X263100Y349744D02*
X275400D01*
X259500D02*
X263100D01*
X287600Y270756D02*
X289900D01*
X284000D02*
X287600D01*
X272400Y271256D02*
X272700D01*
X259500D02*
X272400D01*
X223204Y246704D02*
X247756Y271256D01*
X223200Y246700D02*
X223204Y246704D01*
X154300Y228700D02*
X168000D01*
X150500D02*
X154300D01*
X84300D02*
X150500D01*
X214840Y232700D02*
X247827Y265687D01*
X64800Y30600D02*
X83400Y12000D01*
X310000D01*
X345000Y47000D01*
Y67000D01*
X68100Y5400D02*
X353900D01*
X345000Y67000D02*
X359600Y81600D01*
Y97100D01*
X168000Y228700D02*
X188335D01*
X647500Y77500D02*
X653000D01*
X642500D02*
X647500D01*
X556100Y91800D02*
X573700D01*
X537700D02*
X556100D01*
X631500Y188256D02*
X642500D01*
X644700Y190456D01*
Y291100D01*
X611300Y257700D02*
X644700Y291100D01*
Y386633D01*
X640500Y390833D02*
X644700Y386633D01*
X640500Y390833D02*
Y416900D01*
X611300Y387700D02*
X640500Y416900D01*
Y460244D01*
X630500D02*
X640500D01*
X600100Y118200D02*
Y175900D01*
X573700Y91800D02*
X600100Y118200D01*
X532400Y97100D02*
X537700Y91800D01*
X490800Y97100D02*
X532400D01*
X481000D02*
X490800D01*
X470900D02*
X481000D01*
X460700D02*
X470900D01*
X450700D02*
X460700D01*
X447200Y93600D02*
X450700Y97100D01*
X431000D02*
X434500Y93600D01*
X421000Y97100D02*
X431000D01*
X410900D02*
X421000D01*
X30800Y117400D02*
X50200D01*
X50500Y117700D01*
X72980Y134800D02*
X75880Y131900D01*
X72980Y134800D02*
Y194000D01*
X75880Y88480D02*
Y131900D01*
X84593Y106400D02*
X141700Y163507D01*
X64800Y77400D02*
X75880Y88480D01*
X39000Y221200D02*
Y235000D01*
Y221200D02*
X45600Y214600D01*
Y200700D02*
Y214600D01*
X237200Y427400D02*
X247200Y417400D01*
X265322Y417078D02*
X265347Y417054D01*
X113800Y525633D02*
X119367Y531200D01*
X113800Y523700D02*
Y525633D01*
Y476900D02*
Y523700D01*
X141500Y402000D02*
Y403244D01*
Y402000D02*
X154950Y388550D01*
X323100Y270500D02*
X331744D01*
X318500D02*
X323100D01*
X359600Y97100D02*
X377500D01*
X410900D01*
X64800Y54100D02*
Y77400D01*
X50500Y23000D02*
X68100Y5400D01*
X253256Y311000D02*
Y315300D01*
X251400Y271256D02*
X259500D01*
X249000D02*
X251400D01*
X272700Y271256D02*
X283500D01*
X332844Y277600D02*
Y286100D01*
X320400Y349744D02*
X327500D01*
X353900Y5400D02*
X570400D01*
X642500Y77500D01*
X141700Y195300D02*
Y200100D01*
Y163507D02*
Y195300D01*
Y200100D02*
Y204600D01*
X141500Y199900D02*
X141700Y200100D01*
X84100Y106400D02*
X84593D01*
X253000Y348744D02*
X258500D01*
X327500Y349744D02*
X334244Y343000D01*
Y340000D02*
Y343000D01*
X283500Y271256D02*
X284000Y270756D01*
X83900Y305280D02*
X92620Y314000D01*
X83900Y298300D02*
Y305280D01*
X84200Y182780D02*
X95420Y194000D01*
X84200Y179000D02*
Y182780D01*
X98320Y130620D02*
Y131900D01*
X84100Y116400D02*
X98320Y130620D01*
X70980Y196000D02*
Y253400D01*
Y196000D02*
X72980Y194000D01*
X270900Y531200D02*
X325200Y585500D01*
X345400D01*
X265347Y417054D02*
Y417098D01*
X237200Y531200D02*
X270900D01*
X247200Y417400D02*
X265000D01*
X345400Y585500D02*
Y614200D01*
X350900Y619700D01*
X407400D01*
X224300Y531200D02*
X237200D01*
X119367D02*
X186100D01*
X70180Y254200D02*
X70980Y253400D01*
X70180Y254200D02*
Y314000D01*
X50500Y274500D02*
X54200Y278200D01*
X50500Y274500D02*
Y281600D01*
X642500Y77500D02*
Y182744D01*
X281000Y349744D02*
X290000D01*
X84300Y238700D02*
Y244280D01*
X93420Y253400D01*
X154950Y388550D02*
X176400Y367100D01*
X186100Y531200D02*
X224300D01*
X305300Y585500D02*
X325200D01*
X332844Y296600D02*
Y305600D01*
X253256Y315300D02*
Y321000D01*
X237200Y427400D02*
Y471900D01*
Y531200D01*
X434500Y93600D02*
X441000D01*
X447200D01*
X50500Y23000D02*
Y117700D01*
Y274500D01*
X188335Y228700D02*
X194734Y235099D01*
X204034D01*
X206433Y232700D01*
X213470D01*
X216856Y229314D01*
X214799Y238299D02*
X223200Y246700D01*
X213470Y232700D02*
X214840D01*
X145200Y234800D02*
X145533D01*
X150133Y239400D01*
X213698D01*
X214799Y238299D01*
X289900Y270500D02*
X302367D01*
X302467Y270400D01*
X305533D01*
X305633Y270500D01*
X318500D01*
X251756Y324500D02*
Y347500D01*
X265000Y417400D02*
X265322Y417078D01*
D36*
X735000Y-3000D02*
X753000D01*
Y14000D01*
X-3000Y653000D02*
X15000D01*
X-3000Y636000D02*
Y653000D01*
Y-3000D02*
X14000D01*
X-3000D02*
Y15000D01*
D37*
X730000Y590000D02*
D03*
Y580000D02*
D03*
Y570000D02*
D03*
Y560000D02*
D03*
Y550000D02*
D03*
Y540000D02*
D03*
Y530000D02*
D03*
Y520000D02*
D03*
X700000Y590000D02*
D03*
Y580000D02*
D03*
Y570000D02*
D03*
Y560000D02*
D03*
Y550000D02*
D03*
Y540000D02*
D03*
Y530000D02*
D03*
Y520000D02*
D03*
X730000Y230000D02*
D03*
Y220000D02*
D03*
Y210000D02*
D03*
Y200000D02*
D03*
Y190000D02*
D03*
Y180000D02*
D03*
Y170000D02*
D03*
Y160000D02*
D03*
Y150000D02*
D03*
Y140000D02*
D03*
Y130000D02*
D03*
Y120000D02*
D03*
Y110000D02*
D03*
Y90000D02*
D03*
Y100000D02*
D03*
X700000Y230000D02*
D03*
Y220000D02*
D03*
Y210000D02*
D03*
Y200000D02*
D03*
Y190000D02*
D03*
Y180000D02*
D03*
Y170000D02*
D03*
Y160000D02*
D03*
Y150000D02*
D03*
Y140000D02*
D03*
Y130000D02*
D03*
Y120000D02*
D03*
Y110000D02*
D03*
Y90000D02*
D03*
Y100000D02*
D03*
X730000Y240000D02*
D03*
Y250000D02*
D03*
Y260000D02*
D03*
Y270000D02*
D03*
Y280000D02*
D03*
X700000Y250000D02*
D03*
Y240000D02*
D03*
Y260000D02*
D03*
Y270000D02*
D03*
Y280000D02*
D03*
X730000Y290000D02*
D03*
Y300000D02*
D03*
Y310000D02*
D03*
Y320000D02*
D03*
Y330000D02*
D03*
Y340000D02*
D03*
Y350000D02*
D03*
Y360000D02*
D03*
Y370000D02*
D03*
Y380000D02*
D03*
Y390000D02*
D03*
Y400000D02*
D03*
Y410000D02*
D03*
Y420000D02*
D03*
X700000Y290000D02*
D03*
Y300000D02*
D03*
Y310000D02*
D03*
Y320000D02*
D03*
Y330000D02*
D03*
Y340000D02*
D03*
Y350000D02*
D03*
Y360000D02*
D03*
Y380000D02*
D03*
Y370000D02*
D03*
Y390000D02*
D03*
Y400000D02*
D03*
Y410000D02*
D03*
Y420000D02*
D03*
Y430000D02*
D03*
Y440000D02*
D03*
Y450000D02*
D03*
Y460000D02*
D03*
Y470000D02*
D03*
Y480000D02*
D03*
Y490000D02*
D03*
Y500000D02*
D03*
Y510000D02*
D03*
X730000Y430000D02*
D03*
Y440000D02*
D03*
Y450000D02*
D03*
Y460000D02*
D03*
Y470000D02*
D03*
Y480000D02*
D03*
Y490000D02*
D03*
Y500000D02*
D03*
Y510000D02*
D03*
X198900Y164400D02*
D03*
X567900Y274700D02*
D03*
X490800Y431300D02*
D03*
X242600Y472000D02*
D03*
X292000Y98500D02*
D03*
X282000D02*
D03*
X268000Y79500D02*
D03*
X278000D02*
D03*
X273000Y69500D02*
D03*
X283000D02*
D03*
X259000Y98500D02*
D03*
X258000Y79500D02*
D03*
X249000Y98500D02*
D03*
X253000Y69500D02*
D03*
X263000D02*
D03*
X46700Y516100D02*
D03*
Y526100D02*
D03*
Y536100D02*
D03*
Y546100D02*
D03*
Y556100D02*
D03*
Y566100D02*
D03*
Y576100D02*
D03*
D38*
X30800Y77400D02*
D03*
X563800Y173500D02*
D03*
X521900Y200900D02*
D03*
X378500Y199000D02*
D03*
X395500Y208000D02*
D03*
D39*
X30800Y87400D02*
D03*
Y97400D02*
D03*
Y107400D02*
D03*
Y117400D02*
D03*
Y127400D02*
D03*
X333000Y481000D02*
D03*
X343000Y471000D02*
D03*
X323000D02*
D03*
X333000D02*
D03*
X323000Y481000D02*
D03*
X313000D02*
D03*
Y471000D02*
D03*
X501000Y113000D02*
D03*
X471000Y123000D02*
D03*
X461000D02*
D03*
X491000D02*
D03*
X481000D02*
D03*
X491000Y113000D02*
D03*
X471000D02*
D03*
X461000D02*
D03*
X481000D02*
D03*
X451000Y123000D02*
D03*
X441000D02*
D03*
X431000D02*
D03*
X421000D02*
D03*
X411000D02*
D03*
X431000Y113000D02*
D03*
X441000D02*
D03*
X421000D02*
D03*
X451000D02*
D03*
X411000D02*
D03*
X573800Y173500D02*
D03*
Y163500D02*
D03*
Y143500D02*
D03*
Y153500D02*
D03*
Y133500D02*
D03*
Y113500D02*
D03*
Y103500D02*
D03*
Y123500D02*
D03*
X563800Y153500D02*
D03*
Y163500D02*
D03*
Y143500D02*
D03*
Y123500D02*
D03*
Y133500D02*
D03*
Y113500D02*
D03*
Y103500D02*
D03*
X531900Y200900D02*
D03*
Y190900D02*
D03*
Y170900D02*
D03*
Y180900D02*
D03*
Y160900D02*
D03*
Y140900D02*
D03*
Y130900D02*
D03*
Y150900D02*
D03*
X521900Y180900D02*
D03*
Y190900D02*
D03*
Y170900D02*
D03*
Y150900D02*
D03*
Y160900D02*
D03*
Y140900D02*
D03*
Y130900D02*
D03*
X378500Y189000D02*
D03*
Y179000D02*
D03*
X395500Y198000D02*
D03*
Y178000D02*
D03*
Y188000D02*
D03*
X440000Y459500D02*
D03*
X420000Y469500D02*
D03*
X410000D02*
D03*
X430000D02*
D03*
Y459500D02*
D03*
X410000D02*
D03*
X400000D02*
D03*
X420000D02*
D03*
X400000Y469500D02*
D03*
X390000D02*
D03*
X380000D02*
D03*
X370000D02*
D03*
X390000Y459500D02*
D03*
X380000D02*
D03*
X370000D02*
D03*
X317000Y504500D02*
D03*
X297000Y514500D02*
D03*
X287000D02*
D03*
X307000D02*
D03*
Y504500D02*
D03*
X287000D02*
D03*
X277000D02*
D03*
X297000D02*
D03*
X277000Y514500D02*
D03*
X267000D02*
D03*
X257000D02*
D03*
X247000D02*
D03*
X267000Y504500D02*
D03*
X257000D02*
D03*
X247000D02*
D03*
X572000Y42000D02*
D03*
Y22315D02*
D03*
X552315D02*
D03*
Y42000D02*
D03*
X391800Y68600D02*
D03*
X381800D02*
D03*
X95500Y580685D02*
D03*
X75815D02*
D03*
X95500Y561000D02*
D03*
X75815D02*
D03*
D40*
X109422Y416000D02*
D03*
X103517D02*
D03*
X115328D02*
D03*
X91706D02*
D03*
X85800D02*
D03*
X97611D02*
D03*
X138950D02*
D03*
X127139D02*
D03*
X121233D02*
D03*
X133044D02*
D03*
X79894D02*
D03*
X73989D02*
D03*
X62178D02*
D03*
X56272D02*
D03*
X68083D02*
D03*
X50367D02*
D03*
X44461D02*
D03*
D41*
X159816Y408323D02*
D03*
X23595D02*
D03*
D42*
X343000Y481000D02*
D03*
X501000Y123000D02*
D03*
X440000Y469500D02*
D03*
X317000Y514500D02*
D03*
X371800Y68600D02*
D03*
D43*
X199000Y298300D02*
D03*
Y294000D02*
D03*
D44*
X177776Y265824D02*
D03*
X164200Y279400D02*
D03*
X332700Y161300D02*
D03*
Y142100D02*
D03*
D45*
X82800Y43600D02*
D03*
X64800Y30600D02*
D03*
D46*
Y54100D02*
D03*
D47*
X288000Y79500D02*
D03*
D48*
X301200Y56500D02*
D03*
X239800D02*
D03*
D49*
X293000Y44500D02*
D03*
X248000D02*
D03*
D50*
X523200Y50400D02*
D03*
Y70400D02*
D03*
Y60400D02*
D03*
X493200Y70400D02*
D03*
Y60400D02*
D03*
Y50400D02*
D03*
Y40400D02*
D03*
X168000Y521000D02*
D03*
Y511000D02*
D03*
Y501000D02*
D03*
Y491000D02*
D03*
Y481000D02*
D03*
Y471000D02*
D03*
Y461000D02*
D03*
Y451000D02*
D03*
Y441000D02*
D03*
Y431000D02*
D03*
X138000D02*
D03*
Y441000D02*
D03*
Y451000D02*
D03*
Y461000D02*
D03*
Y471000D02*
D03*
Y481000D02*
D03*
Y491000D02*
D03*
Y501000D02*
D03*
Y511000D02*
D03*
X181400Y182400D02*
D03*
Y192400D02*
D03*
Y202400D02*
D03*
Y212400D02*
D03*
X211400D02*
D03*
Y202400D02*
D03*
Y192400D02*
D03*
D51*
X523200Y40400D02*
D03*
X138000Y521000D02*
D03*
X211400Y182400D02*
D03*
D52*
X483800Y238700D02*
D03*
Y228700D02*
D03*
X473800Y248700D02*
D03*
Y238700D02*
D03*
X483800Y218700D02*
D03*
Y208700D02*
D03*
X473800Y218700D02*
D03*
X453800Y248700D02*
D03*
X463800D02*
D03*
X453800Y238700D02*
D03*
X473800Y228700D02*
D03*
Y208700D02*
D03*
X463800Y238700D02*
D03*
X483800Y198700D02*
D03*
X473800D02*
D03*
X483800Y188700D02*
D03*
X473800D02*
D03*
X463800D02*
D03*
X473800Y178700D02*
D03*
X453800Y188700D02*
D03*
Y178700D02*
D03*
X463800D02*
D03*
X443800D02*
D03*
X433800Y248700D02*
D03*
X443800D02*
D03*
X433800Y238700D02*
D03*
X443800D02*
D03*
X423800D02*
D03*
Y248700D02*
D03*
Y228700D02*
D03*
X413800Y238700D02*
D03*
Y228700D02*
D03*
X423800Y218700D02*
D03*
X413800D02*
D03*
X433800Y188700D02*
D03*
X443800D02*
D03*
X423800Y198700D02*
D03*
Y178700D02*
D03*
X433800D02*
D03*
X413800Y208700D02*
D03*
X423800D02*
D03*
X413800Y198700D02*
D03*
X423800Y188700D02*
D03*
X413800D02*
D03*
X516200Y584600D02*
D03*
X506200D02*
D03*
X516200Y574600D02*
D03*
X506200D02*
D03*
X496200Y594600D02*
D03*
X506200D02*
D03*
X486200D02*
D03*
X496200Y584600D02*
D03*
X486200D02*
D03*
X516200Y564600D02*
D03*
X506200D02*
D03*
X516200Y554600D02*
D03*
X506200D02*
D03*
Y544600D02*
D03*
X496200Y554600D02*
D03*
Y544600D02*
D03*
X486200D02*
D03*
X466200Y594600D02*
D03*
X476200D02*
D03*
Y584600D02*
D03*
X466200D02*
D03*
Y574600D02*
D03*
X456200Y584600D02*
D03*
X466200Y564600D02*
D03*
X456200Y574600D02*
D03*
X476200Y554600D02*
D03*
X486200D02*
D03*
X466200D02*
D03*
X476200Y544600D02*
D03*
X456200Y564600D02*
D03*
X466200Y544600D02*
D03*
X456200Y554600D02*
D03*
D53*
X611300Y417700D02*
D03*
Y407700D02*
D03*
Y427700D02*
D03*
Y387700D02*
D03*
Y397700D02*
D03*
Y457700D02*
D03*
Y467700D02*
D03*
Y437700D02*
D03*
Y447700D02*
D03*
Y337700D02*
D03*
Y327700D02*
D03*
Y307700D02*
D03*
Y317700D02*
D03*
Y367700D02*
D03*
Y377700D02*
D03*
Y347700D02*
D03*
Y357700D02*
D03*
Y297700D02*
D03*
Y277700D02*
D03*
Y287700D02*
D03*
Y257700D02*
D03*
Y267700D02*
D03*
Y237700D02*
D03*
Y247700D02*
D03*
Y217700D02*
D03*
Y207700D02*
D03*
Y227700D02*
D03*
Y197700D02*
D03*
Y187700D02*
D03*
D54*
Y505200D02*
D03*
D55*
Y140200D02*
D03*
D56*
Y177700D02*
D03*
D57*
X340000Y535000D02*
D03*
X540000Y262500D02*
D03*
X378000Y120000D02*
D03*
X30000Y620000D02*
D03*
X720000D02*
D03*
Y30000D02*
D03*
X30000D02*
D03*
D58*
X84100Y106400D02*
D03*
Y116400D02*
D03*
X84200Y169000D02*
D03*
Y179000D02*
D03*
X84300Y228700D02*
D03*
Y238700D02*
D03*
X83900Y288300D02*
D03*
Y298300D02*
D03*
D59*
X84100Y96400D02*
D03*
X84200Y159000D02*
D03*
X84300Y218700D02*
D03*
X83900Y278300D02*
D03*
D60*
X46700Y586100D02*
D03*
D61*
X201358Y588600D02*
D03*
X221043D02*
D03*
X230885D02*
D03*
X191515Y608285D02*
D03*
X230885D02*
D03*
X191515Y618127D02*
D03*
X230885D02*
D03*
X211200Y608285D02*
D03*
Y588600D02*
D03*
X191515D02*
D03*
X146157Y588715D02*
D03*
X165842D02*
D03*
X175685D02*
D03*
X136315Y608400D02*
D03*
X175685D02*
D03*
X136315Y618242D02*
D03*
X175685D02*
D03*
X156000Y608400D02*
D03*
Y588715D02*
D03*
X136315D02*
D03*
D62*
X737000Y601000D02*
D03*
X653000Y77500D02*
D03*
X647500D02*
D03*
X592000Y610000D02*
D03*
X576000D02*
D03*
X741000Y601000D02*
D03*
X224300Y325500D02*
D03*
X456695Y315406D02*
D03*
X454400Y309700D02*
D03*
X459000Y296700D02*
D03*
X329000Y301000D02*
D03*
X304000Y274100D02*
D03*
X272400Y268400D02*
D03*
X253000Y267400D02*
D03*
X201266Y231399D02*
D03*
X198000Y229433D02*
D03*
X204500Y229400D02*
D03*
X555800Y95500D02*
D03*
X39000Y235000D02*
D03*
X45600Y200700D02*
D03*
X472000Y356100D02*
D03*
X452000Y172200D02*
D03*
X498300Y158400D02*
D03*
X495100Y103400D02*
D03*
X457700Y182300D02*
D03*
X496300Y161600D02*
D03*
X540600Y101800D02*
D03*
X460600Y175000D02*
D03*
X496800Y151100D02*
D03*
X510100Y104263D02*
D03*
X522600Y106863D02*
D03*
X495600Y144500D02*
D03*
X442900Y168100D02*
D03*
X378700Y226600D02*
D03*
X435200Y134200D02*
D03*
X467400Y203800D02*
D03*
X496417Y212700D02*
D03*
X512417Y196700D02*
D03*
X551734Y188100D02*
D03*
X455100Y263300D02*
D03*
X444300Y274100D02*
D03*
X530200Y207600D02*
D03*
X452600Y210400D02*
D03*
X457100Y210500D02*
D03*
X460900Y196200D02*
D03*
X493300Y174600D02*
D03*
X506400Y166800D02*
D03*
X551600Y124900D02*
D03*
X418900Y223100D02*
D03*
X421700Y203500D02*
D03*
X429100Y211100D02*
D03*
X428900Y218400D02*
D03*
X448247Y190900D02*
D03*
X494300Y165800D02*
D03*
X478500Y170500D02*
D03*
X498200Y190000D02*
D03*
X449300Y194600D02*
D03*
X495100Y194100D02*
D03*
X442400Y254500D02*
D03*
X459600Y254600D02*
D03*
X593100Y183800D02*
D03*
X508400Y248700D02*
D03*
X515400Y241700D02*
D03*
X511300Y231400D02*
D03*
X287367Y119167D02*
D03*
X274300Y125100D02*
D03*
X269969Y126331D02*
D03*
X266357Y124643D02*
D03*
X267700Y148200D02*
D03*
X265300Y131500D02*
D03*
Y142300D02*
D03*
X270700Y143600D02*
D03*
X454000Y289300D02*
D03*
X259863Y358862D02*
D03*
X295800Y356100D02*
D03*
X330600Y355700D02*
D03*
X446800Y338700D02*
D03*
X188800Y577100D02*
D03*
X148900Y597900D02*
D03*
X201100Y576800D02*
D03*
X199000Y573600D02*
D03*
X237185Y576500D02*
D03*
X252600Y566500D02*
D03*
X261800D02*
D03*
X117500Y524100D02*
D03*
X86700Y554900D02*
D03*
X424000Y533000D02*
D03*
X427700Y532000D02*
D03*
X420000Y533500D02*
D03*
X416000Y534500D02*
D03*
X408500Y537000D02*
D03*
X370100Y532500D02*
D03*
X375000Y527600D02*
D03*
X397800Y523100D02*
D03*
X439600Y530400D02*
D03*
X453000Y530200D02*
D03*
X400300Y538000D02*
D03*
X410700Y555300D02*
D03*
X412200Y565100D02*
D03*
X408000Y552700D02*
D03*
X397400Y535367D02*
D03*
X387900Y601800D02*
D03*
X405800Y600900D02*
D03*
X447500Y599800D02*
D03*
Y576600D02*
D03*
X444800Y569700D02*
D03*
X376500Y379500D02*
D03*
X395000Y368500D02*
D03*
X391300Y360900D02*
D03*
X454800Y398100D02*
D03*
X454989Y385011D02*
D03*
X522300Y498300D02*
D03*
X369300Y523300D02*
D03*
X373800Y518800D02*
D03*
X400300D02*
D03*
X413000Y506100D02*
D03*
X258700Y423500D02*
D03*
X133600Y454600D02*
D03*
X132400Y459400D02*
D03*
X124100Y469800D02*
D03*
X112200Y468400D02*
D03*
X113800Y476900D02*
D03*
X119900Y468800D02*
D03*
X116200Y468900D02*
D03*
X62000Y476100D02*
D03*
X333300Y192600D02*
D03*
X326700Y185600D02*
D03*
X316100Y160400D02*
D03*
X308005Y158505D02*
D03*
X296300Y146600D02*
D03*
X284900D02*
D03*
X299636Y139836D02*
D03*
X278400Y124400D02*
D03*
X308600Y233200D02*
D03*
X321400Y241400D02*
D03*
X280500Y241200D02*
D03*
X250800Y228900D02*
D03*
X255700Y239400D02*
D03*
X252000Y239900D02*
D03*
X248200Y226267D02*
D03*
X245000Y233800D02*
D03*
X247700Y231100D02*
D03*
X241100Y233200D02*
D03*
X238300Y236600D02*
D03*
X236084Y224016D02*
D03*
X238700Y221400D02*
D03*
X239100Y194600D02*
D03*
X235400D02*
D03*
X244600Y192200D02*
D03*
X283600Y224500D02*
D03*
X319200Y260600D02*
D03*
X243500Y143900D02*
D03*
X247605Y141805D02*
D03*
X322630Y267130D02*
D03*
X292300Y231600D02*
D03*
X297100Y227200D02*
D03*
X311300Y165700D02*
D03*
X304800Y176000D02*
D03*
X309300Y172800D02*
D03*
X311500Y149700D02*
D03*
X314600Y147200D02*
D03*
Y138300D02*
D03*
X306000Y127900D02*
D03*
X275700Y208400D02*
D03*
X275200Y216100D02*
D03*
X272300Y224400D02*
D03*
X298900Y131600D02*
D03*
X296425Y128025D02*
D03*
X353600Y84200D02*
D03*
X348200Y78800D02*
D03*
X222200Y94500D02*
D03*
X230400D02*
D03*
X311715Y96085D02*
D03*
Y114285D02*
D03*
X346900Y94600D02*
D03*
X448500Y40200D02*
D03*
X436400Y100500D02*
D03*
X471260Y301626D02*
D03*
Y305563D02*
D03*
X406900Y213400D02*
D03*
X257100Y389219D02*
D03*
X492300Y326800D02*
D03*
X641000Y385100D02*
D03*
X421700Y585000D02*
D03*
X236590Y147710D02*
D03*
X239500Y145300D02*
D03*
X168600Y225500D02*
D03*
X285800Y53200D02*
D03*
X303200Y72000D02*
D03*
X286200Y87200D02*
D03*
X282100Y126300D02*
D03*
X339100Y93200D02*
D03*
X228553Y132653D02*
D03*
X335700Y91200D02*
D03*
X224853Y115100D02*
D03*
X222647Y132853D02*
D03*
X257800Y92000D02*
D03*
X89100Y473300D02*
D03*
X88500Y457100D02*
D03*
X77800Y455300D02*
D03*
X72200Y455200D02*
D03*
X65900Y454900D02*
D03*
X68500Y462474D02*
D03*
X21332Y462100D02*
D03*
X27600Y464200D02*
D03*
X38400Y475000D02*
D03*
X57100Y473600D02*
D03*
X75800Y474400D02*
D03*
X49900Y478100D02*
D03*
X7700Y445000D02*
D03*
X68500Y450326D02*
D03*
X80520Y473680D02*
D03*
X85400Y473900D02*
D03*
X243300Y350800D02*
D03*
X243800Y315300D02*
D03*
X244793Y283307D02*
D03*
X250300Y279000D02*
D03*
X285228Y260172D02*
D03*
X287600Y268200D02*
D03*
X343766Y310866D02*
D03*
X334800Y312700D02*
D03*
X334600Y335200D02*
D03*
X330800Y352000D02*
D03*
X365300Y89600D02*
D03*
Y103700D02*
D03*
X436600Y228500D02*
D03*
X436244Y216700D02*
D03*
X482740Y295721D02*
D03*
Y303595D02*
D03*
X483900Y309100D02*
D03*
X470688Y314488D02*
D03*
X72500Y403700D02*
D03*
X141700Y195300D02*
D03*
Y200100D02*
D03*
Y204600D02*
D03*
X245300Y323700D02*
D03*
X259700Y265800D02*
D03*
X340895Y352205D02*
D03*
X265347Y417054D02*
D03*
X392000Y537500D02*
D03*
X407500Y500000D02*
D03*
X500500Y523500D02*
D03*
X404000Y537000D02*
D03*
X396000Y489000D02*
D03*
X399000Y491500D02*
D03*
X401500Y494500D02*
D03*
X388000Y536500D02*
D03*
X404000Y497500D02*
D03*
X393000Y486500D02*
D03*
X364000Y606500D02*
D03*
X538500Y628500D02*
D03*
X545500Y626500D02*
D03*
X549000Y624500D02*
D03*
X552500Y622000D02*
D03*
X394052Y604552D02*
D03*
X202318Y550418D02*
D03*
X215300Y562800D02*
D03*
X215113Y551287D02*
D03*
X339700Y409700D02*
D03*
X413800Y438300D02*
D03*
X389500Y355000D02*
D03*
X454400Y321200D02*
D03*
X385182Y348500D02*
D03*
X395000Y376500D02*
D03*
X392500Y371400D02*
D03*
X470688Y327188D02*
D03*
X482740Y283910D02*
D03*
Y291784D02*
D03*
X366478Y438522D02*
D03*
X462000Y379300D02*
D03*
X472200Y389200D02*
D03*
X471100Y376000D02*
D03*
X454956Y375244D02*
D03*
X453717Y355784D02*
D03*
X261300Y413700D02*
D03*
X407400Y619700D02*
D03*
X409000Y588200D02*
D03*
X490300Y563609D02*
D03*
X52000Y459500D02*
D03*
X54700Y456900D02*
D03*
X99000Y465300D02*
D03*
X154644Y515344D02*
D03*
X50500Y281600D02*
D03*
X54200Y278200D02*
D03*
X550500Y506000D02*
D03*
X540700Y512000D02*
D03*
X547200Y444200D02*
D03*
X198300Y554400D02*
D03*
X277600Y140500D02*
D03*
X247827Y259373D02*
D03*
X329000Y225400D02*
D03*
X275900Y180500D02*
D03*
X268100Y184000D02*
D03*
X268300Y230700D02*
D03*
X256200Y216100D02*
D03*
X254000Y211600D02*
D03*
X246100Y215200D02*
D03*
X267400Y238400D02*
D03*
X294200Y352100D02*
D03*
X281291Y355309D02*
D03*
X275300Y355200D02*
D03*
X250500Y351100D02*
D03*
X296174Y274500D02*
D03*
X292474D02*
D03*
X299874D02*
D03*
X266330Y337530D02*
D03*
X268946Y340146D02*
D03*
X271562Y342762D02*
D03*
X246430Y357430D02*
D03*
X243813Y354813D02*
D03*
X249046Y360046D02*
D03*
X251662Y362662D02*
D03*
X206900Y517932D02*
D03*
X211700Y519500D02*
D03*
X209500Y527200D02*
D03*
X213200Y526900D02*
D03*
X353100Y183200D02*
D03*
X367700D02*
D03*
X383616Y90116D02*
D03*
X426400Y101000D02*
D03*
X333189Y407689D02*
D03*
X309600Y389100D02*
D03*
X312787Y361613D02*
D03*
X358200Y409600D02*
D03*
X358900Y394300D02*
D03*
X362600Y393700D02*
D03*
X319800Y359300D02*
D03*
X323100Y356500D02*
D03*
X319000Y351500D02*
D03*
X365800Y380100D02*
D03*
X344094Y340394D02*
D03*
X145200Y234800D02*
D03*
X154300Y231600D02*
D03*
X159800Y254300D02*
D03*
X188400Y286700D02*
D03*
X153900Y281500D02*
D03*
X214900Y288800D02*
D03*
X261400Y289400D02*
D03*
X206800Y320500D02*
D03*
X211600Y324200D02*
D03*
X154950Y388550D02*
D03*
X176400Y367100D02*
D03*
X180900Y333200D02*
D03*
X242008Y302992D02*
D03*
X247900Y302700D02*
D03*
X259400Y286100D02*
D03*
X264500Y294600D02*
D03*
X223800Y364400D02*
D03*
X221016Y361616D02*
D03*
X218400Y359000D02*
D03*
X215784Y356384D02*
D03*
X213167Y353767D02*
D03*
X208991Y349591D02*
D03*
X206375Y346975D02*
D03*
X187463Y430037D02*
D03*
X188400Y523900D02*
D03*
X305300Y585500D02*
D03*
X427400Y570100D02*
D03*
X438500Y526700D02*
D03*
X387500Y480500D02*
D03*
X390000Y483500D02*
D03*
X362300Y469100D02*
D03*
X349000Y409700D02*
D03*
X355900Y412900D02*
D03*
X358780Y463220D02*
D03*
X487700Y526300D02*
D03*
X351900Y610700D02*
D03*
X357100Y609500D02*
D03*
X386500Y532500D02*
D03*
X382500Y532000D02*
D03*
X378500Y533000D02*
D03*
X359700Y605000D02*
D03*
X354700Y602400D02*
D03*
X364900Y448900D02*
D03*
X309600Y377763D02*
D03*
Y385400D02*
D03*
Y381463D02*
D03*
X314700Y377900D02*
D03*
Y407500D02*
D03*
X311300Y427800D02*
D03*
X315900Y420100D02*
D03*
X194300Y229433D02*
D03*
X377400Y87900D02*
D03*
X470400Y40600D02*
D03*
X520000Y80153D02*
D03*
X472000Y344400D02*
D03*
X468900Y321400D02*
D03*
X336500Y296000D02*
D03*
X342496Y271496D02*
D03*
X335702Y277402D02*
D03*
X338456Y286200D02*
D03*
X384800Y344219D02*
D03*
X379900Y328000D02*
D03*
X436000Y312000D02*
D03*
X433767Y309000D02*
D03*
X381309Y332891D02*
D03*
X381500Y336900D02*
D03*
X436500Y305000D02*
D03*
X434067Y302200D02*
D03*
X433500Y298400D02*
D03*
X433000Y292500D02*
D03*
X430780Y295721D02*
D03*
X336600Y445600D02*
D03*
X405000Y243300D02*
D03*
X342800Y303700D02*
D03*
X344600Y297500D02*
D03*
X306700Y300900D02*
D03*
X215300Y325400D02*
D03*
X239200Y314400D02*
D03*
X263713Y334913D02*
D03*
X263100Y351100D02*
D03*
X247600Y329500D02*
D03*
X243100Y335800D02*
D03*
X239200Y331300D02*
D03*
X423991Y283910D02*
D03*
X428585Y289815D02*
D03*
X427400Y286100D02*
D03*
X373600Y308900D02*
D03*
Y429700D02*
D03*
X447800Y259900D02*
D03*
X418300Y268300D02*
D03*
X399500D02*
D03*
X431000Y232800D02*
D03*
X241600Y211500D02*
D03*
X238000Y215900D02*
D03*
X229900Y209000D02*
D03*
Y222000D02*
D03*
X285900Y241400D02*
D03*
X275700Y241000D02*
D03*
X216600Y214900D02*
D03*
X240600Y550500D02*
D03*
X227800Y537700D02*
D03*
X217900D02*
D03*
X198900Y537500D02*
D03*
X457100Y217000D02*
D03*
X478500Y159600D02*
D03*
X365030Y279370D02*
D03*
X401700Y240000D02*
D03*
X260900Y588500D02*
D03*
X260100Y576100D02*
D03*
X306200Y131600D02*
D03*
X309900Y137500D02*
D03*
X379300Y140600D02*
D03*
X389500Y154200D02*
D03*
X398000Y160200D02*
D03*
X406500Y168700D02*
D03*
Y195800D02*
D03*
Y205600D02*
D03*
X230500Y239700D02*
D03*
X223407Y246500D02*
D03*
X150500Y231600D02*
D03*
X136000Y236800D02*
D03*
X157184Y251684D02*
D03*
X154567Y249067D02*
D03*
X146719Y241219D02*
D03*
X140500Y236800D02*
D03*
X149400Y243900D02*
D03*
X153100Y245300D02*
D03*
X292600Y439400D02*
D03*
X285900Y440900D02*
D03*
X271400Y439400D02*
D03*
X264400Y438400D02*
D03*
X257100Y385519D02*
D03*
Y381582D02*
D03*
Y377881D02*
D03*
X292906Y395794D02*
D03*
X290937Y407837D02*
D03*
X289800Y387400D02*
D03*
X270500Y395200D02*
D03*
X277200Y395100D02*
D03*
X287100Y394300D02*
D03*
X268500Y420600D02*
D03*
X333400Y438500D02*
D03*
X321378Y438522D02*
D03*
X326900Y443100D02*
D03*
X354843Y438458D02*
D03*
X347400Y442300D02*
D03*
X354843Y395157D02*
D03*
X325700Y394300D02*
D03*
X388200Y424600D02*
D03*
X446900Y392100D02*
D03*
X446500Y398100D02*
D03*
X385500Y391200D02*
D03*
X379800Y396100D02*
D03*
X419800Y385500D02*
D03*
X425500Y392300D02*
D03*
X414000Y394900D02*
D03*
X392000Y394800D02*
D03*
X399100Y392100D02*
D03*
X407644Y385244D02*
D03*
X392000Y437800D02*
D03*
X380100D02*
D03*
X383700Y446200D02*
D03*
X425700Y437800D02*
D03*
X422400Y445800D02*
D03*
X513700Y447500D02*
D03*
X522300Y453400D02*
D03*
X536100Y452400D02*
D03*
X551700Y449600D02*
D03*
X549900Y500900D02*
D03*
X531644Y504744D02*
D03*
X471043Y361558D02*
D03*
X457300Y364600D02*
D03*
X471260Y297689D02*
D03*
X465972Y299300D02*
D03*
X465500Y287300D02*
D03*
X471260Y289815D02*
D03*
Y285878D02*
D03*
D63*
X92620Y314000D02*
D03*
X70180D02*
D03*
X93420Y253400D02*
D03*
X70980D02*
D03*
X95420Y194000D02*
D03*
X72980D02*
D03*
X98320Y131900D02*
D03*
X75880D02*
D03*
M02*
